<svg width="186" height="189" viewBox="0 0 186 189" fill="none" xmlns="http://www.w3.org/2000/svg">
<circle cx="93" cy="93" r="92.5" fill="#E3E3E3" stroke="#D1D4D8"/>
<path fill-rule="evenodd" clip-rule="evenodd" d="M120.615 67.3695L120.851 67.6188C121.951 68.5486 121.656 72.5086 120.487 76.3643C119.744 79.0733 118.843 80.3931 118.257 81.2518C118.008 81.6175 117.815 81.8996 117.716 82.1697C114.364 97.5267 103.321 110.639 91.4405 110.639C79.5599 110.639 67.9014 97.5267 64.5486 82.1697C64.4497 81.8993 64.2571 81.617 64.0073 81.251C63.4214 80.3922 62.521 79.0725 61.7784 76.3643C60.6097 72.509 60.3456 68.8032 61.4148 67.6188L61.6501 67.3695C63.2309 65.9578 63.1073 66.0388 63.1073 66.0388C63.1073 66.0388 60.3507 52.4698 62.5609 46.0531C66.2238 35.2397 79.1289 29.5308 81.5974 28.6044C85.3876 26.9916 88.6578 27.6367 88.6578 27.6367C88.8193 27.6377 91.3487 28.1314 91.348 28.139C95.5056 28.9373 116.234 35.8055 119.705 46.0531C121.915 52.4698 119.158 66.0388 119.158 66.0388C119.158 66.0388 119.035 65.9578 120.615 67.3695ZM109.869 106.917C109.869 106.917 117.693 114.485 136.515 120.571C163.113 130.525 160.521 143.441 159.311 149.472C159.252 149.766 159.196 150.044 159.147 150.305C158.272 154.962 156.402 156.831 155.958 157.011C141.394 172.827 113.732 183.008 91.3036 182.589C61.1237 182.026 43.5378 169.105 29.4494 155.253C29.3824 155.187 29.3016 155.135 29.2096 155.075C28.7171 154.756 27.9033 154.229 27.1659 150.305C27.1663 150.286 27.1391 150.205 27.0927 150.067C26.3333 147.805 20.4402 130.253 46.6243 120.571C65.4468 114.484 73.2702 106.917 73.2702 106.917L73.9005 107.511C79.4901 112.719 85.6722 115.781 91.3036 115.781H91.8351C97.4669 115.781 103.649 112.719 109.239 107.511L109.869 106.917Z" fill="white" fill-opacity="0.8"/>
<g filter="url(#filter0_d_710_37)">
<circle cx="152.512" cy="164" r="22" fill="white"/>
</g>
<path fill-rule="evenodd" clip-rule="evenodd" d="M152.512 168C150.855 168 149.512 166.657 149.512 165C149.512 163.343 150.855 162 152.512 162C154.169 162 155.512 163.343 155.512 165C155.512 166.657 154.169 168 152.512 168ZM160.512 157C161.612 157 162.512 157.9 162.512 159V171C162.512 172.1 161.612 173 160.512 173H144.512C143.412 173 142.512 172.1 142.512 171V159C142.512 157.9 143.412 157 144.512 157H147.682L148.912 155.65C149.292 155.24 149.832 155 150.392 155H154.632C155.192 155 155.732 155.24 156.102 155.65L157.342 157H160.512ZM152.512 170C155.272 170 157.512 167.76 157.512 165C157.512 162.24 155.272 160 152.512 160C149.752 160 147.512 162.24 147.512 165C147.512 167.76 149.752 170 152.512 170Z" fill="#48CCD5"/>
<defs>
<filter id="filter0_d_710_37" x="128.512" y="141" width="48" height="48" filterUnits="userSpaceOnUse" color-interpolation-filters="sRGB">
<feFlood flood-opacity="0" result="BackgroundImageFix"/>
<feColorMatrix in="SourceAlpha" type="matrix" values="0 0 0 0 0 0 0 0 0 0 0 0 0 0 0 0 0 0 127 0" result="hardAlpha"/>
<feOffset dy="1"/>
<feGaussianBlur stdDeviation="1"/>
<feColorMatrix type="matrix" values="0 0 0 0 0.220833 0 0 0 0 0.220833 0 0 0 0 0.220833 0 0 0 0.07 0"/>
<feBlend mode="normal" in2="BackgroundImageFix" result="effect1_dropShadow_710_37"/>
<feBlend mode="normal" in="SourceGraphic" in2="effect1_dropShadow_710_37" result="shape"/>
</filter>
</defs>
</svg>
