<svg width="192" height="62" viewBox="0 0 192 62" fill="none" xmlns="http://www.w3.org/2000/svg">
<g filter="url(#filter0_d_701_133)">
<g filter="url(#filter1_d_701_133)">
<path fill-rule="evenodd" clip-rule="evenodd" d="M4 11C4 6.58172 7.58172 3 12 3H180C184.418 3 188 6.58172 188 11V49C188 53.4183 184.418 57 180 57H12C7.58172 57 4 53.4183 4 49V11Z" fill="#FFA31A"/>
</g>
<path d="M21.4347 37H24.0696V32.6676L25.6818 30.7642L30.0213 37H33.1889L27.5142 28.9815L33.1392 22.4545H29.9219L24.2472 29.1378H24.0696V22.4545H21.4347V37ZM38.6849 37.2131C41.2276 37.2131 42.9747 35.9702 43.4293 34.0739L41.0287 33.804C40.6807 34.7273 39.8284 35.2102 38.7205 35.2102C37.0585 35.2102 35.9577 34.1165 35.9364 32.2486H43.5358V31.4602C43.5358 27.6321 41.2347 25.9489 38.55 25.9489C35.425 25.9489 33.3866 28.2429 33.3866 31.6094C33.3866 35.0327 35.3966 37.2131 38.6849 37.2131ZM35.9435 30.5156C36.0216 29.1236 37.0514 27.9517 38.5855 27.9517C40.0628 27.9517 41.0571 29.0312 41.0713 30.5156H35.9435ZM46.7964 41.0909C48.7992 41.0909 49.9569 40.0611 50.5748 38.321L54.9569 26.1051L52.2083 26.0909L49.687 34.3295H49.5734L47.0592 26.0909H44.3319L48.2879 37.2273L48.0677 37.8168C47.5918 39.0597 46.839 39.1449 45.7168 38.8182L45.1202 40.821C45.4683 40.9631 46.0933 41.0909 46.7964 41.0909ZM56.5413 37H59.1124V26.0909H56.5413V37ZM57.834 24.5426C58.6507 24.5426 59.3183 23.9176 59.3183 23.1506C59.3183 22.3764 58.6507 21.7514 57.834 21.7514C57.0101 21.7514 56.3425 22.3764 56.3425 23.1506C56.3425 23.9176 57.0101 24.5426 57.834 24.5426ZM64.1272 30.608C64.1272 29.0312 65.0789 28.1222 66.4354 28.1222C67.7636 28.1222 68.559 28.9957 68.559 30.4517V37H71.13V30.054C71.1371 27.4403 69.6457 25.9489 67.3942 25.9489C65.7607 25.9489 64.6386 26.7301 64.1414 27.9446H64.0136V26.0909H61.5562V37H64.1272V30.608ZM78.288 41.3182C81.2354 41.3182 83.4087 39.9688 83.4087 37.1776V26.0909H80.8732V27.8949H80.7312C80.3406 27.1065 79.5238 25.9489 77.5991 25.9489C75.0778 25.9489 73.0962 27.9233 73.0962 31.5099C73.0962 35.0682 75.0778 36.8438 77.592 36.8438C79.4599 36.8438 80.3335 35.8423 80.7312 35.0398H80.859V37.1065C80.859 38.7116 79.7937 39.3722 78.3306 39.3722C76.7823 39.3722 76.1005 38.6406 75.788 38.0014L73.4727 38.5625C73.9414 40.0895 75.511 41.3182 78.288 41.3182ZM78.3093 34.8267C76.6119 34.8267 75.717 33.5057 75.717 31.4957C75.717 29.5142 76.5977 28.0582 78.3093 28.0582C79.9641 28.0582 80.8732 29.429 80.8732 31.4957C80.8732 33.5767 79.9499 34.8267 78.3093 34.8267ZM85.8437 37H88.4147V26.0909H85.8437V37ZM87.1363 24.5426C87.9531 24.5426 88.6207 23.9176 88.6207 23.1506C88.6207 22.3764 87.9531 21.7514 87.1363 21.7514C86.3124 21.7514 85.6448 22.3764 85.6448 23.1506C85.6448 23.9176 86.3124 24.5426 87.1363 24.5426ZM99.4807 28.9744C99.1256 27.1278 97.6483 25.9489 95.0915 25.9489C92.4636 25.9489 90.6739 27.2415 90.681 29.2585C90.6739 30.8494 91.654 31.9006 93.7491 32.3338L95.6099 32.7244C96.6114 32.9446 97.0801 33.3494 97.0801 33.9673C97.0801 34.7131 96.2705 35.2741 95.0489 35.2741C93.8699 35.2741 93.1028 34.7628 92.8827 33.7827L90.3756 34.0241C90.6952 36.027 92.3784 37.2131 95.056 37.2131C97.7832 37.2131 99.708 35.7997 99.7151 33.733C99.708 32.1776 98.7065 31.2259 96.6469 30.7784L94.7861 30.3807C93.6781 30.1321 93.2378 29.7486 93.2449 29.1165C93.2378 28.3778 94.0545 27.8665 95.127 27.8665C96.3131 27.8665 96.9381 28.5128 97.1369 29.2301L99.4807 28.9744ZM101.635 37H104.206V26.0909H101.635V37ZM102.928 24.5426C103.744 24.5426 104.412 23.9176 104.412 23.1506C104.412 22.3764 103.744 21.7514 102.928 21.7514C102.104 21.7514 101.436 22.3764 101.436 23.1506C101.436 23.9176 102.104 24.5426 102.928 24.5426Z" fill="white"/>
<g opacity="0.8">
<path fill-rule="evenodd" clip-rule="evenodd" d="M155.834 31.1667H168.865L163.172 36.86C162.717 37.315 162.717 38.0617 163.172 38.5167C163.627 38.9717 164.362 38.9717 164.817 38.5167L172.505 30.8283C172.96 30.3733 172.96 29.6383 172.505 29.1833L164.829 21.4833C164.374 21.0283 163.639 21.0283 163.184 21.4833C162.729 21.9383 162.729 22.6733 163.184 23.1283L168.865 28.8333H155.834C155.192 28.8333 154.667 29.3583 154.667 30C154.667 30.6417 155.192 31.1667 155.834 31.1667Z" fill="white"/>
</g>
</g>
<defs>
<filter id="filter0_d_701_133" x="0" y="0" width="192" height="62" filterUnits="userSpaceOnUse" color-interpolation-filters="sRGB">
<feFlood flood-opacity="0" result="BackgroundImageFix"/>
<feColorMatrix in="SourceAlpha" type="matrix" values="0 0 0 0 0 0 0 0 0 0 0 0 0 0 0 0 0 0 127 0" result="hardAlpha"/>
<feOffset dy="1"/>
<feGaussianBlur stdDeviation="2"/>
<feColorMatrix type="matrix" values="0 0 0 0 0.0627451 0 0 0 0 0 0 0 0 0 0 0 0 0 0.15 0"/>
<feBlend mode="normal" in2="BackgroundImageFix" result="effect1_dropShadow_701_133"/>
<feBlend mode="normal" in="SourceGraphic" in2="effect1_dropShadow_701_133" result="shape"/>
</filter>
<filter id="filter1_d_701_133" x="0" y="0" width="192" height="62" filterUnits="userSpaceOnUse" color-interpolation-filters="sRGB">
<feFlood flood-opacity="0" result="BackgroundImageFix"/>
<feColorMatrix in="SourceAlpha" type="matrix" values="0 0 0 0 0 0 0 0 0 0 0 0 0 0 0 0 0 0 127 0" result="hardAlpha"/>
<feOffset dy="1"/>
<feGaussianBlur stdDeviation="2"/>
<feColorMatrix type="matrix" values="0 0 0 0 0.0627451 0 0 0 0 0 0 0 0 0 0 0 0 0 0.15 0"/>
<feBlend mode="normal" in2="BackgroundImageFix" result="effect1_dropShadow_701_133"/>
<feBlend mode="normal" in="SourceGraphic" in2="effect1_dropShadow_701_133" result="shape"/>
</filter>
</defs>
</svg>
