<svg width="192" height="62" viewBox="0 0 192 62" fill="none" xmlns="http://www.w3.org/2000/svg">
<g filter="url(#filter0_d_788_4649)">
<g filter="url(#filter1_d_788_4649)">
<path fill-rule="evenodd" clip-rule="evenodd" d="M4 11C4 6.58172 7.58172 3 12 3H180C184.418 3 188 6.58172 188 11V49C188 53.4183 184.418 57 180 57H12C7.58172 57 4 53.4183 4 49V11Z" fill="#E7E7E7"/>
</g>
<path d="M71.4318 29.7273C71.4318 25.0256 68.5625 22.2557 64.7486 22.2557C60.9276 22.2557 58.0653 25.0256 58.0653 29.7273C58.0653 34.4219 60.9276 37.1989 64.7486 37.1989C68.5625 37.1989 71.4318 34.429 71.4318 29.7273ZM68.7827 29.7273C68.7827 33.0369 67.1207 34.8338 64.7486 34.8338C62.3835 34.8338 60.7145 33.0369 60.7145 29.7273C60.7145 26.4176 62.3835 24.6207 64.7486 24.6207C67.1207 24.6207 68.7827 26.4176 68.7827 29.7273ZM76.1803 22.4545H73.6093V37H76.1803V22.4545ZM82.6724 37.1918C84.5474 37.1918 85.3926 36.0767 85.7974 35.2812H85.9537V37H88.4821V22.4545H85.904V27.8949H85.7974C85.4068 27.1065 84.6043 25.9489 82.6795 25.9489C80.1582 25.9489 78.1767 27.9233 78.1767 31.5597C78.1767 35.1534 80.1014 37.1918 82.6724 37.1918ZM83.3898 35.0824C81.6923 35.0824 80.7974 33.5909 80.7974 31.5455C80.7974 29.5142 81.6781 28.0582 83.3898 28.0582C85.0446 28.0582 85.9537 29.429 85.9537 31.5455C85.9537 33.6619 85.0304 35.0824 83.3898 35.0824ZM91.0218 37H93.5928V26.0909H91.0218V37ZM92.3144 24.5426C93.1312 24.5426 93.7988 23.9176 93.7988 23.1506C93.7988 22.3764 93.1312 21.7514 92.3144 21.7514C91.4906 21.7514 90.8229 22.3764 90.8229 23.1506C90.8229 23.9176 91.4906 24.5426 92.3144 24.5426ZM98.6077 30.608C98.6077 29.0312 99.5594 28.1222 100.916 28.1222C102.244 28.1222 103.039 28.9957 103.039 30.4517V37H105.611V30.054C105.618 27.4403 104.126 25.9489 101.875 25.9489C100.241 25.9489 99.119 26.7301 98.6219 27.9446H98.494V26.0909H96.0366V37H98.6077V30.608ZM112.768 41.3182C115.716 41.3182 117.889 39.9688 117.889 37.1776V26.0909H115.354V27.8949H115.212C114.821 27.1065 114.004 25.9489 112.08 25.9489C109.558 25.9489 107.577 27.9233 107.577 31.5099C107.577 35.0682 109.558 36.8438 112.072 36.8438C113.94 36.8438 114.814 35.8423 115.212 35.0398H115.339V37.1065C115.339 38.7116 114.274 39.3722 112.811 39.3722C111.263 39.3722 110.581 38.6406 110.268 38.0014L107.953 38.5625C108.422 40.0895 109.991 41.3182 112.768 41.3182ZM112.79 34.8267C111.092 34.8267 110.197 33.5057 110.197 31.4957C110.197 29.5142 111.078 28.0582 112.79 28.0582C114.445 28.0582 115.354 29.429 115.354 31.4957C115.354 33.5767 114.43 34.8267 112.79 34.8267ZM120.324 37H122.895V26.0909H120.324V37ZM121.617 24.5426C122.434 24.5426 123.101 23.9176 123.101 23.1506C123.101 22.3764 122.434 21.7514 121.617 21.7514C120.793 21.7514 120.125 22.3764 120.125 23.1506C120.125 23.9176 120.793 24.5426 121.617 24.5426ZM133.961 28.9744C133.606 27.1278 132.129 25.9489 129.572 25.9489C126.944 25.9489 125.154 27.2415 125.161 29.2585C125.154 30.8494 126.134 31.9006 128.23 32.3338L130.09 32.7244C131.092 32.9446 131.561 33.3494 131.561 33.9673C131.561 34.7131 130.751 35.2741 129.529 35.2741C128.35 35.2741 127.583 34.7628 127.363 33.7827L124.856 34.0241C125.176 36.027 126.859 37.2131 129.536 37.2131C132.264 37.2131 134.188 35.7997 134.196 33.733C134.188 32.1776 133.187 31.2259 131.127 30.7784L129.267 30.3807C128.159 30.1321 127.718 29.7486 127.725 29.1165C127.718 28.3778 128.535 27.8665 129.607 27.8665C130.794 27.8665 131.419 28.5128 131.617 29.2301L133.961 28.9744ZM136.116 37H138.687V26.0909H136.116V37ZM137.408 24.5426C138.225 24.5426 138.893 23.9176 138.893 23.1506C138.893 22.3764 138.225 21.7514 137.408 21.7514C136.584 21.7514 135.917 22.3764 135.917 23.1506C135.917 23.9176 136.584 24.5426 137.408 24.5426Z" fill="#6E7381"/>
<g opacity="0.8">
<path fill-rule="evenodd" clip-rule="evenodd" d="M42.1662 28.8333H29.1346L34.8279 23.14C35.2829 22.685 35.2829 21.9383 34.8279 21.4833C34.3729 21.0283 33.6379 21.0283 33.1829 21.4833L25.4946 29.1717C25.0396 29.6267 25.0396 30.3617 25.4946 30.8167L33.1829 38.505C33.6379 38.96 34.3729 38.96 34.8279 38.505C35.2829 38.05 35.2829 37.315 34.8279 36.86L29.1346 31.1667H42.1662C42.8079 31.1667 43.3329 30.6417 43.3329 30C43.3329 29.3583 42.8079 28.8333 42.1662 28.8333Z" fill="#6E7381"/>
</g>
</g>
<defs>
<filter id="filter0_d_788_4649" x="0" y="0" width="192" height="62" filterUnits="userSpaceOnUse" color-interpolation-filters="sRGB">
<feFlood flood-opacity="0" result="BackgroundImageFix"/>
<feColorMatrix in="SourceAlpha" type="matrix" values="0 0 0 0 0 0 0 0 0 0 0 0 0 0 0 0 0 0 127 0" result="hardAlpha"/>
<feOffset dy="1"/>
<feGaussianBlur stdDeviation="2"/>
<feColorMatrix type="matrix" values="0 0 0 0 0.0627451 0 0 0 0 0 0 0 0 0 0 0 0 0 0.15 0"/>
<feBlend mode="normal" in2="BackgroundImageFix" result="effect1_dropShadow_788_4649"/>
<feBlend mode="normal" in="SourceGraphic" in2="effect1_dropShadow_788_4649" result="shape"/>
</filter>
<filter id="filter1_d_788_4649" x="0" y="0" width="192" height="62" filterUnits="userSpaceOnUse" color-interpolation-filters="sRGB">
<feFlood flood-opacity="0" result="BackgroundImageFix"/>
<feColorMatrix in="SourceAlpha" type="matrix" values="0 0 0 0 0 0 0 0 0 0 0 0 0 0 0 0 0 0 127 0" result="hardAlpha"/>
<feOffset dy="1"/>
<feGaussianBlur stdDeviation="2"/>
<feColorMatrix type="matrix" values="0 0 0 0 0.0627451 0 0 0 0 0 0 0 0 0 0 0 0 0 0.15 0"/>
<feBlend mode="normal" in2="BackgroundImageFix" result="effect1_dropShadow_788_4649"/>
<feBlend mode="normal" in="SourceGraphic" in2="effect1_dropShadow_788_4649" result="shape"/>
</filter>
</defs>
</svg>
