<svg width="387" height="285" viewBox="0 0 387 285" fill="none" xmlns="http://www.w3.org/2000/svg">
<rect x="1.5" y="1.5" width="384" height="282" rx="8.5" fill="white" stroke="#FFA31A" stroke-width="3"/>
<path fill-rule="evenodd" clip-rule="evenodd" d="M193.983 23.3333C184.783 23.3333 177.333 30.8 177.333 40C177.333 49.2 184.783 56.6666 193.983 56.6666C203.2 56.6666 210.667 49.2 210.667 40C210.667 30.8 203.2 23.3333 193.983 23.3333ZM194 53.3333C186.633 53.3333 180.667 47.3666 180.667 40C180.667 32.6333 186.633 26.6666 194 26.6666C201.367 26.6666 207.333 32.6333 207.333 40C207.333 47.3666 201.367 53.3333 194 53.3333ZM199.833 38.3333C201.217 38.3333 202.333 37.2166 202.333 35.8333C202.333 34.45 201.217 33.3333 199.833 33.3333C198.45 33.3333 197.333 34.45 197.333 35.8333C197.333 37.2166 198.45 38.3333 199.833 38.3333ZM188.167 38.3333C189.55 38.3333 190.667 37.2166 190.667 35.8333C190.667 34.45 189.55 33.3333 188.167 33.3333C186.783 33.3333 185.667 34.45 185.667 35.8333C185.667 37.2166 186.783 38.3333 188.167 38.3333ZM194 42.5C190.617 42.5 187.667 44.35 186.084 47.0833C185.767 47.6333 186.184 48.3333 186.817 48.3333H201.184C201.817 48.3333 202.234 47.6333 201.917 47.0833C200.334 44.35 197.384 42.5 194 42.5Z" fill="#FFA31A"/>
<path d="M65.2273 96.1818C65.2273 92.5 63.0682 90.2045 60.0909 90.2045C57.1136 90.2045 54.9545 92.5 54.9545 96.1818C54.9545 99.8636 57.1136 102.159 60.0909 102.159C63.0682 102.159 65.2273 99.8636 65.2273 96.1818ZM63.8636 96.1818C63.8636 99.2045 62.2045 100.841 60.0909 100.841C57.9773 100.841 56.3182 99.2045 56.3182 96.1818C56.3182 93.1591 57.9773 91.5227 60.0909 91.5227C62.2045 91.5227 63.8636 93.1591 63.8636 96.1818ZM74.042 93.2727H72.7011V97.6989C72.0534 97.8864 71.3886 98 70.5875 98C69.4966 98 68.6557 97.3864 68.6557 96.0455V93.25H67.3148V96.0455C67.3148 98.1818 68.6102 99.25 70.5875 99.25C71.4114 99.25 72.0705 99.142 72.7011 98.9545V102H74.042V93.2727ZM80.0614 102.182C81.8341 102.182 83.1295 101.295 83.5386 99.9773L82.2432 99.6136C81.9023 100.523 81.1125 100.977 80.0614 100.977C78.4875 100.977 77.4023 99.9602 77.3398 98.0909H83.675V97.5227C83.675 94.2727 81.7432 93.1591 79.925 93.1591C77.5614 93.1591 75.9932 95.0227 75.9932 97.7045C75.9932 100.386 77.5386 102.182 80.0614 102.182ZM77.3398 96.9318C77.4307 95.5739 78.3909 94.3636 79.925 94.3636C81.3795 94.3636 82.3114 95.4545 82.3114 96.9318H77.3398ZM86.9557 93.2727H85.6148V102H86.9557V98.2727H91.1375V102H92.4784V93.2727H91.1375V97.0227H86.9557V93.2727ZM96.1682 96.4318V93.2727H94.8273V102H98.4864C100.532 102 101.645 100.75 101.645 99.1818C101.645 97.5909 100.532 96.4318 98.4864 96.4318H96.1682ZM96.1682 97.6818H98.4864C99.5489 97.6818 100.305 98.3295 100.305 99.25C100.305 100.131 99.5489 100.75 98.4864 100.75H96.1682V97.6818ZM111.532 102.182C113.896 102.182 115.487 100.386 115.487 97.6818C115.487 94.9545 113.896 93.1591 111.532 93.1591C109.168 93.1591 107.578 94.9545 107.578 97.6818C107.578 100.386 109.168 102.182 111.532 102.182ZM111.532 100.977C109.737 100.977 108.918 99.4318 108.918 97.6818C108.918 95.9318 109.737 94.3636 111.532 94.3636C113.328 94.3636 114.146 95.9318 114.146 97.6818C114.146 99.4318 113.328 100.977 111.532 100.977ZM116.293 94.5227H119.179V102H120.52V94.5227H123.384V93.2727H116.293V94.5227ZM125.24 102H129.353C131.126 102 132.194 101 132.194 99.6591C132.194 98.2898 131.155 97.5511 130.194 97.4091C131.177 97.2045 131.876 96.6534 131.876 95.5909C131.876 94.1989 130.683 93.2727 128.808 93.2727H125.24V102ZM126.512 100.773V98.0909H129.353C130.274 98.0909 130.831 98.642 130.831 99.5455C130.831 100.307 130.274 100.773 129.353 100.773H126.512ZM126.512 96.9318V94.5H128.808C129.882 94.5 130.535 94.9489 130.535 95.6818C130.535 96.4602 129.882 96.9318 128.808 96.9318H126.512ZM137.783 102.182C139.556 102.182 140.851 101.295 141.261 99.9773L139.965 99.6136C139.624 100.523 138.834 100.977 137.783 100.977C136.209 100.977 135.124 99.9602 135.062 98.0909H141.397V97.5227C141.397 94.2727 139.465 93.1591 137.647 93.1591C135.283 93.1591 133.715 95.0227 133.715 97.7045C133.715 100.386 135.261 102.182 137.783 102.182ZM135.062 96.9318C135.153 95.5739 136.113 94.3636 137.647 94.3636C139.101 94.3636 140.033 95.4545 140.033 96.9318H135.062ZM142.524 94.5227H145.411V102H146.751V94.5227H149.615V93.2727H142.524V94.5227ZM154.563 102.182C156.495 102.182 157.768 101 157.995 99.4545H156.654C156.404 100.409 155.609 100.977 154.563 100.977C152.972 100.977 151.95 99.6591 151.95 97.6364C151.95 95.6591 152.995 94.3636 154.563 94.3636C155.745 94.3636 156.45 95.0909 156.654 95.8864H157.995C157.768 94.25 156.382 93.1591 154.541 93.1591C152.177 93.1591 150.609 95.0227 150.609 97.6818C150.609 100.295 152.109 102.182 154.563 102.182ZM159.168 94.5227H162.054V102H163.395V94.5227H166.259V93.2727H159.168V94.5227ZM168.115 102H172.228C174.001 102 175.069 101 175.069 99.6591C175.069 98.2898 174.03 97.5511 173.069 97.4091C174.052 97.2045 174.751 96.6534 174.751 95.5909C174.751 94.1989 173.558 93.2727 171.683 93.2727H168.115V102ZM169.387 100.773V98.0909H172.228C173.149 98.0909 173.706 98.642 173.706 99.5455C173.706 100.307 173.149 100.773 172.228 100.773H169.387ZM169.387 96.9318V94.5H171.683C172.757 94.5 173.41 94.9489 173.41 95.6818C173.41 96.4602 172.757 96.9318 171.683 96.9318H169.387ZM180.658 102.182C182.431 102.182 183.726 101.295 184.136 99.9773L182.84 99.6136C182.499 100.523 181.709 100.977 180.658 100.977C179.084 100.977 177.999 99.9602 177.937 98.0909H184.272V97.5227C184.272 94.2727 182.34 93.1591 180.522 93.1591C178.158 93.1591 176.59 95.0227 176.59 97.7045C176.59 100.386 178.136 102.182 180.658 102.182ZM177.937 96.9318C178.028 95.5739 178.988 94.3636 180.522 94.3636C181.976 94.3636 182.908 95.4545 182.908 96.9318H177.937ZM187.553 93.2727H186.212V102H187.553V98.2727H191.734V102H193.075V93.2727H191.734V97.0227H187.553V93.2727ZM196.765 93.2727H195.424V102H196.765V98.2727H200.947V102H202.288V93.2727H200.947V97.0227H196.765V93.2727ZM207.205 102.205C208.728 102.205 209.523 101.386 209.796 100.818H209.864V102H211.205V96.25C211.205 93.4773 209.091 93.1591 207.978 93.1591C206.659 93.1591 205.159 93.6136 204.478 95.2045L205.75 95.6591C206.046 95.0227 206.745 94.3409 208.023 94.3409C209.256 94.3409 209.864 94.9943 209.864 96.1136V96.1591C209.864 96.8068 209.205 96.75 207.614 96.9545C205.995 97.1648 204.228 97.5227 204.228 99.5227C204.228 101.227 205.546 102.205 207.205 102.205ZM207.409 101C206.341 101 205.568 100.523 205.568 99.5909C205.568 98.5682 206.5 98.25 207.546 98.1136C208.114 98.0455 209.637 97.8864 209.864 97.6136V98.8409C209.864 99.9318 209 101 207.409 101ZM218.802 102H220.075V93.2727H216.484C214.603 93.2727 213.461 94.2557 213.461 95.8636C213.461 97.0625 214.064 97.9148 215.115 98.2727L212.984 102H214.439L216.461 98.4545H218.802V102ZM218.802 97.2045H216.325C215.376 97.2045 214.802 96.6989 214.802 95.8636C214.802 95.017 215.439 94.5 216.484 94.5H218.802V97.2045ZM226.837 105.273H228.178V100.659H228.291C228.587 101.136 229.155 102.182 230.837 102.182C233.018 102.182 234.541 100.432 234.541 97.6591C234.541 94.9091 233.018 93.1591 230.814 93.1591C229.109 93.1591 228.587 94.2045 228.291 94.6591H228.132V93.2727H226.837V105.273ZM228.155 97.6364C228.155 95.6818 229.018 94.3636 230.655 94.3636C232.359 94.3636 233.2 95.7955 233.2 97.6364C233.2 99.5 232.337 100.977 230.655 100.977C229.041 100.977 228.155 99.6136 228.155 97.6364ZM239.055 102.205C240.578 102.205 241.373 101.386 241.646 100.818H241.714V102H243.055V96.25C243.055 93.4773 240.941 93.1591 239.828 93.1591C238.509 93.1591 237.009 93.6136 236.328 95.2045L237.6 95.6591C237.896 95.0227 238.595 94.3409 239.873 94.3409C241.106 94.3409 241.714 94.9943 241.714 96.1136V96.1591C241.714 96.8068 241.055 96.75 239.464 96.9545C237.845 97.1648 236.078 97.5227 236.078 99.5227C236.078 101.227 237.396 102.205 239.055 102.205ZM239.259 101C238.191 101 237.418 100.523 237.418 99.5909C237.418 98.5682 238.35 98.25 239.396 98.1136C239.964 98.0455 241.487 97.8864 241.714 97.6136V98.8409C241.714 99.9318 240.85 101 239.259 101ZM251.88 90C251.453 90.358 250.817 90.358 249.925 90.3523C249.635 90.3523 249.317 90.3523 248.97 90.3636C246.311 90.4318 244.993 92.4545 244.993 96.3409V97.2727C244.993 100.5 246.561 102.182 248.902 102.182C251.238 102.182 252.789 100.489 252.789 97.75C252.789 95 251.215 93.5455 249.175 93.5455C247.976 93.5455 246.857 94.0455 246.266 95.1364H246.152C246.334 92.8864 247.175 91.6818 248.993 91.6136C250.607 91.5455 251.766 91.5909 252.561 90.8182L251.88 90ZM248.902 100.977C247.311 100.977 246.334 99.7045 246.334 97.75C246.363 95.8409 247.323 94.75 248.88 94.75C250.476 94.75 251.448 95.8409 251.448 97.75C251.448 99.7159 250.482 100.977 248.902 100.977ZM258.285 102.182C260.649 102.182 262.24 100.386 262.24 97.6818C262.24 94.9545 260.649 93.1591 258.285 93.1591C255.922 93.1591 254.331 94.9545 254.331 97.6818C254.331 100.386 255.922 102.182 258.285 102.182ZM258.285 100.977C256.49 100.977 255.672 99.4318 255.672 97.6818C255.672 95.9318 256.49 94.3636 258.285 94.3636C260.081 94.3636 260.899 95.9318 260.899 97.6818C260.899 99.4318 260.081 100.977 258.285 100.977ZM263.046 94.5227H265.932V102H267.273V94.5227H270.137V93.2727H263.046V94.5227ZM274.108 102.205C275.631 102.205 276.426 101.386 276.699 100.818H276.767V102H278.108V96.25C278.108 93.4773 275.994 93.1591 274.881 93.1591C273.562 93.1591 272.062 93.6136 271.381 95.2045L272.653 95.6591C272.949 95.0227 273.648 94.3409 274.926 94.3409C276.159 94.3409 276.767 94.9943 276.767 96.1136V96.1591C276.767 96.8068 276.108 96.75 274.517 96.9545C272.898 97.1648 271.131 97.5227 271.131 99.5227C271.131 101.227 272.449 102.205 274.108 102.205ZM274.312 101C273.244 101 272.472 100.523 272.472 99.5909C272.472 98.5682 273.403 98.25 274.449 98.1136C275.017 98.0455 276.54 97.8864 276.767 97.6136V98.8409C276.767 99.9318 275.903 101 274.312 101Z" fill="black"/>
<circle cx="33.5" cy="96.5" r="5.5" fill="#C4C4C4"/>
<path d="M55.4091 119.364V131H56.7273V122.159H56.8409L60.4773 131H61.75L65.3864 122.159H65.5V131H66.8182V119.364H65.1364L61.1818 129.023H61.0455L57.0909 119.364H55.4091ZM70.7026 122.273H69.3616V131H70.7026V127.273H74.8844V131H76.2253V122.273H74.8844V126.023H70.7026V122.273ZM82.2332 131.182C84.006 131.182 85.3014 130.295 85.7105 128.977L84.4151 128.614C84.0741 129.523 83.2844 129.977 82.2332 129.977C80.6594 129.977 79.5741 128.96 79.5116 127.091H85.8469V126.523C85.8469 123.273 83.9151 122.159 82.0969 122.159C79.7332 122.159 78.1651 124.023 78.1651 126.705C78.1651 129.386 79.7105 131.182 82.2332 131.182ZM79.5116 125.932C79.6026 124.574 80.5628 123.364 82.0969 123.364C83.5514 123.364 84.4832 124.455 84.4832 125.932H79.5116ZM93.5276 122.273H92.1866V131H93.5276V127.273H97.7094V131H99.0503V122.273H97.7094V126.023H93.5276V122.273ZM101.95 134.273C103.161 134.273 104.013 133.631 104.518 132.273L108.234 122.295L106.768 122.273L104.359 129.227H104.268L101.859 122.273H100.405L103.632 131.045L103.382 131.727C102.893 133.057 102.291 133.182 101.314 132.932L100.973 134.114C101.109 134.182 101.496 134.273 101.95 134.273ZM109.363 131H110.977L113.954 127.25H114.636V131H115.977V127.25H116.659L119.613 131H121.227L117.704 126.568L121.181 122.273H119.59L116.681 126H115.977V122.273H114.636V126H113.909L110.999 122.273H109.409L112.909 126.568L109.363 131ZM124.384 122.273H123.043V131H124.384V127.273H128.566V131H129.907V122.273H128.566V126.023H124.384V122.273ZM135.801 131.182C138.164 131.182 139.755 129.386 139.755 126.682C139.755 123.955 138.164 122.159 135.801 122.159C133.437 122.159 131.846 123.955 131.846 126.682C131.846 129.386 133.437 131.182 135.801 131.182ZM135.801 129.977C134.005 129.977 133.187 128.432 133.187 126.682C133.187 124.932 134.005 123.364 135.801 123.364C137.596 123.364 138.414 124.932 138.414 126.682C138.414 128.432 137.596 129.977 135.801 129.977ZM146.102 134.273H147.443V129.659H147.557C147.852 130.136 148.42 131.182 150.102 131.182C152.284 131.182 153.807 129.432 153.807 126.659C153.807 123.909 152.284 122.159 150.08 122.159C148.375 122.159 147.852 123.205 147.557 123.659H147.398V122.273H146.102V134.273ZM147.42 126.636C147.42 124.682 148.284 123.364 149.92 123.364C151.625 123.364 152.466 124.795 152.466 126.636C152.466 128.5 151.602 129.977 149.92 129.977C148.307 129.977 147.42 128.614 147.42 126.636ZM158.32 131.205C159.843 131.205 160.639 130.386 160.911 129.818H160.98V131H162.32V125.25C162.32 122.477 160.207 122.159 159.093 122.159C157.775 122.159 156.275 122.614 155.593 124.205L156.866 124.659C157.161 124.023 157.86 123.341 159.139 123.341C160.372 123.341 160.98 123.994 160.98 125.114V125.159C160.98 125.807 160.32 125.75 158.73 125.955C157.11 126.165 155.343 126.523 155.343 128.523C155.343 130.227 156.661 131.205 158.32 131.205ZM158.525 130C157.457 130 156.684 129.523 156.684 128.591C156.684 127.568 157.616 127.25 158.661 127.114C159.23 127.045 160.752 126.886 160.98 126.614V127.841C160.98 128.932 160.116 130 158.525 130ZM171.145 119C170.719 119.358 170.083 119.358 169.191 119.352C168.901 119.352 168.583 119.352 168.236 119.364C165.577 119.432 164.259 121.455 164.259 125.341V126.273C164.259 129.5 165.827 131.182 168.168 131.182C170.503 131.182 172.054 129.489 172.054 126.75C172.054 124 170.48 122.545 168.441 122.545C167.242 122.545 166.122 123.045 165.532 124.136H165.418C165.6 121.886 166.441 120.682 168.259 120.614C169.872 120.545 171.032 120.591 171.827 119.818L171.145 119ZM168.168 129.977C166.577 129.977 165.6 128.705 165.6 126.75C165.628 124.841 166.588 123.75 168.145 123.75C169.742 123.75 170.713 124.841 170.713 126.75C170.713 128.716 169.747 129.977 168.168 129.977ZM177.551 131.182C179.914 131.182 181.505 129.386 181.505 126.682C181.505 123.955 179.914 122.159 177.551 122.159C175.187 122.159 173.596 123.955 173.596 126.682C173.596 129.386 175.187 131.182 177.551 131.182ZM177.551 129.977C175.755 129.977 174.937 128.432 174.937 126.682C174.937 124.932 175.755 123.364 177.551 123.364C179.346 123.364 180.164 124.932 180.164 126.682C180.164 128.432 179.346 129.977 177.551 129.977ZM182.312 123.523H185.198V131H186.539V123.523H189.403V122.273H182.312V123.523ZM193.374 131.205C194.896 131.205 195.692 130.386 195.964 129.818H196.033V131H197.374V125.25C197.374 122.477 195.26 122.159 194.146 122.159C192.828 122.159 191.328 122.614 190.646 124.205L191.919 124.659C192.214 124.023 192.913 123.341 194.192 123.341C195.425 123.341 196.033 123.994 196.033 125.114V125.159C196.033 125.807 195.374 125.75 193.783 125.955C192.163 126.165 190.396 126.523 190.396 128.523C190.396 130.227 191.714 131.205 193.374 131.205ZM193.578 130C192.51 130 191.737 129.523 191.737 128.591C191.737 127.568 192.669 127.25 193.714 127.114C194.283 127.045 195.805 126.886 196.033 126.614V127.841C196.033 128.932 195.169 130 193.578 130ZM198.534 123.523H201.42V131H202.761V123.523H205.624V122.273H198.534V123.523ZM208.821 125.432V122.273H207.48V131H211.139C213.185 131 214.299 129.75 214.299 128.182C214.299 126.591 213.185 125.432 211.139 125.432H208.821ZM208.821 126.682H211.139C212.202 126.682 212.958 127.33 212.958 128.25C212.958 129.131 212.202 129.75 211.139 129.75H208.821V126.682ZM221.981 122.273H220.64V131H221.981V127.273H226.163V131H227.503V122.273H226.163V126.023H221.981V122.273ZM233.398 131.182C235.761 131.182 237.352 129.386 237.352 126.682C237.352 123.955 235.761 122.159 233.398 122.159C231.034 122.159 229.443 123.955 229.443 126.682C229.443 129.386 231.034 131.182 233.398 131.182ZM233.398 129.977C231.602 129.977 230.784 128.432 230.784 126.682C230.784 124.932 231.602 123.364 233.398 123.364C235.193 123.364 236.011 124.932 236.011 126.682C236.011 128.432 235.193 129.977 233.398 129.977ZM246.026 122.273H244.686V126.699C244.038 126.886 243.373 127 242.572 127C241.481 127 240.64 126.386 240.64 125.045V122.25H239.299V125.045C239.299 127.182 240.595 128.25 242.572 128.25C243.396 128.25 244.055 128.142 244.686 127.955V131H246.026V122.273ZM249.728 125.432V122.273H248.387V131H252.046C254.091 131 255.205 129.75 255.205 128.182C255.205 126.591 254.091 125.432 252.046 125.432H249.728ZM249.728 126.682H252.046C253.108 126.682 253.864 127.33 253.864 128.25C253.864 129.131 253.108 129.75 252.046 129.75H249.728V126.682ZM257.851 122.273H256.51V131H257.851V127.341H260.089C260.328 129.676 261.845 131.182 264.01 131.182C266.373 131.182 267.964 129.386 267.964 126.682C267.964 123.955 266.373 122.159 264.01 122.159C261.822 122.159 260.294 123.699 260.084 126.091H257.851V122.273ZM264.01 129.977C262.214 129.977 261.396 128.432 261.396 126.682C261.396 124.932 262.214 123.364 264.01 123.364C265.805 123.364 266.623 124.932 266.623 126.682C266.623 128.432 265.805 129.977 264.01 129.977Z" fill="black"/>
<circle cx="33.5" cy="125.5" r="5.5" fill="#C4C4C4"/>
<path d="M55.4091 218H56.8182V214.227L58.2727 212.591L62.3182 218H64.0227L59.1364 211.614L64.0227 206.364H62.1818L56.9545 212.136H56.8182V206.364H55.4091V218ZM68.5832 218.182C70.356 218.182 71.6514 217.295 72.0605 215.977L70.7651 215.614C70.4241 216.523 69.6344 216.977 68.5832 216.977C67.0094 216.977 65.9241 215.96 65.8616 214.091H72.1969V213.523C72.1969 210.273 70.2651 209.159 68.4469 209.159C66.0832 209.159 64.5151 211.023 64.5151 213.705C64.5151 216.386 66.0605 218.182 68.5832 218.182ZM65.8616 212.932C65.9526 211.574 66.9128 210.364 68.4469 210.364C69.9014 210.364 70.8332 211.455 70.8332 212.932H65.8616ZM77.6821 218.182C79.6139 218.182 80.8866 217 81.1139 215.455H79.773C79.523 216.409 78.7276 216.977 77.6821 216.977C76.0912 216.977 75.0685 215.659 75.0685 213.636C75.0685 211.659 76.1139 210.364 77.6821 210.364C78.8639 210.364 79.5685 211.091 79.773 211.886H81.1139C80.8866 210.25 79.5003 209.159 77.6594 209.159C75.2957 209.159 73.7276 211.023 73.7276 213.682C73.7276 216.295 75.2276 218.182 77.6821 218.182ZM84.3151 212.75C84.3151 211.227 85.2866 210.364 86.6105 210.364C87.8719 210.364 88.6332 211.159 88.6332 212.545V218H89.9741V212.455C89.9741 210.21 88.781 209.159 86.9969 209.159C85.6219 209.159 84.8378 209.733 84.4287 210.636H84.3151V206.364H82.9741V218H84.3151V212.75ZM94.8955 218.205C96.4182 218.205 97.2136 217.386 97.4864 216.818H97.5545V218H98.8955V212.25C98.8955 209.477 96.7818 209.159 95.6682 209.159C94.35 209.159 92.85 209.614 92.1682 211.205L93.4409 211.659C93.7364 211.023 94.4352 210.341 95.7136 210.341C96.9466 210.341 97.5545 210.994 97.5545 212.114V212.159C97.5545 212.807 96.8955 212.75 95.3045 212.955C93.6852 213.165 91.9182 213.523 91.9182 215.523C91.9182 217.227 93.2364 218.205 94.8955 218.205ZM95.1 217C94.0318 217 93.2591 216.523 93.2591 215.591C93.2591 214.568 94.1909 214.25 95.2364 214.114C95.8045 214.045 97.3273 213.886 97.5545 213.614V214.841C97.5545 215.932 96.6909 217 95.1 217ZM102.584 206.364H101.243V218H102.584V206.364ZM107.508 218.205C109.031 218.205 109.826 217.386 110.099 216.818H110.167V218H111.508V212.25C111.508 209.477 109.394 209.159 108.281 209.159C106.963 209.159 105.463 209.614 104.781 211.205L106.053 211.659C106.349 211.023 107.048 210.341 108.326 210.341C109.559 210.341 110.167 210.994 110.167 212.114V212.159C110.167 212.807 109.508 212.75 107.917 212.955C106.298 213.165 104.531 213.523 104.531 215.523C104.531 217.227 105.849 218.205 107.508 218.205ZM107.713 217C106.644 217 105.872 216.523 105.872 215.591C105.872 214.568 106.803 214.25 107.849 214.114C108.417 214.045 109.94 213.886 110.167 213.614V214.841C110.167 215.932 109.303 217 107.713 217ZM113.855 218H115.196V212.477C115.196 211.295 116.128 210.432 117.401 210.432C117.759 210.432 118.128 210.5 118.219 210.523V209.159C118.066 209.148 117.713 209.136 117.514 209.136C116.469 209.136 115.56 209.727 115.242 210.591H115.151V209.273H113.855V218ZM119.709 218H121.049V209.273H119.709V218ZM120.39 207.818C120.913 207.818 121.345 207.409 121.345 206.909C121.345 206.409 120.913 206 120.39 206C119.868 206 119.436 206.409 119.436 206.909C119.436 207.409 119.868 207.818 120.39 207.818ZM129.146 212.75C129.146 211.227 130.118 210.364 131.442 210.364C132.703 210.364 133.464 211.159 133.464 212.545V218H134.805V212.455C134.805 210.21 133.612 209.159 131.828 209.159C130.453 209.159 129.669 209.733 129.26 210.636H129.146V206.364H127.805V218H129.146V212.75ZM139.727 218.205C141.249 218.205 142.045 217.386 142.318 216.818H142.386V218H143.727V212.25C143.727 209.477 141.613 209.159 140.499 209.159C139.181 209.159 137.681 209.614 136.999 211.205L138.272 211.659C138.568 211.023 139.266 210.341 140.545 210.341C141.778 210.341 142.386 210.994 142.386 212.114V212.159C142.386 212.807 141.727 212.75 140.136 212.955C138.516 213.165 136.749 213.523 136.749 215.523C136.749 217.227 138.068 218.205 139.727 218.205ZM139.931 217C138.863 217 138.09 216.523 138.09 215.591C138.09 214.568 139.022 214.25 140.068 214.114C140.636 214.045 142.159 213.886 142.386 213.614V214.841C142.386 215.932 141.522 217 139.931 217ZM146.074 218H147.415V212.545C147.415 211.267 148.347 210.364 149.392 210.364C150.409 210.364 151.12 211.028 151.12 212.023V218H152.483V212.318C152.483 211.193 153.188 210.364 154.415 210.364C155.37 210.364 156.188 210.869 156.188 212.159V218H157.529V212.159C157.529 210.108 156.426 209.159 154.87 209.159C153.62 209.159 152.705 209.733 152.256 210.636H152.165C151.733 209.705 150.972 209.159 149.824 209.159C148.688 209.159 147.847 209.705 147.483 210.636H147.37V209.273H146.074V218ZM164.28 218H165.621V209.273H164.28V218ZM164.962 207.818C165.485 207.818 165.917 207.409 165.917 206.909C165.917 206.409 165.485 206 164.962 206C164.439 206 164.008 206.409 164.008 206.909C164.008 207.409 164.439 207.818 164.962 207.818ZM174.159 211.227C173.739 209.989 172.795 209.159 171.068 209.159C169.227 209.159 167.864 210.205 167.864 211.682C167.864 212.886 168.58 213.693 170.182 214.068L171.636 214.409C172.517 214.614 172.932 215.034 172.932 215.636C172.932 216.386 172.136 217 170.886 217C169.79 217 169.102 216.528 168.864 215.591L167.591 215.909C167.903 217.392 169.125 218.182 170.909 218.182C172.938 218.182 174.318 217.074 174.318 215.568C174.318 214.352 173.557 213.585 172 213.205L170.705 212.886C169.67 212.631 169.205 212.284 169.205 211.614C169.205 210.864 170 210.318 171.068 210.318C172.239 210.318 172.722 210.966 172.955 211.568L174.159 211.227ZM177.578 212.75C177.578 211.227 178.549 210.364 179.873 210.364C181.134 210.364 181.896 211.159 181.896 212.545V218H183.237V212.455C183.237 210.21 182.043 209.159 180.259 209.159C178.884 209.159 178.1 209.733 177.691 210.636H177.578V206.364H176.237V218H177.578V212.75ZM186.931 206.364H185.59V218H186.931V206.364ZM191.855 218.205C193.378 218.205 194.173 217.386 194.446 216.818H194.514V218H195.855V212.25C195.855 209.477 193.741 209.159 192.628 209.159C191.309 209.159 189.809 209.614 189.128 211.205L190.4 211.659C190.696 211.023 191.395 210.341 192.673 210.341C193.906 210.341 194.514 210.994 194.514 212.114V212.159C194.514 212.807 193.855 212.75 192.264 212.955C190.645 213.165 188.878 213.523 188.878 215.523C188.878 217.227 190.196 218.205 191.855 218.205ZM192.059 217C190.991 217 190.218 216.523 190.218 215.591C190.218 214.568 191.15 214.25 192.196 214.114C192.764 214.045 194.287 213.886 194.514 213.614V214.841C194.514 215.932 193.65 217 192.059 217ZM204.384 211.227C203.964 209.989 203.02 209.159 201.293 209.159C199.452 209.159 198.089 210.205 198.089 211.682C198.089 212.886 198.805 213.693 200.407 214.068L201.861 214.409C202.742 214.614 203.157 215.034 203.157 215.636C203.157 216.386 202.361 217 201.111 217C200.015 217 199.327 216.528 199.089 215.591L197.816 215.909C198.128 217.392 199.35 218.182 201.134 218.182C203.163 218.182 204.543 217.074 204.543 215.568C204.543 214.352 203.782 213.585 202.225 213.205L200.93 212.886C199.895 212.631 199.43 212.284 199.43 211.614C199.43 210.864 200.225 210.318 201.293 210.318C202.464 210.318 202.947 210.966 203.18 211.568L204.384 211.227ZM207.803 212.75C207.803 211.227 208.774 210.364 210.098 210.364C211.359 210.364 212.121 211.159 212.121 212.545V218H213.462V212.455C213.462 210.21 212.268 209.159 210.484 209.159C209.109 209.159 208.325 209.733 207.916 210.636H207.803V206.364H206.462V218H207.803V212.75ZM219.337 221.455C221.428 221.455 223.11 220.5 223.11 218.25V209.273H221.815V210.659H221.678C221.383 210.205 220.837 209.159 219.133 209.159C216.928 209.159 215.406 210.909 215.406 213.591C215.406 216.318 216.997 217.864 219.11 217.864C220.815 217.864 221.36 216.864 221.656 216.386H221.769V218.159C221.769 219.614 220.747 220.273 219.337 220.273C217.752 220.273 217.195 219.438 216.837 218.955L215.769 219.705C216.315 220.619 217.389 221.455 219.337 221.455ZM219.292 216.659C217.61 216.659 216.747 215.386 216.747 213.568C216.747 211.795 217.587 210.364 219.292 210.364C220.928 210.364 221.792 211.682 221.792 213.568C221.792 215.5 220.906 216.659 219.292 216.659ZM228.033 218.205C229.556 218.205 230.351 217.386 230.624 216.818H230.692V218H232.033V212.25C232.033 209.477 229.919 209.159 228.806 209.159C227.488 209.159 225.988 209.614 225.306 211.205L226.578 211.659C226.874 211.023 227.573 210.341 228.851 210.341C230.084 210.341 230.692 210.994 230.692 212.114V212.159C230.692 212.807 230.033 212.75 228.442 212.955C226.823 213.165 225.056 213.523 225.056 215.523C225.056 217.227 226.374 218.205 228.033 218.205ZM228.238 217C227.169 217 226.397 216.523 226.397 215.591C226.397 214.568 227.328 214.25 228.374 214.114C228.942 214.045 230.465 213.886 230.692 213.614V214.841C230.692 215.932 229.828 217 228.238 217ZM242.576 209.273H240.712V207.182H239.371V209.273H238.053V210.409H239.371V215.864C239.371 217.386 240.599 218.114 241.735 218.114C242.235 218.114 242.553 218.023 242.735 217.955L242.462 216.75C242.349 216.773 242.167 216.818 241.871 216.818C241.28 216.818 240.712 216.636 240.712 215.5V210.409H242.576V209.273ZM247.945 218.182C250.308 218.182 251.899 216.386 251.899 213.682C251.899 210.955 250.308 209.159 247.945 209.159C245.581 209.159 243.99 210.955 243.99 213.682C243.99 216.386 245.581 218.182 247.945 218.182ZM247.945 216.977C246.149 216.977 245.331 215.432 245.331 213.682C245.331 211.932 246.149 210.364 247.945 210.364C249.74 210.364 250.558 211.932 250.558 213.682C250.558 215.432 249.74 216.977 247.945 216.977ZM255.028 206.364H253.755V207.409C253.755 208.25 253.346 208.977 252.869 209.659L253.596 210.25C254.505 209.523 255.028 208.318 255.028 207.386V206.364ZM259.222 221.455C261.313 221.455 262.995 220.5 262.995 218.25V209.273H261.699V210.659H261.563C261.267 210.205 260.722 209.159 259.017 209.159C256.813 209.159 255.29 210.909 255.29 213.591C255.29 216.318 256.881 217.864 258.995 217.864C260.699 217.864 261.245 216.864 261.54 216.386H261.654V218.159C261.654 219.614 260.631 220.273 259.222 220.273C257.637 220.273 257.08 219.438 256.722 218.955L255.654 219.705C256.199 220.619 257.273 221.455 259.222 221.455ZM259.176 216.659C257.495 216.659 256.631 215.386 256.631 213.568C256.631 211.795 257.472 210.364 259.176 210.364C260.813 210.364 261.676 211.682 261.676 213.568C261.676 215.5 260.79 216.659 259.176 216.659ZM266.531 206.364H265.258V207.409C265.258 208.25 264.849 208.977 264.372 209.659L265.099 210.25C266.008 209.523 266.531 208.318 266.531 207.386V206.364ZM267.859 218H269.199V212.477C269.199 211.295 270.131 210.432 271.404 210.432C271.762 210.432 272.131 210.5 272.222 210.523V209.159C272.069 209.148 271.716 209.136 271.518 209.136C270.472 209.136 269.563 209.727 269.245 210.591H269.154V209.273H267.859V218ZM273.712 218H275.053V209.273H273.712V218ZM274.393 207.818C274.916 207.818 275.348 207.409 275.348 206.909C275.348 206.409 274.916 206 274.393 206C273.871 206 273.439 206.409 273.439 206.909C273.439 207.409 273.871 207.818 274.393 207.818ZM281.809 218H283.149V214.733L284.087 213.864L287.354 218H289.059L285.098 213L288.786 209.273H287.127L283.309 213.159H283.149V206.364H281.809V218ZM293.711 218.182C295.484 218.182 296.78 217.295 297.189 215.977L295.893 215.614C295.552 216.523 294.762 216.977 293.711 216.977C292.137 216.977 291.052 215.96 290.99 214.091H297.325V213.523C297.325 210.273 295.393 209.159 293.575 209.159C291.211 209.159 289.643 211.023 289.643 213.705C289.643 216.386 291.189 218.182 293.711 218.182ZM290.99 212.932C291.081 211.574 292.041 210.364 293.575 210.364C295.03 210.364 295.961 211.455 295.961 212.932H290.99ZM300.606 206.364H299.265V218H300.606V206.364ZM305.53 218.205C307.053 218.205 307.848 217.386 308.121 216.818H308.189V218H309.53V212.25C309.53 209.477 307.416 209.159 306.303 209.159C304.984 209.159 303.484 209.614 302.803 211.205L304.075 211.659C304.371 211.023 305.07 210.341 306.348 210.341C307.581 210.341 308.189 210.994 308.189 212.114V212.159C308.189 212.807 307.53 212.75 305.939 212.955C304.32 213.165 302.553 213.523 302.553 215.523C302.553 217.227 303.871 218.205 305.53 218.205ZM305.734 217C304.666 217 303.893 216.523 303.893 215.591C303.893 214.568 304.825 214.25 305.871 214.114C306.439 214.045 307.962 213.886 308.189 213.614V214.841C308.189 215.932 307.325 217 305.734 217ZM315.173 218.182C316.855 218.182 317.423 217.136 317.718 216.659H317.877V218H319.173V206.364H317.832V210.659H317.718C317.423 210.205 316.9 209.159 315.195 209.159C312.991 209.159 311.468 210.909 311.468 213.659C311.468 216.432 312.991 218.182 315.173 218.182ZM315.355 216.977C313.673 216.977 312.809 215.5 312.809 213.636C312.809 211.795 313.65 210.364 315.355 210.364C316.991 210.364 317.855 211.682 317.855 213.636C317.855 215.614 316.968 216.977 315.355 216.977ZM321.715 218H323.056V209.273H321.715V218ZM322.397 207.818C322.919 207.818 323.351 207.409 323.351 206.909C323.351 206.409 322.919 206 322.397 206C321.874 206 321.442 206.409 321.442 206.909C321.442 207.409 321.874 207.818 322.397 207.818Z" fill="black"/>
<circle cx="33.5" cy="212.5" r="5.5" fill="#C4C4C4"/>
<path d="M55.4091 160H56.8182V156.227L58.2727 154.591L62.3182 160H64.0227L59.1364 153.614L64.0227 148.364H62.1818L56.9545 154.136H56.8182V148.364H55.4091V160ZM68.133 160.205C69.6557 160.205 70.4511 159.386 70.7239 158.818H70.792V160H72.133V154.25C72.133 151.477 70.0193 151.159 68.9057 151.159C67.5875 151.159 66.0875 151.614 65.4057 153.205L66.6784 153.659C66.9739 153.023 67.6727 152.341 68.9511 152.341C70.1841 152.341 70.792 152.994 70.792 154.114V154.159C70.792 154.807 70.133 154.75 68.542 154.955C66.9227 155.165 65.1557 155.523 65.1557 157.523C65.1557 159.227 66.4739 160.205 68.133 160.205ZM68.3375 159C67.2693 159 66.4966 158.523 66.4966 157.591C66.4966 156.568 67.4284 156.25 68.4739 156.114C69.042 156.045 70.5648 155.886 70.792 155.614V156.841C70.792 157.932 69.9284 159 68.3375 159ZM80.6622 153.227C80.2418 151.989 79.2986 151.159 77.5713 151.159C75.7304 151.159 74.3668 152.205 74.3668 153.682C74.3668 154.886 75.0827 155.693 76.6849 156.068L78.1395 156.409C79.0202 156.614 79.4349 157.034 79.4349 157.636C79.4349 158.386 78.6395 159 77.3895 159C76.2929 159 75.6054 158.528 75.3668 157.591L74.094 157.909C74.4065 159.392 75.6281 160.182 77.4122 160.182C79.4406 160.182 80.8213 159.074 80.8213 157.568C80.8213 156.352 80.0599 155.585 78.5031 155.205L77.2077 154.886C76.1736 154.631 75.7077 154.284 75.7077 153.614C75.7077 152.864 76.5031 152.318 77.5713 152.318C78.7418 152.318 79.2247 152.966 79.4577 153.568L80.6622 153.227ZM85.308 160.205C86.8307 160.205 87.6261 159.386 87.8989 158.818H87.967V160H89.308V154.25C89.308 151.477 87.1943 151.159 86.0807 151.159C84.7625 151.159 83.2625 151.614 82.5807 153.205L83.8534 153.659C84.1489 153.023 84.8477 152.341 86.1261 152.341C87.3591 152.341 87.967 152.994 87.967 154.114V154.159C87.967 154.807 87.308 154.75 85.717 154.955C84.0977 155.165 82.3307 155.523 82.3307 157.523C82.3307 159.227 83.6489 160.205 85.308 160.205ZM85.5125 159C84.4443 159 83.6716 158.523 83.6716 157.591C83.6716 156.568 84.6034 156.25 85.6489 156.114C86.217 156.045 87.7398 155.886 87.967 155.614V156.841C87.967 157.932 87.1034 159 85.5125 159ZM92.9963 148.364H91.6554V160H92.9963V148.364ZM96.6932 148.364H95.3523V160H96.6932V148.364ZM99.0491 160H100.39V151.273H99.0491V160ZM99.731 149.818C100.254 149.818 100.686 149.409 100.686 148.909C100.686 148.409 100.254 148 99.731 148C99.2082 148 98.7764 148.409 98.7764 148.909C98.7764 149.409 99.2082 149.818 99.731 149.818ZM102.746 160H104.087V156.733L105.024 155.864L108.291 160H109.996L106.036 155L109.723 151.273H108.064L104.246 155.159H104.087V148.364H102.746V160ZM116.613 163.273C117.823 163.273 118.675 162.631 119.181 161.273L122.897 151.295L121.431 151.273L119.022 158.227H118.931L116.522 151.273H115.067L118.295 160.045L118.045 160.727C117.556 162.057 116.954 162.182 115.976 161.932L115.636 163.114C115.772 163.182 116.158 163.273 116.613 163.273ZM130.071 156.432C130.071 158.068 128.821 158.818 127.821 158.818C126.707 158.818 125.912 158 125.912 156.727V151.273H124.571V156.818C124.571 159.045 125.753 160.114 127.389 160.114C128.707 160.114 129.571 159.409 129.98 158.523H130.071V160H131.412V151.273H130.071V156.432ZM141.063 163.273V151.273H139.768V152.659H139.609C139.313 152.205 138.791 151.159 137.086 151.159C134.882 151.159 133.359 152.909 133.359 155.659C133.359 158.432 134.882 160.182 137.063 160.182C138.745 160.182 139.313 159.136 139.609 158.659H139.722V163.273H141.063ZM139.745 155.636C139.745 157.614 138.859 158.977 137.245 158.977C135.563 158.977 134.7 157.5 134.7 155.636C134.7 153.795 135.541 152.364 137.245 152.364C138.882 152.364 139.745 153.682 139.745 155.636ZM147.213 151.273H145.35V149.182H144.009V151.273H142.691V152.409H144.009V157.864C144.009 159.386 145.236 160.114 146.372 160.114C146.872 160.114 147.191 160.023 147.372 159.955L147.1 158.75C146.986 158.773 146.804 158.818 146.509 158.818C145.918 158.818 145.35 158.636 145.35 157.5V152.409H147.213V151.273ZM149.13 160H150.471V151.273H149.13V160ZM149.812 149.818C150.335 149.818 150.767 149.409 150.767 148.909C150.767 148.409 150.335 148 149.812 148C149.289 148 148.858 148.409 148.858 148.909C148.858 149.409 149.289 149.818 149.812 149.818ZM152.827 160H154.168V154.477C154.168 153.295 155.1 152.432 156.373 152.432C156.731 152.432 157.1 152.5 157.191 152.523V151.159C157.037 151.148 156.685 151.136 156.486 151.136C155.441 151.136 154.532 151.727 154.214 152.591H154.123V151.273H152.827V160ZM158.68 160H160.021V151.273H158.68V160ZM159.362 149.818C159.885 149.818 160.317 149.409 160.317 148.909C160.317 148.409 159.885 148 159.362 148C158.839 148 158.408 148.409 158.408 148.909C158.408 149.409 158.839 149.818 159.362 149.818ZM168.559 153.227C168.139 151.989 167.195 151.159 165.468 151.159C163.627 151.159 162.264 152.205 162.264 153.682C162.264 154.886 162.98 155.693 164.582 156.068L166.036 156.409C166.917 156.614 167.332 157.034 167.332 157.636C167.332 158.386 166.536 159 165.286 159C164.19 159 163.502 158.528 163.264 157.591L161.991 157.909C162.303 159.392 163.525 160.182 165.309 160.182C167.338 160.182 168.718 159.074 168.718 157.568C168.718 156.352 167.957 155.585 166.4 155.205L165.105 154.886C164.07 154.631 163.605 154.284 163.605 153.614C163.605 152.864 164.4 152.318 165.468 152.318C166.639 152.318 167.122 152.966 167.355 153.568L168.559 153.227ZM171.978 154.75C171.978 153.227 172.949 152.364 174.273 152.364C175.534 152.364 176.296 153.159 176.296 154.545V160H177.637V154.455C177.637 152.21 176.443 151.159 174.659 151.159C173.284 151.159 172.5 151.733 172.091 152.636H171.978V148.364H170.637V160H171.978V154.75ZM185.39 151.273H183.844L186.617 155.636L183.844 160H185.39L187.481 156.614L189.572 160H191.117L188.299 155.636L191.117 151.273H189.572L187.481 154.841L185.39 151.273ZM195.499 160.205C197.021 160.205 197.817 159.386 198.089 158.818H198.158V160H199.499V154.25C199.499 151.477 197.385 151.159 196.271 151.159C194.953 151.159 193.453 151.614 192.771 153.205L194.044 153.659C194.339 153.023 195.038 152.341 196.317 152.341C197.55 152.341 198.158 152.994 198.158 154.114V154.159C198.158 154.807 197.499 154.75 195.908 154.955C194.288 155.165 192.521 155.523 192.521 157.523C192.521 159.227 193.839 160.205 195.499 160.205ZM195.703 159C194.635 159 193.862 158.523 193.862 157.591C193.862 156.568 194.794 156.25 195.839 156.114C196.408 156.045 197.93 155.886 198.158 155.614V156.841C198.158 157.932 197.294 159 195.703 159ZM208.67 151.273H207.215L204.806 158.227H204.715L202.306 151.273H200.852L204.079 160H205.443L208.67 151.273ZM214.226 151.273H212.272V150.386C212.272 149.523 212.635 149.068 213.522 149.068C213.908 149.068 214.135 149.159 214.272 149.205L214.658 148.045C214.453 147.955 214.044 147.818 213.385 147.818C212.135 147.818 210.931 148.568 210.931 150.068V151.273H209.522V152.409H210.931V160H212.272V152.409H214.226V151.273ZM216.005 160H217.346V151.273H216.005V160ZM216.687 149.818C217.21 149.818 217.642 149.409 217.642 148.909C217.642 148.409 217.21 148 216.687 148C216.164 148 215.733 148.409 215.733 148.909C215.733 149.409 216.164 149.818 216.687 149.818ZM224.284 160H225.58V158.659H225.739C226.034 159.136 226.602 160.182 228.284 160.182C230.466 160.182 231.989 158.432 231.989 155.659C231.989 152.909 230.466 151.159 228.261 151.159C226.557 151.159 226.034 152.205 225.739 152.659H225.625V148.364H224.284V160ZM225.602 155.636C225.602 153.682 226.466 152.364 228.102 152.364C229.807 152.364 230.648 153.795 230.648 155.636C230.648 157.5 229.784 158.977 228.102 158.977C226.489 158.977 225.602 157.614 225.602 155.636ZM237.485 160.182C239.849 160.182 241.44 158.386 241.44 155.682C241.44 152.955 239.849 151.159 237.485 151.159C235.122 151.159 233.531 152.955 233.531 155.682C233.531 158.386 235.122 160.182 237.485 160.182ZM237.485 158.977C235.69 158.977 234.872 157.432 234.872 155.682C234.872 153.932 235.69 152.364 237.485 152.364C239.281 152.364 240.099 153.932 240.099 155.682C240.099 157.432 239.281 158.977 237.485 158.977ZM243.387 160H244.728V154.477C244.728 153.295 245.659 152.432 246.932 152.432C247.29 152.432 247.659 152.5 247.75 152.523V151.159C247.597 151.148 247.245 151.136 247.046 151.136C246 151.136 245.091 151.727 244.773 152.591H244.682V151.273H243.387V160Z" fill="black"/>
<circle cx="33.5" cy="154.5" r="5.5" fill="#C4C4C4"/>
<path d="M55.4091 247H56.8182V243.227L58.2727 241.591L62.3182 247H64.0227L59.1364 240.614L64.0227 235.364H62.1818L56.9545 241.136H56.8182V235.364H55.4091V247ZM68.4696 247.182C70.8332 247.182 72.4241 245.386 72.4241 242.682C72.4241 239.955 70.8332 238.159 68.4696 238.159C66.106 238.159 64.5151 239.955 64.5151 242.682C64.5151 245.386 66.106 247.182 68.4696 247.182ZM68.4696 245.977C66.6741 245.977 65.856 244.432 65.856 242.682C65.856 240.932 66.6741 239.364 68.4696 239.364C70.2651 239.364 71.0832 240.932 71.0832 242.682C71.0832 244.432 70.2651 245.977 68.4696 245.977ZM75.5528 235.364H74.2801V236.409C74.2801 237.25 73.871 237.977 73.3937 238.659L74.121 239.25C75.0301 238.523 75.5528 237.318 75.5528 236.386V235.364ZM76.8804 250.273H78.2213V245.659H78.3349C78.6304 246.136 79.1986 247.182 80.8804 247.182C83.0622 247.182 84.5849 245.432 84.5849 242.659C84.5849 239.909 83.0622 238.159 80.8577 238.159C79.1531 238.159 78.6304 239.205 78.3349 239.659H78.1759V238.273H76.8804V250.273ZM78.1986 242.636C78.1986 240.682 79.0622 239.364 80.6986 239.364C82.4031 239.364 83.244 240.795 83.244 242.636C83.244 244.5 82.3804 245.977 80.6986 245.977C79.0849 245.977 78.1986 244.614 78.1986 242.636ZM94.4759 247.182C96.8395 247.182 98.4304 245.386 98.4304 242.682C98.4304 239.955 96.8395 238.159 94.4759 238.159C92.1122 238.159 90.5213 239.955 90.5213 242.682C90.5213 245.386 92.1122 247.182 94.4759 247.182ZM94.4759 245.977C92.6804 245.977 91.8622 244.432 91.8622 242.682C91.8622 240.932 92.6804 239.364 94.4759 239.364C96.2713 239.364 97.0895 240.932 97.0895 242.682C97.0895 244.432 96.2713 245.977 94.4759 245.977ZM101.559 235.364H100.286V236.409C100.286 237.25 99.8773 237.977 99.4 238.659L100.127 239.25C101.036 238.523 101.559 237.318 101.559 236.386V235.364ZM110.182 250.273V238.273H108.887V239.659H108.728C108.432 239.205 107.909 238.159 106.205 238.159C104 238.159 102.478 239.909 102.478 242.659C102.478 245.432 104 247.182 106.182 247.182C107.864 247.182 108.432 246.136 108.728 245.659H108.841V250.273H110.182ZM108.864 242.636C108.864 244.614 107.978 245.977 106.364 245.977C104.682 245.977 103.818 244.5 103.818 242.636C103.818 240.795 104.659 239.364 106.364 239.364C108 239.364 108.864 240.682 108.864 242.636ZM112.537 247H113.878V238.273H112.537V247ZM113.218 236.818C113.741 236.818 114.173 236.409 114.173 235.909C114.173 235.409 113.741 235 113.218 235C112.696 235 112.264 235.409 112.264 235.909C112.264 236.409 112.696 236.818 113.218 236.818ZM122.415 240.227C121.995 238.989 121.052 238.159 119.324 238.159C117.484 238.159 116.12 239.205 116.12 240.682C116.12 241.886 116.836 242.693 118.438 243.068L119.893 243.409C120.773 243.614 121.188 244.034 121.188 244.636C121.188 245.386 120.393 246 119.143 246C118.046 246 117.359 245.528 117.12 244.591L115.847 244.909C116.16 246.392 117.381 247.182 119.165 247.182C121.194 247.182 122.574 246.074 122.574 244.568C122.574 243.352 121.813 242.585 120.256 242.205L118.961 241.886C117.927 241.631 117.461 241.284 117.461 240.614C117.461 239.864 118.256 239.318 119.324 239.318C120.495 239.318 120.978 239.966 121.211 240.568L122.415 240.227ZM125.834 241.75C125.834 240.227 126.805 239.364 128.129 239.364C129.391 239.364 130.152 240.159 130.152 241.545V247H131.493V241.455C131.493 239.21 130.3 238.159 128.516 238.159C127.141 238.159 126.357 238.733 125.947 239.636H125.834V235.364H124.493V247H125.834V241.75ZM138.846 241.386H133.755V242.636H138.846V241.386ZM144.651 247.182C147.014 247.182 148.605 245.386 148.605 242.682C148.605 239.955 147.014 238.159 144.651 238.159C142.287 238.159 140.696 239.955 140.696 242.682C140.696 245.386 142.287 247.182 144.651 247.182ZM144.651 245.977C142.855 245.977 142.037 244.432 142.037 242.682C142.037 240.932 142.855 239.364 144.651 239.364C146.446 239.364 147.264 240.932 147.264 242.682C147.264 244.432 146.446 245.977 144.651 245.977ZM151.734 235.364H150.461V236.409C150.461 237.25 150.052 237.977 149.575 238.659L150.302 239.25C151.211 238.523 151.734 237.318 151.734 236.386V235.364ZM153.062 247H154.403V241.477C154.403 240.295 155.334 239.432 156.607 239.432C156.965 239.432 157.334 239.5 157.425 239.523V238.159C157.272 238.148 156.92 238.136 156.721 238.136C155.675 238.136 154.766 238.727 154.448 239.591H154.357V238.273H153.062V247ZM162.172 250.455C164.263 250.455 165.945 249.5 165.945 247.25V238.273H164.649V239.659H164.513C164.217 239.205 163.672 238.159 161.967 238.159C159.763 238.159 158.24 239.909 158.24 242.591C158.24 245.318 159.831 246.864 161.945 246.864C163.649 246.864 164.195 245.864 164.49 245.386H164.604V247.159C164.604 248.614 163.581 249.273 162.172 249.273C160.587 249.273 160.03 248.438 159.672 247.955L158.604 248.705C159.149 249.619 160.223 250.455 162.172 250.455ZM162.126 245.659C160.445 245.659 159.581 244.386 159.581 242.568C159.581 240.795 160.422 239.364 162.126 239.364C163.763 239.364 164.626 240.682 164.626 242.568C164.626 244.5 163.74 245.659 162.126 245.659ZM170.867 247.205C172.39 247.205 173.186 246.386 173.458 245.818H173.526V247H174.867V241.25C174.867 238.477 172.754 238.159 171.64 238.159C170.322 238.159 168.822 238.614 168.14 240.205L169.413 240.659C169.708 240.023 170.407 239.341 171.686 239.341C172.918 239.341 173.526 239.994 173.526 241.114V241.159C173.526 241.807 172.867 241.75 171.276 241.955C169.657 242.165 167.89 242.523 167.89 244.523C167.89 246.227 169.208 247.205 170.867 247.205ZM171.072 246C170.004 246 169.231 245.523 169.231 244.591C169.231 243.568 170.163 243.25 171.208 243.114C171.776 243.045 173.299 242.886 173.526 242.614V243.841C173.526 244.932 172.663 246 171.072 246ZM178.556 241.75C178.556 240.227 179.499 239.364 180.783 239.364C182.027 239.364 182.783 240.176 182.783 241.545V247H184.124V241.455C184.124 239.227 182.936 238.159 181.169 238.159C179.851 238.159 179.033 238.75 178.624 239.636H178.51V238.273H177.215V247H178.556V241.75ZM186.474 247H187.815V238.273H186.474V247ZM187.156 236.818C187.679 236.818 188.111 236.409 188.111 235.909C188.111 235.409 187.679 235 187.156 235C186.633 235 186.201 235.409 186.201 235.909C186.201 236.409 186.633 236.818 187.156 236.818ZM196.353 240.227C195.932 238.989 194.989 238.159 193.262 238.159C191.421 238.159 190.057 239.205 190.057 240.682C190.057 241.886 190.773 242.693 192.376 243.068L193.83 243.409C194.711 243.614 195.126 244.034 195.126 244.636C195.126 245.386 194.33 246 193.08 246C191.984 246 191.296 245.528 191.057 244.591L189.785 244.909C190.097 246.392 191.319 247.182 193.103 247.182C195.131 247.182 196.512 246.074 196.512 244.568C196.512 243.352 195.751 242.585 194.194 242.205L192.898 241.886C191.864 241.631 191.398 241.284 191.398 240.614C191.398 239.864 192.194 239.318 193.262 239.318C194.432 239.318 194.915 239.966 195.148 240.568L196.353 240.227ZM199.771 241.75C199.771 240.227 200.743 239.364 202.067 239.364C203.328 239.364 204.089 240.159 204.089 241.545V247H205.43V241.455C205.43 239.21 204.237 238.159 202.453 238.159C201.078 238.159 200.294 238.733 199.885 239.636H199.771V235.364H198.43V247H199.771V241.75ZM218.365 240.227C217.945 238.989 217.002 238.159 215.274 238.159C213.434 238.159 212.07 239.205 212.07 240.682C212.07 241.886 212.786 242.693 214.388 243.068L215.843 243.409C216.723 243.614 217.138 244.034 217.138 244.636C217.138 245.386 216.343 246 215.093 246C213.996 246 213.309 245.528 213.07 244.591L211.797 244.909C212.11 246.392 213.331 247.182 215.115 247.182C217.144 247.182 218.524 246.074 218.524 244.568C218.524 243.352 217.763 242.585 216.206 242.205L214.911 241.886C213.877 241.631 213.411 241.284 213.411 240.614C213.411 239.864 214.206 239.318 215.274 239.318C216.445 239.318 216.928 239.966 217.161 240.568L218.365 240.227ZM221.784 241.75C221.784 240.227 222.755 239.364 224.079 239.364C225.341 239.364 226.102 240.159 226.102 241.545V247H227.443V241.455C227.443 239.21 226.25 238.159 224.466 238.159C223.091 238.159 222.307 238.733 221.897 239.636H221.784V235.364H220.443V247H221.784V241.75ZM232.364 247.205C233.887 247.205 234.682 246.386 234.955 245.818H235.023V247H236.364V241.25C236.364 238.477 234.251 238.159 233.137 238.159C231.819 238.159 230.319 238.614 229.637 240.205L230.91 240.659C231.205 240.023 231.904 239.341 233.182 239.341C234.415 239.341 235.023 239.994 235.023 241.114V241.159C235.023 241.807 234.364 241.75 232.773 241.955C231.154 242.165 229.387 242.523 229.387 244.523C229.387 246.227 230.705 247.205 232.364 247.205ZM232.569 246C231.501 246 230.728 245.523 230.728 244.591C230.728 243.568 231.66 243.25 232.705 243.114C233.273 243.045 234.796 242.886 235.023 242.614V243.841C235.023 244.932 234.16 246 232.569 246ZM238.712 247H240.053V241.477C240.053 240.295 240.984 239.432 242.257 239.432C242.615 239.432 242.984 239.5 243.075 239.523V238.159C242.922 238.148 242.57 238.136 242.371 238.136C241.325 238.136 240.416 238.727 240.098 239.591H240.007V238.273H238.712V247ZM248.907 238.273H247.043V236.182H245.703V238.273H244.384V239.409H245.703V244.864C245.703 246.386 246.93 247.114 248.066 247.114C248.566 247.114 248.884 247.023 249.066 246.955L248.793 245.75C248.68 245.773 248.498 245.818 248.203 245.818C247.612 245.818 247.043 245.636 247.043 244.5V239.409H248.907V238.273Z" fill="black"/>
<circle cx="33.5" cy="241.5" r="5.5" fill="#C4C4C4"/>
<path d="M55.4091 189H56.8182V185.227L58.2727 183.591L62.3182 189H64.0227L59.1364 182.614L64.0227 177.364H62.1818L56.9545 183.136H56.8182V177.364H55.4091V189ZM68.133 189.205C69.6557 189.205 70.4511 188.386 70.7239 187.818H70.792V189H72.133V183.25C72.133 180.477 70.0193 180.159 68.9057 180.159C67.5875 180.159 66.0875 180.614 65.4057 182.205L66.6784 182.659C66.9739 182.023 67.6727 181.341 68.9511 181.341C70.1841 181.341 70.792 181.994 70.792 183.114V183.159C70.792 183.807 70.133 183.75 68.542 183.955C66.9227 184.165 65.1557 184.523 65.1557 186.523C65.1557 188.227 66.4739 189.205 68.133 189.205ZM68.3375 188C67.2693 188 66.4966 187.523 66.4966 186.591C66.4966 185.568 67.4284 185.25 68.4739 185.114C69.042 185.045 70.5648 184.886 70.792 184.614V185.841C70.792 186.932 69.9284 188 68.3375 188ZM80.6622 182.227C80.2418 180.989 79.2986 180.159 77.5713 180.159C75.7304 180.159 74.3668 181.205 74.3668 182.682C74.3668 183.886 75.0827 184.693 76.6849 185.068L78.1395 185.409C79.0202 185.614 79.4349 186.034 79.4349 186.636C79.4349 187.386 78.6395 188 77.3895 188C76.2929 188 75.6054 187.528 75.3668 186.591L74.094 186.909C74.4065 188.392 75.6281 189.182 77.4122 189.182C79.4406 189.182 80.8213 188.074 80.8213 186.568C80.8213 185.352 80.0599 184.585 78.5031 184.205L77.2077 183.886C76.1736 183.631 75.7077 183.284 75.7077 182.614C75.7077 181.864 76.5031 181.318 77.5713 181.318C78.7418 181.318 79.2247 181.966 79.4577 182.568L80.6622 182.227ZM85.308 189.205C86.8307 189.205 87.6261 188.386 87.8989 187.818H87.967V189H89.308V183.25C89.308 180.477 87.1943 180.159 86.0807 180.159C84.7625 180.159 83.2625 180.614 82.5807 182.205L83.8534 182.659C84.1489 182.023 84.8477 181.341 86.1261 181.341C87.3591 181.341 87.967 181.994 87.967 183.114V183.159C87.967 183.807 87.308 183.75 85.717 183.955C84.0977 184.165 82.3307 184.523 82.3307 186.523C82.3307 188.227 83.6489 189.205 85.308 189.205ZM85.5125 188C84.4443 188 83.6716 187.523 83.6716 186.591C83.6716 185.568 84.6034 185.25 85.6489 185.114C86.217 185.045 87.7398 184.886 87.967 184.614V185.841C87.967 186.932 87.1034 188 85.5125 188ZM92.9963 177.364H91.6554V189H92.9963V177.364ZM96.6932 177.364H95.3523V189H96.6932V177.364ZM99.0491 189H100.39V180.273H99.0491V189ZM99.731 178.818C100.254 178.818 100.686 178.409 100.686 177.909C100.686 177.409 100.254 177 99.731 177C99.2082 177 98.7764 177.409 98.7764 177.909C98.7764 178.409 99.2082 178.818 99.731 178.818ZM102.746 189H104.087V185.733L105.024 184.864L108.291 189H109.996L106.036 184L109.723 180.273H108.064L104.246 184.159H104.087V177.364H102.746V189ZM116.613 192.273C117.823 192.273 118.675 191.631 119.181 190.273L122.897 180.295L121.431 180.273L119.022 187.227H118.931L116.522 180.273H115.067L118.295 189.045L118.045 189.727C117.556 191.057 116.954 191.182 115.976 190.932L115.636 192.114C115.772 192.182 116.158 192.273 116.613 192.273ZM130.071 185.432C130.071 187.068 128.821 187.818 127.821 187.818C126.707 187.818 125.912 187 125.912 185.727V180.273H124.571V185.818C124.571 188.045 125.753 189.114 127.389 189.114C128.707 189.114 129.571 188.409 129.98 187.523H130.071V189H131.412V180.273H130.071V185.432ZM141.063 192.273V180.273H139.768V181.659H139.609C139.313 181.205 138.791 180.159 137.086 180.159C134.882 180.159 133.359 181.909 133.359 184.659C133.359 187.432 134.882 189.182 137.063 189.182C138.745 189.182 139.313 188.136 139.609 187.659H139.722V192.273H141.063ZM139.745 184.636C139.745 186.614 138.859 187.977 137.245 187.977C135.563 187.977 134.7 186.5 134.7 184.636C134.7 182.795 135.541 181.364 137.245 181.364C138.882 181.364 139.745 182.682 139.745 184.636ZM147.213 180.273H145.35V178.182H144.009V180.273H142.691V181.409H144.009V186.864C144.009 188.386 145.236 189.114 146.372 189.114C146.872 189.114 147.191 189.023 147.372 188.955L147.1 187.75C146.986 187.773 146.804 187.818 146.509 187.818C145.918 187.818 145.35 187.636 145.35 186.5V181.409H147.213V180.273ZM149.13 189H150.471V180.273H149.13V189ZM149.812 178.818C150.335 178.818 150.767 178.409 150.767 177.909C150.767 177.409 150.335 177 149.812 177C149.289 177 148.858 177.409 148.858 177.909C148.858 178.409 149.289 178.818 149.812 178.818ZM152.827 189H154.168V183.477C154.168 182.295 155.1 181.432 156.373 181.432C156.731 181.432 157.1 181.5 157.191 181.523V180.159C157.037 180.148 156.685 180.136 156.486 180.136C155.441 180.136 154.532 180.727 154.214 181.591H154.123V180.273H152.827V189ZM158.68 189H160.021V180.273H158.68V189ZM159.362 178.818C159.885 178.818 160.317 178.409 160.317 177.909C160.317 177.409 159.885 177 159.362 177C158.839 177 158.408 177.409 158.408 177.909C158.408 178.409 158.839 178.818 159.362 178.818ZM168.559 182.227C168.139 180.989 167.195 180.159 165.468 180.159C163.627 180.159 162.264 181.205 162.264 182.682C162.264 183.886 162.98 184.693 164.582 185.068L166.036 185.409C166.917 185.614 167.332 186.034 167.332 186.636C167.332 187.386 166.536 188 165.286 188C164.19 188 163.502 187.528 163.264 186.591L161.991 186.909C162.303 188.392 163.525 189.182 165.309 189.182C167.338 189.182 168.718 188.074 168.718 186.568C168.718 185.352 167.957 184.585 166.4 184.205L165.105 183.886C164.07 183.631 163.605 183.284 163.605 182.614C163.605 181.864 164.4 181.318 165.468 181.318C166.639 181.318 167.122 181.966 167.355 182.568L168.559 182.227ZM171.978 183.75C171.978 182.227 172.949 181.364 174.273 181.364C175.534 181.364 176.296 182.159 176.296 183.545V189H177.637V183.455C177.637 181.21 176.443 180.159 174.659 180.159C173.284 180.159 172.5 180.733 172.091 181.636H171.978V177.364H170.637V189H171.978V183.75ZM185.39 180.273H183.844L186.617 184.636L183.844 189H185.39L187.481 185.614L189.572 189H191.117L188.299 184.636L191.117 180.273H189.572L187.481 183.841L185.39 180.273ZM195.499 189.205C197.021 189.205 197.817 188.386 198.089 187.818H198.158V189H199.499V183.25C199.499 180.477 197.385 180.159 196.271 180.159C194.953 180.159 193.453 180.614 192.771 182.205L194.044 182.659C194.339 182.023 195.038 181.341 196.317 181.341C197.55 181.341 198.158 181.994 198.158 183.114V183.159C198.158 183.807 197.499 183.75 195.908 183.955C194.288 184.165 192.521 184.523 192.521 186.523C192.521 188.227 193.839 189.205 195.499 189.205ZM195.703 188C194.635 188 193.862 187.523 193.862 186.591C193.862 185.568 194.794 185.25 195.839 185.114C196.408 185.045 197.93 184.886 198.158 184.614V185.841C198.158 186.932 197.294 188 195.703 188ZM208.67 180.273H207.215L204.806 187.227H204.715L202.306 180.273H200.852L204.079 189H205.443L208.67 180.273ZM214.226 180.273H212.272V179.386C212.272 178.523 212.635 178.068 213.522 178.068C213.908 178.068 214.135 178.159 214.272 178.205L214.658 177.045C214.453 176.955 214.044 176.818 213.385 176.818C212.135 176.818 210.931 177.568 210.931 179.068V180.273H209.522V181.409H210.931V189H212.272V181.409H214.226V180.273ZM216.005 189H217.346V180.273H216.005V189ZM216.687 178.818C217.21 178.818 217.642 178.409 217.642 177.909C217.642 177.409 217.21 177 216.687 177C216.164 177 215.733 177.409 215.733 177.909C215.733 178.409 216.164 178.818 216.687 178.818ZM224.284 189H225.58V187.659H225.739C226.034 188.136 226.602 189.182 228.284 189.182C230.466 189.182 231.989 187.432 231.989 184.659C231.989 181.909 230.466 180.159 228.261 180.159C226.557 180.159 226.034 181.205 225.739 181.659H225.625V177.364H224.284V189ZM225.602 184.636C225.602 182.682 226.466 181.364 228.102 181.364C229.807 181.364 230.648 182.795 230.648 184.636C230.648 186.5 229.784 187.977 228.102 187.977C226.489 187.977 225.602 186.614 225.602 184.636ZM237.485 189.182C239.849 189.182 241.44 187.386 241.44 184.682C241.44 181.955 239.849 180.159 237.485 180.159C235.122 180.159 233.531 181.955 233.531 184.682C233.531 187.386 235.122 189.182 237.485 189.182ZM237.485 187.977C235.69 187.977 234.872 186.432 234.872 184.682C234.872 182.932 235.69 181.364 237.485 181.364C239.281 181.364 240.099 182.932 240.099 184.682C240.099 186.432 239.281 187.977 237.485 187.977ZM243.387 189H244.728V183.477C244.728 182.295 245.659 181.432 246.932 181.432C247.29 181.432 247.659 181.5 247.75 181.523V180.159C247.597 180.148 247.245 180.136 247.046 180.136C246 180.136 245.091 180.727 244.773 181.591H244.682V180.273H243.387V189Z" fill="black"/>
<circle cx="33.5" cy="183.5" r="5.5" fill="#C4C4C4"/>
</svg>
