<svg width="450" height="383" viewBox="0 0 450 383" fill="none" xmlns="http://www.w3.org/2000/svg">
<rect width="450" height="383" rx="16" fill="#FFEDD8"/>
<path d="M160.479 42.16C159.625 42.16 159.199 41.72 159.199 40.84V30.04H155.299C154.565 30.04 154.199 29.68 154.199 28.96C154.199 28.2533 154.565 27.9 155.299 27.9H165.659C166.392 27.9 166.759 28.2533 166.759 28.96C166.759 29.68 166.392 30.04 165.659 30.04H161.759V40.84C161.759 41.72 161.332 42.16 160.479 42.16ZM167.578 42C166.751 42 166.338 41.5867 166.338 40.76V33.46C166.338 32.6333 166.751 32.22 167.578 32.22H171.618C172.885 32.22 173.791 32.4467 174.338 32.9C174.898 33.34 175.178 33.9667 175.178 34.78C175.178 35.2867 175.038 35.7267 174.758 36.1C174.478 36.4733 174.091 36.7467 173.598 36.92C174.238 37.0667 174.718 37.3467 175.038 37.76C175.358 38.1733 175.518 38.6733 175.518 39.26C175.518 40.1 175.198 40.7667 174.558 41.26C173.918 41.7533 172.991 42 171.778 42H167.578ZM168.658 36.24H171.378C171.858 36.24 172.231 36.1333 172.498 35.92C172.765 35.6933 172.898 35.38 172.898 34.98C172.898 34.58 172.765 34.28 172.498 34.08C172.231 33.8667 171.858 33.76 171.378 33.76H168.658V36.24ZM168.658 40.46H171.558C172.678 40.46 173.238 40.0133 173.238 39.12C173.238 38.2267 172.678 37.78 171.558 37.78H168.658V40.46ZM181.985 42.2C180.972 42.2 180.092 41.9933 179.345 41.58C178.598 41.1667 178.018 40.58 177.605 39.82C177.192 39.0467 176.985 38.14 176.985 37.1C176.985 36.06 177.192 35.16 177.605 34.4C178.018 33.64 178.598 33.0533 179.345 32.64C180.092 32.2267 180.972 32.02 181.985 32.02C182.998 32.02 183.878 32.2267 184.625 32.64C185.372 33.0533 185.952 33.64 186.365 34.4C186.778 35.16 186.985 36.06 186.985 37.1C186.985 38.14 186.778 39.0467 186.365 39.82C185.952 40.58 185.372 41.1667 184.625 41.58C183.878 41.9933 182.998 42.2 181.985 42.2ZM181.985 40.3C182.732 40.3 183.332 40.0333 183.785 39.5C184.238 38.9533 184.465 38.1533 184.465 37.1C184.465 36.0333 184.238 35.24 183.785 34.72C183.332 34.1867 182.732 33.92 181.985 33.92C181.238 33.92 180.638 34.1867 180.185 34.72C179.732 35.24 179.505 36.0333 179.505 37.1C179.505 38.1533 179.732 38.9533 180.185 39.5C180.638 40.0333 181.238 40.3 181.985 40.3ZM190.262 42.16C189.489 42.16 189.102 41.7133 189.102 40.82V33.26C189.102 32.46 189.482 32.06 190.242 32.06C190.989 32.06 191.362 32.46 191.362 33.26V38.74L195.782 32.86C195.929 32.6733 196.109 32.4933 196.322 32.32C196.535 32.1467 196.829 32.06 197.202 32.06C197.962 32.06 198.342 32.5 198.342 33.38V40.96C198.342 41.76 197.969 42.16 197.222 42.16C196.462 42.16 196.082 41.76 196.082 40.96V35.48L191.662 41.36C191.529 41.5467 191.355 41.7267 191.142 41.9C190.942 42.0733 190.649 42.16 190.262 42.16ZM207.362 42.16C206.589 42.16 206.202 41.7133 206.202 40.82V33.26C206.202 32.46 206.582 32.06 207.342 32.06C208.089 32.06 208.462 32.46 208.462 33.26V38.74L212.882 32.86C213.029 32.6733 213.209 32.4933 213.422 32.32C213.635 32.1467 213.929 32.06 214.302 32.06C215.062 32.06 215.442 32.5 215.442 33.38V40.96C215.442 41.76 215.069 42.16 214.322 42.16C213.562 42.16 213.182 41.76 213.182 40.96V35.48L208.762 41.36C208.629 41.5467 208.455 41.7267 208.242 41.9C208.042 42.0733 207.749 42.16 207.362 42.16ZM219.332 42.16C218.492 42.16 218.072 41.7333 218.072 40.88V33.32C218.072 32.48 218.492 32.06 219.332 32.06C220.159 32.06 220.572 32.48 220.572 33.32V36H224.892V33.32C224.892 32.48 225.306 32.06 226.132 32.06C226.972 32.06 227.392 32.48 227.392 33.32V40.88C227.392 41.7333 226.972 42.16 226.132 42.16C225.306 42.16 224.892 41.7333 224.892 40.88V37.96H220.572V40.88C220.572 41.7333 220.159 42.16 219.332 42.16ZM233.36 42.16C232.52 42.16 232.1 41.7333 232.1 40.88V34.18H229.66C228.94 34.18 228.58 33.8533 228.58 33.2C228.58 32.5467 228.94 32.22 229.66 32.22H237.04C237.76 32.22 238.12 32.5467 238.12 33.2C238.12 33.8533 237.76 34.18 237.04 34.18H234.6V40.88C234.6 41.7333 234.187 42.16 233.36 42.16ZM244.036 42.2C242.929 42.2 241.976 41.9933 241.176 41.58C240.376 41.1667 239.756 40.58 239.316 39.82C238.889 39.06 238.676 38.16 238.676 37.12C238.676 36.1067 238.882 35.22 239.296 34.46C239.722 33.7 240.302 33.1067 241.036 32.68C241.782 32.24 242.629 32.02 243.576 32.02C244.962 32.02 246.056 32.46 246.856 33.34C247.669 34.22 248.076 35.42 248.076 36.94C248.076 37.4333 247.756 37.68 247.116 37.68H241.076C241.262 39.4267 242.262 40.3 244.076 40.3C244.422 40.3 244.809 40.26 245.236 40.18C245.676 40.0867 246.089 39.9333 246.476 39.72C246.822 39.52 247.116 39.46 247.356 39.54C247.596 39.6067 247.762 39.7467 247.856 39.96C247.962 40.1733 247.976 40.4133 247.896 40.68C247.829 40.9333 247.642 41.1533 247.336 41.34C246.869 41.6333 246.329 41.8533 245.716 42C245.116 42.1333 244.556 42.2 244.036 42.2ZM243.676 33.72C242.942 33.72 242.349 33.9467 241.896 34.4C241.442 34.8533 241.169 35.4667 241.076 36.24H245.996C245.942 35.4267 245.716 34.8067 245.316 34.38C244.929 33.94 244.382 33.72 243.676 33.72ZM251.369 45.76C250.542 45.76 250.129 45.34 250.129 44.5V33.32C250.129 32.48 250.536 32.06 251.349 32.06C252.176 32.06 252.589 32.48 252.589 33.32V33.74C252.869 33.22 253.289 32.8067 253.849 32.5C254.409 32.18 255.049 32.02 255.769 32.02C256.622 32.02 257.369 32.2267 258.009 32.64C258.662 33.0533 259.169 33.64 259.529 34.4C259.889 35.1467 260.069 36.0467 260.069 37.1C260.069 38.14 259.889 39.0467 259.529 39.82C259.169 40.58 258.669 41.1667 258.029 41.58C257.389 41.9933 256.636 42.2 255.769 42.2C255.076 42.2 254.449 42.0533 253.889 41.76C253.342 41.4533 252.922 41.0467 252.629 40.54V44.5C252.629 45.34 252.209 45.76 251.369 45.76ZM255.069 40.3C255.816 40.3 256.416 40.0333 256.869 39.5C257.322 38.9533 257.549 38.1533 257.549 37.1C257.549 36.0333 257.322 35.24 256.869 34.72C256.416 34.1867 255.816 33.92 255.069 33.92C254.322 33.92 253.722 34.1867 253.269 34.72C252.816 35.24 252.589 36.0333 252.589 37.1C252.589 38.1533 252.816 38.9533 253.269 39.5C253.722 40.0333 254.322 40.3 255.069 40.3ZM267.034 42.2C265.928 42.2 264.974 41.9933 264.174 41.58C263.374 41.1667 262.754 40.58 262.314 39.82C261.888 39.06 261.674 38.16 261.674 37.12C261.674 36.1067 261.881 35.22 262.294 34.46C262.721 33.7 263.301 33.1067 264.034 32.68C264.781 32.24 265.628 32.02 266.574 32.02C267.961 32.02 269.054 32.46 269.854 33.34C270.668 34.22 271.074 35.42 271.074 36.94C271.074 37.4333 270.754 37.68 270.114 37.68H264.074C264.261 39.4267 265.261 40.3 267.074 40.3C267.421 40.3 267.808 40.26 268.234 40.18C268.674 40.0867 269.088 39.9333 269.474 39.72C269.821 39.52 270.114 39.46 270.354 39.54C270.594 39.6067 270.761 39.7467 270.854 39.96C270.961 40.1733 270.974 40.4133 270.894 40.68C270.828 40.9333 270.641 41.1533 270.334 41.34C269.868 41.6333 269.328 41.8533 268.714 42C268.114 42.1333 267.554 42.2 267.034 42.2ZM266.674 33.72C265.941 33.72 265.348 33.9467 264.894 34.4C264.441 34.8533 264.168 35.4667 264.074 36.24H268.994C268.941 35.4267 268.714 34.8067 268.314 34.38C267.928 33.94 267.381 33.72 266.674 33.72ZM277.648 42.2C276.621 42.2 275.728 41.9933 274.968 41.58C274.208 41.1533 273.621 40.5533 273.208 39.78C272.794 39.0067 272.588 38.1 272.588 37.06C272.588 36.02 272.794 35.1267 273.208 34.38C273.621 33.62 274.208 33.04 274.968 32.64C275.728 32.2267 276.621 32.02 277.648 32.02C278.088 32.02 278.561 32.08 279.068 32.2C279.588 32.32 280.074 32.52 280.528 32.8C280.794 32.96 280.948 33.1667 280.988 33.42C281.041 33.6733 281.008 33.9067 280.888 34.12C280.781 34.3333 280.614 34.4867 280.388 34.58C280.174 34.6733 279.928 34.64 279.648 34.48C279.034 34.1333 278.441 33.96 277.868 33.96C277.001 33.96 276.328 34.2333 275.848 34.78C275.381 35.3133 275.148 36.08 275.148 37.08C275.148 38.0667 275.381 38.8467 275.848 39.42C276.328 39.98 277.001 40.26 277.868 40.26C278.441 40.26 279.034 40.0933 279.648 39.76C279.928 39.6 280.174 39.5667 280.388 39.66C280.601 39.7533 280.754 39.9133 280.848 40.14C280.941 40.3533 280.961 40.5867 280.908 40.84C280.854 41.08 280.701 41.28 280.448 41.44C280.008 41.7067 279.541 41.9 279.048 42.02C278.554 42.14 278.088 42.2 277.648 42.2ZM283.874 42C283.047 42 282.634 41.5867 282.634 40.76V33.32C282.634 32.48 283.054 32.06 283.894 32.06C284.721 32.06 285.134 32.48 285.134 33.32V35.46H287.714C289.007 35.46 289.981 35.7333 290.634 36.28C291.301 36.8267 291.634 37.6267 291.634 38.68C291.634 39.68 291.281 40.4867 290.574 41.1C289.881 41.7 288.927 42 287.714 42H283.874ZM294.054 42.16C293.227 42.16 292.814 41.7333 292.814 40.88V33.32C292.814 32.48 293.227 32.06 294.054 32.06C294.894 32.06 295.314 32.48 295.314 33.32V40.88C295.314 41.7333 294.894 42.16 294.054 42.16ZM285.134 40.36H287.334C287.961 40.36 288.447 40.2267 288.794 39.96C289.141 39.68 289.314 39.26 289.314 38.7C289.314 38.1533 289.141 37.7533 288.794 37.5C288.447 37.2333 287.961 37.1 287.334 37.1H285.134V40.36Z" fill="#1C1C1C"/>
<rect x="41" y="104" width="330" height="8" rx="4" fill="#D6D6D6"/>
<rect x="41" y="104" width="263.083" height="8" rx="4" fill="#FFA945"/>
<path d="M41.5795 88.2102H44.3239V96H45.3807V88.2102H48.125V87.2727H41.5795V88.2102ZM51.4148 96.1364C52.7443 96.1364 53.7159 95.4716 54.0227 94.483L53.0511 94.2102C52.7955 94.892 52.2031 95.233 51.4148 95.233C50.2344 95.233 49.4205 94.4702 49.3736 93.0682H54.125V92.642C54.125 90.2045 52.6761 89.3693 51.3125 89.3693C49.5398 89.3693 48.3636 90.767 48.3636 92.7784C48.3636 94.7898 49.5227 96.1364 51.4148 96.1364ZM49.3736 92.1989C49.4418 91.1804 50.1619 90.2727 51.3125 90.2727C52.4034 90.2727 53.1023 91.0909 53.1023 92.1989H49.3736ZM56.229 89.4545H55.07L57.1495 92.7273L55.07 96H56.229L57.7972 93.4602L59.3654 96H60.5245L58.4109 92.7273L60.5245 89.4545H59.3654L57.7972 92.1307L56.229 89.4545ZM62.9652 89.4545H61.9595V96H62.9652V93.2045H66.1016V96H67.1072V89.4545H66.1016V92.267H62.9652V89.4545ZM69.9496 94.517V89.4545H68.9439V96H70.12L73.2564 90.9375V96H74.2621V89.4545H73.103L69.9496 94.517ZM76.104 96H77.1097V93.2386H78.0131L80.1609 96H81.4563L78.7802 92.608L81.4222 89.4545H80.1268L77.7745 92.3011H77.1097V89.4545H76.104V96ZM84.4755 96.1534C85.6175 96.1534 86.2141 95.5398 86.4187 95.1136H86.4698V96H87.4755V91.6875C87.4755 89.608 85.8903 89.3693 85.055 89.3693C84.0664 89.3693 82.9414 89.7102 82.43 90.9034L83.3846 91.2443C83.6062 90.767 84.1303 90.2557 85.0891 90.2557C86.0138 90.2557 86.4698 90.7457 86.4698 91.5852V91.6193C86.4698 92.1051 85.9755 92.0625 84.7823 92.2159C83.5678 92.3736 82.2425 92.642 82.2425 94.142C82.2425 95.4205 83.2312 96.1534 84.4755 96.1534ZM84.6289 95.25C83.8278 95.25 83.2482 94.892 83.2482 94.1932C83.2482 93.4261 83.9471 93.1875 84.7312 93.0852C85.1573 93.0341 86.2994 92.9148 86.4698 92.7102V93.6307C86.4698 94.4489 85.8221 95.25 84.6289 95.25ZM93.6918 94.517V89.4545H92.6861V96H93.8622L96.9986 90.9375V96H98.0043V89.4545H96.8452L93.6918 94.517ZM102.846 90.392H105.011V96H106.017V90.392H108.164V89.4545H102.846V90.392ZM112.036 96.1364C113.365 96.1364 114.337 95.4716 114.644 94.483L113.672 94.2102C113.417 94.892 112.824 95.233 112.036 95.233C110.855 95.233 110.042 94.4702 109.995 93.0682H114.746V92.642C114.746 90.2045 113.297 89.3693 111.934 89.3693C110.161 89.3693 108.985 90.767 108.985 92.7784C108.985 94.7898 110.144 96.1364 112.036 96.1364ZM109.995 92.1989C110.063 91.1804 110.783 90.2727 111.934 90.2727C113.025 90.2727 113.723 91.0909 113.723 92.1989H109.995ZM116.85 89.4545H115.691L117.771 92.7273L115.691 96H116.85L118.418 93.4602L119.987 96H121.146L119.032 92.7273L121.146 89.4545H119.987L118.418 92.1307L116.85 89.4545ZM123.586 89.4545H122.581V96H123.586V93.2045H126.723V96H127.728V89.4545H126.723V92.267H123.586V89.4545ZM132.224 96.1364C133.997 96.1364 135.19 94.7898 135.19 92.7614C135.19 90.7159 133.997 89.3693 132.224 89.3693C130.451 89.3693 129.258 90.7159 129.258 92.7614C129.258 94.7898 130.451 96.1364 132.224 96.1364ZM132.224 95.233C130.877 95.233 130.264 94.0739 130.264 92.7614C130.264 91.4489 130.877 90.2727 132.224 90.2727C133.571 90.2727 134.184 91.4489 134.184 92.7614C134.184 94.0739 133.571 95.233 132.224 95.233ZM136.146 96H136.487C137.935 96 138.353 94.875 138.447 92.7273L138.549 90.392H140.952V96H141.958V89.4545H137.594L137.475 92.3523C137.39 94.5511 137.168 95.0625 136.384 95.0625H136.146V96ZM146.462 96.1364C148.235 96.1364 149.428 94.7898 149.428 92.7614C149.428 90.7159 148.235 89.3693 146.462 89.3693C144.69 89.3693 143.496 90.7159 143.496 92.7614C143.496 94.7898 144.69 96.1364 146.462 96.1364ZM146.462 95.233C145.116 95.233 144.502 94.0739 144.502 92.7614C144.502 91.4489 145.116 90.2727 146.462 90.2727C147.809 90.2727 148.423 91.4489 148.423 92.7614C148.423 94.0739 147.809 95.233 146.462 95.233ZM155.003 89.4545H150.963V96H151.969V90.392H155.003V89.4545ZM157.477 94.517V89.4545H156.471V96H157.647L160.784 90.9375V96H161.789V89.4545H160.63L157.477 94.517ZM167.569 96H168.523V89.4545H165.83C164.42 89.4545 163.563 90.1918 163.563 91.3977C163.563 92.2969 164.015 92.9361 164.803 93.2045L163.205 96H164.296L165.813 93.3409H167.569V96ZM167.569 92.4034H165.711C164.999 92.4034 164.569 92.0241 164.569 91.3977C164.569 90.7628 165.046 90.375 165.83 90.375H167.569V92.4034Z" fill="#1C1C1C"/>
<rect x="377" y="95" width="31" height="25" rx="6" fill="#EC5147"/>
<path d="M388.07 112.119C389.885 112.119 391.168 111.088 391.176 109.673C391.168 108.574 390.396 107.649 389.42 107.474V107.423C390.268 107.219 390.844 106.422 390.852 105.48C390.844 104.146 389.668 103.153 388.07 103.153C386.455 103.153 385.278 104.146 385.287 105.48C385.278 106.418 385.854 107.219 386.719 107.423V107.474C385.726 107.649 384.955 108.574 384.963 109.673C384.955 111.088 386.237 112.119 388.07 112.119ZM388.07 111.041C386.979 111.041 386.288 110.462 386.297 109.588C386.288 108.68 387.038 108.033 388.07 108.033C389.084 108.033 389.834 108.68 389.842 109.588C389.834 110.462 389.148 111.041 388.07 111.041ZM388.07 106.98C387.188 106.98 386.561 106.422 386.57 105.591C386.561 104.773 387.166 104.232 388.07 104.232C388.956 104.232 389.561 104.773 389.57 105.591C389.561 106.422 388.939 106.98 388.07 106.98ZM393.29 112.081C393.754 112.081 394.142 111.702 394.142 111.229C394.142 110.764 393.754 110.381 393.29 110.381C392.821 110.381 392.438 110.764 392.438 111.229C392.438 111.702 392.821 112.081 393.29 112.081ZM395.903 112H397.279L401.076 104.44V103.273H395.306V104.402H399.713V104.466L395.903 112Z" fill="white"/>
<rect x="41" y="196" width="330" height="8" rx="4" fill="#D6D6D6"/>
<rect x="41" y="196" width="161.333" height="8" rx="4" fill="#FFA945"/>
<path d="M42.0568 179.273V188H43.0455V181.369H43.1307L45.858 188H46.8125L49.5398 181.369H49.625V188H50.6136V179.273H49.3523L46.3864 186.517H46.2841L43.3182 179.273H42.0568ZM53.244 190.455C54.1516 190.455 54.7908 189.973 55.1701 188.955L57.957 181.472L56.8576 181.455L55.0508 186.67H54.9826L53.1758 181.455H52.0849L54.5053 188.034L54.3178 188.545C53.9513 189.543 53.4996 189.636 52.7667 189.449L52.511 190.335C52.6133 190.386 52.9031 190.455 53.244 190.455ZM58.8786 186.33C58.9126 187.403 59.9396 188.136 61.3331 188.136C62.7649 188.136 63.8047 187.369 63.8047 186.176C63.8047 185.358 63.3146 184.693 62.5774 184.642V184.574C63.1996 184.382 63.6683 183.93 63.6683 183.193C63.6683 182.158 62.782 181.369 61.4013 181.369C60.0376 181.369 59.0661 182.119 59.032 183.176H60.0888C60.1186 182.635 60.6854 182.256 61.4524 182.256C62.2152 182.256 62.6456 182.643 62.6456 183.227C62.6456 183.773 62.2706 184.182 61.4695 184.182H60.3445V185.085H61.4695C62.2706 185.085 62.782 185.524 62.782 186.176C62.782 186.922 62.1214 187.233 61.3161 187.233C60.5277 187.233 59.9993 186.922 59.9524 186.33H58.8786ZM66.223 183.824V181.455H65.2173V188H67.9616C69.4957 188 70.331 187.062 70.331 185.886C70.331 184.693 69.4957 183.824 67.9616 183.824H66.223ZM71.3707 188H72.3764V181.455H71.3707V188ZM66.223 184.761H67.9616C68.7585 184.761 69.3253 185.247 69.3253 185.938C69.3253 186.598 68.7585 187.062 67.9616 187.062H66.223V184.761ZM74.2173 188H75.223V185.239H76.1264L78.2741 188H79.5696L76.8935 184.608L79.5355 181.455H78.2401L75.8878 184.301H75.223V181.455H74.2173V188ZM82.5888 188.153C83.7308 188.153 84.3274 187.54 84.532 187.114H84.5831V188H85.5888V183.688C85.5888 181.608 84.0036 181.369 83.1683 181.369C82.1797 181.369 81.0547 181.71 80.5433 182.903L81.4979 183.244C81.7195 182.767 82.2436 182.256 83.2024 182.256C84.1271 182.256 84.5831 182.746 84.5831 183.585V183.619C84.5831 184.105 84.0888 184.062 82.8956 184.216C81.6811 184.374 80.3558 184.642 80.3558 186.142C80.3558 187.42 81.3445 188.153 82.5888 188.153ZM82.7422 187.25C81.9411 187.25 81.3615 186.892 81.3615 186.193C81.3615 185.426 82.0604 185.188 82.8445 185.085C83.2706 185.034 84.4126 184.915 84.5831 184.71V185.631C84.5831 186.449 83.9354 187.25 82.7422 187.25ZM91.805 186.517V181.455H90.7994V188H91.9755L95.1119 182.938V188H96.1175V181.455H94.9585L91.805 186.517ZM102.34 186.517V181.455H101.335V188H102.511L105.647 182.938V188H106.653V181.455H105.494L102.34 186.517ZM111.154 188.136C112.603 188.136 113.557 187.25 113.728 186.091H112.722C112.534 186.807 111.938 187.233 111.154 187.233C109.961 187.233 109.194 186.244 109.194 184.727C109.194 183.244 109.978 182.273 111.154 182.273C112.04 182.273 112.569 182.818 112.722 183.415H113.728C113.557 182.188 112.517 181.369 111.137 181.369C109.364 181.369 108.188 182.767 108.188 184.761C108.188 186.722 109.313 188.136 111.154 188.136ZM115.198 188H116.203V185.239H117.107L119.255 188H120.55L117.874 184.608L120.516 181.455H119.221L116.868 184.301H116.203V181.455H115.198V188ZM122.291 190.455C123.199 190.455 123.838 189.973 124.217 188.955L127.004 181.472L125.904 181.455L124.098 186.67H124.029L122.223 181.455H121.132L123.552 188.034L123.365 188.545C122.998 189.543 122.547 189.636 121.814 189.449L121.558 190.335C121.66 190.386 121.95 190.455 122.291 190.455ZM130.759 188.136C132.208 188.136 133.163 187.25 133.333 186.091H132.327C132.14 186.807 131.543 187.233 130.759 187.233C129.566 187.233 128.799 186.244 128.799 184.727C128.799 183.244 129.583 182.273 130.759 182.273C131.646 182.273 132.174 182.818 132.327 183.415H133.333C133.163 182.188 132.123 181.369 130.742 181.369C128.969 181.369 127.793 182.767 127.793 184.761C127.793 186.722 128.918 188.136 130.759 188.136ZM137.462 188.136C138.911 188.136 139.866 187.25 140.036 186.091H139.031C138.843 186.807 138.246 187.233 137.462 187.233C136.269 187.233 135.502 186.244 135.502 184.727C135.502 183.244 136.286 182.273 137.462 182.273C138.349 182.273 138.877 182.818 139.031 183.415H140.036C139.866 182.188 138.826 181.369 137.445 181.369C135.673 181.369 134.496 182.767 134.496 184.761C134.496 186.722 135.621 188.136 137.462 188.136ZM140.991 182.392H143.156V188H144.161V182.392H146.309V181.455H140.991V182.392ZM147.776 188H150.861C152.191 188 152.992 187.25 152.992 186.244C152.992 185.217 152.212 184.663 151.492 184.557C152.229 184.403 152.753 183.99 152.753 183.193C152.753 182.149 151.858 181.455 150.452 181.455H147.776V188ZM148.73 187.08V185.068H150.861C151.551 185.068 151.969 185.482 151.969 186.159C151.969 186.73 151.551 187.08 150.861 187.08H148.73ZM148.73 184.199V182.375H150.452C151.257 182.375 151.748 182.712 151.748 183.261C151.748 183.845 151.257 184.199 150.452 184.199H148.73ZM157.173 188.136C158.946 188.136 160.139 186.79 160.139 184.761C160.139 182.716 158.946 181.369 157.173 181.369C155.401 181.369 154.207 182.716 154.207 184.761C154.207 186.79 155.401 188.136 157.173 188.136ZM157.173 187.233C155.827 187.233 155.213 186.074 155.213 184.761C155.213 183.449 155.827 182.273 157.173 182.273C158.52 182.273 159.134 183.449 159.134 184.761C159.134 186.074 158.52 187.233 157.173 187.233Z" fill="#1C1C1C"/>
<rect x="377" y="187" width="31" height="25" rx="6" fill="#EC5147"/>
<path d="M388.07 204.119C389.885 204.119 391.168 203.088 391.176 201.673C391.168 200.574 390.396 199.649 389.42 199.474V199.423C390.268 199.219 390.844 198.422 390.852 197.48C390.844 196.146 389.668 195.153 388.07 195.153C386.455 195.153 385.278 196.146 385.287 197.48C385.278 198.418 385.854 199.219 386.719 199.423V199.474C385.726 199.649 384.955 200.574 384.963 201.673C384.955 203.088 386.237 204.119 388.07 204.119ZM388.07 203.041C386.979 203.041 386.288 202.462 386.297 201.588C386.288 200.68 387.038 200.033 388.07 200.033C389.084 200.033 389.834 200.68 389.842 201.588C389.834 202.462 389.148 203.041 388.07 203.041ZM388.07 198.98C387.188 198.98 386.561 198.422 386.57 197.591C386.561 196.773 387.166 196.232 388.07 196.232C388.956 196.232 389.561 196.773 389.57 197.591C389.561 198.422 388.939 198.98 388.07 198.98ZM393.29 204.081C393.754 204.081 394.142 203.702 394.142 203.229C394.142 202.764 393.754 202.381 393.29 202.381C392.821 202.381 392.438 202.764 392.438 203.229C392.438 203.702 392.821 204.081 393.29 204.081ZM395.903 204H397.279L401.076 196.44V195.273H395.306V196.402H399.713V196.466L395.903 204Z" fill="white"/>
<rect x="41" y="288" width="330" height="8" rx="4" fill="#D6D6D6"/>
<rect x="41" y="288" width="305.25" height="8" rx="4" fill="#FFA945"/>
<path d="M42.517 280.119H43.0795C44.4091 280.119 44.8011 279.403 45.1591 278.585L48.1761 271.273H47.0511L44.8523 276.693L42.4489 271.273H41.3068L44.3239 277.955L44.1875 278.278C44 278.705 43.6932 279.131 43.0625 279.131H42.517V280.119ZM52.5078 278.636L50.2578 273.455H48.9283V280H49.9339V274.899L52.0987 280H52.9169L55.0817 274.993V280H56.0874V273.455H54.7919L52.5078 278.636ZM60.6726 280.136C62.0021 280.136 62.9737 279.472 63.2805 278.483L62.3089 278.21C62.0533 278.892 61.4609 279.233 60.6726 279.233C59.4922 279.233 58.6783 278.47 58.6314 277.068H63.3828V276.642C63.3828 274.205 61.9339 273.369 60.5703 273.369C58.7976 273.369 57.6214 274.767 57.6214 276.778C57.6214 278.79 58.7805 280.136 60.6726 280.136ZM58.6314 276.199C58.6996 275.18 59.4197 274.273 60.5703 274.273C61.6612 274.273 62.3601 275.091 62.3601 276.199H58.6314ZM65.9183 273.455H64.9126V280H65.9183V277.205H69.0547V280H70.0604V273.455H69.0547V276.267H65.9183V273.455ZM72.9027 278.517V273.455H71.897V280H73.0732L76.2095 274.938V280H77.2152V273.455H76.0561L72.9027 278.517ZM81.8015 280.136C83.131 280.136 84.1026 279.472 84.4094 278.483L83.4379 278.21C83.1822 278.892 82.5898 279.233 81.8015 279.233C80.6211 279.233 79.8072 278.47 79.7603 277.068H84.5117V276.642C84.5117 274.205 83.0629 273.369 81.6992 273.369C79.9265 273.369 78.7504 274.767 78.7504 276.778C78.7504 278.79 79.9094 280.136 81.8015 280.136ZM79.7603 276.199C79.8285 275.18 80.5487 274.273 81.6992 274.273C82.7901 274.273 83.489 275.091 83.489 276.199H79.7603ZM89.4165 282.455H90.4222V278.994H90.5075C90.729 279.352 91.1552 280.136 92.4165 280.136C94.0529 280.136 95.195 278.824 95.195 276.744C95.195 274.682 94.0529 273.369 92.3995 273.369C91.1211 273.369 90.729 274.153 90.5075 274.494H90.3881V273.455H89.4165V282.455ZM90.4052 276.727C90.4052 275.261 91.0529 274.273 92.2802 274.273C93.5586 274.273 94.1893 275.347 94.1893 276.727C94.1893 278.125 93.5415 279.233 92.2802 279.233C91.07 279.233 90.4052 278.21 90.4052 276.727ZM97.7347 278.517V273.455H96.729V280H97.9052L101.042 274.938V280H102.047V273.455H100.888L97.7347 278.517ZM106.548 280.136C107.997 280.136 108.952 279.25 109.122 278.091H108.116C107.929 278.807 107.332 279.233 106.548 279.233C105.355 279.233 104.588 278.244 104.588 276.727C104.588 275.244 105.372 274.273 106.548 274.273C107.435 274.273 107.963 274.818 108.116 275.415H109.122C108.952 274.188 107.912 273.369 106.531 273.369C104.759 273.369 103.582 274.767 103.582 276.761C103.582 278.722 104.707 280.136 106.548 280.136ZM113.251 280.136C115.024 280.136 116.217 278.79 116.217 276.761C116.217 274.716 115.024 273.369 113.251 273.369C111.479 273.369 110.286 274.716 110.286 276.761C110.286 278.79 111.479 280.136 113.251 280.136ZM113.251 279.233C111.905 279.233 111.291 278.074 111.291 276.761C111.291 275.449 111.905 274.273 113.251 274.273C114.598 274.273 115.212 275.449 115.212 276.761C115.212 278.074 114.598 279.233 113.251 279.233ZM117.752 280H120.838C122.167 280 122.968 279.25 122.968 278.244C122.968 277.217 122.189 276.663 121.468 276.557C122.206 276.403 122.73 275.99 122.73 275.193C122.73 274.149 121.835 273.455 120.429 273.455H117.752V280ZM118.707 279.08V277.068H120.838C121.528 277.068 121.946 277.482 121.946 278.159C121.946 278.73 121.528 279.08 120.838 279.08H118.707ZM118.707 276.199V274.375H120.429C121.234 274.375 121.724 274.712 121.724 275.261C121.724 275.845 121.234 276.199 120.429 276.199H118.707ZM126.417 280.153C127.559 280.153 128.156 279.54 128.36 279.114H128.411V280H129.417V275.688C129.417 273.608 127.832 273.369 126.996 273.369C126.008 273.369 124.883 273.71 124.371 274.903L125.326 275.244C125.548 274.767 126.072 274.256 127.031 274.256C127.955 274.256 128.411 274.746 128.411 275.585V275.619C128.411 276.105 127.917 276.062 126.724 276.216C125.509 276.374 124.184 276.642 124.184 278.142C124.184 279.42 125.173 280.153 126.417 280.153ZM126.57 279.25C125.769 279.25 125.19 278.892 125.19 278.193C125.19 277.426 125.888 277.188 126.673 277.085C127.099 277.034 128.241 276.915 128.411 276.71V277.631C128.411 278.449 127.763 279.25 126.57 279.25ZM130.362 274.392H132.527V280H133.532V274.392H135.68V273.455H130.362V274.392ZM138.153 275.824V273.455H137.147V280H139.891C141.425 280 142.261 279.062 142.261 277.886C142.261 276.693 141.425 275.824 139.891 275.824H138.153ZM138.153 276.761H139.891C140.688 276.761 141.255 277.247 141.255 277.938C141.255 278.598 140.688 279.062 139.891 279.062H138.153V276.761Z" fill="#1C1C1C"/>
<rect x="377" y="279" width="31" height="25" rx="6" fill="#EC5147"/>
<path d="M388.07 296.119C389.885 296.119 391.168 295.088 391.176 293.673C391.168 292.574 390.396 291.649 389.42 291.474V291.423C390.268 291.219 390.844 290.422 390.852 289.48C390.844 288.146 389.668 287.153 388.07 287.153C386.455 287.153 385.278 288.146 385.287 289.48C385.278 290.418 385.854 291.219 386.719 291.423V291.474C385.726 291.649 384.955 292.574 384.963 293.673C384.955 295.088 386.237 296.119 388.07 296.119ZM388.07 295.041C386.979 295.041 386.288 294.462 386.297 293.588C386.288 292.68 387.038 292.033 388.07 292.033C389.084 292.033 389.834 292.68 389.842 293.588C389.834 294.462 389.148 295.041 388.07 295.041ZM388.07 290.98C387.188 290.98 386.561 290.422 386.57 289.591C386.561 288.773 387.166 288.232 388.07 288.232C388.956 288.232 389.561 288.773 389.57 289.591C389.561 290.422 388.939 290.98 388.07 290.98ZM393.29 296.081C393.754 296.081 394.142 295.702 394.142 295.229C394.142 294.764 393.754 294.381 393.29 294.381C392.821 294.381 392.438 294.764 392.438 295.229C392.438 295.702 392.821 296.081 393.29 296.081ZM395.903 296H397.279L401.076 288.44V287.273H395.306V288.402H399.713V288.466L395.903 296Z" fill="white"/>
<rect x="41" y="150" width="330" height="8" rx="4" fill="#D6D6D6"/>
<rect x="41" y="150" width="224.583" height="8" rx="4" fill="#FFA945"/>
<path d="M42.517 142.119H43.0795C44.4091 142.119 44.8011 141.403 45.1591 140.585L48.1761 133.273H47.0511L44.8523 138.693L42.4489 133.273H41.3068L44.3239 139.955L44.1875 140.278C44 140.705 43.6932 141.131 43.0625 141.131H42.517V142.119ZM52.5078 140.636L50.2578 135.455H48.9283V142H49.9339V136.899L52.0987 142H52.9169L55.0817 136.993V142H56.0874V135.455H54.7919L52.5078 140.636ZM60.6726 142.136C62.0021 142.136 62.9737 141.472 63.2805 140.483L62.3089 140.21C62.0533 140.892 61.4609 141.233 60.6726 141.233C59.4922 141.233 58.6783 140.47 58.6314 139.068H63.3828V138.642C63.3828 136.205 61.9339 135.369 60.5703 135.369C58.7976 135.369 57.6214 136.767 57.6214 138.778C57.6214 140.79 58.7805 142.136 60.6726 142.136ZM58.6314 138.199C58.6996 137.18 59.4197 136.273 60.5703 136.273C61.6612 136.273 62.3601 137.091 62.3601 138.199H58.6314ZM65.9183 135.455H64.9126V142H65.9183V139.205H69.0547V142H70.0604V135.455H69.0547V138.267H65.9183V135.455ZM72.9027 140.517V135.455H71.897V142H73.0732L76.2095 136.938V142H77.2152V135.455H76.0561L72.9027 140.517ZM81.8015 142.136C83.131 142.136 84.1026 141.472 84.4094 140.483L83.4379 140.21C83.1822 140.892 82.5898 141.233 81.8015 141.233C80.6211 141.233 79.8072 140.47 79.7603 139.068H84.5117V138.642C84.5117 136.205 83.0629 135.369 81.6992 135.369C79.9265 135.369 78.7504 136.767 78.7504 138.778C78.7504 140.79 79.9094 142.136 81.8015 142.136ZM79.7603 138.199C79.8285 137.18 80.5487 136.273 81.6992 136.273C82.7901 136.273 83.489 137.091 83.489 138.199H79.7603ZM89.4165 144.455H90.4222V140.994H90.5075C90.729 141.352 91.1552 142.136 92.4165 142.136C94.0529 142.136 95.195 140.824 95.195 138.744C95.195 136.682 94.0529 135.369 92.3995 135.369C91.1211 135.369 90.729 136.153 90.5075 136.494H90.3881V135.455H89.4165V144.455ZM90.4052 138.727C90.4052 137.261 91.0529 136.273 92.2802 136.273C93.5586 136.273 94.1893 137.347 94.1893 138.727C94.1893 140.125 93.5415 141.233 92.2802 141.233C91.07 141.233 90.4052 140.21 90.4052 138.727ZM97.7347 140.517V135.455H96.729V142H97.9052L101.042 136.938V142H102.047V135.455H100.888L97.7347 140.517ZM106.548 142.136C107.997 142.136 108.952 141.25 109.122 140.091H108.116C107.929 140.807 107.332 141.233 106.548 141.233C105.355 141.233 104.588 140.244 104.588 138.727C104.588 137.244 105.372 136.273 106.548 136.273C107.435 136.273 107.963 136.818 108.116 137.415H109.122C108.952 136.188 107.912 135.369 106.531 135.369C104.759 135.369 103.582 136.767 103.582 138.761C103.582 140.722 104.707 142.136 106.548 142.136ZM113.251 142.136C115.024 142.136 116.217 140.79 116.217 138.761C116.217 136.716 115.024 135.369 113.251 135.369C111.479 135.369 110.286 136.716 110.286 138.761C110.286 140.79 111.479 142.136 113.251 142.136ZM113.251 141.233C111.905 141.233 111.291 140.074 111.291 138.761C111.291 137.449 111.905 136.273 113.251 136.273C114.598 136.273 115.212 137.449 115.212 138.761C115.212 140.074 114.598 141.233 113.251 141.233ZM117.752 142H120.838C122.167 142 122.968 141.25 122.968 140.244C122.968 139.217 122.189 138.663 121.468 138.557C122.206 138.403 122.73 137.99 122.73 137.193C122.73 136.149 121.835 135.455 120.429 135.455H117.752V142ZM118.707 141.08V139.068H120.838C121.528 139.068 121.946 139.482 121.946 140.159C121.946 140.73 121.528 141.08 120.838 141.08H118.707ZM118.707 138.199V136.375H120.429C121.234 136.375 121.724 136.712 121.724 137.261C121.724 137.845 121.234 138.199 120.429 138.199H118.707ZM126.417 142.153C127.559 142.153 128.156 141.54 128.36 141.114H128.411V142H129.417V137.688C129.417 135.608 127.832 135.369 126.996 135.369C126.008 135.369 124.883 135.71 124.371 136.903L125.326 137.244C125.548 136.767 126.072 136.256 127.031 136.256C127.955 136.256 128.411 136.746 128.411 137.585V137.619C128.411 138.105 127.917 138.062 126.724 138.216C125.509 138.374 124.184 138.642 124.184 140.142C124.184 141.42 125.173 142.153 126.417 142.153ZM126.57 141.25C125.769 141.25 125.19 140.892 125.19 140.193C125.19 139.426 125.888 139.188 126.673 139.085C127.099 139.034 128.241 138.915 128.411 138.71V139.631C128.411 140.449 127.763 141.25 126.57 141.25ZM130.362 136.392H132.527V142H133.532V136.392H135.68V135.455H130.362V136.392ZM138.153 137.824V135.455H137.147V142H139.891C141.425 142 142.261 141.062 142.261 139.886C142.261 138.693 141.425 137.824 139.891 137.824H138.153ZM138.153 138.761H139.891C140.688 138.761 141.255 139.247 141.255 139.938C141.255 140.598 140.688 141.062 139.891 141.062H138.153V138.761Z" fill="#1C1C1C"/>
<rect x="377" y="141" width="31" height="25" rx="6" fill="#EC5147"/>
<path d="M388.07 158.119C389.885 158.119 391.168 157.088 391.176 155.673C391.168 154.574 390.396 153.649 389.42 153.474V153.423C390.268 153.219 390.844 152.422 390.852 151.48C390.844 150.146 389.668 149.153 388.07 149.153C386.455 149.153 385.278 150.146 385.287 151.48C385.278 152.418 385.854 153.219 386.719 153.423V153.474C385.726 153.649 384.955 154.574 384.963 155.673C384.955 157.088 386.237 158.119 388.07 158.119ZM388.07 157.041C386.979 157.041 386.288 156.462 386.297 155.588C386.288 154.68 387.038 154.033 388.07 154.033C389.084 154.033 389.834 154.68 389.842 155.588C389.834 156.462 389.148 157.041 388.07 157.041ZM388.07 152.98C387.188 152.98 386.561 152.422 386.57 151.591C386.561 150.773 387.166 150.232 388.07 150.232C388.956 150.232 389.561 150.773 389.57 151.591C389.561 152.422 388.939 152.98 388.07 152.98ZM393.29 158.081C393.754 158.081 394.142 157.702 394.142 157.229C394.142 156.764 393.754 156.381 393.29 156.381C392.821 156.381 392.438 156.764 392.438 157.229C392.438 157.702 392.821 158.081 393.29 158.081ZM395.903 158H397.279L401.076 150.44V149.273H395.306V150.402H399.713V150.466L395.903 158Z" fill="white"/>
<rect x="41" y="242" width="330" height="8" rx="4" fill="#D6D6D6"/>
<rect x="41" y="242" width="187.917" height="8" rx="4" fill="#FFA945"/>
<path d="M49.4205 229.636C49.4205 226.875 47.8011 225.153 45.5682 225.153C43.3352 225.153 41.7159 226.875 41.7159 229.636C41.7159 232.398 43.3352 234.119 45.5682 234.119C47.8011 234.119 49.4205 232.398 49.4205 229.636ZM48.3977 229.636C48.3977 231.903 47.1534 233.131 45.5682 233.131C43.983 233.131 42.7386 231.903 42.7386 229.636C42.7386 227.369 43.983 226.142 45.5682 226.142C47.1534 226.142 48.3977 227.369 48.3977 229.636ZM55.919 225C55.5994 225.268 55.1222 225.268 54.4531 225.264C54.2358 225.264 53.9972 225.264 53.7372 225.273C51.7429 225.324 50.7543 226.841 50.7543 229.756V230.455C50.7543 232.875 51.9304 234.136 53.6861 234.136C55.4375 234.136 56.6009 232.866 56.6009 230.812C56.6009 228.75 55.4205 227.659 53.8906 227.659C52.9915 227.659 52.152 228.034 51.7088 228.852H51.6236C51.7599 227.165 52.3906 226.261 53.7543 226.21C54.9645 226.159 55.8338 226.193 56.4304 225.614L55.919 225ZM53.6861 233.233C52.4929 233.233 51.7599 232.278 51.7599 230.812C51.7812 229.381 52.5014 228.562 53.669 228.562C54.8665 228.562 55.5952 229.381 55.5952 230.812C55.5952 232.287 54.8707 233.233 53.6861 233.233ZM67.071 233.062H66.0994V227.455H65.0938V233.062H62.6222V227.455H61.6165V233.062H59.1449V227.455H58.1392V234H65.9119V235.875H66.9517L67.071 233.062ZM71.2077 234.136C72.5373 234.136 73.5089 233.472 73.8157 232.483L72.8441 232.21C72.5884 232.892 71.9961 233.233 71.2077 233.233C70.0273 233.233 69.2134 232.47 69.1665 231.068H73.918V230.642C73.918 228.205 72.4691 227.369 71.1055 227.369C69.3327 227.369 68.1566 228.767 68.1566 230.778C68.1566 232.79 69.3157 234.136 71.2077 234.136ZM69.1665 230.199C69.2347 229.18 69.9549 228.273 71.1055 228.273C72.1964 228.273 72.8952 229.091 72.8952 230.199H69.1665ZM76.4535 227.455H75.4478V234H76.4535V231.205H79.5898V234H80.5955V227.455H79.5898V230.267H76.4535V227.455ZM83.4379 232.517V227.455H82.4322V234H83.6083L86.7447 228.938V234H87.7504V227.455H86.5913L83.4379 232.517ZM92.3366 234.136C93.6662 234.136 94.6378 233.472 94.9446 232.483L93.973 232.21C93.7173 232.892 93.125 233.233 92.3366 233.233C91.1562 233.233 90.3423 232.47 90.2955 231.068H95.0469V230.642C95.0469 228.205 93.598 227.369 92.2344 227.369C90.4616 227.369 89.2855 228.767 89.2855 230.778C89.2855 232.79 90.4446 234.136 92.3366 234.136ZM90.2955 230.199C90.3636 229.18 91.0838 228.273 92.2344 228.273C93.3253 228.273 94.0241 229.091 94.0241 230.199H90.2955ZM102.611 234.136C104.06 234.136 105.014 233.25 105.185 232.091H104.179C103.991 232.807 103.395 233.233 102.611 233.233C101.418 233.233 100.651 232.244 100.651 230.727C100.651 229.244 101.435 228.273 102.611 228.273C103.497 228.273 104.026 228.818 104.179 229.415H105.185C105.014 228.188 103.974 227.369 102.594 227.369C100.821 227.369 99.6449 228.767 99.6449 230.761C99.6449 232.722 100.77 234.136 102.611 234.136ZM109.45 234H109.791C111.24 234 111.658 232.875 111.751 230.727L111.854 228.392H114.257V234H115.263V227.455H110.899L110.78 230.352C110.695 232.551 110.473 233.062 109.689 233.062H109.45V234ZM117.636 227.455H116.631V234H117.636V231.256H119.315C119.494 233.007 120.632 234.136 122.256 234.136C124.028 234.136 125.222 232.79 125.222 230.761C125.222 228.716 124.028 227.369 122.256 227.369C120.615 227.369 119.469 228.524 119.311 230.318H117.636V227.455ZM122.256 233.233C120.909 233.233 120.295 232.074 120.295 230.761C120.295 229.449 120.909 228.273 122.256 228.273C123.602 228.273 124.216 229.449 124.216 230.761C124.216 232.074 123.602 233.233 122.256 233.233ZM126.159 235.875H127.165V234H132.006V235.875H133.011V233.062H132.006V227.455H127.847L127.625 230.045C127.467 231.878 127.233 232.509 126.705 233.062H126.159V235.875ZM127.847 233.062C128.307 232.457 128.473 231.413 128.614 230.045L128.784 228.392H131V233.062H127.847ZM135.352 229.824V227.455H134.346V234H137.091C138.625 234 139.46 233.062 139.46 231.886C139.46 230.693 138.625 229.824 137.091 229.824H135.352ZM135.352 230.761H137.091C137.887 230.761 138.454 231.247 138.454 231.938C138.454 232.598 137.887 233.062 137.091 233.062H135.352V230.761ZM144.57 232.636L142.32 227.455H140.991V234H141.996V228.899L144.161 234H144.979L147.144 228.993V234H148.15V227.455H146.854L144.57 232.636ZM150.996 232.517V227.455H149.991V234H151.167L154.303 228.938V234H155.309V227.455H154.15L150.996 232.517Z" fill="#1C1C1C"/>
<rect x="377" y="233" width="31" height="25" rx="6" fill="#EC5147"/>
<path d="M388.07 250.119C389.885 250.119 391.168 249.088 391.176 247.673C391.168 246.574 390.396 245.649 389.42 245.474V245.423C390.268 245.219 390.844 244.422 390.852 243.48C390.844 242.146 389.668 241.153 388.07 241.153C386.455 241.153 385.278 242.146 385.287 243.48C385.278 244.418 385.854 245.219 386.719 245.423V245.474C385.726 245.649 384.955 246.574 384.963 247.673C384.955 249.088 386.237 250.119 388.07 250.119ZM388.07 249.041C386.979 249.041 386.288 248.462 386.297 247.588C386.288 246.68 387.038 246.033 388.07 246.033C389.084 246.033 389.834 246.68 389.842 247.588C389.834 248.462 389.148 249.041 388.07 249.041ZM388.07 244.98C387.188 244.98 386.561 244.422 386.57 243.591C386.561 242.773 387.166 242.232 388.07 242.232C388.956 242.232 389.561 242.773 389.57 243.591C389.561 244.422 388.939 244.98 388.07 244.98ZM393.29 250.081C393.754 250.081 394.142 249.702 394.142 249.229C394.142 248.764 393.754 248.381 393.29 248.381C392.821 248.381 392.438 248.764 392.438 249.229C392.438 249.702 392.821 250.081 393.29 250.081ZM395.903 250H397.279L401.076 242.44V241.273H395.306V242.402H399.713V242.466L395.903 250Z" fill="white"/>
<rect x="41" y="334" width="330" height="8" rx="4" fill="#D6D6D6"/>
<rect x="41" y="334" width="89.8333" height="8" rx="4" fill="#FFA945"/>
<path d="M49.4205 321.636C49.4205 318.875 47.8011 317.153 45.5682 317.153C43.3352 317.153 41.7159 318.875 41.7159 321.636C41.7159 324.398 43.3352 326.119 45.5682 326.119C47.8011 326.119 49.4205 324.398 49.4205 321.636ZM48.3977 321.636C48.3977 323.903 47.1534 325.131 45.5682 325.131C43.983 325.131 42.7386 323.903 42.7386 321.636C42.7386 319.369 43.983 318.142 45.5682 318.142C47.1534 318.142 48.3977 319.369 48.3977 321.636ZM55.919 317C55.5994 317.268 55.1222 317.268 54.4531 317.264C54.2358 317.264 53.9972 317.264 53.7372 317.273C51.7429 317.324 50.7543 318.841 50.7543 321.756V322.455C50.7543 324.875 51.9304 326.136 53.6861 326.136C55.4375 326.136 56.6009 324.866 56.6009 322.812C56.6009 320.75 55.4205 319.659 53.8906 319.659C52.9915 319.659 52.152 320.034 51.7088 320.852H51.6236C51.7599 319.165 52.3906 318.261 53.7543 318.21C54.9645 318.159 55.8338 318.193 56.4304 317.614L55.919 317ZM53.6861 325.233C52.4929 325.233 51.7599 324.278 51.7599 322.812C51.7812 321.381 52.5014 320.562 53.669 320.562C54.8665 320.562 55.5952 321.381 55.5952 322.812C55.5952 324.287 54.8707 325.233 53.6861 325.233ZM67.071 325.062H66.0994V319.455H65.0938V325.062H62.6222V319.455H61.6165V325.062H59.1449V319.455H58.1392V326H65.9119V327.875H66.9517L67.071 325.062ZM71.2077 326.136C72.5373 326.136 73.5089 325.472 73.8157 324.483L72.8441 324.21C72.5884 324.892 71.9961 325.233 71.2077 325.233C70.0273 325.233 69.2134 324.47 69.1665 323.068H73.918V322.642C73.918 320.205 72.4691 319.369 71.1055 319.369C69.3327 319.369 68.1566 320.767 68.1566 322.778C68.1566 324.79 69.3157 326.136 71.2077 326.136ZM69.1665 322.199C69.2347 321.18 69.9549 320.273 71.1055 320.273C72.1964 320.273 72.8952 321.091 72.8952 322.199H69.1665ZM76.4535 319.455H75.4478V326H76.4535V323.205H79.5898V326H80.5955V319.455H79.5898V322.267H76.4535V319.455ZM83.4379 324.517V319.455H82.4322V326H83.6083L86.7447 320.938V326H87.7504V319.455H86.5913L83.4379 324.517ZM92.3366 326.136C93.6662 326.136 94.6378 325.472 94.9446 324.483L93.973 324.21C93.7173 324.892 93.125 325.233 92.3366 325.233C91.1562 325.233 90.3423 324.47 90.2955 323.068H95.0469V322.642C95.0469 320.205 93.598 319.369 92.2344 319.369C90.4616 319.369 89.2855 320.767 89.2855 322.778C89.2855 324.79 90.4446 326.136 92.3366 326.136ZM90.2955 322.199C90.3636 321.18 91.0838 320.273 92.2344 320.273C93.3253 320.273 94.0241 321.091 94.0241 322.199H90.2955ZM102.611 326.136C104.06 326.136 105.014 325.25 105.185 324.091H104.179C103.991 324.807 103.395 325.233 102.611 325.233C101.418 325.233 100.651 324.244 100.651 322.727C100.651 321.244 101.435 320.273 102.611 320.273C103.497 320.273 104.026 320.818 104.179 321.415H105.185C105.014 320.188 103.974 319.369 102.594 319.369C100.821 319.369 99.6449 320.767 99.6449 322.761C99.6449 324.722 100.77 326.136 102.611 326.136ZM109.45 326H109.791C111.24 326 111.658 324.875 111.751 322.727L111.854 320.392H114.257V326H115.263V319.455H110.899L110.78 322.352C110.695 324.551 110.473 325.062 109.689 325.062H109.45V326ZM117.636 319.455H116.631V326H117.636V323.256H119.315C119.494 325.007 120.632 326.136 122.256 326.136C124.028 326.136 125.222 324.79 125.222 322.761C125.222 320.716 124.028 319.369 122.256 319.369C120.615 319.369 119.469 320.524 119.311 322.318H117.636V319.455ZM122.256 325.233C120.909 325.233 120.295 324.074 120.295 322.761C120.295 321.449 120.909 320.273 122.256 320.273C123.602 320.273 124.216 321.449 124.216 322.761C124.216 324.074 123.602 325.233 122.256 325.233ZM126.159 327.875H127.165V326H132.006V327.875H133.011V325.062H132.006V319.455H127.847L127.625 322.045C127.467 323.878 127.233 324.509 126.705 325.062H126.159V327.875ZM127.847 325.062C128.307 324.457 128.473 323.413 128.614 322.045L128.784 320.392H131V325.062H127.847ZM135.352 321.824V319.455H134.346V326H137.091C138.625 326 139.46 325.062 139.46 323.886C139.46 322.693 138.625 321.824 137.091 321.824H135.352ZM135.352 322.761H137.091C137.887 322.761 138.454 323.247 138.454 323.938C138.454 324.598 137.887 325.062 137.091 325.062H135.352V322.761ZM144.57 324.636L142.32 319.455H140.991V326H141.996V320.899L144.161 326H144.979L147.144 320.993V326H148.15V319.455H146.854L144.57 324.636ZM150.996 324.517V319.455H149.991V326H151.167L154.303 320.938V326H155.309V319.455H154.15L150.996 324.517Z" fill="#1C1C1C"/>
<rect x="377" y="325" width="31" height="25" rx="6" fill="#EC5147"/>
<path d="M388.07 342.119C389.885 342.119 391.168 341.088 391.176 339.673C391.168 338.574 390.396 337.649 389.42 337.474V337.423C390.268 337.219 390.844 336.422 390.852 335.48C390.844 334.146 389.668 333.153 388.07 333.153C386.455 333.153 385.278 334.146 385.287 335.48C385.278 336.418 385.854 337.219 386.719 337.423V337.474C385.726 337.649 384.955 338.574 384.963 339.673C384.955 341.088 386.237 342.119 388.07 342.119ZM388.07 341.041C386.979 341.041 386.288 340.462 386.297 339.588C386.288 338.68 387.038 338.033 388.07 338.033C389.084 338.033 389.834 338.68 389.842 339.588C389.834 340.462 389.148 341.041 388.07 341.041ZM388.07 336.98C387.188 336.98 386.561 336.422 386.57 335.591C386.561 334.773 387.166 334.232 388.07 334.232C388.956 334.232 389.561 334.773 389.57 335.591C389.561 336.422 388.939 336.98 388.07 336.98ZM393.29 342.081C393.754 342.081 394.142 341.702 394.142 341.229C394.142 340.764 393.754 340.381 393.29 340.381C392.821 340.381 392.438 340.764 392.438 341.229C392.438 341.702 392.821 342.081 393.29 342.081ZM395.903 342H397.279L401.076 334.44V333.273H395.306V334.402H399.713V334.466L395.903 342Z" fill="white"/>
</svg>
