<svg width="450" height="383" viewBox="0 0 450 383" fill="none" xmlns="http://www.w3.org/2000/svg">
<rect width="450" height="383" rx="16" fill="#FFEDD8"/>
<path d="M94.822 42.16C93.9686 42.16 93.542 41.72 93.542 40.84V29.06C93.542 28.18 93.9686 27.74 94.822 27.74C95.6753 27.74 96.102 28.18 96.102 29.06V33.78H103.362V29.06C103.362 28.18 103.789 27.74 104.642 27.74C105.495 27.74 105.922 28.18 105.922 29.06V40.84C105.922 41.72 105.495 42.16 104.642 42.16C103.789 42.16 103.362 41.72 103.362 40.84V35.92H96.102V40.84C96.102 41.72 95.6753 42.16 94.822 42.16ZM111.931 42.2C111.224 42.2 110.591 42.0667 110.031 41.8C109.484 41.52 109.051 41.1467 108.731 40.68C108.424 40.2133 108.271 39.6867 108.271 39.1C108.271 38.38 108.457 37.8133 108.831 37.4C109.204 36.9733 109.811 36.6667 110.651 36.48C111.491 36.2933 112.617 36.2 114.031 36.2H114.731V35.78C114.731 35.1133 114.584 34.6333 114.291 34.34C113.997 34.0467 113.504 33.9 112.811 33.9C112.424 33.9 112.004 33.9467 111.551 34.04C111.111 34.1333 110.644 34.2933 110.151 34.52C109.831 34.6667 109.564 34.6867 109.351 34.58C109.137 34.46 108.991 34.28 108.911 34.04C108.844 33.7867 108.857 33.5333 108.951 33.28C109.057 33.0267 109.264 32.84 109.571 32.72C110.184 32.4667 110.771 32.2867 111.331 32.18C111.904 32.0733 112.424 32.02 112.891 32.02C114.317 32.02 115.377 32.3533 116.071 33.02C116.764 33.6733 117.111 34.6933 117.111 36.08V40.88C117.111 41.7333 116.724 42.16 115.951 42.16C115.164 42.16 114.771 41.7333 114.771 40.88V40.44C114.544 40.9867 114.184 41.42 113.691 41.74C113.197 42.0467 112.611 42.2 111.931 42.2ZM112.451 40.48C113.104 40.48 113.644 40.2533 114.071 39.8C114.511 39.3467 114.731 38.7733 114.731 38.08V37.64H114.051C112.797 37.64 111.924 37.74 111.431 37.94C110.951 38.1267 110.711 38.4733 110.711 38.98C110.711 39.42 110.864 39.78 111.171 40.06C111.477 40.34 111.904 40.48 112.451 40.48ZM120.942 42C120.115 42 119.702 41.5867 119.702 40.76V33.46C119.702 32.6333 120.115 32.22 120.942 32.22H124.982C126.248 32.22 127.155 32.4467 127.702 32.9C128.262 33.34 128.542 33.9667 128.542 34.78C128.542 35.2867 128.402 35.7267 128.122 36.1C127.842 36.4733 127.455 36.7467 126.962 36.92C127.602 37.0667 128.082 37.3467 128.402 37.76C128.722 38.1733 128.882 38.6733 128.882 39.26C128.882 40.1 128.562 40.7667 127.922 41.26C127.282 41.7533 126.355 42 125.142 42H120.942ZM122.022 36.24H124.742C125.222 36.24 125.595 36.1333 125.862 35.92C126.128 35.6933 126.262 35.38 126.262 34.98C126.262 34.58 126.128 34.28 125.862 34.08C125.595 33.8667 125.222 33.76 124.742 33.76H122.022V36.24ZM122.022 40.46H124.922C126.042 40.46 126.602 40.0133 126.602 39.12C126.602 38.2267 126.042 37.78 124.922 37.78H122.022V40.46ZM132.109 42C131.282 42 130.869 41.5867 130.869 40.76V33.32C130.869 32.48 131.289 32.06 132.129 32.06C132.955 32.06 133.369 32.48 133.369 33.32V35.46H135.949C137.242 35.46 138.215 35.7333 138.869 36.28C139.535 36.8267 139.869 37.6267 139.869 38.68C139.869 39.68 139.515 40.4867 138.809 41.1C138.115 41.7 137.162 42 135.949 42H132.109ZM142.289 42.16C141.462 42.16 141.049 41.7333 141.049 40.88V33.32C141.049 32.48 141.462 32.06 142.289 32.06C143.129 32.06 143.549 32.48 143.549 33.32V40.88C143.549 41.7333 143.129 42.16 142.289 42.16ZM133.369 40.36H135.569C136.195 40.36 136.682 40.2267 137.029 39.96C137.375 39.68 137.549 39.26 137.549 38.7C137.549 38.1533 137.375 37.7533 137.029 37.5C136.682 37.2333 136.195 37.1 135.569 37.1H133.369V40.36ZM147.456 42.16C146.616 42.16 146.196 41.7333 146.196 40.88V33.36C146.196 32.5067 146.616 32.08 147.456 32.08C148.283 32.08 148.696 32.5067 148.696 33.36V36.02H150.116L152.616 32.66C152.856 32.34 153.123 32.16 153.416 32.12C153.723 32.08 153.996 32.14 154.236 32.3C154.476 32.46 154.63 32.68 154.696 32.96C154.763 33.24 154.676 33.54 154.436 33.86L152.436 36.6C152.743 36.76 153.016 36.9867 153.256 37.28C153.51 37.56 153.763 37.92 154.016 38.36L155.196 40.46C155.396 40.8067 155.436 41.12 155.316 41.4C155.21 41.68 155.016 41.88 154.736 42C154.456 42.1333 154.163 42.16 153.856 42.08C153.55 42.0133 153.296 41.8067 153.096 41.46L151.756 39.12C151.503 38.6667 151.243 38.36 150.976 38.2C150.723 38.04 150.376 37.96 149.936 37.96H148.696V40.88C148.696 41.7333 148.283 42.16 147.456 42.16ZM158.328 42.16C157.555 42.16 157.168 41.7133 157.168 40.82V33.26C157.168 32.46 157.548 32.06 158.308 32.06C159.055 32.06 159.428 32.46 159.428 33.26V38.74L163.848 32.86C163.995 32.6733 164.175 32.4933 164.388 32.32C164.601 32.1467 164.895 32.06 165.268 32.06C166.028 32.06 166.408 32.5 166.408 33.38V40.96C166.408 41.76 166.035 42.16 165.288 42.16C164.528 42.16 164.148 41.76 164.148 40.96V35.48L159.728 41.36C159.595 41.5467 159.421 41.7267 159.208 41.9C159.008 42.0733 158.715 42.16 158.328 42.16ZM170.438 44.14C170.265 44.3533 170.078 44.4733 169.878 44.5C169.692 44.54 169.525 44.5067 169.378 44.4C169.232 44.2933 169.152 44.14 169.138 43.94C169.125 43.7533 169.212 43.5467 169.398 43.32C169.558 43.12 169.685 42.9133 169.778 42.7C169.872 42.4867 169.945 42.2867 169.998 42.1C169.585 42.06 169.252 41.9067 168.998 41.64C168.745 41.3733 168.618 41.0267 168.618 40.6C168.618 40.1733 168.752 39.8267 169.018 39.56C169.285 39.28 169.645 39.14 170.098 39.14C170.565 39.14 170.932 39.3 171.198 39.62C171.465 39.9267 171.598 40.3733 171.598 40.96C171.598 41.44 171.518 41.94 171.358 42.46C171.212 42.9933 170.905 43.5533 170.438 44.14ZM180.289 42.16C179.449 42.16 179.029 41.7333 179.029 40.88V33.36C179.029 32.5067 179.449 32.08 180.289 32.08C181.116 32.08 181.529 32.5067 181.529 33.36V36.02H182.949L185.449 32.66C185.689 32.34 185.956 32.16 186.249 32.12C186.556 32.08 186.829 32.14 187.069 32.3C187.309 32.46 187.462 32.68 187.529 32.96C187.596 33.24 187.509 33.54 187.269 33.86L185.269 36.6C185.576 36.76 185.849 36.9867 186.089 37.28C186.342 37.56 186.596 37.92 186.849 38.36L188.029 40.46C188.229 40.8067 188.269 41.12 188.149 41.4C188.042 41.68 187.849 41.88 187.569 42C187.289 42.1333 186.996 42.16 186.689 42.08C186.382 42.0133 186.129 41.8067 185.929 41.46L184.589 39.12C184.336 38.6667 184.076 38.36 183.809 38.2C183.556 38.04 183.209 37.96 182.769 37.96H181.529V40.88C181.529 41.7333 181.116 42.16 180.289 42.16ZM194.481 42.2C193.468 42.2 192.588 41.9933 191.841 41.58C191.094 41.1667 190.514 40.58 190.101 39.82C189.688 39.0467 189.481 38.14 189.481 37.1C189.481 36.06 189.688 35.16 190.101 34.4C190.514 33.64 191.094 33.0533 191.841 32.64C192.588 32.2267 193.468 32.02 194.481 32.02C195.494 32.02 196.374 32.2267 197.121 32.64C197.868 33.0533 198.448 33.64 198.861 34.4C199.274 35.16 199.481 36.06 199.481 37.1C199.481 38.14 199.274 39.0467 198.861 39.82C198.448 40.58 197.868 41.1667 197.121 41.58C196.374 41.9933 195.494 42.2 194.481 42.2ZM194.481 40.3C195.228 40.3 195.828 40.0333 196.281 39.5C196.734 38.9533 196.961 38.1533 196.961 37.1C196.961 36.0333 196.734 35.24 196.281 34.72C195.828 34.1867 195.228 33.92 194.481 33.92C193.734 33.92 193.134 34.1867 192.681 34.72C192.228 35.24 192.001 36.0333 192.001 37.1C192.001 38.1533 192.228 38.9533 192.681 39.5C193.134 40.0333 193.734 40.3 194.481 40.3ZM204.918 42.16C204.078 42.16 203.658 41.7333 203.658 40.88V34.18H201.218C200.498 34.18 200.138 33.8533 200.138 33.2C200.138 32.5467 200.498 32.22 201.218 32.22H208.598C209.318 32.22 209.678 32.5467 209.678 33.2C209.678 33.8533 209.318 34.18 208.598 34.18H206.158V40.88C206.158 41.7333 205.744 42.16 204.918 42.16ZM215.233 42.2C214.22 42.2 213.34 41.9933 212.593 41.58C211.847 41.1667 211.267 40.58 210.853 39.82C210.44 39.0467 210.233 38.14 210.233 37.1C210.233 36.06 210.44 35.16 210.853 34.4C211.267 33.64 211.847 33.0533 212.593 32.64C213.34 32.2267 214.22 32.02 215.233 32.02C216.247 32.02 217.127 32.2267 217.873 32.64C218.62 33.0533 219.2 33.64 219.613 34.4C220.027 35.16 220.233 36.06 220.233 37.1C220.233 38.14 220.027 39.0467 219.613 39.82C219.2 40.58 218.62 41.1667 217.873 41.58C217.127 41.9933 216.247 42.2 215.233 42.2ZM215.233 40.3C215.98 40.3 216.58 40.0333 217.033 39.5C217.487 38.9533 217.713 38.1533 217.713 37.1C217.713 36.0333 217.487 35.24 217.033 34.72C216.58 34.1867 215.98 33.92 215.233 33.92C214.487 33.92 213.887 34.1867 213.433 34.72C212.98 35.24 212.753 36.0333 212.753 37.1C212.753 38.1533 212.98 38.9533 213.433 39.5C213.887 40.0333 214.487 40.3 215.233 40.3ZM223.61 45.76C222.783 45.76 222.37 45.34 222.37 44.5V33.32C222.37 32.48 222.777 32.06 223.59 32.06C224.417 32.06 224.83 32.48 224.83 33.32V33.74C225.11 33.22 225.53 32.8067 226.09 32.5C226.65 32.18 227.29 32.02 228.01 32.02C228.863 32.02 229.61 32.2267 230.25 32.64C230.903 33.0533 231.41 33.64 231.77 34.4C232.13 35.1467 232.31 36.0467 232.31 37.1C232.31 38.14 232.13 39.0467 231.77 39.82C231.41 40.58 230.91 41.1667 230.27 41.58C229.63 41.9933 228.877 42.2 228.01 42.2C227.317 42.2 226.69 42.0533 226.13 41.76C225.583 41.4533 225.163 41.0467 224.87 40.54V44.5C224.87 45.34 224.45 45.76 223.61 45.76ZM227.31 40.3C228.057 40.3 228.657 40.0333 229.11 39.5C229.563 38.9533 229.79 38.1533 229.79 37.1C229.79 36.0333 229.563 35.24 229.11 34.72C228.657 34.1867 228.057 33.92 227.31 33.92C226.563 33.92 225.963 34.1867 225.51 34.72C225.057 35.24 224.83 36.0333 224.83 37.1C224.83 38.1533 225.057 38.9533 225.51 39.5C225.963 40.0333 226.563 40.3 227.31 40.3ZM235.675 42C234.849 42 234.435 41.5867 234.435 40.76V33.32C234.435 32.48 234.855 32.06 235.695 32.06C236.522 32.06 236.935 32.48 236.935 33.32V35.46H239.515C240.809 35.46 241.782 35.7333 242.435 36.28C243.102 36.8267 243.435 37.6267 243.435 38.68C243.435 39.68 243.082 40.4867 242.375 41.1C241.682 41.7 240.729 42 239.515 42H235.675ZM245.855 42.16C245.029 42.16 244.615 41.7333 244.615 40.88V33.32C244.615 32.48 245.029 32.06 245.855 32.06C246.695 32.06 247.115 32.48 247.115 33.32V40.88C247.115 41.7333 246.695 42.16 245.855 42.16ZM236.935 40.36H239.135C239.762 40.36 240.249 40.2267 240.595 39.96C240.942 39.68 241.115 39.26 241.115 38.7C241.115 38.1533 240.942 37.7533 240.595 37.5C240.249 37.2333 239.762 37.1 239.135 37.1H236.935V40.36ZM254.603 42.2C253.496 42.2 252.543 41.9933 251.743 41.58C250.943 41.1667 250.323 40.58 249.883 39.82C249.456 39.06 249.243 38.16 249.243 37.12C249.243 36.1067 249.449 35.22 249.863 34.46C250.289 33.7 250.869 33.1067 251.603 32.68C252.349 32.24 253.196 32.02 254.143 32.02C255.529 32.02 256.623 32.46 257.423 33.34C258.236 34.22 258.643 35.42 258.643 36.94C258.643 37.4333 258.323 37.68 257.683 37.68H251.643C251.829 39.4267 252.829 40.3 254.643 40.3C254.989 40.3 255.376 40.26 255.803 40.18C256.243 40.0867 256.656 39.9333 257.043 39.72C257.389 39.52 257.683 39.46 257.923 39.54C258.163 39.6067 258.329 39.7467 258.423 39.96C258.529 40.1733 258.543 40.4133 258.463 40.68C258.396 40.9333 258.209 41.1533 257.903 41.34C257.436 41.6333 256.896 41.8533 256.283 42C255.683 42.1333 255.123 42.2 254.603 42.2ZM254.243 33.72C253.509 33.72 252.916 33.9467 252.463 34.4C252.009 34.8533 251.736 35.4667 251.643 36.24H256.563C256.509 35.4267 256.283 34.8067 255.883 34.38C255.496 33.94 254.949 33.72 254.243 33.72ZM268.406 45.76C267.952 45.76 267.639 45.5933 267.466 45.26C267.292 44.9267 267.299 44.5467 267.486 44.12L268.626 41.6L265.206 33.72C265.019 33.28 265.019 32.8933 265.206 32.56C265.392 32.2267 265.759 32.06 266.306 32.06C266.612 32.06 266.859 32.1333 267.046 32.28C267.232 32.4133 267.399 32.6733 267.546 33.06L269.946 39.06L272.406 33.04C272.552 32.6667 272.726 32.4133 272.926 32.28C273.126 32.1333 273.392 32.06 273.726 32.06C274.152 32.06 274.452 32.2267 274.626 32.56C274.799 32.8933 274.792 33.2733 274.606 33.7L269.746 44.8C269.572 45.1733 269.386 45.4267 269.186 45.56C268.986 45.6933 268.726 45.76 268.406 45.76ZM282.976 42C282.149 42 281.736 41.5867 281.736 40.76V33.46C281.736 32.6333 282.149 32.22 282.976 32.22H287.016C288.283 32.22 289.189 32.4467 289.736 32.9C290.296 33.34 290.576 33.9667 290.576 34.78C290.576 35.2867 290.436 35.7267 290.156 36.1C289.876 36.4733 289.489 36.7467 288.996 36.92C289.636 37.0667 290.116 37.3467 290.436 37.76C290.756 38.1733 290.916 38.6733 290.916 39.26C290.916 40.1 290.596 40.7667 289.956 41.26C289.316 41.7533 288.389 42 287.176 42H282.976ZM284.056 36.24H286.776C287.256 36.24 287.629 36.1333 287.896 35.92C288.163 35.6933 288.296 35.38 288.296 34.98C288.296 34.58 288.163 34.28 287.896 34.08C287.629 33.8667 287.256 33.76 286.776 33.76H284.056V36.24ZM284.056 40.46H286.956C288.076 40.46 288.636 40.0133 288.636 39.12C288.636 38.2267 288.076 37.78 286.956 37.78H284.056V40.46ZM296.143 42.2C295.437 42.2 294.803 42.0667 294.243 41.8C293.697 41.52 293.263 41.1467 292.943 40.68C292.637 40.2133 292.483 39.6867 292.483 39.1C292.483 38.38 292.67 37.8133 293.043 37.4C293.417 36.9733 294.023 36.6667 294.863 36.48C295.703 36.2933 296.83 36.2 298.243 36.2H298.943V35.78C298.943 35.1133 298.797 34.6333 298.503 34.34C298.21 34.0467 297.717 33.9 297.023 33.9C296.637 33.9 296.217 33.9467 295.763 34.04C295.323 34.1333 294.857 34.2933 294.363 34.52C294.043 34.6667 293.777 34.6867 293.563 34.58C293.35 34.46 293.203 34.28 293.123 34.04C293.057 33.7867 293.07 33.5333 293.163 33.28C293.27 33.0267 293.477 32.84 293.783 32.72C294.397 32.4667 294.983 32.2867 295.543 32.18C296.117 32.0733 296.637 32.02 297.103 32.02C298.53 32.02 299.59 32.3533 300.283 33.02C300.977 33.6733 301.323 34.6933 301.323 36.08V40.88C301.323 41.7333 300.937 42.16 300.163 42.16C299.377 42.16 298.983 41.7333 298.983 40.88V40.44C298.757 40.9867 298.397 41.42 297.903 41.74C297.41 42.0467 296.823 42.2 296.143 42.2ZM296.663 40.48C297.317 40.48 297.857 40.2533 298.283 39.8C298.723 39.3467 298.943 38.7733 298.943 38.08V37.64H298.263C297.01 37.64 296.137 37.74 295.643 37.94C295.163 38.1267 294.923 38.4733 294.923 38.98C294.923 39.42 295.077 39.78 295.383 40.06C295.69 40.34 296.117 40.48 296.663 40.48ZM308.454 42.2C307.427 42.2 306.534 41.9933 305.774 41.58C305.014 41.1533 304.427 40.5533 304.014 39.78C303.601 39.0067 303.394 38.1 303.394 37.06C303.394 36.02 303.601 35.1267 304.014 34.38C304.427 33.62 305.014 33.04 305.774 32.64C306.534 32.2267 307.427 32.02 308.454 32.02C308.894 32.02 309.367 32.08 309.874 32.2C310.394 32.32 310.881 32.52 311.334 32.8C311.601 32.96 311.754 33.1667 311.794 33.42C311.847 33.6733 311.814 33.9067 311.694 34.12C311.587 34.3333 311.421 34.4867 311.194 34.58C310.981 34.6733 310.734 34.64 310.454 34.48C309.841 34.1333 309.247 33.96 308.674 33.96C307.807 33.96 307.134 34.2333 306.654 34.78C306.187 35.3133 305.954 36.08 305.954 37.08C305.954 38.0667 306.187 38.8467 306.654 39.42C307.134 39.98 307.807 40.26 308.674 40.26C309.247 40.26 309.841 40.0933 310.454 39.76C310.734 39.6 310.981 39.5667 311.194 39.66C311.407 39.7533 311.561 39.9133 311.654 40.14C311.747 40.3533 311.767 40.5867 311.714 40.84C311.661 41.08 311.507 41.28 311.254 41.44C310.814 41.7067 310.347 41.9 309.854 42.02C309.361 42.14 308.894 42.2 308.454 42.2ZM323.51 42.2C322.404 42.2 321.45 41.9933 320.65 41.58C319.85 41.1667 319.23 40.58 318.79 39.82C318.364 39.06 318.15 38.16 318.15 37.12C318.15 36.1067 318.357 35.22 318.77 34.46C319.197 33.7 319.777 33.1067 320.51 32.68C321.257 32.24 322.104 32.02 323.05 32.02C324.437 32.02 325.53 32.46 326.33 33.34C327.144 34.22 327.55 35.42 327.55 36.94C327.55 37.4333 327.23 37.68 326.59 37.68H320.55C320.737 39.4267 321.737 40.3 323.55 40.3C323.897 40.3 324.284 40.26 324.71 40.18C325.15 40.0867 325.564 39.9333 325.95 39.72C326.297 39.52 326.59 39.46 326.83 39.54C327.07 39.6067 327.237 39.7467 327.33 39.96C327.437 40.1733 327.45 40.4133 327.37 40.68C327.304 40.9333 327.117 41.1533 326.81 41.34C326.344 41.6333 325.804 41.8533 325.19 42C324.59 42.1333 324.03 42.2 323.51 42.2ZM323.15 33.72C322.417 33.72 321.824 33.9467 321.37 34.4C320.917 34.8533 320.644 35.4667 320.55 36.24H325.47C325.417 35.4267 325.19 34.8067 324.79 34.38C324.404 33.94 323.857 33.72 323.15 33.72ZM334.124 42.2C333.097 42.2 332.204 41.9933 331.444 41.58C330.684 41.1533 330.097 40.5533 329.684 39.78C329.27 39.0067 329.064 38.1 329.064 37.06C329.064 36.02 329.27 35.1267 329.684 34.38C330.097 33.62 330.684 33.04 331.444 32.64C332.204 32.2267 333.097 32.02 334.124 32.02C334.564 32.02 335.037 32.08 335.544 32.2C336.064 32.32 336.55 32.52 337.004 32.8C337.27 32.96 337.424 33.1667 337.464 33.42C337.517 33.6733 337.484 33.9067 337.364 34.12C337.257 34.3333 337.09 34.4867 336.864 34.58C336.65 34.6733 336.404 34.64 336.124 34.48C335.51 34.1333 334.917 33.96 334.344 33.96C333.477 33.96 332.804 34.2333 332.324 34.78C331.857 35.3133 331.624 36.08 331.624 37.08C331.624 38.0667 331.857 38.8467 332.324 39.42C332.804 39.98 333.477 40.26 334.344 40.26C334.917 40.26 335.51 40.0933 336.124 39.76C336.404 39.6 336.65 39.5667 336.864 39.66C337.077 39.7533 337.23 39.9133 337.324 40.14C337.417 40.3533 337.437 40.5867 337.384 40.84C337.33 41.08 337.177 41.28 336.924 41.44C336.484 41.7067 336.017 41.9 335.524 42.02C335.03 42.14 334.564 42.2 334.124 42.2ZM342.43 42.16C341.59 42.16 341.17 41.7333 341.17 40.88V34.18H338.73C338.01 34.18 337.65 33.8533 337.65 33.2C337.65 32.5467 338.01 32.22 338.73 32.22H346.11C346.83 32.22 347.19 32.5467 347.19 33.2C347.19 33.8533 346.83 34.18 346.11 34.18H343.67V40.88C343.67 41.7333 343.257 42.16 342.43 42.16ZM349.603 42C348.777 42 348.363 41.5867 348.363 40.76V33.32C348.363 32.48 348.783 32.06 349.623 32.06C350.45 32.06 350.863 32.48 350.863 33.32V35.46H353.443C354.737 35.46 355.71 35.7333 356.363 36.28C357.03 36.8267 357.363 37.6267 357.363 38.68C357.363 39.68 357.01 40.4867 356.303 41.1C355.61 41.7 354.657 42 353.443 42H349.603ZM350.863 40.36H353.063C353.69 40.36 354.177 40.2267 354.523 39.96C354.87 39.68 355.043 39.26 355.043 38.7C355.043 38.1533 354.87 37.7533 354.523 37.5C354.177 37.2333 353.69 37.1 353.063 37.1H350.863V40.36Z" fill="#1C1C1C"/>
<rect x="141" y="69" width="31" height="25" rx="6" fill="#EC5147"/>
<path d="M152.07 86.1193C153.885 86.1193 155.168 85.0881 155.176 83.6733C155.168 82.5739 154.396 81.6491 153.42 81.4744V81.4233C154.268 81.2188 154.844 80.4219 154.852 79.4801C154.844 78.1463 153.668 77.1534 152.07 77.1534C150.455 77.1534 149.278 78.1463 149.287 79.4801C149.278 80.4176 149.854 81.2188 150.719 81.4233V81.4744C149.726 81.6491 148.955 82.5739 148.963 83.6733C148.955 85.0881 150.237 86.1193 152.07 86.1193ZM152.07 85.0412C150.979 85.0412 150.288 84.4616 150.297 83.5881C150.288 82.6804 151.038 82.0327 152.07 82.0327C153.084 82.0327 153.834 82.6804 153.842 83.5881C153.834 84.4616 153.148 85.0412 152.07 85.0412ZM152.07 80.9801C151.188 80.9801 150.561 80.4219 150.57 79.5909C150.561 78.7727 151.166 78.2315 152.07 78.2315C152.956 78.2315 153.561 78.7727 153.57 79.5909C153.561 80.4219 152.939 80.9801 152.07 80.9801ZM157.29 86.081C157.754 86.081 158.142 85.7017 158.142 85.2287C158.142 84.7642 157.754 84.3807 157.29 84.3807C156.821 84.3807 156.438 84.7642 156.438 85.2287C156.438 85.7017 156.821 86.081 157.29 86.081ZM159.903 86H161.279L165.076 78.4403V77.2727H159.306V78.402H163.713V78.4659L159.903 86Z" fill="white"/>
<path d="M74.6861 76.6364C74.6861 73.875 73.0668 72.1534 70.8338 72.1534C68.6009 72.1534 66.9815 73.875 66.9815 76.6364C66.9815 79.3977 68.6009 81.1193 70.8338 81.1193C73.0668 81.1193 74.6861 79.3977 74.6861 76.6364ZM73.6634 76.6364C73.6634 78.9034 72.419 80.1307 70.8338 80.1307C69.2486 80.1307 68.0043 78.9034 68.0043 76.6364C68.0043 74.3693 69.2486 73.142 70.8338 73.142C72.419 73.142 73.6634 74.3693 73.6634 76.6364ZM81.1847 72C80.8651 72.2685 80.3878 72.2685 79.7188 72.2642C79.5014 72.2642 79.2628 72.2642 79.0028 72.2727C77.0085 72.3239 76.0199 73.8409 76.0199 76.7557V77.4545C76.0199 79.875 77.196 81.1364 78.9517 81.1364C80.7031 81.1364 81.8665 79.8665 81.8665 77.8125C81.8665 75.75 80.6861 74.6591 79.1562 74.6591C78.2571 74.6591 77.4176 75.0341 76.9744 75.8523H76.8892C77.0256 74.1648 77.6562 73.2614 79.0199 73.2102C80.2301 73.1591 81.0994 73.1932 81.696 72.6136L81.1847 72ZM78.9517 80.233C77.7585 80.233 77.0256 79.2784 77.0256 77.8125C77.0469 76.3807 77.767 75.5625 78.9347 75.5625C80.1321 75.5625 80.8608 76.3807 80.8608 77.8125C80.8608 79.2869 80.1364 80.233 78.9517 80.233ZM92.3366 80.0625H91.3651V74.4545H90.3594V80.0625H87.8878V74.4545H86.8821V80.0625H84.4105V74.4545H83.4048V81H91.1776V82.875H92.2173L92.3366 80.0625ZM96.4734 81.1364C97.8029 81.1364 98.7745 80.4716 99.0813 79.483L98.1097 79.2102C97.854 79.892 97.2617 80.233 96.4734 80.233C95.293 80.233 94.479 79.4702 94.4322 78.0682H99.1836V77.642C99.1836 75.2045 97.7347 74.3693 96.3711 74.3693C94.5984 74.3693 93.4222 75.767 93.4222 77.7784C93.4222 79.7898 94.5813 81.1364 96.4734 81.1364ZM94.4322 77.1989C94.5004 76.1804 95.2205 75.2727 96.3711 75.2727C97.462 75.2727 98.1609 76.0909 98.1609 77.1989H94.4322ZM101.719 74.4545H100.713V81H101.719V78.2045H104.855V81H105.861V74.4545H104.855V77.267H101.719V74.4545ZM108.703 79.517V74.4545H107.698V81H108.874L112.01 75.9375V81H113.016V74.4545H111.857L108.703 79.517ZM117.602 81.1364C118.932 81.1364 119.903 80.4716 120.21 79.483L119.239 79.2102C118.983 79.892 118.391 80.233 117.602 80.233C116.422 80.233 115.608 79.4702 115.561 78.0682H120.312V77.642C120.312 75.2045 118.864 74.3693 117.5 74.3693C115.727 74.3693 114.551 75.767 114.551 77.7784C114.551 79.7898 115.71 81.1364 117.602 81.1364ZM115.561 77.1989C115.629 76.1804 116.349 75.2727 117.5 75.2727C118.591 75.2727 119.29 76.0909 119.29 77.1989H115.561ZM127.876 81.1364C129.325 81.1364 130.28 80.25 130.45 79.0909H129.445C129.257 79.8068 128.661 80.233 127.876 80.233C126.683 80.233 125.916 79.2443 125.916 77.7273C125.916 76.2443 126.7 75.2727 127.876 75.2727C128.763 75.2727 129.291 75.8182 129.445 76.4148H130.45C130.28 75.1875 129.24 74.3693 127.859 74.3693C126.087 74.3693 124.911 75.767 124.911 77.7614C124.911 79.7216 126.036 81.1364 127.876 81.1364ZM84.2198 96H84.5607C86.0096 96 86.4272 94.875 86.521 92.7273L86.6232 90.392H89.0266V96H90.0323V89.4545H85.6687L85.5494 92.3523C85.4641 94.5511 85.2425 95.0625 84.4585 95.0625H84.2198V96ZM92.4059 89.4545H91.4002V96H92.4059V93.2557H94.0849C94.2638 95.0071 95.4016 96.1364 97.0252 96.1364C98.7979 96.1364 99.9911 94.7898 99.9911 92.7614C99.9911 90.7159 98.7979 89.3693 97.0252 89.3693C95.3846 89.3693 94.2383 90.5241 94.0806 92.3182H92.4059V89.4545ZM97.0252 95.233C95.6786 95.233 95.065 94.0739 95.065 92.7614C95.065 91.4489 95.6786 90.2727 97.0252 90.2727C98.3718 90.2727 98.9854 91.4489 98.9854 92.7614C98.9854 94.0739 98.3718 95.233 97.0252 95.233ZM100.929 97.875H101.934V96H106.775V97.875H107.781V95.0625H106.775V89.4545H102.616L102.395 92.0455C102.237 93.8778 102.002 94.5085 101.474 95.0625H100.929V97.875ZM102.616 95.0625C103.076 94.4574 103.243 93.4134 103.383 92.0455L103.554 90.392H105.77V95.0625H102.616ZM110.121 91.8239V89.4545H109.116V96H111.86C113.394 96 114.229 95.0625 114.229 93.8864C114.229 92.6932 113.394 91.8239 111.86 91.8239H110.121ZM110.121 92.7614H111.86C112.657 92.7614 113.224 93.2472 113.224 93.9375C113.224 94.598 112.657 95.0625 111.86 95.0625H110.121V92.7614ZM119.34 94.6364L117.09 89.4545H115.76V96H116.766V90.8991L118.931 96H119.749L121.914 90.9929V96H122.919V89.4545H121.624L119.34 94.6364ZM125.766 94.517V89.4545H124.76V96H125.936L129.073 90.9375V96H130.078V89.4545H128.919L125.766 94.517Z" fill="#1C1C1C"/>
<path d="M35.7912 218.312C33.848 218.312 32.4503 219.727 32.4503 221.773C32.4503 223.818 33.848 225.216 35.7912 225.216H35.9616V226.358H37.0185V225.216H37.1719C39.1151 225.216 40.5128 223.801 40.5128 221.756C40.5128 219.71 39.1151 218.312 37.1719 218.312H37.0185V217.119H35.9616V218.312H35.7912ZM35.7912 219.25H35.9616V224.278H35.7912C34.3082 224.278 33.5071 223.29 33.5071 221.773C33.5071 220.239 34.3082 219.25 35.7912 219.25ZM37.0185 219.25H37.1719C38.6548 219.25 39.456 220.239 39.456 221.756C39.456 223.29 38.6548 224.278 37.1719 224.278H37.0185V219.25ZM43.1527 224.517V219.455H42.147V226H43.3232L46.4595 220.938V226H47.4652V219.455H46.3061L43.1527 224.517ZM48.8981 224.33C48.9322 225.403 49.9592 226.136 51.3526 226.136C52.7844 226.136 53.8242 225.369 53.8242 224.176C53.8242 223.358 53.3342 222.693 52.5969 222.642V222.574C53.2191 222.382 53.6879 221.93 53.6879 221.193C53.6879 220.158 52.8015 219.369 51.4208 219.369C50.0572 219.369 49.0856 220.119 49.0515 221.176H50.1083C50.1381 220.635 50.7049 220.256 51.4719 220.256C52.2347 220.256 52.6651 220.643 52.6651 221.227C52.6651 221.773 52.2901 222.182 51.489 222.182H50.364V223.085H51.489C52.2901 223.085 52.8015 223.524 52.8015 224.176C52.8015 224.922 52.141 225.233 51.3356 225.233C50.5472 225.233 50.0188 224.922 49.9719 224.33H48.8981ZM56.2425 224.517V219.455H55.2369V226H56.413L59.5494 220.938V226H60.555V219.455H59.396L56.2425 224.517ZM67.4425 219.455H66.4368V222.774C65.951 222.915 65.4524 223 64.8516 223C64.0334 223 63.4027 222.54 63.4027 221.534V219.438H62.397V221.534C62.397 223.136 63.3686 223.938 64.8516 223.938C65.4695 223.938 65.9638 223.857 66.4368 223.716V226H67.4425V219.455ZM72.032 226.136C73.3615 226.136 74.3331 225.472 74.6399 224.483L73.6683 224.21C73.4126 224.892 72.8203 225.233 72.032 225.233C70.8516 225.233 70.0376 224.47 69.9908 223.068H74.7422V222.642C74.7422 220.205 73.2933 219.369 71.9297 219.369C70.157 219.369 68.9808 220.767 68.9808 222.778C68.9808 224.79 70.1399 226.136 72.032 226.136ZM69.9908 222.199C70.0589 221.18 70.7791 220.273 71.9297 220.273C73.0206 220.273 73.7195 221.091 73.7195 222.199H69.9908ZM78.9311 226.136C80.38 226.136 81.3345 225.25 81.505 224.091H80.4993C80.3118 224.807 79.7152 225.233 78.9311 225.233C77.7379 225.233 76.9709 224.244 76.9709 222.727C76.9709 221.244 77.755 220.273 78.9311 220.273C79.8175 220.273 80.3459 220.818 80.4993 221.415H81.505C81.3345 220.188 80.2947 219.369 78.9141 219.369C77.1413 219.369 75.9652 220.767 75.9652 222.761C75.9652 224.722 77.0902 226.136 78.9311 226.136ZM82.9751 226H83.9808V223.239H84.8842L87.032 226H88.3274L85.6513 222.608L88.2933 219.455H86.9979L84.6456 222.301H83.9808V219.455H82.9751V226ZM91.3466 226.153C92.4886 226.153 93.0852 225.54 93.2898 225.114H93.3409V226H94.3466V221.688C94.3466 219.608 92.7614 219.369 91.9261 219.369C90.9375 219.369 89.8125 219.71 89.3011 220.903L90.2557 221.244C90.4773 220.767 91.0014 220.256 91.9602 220.256C92.8849 220.256 93.3409 220.746 93.3409 221.585V221.619C93.3409 222.105 92.8466 222.062 91.6534 222.216C90.4389 222.374 89.1136 222.642 89.1136 224.142C89.1136 225.42 90.1023 226.153 91.3466 226.153ZM91.5 225.25C90.6989 225.25 90.1193 224.892 90.1193 224.193C90.1193 223.426 90.8182 223.188 91.6023 223.085C92.0284 223.034 93.1705 222.915 93.3409 222.71V223.631C93.3409 224.449 92.6932 225.25 91.5 225.25ZM100.12 226H101.074V219.455H98.381C96.9705 219.455 96.114 220.192 96.114 221.398C96.114 222.297 96.5657 222.936 97.354 223.205L95.756 226H96.8469L98.364 223.341H100.12V226ZM100.12 222.403H98.2617C97.5501 222.403 97.1197 222.024 97.1197 221.398C97.1197 220.763 97.5969 220.375 98.381 220.375H100.12V222.403ZM77.8764 241.136C79.3253 241.136 80.2798 240.25 80.4503 239.091H79.4446C79.2571 239.807 78.6605 240.233 77.8764 240.233C76.6832 240.233 75.9162 239.244 75.9162 237.727C75.9162 236.244 76.7003 235.273 77.8764 235.273C78.7628 235.273 79.2912 235.818 79.4446 236.415H80.4503C80.2798 235.188 79.2401 234.369 77.8594 234.369C76.0866 234.369 74.9105 235.767 74.9105 237.761C74.9105 239.722 76.0355 241.136 77.8764 241.136ZM82.9261 239.517V234.455H81.9205V241H83.0966L86.233 235.938V241H87.2386V234.455H86.0795L82.9261 239.517ZM88.5011 241H88.842C90.2908 241 90.7085 239.875 90.8022 237.727L90.9045 235.392H93.3079V241H94.3136V234.455H89.9499L89.8306 237.352C89.7454 239.551 89.5238 240.062 88.7397 240.062H88.5011V241ZM98.0849 241.153C99.2269 241.153 99.8235 240.54 100.028 240.114H100.079V241H101.085V236.688C101.085 234.608 99.4996 234.369 98.6644 234.369C97.6758 234.369 96.5508 234.71 96.0394 235.903L96.994 236.244C97.2156 235.767 97.7397 235.256 98.6985 235.256C99.6232 235.256 100.079 235.746 100.079 236.585V236.619C100.079 237.105 99.5849 237.062 98.3917 237.216C97.1772 237.374 95.8519 237.642 95.8519 239.142C95.8519 240.42 96.8406 241.153 98.0849 241.153ZM98.2383 240.25C97.4371 240.25 96.8576 239.892 96.8576 239.193C96.8576 238.426 97.5565 238.188 98.3406 238.085C98.7667 238.034 99.9087 237.915 100.079 237.71V238.631C100.079 239.449 99.4315 240.25 98.2383 240.25Z" fill="#1C1C1C"/>
<path d="M313.057 72.2727V81H314.045V74.3693H314.131L316.858 81H317.812L320.54 74.3693H320.625V81H321.614V72.2727H320.352L317.386 79.517H317.284L314.318 72.2727H313.057ZM324.602 76.8239V74.4545H323.596V81H326.341C327.875 81 328.71 80.0625 328.71 78.8864C328.71 77.6932 327.875 76.8239 326.341 76.8239H324.602ZM329.75 81H330.755V74.4545H329.75V81ZM324.602 77.7614H326.341C327.137 77.7614 327.704 78.2472 327.704 78.9375C327.704 79.598 327.137 80.0625 326.341 80.0625H324.602V77.7614ZM332.596 74.4545V81H340.556V74.4545H339.551V80.0625H337.079V74.4545H336.074V80.0625H333.602V74.4545H332.596ZM341.814 81H342.154C343.603 81 344.021 79.875 344.115 77.7273L344.217 75.392H346.62V81H347.626V74.4545H343.262L343.143 77.3523C343.058 79.5511 342.836 80.0625 342.052 80.0625H341.814V81ZM352.216 81.1364C353.545 81.1364 354.517 80.4716 354.824 79.483L353.852 79.2102C353.596 79.892 353.004 80.233 352.216 80.233C351.035 80.233 350.221 79.4702 350.174 78.0682H354.926V77.642C354.926 75.2045 353.477 74.3693 352.113 74.3693C350.341 74.3693 349.164 75.767 349.164 77.7784C349.164 79.7898 350.324 81.1364 352.216 81.1364ZM350.174 77.1989C350.243 76.1804 350.963 75.2727 352.113 75.2727C353.204 75.2727 353.903 76.0909 353.903 77.1989H350.174ZM357.461 74.4545H356.456V81H357.461V78.2045H360.598V81H361.603V74.4545H360.598V77.267H357.461V74.4545ZM364.446 79.517V74.4545H363.44V81H364.616L367.752 75.9375V81H368.758V74.4545H367.599L364.446 79.517ZM373.344 81.1364C374.674 81.1364 375.646 80.4716 375.952 79.483L374.981 79.2102C374.725 79.892 374.133 80.233 373.344 80.233C372.164 80.233 371.35 79.4702 371.303 78.0682H376.055V77.642C376.055 75.2045 374.606 74.3693 373.242 74.3693C371.469 74.3693 370.293 75.767 370.293 77.7784C370.293 79.7898 371.452 81.1364 373.344 81.1364ZM371.303 77.1989C371.371 76.1804 372.092 75.2727 373.242 75.2727C374.333 75.2727 375.032 76.0909 375.032 77.1989H371.303ZM379.085 79.8068H377.994L377.942 80.2841C377.819 81.4389 377.576 82.5895 377.465 83.1307H378.232C378.437 82.5511 378.871 81.2386 379.016 80.267L379.085 79.8068ZM314.847 96.1534C315.989 96.1534 316.585 95.5398 316.79 95.1136H316.841V96H317.847V91.6875C317.847 89.608 316.261 89.3693 315.426 89.3693C314.438 89.3693 313.312 89.7102 312.801 90.9034L313.756 91.2443C313.977 90.767 314.501 90.2557 315.46 90.2557C316.385 90.2557 316.841 90.7457 316.841 91.5852V91.6193C316.841 92.1051 316.347 92.0625 315.153 92.2159C313.939 92.3736 312.614 92.642 312.614 94.142C312.614 95.4205 313.602 96.1534 314.847 96.1534ZM315 95.25C314.199 95.25 313.619 94.892 313.619 94.1932C313.619 93.4261 314.318 93.1875 315.102 93.0852C315.528 93.0341 316.67 92.9148 316.841 92.7102V93.6307C316.841 94.4489 316.193 95.25 315 95.25ZM320.688 89.4545H319.682V96H320.688V93.2045H323.824V96H324.83V89.4545H323.824V92.267H320.688V89.4545ZM328.593 96.1534C329.735 96.1534 330.331 95.5398 330.536 95.1136H330.587V96H331.593V91.6875C331.593 89.608 330.007 89.3693 329.172 89.3693C328.184 89.3693 327.059 89.7102 326.547 90.9034L327.502 91.2443C327.723 90.767 328.248 90.2557 329.206 90.2557C330.131 90.2557 330.587 90.7457 330.587 91.5852V91.6193C330.587 92.1051 330.093 92.0625 328.9 92.2159C327.685 92.3736 326.36 92.642 326.36 94.142C326.36 95.4205 327.348 96.1534 328.593 96.1534ZM328.746 95.25C327.945 95.25 327.365 94.892 327.365 94.1932C327.365 93.4261 328.064 93.1875 328.848 93.0852C329.275 93.0341 330.417 92.9148 330.587 92.7102V93.6307C330.587 94.4489 329.939 95.25 328.746 95.25ZM332.849 96H333.19C334.638 96 335.056 94.875 335.15 92.7273L335.252 90.392H337.656V96H338.661V89.4545H334.298L334.178 92.3523C334.093 94.5511 333.871 95.0625 333.087 95.0625H332.849V96ZM341.512 94.517V89.4545H340.506V96H341.683L344.819 90.9375V96H345.825V89.4545H344.665L341.512 94.517ZM347.257 94.3295C347.292 95.4034 348.319 96.1364 349.712 96.1364C351.144 96.1364 352.184 95.3693 352.184 94.1761C352.184 93.358 351.694 92.6932 350.956 92.642V92.5739C351.578 92.3821 352.047 91.9304 352.047 91.1932C352.047 90.1577 351.161 89.3693 349.78 89.3693C348.417 89.3693 347.445 90.1193 347.411 91.1761H348.468C348.498 90.6349 349.064 90.2557 349.831 90.2557C350.594 90.2557 351.025 90.6435 351.025 91.2273C351.025 91.7727 350.65 92.1818 349.848 92.1818H348.723V93.0852H349.848C350.65 93.0852 351.161 93.5241 351.161 94.1761C351.161 94.9219 350.5 95.233 349.695 95.233C348.907 95.233 348.378 94.9219 348.331 94.3295H347.257ZM357.977 94.517V89.4545H356.971V96H358.147L361.284 90.9375V96H362.289V89.4545H361.13L357.977 94.517ZM369.433 96.1534C370.575 96.1534 371.171 95.5398 371.376 95.1136H371.427V96H372.433V91.6875C372.433 89.608 370.847 89.3693 370.012 89.3693C369.023 89.3693 367.898 89.7102 367.387 90.9034L368.342 91.2443C368.563 90.767 369.087 90.2557 370.046 90.2557C370.971 90.2557 371.427 90.7457 371.427 91.5852V91.6193C371.427 92.1051 370.933 92.0625 369.739 92.2159C368.525 92.3736 367.2 92.642 367.2 94.142C367.2 95.4205 368.188 96.1534 369.433 96.1534ZM369.586 95.25C368.785 95.25 368.205 94.892 368.205 94.1932C368.205 93.4261 368.904 93.1875 369.688 93.0852C370.114 93.0341 371.256 92.9148 371.427 92.7102V93.6307C371.427 94.4489 370.779 95.25 369.586 95.25ZM375.274 89.4545H374.268V96H375.274V93.2045H378.41V96H379.416V89.4545H378.41V92.267H375.274V89.4545ZM383.179 96.1534C384.321 96.1534 384.917 95.5398 385.122 95.1136H385.173V96H386.179V91.6875C386.179 89.608 384.593 89.3693 383.758 89.3693C382.77 89.3693 381.645 89.7102 381.133 90.9034L382.088 91.2443C382.309 90.767 382.833 90.2557 383.792 90.2557C384.717 90.2557 385.173 90.7457 385.173 91.5852V91.6193C385.173 92.1051 384.679 92.0625 383.485 92.2159C382.271 92.3736 380.946 92.642 380.946 94.142C380.946 95.4205 381.934 96.1534 383.179 96.1534ZM383.332 95.25C382.531 95.25 381.951 94.892 381.951 94.1932C381.951 93.4261 382.65 93.1875 383.434 93.0852C383.86 93.0341 385.002 92.9148 385.173 92.7102V93.6307C385.173 94.4489 384.525 95.25 383.332 95.25ZM387.435 96H387.776C389.224 96 389.642 94.875 389.736 92.7273L389.838 90.392H392.241V96H393.247V89.4545H388.884L388.764 92.3523C388.679 94.5511 388.457 95.0625 387.673 95.0625H387.435V96ZM396.098 94.517V89.4545H395.092V96H396.268L399.405 90.9375V96H400.411V89.4545H399.251L396.098 94.517ZM401.843 94.3295C401.877 95.4034 402.904 96.1364 404.298 96.1364C405.73 96.1364 406.77 95.3693 406.77 94.1761C406.77 93.358 406.279 92.6932 405.542 92.642V92.5739C406.164 92.3821 406.633 91.9304 406.633 91.1932C406.633 90.1577 405.747 89.3693 404.366 89.3693C403.002 89.3693 402.031 90.1193 401.997 91.1761H403.054C403.083 90.6349 403.65 90.2557 404.417 90.2557C405.18 90.2557 405.61 90.6435 405.61 91.2273C405.61 91.7727 405.235 92.1818 404.434 92.1818H403.309V93.0852H404.434C405.235 93.0852 405.747 93.5241 405.747 94.1761C405.747 94.9219 405.086 95.233 404.281 95.233C403.493 95.233 402.964 94.9219 402.917 94.3295H401.843Z" fill="#1C1C1C"/>
<path d="M345.188 226H346.449L342.801 221.108L346.33 217.273H345.068L341.574 221.057H341.114V217.273H340.057V226H341.114V221.994H342.188L345.188 226ZM347.678 228.455H348.684V224.994H348.769C348.991 225.352 349.417 226.136 350.678 226.136C352.315 226.136 353.457 224.824 353.457 222.744C353.457 220.682 352.315 219.369 350.661 219.369C349.383 219.369 348.991 220.153 348.769 220.494H348.65V219.455H347.678V228.455ZM348.667 222.727C348.667 221.261 349.315 220.273 350.542 220.273C351.82 220.273 352.451 221.347 352.451 222.727C352.451 224.125 351.803 225.233 350.542 225.233C349.332 225.233 348.667 224.21 348.667 222.727ZM357.735 226.136C359.065 226.136 360.036 225.472 360.343 224.483L359.371 224.21C359.116 224.892 358.523 225.233 357.735 225.233C356.555 225.233 355.741 224.47 355.694 223.068H360.445V222.642C360.445 220.205 358.996 219.369 357.633 219.369C355.86 219.369 354.684 220.767 354.684 222.778C354.684 224.79 355.843 226.136 357.735 226.136ZM355.694 222.199C355.762 221.18 356.482 220.273 357.633 220.273C358.724 220.273 359.423 221.091 359.423 222.199H355.694ZM363.901 226.153C365.043 226.153 365.64 225.54 365.844 225.114H365.896V226H366.901V221.688C366.901 219.608 365.316 219.369 364.481 219.369C363.492 219.369 362.367 219.71 361.856 220.903L362.81 221.244C363.032 220.767 363.556 220.256 364.515 220.256C365.44 220.256 365.896 220.746 365.896 221.585V221.619C365.896 222.105 365.401 222.062 364.208 222.216C362.994 222.374 361.668 222.642 361.668 224.142C361.668 225.42 362.657 226.153 363.901 226.153ZM364.055 225.25C363.254 225.25 362.674 224.892 362.674 224.193C362.674 223.426 363.373 223.188 364.157 223.085C364.583 223.034 365.725 222.915 365.896 222.71V223.631C365.896 224.449 365.248 225.25 364.055 225.25ZM367.846 220.392H370.011V226H371.017V220.392H373.164V219.455H367.846V220.392ZM375.637 224.517V219.455H374.631V226H375.808L378.944 220.938V226H379.95V219.455H378.79L375.637 224.517ZM381.792 226H384.877C386.206 226 387.007 225.25 387.007 224.244C387.007 223.217 386.228 222.663 385.507 222.557C386.245 222.403 386.769 221.99 386.769 221.193C386.769 220.149 385.874 219.455 384.468 219.455H381.792V226ZM382.746 225.08V223.068H384.877C385.567 223.068 385.985 223.482 385.985 224.159C385.985 224.73 385.567 225.08 384.877 225.08H382.746ZM382.746 222.199V220.375H384.468C385.273 220.375 385.763 220.712 385.763 221.261C385.763 221.845 385.273 222.199 384.468 222.199H382.746ZM389.536 219.455H388.53V226H389.536V223.205H392.672V226H393.678V219.455H392.672V222.267H389.536V219.455ZM398.173 226.136C399.946 226.136 401.139 224.79 401.139 222.761C401.139 220.716 399.946 219.369 398.173 219.369C396.401 219.369 395.207 220.716 395.207 222.761C395.207 224.79 396.401 226.136 398.173 226.136ZM398.173 225.233C396.827 225.233 396.213 224.074 396.213 222.761C396.213 221.449 396.827 220.273 398.173 220.273C399.52 220.273 400.134 221.449 400.134 222.761C400.134 224.074 399.52 225.233 398.173 225.233ZM405.333 226.136C406.782 226.136 407.737 225.25 407.907 224.091H406.902C406.714 224.807 406.118 225.233 405.333 225.233C404.14 225.233 403.373 224.244 403.373 222.727C403.373 221.244 404.157 220.273 405.333 220.273C406.22 220.273 406.748 220.818 406.902 221.415H407.907C407.737 220.188 406.697 219.369 405.316 219.369C403.544 219.369 402.368 220.767 402.368 222.761C402.368 224.722 403.493 226.136 405.333 226.136ZM408.862 220.392H411.027V226H412.032V220.392H414.18V219.455H408.862V220.392ZM416.653 221.824V219.455H415.647V226H418.391C419.925 226 420.761 225.062 420.761 223.886C420.761 222.693 419.925 221.824 418.391 221.824H416.653ZM416.653 222.761H418.391C419.188 222.761 419.755 223.247 419.755 223.938C419.755 224.598 419.188 225.062 418.391 225.062H416.653V222.761ZM340.926 239.517V234.455H339.92V241H341.097L344.233 235.938V241H345.239V234.455H344.08L340.926 239.517ZM350.081 235.392H352.245V241H353.251V235.392H355.399V234.455H350.081V235.392ZM356.866 241H359.951C361.281 241 362.082 240.25 362.082 239.244C362.082 238.217 361.302 237.663 360.582 237.557C361.319 237.403 361.843 236.99 361.843 236.193C361.843 235.149 360.948 234.455 359.542 234.455H356.866V241ZM357.82 240.08V238.068H359.951C360.641 238.068 361.059 238.482 361.059 239.159C361.059 239.73 360.641 240.08 359.951 240.08H357.82ZM357.82 237.199V235.375H359.542C360.347 235.375 360.837 235.712 360.837 236.261C360.837 236.845 360.347 237.199 359.542 237.199H357.82ZM366.263 241.136C368.036 241.136 369.229 239.79 369.229 237.761C369.229 235.716 368.036 234.369 366.263 234.369C364.49 234.369 363.297 235.716 363.297 237.761C363.297 239.79 364.49 241.136 366.263 241.136ZM366.263 240.233C364.917 240.233 364.303 239.074 364.303 237.761C364.303 236.449 364.917 235.273 366.263 235.273C367.61 235.273 368.223 236.449 368.223 237.761C368.223 239.074 367.61 240.233 366.263 240.233ZM370.764 243.455H371.77V239.994H371.855C372.077 240.352 372.503 241.136 373.764 241.136C375.401 241.136 376.543 239.824 376.543 237.744C376.543 235.682 375.401 234.369 373.747 234.369C372.469 234.369 372.077 235.153 371.855 235.494H371.736V234.455H370.764V243.455ZM371.753 237.727C371.753 236.261 372.401 235.273 373.628 235.273C374.906 235.273 375.537 236.347 375.537 237.727C375.537 239.125 374.889 240.233 373.628 240.233C372.418 240.233 371.753 239.21 371.753 237.727ZM383.122 234.455H382.116V237.774C381.631 237.915 381.132 238 380.531 238C379.713 238 379.082 237.54 379.082 236.534V234.438H378.077V236.534C378.077 238.136 379.048 238.938 380.531 238.938C381.149 238.938 381.643 238.857 382.116 238.716V241H383.122V234.455ZM387.712 241.136C389.041 241.136 390.013 240.472 390.32 239.483L389.348 239.21C389.092 239.892 388.5 240.233 387.712 240.233C386.531 240.233 385.717 239.47 385.67 238.068H390.422V237.642C390.422 235.205 388.973 234.369 387.609 234.369C385.837 234.369 384.661 235.767 384.661 237.778C384.661 239.79 385.82 241.136 387.712 241.136ZM385.67 237.199C385.739 236.18 386.459 235.273 387.609 235.273C388.7 235.273 389.399 236.091 389.399 237.199H385.67ZM394.611 241.136C396.06 241.136 397.014 240.25 397.185 239.091H396.179C395.991 239.807 395.395 240.233 394.611 240.233C393.418 240.233 392.651 239.244 392.651 237.727C392.651 236.244 393.435 235.273 394.611 235.273C395.497 235.273 396.026 235.818 396.179 236.415H397.185C397.014 235.188 395.974 234.369 394.594 234.369C392.821 234.369 391.645 235.767 391.645 237.761C391.645 239.722 392.77 241.136 394.611 241.136ZM398.655 241H399.661V238.239H400.564L402.712 241H404.007L401.331 237.608L403.973 234.455H402.678L400.325 237.301H399.661V234.455H398.655V241ZM407.49 241.136C409.262 241.136 410.456 239.79 410.456 237.761C410.456 235.716 409.262 234.369 407.49 234.369C405.717 234.369 404.524 235.716 404.524 237.761C404.524 239.79 405.717 241.136 407.49 241.136ZM407.49 240.233C406.143 240.233 405.529 239.074 405.529 237.761C405.529 236.449 406.143 235.273 407.49 235.273C408.836 235.273 409.45 236.449 409.45 237.761C409.45 239.074 408.836 240.233 407.49 240.233ZM414.735 241.136C416.065 241.136 417.036 240.472 417.343 239.483L416.371 239.21C416.116 239.892 415.523 240.233 414.735 240.233C413.555 240.233 412.741 239.47 412.694 238.068H417.445V237.642C417.445 235.205 415.996 234.369 414.633 234.369C412.86 234.369 411.684 235.767 411.684 237.778C411.684 239.79 412.843 241.136 414.735 241.136ZM412.694 237.199C412.762 236.18 413.482 235.273 414.633 235.273C415.724 235.273 416.423 236.091 416.423 237.199H412.694ZM343.5 254.636L341.25 249.455H339.92V256H340.926V250.899L343.091 256H343.909L346.074 250.993V256H347.08V249.455H345.784L343.5 254.636ZM349.926 251.824V249.455H348.92V256H351.665C353.199 256 354.034 255.062 354.034 253.886C354.034 252.693 353.199 251.824 351.665 251.824H349.926ZM355.074 256H356.08V249.455H355.074V256ZM349.926 252.761H351.665C352.462 252.761 353.028 253.247 353.028 253.938C353.028 254.598 352.462 255.062 351.665 255.062H349.926V252.761ZM357.92 249.455V256H365.881V249.455H364.875V255.062H362.403V249.455H361.398V255.062H358.926V249.455H357.92ZM367.138 256H367.479C368.928 256 369.345 254.875 369.439 252.727L369.541 250.392H371.945V256H372.95V249.455H368.587L368.467 252.352C368.382 254.551 368.161 255.062 367.376 255.062H367.138V256ZM377.54 256.136C378.869 256.136 379.841 255.472 380.148 254.483L379.176 254.21C378.92 254.892 378.328 255.233 377.54 255.233C376.359 255.233 375.545 254.47 375.499 253.068H380.25V252.642C380.25 250.205 378.801 249.369 377.438 249.369C375.665 249.369 374.489 250.767 374.489 252.778C374.489 254.79 375.648 256.136 377.54 256.136ZM375.499 252.199C375.567 251.18 376.287 250.273 377.438 250.273C378.528 250.273 379.227 251.091 379.227 252.199H375.499ZM382.786 249.455H381.78V256H382.786V253.205H385.922V256H386.928V249.455H385.922V252.267H382.786V249.455ZM389.77 254.517V249.455H388.764V256H389.94L393.077 250.938V256H394.082V249.455H392.923L389.77 254.517ZM398.669 256.136C399.998 256.136 400.97 255.472 401.277 254.483L400.305 254.21C400.049 254.892 399.457 255.233 398.669 255.233C397.488 255.233 396.674 254.47 396.627 253.068H401.379V252.642C401.379 250.205 399.93 249.369 398.566 249.369C396.794 249.369 395.618 250.767 395.618 252.778C395.618 254.79 396.777 256.136 398.669 256.136ZM396.627 252.199C396.696 251.18 397.416 250.273 398.566 250.273C399.657 250.273 400.356 251.091 400.356 252.199H396.627Z" fill="#1C1C1C"/>
<path d="M273.517 338.119H274.08C275.409 338.119 275.801 337.403 276.159 336.585L279.176 329.273H278.051L275.852 334.693L273.449 329.273H272.307L275.324 335.955L275.188 336.278C275 336.705 274.693 337.131 274.062 337.131H273.517V338.119ZM283.508 336.636L281.258 331.455H279.928V338H280.934V332.899L283.099 338H283.917L286.082 332.993V338H287.087V331.455H285.792L283.508 336.636ZM291.673 338.136C293.002 338.136 293.974 337.472 294.281 336.483L293.309 336.21C293.053 336.892 292.461 337.233 291.673 337.233C290.492 337.233 289.678 336.47 289.631 335.068H294.383V334.642C294.383 332.205 292.934 331.369 291.57 331.369C289.798 331.369 288.621 332.767 288.621 334.778C288.621 336.79 289.781 338.136 291.673 338.136ZM289.631 334.199C289.7 333.18 290.42 332.273 291.57 332.273C292.661 332.273 293.36 333.091 293.36 334.199H289.631ZM296.918 331.455H295.913V338H296.918V335.205H300.055V338H301.06V331.455H300.055V334.267H296.918V331.455ZM303.903 336.517V331.455H302.897V338H304.073L307.21 332.938V338H308.215V331.455H307.056L303.903 336.517ZM312.801 338.136C314.131 338.136 315.103 337.472 315.409 336.483L314.438 336.21C314.182 336.892 313.59 337.233 312.801 337.233C311.621 337.233 310.807 336.47 310.76 335.068H315.512V334.642C315.512 332.205 314.063 331.369 312.699 331.369C310.926 331.369 309.75 332.767 309.75 334.778C309.75 336.79 310.909 338.136 312.801 338.136ZM310.76 334.199C310.828 333.18 311.549 332.273 312.699 332.273C313.79 332.273 314.489 333.091 314.489 334.199H310.76ZM321.422 331.455H320.417V338H321.422V335.205H324.559V338H325.564V331.455H324.559V334.267H321.422V331.455ZM329.327 338.153C330.469 338.153 331.066 337.54 331.27 337.114H331.321V338H332.327V333.688C332.327 331.608 330.742 331.369 329.907 331.369C328.918 331.369 327.793 331.71 327.282 332.903L328.236 333.244C328.458 332.767 328.982 332.256 329.941 332.256C330.865 332.256 331.321 332.746 331.321 333.585V333.619C331.321 334.105 330.827 334.062 329.634 334.216C328.419 334.374 327.094 334.642 327.094 336.142C327.094 337.42 328.083 338.153 329.327 338.153ZM329.48 337.25C328.679 337.25 328.1 336.892 328.1 336.193C328.1 335.426 328.799 335.188 329.583 335.085C330.009 335.034 331.151 334.915 331.321 334.71V335.631C331.321 336.449 330.674 337.25 329.48 337.25ZM335.168 336.517V331.455H334.163V338H335.339L338.475 332.938V338H339.481V331.455H338.322L335.168 336.517ZM337.657 329.273C337.657 329.716 337.418 330.108 336.822 330.108C336.225 330.108 336.004 329.716 336.004 329.273H335.066C335.066 330.193 335.748 330.841 336.822 330.841C337.913 330.841 338.594 330.193 338.594 329.273H337.657ZM340.432 332.392H342.597V338H343.603V332.392H345.75V331.455H340.432V332.392ZM348.223 336.517V331.455H347.217V338H348.393L351.53 332.938V338H352.536V331.455H351.376L348.223 336.517ZM272.92 355.455H273.926V351.994H274.011C274.233 352.352 274.659 353.136 275.92 353.136C277.557 353.136 278.699 351.824 278.699 349.744C278.699 347.682 277.557 346.369 275.903 346.369C274.625 346.369 274.233 347.153 274.011 347.494H273.892V346.455H272.92V355.455ZM273.909 349.727C273.909 348.261 274.557 347.273 275.784 347.273C277.062 347.273 277.693 348.347 277.693 349.727C277.693 351.125 277.045 352.233 275.784 352.233C274.574 352.233 273.909 351.21 273.909 349.727ZM282.977 353.136C284.307 353.136 285.278 352.472 285.585 351.483L284.614 351.21C284.358 351.892 283.766 352.233 282.977 352.233C281.797 352.233 280.983 351.47 280.936 350.068H285.688V349.642C285.688 347.205 284.239 346.369 282.875 346.369C281.102 346.369 279.926 347.767 279.926 349.778C279.926 351.79 281.085 353.136 282.977 353.136ZM280.936 349.199C281.004 348.18 281.724 347.273 282.875 347.273C283.966 347.273 284.665 348.091 284.665 349.199H280.936ZM287.217 346.455V353H295.178V346.455H294.172V352.062H291.7V346.455H290.695V352.062H288.223V346.455H287.217ZM299.759 353.136C301.088 353.136 302.06 352.472 302.366 351.483L301.395 351.21C301.139 351.892 300.547 352.233 299.759 352.233C298.578 352.233 297.764 351.47 297.717 350.068H302.469V349.642C302.469 347.205 301.02 346.369 299.656 346.369C297.884 346.369 296.707 347.767 296.707 349.778C296.707 351.79 297.866 353.136 299.759 353.136ZM297.717 349.199C297.786 348.18 298.506 347.273 299.656 347.273C300.747 347.273 301.446 348.091 301.446 349.199H297.717ZM305.004 346.455H303.999V353H305.004V350.205H308.141V353H309.146V346.455H308.141V349.267H305.004V346.455ZM311.989 351.517V346.455H310.983V353H312.159L315.295 347.938V353H316.301V346.455H315.142L311.989 351.517ZM320.887 353.136C322.217 353.136 323.189 352.472 323.495 351.483L322.524 351.21C322.268 351.892 321.676 352.233 320.887 352.233C319.707 352.233 318.893 351.47 318.846 350.068H323.598V349.642C323.598 347.205 322.149 346.369 320.785 346.369C319.012 346.369 317.836 347.767 317.836 349.778C317.836 351.79 318.995 353.136 320.887 353.136ZM318.846 349.199C318.914 348.18 319.635 347.273 320.785 347.273C321.876 347.273 322.575 348.091 322.575 349.199H318.846ZM328.502 353H329.508V347.392H332.645V353H333.65V346.455H328.502V353ZM335.487 355.455H336.493V351.994H336.578C336.799 352.352 337.225 353.136 338.487 353.136C340.123 353.136 341.265 351.824 341.265 349.744C341.265 347.682 340.123 346.369 338.47 346.369C337.191 346.369 336.799 347.153 336.578 347.494H336.458V346.455H335.487V355.455ZM336.475 349.727C336.475 348.261 337.123 347.273 338.35 347.273C339.629 347.273 340.26 348.347 340.26 349.727C340.26 351.125 339.612 352.233 338.35 352.233C337.14 352.233 336.475 351.21 336.475 349.727ZM345.458 353.136C347.231 353.136 348.424 351.79 348.424 349.761C348.424 347.716 347.231 346.369 345.458 346.369C343.686 346.369 342.493 347.716 342.493 349.761C342.493 351.79 343.686 353.136 345.458 353.136ZM345.458 352.233C344.112 352.233 343.498 351.074 343.498 349.761C343.498 348.449 344.112 347.273 345.458 347.273C346.805 347.273 347.419 348.449 347.419 349.761C347.419 351.074 346.805 352.233 345.458 352.233ZM354.817 344C354.498 344.268 354.021 344.268 353.352 344.264C353.134 344.264 352.896 344.264 352.636 344.273C350.641 344.324 349.653 345.841 349.653 348.756V349.455C349.653 351.875 350.829 353.136 352.585 353.136C354.336 353.136 355.499 351.866 355.499 349.812C355.499 347.75 354.319 346.659 352.789 346.659C351.89 346.659 351.05 347.034 350.607 347.852H350.522C350.658 346.165 351.289 345.261 352.653 345.21C353.863 345.159 354.732 345.193 355.329 344.614L354.817 344ZM352.585 352.233C351.391 352.233 350.658 351.278 350.658 349.812C350.68 348.381 351.4 347.562 352.567 347.562C353.765 347.562 354.494 348.381 354.494 349.812C354.494 351.287 353.769 352.233 352.585 352.233ZM356.458 353H356.799C358.248 353 358.665 351.875 358.759 349.727L358.862 347.392H361.265V353H362.271V346.455H357.907L357.788 349.352C357.702 351.551 357.481 352.062 356.697 352.062H356.458V353ZM366.86 353.136C368.19 353.136 369.161 352.472 369.468 351.483L368.496 351.21C368.241 351.892 367.648 352.233 366.86 352.233C365.68 352.233 364.866 351.47 364.819 350.068H369.57V349.642C369.57 347.205 368.121 346.369 366.758 346.369C364.985 346.369 363.809 347.767 363.809 349.778C363.809 351.79 364.968 353.136 366.86 353.136ZM364.819 349.199C364.887 348.18 365.607 347.273 366.758 347.273C367.849 347.273 368.548 348.091 368.548 349.199H364.819ZM374.68 351.636L372.43 346.455H371.1V353H372.106V347.899L374.271 353H375.089L377.254 347.993V353H378.259V346.455H376.964L374.68 351.636ZM381.106 348.824V346.455H380.1V353H382.844C384.379 353 385.214 352.062 385.214 350.886C385.214 349.693 384.379 348.824 382.844 348.824H381.106ZM386.254 353H387.259V346.455H386.254V353ZM381.106 349.761H382.844C383.641 349.761 384.208 350.247 384.208 350.938C384.208 351.598 383.641 352.062 382.844 352.062H381.106V349.761Z" fill="#1C1C1C"/>
<path d="M81.0913 330.21H83.8356V338H84.8924V330.21H87.6367V329.273H81.0913V330.21ZM90.8413 338.136C92.614 338.136 93.8072 336.79 93.8072 334.761C93.8072 332.716 92.614 331.369 90.8413 331.369C89.0685 331.369 87.8754 332.716 87.8754 334.761C87.8754 336.79 89.0685 338.136 90.8413 338.136ZM90.8413 337.233C89.4947 337.233 88.881 336.074 88.881 334.761C88.881 333.449 89.4947 332.273 90.8413 332.273C92.1879 332.273 92.8015 333.449 92.8015 334.761C92.8015 336.074 92.1879 337.233 90.8413 337.233ZM100.388 331.455H99.3821V334.774C98.8963 334.915 98.3977 335 97.7969 335C96.9787 335 96.348 334.54 96.348 333.534V331.438H95.3423V333.534C95.3423 335.136 96.3139 335.938 97.7969 335.938C98.4148 335.938 98.9091 335.857 99.3821 335.716V338H100.388V331.455ZM103.239 331.455H102.233V338H103.239V335.205H106.375V338H107.381V331.455H106.375V334.267H103.239V331.455ZM110.223 333.824V331.455H109.217V338H111.962C113.496 338 114.331 337.062 114.331 335.886C114.331 334.693 113.496 333.824 111.962 333.824H110.223ZM115.371 338H116.376V331.455H115.371V338ZM110.223 334.761H111.962C112.759 334.761 113.325 335.247 113.325 335.938C113.325 336.598 112.759 337.062 111.962 337.062H110.223V334.761ZM120.962 338.136C122.291 338.136 123.263 337.472 123.57 336.483L122.598 336.21C122.342 336.892 121.75 337.233 120.962 337.233C119.781 337.233 118.967 336.47 118.92 335.068H123.672V334.642C123.672 332.205 122.223 331.369 120.859 331.369C119.087 331.369 117.911 332.767 117.911 334.778C117.911 336.79 119.07 338.136 120.962 338.136ZM118.92 334.199C118.989 333.18 119.709 332.273 120.859 332.273C121.95 332.273 122.649 333.091 122.649 334.199H118.92ZM129.582 331.455H128.577V338H129.582V335.205H132.719V338H133.724V331.455H132.719V334.267H129.582V331.455ZM137.487 338.153C138.629 338.153 139.226 337.54 139.43 337.114H139.482V338H140.487V333.688C140.487 331.608 138.902 331.369 138.067 331.369C137.078 331.369 135.953 331.71 135.442 332.903L136.396 333.244C136.618 332.767 137.142 332.256 138.101 332.256C139.026 332.256 139.482 332.746 139.482 333.585V333.619C139.482 334.105 138.987 334.062 137.794 334.216C136.58 334.374 135.254 334.642 135.254 336.142C135.254 337.42 136.243 338.153 137.487 338.153ZM137.641 337.25C136.839 337.25 136.26 336.892 136.26 336.193C136.26 335.426 136.959 335.188 137.743 335.085C138.169 335.034 139.311 334.915 139.482 334.71V335.631C139.482 336.449 138.834 337.25 137.641 337.25ZM142.736 340.455C143.644 340.455 144.283 339.973 144.662 338.955L147.449 331.472L146.35 331.455L144.543 336.67H144.475L142.668 331.455H141.577L143.998 338.034L143.81 338.545C143.444 339.543 142.992 339.636 142.259 339.449L142.003 340.335C142.105 340.386 142.395 340.455 142.736 340.455ZM148.78 338H149.786V335.239H150.689L152.837 338H154.132L151.456 334.608L154.098 331.455H152.803L150.45 334.301H149.786V331.455H148.78V338ZM156.231 336.517V331.455H155.225V338H156.401L159.538 332.938V338H160.543V331.455H159.384L156.231 336.517ZM166.766 336.517V331.455H165.76V338H166.936L170.073 332.938V338H171.078V331.455H169.919L166.766 336.517ZM123.092 355.455H124.098V351.994H124.183C124.405 352.352 124.831 353.136 126.092 353.136C127.729 353.136 128.871 351.824 128.871 349.744C128.871 347.682 127.729 346.369 126.075 346.369C124.797 346.369 124.405 347.153 124.183 347.494H124.064V346.455H123.092V355.455ZM124.081 349.727C124.081 348.261 124.729 347.273 125.956 347.273C127.234 347.273 127.865 348.347 127.865 349.727C127.865 351.125 127.217 352.233 125.956 352.233C124.746 352.233 124.081 351.21 124.081 349.727ZM132.331 353.153C133.473 353.153 134.07 352.54 134.274 352.114H134.325V353H135.331V348.688C135.331 346.608 133.746 346.369 132.911 346.369C131.922 346.369 130.797 346.71 130.286 347.903L131.24 348.244C131.462 347.767 131.986 347.256 132.945 347.256C133.869 347.256 134.325 347.746 134.325 348.585V348.619C134.325 349.105 133.831 349.062 132.638 349.216C131.423 349.374 130.098 349.642 130.098 351.142C130.098 352.42 131.087 353.153 132.331 353.153ZM132.484 352.25C131.683 352.25 131.104 351.892 131.104 351.193C131.104 350.426 131.803 350.188 132.587 350.085C133.013 350.034 134.155 349.915 134.325 349.71V350.631C134.325 351.449 133.678 352.25 132.484 352.25ZM139.826 353.136C141.275 353.136 142.229 352.25 142.4 351.091H141.394C141.206 351.807 140.61 352.233 139.826 352.233C138.632 352.233 137.865 351.244 137.865 349.727C137.865 348.244 138.65 347.273 139.826 347.273C140.712 347.273 141.24 347.818 141.394 348.415H142.4C142.229 347.188 141.189 346.369 139.809 346.369C138.036 346.369 136.86 347.767 136.86 349.761C136.86 351.722 137.985 353.136 139.826 353.136ZM148.915 346.455H147.909V349.774C147.424 349.915 146.925 350 146.324 350C145.506 350 144.875 349.54 144.875 348.534V346.438H143.87V348.534C143.87 350.136 144.841 350.938 146.324 350.938C146.942 350.938 147.436 350.857 147.909 350.716V353H148.915V346.455ZM153.505 353.136C154.834 353.136 155.806 352.472 156.113 351.483L155.141 351.21C154.885 351.892 154.293 352.233 153.505 352.233C152.324 352.233 151.51 351.47 151.463 350.068H156.215V349.642C156.215 347.205 154.766 346.369 153.402 346.369C151.63 346.369 150.453 347.767 150.453 349.778C150.453 351.79 151.613 353.136 153.505 353.136ZM151.463 349.199C151.532 348.18 152.252 347.273 153.402 347.273C154.493 347.273 155.192 348.091 155.192 349.199H151.463ZM157.135 347.392H159.3V353H160.306V347.392H162.453V346.455H157.135V347.392ZM164.926 348.824V346.455H163.92V353H166.665C168.199 353 169.034 352.062 169.034 350.886C169.034 349.693 168.199 348.824 166.665 348.824H164.926ZM170.074 353H171.08V346.455H170.074V353ZM164.926 349.761H166.665C167.462 349.761 168.028 350.247 168.028 350.938C168.028 351.598 167.462 352.062 166.665 352.062H164.926V349.761Z" fill="#1C1C1C"/>
<rect x="141" y="297" width="31" height="25" rx="6" fill="#EC5147"/>
<path d="M152.07 314.119C153.885 314.119 155.168 313.088 155.176 311.673C155.168 310.574 154.396 309.649 153.42 309.474V309.423C154.268 309.219 154.844 308.422 154.852 307.48C154.844 306.146 153.668 305.153 152.07 305.153C150.455 305.153 149.278 306.146 149.287 307.48C149.278 308.418 149.854 309.219 150.719 309.423V309.474C149.726 309.649 148.955 310.574 148.963 311.673C148.955 313.088 150.237 314.119 152.07 314.119ZM152.07 313.041C150.979 313.041 150.288 312.462 150.297 311.588C150.288 310.68 151.038 310.033 152.07 310.033C153.084 310.033 153.834 310.68 153.842 311.588C153.834 312.462 153.148 313.041 152.07 313.041ZM152.07 308.98C151.188 308.98 150.561 308.422 150.57 307.591C150.561 306.773 151.166 306.232 152.07 306.232C152.956 306.232 153.561 306.773 153.57 307.591C153.561 308.422 152.939 308.98 152.07 308.98ZM157.29 314.081C157.754 314.081 158.142 313.702 158.142 313.229C158.142 312.764 157.754 312.381 157.29 312.381C156.821 312.381 156.438 312.764 156.438 313.229C156.438 313.702 156.821 314.081 157.29 314.081ZM159.903 314H161.279L165.076 306.44V305.273H159.306V306.402H163.713V306.466L159.903 314Z" fill="white"/>
<rect x="71" y="182" width="31" height="25" rx="6" fill="#EC5147"/>
<path d="M82.0696 199.119C83.8849 199.119 85.1676 198.088 85.1761 196.673C85.1676 195.574 84.3963 194.649 83.4205 194.474V194.423C84.2685 194.219 84.8438 193.422 84.8523 192.48C84.8438 191.146 83.6676 190.153 82.0696 190.153C80.4545 190.153 79.2784 191.146 79.2869 192.48C79.2784 193.418 79.8537 194.219 80.7188 194.423V194.474C79.7259 194.649 78.9545 195.574 78.9631 196.673C78.9545 198.088 80.2372 199.119 82.0696 199.119ZM82.0696 198.041C80.9787 198.041 80.2884 197.462 80.2969 196.588C80.2884 195.68 81.0384 195.033 82.0696 195.033C83.0838 195.033 83.8338 195.68 83.8423 196.588C83.8338 197.462 83.1477 198.041 82.0696 198.041ZM82.0696 193.98C81.1875 193.98 80.5611 193.422 80.5696 192.591C80.5611 191.773 81.1662 191.232 82.0696 191.232C82.956 191.232 83.5611 191.773 83.5696 192.591C83.5611 193.422 82.9389 193.98 82.0696 193.98ZM87.2898 199.081C87.7543 199.081 88.142 198.702 88.142 198.229C88.142 197.764 87.7543 197.381 87.2898 197.381C86.821 197.381 86.4375 197.764 86.4375 198.229C86.4375 198.702 86.821 199.081 87.2898 199.081ZM89.9031 199H91.2795L95.0763 191.44V190.273H89.3065V191.402H93.7127V191.466L89.9031 199Z" fill="white"/>
<rect x="339" y="182" width="31" height="25" rx="6" fill="#EC5147"/>
<path d="M350.07 199.119C351.885 199.119 353.168 198.088 353.176 196.673C353.168 195.574 352.396 194.649 351.42 194.474V194.423C352.268 194.219 352.844 193.422 352.852 192.48C352.844 191.146 351.668 190.153 350.07 190.153C348.455 190.153 347.278 191.146 347.287 192.48C347.278 193.418 347.854 194.219 348.719 194.423V194.474C347.726 194.649 346.955 195.574 346.963 196.673C346.955 198.088 348.237 199.119 350.07 199.119ZM350.07 198.041C348.979 198.041 348.288 197.462 348.297 196.588C348.288 195.68 349.038 195.033 350.07 195.033C351.084 195.033 351.834 195.68 351.842 196.588C351.834 197.462 351.148 198.041 350.07 198.041ZM350.07 193.98C349.188 193.98 348.561 193.422 348.57 192.591C348.561 191.773 349.166 191.232 350.07 191.232C350.956 191.232 351.561 191.773 351.57 192.591C351.561 193.422 350.939 193.98 350.07 193.98ZM355.29 199.081C355.754 199.081 356.142 198.702 356.142 198.229C356.142 197.764 355.754 197.381 355.29 197.381C354.821 197.381 354.438 197.764 354.438 198.229C354.438 198.702 354.821 199.081 355.29 199.081ZM357.903 199H359.279L363.076 191.44V190.273H357.306V191.402H361.713V191.466L357.903 199Z" fill="white"/>
<rect x="272" y="69" width="31" height="25" rx="6" fill="#EC5147"/>
<path d="M283.07 86.1193C284.885 86.1193 286.168 85.0881 286.176 83.6733C286.168 82.5739 285.396 81.6491 284.42 81.4744V81.4233C285.268 81.2188 285.844 80.4219 285.852 79.4801C285.844 78.1463 284.668 77.1534 283.07 77.1534C281.455 77.1534 280.278 78.1463 280.287 79.4801C280.278 80.4176 280.854 81.2188 281.719 81.4233V81.4744C280.726 81.6491 279.955 82.5739 279.963 83.6733C279.955 85.0881 281.237 86.1193 283.07 86.1193ZM283.07 85.0412C281.979 85.0412 281.288 84.4616 281.297 83.5881C281.288 82.6804 282.038 82.0327 283.07 82.0327C284.084 82.0327 284.834 82.6804 284.842 83.5881C284.834 84.4616 284.148 85.0412 283.07 85.0412ZM283.07 80.9801C282.188 80.9801 281.561 80.4219 281.57 79.5909C281.561 78.7727 282.166 78.2315 283.07 78.2315C283.956 78.2315 284.561 78.7727 284.57 79.5909C284.561 80.4219 283.939 80.9801 283.07 80.9801ZM288.29 86.081C288.754 86.081 289.142 85.7017 289.142 85.2287C289.142 84.7642 288.754 84.3807 288.29 84.3807C287.821 84.3807 287.438 84.7642 287.438 85.2287C287.438 85.7017 287.821 86.081 288.29 86.081ZM290.903 86H292.279L296.076 78.4403V77.2727H290.306V78.402H294.713V78.4659L290.903 86Z" fill="white"/>
<rect x="272" y="297" width="31" height="25" rx="6" fill="#EC5147"/>
<path d="M283.07 314.119C284.885 314.119 286.168 313.088 286.176 311.673C286.168 310.574 285.396 309.649 284.42 309.474V309.423C285.268 309.219 285.844 308.422 285.852 307.48C285.844 306.146 284.668 305.153 283.07 305.153C281.455 305.153 280.278 306.146 280.287 307.48C280.278 308.418 280.854 309.219 281.719 309.423V309.474C280.726 309.649 279.955 310.574 279.963 311.673C279.955 313.088 281.237 314.119 283.07 314.119ZM283.07 313.041C281.979 313.041 281.288 312.462 281.297 311.588C281.288 310.68 282.038 310.033 283.07 310.033C284.084 310.033 284.834 310.68 284.842 311.588C284.834 312.462 284.148 313.041 283.07 313.041ZM283.07 308.98C282.188 308.98 281.561 308.422 281.57 307.591C281.561 306.773 282.166 306.232 283.07 306.232C283.956 306.232 284.561 306.773 284.57 307.591C284.561 308.422 283.939 308.98 283.07 308.98ZM288.29 314.081C288.754 314.081 289.142 313.702 289.142 313.229C289.142 312.764 288.754 312.381 288.29 312.381C287.821 312.381 287.438 312.764 287.438 313.229C287.438 313.702 287.821 314.081 288.29 314.081ZM290.903 314H292.279L296.076 306.44V305.273H290.306V306.402H294.713V306.466L290.903 314Z" fill="white"/>
<path d="M166.438 101.019L274.561 101.019L328.622 194.656L274.561 288.292H166.438L112.377 194.656L166.438 101.019Z" stroke="#C4D8FF"/>
<path d="M179.181 123.091L261.818 123.091L303.136 194.656L261.818 266.221H179.181L137.863 194.656L179.181 123.091Z" stroke="#C4D8FF"/>
<path d="M191.662 144.709L249.337 144.709L278.174 194.656L249.337 244.603H191.662L162.825 194.656L191.662 144.709Z" stroke="#C4D8FF"/>
<path d="M205.035 167.871L235.964 167.871L251.429 194.656L235.964 221.441L205.035 221.441L189.571 194.656L205.035 167.871Z" stroke="#C4D8FF"/>
<line x1="166.929" y1="101.189" x2="275.624" y2="288.309" stroke="#C3D8FF"/>
<line x1="166.929" y1="101.189" x2="275.624" y2="288.309" stroke="#C3D8FF"/>
<line x1="112.837" y1="194.5" x2="328.163" y2="194.5" stroke="#C3D8FF"/>
<line x1="112.837" y1="194.5" x2="328.163" y2="194.5" stroke="#C3D8FF"/>
<line x1="275.62" y1="101.697" x2="163.485" y2="288.817" stroke="#C3D8FF"/>
<line x1="275.62" y1="101.697" x2="163.485" y2="288.817" stroke="#C3D8FF"/>
<circle cx="166.496" cy="101.44" r="3.43972" fill="#77A5FE"/>
<circle cx="166.496" cy="288.56" r="3.43972" fill="#77A5FE"/>
<circle cx="275.191" cy="101.44" r="3.43972" fill="#77A5FE"/>
<circle cx="275.191" cy="288.56" r="3.43972" fill="#77A5FE"/>
<circle cx="328.163" cy="195" r="3.43972" fill="#77A5FE"/>
<circle cx="112.837" cy="195" r="3.43972" fill="#77A5FE"/>
<path d="M188.5 137L173 193V271.5L257 254L268 193L225.5 185L188.5 137Z" fill="#E95FBF" fill-opacity="0.2" stroke="#E95FBF"/>
</svg>
