<svg width="733" height="119" viewBox="0 0 733 119" fill="none" xmlns="http://www.w3.org/2000/svg">
<rect x="183.5" y="0.5" width="97" height="118" rx="5.5" fill="#E4E5E9" stroke="#D1D4D8"/>
<path opacity="0.54" fill-rule="evenodd" clip-rule="evenodd" d="M204 87C197.95 87 193 91.95 193 98C193 104.05 197.95 109 204 109C210.05 109 215 104.05 215 98C215 91.95 210.05 87 204 87ZM204 107C199.05 107 195 102.95 195 98C195 93.05 199.05 89 204 89C208.95 89 213 93.05 213 98C213 102.95 208.95 107 204 107Z" fill="#6A8BF0"/>
<rect x="193" y="11" width="25" height="28" rx="4" fill="#C9CDDC"/>
<path fill-rule="evenodd" clip-rule="evenodd" d="M255 46H193V51H255V46ZM255 55H193V60H255V55ZM193 64H269V69H193V64ZM242 73H193V78H242V73Z" fill="#D6D6D6"/>
<path fill-rule="evenodd" clip-rule="evenodd" d="M263 11H223V16H263V11ZM245 20H223V25H245V20ZM223 29H245V34H223V29ZM269 20H247V25H269V20Z" fill="#D6D6D6"/>
<rect x="297.5" y="1.5" width="95" height="116" rx="4.5" fill="#E4E5E9" stroke="#6A8BF0" stroke-width="3"/>
<path fill-rule="evenodd" clip-rule="evenodd" d="M311 98C311 101.36 313.64 104 317 104C320.36 104 323 101.36 323 98C323 94.64 320.36 92 317 92C313.64 92 311 94.64 311 98ZM306 98C306 104.05 310.95 109 317 109C323.05 109 328 104.05 328 98C328 91.95 323.05 87 317 87C310.95 87 306 91.95 306 98ZM308 98C308 93.05 312.05 89 317 89C321.95 89 326 93.05 326 98C326 102.95 321.95 107 317 107C312.05 107 308 102.95 308 98Z" fill="#0D6EFD"/>
<rect x="306" y="11" width="25" height="28" rx="4" fill="#C9CDDC"/>
<path fill-rule="evenodd" clip-rule="evenodd" d="M368 46H306V51H368V46ZM368 55H306V60H368V55ZM306 64H382V69H306V64ZM355 73H306V78H355V73Z" fill="#D6D6D6"/>
<path fill-rule="evenodd" clip-rule="evenodd" d="M376 11H336V16H376V11ZM358 20H336V25H358V20ZM336 29H358V34H336V29ZM382 20H360V25H382V20Z" fill="#D6D6D6"/>
<rect x="522.5" y="0.5" width="97" height="118" rx="5.5" fill="#E4E5E9" stroke="#D1D4D8"/>
<path opacity="0.54" fill-rule="evenodd" clip-rule="evenodd" d="M543 87C536.95 87 532 91.95 532 98C532 104.05 536.95 109 543 109C549.05 109 554 104.05 554 98C554 91.95 549.05 87 543 87ZM543 107C538.05 107 534 102.95 534 98C534 93.05 538.05 89 543 89C547.95 89 552 93.05 552 98C552 102.95 547.95 107 543 107Z" fill="#6A8BF0"/>
<rect x="532" y="11" width="25" height="28" rx="4" fill="#C9CDDC"/>
<path fill-rule="evenodd" clip-rule="evenodd" d="M594 46H532V51H594V46ZM594 55H532V60H594V55ZM532 64H608V69H532V64ZM581 73H532V78H581V73Z" fill="#D6D6D6"/>
<path fill-rule="evenodd" clip-rule="evenodd" d="M602 11H562V16H602V11ZM584 20H562V25H584V20ZM562 29H584V34H562V29ZM608 20H586V25H608V20Z" fill="#D6D6D6"/>
<rect x="409.5" y="0.5" width="97" height="118" rx="5.5" fill="#E4E5E9" stroke="#D1D4D8"/>
<path opacity="0.54" fill-rule="evenodd" clip-rule="evenodd" d="M430 87C423.95 87 419 91.95 419 98C419 104.05 423.95 109 430 109C436.05 109 441 104.05 441 98C441 91.95 436.05 87 430 87ZM430 107C425.05 107 421 102.95 421 98C421 93.05 425.05 89 430 89C434.95 89 439 93.05 439 98C439 102.95 434.95 107 430 107Z" fill="#6A8BF0"/>
<rect x="419" y="11" width="25" height="28" rx="4" fill="#C9CDDC"/>
<path fill-rule="evenodd" clip-rule="evenodd" d="M481 46H419V51H481V46ZM481 55H419V60H481V55ZM419 64H495V69H419V64ZM468 73H419V78H468V73Z" fill="#D6D6D6"/>
<path fill-rule="evenodd" clip-rule="evenodd" d="M489 11H449V16H489V11ZM471 20H449V25H471V20ZM449 29H471V34H449V29ZM495 20H473V25H495V20Z" fill="#D6D6D6"/>
<rect x="635.5" y="0.5" width="97" height="118" rx="5.5" fill="#E4E5E9" stroke="#D1D4D8"/>
<path opacity="0.54" fill-rule="evenodd" clip-rule="evenodd" d="M656 87C649.95 87 645 91.95 645 98C645 104.05 649.95 109 656 109C662.05 109 667 104.05 667 98C667 91.95 662.05 87 656 87ZM656 107C651.05 107 647 102.95 647 98C647 93.05 651.05 89 656 89C660.95 89 665 93.05 665 98C665 102.95 660.95 107 656 107Z" fill="#6A8BF0"/>
<rect x="645" y="11" width="25" height="28" rx="4" fill="#C9CDDC"/>
<path fill-rule="evenodd" clip-rule="evenodd" d="M707 46H645V51H707V46ZM707 55H645V60H707V55ZM645 64H721V69H645V64ZM694 73H645V78H694V73Z" fill="#D6D6D6"/>
<path fill-rule="evenodd" clip-rule="evenodd" d="M715 11H675V16H715V11ZM697 20H675V25H697V20ZM675 29H697V34H675V29ZM721 20H699V25H721V20Z" fill="#D6D6D6"/>
<path d="M6.4 20.2C5.50667 20.2 4.63333 20.1 3.78 19.9C2.94 19.7 2.20667 19.4 1.58 19C1.27333 18.8 1.08667 18.5533 1.02 18.26C0.953333 17.9667 0.973333 17.6933 1.08 17.44C1.2 17.1733 1.38 16.9933 1.62 16.9C1.87333 16.7933 2.16 16.84 2.48 17.04C3.06667 17.3867 3.68667 17.64 4.34 17.8C4.99333 17.96 5.68 18.04 6.4 18.04C7.45333 18.04 8.22 17.8667 8.7 17.52C9.18 17.16 9.42 16.7 9.42 16.14C9.42 15.6733 9.24667 15.3067 8.9 15.04C8.56667 14.7733 7.98667 14.5533 7.16 14.38L4.96 13.92C2.45333 13.3867 1.2 12.1 1.2 10.06C1.2 9.18 1.43333 8.41333 1.9 7.76C2.36667 7.10667 3.01333 6.6 3.84 6.24C4.66667 5.88 5.62 5.7 6.7 5.7C7.5 5.7 8.26 5.8 8.98 6C9.7 6.2 10.3467 6.49333 10.92 6.88C11.1867 7.06667 11.3467 7.3 11.4 7.58C11.4533 7.84667 11.42 8.1 11.3 8.34C11.18 8.56667 10.9867 8.72667 10.72 8.82C10.4667 8.9 10.1667 8.84 9.82 8.64C9.32667 8.36 8.82667 8.16 8.32 8.04C7.81333 7.92 7.26667 7.86 6.68 7.86C5.76 7.86 5.04 8.05333 4.52 8.44C4 8.82667 3.74 9.33333 3.74 9.96C3.74 10.44 3.9 10.8267 4.22 11.12C4.54 11.4 5.08667 11.62 5.86 11.78L8.04 12.24C9.36 12.52 10.34 12.96 10.98 13.56C11.6333 14.16 11.96 14.96 11.96 15.96C11.96 16.8 11.7333 17.54 11.28 18.18C10.8267 18.82 10.18 19.32 9.34 19.68C8.51333 20.0267 7.53333 20.2 6.4 20.2ZM14.9572 20.16C14.1305 20.16 13.7172 19.7333 13.7172 18.88V7C13.7172 6.16 14.1305 5.74 14.9572 5.74C15.7972 5.74 16.2172 6.16 16.2172 7V11.64C16.5505 11.1067 16.9972 10.7067 17.5572 10.44C18.1172 10.16 18.7372 10.02 19.4172 10.02C21.7239 10.02 22.8772 11.36 22.8772 14.04V18.88C22.8772 19.7333 22.4639 20.16 21.6372 20.16C20.7972 20.16 20.3772 19.7333 20.3772 18.88V14.16C20.3772 13.4 20.2305 12.8467 19.9372 12.5C19.6572 12.1533 19.2172 11.98 18.6172 11.98C17.8839 11.98 17.2972 12.2133 16.8572 12.68C16.4305 13.1333 16.2172 13.74 16.2172 14.5V18.88C16.2172 19.7333 15.7972 20.16 14.9572 20.16ZM28.4364 20.2C27.7297 20.2 27.0964 20.0667 26.5364 19.8C25.9897 19.52 25.5564 19.1467 25.2364 18.68C24.9297 18.2133 24.7764 17.6867 24.7764 17.1C24.7764 16.38 24.9631 15.8133 25.3364 15.4C25.7097 14.9733 26.3164 14.6667 27.1564 14.48C27.9964 14.2933 29.1231 14.2 30.5364 14.2H31.2364V13.78C31.2364 13.1133 31.0897 12.6333 30.7964 12.34C30.5031 12.0467 30.0097 11.9 29.3164 11.9C28.9297 11.9 28.5097 11.9467 28.0564 12.04C27.6164 12.1333 27.1497 12.2933 26.6564 12.52C26.3364 12.6667 26.0697 12.6867 25.8564 12.58C25.6431 12.46 25.4964 12.28 25.4164 12.04C25.3497 11.7867 25.3631 11.5333 25.4564 11.28C25.5631 11.0267 25.7697 10.84 26.0764 10.72C26.6897 10.4667 27.2764 10.2867 27.8364 10.18C28.4097 10.0733 28.9297 10.02 29.3964 10.02C30.8231 10.02 31.8831 10.3533 32.5764 11.02C33.2697 11.6733 33.6164 12.6933 33.6164 14.08V18.88C33.6164 19.7333 33.2297 20.16 32.4564 20.16C31.6697 20.16 31.2764 19.7333 31.2764 18.88V18.44C31.0497 18.9867 30.6897 19.42 30.1964 19.74C29.7031 20.0467 29.1164 20.2 28.4364 20.2ZM28.9564 18.48C29.6097 18.48 30.1497 18.2533 30.5764 17.8C31.0164 17.3467 31.2364 16.7733 31.2364 16.08V15.64H30.5564C29.3031 15.64 28.4297 15.74 27.9364 15.94C27.4564 16.1267 27.2164 16.4733 27.2164 16.98C27.2164 17.42 27.3697 17.78 27.6764 18.06C27.9831 18.34 28.4097 18.48 28.9564 18.48ZM41.5939 20.2C40.8739 20.2 40.2339 20.0467 39.6739 19.74C39.1139 19.42 38.6939 18.9933 38.4139 18.46V18.88C38.4139 19.7333 38.0072 20.16 37.1939 20.16C36.3672 20.16 35.9539 19.7333 35.9539 18.88V7C35.9539 6.16 36.3672 5.74 37.1939 5.74C38.0339 5.74 38.4539 6.16 38.4539 7V11.66C38.7472 11.1667 39.1672 10.7733 39.7139 10.48C40.2739 10.1733 40.9006 10.02 41.5939 10.02C42.4606 10.02 43.2139 10.2267 43.8539 10.64C44.4939 11.0533 44.9939 11.64 45.3539 12.4C45.7139 13.1467 45.8939 14.0467 45.8939 15.1C45.8939 16.14 45.7139 17.0467 45.3539 17.82C44.9939 18.58 44.4872 19.1667 43.8339 19.58C43.1939 19.9933 42.4472 20.2 41.5939 20.2ZM40.8939 18.3C41.6406 18.3 42.2406 18.0333 42.6939 17.5C43.1472 16.9533 43.3739 16.1533 43.3739 15.1C43.3739 14.0333 43.1472 13.24 42.6939 12.72C42.2406 12.1867 41.6406 11.92 40.8939 11.92C40.1472 11.92 39.5472 12.1867 39.0939 12.72C38.6406 13.24 38.4139 14.0333 38.4139 15.1C38.4139 16.1533 38.6406 16.9533 39.0939 17.5C39.5472 18.0333 40.1472 18.3 40.8939 18.3ZM51.0861 20.2C48.8594 20.2 47.7461 18.9533 47.7461 16.46V7C47.7461 6.16 48.1594 5.74 48.9861 5.74C49.8261 5.74 50.2461 6.16 50.2461 7V16.34C50.2461 17.54 50.7461 18.14 51.7461 18.14C51.8528 18.14 51.9528 18.14 52.0461 18.14C52.1394 18.1267 52.2328 18.1133 52.3261 18.1C52.5128 18.0733 52.6394 18.1267 52.7061 18.26C52.7728 18.38 52.8061 18.6333 52.8061 19.02C52.8061 19.3533 52.7394 19.6133 52.6061 19.8C52.4728 19.9867 52.2528 20.1 51.9461 20.14C51.6661 20.18 51.3794 20.2 51.0861 20.2ZM58.2952 20.2C57.2818 20.2 56.4018 19.9933 55.6552 19.58C54.9085 19.1667 54.3285 18.58 53.9152 17.82C53.5018 17.0467 53.2952 16.14 53.2952 15.1C53.2952 14.06 53.5018 13.16 53.9152 12.4C54.3285 11.64 54.9085 11.0533 55.6552 10.64C56.4018 10.2267 57.2818 10.02 58.2952 10.02C59.3085 10.02 60.1885 10.2267 60.9352 10.64C61.6818 11.0533 62.2618 11.64 62.6752 12.4C63.0885 13.16 63.2952 14.06 63.2952 15.1C63.2952 16.14 63.0885 17.0467 62.6752 17.82C62.2618 18.58 61.6818 19.1667 60.9352 19.58C60.1885 19.9933 59.3085 20.2 58.2952 20.2ZM58.2952 18.3C59.0418 18.3 59.6418 18.0333 60.0952 17.5C60.5485 16.9533 60.7752 16.1533 60.7752 15.1C60.7752 14.0333 60.5485 13.24 60.0952 12.72C59.6418 12.1867 59.0418 11.92 58.2952 11.92C57.5485 11.92 56.9485 12.1867 56.4952 12.72C56.0418 13.24 55.8152 14.0333 55.8152 15.1C55.8152 16.1533 56.0418 16.9533 56.4952 17.5C56.9485 18.0333 57.5485 18.3 58.2952 18.3ZM66.3986 20.16C65.5719 20.16 65.1586 19.7333 65.1586 18.88V11.32C65.1586 10.48 65.5653 10.06 66.3786 10.06C67.1919 10.06 67.5986 10.48 67.5986 11.32V11.74C67.9319 11.18 68.3786 10.7533 68.9386 10.46C69.5119 10.1667 70.1519 10.02 70.8586 10.02C73.1653 10.02 74.3186 11.36 74.3186 14.04V18.88C74.3186 19.7333 73.9053 20.16 73.0786 20.16C72.2386 20.16 71.8186 19.7333 71.8186 18.88V14.16C71.8186 13.4 71.6719 12.8467 71.3786 12.5C71.0986 12.1533 70.6586 11.98 70.0586 11.98C69.3253 11.98 68.7386 12.2133 68.2986 12.68C67.8719 13.1333 67.6586 13.74 67.6586 14.5V18.88C67.6586 19.7333 67.2386 20.16 66.3986 20.16Z" fill="black"/>
</svg>
