<svg width="226" height="40" viewBox="0 0 226 40" fill="none" xmlns="http://www.w3.org/2000/svg">
<path d="M1.82955 3.81818H0.377841L3.65909 8.90909L0.377841 14H1.82955L4.45455 9.84375H4.53409L7.15909 14H8.6108L5.40909 8.90909L8.6108 3.81818H7.15909L4.53409 8.05398H4.45455L1.82955 3.81818ZM10.0563 14H11.2296V6.36364H10.0563V14ZM10.6529 5.09091C11.1103 5.09091 11.4881 4.73295 11.4881 4.29545C11.4881 3.85795 11.1103 3.5 10.6529 3.5C10.1955 3.5 9.81765 3.85795 9.81765 4.29545C9.81765 4.73295 10.1955 5.09091 10.6529 5.09091ZM13.3786 14H14.5518V9.22727C14.5518 8.10866 15.3672 7.31818 16.282 7.31818C17.1719 7.31818 17.7933 7.89986 17.7933 8.76989V14H18.9865V9.02841C18.9865 8.04403 19.603 7.31818 20.6768 7.31818C21.5121 7.31818 22.228 7.76065 22.228 8.8892V14H23.4013V8.8892C23.4013 7.09446 22.4368 6.2642 21.0746 6.2642C19.9808 6.2642 19.1804 6.76633 18.7876 7.55682H18.7081C18.3303 6.74148 17.6641 6.2642 16.6598 6.2642C15.6655 6.2642 14.9297 6.74148 14.6115 7.55682H14.5121V6.36364H13.3786V14ZM25.5465 14H26.7198V6.36364H25.5465V14ZM26.1431 5.09091C26.6005 5.09091 26.9783 4.73295 26.9783 4.29545C26.9783 3.85795 26.6005 3.5 26.1431 3.5C25.6857 3.5 25.3079 3.85795 25.3079 4.29545C25.3079 4.73295 25.6857 5.09091 26.1431 5.09091ZM29.6245 16.8636C30.6834 16.8636 31.4292 16.3018 31.8716 15.1136L35.123 6.38352L33.8404 6.36364L31.7324 12.4489H31.6529L29.5449 6.36364H28.2722L31.0961 14.0398L30.8773 14.6364C30.4498 15.7997 29.9228 15.9091 29.0676 15.6903L28.7694 16.7244C28.8887 16.7841 29.2267 16.8636 29.6245 16.8636ZM38.6902 14.179C40.0225 14.179 40.7186 13.4631 40.9572 12.9659H41.0169V14H42.1902V8.96875C42.1902 6.54261 40.3407 6.2642 39.3663 6.2642C38.2129 6.2642 36.9004 6.66193 36.3038 8.05398L37.4174 8.4517C37.676 7.89489 38.2875 7.2983 39.4061 7.2983C40.4849 7.2983 41.0169 7.87003 41.0169 8.84943V8.8892C41.0169 9.45597 40.4402 9.40625 39.0481 9.58523C37.6312 9.76918 36.085 10.0824 36.085 11.8324C36.085 13.3239 37.2385 14.179 38.6902 14.179ZM38.8691 13.125C37.9345 13.125 37.2583 12.7074 37.2583 11.892C37.2583 10.9972 38.0737 10.7188 38.9885 10.5994C39.4856 10.5398 40.818 10.4006 41.0169 10.1619V11.2358C41.0169 12.1903 40.2612 13.125 38.8691 13.125ZM52.6442 9.08807H48.1896V10.1818H52.6442V9.08807ZM58.3876 11.9119H63.1802V14H64.3535V11.9119H65.7456V10.8182H64.3535V3.81818H62.862L58.3876 10.8977V11.9119ZM63.1802 10.8182H59.72V10.7386L63.1007 5.3892H63.1802V10.8182ZM70.9297 14.1392C73.1768 14.1392 74.4695 12.2351 74.4695 8.90909C74.4695 5.60795 73.157 3.67898 70.9297 3.67898C68.7024 3.67898 67.3899 5.60795 67.3899 8.90909C67.3899 12.2351 68.6825 14.1392 70.9297 14.1392ZM70.9297 13.0455C69.4482 13.0455 68.5831 11.5589 68.5831 8.90909C68.5831 6.2642 69.4581 4.75284 70.9297 4.75284C72.4013 4.75284 73.2763 6.2642 73.2763 8.90909C73.2763 11.5589 72.4112 13.0455 70.9297 13.0455ZM81.549 12.0909C81.549 13.2045 82.245 14.1392 83.5376 14.1392C84.8104 14.1392 85.5064 13.2045 85.5064 12.0909V11.554C85.5064 10.4403 84.8303 9.50568 83.5376 9.50568C82.2649 9.50568 81.549 10.4403 81.549 11.554V12.0909ZM76.478 6.2642C76.478 7.37784 77.174 8.3125 78.4666 8.3125C79.7393 8.3125 80.4354 7.37784 80.4354 6.2642V5.72727C80.4354 4.61364 79.7592 3.67898 78.4666 3.67898C77.1939 3.67898 76.478 4.61364 76.478 5.72727V6.2642ZM76.8558 14H77.9893L84.9893 3.81818H83.8558L76.8558 14ZM82.5632 11.554C82.5632 10.9375 82.8416 10.3608 83.5376 10.3608C84.2536 10.3608 84.4922 10.9375 84.4922 11.554V12.0909C84.4922 12.7074 84.2337 13.2841 83.5376 13.2841C82.8217 13.2841 82.5632 12.7074 82.5632 12.0909V11.554ZM77.4922 5.72727C77.4922 5.1108 77.7706 4.53409 78.4666 4.53409C79.1825 4.53409 79.4212 5.1108 79.4212 5.72727V6.2642C79.4212 6.88068 79.1626 7.45739 78.4666 7.45739C77.7507 7.45739 77.4922 6.88068 77.4922 6.2642V5.72727Z" fill="#1C1C1C"/>
<path d="M124.651 14L125.675 11.1165H129.791L130.815 14H132.108L128.369 3.81818H127.097L123.358 14H124.651ZM126.062 10.0227L127.693 5.42898H127.773L129.403 10.0227H126.062ZM136.418 14.1591C137.89 14.1591 138.387 13.2443 138.646 12.8267H138.785V14H139.918V3.81818H138.745V7.5767H138.646C138.387 7.17898 137.93 6.2642 136.438 6.2642C134.509 6.2642 133.177 7.79545 133.177 10.2017C133.177 12.6278 134.509 14.1591 136.418 14.1591ZM136.577 13.1051C135.106 13.1051 134.35 11.8125 134.35 10.1818C134.35 8.57102 135.086 7.31818 136.577 7.31818C138.009 7.31818 138.765 8.47159 138.765 10.1818C138.765 11.9119 137.989 13.1051 136.577 13.1051ZM144.477 14.179C145.81 14.179 146.506 13.4631 146.744 12.9659H146.804V14H147.977V8.96875C147.977 6.54261 146.128 6.2642 145.153 6.2642C144 6.2642 142.688 6.66193 142.091 8.05398L143.205 8.4517C143.463 7.89489 144.075 7.2983 145.193 7.2983C146.272 7.2983 146.804 7.87003 146.804 8.84943V8.8892C146.804 9.45597 146.227 9.40625 144.835 9.58523C143.418 9.76918 141.872 10.0824 141.872 11.8324C141.872 13.3239 143.026 14.179 144.477 14.179ZM144.656 13.125C143.722 13.125 143.045 12.7074 143.045 11.892C143.045 10.9972 143.861 10.7188 144.776 10.5994C145.273 10.5398 146.605 10.4006 146.804 10.1619V11.2358C146.804 12.1903 146.048 13.125 144.656 13.125ZM150.278 14H151.411V12.8267H151.551C151.809 13.2443 152.306 14.1591 153.778 14.1591C155.687 14.1591 157.019 12.6278 157.019 10.2017C157.019 7.79545 155.687 6.2642 153.758 6.2642C152.267 6.2642 151.809 7.17898 151.551 7.5767H151.451V3.81818H150.278V14ZM151.431 10.1818C151.431 8.47159 152.187 7.31818 153.619 7.31818C155.11 7.31818 155.846 8.57102 155.846 10.1818C155.846 11.8125 155.09 13.1051 153.619 13.1051C152.207 13.1051 151.431 11.9119 151.431 10.1818ZM158.814 14H159.987V6.36364H158.814V14ZM159.411 5.09091C159.868 5.09091 160.246 4.73295 160.246 4.29545C160.246 3.85795 159.868 3.5 159.411 3.5C158.953 3.5 158.575 3.85795 158.575 4.29545C158.575 4.73295 158.953 5.09091 159.411 5.09091ZM162.892 16.8636C163.951 16.8636 164.697 16.3018 165.139 15.1136L168.391 6.38352L167.108 6.36364L165 12.4489H164.92L162.812 6.36364H161.54L164.364 14.0398L164.145 14.6364C163.717 15.7997 163.19 15.9091 162.335 15.6903L162.037 16.7244C162.156 16.7841 162.494 16.8636 162.892 16.8636ZM172.772 14.1591C174.84 14.1591 176.232 12.5881 176.232 10.2216C176.232 7.83523 174.84 6.2642 172.772 6.2642C170.704 6.2642 169.312 7.83523 169.312 10.2216C169.312 12.5881 170.704 14.1591 172.772 14.1591ZM172.772 13.1051C171.201 13.1051 170.485 11.7528 170.485 10.2216C170.485 8.69034 171.201 7.31818 172.772 7.31818C174.343 7.31818 175.059 8.69034 175.059 10.2216C175.059 11.7528 174.343 13.1051 172.772 13.1051ZM181.344 6.36364H179.713V4.53409H178.54V6.36364H177.387V7.35795H178.54V12.1307C178.54 13.4631 179.614 14.0994 180.608 14.0994C181.046 14.0994 181.324 14.0199 181.483 13.9602L181.245 12.9062C181.145 12.9261 180.986 12.9659 180.728 12.9659C180.211 12.9659 179.713 12.8068 179.713 11.8125V7.35795H181.344V6.36364ZM191.422 9.08807H186.967V10.1818H191.422V9.08807ZM197.404 14H203.827V12.9062H199.094V12.8267L201.381 10.3807C203.131 8.50639 203.648 7.63139 203.648 6.50284C203.648 4.93182 202.375 3.67898 200.585 3.67898C198.801 3.67898 197.443 4.89205 197.443 6.68182H198.617C198.617 5.52344 199.367 4.75284 200.546 4.75284C201.649 4.75284 202.494 5.42898 202.494 6.50284C202.494 7.44247 201.943 8.13849 200.764 9.42614L197.404 13.1051V14ZM209.32 14.1392C211.294 14.1392 212.761 12.9013 212.761 11.2358C212.761 9.94318 211.995 9.00355 210.713 8.78977V8.71023C211.742 8.39702 212.383 7.55185 212.383 6.40341C212.383 4.96165 211.244 3.67898 209.36 3.67898C207.6 3.67898 206.139 4.76278 206.079 6.36364H207.272C207.317 5.34943 208.281 4.75284 209.34 4.75284C210.464 4.75284 211.19 5.43395 211.19 6.46307C211.19 7.53693 210.35 8.23295 209.142 8.23295H208.326V9.3267H209.142C210.688 9.3267 211.548 10.1122 211.548 11.2358C211.548 12.3146 210.608 13.0455 209.301 13.0455C208.122 13.0455 207.188 12.4389 207.113 11.4545H205.86C205.935 13.0554 207.347 14.1392 209.32 14.1392ZM219.985 12.0909C219.985 13.2045 220.681 14.1392 221.973 14.1392C223.246 14.1392 223.942 13.2045 223.942 12.0909V11.554C223.942 10.4403 223.266 9.50568 221.973 9.50568C220.7 9.50568 219.985 10.4403 219.985 11.554V12.0909ZM214.914 6.2642C214.914 7.37784 215.61 8.3125 216.902 8.3125C218.175 8.3125 218.871 7.37784 218.871 6.2642V5.72727C218.871 4.61364 218.195 3.67898 216.902 3.67898C215.629 3.67898 214.914 4.61364 214.914 5.72727V6.2642ZM215.291 14H216.425L223.425 3.81818H222.291L215.291 14ZM220.999 11.554C220.999 10.9375 221.277 10.3608 221.973 10.3608C222.689 10.3608 222.928 10.9375 222.928 11.554V12.0909C222.928 12.7074 222.669 13.2841 221.973 13.2841C221.257 13.2841 220.999 12.7074 220.999 12.0909V11.554ZM215.928 5.72727C215.928 5.1108 216.206 4.53409 216.902 4.53409C217.618 4.53409 217.857 5.1108 217.857 5.72727V6.2642C217.857 6.88068 217.598 7.45739 216.902 7.45739C216.186 7.45739 215.928 6.88068 215.928 6.2642V5.72727Z" fill="#1C1C1C"/>
<path d="M1.65057 37L2.67472 34.1165H6.79119L7.81534 37H9.10795L5.36932 26.8182H4.09659L0.357955 37H1.65057ZM3.0625 33.0227L4.69318 28.429H4.77273L6.40341 33.0227H3.0625ZM13.4183 37.1591C14.8899 37.1591 15.3871 36.2443 15.6456 35.8267H15.7848V37H16.9183V26.8182H15.745V30.5767H15.6456C15.3871 30.179 14.9297 29.2642 13.4382 29.2642C11.5092 29.2642 10.1768 30.7955 10.1768 33.2017C10.1768 35.6278 11.5092 37.1591 13.4183 37.1591ZM13.5774 36.1051C12.1058 36.1051 11.3501 34.8125 11.3501 33.1818C11.3501 31.571 12.0859 30.3182 13.5774 30.3182C15.0092 30.3182 15.7649 31.4716 15.7649 33.1818C15.7649 34.9119 14.9893 36.1051 13.5774 36.1051ZM21.4773 37.179C22.8097 37.179 23.5057 36.4631 23.7443 35.9659H23.804V37H24.9773V31.9688C24.9773 29.5426 23.1278 29.2642 22.1534 29.2642C21 29.2642 19.6875 29.6619 19.0909 31.054L20.2045 31.4517C20.4631 30.8949 21.0746 30.2983 22.1932 30.2983C23.272 30.2983 23.804 30.87 23.804 31.8494V31.8892C23.804 32.456 23.2273 32.4062 21.8352 32.5852C20.4183 32.7692 18.8722 33.0824 18.8722 34.8324C18.8722 36.3239 20.0256 37.179 21.4773 37.179ZM21.6562 36.125C20.7216 36.125 20.0455 35.7074 20.0455 34.892C20.0455 33.9972 20.8608 33.7188 21.7756 33.5994C22.2727 33.5398 23.6051 33.4006 23.804 33.1619V34.2358C23.804 35.1903 23.0483 36.125 21.6562 36.125ZM27.2779 37H28.4114V35.8267H28.5506C28.8091 36.2443 29.3063 37.1591 30.7779 37.1591C32.687 37.1591 34.0194 35.6278 34.0194 33.2017C34.0194 30.7955 32.687 29.2642 30.758 29.2642C29.2665 29.2642 28.8091 30.179 28.5506 30.5767H28.4512V26.8182H27.2779V37ZM28.4313 33.1818C28.4313 31.4716 29.187 30.3182 30.6188 30.3182C32.1103 30.3182 32.8461 31.571 32.8461 33.1818C32.8461 34.8125 32.0904 36.1051 30.6188 36.1051C29.2069 36.1051 28.4313 34.9119 28.4313 33.1818ZM35.8141 37H36.9874V29.3636H35.8141V37ZM36.4107 28.0909C36.8681 28.0909 37.2459 27.733 37.2459 27.2955C37.2459 26.858 36.8681 26.5 36.4107 26.5C35.9533 26.5 35.5755 26.858 35.5755 27.2955C35.5755 27.733 35.9533 28.0909 36.4107 28.0909ZM39.892 39.8636C40.951 39.8636 41.6967 39.3018 42.1392 38.1136L45.3906 29.3835L44.108 29.3636L42 35.4489H41.9205L39.8125 29.3636H38.5398L41.3636 37.0398L41.1449 37.6364C40.7173 38.7997 40.1903 38.9091 39.3352 38.6903L39.0369 39.7244C39.1562 39.7841 39.4943 39.8636 39.892 39.8636ZM49.7718 37.1591C51.84 37.1591 53.2321 35.5881 53.2321 33.2216C53.2321 30.8352 51.84 29.2642 49.7718 29.2642C47.7037 29.2642 46.3116 30.8352 46.3116 33.2216C46.3116 35.5881 47.7037 37.1591 49.7718 37.1591ZM49.7718 36.1051C48.2008 36.1051 47.4849 34.7528 47.4849 33.2216C47.4849 31.6903 48.2008 30.3182 49.7718 30.3182C51.3429 30.3182 52.0588 31.6903 52.0588 33.2216C52.0588 34.7528 51.3429 36.1051 49.7718 36.1051ZM58.3441 29.3636H56.7134V27.5341H55.5401V29.3636H54.3867V30.358H55.5401V35.1307C55.5401 36.4631 56.614 37.0994 57.6083 37.0994C58.0458 37.0994 58.3242 37.0199 58.4833 36.9602L58.2447 35.9062C58.1452 35.9261 57.9862 35.9659 57.7276 35.9659C57.2106 35.9659 56.7134 35.8068 56.7134 34.8125V30.358H58.3441V29.3636ZM68.4215 32.0881H63.967V33.1818H68.4215V32.0881ZM77.9831 26.8182H76.7502L74.2047 28.5085V29.7614L76.6905 28.1108H76.7502V37H77.9831V26.8182ZM84.2324 37.1392C86.4796 37.1392 87.7722 35.2351 87.7722 31.9091C87.7722 28.608 86.4597 26.679 84.2324 26.679C82.0051 26.679 80.6926 28.608 80.6926 31.9091C80.6926 35.2351 81.9853 37.1392 84.2324 37.1392ZM84.2324 36.0455C82.7509 36.0455 81.8858 34.5589 81.8858 31.9091C81.8858 29.2642 82.7608 27.7528 84.2324 27.7528C85.704 27.7528 86.579 29.2642 86.579 31.9091C86.579 34.5589 85.714 36.0455 84.2324 36.0455ZM94.8517 35.0909C94.8517 36.2045 95.5478 37.1392 96.8404 37.1392C98.1131 37.1392 98.8091 36.2045 98.8091 35.0909V34.554C98.8091 33.4403 98.133 32.5057 96.8404 32.5057C95.5676 32.5057 94.8517 33.4403 94.8517 34.554V35.0909ZM89.7807 29.2642C89.7807 30.3778 90.4767 31.3125 91.7694 31.3125C93.0421 31.3125 93.7381 30.3778 93.7381 29.2642V28.7273C93.7381 27.6136 93.062 26.679 91.7694 26.679C90.4966 26.679 89.7807 27.6136 89.7807 28.7273V29.2642ZM90.1586 37H91.2921L98.2921 26.8182H97.1586L90.1586 37ZM95.8659 34.554C95.8659 33.9375 96.1444 33.3608 96.8404 33.3608C97.5563 33.3608 97.7949 33.9375 97.7949 34.554V35.0909C97.7949 35.7074 97.5364 36.2841 96.8404 36.2841C96.1245 36.2841 95.8659 35.7074 95.8659 35.0909V34.554ZM90.7949 28.7273C90.7949 28.1108 91.0733 27.5341 91.7694 27.5341C92.4853 27.5341 92.7239 28.1108 92.7239 28.7273V29.2642C92.7239 29.8807 92.4654 30.4574 91.7694 30.4574C91.0534 30.4574 90.7949 29.8807 90.7949 29.2642V28.7273Z" fill="#1C1C1C"/>
<path d="M124.233 37H125.466V32.446H129.881V31.3523H125.466V27.9119H130.338V26.8182H124.233V37ZM132.291 37H133.464V29.3636H132.291V37ZM132.887 28.0909C133.345 28.0909 133.722 27.733 133.722 27.2955C133.722 26.858 133.345 26.5 132.887 26.5C132.43 26.5 132.052 26.858 132.052 27.2955C132.052 27.733 132.43 28.0909 132.887 28.0909ZM135.394 37H141.38V35.9062H137.025V35.8267L141.241 30.2983V29.3636H135.533V30.4574H139.729V30.5369L135.394 36.1051V37ZM143.187 37H144.36V29.3636H143.187V37ZM143.784 28.0909C144.241 28.0909 144.619 27.733 144.619 27.2955C144.619 26.858 144.241 26.5 143.784 26.5C143.326 26.5 142.949 26.858 142.949 27.2955C142.949 27.733 143.326 28.0909 143.784 28.0909ZM146.509 37H147.683V34.1413L148.503 33.3807L151.362 37H152.853L149.388 32.625L152.615 29.3636H151.163L147.822 32.7642H147.683V26.8182H146.509V37ZM156.372 37.179C157.704 37.179 158.4 36.4631 158.639 35.9659H158.699V37H159.872V31.9688C159.872 29.5426 158.022 29.2642 157.048 29.2642C155.895 29.2642 154.582 29.6619 153.985 31.054L155.099 31.4517C155.358 30.8949 155.969 30.2983 157.088 30.2983C158.167 30.2983 158.699 30.87 158.699 31.8494V31.8892C158.699 32.456 158.122 32.4062 156.73 32.5852C155.313 32.7692 153.767 33.0824 153.767 34.8324C153.767 36.3239 154.92 37.179 156.372 37.179ZM156.551 36.125C155.616 36.125 154.94 35.7074 154.94 34.892C154.94 33.9972 155.755 33.7188 156.67 33.5994C157.167 33.5398 158.5 33.4006 158.699 33.1619V34.2358C158.699 35.1903 157.943 36.125 156.551 36.125ZM170.326 32.0881H165.871V33.1818H170.326V32.0881ZM179.887 26.8182H178.654L176.109 28.5085V29.7614L178.595 28.1108H178.654V37H179.887V26.8182ZM186.137 37.1392C188.384 37.1392 189.676 35.2351 189.676 31.9091C189.676 28.608 188.364 26.679 186.137 26.679C183.909 26.679 182.597 28.608 182.597 31.9091C182.597 35.2351 183.89 37.1392 186.137 37.1392ZM186.137 36.0455C184.655 36.0455 183.79 34.5589 183.79 31.9091C183.79 29.2642 184.665 27.7528 186.137 27.7528C187.608 27.7528 188.483 29.2642 188.483 31.9091C188.483 34.5589 187.618 36.0455 186.137 36.0455ZM196.756 35.0909C196.756 36.2045 197.452 37.1392 198.745 37.1392C200.017 37.1392 200.713 36.2045 200.713 35.0909V34.554C200.713 33.4403 200.037 32.5057 198.745 32.5057C197.472 32.5057 196.756 33.4403 196.756 34.554V35.0909ZM191.685 29.2642C191.685 30.3778 192.381 31.3125 193.674 31.3125C194.946 31.3125 195.642 30.3778 195.642 29.2642V28.7273C195.642 27.6136 194.966 26.679 193.674 26.679C192.401 26.679 191.685 27.6136 191.685 28.7273V29.2642ZM192.063 37H193.196L200.196 26.8182H199.063L192.063 37ZM197.77 34.554C197.77 33.9375 198.049 33.3608 198.745 33.3608C199.461 33.3608 199.699 33.9375 199.699 34.554V35.0909C199.699 35.7074 199.441 36.2841 198.745 36.2841C198.029 36.2841 197.77 35.7074 197.77 35.0909V34.554ZM192.699 28.7273C192.699 28.1108 192.978 27.5341 193.674 27.5341C194.39 27.5341 194.628 28.1108 194.628 28.7273V29.2642C194.628 29.8807 194.37 30.4574 193.674 30.4574C192.958 30.4574 192.699 29.8807 192.699 29.2642V28.7273Z" fill="#1C1C1C"/>
</svg>
