<svg width="462" height="92" viewBox="0 0 462 92" fill="none" xmlns="http://www.w3.org/2000/svg">
<path d="M1.40909 62H2.81818V58.2273L4.27273 56.5909L8.31818 62H10.0227L5.13636 55.6136L10.0227 50.3636H8.18182L2.95455 56.1364H2.81818V50.3636H1.40909V62ZM14.4696 62.1818C16.8332 62.1818 18.4241 60.3864 18.4241 57.6818C18.4241 54.9545 16.8332 53.1591 14.4696 53.1591C12.106 53.1591 10.5151 54.9545 10.5151 57.6818C10.5151 60.3864 12.106 62.1818 14.4696 62.1818ZM14.4696 60.9773C12.6741 60.9773 11.856 59.4318 11.856 57.6818C11.856 55.9318 12.6741 54.3636 14.4696 54.3636C16.2651 54.3636 17.0832 55.9318 17.0832 57.6818C17.0832 59.4318 16.2651 60.9773 14.4696 60.9773ZM21.5528 50.3636H20.2801V51.4091C20.2801 52.25 19.871 52.9773 19.3937 53.6591L20.121 54.25C21.0301 53.5227 21.5528 52.3182 21.5528 51.3864V50.3636ZM22.8804 65.2727H24.2213V60.6591H24.3349C24.6304 61.1364 25.1986 62.1818 26.8804 62.1818C29.0622 62.1818 30.5849 60.4318 30.5849 57.6591C30.5849 54.9091 29.0622 53.1591 26.8577 53.1591C25.1531 53.1591 24.6304 54.2045 24.3349 54.6591H24.1759V53.2727H22.8804V65.2727ZM24.1986 57.6364C24.1986 55.6818 25.0622 54.3636 26.6986 54.3636C28.4031 54.3636 29.244 55.7955 29.244 57.6364C29.244 59.5 28.3804 60.9773 26.6986 60.9773C25.0849 60.9773 24.1986 59.6136 24.1986 57.6364ZM43.1122 55.2273C42.6918 53.9886 41.7486 53.1591 40.0213 53.1591C38.1804 53.1591 36.8168 54.2045 36.8168 55.6818C36.8168 56.8864 37.5327 57.6932 39.1349 58.0682L40.5895 58.4091C41.4702 58.6136 41.8849 59.0341 41.8849 59.6364C41.8849 60.3864 41.0895 61 39.8395 61C38.7429 61 38.0554 60.5284 37.8168 59.5909L36.544 59.9091C36.8565 61.392 38.0781 62.1818 39.8622 62.1818C41.8906 62.1818 43.2713 61.0739 43.2713 59.5682C43.2713 58.3523 42.5099 57.5852 40.9531 57.2045L39.6577 56.8864C38.6236 56.6307 38.1577 56.2841 38.1577 55.6136C38.1577 54.8636 38.9531 54.3182 40.0213 54.3182C41.1918 54.3182 41.6747 54.9659 41.9077 55.5682L43.1122 55.2273ZM48.7352 62.1818C51.0989 62.1818 52.6898 60.3864 52.6898 57.6818C52.6898 54.9545 51.0989 53.1591 48.7352 53.1591C46.3716 53.1591 44.7807 54.9545 44.7807 57.6818C44.7807 60.3864 46.3716 62.1818 48.7352 62.1818ZM48.7352 60.9773C46.9398 60.9773 46.1216 59.4318 46.1216 57.6818C46.1216 55.9318 46.9398 54.3636 48.7352 54.3636C50.5307 54.3636 51.3489 55.9318 51.3489 57.6818C51.3489 59.4318 50.5307 60.9773 48.7352 60.9773ZM55.9776 56.75C55.9776 55.2273 56.9207 54.3636 58.2048 54.3636C59.4491 54.3636 60.2048 55.1761 60.2048 56.5455V62H61.5457V56.4545C61.5457 54.2273 60.3582 53.1591 58.5912 53.1591C57.273 53.1591 56.4548 53.75 56.0457 54.6364H55.9321V53.2727H54.6366V62H55.9776V56.75ZM65.2369 50.3636H63.896V62H65.2369V50.3636ZM67.5929 62H68.9338V53.2727H67.5929V62ZM68.2747 51.8182C68.7974 51.8182 69.2293 51.4091 69.2293 50.9091C69.2293 50.4091 68.7974 50 68.2747 50C67.752 50 67.3202 50.4091 67.3202 50.9091C67.3202 51.4091 67.752 51.8182 68.2747 51.8182ZM1.22727 86H2.56818V82.733L3.50568 81.8636L6.77273 86H8.47727L4.51705 81L8.20455 77.2727H6.54545L2.72727 81.1591H2.56818V74.3636H1.22727V86ZM13.0165 86.1818C15.3801 86.1818 16.971 84.3864 16.971 81.6818C16.971 78.9545 15.3801 77.1591 13.0165 77.1591C10.6528 77.1591 9.06193 78.9545 9.06193 81.6818C9.06193 84.3864 10.6528 86.1818 13.0165 86.1818ZM13.0165 84.9773C11.221 84.9773 10.4028 83.4318 10.4028 81.6818C10.4028 79.9318 11.221 78.3636 13.0165 78.3636C14.8119 78.3636 15.6301 79.9318 15.6301 81.6818C15.6301 83.4318 14.8119 84.9773 13.0165 84.9773ZM20.0997 74.3636H18.827V75.4091C18.827 76.25 18.4179 76.9773 17.9406 77.6591L18.6679 78.25C19.577 77.5227 20.0997 76.3182 20.0997 75.3864V74.3636ZM21.4273 86H22.7682V80.4773C22.7682 79.2955 23.7 78.4318 24.9727 78.4318C25.3307 78.4318 25.7 78.5 25.7909 78.5227V77.1591C25.6375 77.1477 25.2852 77.1364 25.0864 77.1364C24.0409 77.1364 23.1318 77.7273 22.8136 78.5909H22.7227V77.2727H21.4273V86ZM27.2804 86H28.6213V77.2727H27.2804V86ZM27.9622 75.8182C28.4849 75.8182 28.9168 75.4091 28.9168 74.9091C28.9168 74.4091 28.4849 74 27.9622 74C27.4395 74 27.0077 74.4091 27.0077 74.9091C27.0077 75.4091 27.4395 75.8182 27.9622 75.8182ZM37.1591 79.2273C36.7386 77.9886 35.7955 77.1591 34.0682 77.1591C32.2273 77.1591 30.8636 78.2045 30.8636 79.6818C30.8636 80.8864 31.5795 81.6932 33.1818 82.0682L34.6364 82.4091C35.517 82.6136 35.9318 83.0341 35.9318 83.6364C35.9318 84.3864 35.1364 85 33.8864 85C32.7898 85 32.1023 84.5284 31.8636 83.5909L30.5909 83.9091C30.9034 85.392 32.125 86.1818 33.9091 86.1818C35.9375 86.1818 37.3182 85.0739 37.3182 83.5682C37.3182 82.3523 36.5568 81.5852 35 81.2045L33.7045 80.8864C32.6705 80.6307 32.2045 80.2841 32.2045 79.6136C32.2045 78.8636 33 78.3182 34.0682 78.3182C35.2386 78.3182 35.7216 78.9659 35.9545 79.5682L37.1591 79.2273ZM40.5776 80.75C40.5776 79.2273 41.5491 78.3636 42.873 78.3636C44.1344 78.3636 44.8957 79.1591 44.8957 80.5455V86H46.2366V80.4545C46.2366 78.2102 45.0435 77.1591 43.2594 77.1591C41.8844 77.1591 41.1003 77.733 40.6912 78.6364H40.5776V74.3636H39.2366V86H40.5776V80.75ZM49.9307 74.3636H48.5898V86H49.9307V74.3636ZM54.8548 86.2045C56.3776 86.2045 57.173 85.3864 57.4457 84.8182H57.5139V86H58.8548V80.25C58.8548 77.4773 56.7412 77.1591 55.6276 77.1591C54.3094 77.1591 52.8094 77.6136 52.1276 79.2045L53.4003 79.6591C53.6957 79.0227 54.3946 78.3409 55.673 78.3409C56.906 78.3409 57.5139 78.9943 57.5139 80.1136V80.1591C57.5139 80.8068 56.8548 80.75 55.2639 80.9545C53.6446 81.1648 51.8776 81.5227 51.8776 83.5227C51.8776 85.2273 53.1957 86.2045 54.8548 86.2045ZM55.0594 85C53.9912 85 53.2185 84.5227 53.2185 83.5909C53.2185 82.5682 54.1503 82.25 55.1957 82.1136C55.7639 82.0455 57.2866 81.8864 57.5139 81.6136V82.8409C57.5139 83.9318 56.6503 85 55.0594 85ZM61.2023 86H62.5432V80.4773C62.5432 79.2955 63.475 78.4318 64.7477 78.4318C65.1057 78.4318 65.475 78.5 65.5659 78.5227V77.1591C65.4125 77.1477 65.0602 77.1364 64.8614 77.1364C63.8159 77.1364 62.9068 77.7273 62.5886 78.5909H62.4977V77.2727H61.2023V86Z" fill="#1C1C1C"/>
<path d="M5.6 33.288C4.66133 33.288 4.01067 32.9787 3.648 32.36C3.28533 31.7413 3.33867 31.0053 3.808 30.152L12.224 14.536H3.392C1.96267 14.536 1.248 13.8533 1.248 12.488C1.248 11.1227 1.96267 10.44 3.392 10.44H15.584C16.2667 10.44 16.8213 10.6213 17.248 10.984C17.696 11.3467 17.92 11.8587 17.92 12.52C17.92 13.096 17.8347 13.5973 17.664 14.024C17.5147 14.4507 17.312 14.9093 17.056 15.4L8.416 31.688C7.84 32.7547 6.90133 33.288 5.6 33.288ZM28.4195 33.352C27.3315 33.352 26.2115 33.224 25.0595 32.968C23.9075 32.6907 22.8515 32.264 21.8915 31.688C21.2728 31.3467 20.8888 30.9093 20.7395 30.376C20.6115 29.8213 20.6542 29.3093 20.8675 28.84C21.1022 28.3493 21.4648 28.008 21.9555 27.816C22.4675 27.6027 23.0328 27.6667 23.6515 28.008C25.1448 28.8187 26.7022 29.224 28.3235 29.224C29.5395 29.224 30.4782 28.9253 31.1395 28.328C31.8222 27.7307 32.1635 26.9307 32.1635 25.928C32.1635 24.904 31.8328 24.0827 31.1715 23.464C30.5315 22.8453 29.6568 22.536 28.5475 22.536C27.9928 22.536 27.4275 22.632 26.8515 22.824C26.2755 22.9947 25.6995 23.304 25.1235 23.752C24.9102 23.9227 24.6222 24.0827 24.2595 24.232C23.9182 24.3813 23.5662 24.456 23.2035 24.456C21.9022 24.456 21.2515 23.848 21.2515 22.632V12.584C21.2515 11.1547 21.9662 10.44 23.3955 10.44H33.6675C35.0968 10.44 35.8115 11.1227 35.8115 12.488C35.8115 13.832 35.0968 14.504 33.6675 14.504H26.0195V19.56C27.0648 18.8773 28.3235 18.536 29.7955 18.536C31.2248 18.536 32.4728 18.8453 33.5395 19.464C34.6062 20.0613 35.4382 20.904 36.0355 21.992C36.6328 23.08 36.9315 24.3387 36.9315 25.768C36.9315 27.2827 36.5902 28.6053 35.9075 29.736C35.2248 30.8667 34.2435 31.752 32.9635 32.392C31.6835 33.032 30.1688 33.352 28.4195 33.352ZM48.647 32.584C48.327 33.1387 47.9323 33.4587 47.463 33.544C46.9937 33.6293 46.5563 33.5547 46.151 33.32C45.7457 33.0853 45.4577 32.744 45.287 32.296C45.1377 31.8267 45.223 31.3253 45.543 30.792L57.031 10.888C57.351 10.3333 57.7457 10.0133 58.215 9.928C58.6843 9.82133 59.1217 9.88533 59.527 10.12C59.9323 10.3547 60.2097 10.7067 60.359 11.176C60.5083 11.624 60.4337 12.1147 60.135 12.648L48.647 32.584ZM44.615 23.88C42.759 23.88 41.319 23.2613 40.295 22.024C39.271 20.7653 38.759 19.08 38.759 16.968C38.759 14.856 39.271 13.1813 40.295 11.944C41.3403 10.7067 42.7803 10.088 44.615 10.088C46.4497 10.088 47.879 10.7173 48.903 11.976C49.9483 13.2133 50.471 14.8773 50.471 16.968C50.471 19.08 49.9483 20.7653 48.903 22.024C47.879 23.2613 46.4497 23.88 44.615 23.88ZM44.615 20.808C45.2337 20.808 45.7137 20.5093 46.055 19.912C46.4177 19.2933 46.599 18.312 46.599 16.968C46.599 15.624 46.4177 14.664 46.055 14.088C45.7137 13.4907 45.2337 13.192 44.615 13.192C43.975 13.192 43.4843 13.48 43.143 14.056C42.8017 14.632 42.631 15.6027 42.631 16.968C42.631 18.3547 42.8017 19.3467 43.143 19.944C43.4843 20.52 43.975 20.808 44.615 20.808ZM61.095 33.352C59.239 33.352 57.799 32.7333 56.775 31.496C55.751 30.2373 55.239 28.5413 55.239 26.408C55.239 24.296 55.751 22.632 56.775 21.416C57.8203 20.1787 59.2603 19.56 61.095 19.56C62.9297 19.56 64.359 20.1787 65.383 21.416C66.4283 22.6533 66.951 24.3173 66.951 26.408C66.951 28.5413 66.439 30.2373 65.415 31.496C64.391 32.7333 62.951 33.352 61.095 33.352ZM61.095 30.248C61.735 30.248 62.2257 29.9493 62.567 29.352C62.9083 28.7547 63.079 27.7733 63.079 26.408C63.079 25.0853 62.8977 24.1253 62.535 23.528C62.1937 22.9307 61.7137 22.632 61.095 22.632C60.455 22.632 59.9643 22.92 59.623 23.496C59.2817 24.072 59.111 25.0427 59.111 26.408C59.111 27.7947 59.2817 28.7867 59.623 29.384C59.9643 29.96 60.455 30.248 61.095 30.248Z" fill="#E29030"/>
<path d="M145.886 50.3636H144.409L148.682 62H150.136L154.409 50.3636H152.932L149.477 60.1591H149.341L145.886 50.3636ZM157.695 62.2045C159.218 62.2045 160.014 61.3864 160.286 60.8182H160.355V62H161.695V56.25C161.695 53.4773 159.582 53.1591 158.468 53.1591C157.15 53.1591 155.65 53.6136 154.968 55.2045L156.241 55.6591C156.536 55.0227 157.235 54.3409 158.514 54.3409C159.747 54.3409 160.355 54.9943 160.355 56.1136V56.1591C160.355 56.8068 159.695 56.75 158.105 56.9545C156.485 57.1648 154.718 57.5227 154.718 59.5227C154.718 61.2273 156.036 62.2045 157.695 62.2045ZM157.9 61C156.832 61 156.059 60.5227 156.059 59.5909C156.059 58.5682 156.991 58.25 158.036 58.1136C158.605 58.0455 160.127 57.8864 160.355 57.6136V58.8409C160.355 59.9318 159.491 61 157.9 61ZM171.338 65.2727V53.2727H170.043V54.6591H169.884C169.588 54.2045 169.066 53.1591 167.361 53.1591C165.157 53.1591 163.634 54.9091 163.634 57.6591C163.634 60.4318 165.157 62.1818 167.338 62.1818C169.02 62.1818 169.588 61.1364 169.884 60.6591H169.997V65.2727H171.338ZM170.02 57.6364C170.02 59.6136 169.134 60.9773 167.52 60.9773C165.838 60.9773 164.975 59.5 164.975 57.6364C164.975 55.7955 165.816 54.3636 167.52 54.3636C169.157 54.3636 170.02 55.6818 170.02 57.6364ZM177.488 53.2727H175.625V51.1818H174.284V53.2727H172.966V54.4091H174.284V59.8636C174.284 61.3864 175.511 62.1136 176.647 62.1136C177.147 62.1136 177.466 62.0227 177.647 61.9545L177.375 60.75C177.261 60.7727 177.079 60.8182 176.784 60.8182C176.193 60.8182 175.625 60.6364 175.625 59.5V54.4091H177.488V53.2727ZM179.405 62H180.746V53.2727H179.405V62ZM180.087 51.8182C180.61 51.8182 181.042 51.4091 181.042 50.9091C181.042 50.4091 180.61 50 180.087 50C179.564 50 179.133 50.4091 179.133 50.9091C179.133 51.4091 179.564 51.8182 180.087 51.8182ZM184.443 56.75C184.443 55.2273 185.386 54.3636 186.67 54.3636C187.915 54.3636 188.67 55.1761 188.67 56.5455V62H190.011V56.4545C190.011 54.2273 188.824 53.1591 187.057 53.1591C185.739 53.1591 184.92 53.75 184.511 54.6364H184.398V53.2727H183.102V62H184.443V56.75ZM195.884 65.4545C197.975 65.4545 199.657 64.5 199.657 62.25V53.2727H198.362V54.6591H198.225C197.93 54.2045 197.384 53.1591 195.68 53.1591C193.475 53.1591 191.953 54.9091 191.953 57.5909C191.953 60.3182 193.543 61.8636 195.657 61.8636C197.362 61.8636 197.907 60.8636 198.203 60.3864H198.316V62.1591C198.316 63.6136 197.293 64.2727 195.884 64.2727C194.299 64.2727 193.742 63.4375 193.384 62.9545L192.316 63.7045C192.862 64.6193 193.936 65.4545 195.884 65.4545ZM195.839 60.6591C194.157 60.6591 193.293 59.3864 193.293 57.5682C193.293 55.7955 194.134 54.3636 195.839 54.3636C197.475 54.3636 198.339 55.6818 198.339 57.5682C198.339 59.5 197.453 60.6591 195.839 60.6591ZM202.012 62H203.353V53.2727H202.012V62ZM202.693 51.8182C203.216 51.8182 203.648 51.4091 203.648 50.9091C203.648 50.4091 203.216 50 202.693 50C202.171 50 201.739 50.4091 201.739 50.9091C201.739 51.4091 202.171 51.8182 202.693 51.8182ZM205.459 62H212.299V60.75H207.322V60.6591L212.14 54.3409V53.2727H205.618V54.5227H210.413V54.6136L205.459 60.9773V62ZM222.46 53.2727H220.597V51.1818H219.256V53.2727H217.938V54.4091H219.256V59.8636C219.256 61.3864 220.483 62.1136 221.619 62.1136C222.119 62.1136 222.438 62.0227 222.619 61.9545L222.347 60.75C222.233 60.7727 222.051 60.8182 221.756 60.8182C221.165 60.8182 220.597 60.6364 220.597 59.5V54.4091H222.46V53.2727ZM227.943 62.1818C229.715 62.1818 231.011 61.2955 231.42 59.9773L230.124 59.6136C229.784 60.5227 228.994 60.9773 227.943 60.9773C226.369 60.9773 225.284 59.9602 225.221 58.0909H231.556V57.5227C231.556 54.2727 229.624 53.1591 227.806 53.1591C225.443 53.1591 223.874 55.0227 223.874 57.7045C223.874 60.3864 225.42 62.1818 227.943 62.1818ZM225.221 56.9318C225.312 55.5739 226.272 54.3636 227.806 54.3636C229.261 54.3636 230.193 55.4545 230.193 56.9318H225.221ZM236.064 62.2045C237.587 62.2045 238.382 61.3864 238.655 60.8182H238.723V62H240.064V56.25C240.064 53.4773 237.951 53.1591 236.837 53.1591C235.519 53.1591 234.019 53.6136 233.337 55.2045L234.61 55.6591C234.905 55.0227 235.604 54.3409 236.882 54.3409C238.115 54.3409 238.723 54.9943 238.723 56.1136V56.1591C238.723 56.8068 238.064 56.75 236.473 56.9545C234.854 57.1648 233.087 57.5227 233.087 59.5227C233.087 61.2273 234.405 62.2045 236.064 62.2045ZM236.269 61C235.201 61 234.428 60.5227 234.428 59.5909C234.428 58.5682 235.36 58.25 236.405 58.1136C236.973 58.0455 238.496 57.8864 238.723 57.6136V58.8409C238.723 59.9318 237.86 61 236.269 61ZM243.753 50.3636H242.412V62H243.753V50.3636ZM248.677 62.2045C250.199 62.2045 250.995 61.3864 251.268 60.8182H251.336V62H252.677V56.25C252.677 53.4773 250.563 53.1591 249.449 53.1591C248.131 53.1591 246.631 53.6136 245.949 55.2045L247.222 55.6591C247.518 55.0227 248.216 54.3409 249.495 54.3409C250.728 54.3409 251.336 54.9943 251.336 56.1136V56.1591C251.336 56.8068 250.677 56.75 249.086 56.9545C247.466 57.1648 245.699 57.5227 245.699 59.5227C245.699 61.2273 247.018 62.2045 248.677 62.2045ZM248.881 61C247.813 61 247.04 60.5227 247.04 59.5909C247.04 58.5682 247.972 58.25 249.018 58.1136C249.586 58.0455 251.109 57.8864 251.336 57.6136V58.8409C251.336 59.9318 250.472 61 248.881 61ZM258.32 62.1818C260.001 62.1818 260.57 61.1364 260.865 60.6591H261.024V62H262.32V50.3636H260.979V54.6591H260.865C260.57 54.2045 260.047 53.1591 258.342 53.1591C256.138 53.1591 254.615 54.9091 254.615 57.6591C254.615 60.4318 256.138 62.1818 258.32 62.1818ZM258.501 60.9773C256.82 60.9773 255.956 59.5 255.956 57.6364C255.956 55.7955 256.797 54.3636 258.501 54.3636C260.138 54.3636 261.001 55.6818 261.001 57.6364C261.001 59.6136 260.115 60.9773 258.501 60.9773ZM264.862 62H266.203V53.2727H264.862V62ZM265.543 51.8182C266.066 51.8182 266.498 51.4091 266.498 50.9091C266.498 50.4091 266.066 50 265.543 50C265.021 50 264.589 50.4091 264.589 50.9091C264.589 51.4091 265.021 51.8182 265.543 51.8182ZM145.227 86H146.568V77.2727H145.227V86ZM145.909 75.8182C146.432 75.8182 146.864 75.4091 146.864 74.9091C146.864 74.4091 146.432 74 145.909 74C145.386 74 144.955 74.4091 144.955 74.9091C144.955 75.4091 145.386 75.8182 145.909 75.8182ZM155.106 79.2273C154.686 77.9886 153.742 77.1591 152.015 77.1591C150.174 77.1591 148.811 78.2045 148.811 79.6818C148.811 80.8864 149.526 81.6932 151.129 82.0682L152.583 82.4091C153.464 82.6136 153.879 83.0341 153.879 83.6364C153.879 84.3864 153.083 85 151.833 85C150.737 85 150.049 84.5284 149.811 83.5909L148.538 83.9091C148.85 85.392 150.072 86.1818 151.856 86.1818C153.884 86.1818 155.265 85.0739 155.265 83.5682C155.265 82.3523 154.504 81.5852 152.947 81.2045L151.651 80.8864C150.617 80.6307 150.151 80.2841 150.151 79.6136C150.151 78.8636 150.947 78.3182 152.015 78.3182C153.186 78.3182 153.668 78.9659 153.901 79.5682L155.106 79.2273ZM158.524 80.75C158.524 79.2273 159.496 78.3636 160.82 78.3636C162.081 78.3636 162.843 79.1591 162.843 80.5455V86H164.184V80.4545C164.184 78.2102 162.99 77.1591 161.206 77.1591C159.831 77.1591 159.047 77.733 158.638 78.6364H158.524V74.3636H157.184V86H158.524V80.75ZM170.937 86H172.278V77.2727H170.937V86ZM171.618 75.8182C172.141 75.8182 172.573 75.4091 172.573 74.9091C172.573 74.4091 172.141 74 171.618 74C171.096 74 170.664 74.4091 170.664 74.9091C170.664 75.4091 171.096 75.8182 171.618 75.8182ZM174.384 86H181.224V84.75H176.247V84.6591L181.065 78.3409V77.2727H174.543V78.5227H179.338V78.6136L174.384 84.9773V86ZM184.531 74.3636H183.19V86H184.531V74.3636ZM189.455 86.2045C190.978 86.2045 191.773 85.3864 192.046 84.8182H192.114V86H193.455V80.25C193.455 77.4773 191.341 77.1591 190.228 77.1591C188.909 77.1591 187.409 77.6136 186.728 79.2045L188 79.6591C188.296 79.0227 188.995 78.3409 190.273 78.3409C191.506 78.3409 192.114 78.9943 192.114 80.1136V80.1591C192.114 80.8068 191.455 80.75 189.864 80.9545C188.245 81.1648 186.478 81.5227 186.478 83.5227C186.478 85.2273 187.796 86.2045 189.455 86.2045ZM189.659 85C188.591 85 187.818 84.5227 187.818 83.5909C187.818 82.5682 188.75 82.25 189.796 82.1136C190.364 82.0455 191.887 81.8864 192.114 81.6136V82.8409C192.114 83.9318 191.25 85 189.659 85ZM201.984 79.2273C201.564 77.9886 200.62 77.1591 198.893 77.1591C197.052 77.1591 195.689 78.2045 195.689 79.6818C195.689 80.8864 196.405 81.6932 198.007 82.0682L199.461 82.4091C200.342 82.6136 200.757 83.0341 200.757 83.6364C200.757 84.3864 199.961 85 198.711 85C197.615 85 196.927 84.5284 196.689 83.5909L195.416 83.9091C195.728 85.392 196.95 86.1818 198.734 86.1818C200.763 86.1818 202.143 85.0739 202.143 83.5682C202.143 82.3523 201.382 81.5852 199.825 81.2045L198.53 80.8864C197.495 80.6307 197.03 80.2841 197.03 79.6136C197.03 78.8636 197.825 78.3182 198.893 78.3182C200.064 78.3182 200.547 78.9659 200.78 79.5682L201.984 79.2273ZM205.403 80.75C205.403 79.2273 206.374 78.3636 207.698 78.3636C208.959 78.3636 209.721 79.1591 209.721 80.5455V86H211.062V80.4545C211.062 78.2102 209.868 77.1591 208.084 77.1591C206.709 77.1591 205.925 77.733 205.516 78.6364H205.403V74.3636H204.062V86H205.403V80.75ZM216.71 86.1818C218.392 86.1818 218.96 85.1364 219.256 84.6591H219.415V86H220.71V74.3636H219.369V78.6591H219.256C218.96 78.2045 218.438 77.1591 216.733 77.1591C214.528 77.1591 213.006 78.9091 213.006 81.6591C213.006 84.4318 214.528 86.1818 216.71 86.1818ZM216.892 84.9773C215.21 84.9773 214.347 83.5 214.347 81.6364C214.347 79.7955 215.188 78.3636 216.892 78.3636C218.528 78.3636 219.392 79.6818 219.392 81.6364C219.392 83.6136 218.506 84.9773 216.892 84.9773ZM225.82 86.2045C227.343 86.2045 228.139 85.3864 228.411 84.8182H228.48V86H229.82V80.25C229.82 77.4773 227.707 77.1591 226.593 77.1591C225.275 77.1591 223.775 77.6136 223.093 79.2045L224.366 79.6591C224.661 79.0227 225.36 78.3409 226.639 78.3409C227.872 78.3409 228.48 78.9943 228.48 80.1136V80.1591C228.48 80.8068 227.82 80.75 226.23 80.9545C224.61 81.1648 222.843 81.5227 222.843 83.5227C222.843 85.2273 224.161 86.2045 225.82 86.2045ZM226.025 85C224.957 85 224.184 84.5227 224.184 83.5909C224.184 82.5682 225.116 82.25 226.161 82.1136C226.73 82.0455 228.252 81.8864 228.48 81.6136V82.8409C228.48 83.9318 227.616 85 226.025 85Z" fill="#1C1C1C"/>
<path d="M153.632 33.352C152.544 33.352 151.424 33.224 150.272 32.968C149.12 32.6907 148.064 32.264 147.104 31.688C146.485 31.3467 146.101 30.9093 145.952 30.376C145.824 29.8213 145.867 29.3093 146.08 28.84C146.315 28.3493 146.677 28.008 147.168 27.816C147.68 27.6027 148.245 27.6667 148.864 28.008C150.357 28.8187 151.915 29.224 153.536 29.224C154.752 29.224 155.691 28.9253 156.352 28.328C157.035 27.7307 157.376 26.9307 157.376 25.928C157.376 24.904 157.045 24.0827 156.384 23.464C155.744 22.8453 154.869 22.536 153.76 22.536C153.205 22.536 152.64 22.632 152.064 22.824C151.488 22.9947 150.912 23.304 150.336 23.752C150.123 23.9227 149.835 24.0827 149.472 24.232C149.131 24.3813 148.779 24.456 148.416 24.456C147.115 24.456 146.464 23.848 146.464 22.632V12.584C146.464 11.1547 147.179 10.44 148.608 10.44H158.88C160.309 10.44 161.024 11.1227 161.024 12.488C161.024 13.832 160.309 14.504 158.88 14.504H151.232V19.56C152.277 18.8773 153.536 18.536 155.008 18.536C156.437 18.536 157.685 18.8453 158.752 19.464C159.819 20.0613 160.651 20.904 161.248 21.992C161.845 23.08 162.144 24.3387 162.144 25.768C162.144 27.2827 161.803 28.6053 161.12 29.736C160.437 30.8667 159.456 31.752 158.176 32.392C156.896 33.032 155.381 33.352 153.632 33.352ZM171.844 33.352C170.713 33.352 169.561 33.224 168.388 32.968C167.236 32.712 166.233 32.328 165.38 31.816C164.697 31.4533 164.27 31.0053 164.1 30.472C163.929 29.9173 163.95 29.4053 164.164 28.936C164.398 28.4667 164.772 28.136 165.284 27.944C165.796 27.7307 166.382 27.784 167.044 28.104C167.876 28.5093 168.665 28.7973 169.412 28.968C170.158 29.1387 170.905 29.224 171.652 29.224C174.254 29.224 175.556 28.2533 175.556 26.312C175.556 24.52 174.34 23.624 171.908 23.624H170.02C169.316 23.624 168.772 23.4533 168.388 23.112C168.025 22.7493 167.844 22.2587 167.844 21.64C167.844 21 168.025 20.5093 168.388 20.168C168.772 19.8053 169.316 19.624 170.02 19.624H171.428C172.494 19.624 173.337 19.3787 173.956 18.888C174.574 18.3973 174.884 17.7147 174.884 16.84C174.884 15.0907 173.742 14.216 171.46 14.216C170.756 14.216 170.073 14.3013 169.412 14.472C168.772 14.6213 168.068 14.8987 167.3 15.304C166.702 15.6027 166.169 15.656 165.7 15.464C165.23 15.272 164.878 14.9413 164.644 14.472C164.43 14.0027 164.388 13.512 164.516 13C164.644 12.488 165.017 12.0613 165.636 11.72C167.492 10.632 169.582 10.088 171.908 10.088C174.34 10.088 176.238 10.632 177.604 11.72C178.969 12.808 179.652 14.3013 179.652 16.2C179.652 17.3733 179.353 18.408 178.756 19.304C178.158 20.2 177.326 20.8507 176.26 21.256C177.54 21.6187 178.532 22.2907 179.236 23.272C179.961 24.232 180.324 25.3947 180.324 26.76C180.324 28.808 179.566 30.4187 178.052 31.592C176.537 32.7653 174.468 33.352 171.844 33.352ZM192.647 32.584C192.327 33.1387 191.932 33.4587 191.463 33.544C190.994 33.6293 190.556 33.5547 190.151 33.32C189.746 33.0853 189.458 32.744 189.287 32.296C189.138 31.8267 189.223 31.3253 189.543 30.792L201.031 10.888C201.351 10.3333 201.746 10.0133 202.215 9.928C202.684 9.82133 203.122 9.88533 203.527 10.12C203.932 10.3547 204.21 10.7067 204.359 11.176C204.508 11.624 204.434 12.1147 204.135 12.648L192.647 32.584ZM188.615 23.88C186.759 23.88 185.319 23.2613 184.295 22.024C183.271 20.7653 182.759 19.08 182.759 16.968C182.759 14.856 183.271 13.1813 184.295 11.944C185.34 10.7067 186.78 10.088 188.615 10.088C190.45 10.088 191.879 10.7173 192.903 11.976C193.948 13.2133 194.471 14.8773 194.471 16.968C194.471 19.08 193.948 20.7653 192.903 22.024C191.879 23.2613 190.45 23.88 188.615 23.88ZM188.615 20.808C189.234 20.808 189.714 20.5093 190.055 19.912C190.418 19.2933 190.599 18.312 190.599 16.968C190.599 15.624 190.418 14.664 190.055 14.088C189.714 13.4907 189.234 13.192 188.615 13.192C187.975 13.192 187.484 13.48 187.143 14.056C186.802 14.632 186.631 15.6027 186.631 16.968C186.631 18.3547 186.802 19.3467 187.143 19.944C187.484 20.52 187.975 20.808 188.615 20.808ZM205.095 33.352C203.239 33.352 201.799 32.7333 200.775 31.496C199.751 30.2373 199.239 28.5413 199.239 26.408C199.239 24.296 199.751 22.632 200.775 21.416C201.82 20.1787 203.26 19.56 205.095 19.56C206.93 19.56 208.359 20.1787 209.383 21.416C210.428 22.6533 210.951 24.3173 210.951 26.408C210.951 28.5413 210.439 30.2373 209.415 31.496C208.391 32.7333 206.951 33.352 205.095 33.352ZM205.095 30.248C205.735 30.248 206.226 29.9493 206.567 29.352C206.908 28.7547 207.079 27.7733 207.079 26.408C207.079 25.0853 206.898 24.1253 206.535 23.528C206.194 22.9307 205.714 22.632 205.095 22.632C204.455 22.632 203.964 22.92 203.623 23.496C203.282 24.072 203.111 25.0427 203.111 26.408C203.111 27.7947 203.282 28.7867 203.623 29.384C203.964 29.96 204.455 30.248 205.095 30.248Z" fill="#E29030"/>
<path d="M317.409 62H321.614C324.364 62 325.5 60.6591 325.5 58.9091C325.5 57.0682 324.227 56.0682 323.159 56V55.8864C324.159 55.6136 325.045 54.9545 325.045 53.4545C325.045 51.75 323.909 50.3636 321.477 50.3636H317.409V62ZM318.818 60.75V56.7045H321.682C323.205 56.7045 324.159 57.7273 324.159 58.9091C324.159 59.9318 323.455 60.75 321.614 60.75H318.818ZM318.818 55.4773V51.6136H321.477C323.023 51.6136 323.705 52.4318 323.705 53.4545C323.705 54.6818 322.705 55.4773 321.432 55.4773H318.818ZM330.102 62.2045C331.624 62.2045 332.42 61.3864 332.693 60.8182H332.761V62H334.102V56.25C334.102 53.4773 331.988 53.1591 330.874 53.1591C329.556 53.1591 328.056 53.6136 327.374 55.2045L328.647 55.6591C328.943 55.0227 329.641 54.3409 330.92 54.3409C332.153 54.3409 332.761 54.9943 332.761 56.1136V56.1591C332.761 56.8068 332.102 56.75 330.511 56.9545C328.891 57.1648 327.124 57.5227 327.124 59.5227C327.124 61.2273 328.443 62.2045 330.102 62.2045ZM330.306 61C329.238 61 328.465 60.5227 328.465 59.5909C328.465 58.5682 329.397 58.25 330.443 58.1136C331.011 58.0455 332.534 57.8864 332.761 57.6136V58.8409C332.761 59.9318 331.897 61 330.306 61ZM336.449 62H337.79V56.4773C337.79 55.2955 338.722 54.4318 339.995 54.4318C340.353 54.4318 340.722 54.5 340.813 54.5227V53.1591C340.659 53.1477 340.307 53.1364 340.108 53.1364C339.063 53.1364 338.154 53.7273 337.836 54.5909H337.745V53.2727H336.449V62ZM344.87 62.2045C346.393 62.2045 347.189 61.3864 347.461 60.8182H347.53V62H348.87V56.25C348.87 53.4773 346.757 53.1591 345.643 53.1591C344.325 53.1591 342.825 53.6136 342.143 55.2045L343.416 55.6591C343.711 55.0227 344.41 54.3409 345.689 54.3409C346.922 54.3409 347.53 54.9943 347.53 56.1136V56.1591C347.53 56.8068 346.87 56.75 345.28 56.9545C343.66 57.1648 341.893 57.5227 341.893 59.5227C341.893 61.2273 343.211 62.2045 344.87 62.2045ZM345.075 61C344.007 61 343.234 60.5227 343.234 59.5909C343.234 58.5682 344.166 58.25 345.211 58.1136C345.78 58.0455 347.302 57.8864 347.53 57.6136V58.8409C347.53 59.9318 346.666 61 345.075 61ZM358.042 53.2727H356.587L354.178 60.2273H354.087L351.678 53.2727H350.224L353.451 62H354.814L358.042 53.2727ZM362.014 62.2045C363.537 62.2045 364.332 61.3864 364.605 60.8182H364.673V62H366.014V56.25C366.014 53.4773 363.901 53.1591 362.787 53.1591C361.469 53.1591 359.969 53.6136 359.287 55.2045L360.56 55.6591C360.855 55.0227 361.554 54.3409 362.832 54.3409C364.065 54.3409 364.673 54.9943 364.673 56.1136V56.1591C364.673 56.8068 364.014 56.75 362.423 56.9545C360.804 57.1648 359.037 57.5227 359.037 59.5227C359.037 61.2273 360.355 62.2045 362.014 62.2045ZM362.219 61C361.151 61 360.378 60.5227 360.378 59.5909C360.378 58.5682 361.31 58.25 362.355 58.1136C362.923 58.0455 364.446 57.8864 364.673 57.6136V58.8409C364.673 59.9318 363.81 61 362.219 61ZM368.362 62H369.703V56.4773C369.703 55.2955 370.634 54.4318 371.907 54.4318C372.265 54.4318 372.634 54.5 372.725 54.5227V53.1591C372.572 53.1477 372.22 53.1364 372.021 53.1364C370.975 53.1364 370.066 53.7273 369.748 54.5909H369.657V53.2727H368.362V62ZM378.615 62H379.956V58.733L380.893 57.8636L384.16 62H385.865L381.905 57L385.592 53.2727H383.933L380.115 57.1591H379.956V50.3636H378.615V62ZM390.404 62.1818C392.768 62.1818 394.359 60.3864 394.359 57.6818C394.359 54.9545 392.768 53.1591 390.404 53.1591C388.04 53.1591 386.449 54.9545 386.449 57.6818C386.449 60.3864 388.04 62.1818 390.404 62.1818ZM390.404 60.9773C388.609 60.9773 387.79 59.4318 387.79 57.6818C387.79 55.9318 388.609 54.3636 390.404 54.3636C392.199 54.3636 393.018 55.9318 393.018 57.6818C393.018 59.4318 392.199 60.9773 390.404 60.9773ZM397.487 50.3636H396.214V51.4091C396.214 52.25 395.805 52.9773 395.328 53.6591L396.055 54.25C396.964 53.5227 397.487 52.3182 397.487 51.3864V50.3636ZM398.815 65.2727H400.156V60.6591H400.269C400.565 61.1364 401.133 62.1818 402.815 62.1818C404.997 62.1818 406.519 60.4318 406.519 57.6591C406.519 54.9091 404.997 53.1591 402.792 53.1591C401.088 53.1591 400.565 54.2045 400.269 54.6591H400.11V53.2727H398.815V65.2727ZM400.133 57.6364C400.133 55.6818 400.997 54.3636 402.633 54.3636C404.338 54.3636 405.178 55.7955 405.178 57.6364C405.178 59.5 404.315 60.9773 402.633 60.9773C401.019 60.9773 400.133 59.6136 400.133 57.6364ZM321.023 77.2727H319.159V75.1818H317.818V77.2727H316.5V78.4091H317.818V83.8636C317.818 85.3864 319.045 86.1136 320.182 86.1136C320.682 86.1136 321 86.0227 321.182 85.9545L320.909 84.75C320.795 84.7727 320.614 84.8182 320.318 84.8182C319.727 84.8182 319.159 84.6364 319.159 83.5V78.4091H321.023V77.2727ZM325.508 86.2045C327.031 86.2045 327.826 85.3864 328.099 84.8182H328.167V86H329.508V80.25C329.508 77.4773 327.394 77.1591 326.281 77.1591C324.963 77.1591 323.463 77.6136 322.781 79.2045L324.053 79.6591C324.349 79.0227 325.048 78.3409 326.326 78.3409C327.559 78.3409 328.167 78.9943 328.167 80.1136V80.1591C328.167 80.8068 327.508 80.75 325.917 80.9545C324.298 81.1648 322.531 81.5227 322.531 83.5227C322.531 85.2273 323.849 86.2045 325.508 86.2045ZM325.713 85C324.644 85 323.872 84.5227 323.872 83.5909C323.872 82.5682 324.803 82.25 325.849 82.1136C326.417 82.0455 327.94 81.8864 328.167 81.6136V82.8409C328.167 83.9318 327.303 85 325.713 85ZM331.855 86H333.196V82.733L334.134 81.8636L337.401 86H339.105L335.145 81L338.833 77.2727H337.174L333.355 81.1591H333.196V74.3636H331.855V86ZM341.799 74.3636H340.459V86H341.799V74.3636ZM344.155 86H345.496V77.2727H344.155V86ZM344.837 75.8182C345.36 75.8182 345.792 75.4091 345.792 74.9091C345.792 74.4091 345.36 74 344.837 74C344.314 74 343.883 74.4091 343.883 74.9091C343.883 75.4091 344.314 75.8182 344.837 75.8182ZM351.739 77.2727H349.784V76.3864C349.784 75.5227 350.148 75.0682 351.034 75.0682C351.42 75.0682 351.648 75.1591 351.784 75.2045L352.17 74.0455C351.966 73.9545 351.557 73.8182 350.898 73.8182C349.648 73.8182 348.443 74.5682 348.443 76.0682V77.2727H347.034V78.4091H348.443V86H349.784V78.4091H351.739V77.2727ZM354.859 74.3636H353.518V86H354.859V74.3636ZM359.783 86.2045C361.306 86.2045 362.101 85.3864 362.374 84.8182H362.442V86H363.783V80.25C363.783 77.4773 361.669 77.1591 360.556 77.1591C359.237 77.1591 357.737 77.6136 357.056 79.2045L358.328 79.6591C358.624 79.0227 359.323 78.3409 360.601 78.3409C361.834 78.3409 362.442 78.9943 362.442 80.1136V80.1591C362.442 80.8068 361.783 80.75 360.192 80.9545C358.573 81.1648 356.806 81.5227 356.806 83.5227C356.806 85.2273 358.124 86.2045 359.783 86.2045ZM359.987 85C358.919 85 358.147 84.5227 358.147 83.5909C358.147 82.5682 359.078 82.25 360.124 82.1136C360.692 82.0455 362.215 81.8864 362.442 81.6136V82.8409C362.442 83.9318 361.578 85 359.987 85ZM366.13 86H367.471V80.4773C367.471 79.2955 368.403 78.4318 369.676 78.4318C370.034 78.4318 370.403 78.5 370.494 78.5227V77.1591C370.341 77.1477 369.988 77.1364 369.789 77.1364C368.744 77.1364 367.835 77.7273 367.517 78.5909H367.426V77.2727H366.13V86ZM379.929 86.1818C382.293 86.1818 383.884 84.3864 383.884 81.6818C383.884 78.9545 382.293 77.1591 379.929 77.1591C377.565 77.1591 375.974 78.9545 375.974 81.6818C375.974 84.3864 377.565 86.1818 379.929 86.1818ZM379.929 84.9773C378.134 84.9773 377.315 83.4318 377.315 81.6818C377.315 79.9318 378.134 78.3636 379.929 78.3636C381.724 78.3636 382.543 79.9318 382.543 81.6818C382.543 83.4318 381.724 84.9773 379.929 84.9773ZM387.171 74.3636H385.83V86H387.171V74.3636ZM392.095 86.2045C393.618 86.2045 394.414 85.3864 394.686 84.8182H394.755V86H396.095V80.25C396.095 77.4773 393.982 77.1591 392.868 77.1591C391.55 77.1591 390.05 77.6136 389.368 79.2045L390.641 79.6591C390.936 79.0227 391.635 78.3409 392.914 78.3409C394.147 78.3409 394.755 78.9943 394.755 80.1136V80.1591C394.755 80.8068 394.095 80.75 392.505 80.9545C390.885 81.1648 389.118 81.5227 389.118 83.5227C389.118 85.2273 390.436 86.2045 392.095 86.2045ZM392.3 85C391.232 85 390.459 84.5227 390.459 83.5909C390.459 82.5682 391.391 82.25 392.436 82.1136C393.005 82.0455 394.527 81.8864 394.755 81.6136V82.8409C394.755 83.9318 393.891 85 392.3 85ZM404.625 79.2273C404.204 77.9886 403.261 77.1591 401.534 77.1591C399.693 77.1591 398.329 78.2045 398.329 79.6818C398.329 80.8864 399.045 81.6932 400.647 82.0682L402.102 82.4091C402.983 82.6136 403.397 83.0341 403.397 83.6364C403.397 84.3864 402.602 85 401.352 85C400.255 85 399.568 84.5284 399.329 83.5909L398.057 83.9091C398.369 85.392 399.591 86.1818 401.375 86.1818C403.403 86.1818 404.784 85.0739 404.784 83.5682C404.784 82.3523 404.022 81.5852 402.466 81.2045L401.17 80.8864C400.136 80.6307 399.67 80.2841 399.67 79.6136C399.67 78.8636 400.466 78.3182 401.534 78.3182C402.704 78.3182 403.187 78.9659 403.42 79.5682L404.625 79.2273ZM406.702 86H408.043V77.2727H406.702V86ZM407.384 75.8182C407.907 75.8182 408.339 75.4091 408.339 74.9091C408.339 74.4091 407.907 74 407.384 74C406.861 74 406.43 74.4091 406.43 74.9091C406.43 75.4091 406.861 75.8182 407.384 75.8182ZM410.149 86H416.99V84.75H412.013V84.6591L416.831 78.3409V77.2727H410.308V78.5227H415.104V78.6136L410.149 84.9773V86Z" fill="#1C1C1C"/>
<path d="M329.12 33.288C328.331 33.288 327.723 33.0747 327.296 32.648C326.869 32.2213 326.656 31.6027 326.656 30.792V28.968H319.488C318.699 28.968 318.069 28.7973 317.6 28.456C317.131 28.0933 316.896 27.5493 316.896 26.824C316.896 26.3973 316.992 25.9707 317.184 25.544C317.376 25.096 317.717 24.5307 318.208 23.848L326.496 11.784C326.859 11.2293 327.253 10.824 327.68 10.568C328.128 10.2907 328.651 10.152 329.248 10.152C329.952 10.152 330.507 10.3653 330.912 10.792C331.317 11.1973 331.52 11.816 331.52 12.648V25.064H332.704C334.133 25.064 334.848 25.7147 334.848 27.016C334.848 28.3173 334.133 28.968 332.704 28.968H331.52V30.792C331.52 31.6027 331.307 32.2213 330.88 32.648C330.475 33.0747 329.888 33.288 329.12 33.288ZM326.656 25.064V17.608L321.6 25.064H326.656ZM338.308 33.224C337.71 33.224 337.23 33.064 336.868 32.744C336.505 32.4027 336.313 31.976 336.292 31.464C336.292 30.952 336.505 30.4293 336.932 29.896L340.996 24.904L337.284 20.36C336.836 19.8053 336.622 19.272 336.644 18.76C336.665 18.248 336.857 17.832 337.22 17.512C337.582 17.192 338.062 17.032 338.66 17.032C339.236 17.032 339.716 17.128 340.1 17.32C340.484 17.512 340.846 17.832 341.188 18.28L343.748 21.608L346.34 18.28C346.681 17.832 347.044 17.512 347.428 17.32C347.812 17.128 348.292 17.032 348.868 17.032C349.465 17.032 349.945 17.2027 350.308 17.544C350.67 17.864 350.852 18.28 350.852 18.792C350.873 19.304 350.66 19.8267 350.212 20.36L346.5 24.904L350.596 29.896C351.044 30.4293 351.257 30.952 351.236 31.464C351.214 31.976 351.012 32.4027 350.628 32.744C350.265 33.064 349.785 33.224 349.188 33.224C348.633 33.224 348.153 33.128 347.748 32.936C347.364 32.7227 347.001 32.4027 346.66 31.976L343.748 28.264L340.804 31.976C340.462 32.3813 340.1 32.6907 339.716 32.904C339.353 33.1173 338.884 33.224 338.308 33.224Z" fill="#E29030"/>
</svg>
