<svg width="226" height="40" viewBox="0 0 226 40" fill="none" xmlns="http://www.w3.org/2000/svg">
<path d="M1.82955 3.81818H0.377841L3.65909 8.90909L0.377841 14H1.82955L4.45455 9.84375H4.53409L7.15909 14H8.6108L5.40909 8.90909L8.6108 3.81818H7.15909L4.53409 8.05398H4.45455L1.82955 3.81818ZM10.0563 14H11.2296V6.36364H10.0563V14ZM10.6529 5.09091C11.1103 5.09091 11.4881 4.73295 11.4881 4.29545C11.4881 3.85795 11.1103 3.5 10.6529 3.5C10.1955 3.5 9.81765 3.85795 9.81765 4.29545C9.81765 4.73295 10.1955 5.09091 10.6529 5.09091ZM13.3786 14H14.5518V9.22727C14.5518 8.10866 15.3672 7.31818 16.282 7.31818C17.1719 7.31818 17.7933 7.89986 17.7933 8.76989V14H18.9865V9.02841C18.9865 8.04403 19.603 7.31818 20.6768 7.31818C21.5121 7.31818 22.228 7.76065 22.228 8.8892V14H23.4013V8.8892C23.4013 7.09446 22.4368 6.2642 21.0746 6.2642C19.9808 6.2642 19.1804 6.76633 18.7876 7.55682H18.7081C18.3303 6.74148 17.6641 6.2642 16.6598 6.2642C15.6655 6.2642 14.9297 6.74148 14.6115 7.55682H14.5121V6.36364H13.3786V14ZM25.5465 14H26.7198V6.36364H25.5465V14ZM26.1431 5.09091C26.6005 5.09091 26.9783 4.73295 26.9783 4.29545C26.9783 3.85795 26.6005 3.5 26.1431 3.5C25.6857 3.5 25.3079 3.85795 25.3079 4.29545C25.3079 4.73295 25.6857 5.09091 26.1431 5.09091ZM29.6245 16.8636C30.6834 16.8636 31.4292 16.3018 31.8716 15.1136L35.123 6.38352L33.8404 6.36364L31.7324 12.4489H31.6529L29.5449 6.36364H28.2722L31.0961 14.0398L30.8773 14.6364C30.4498 15.7997 29.9228 15.9091 29.0676 15.6903L28.7694 16.7244C28.8887 16.7841 29.2267 16.8636 29.6245 16.8636ZM38.6902 14.179C40.0225 14.179 40.7186 13.4631 40.9572 12.9659H41.0169V14H42.1902V8.96875C42.1902 6.54261 40.3407 6.2642 39.3663 6.2642C38.2129 6.2642 36.9004 6.66193 36.3038 8.05398L37.4174 8.4517C37.676 7.89489 38.2875 7.2983 39.4061 7.2983C40.4849 7.2983 41.0169 7.87003 41.0169 8.84943V8.8892C41.0169 9.45597 40.4402 9.40625 39.0481 9.58523C37.6312 9.76918 36.085 10.0824 36.085 11.8324C36.085 13.3239 37.2385 14.179 38.6902 14.179ZM38.8691 13.125C37.9345 13.125 37.2583 12.7074 37.2583 11.892C37.2583 10.9972 38.0737 10.7188 38.9885 10.5994C39.4856 10.5398 40.818 10.4006 41.0169 10.1619V11.2358C41.0169 12.1903 40.2612 13.125 38.8691 13.125ZM52.6442 9.08807H48.1896V10.1818H52.6442V9.08807ZM58.3876 11.9119H63.1802V14H64.3535V11.9119H65.7456V10.8182H64.3535V3.81818H62.862L58.3876 10.8977V11.9119ZM63.1802 10.8182H59.72V10.7386L63.1007 5.3892H63.1802V10.8182ZM70.9297 14.1392C73.1768 14.1392 74.4695 12.2351 74.4695 8.90909C74.4695 5.60795 73.157 3.67898 70.9297 3.67898C68.7024 3.67898 67.3899 5.60795 67.3899 8.90909C67.3899 12.2351 68.6825 14.1392 70.9297 14.1392ZM70.9297 13.0455C69.4482 13.0455 68.5831 11.5589 68.5831 8.90909C68.5831 6.2642 69.4581 4.75284 70.9297 4.75284C72.4013 4.75284 73.2763 6.2642 73.2763 8.90909C73.2763 11.5589 72.4112 13.0455 70.9297 13.0455ZM81.549 12.0909C81.549 13.2045 82.245 14.1392 83.5376 14.1392C84.8104 14.1392 85.5064 13.2045 85.5064 12.0909V11.554C85.5064 10.4403 84.8303 9.50568 83.5376 9.50568C82.2649 9.50568 81.549 10.4403 81.549 11.554V12.0909ZM76.478 6.2642C76.478 7.37784 77.174 8.3125 78.4666 8.3125C79.7393 8.3125 80.4354 7.37784 80.4354 6.2642V5.72727C80.4354 4.61364 79.7592 3.67898 78.4666 3.67898C77.1939 3.67898 76.478 4.61364 76.478 5.72727V6.2642ZM76.8558 14H77.9893L84.9893 3.81818H83.8558L76.8558 14ZM82.5632 11.554C82.5632 10.9375 82.8416 10.3608 83.5376 10.3608C84.2536 10.3608 84.4922 10.9375 84.4922 11.554V12.0909C84.4922 12.7074 84.2337 13.2841 83.5376 13.2841C82.8217 13.2841 82.5632 12.7074 82.5632 12.0909V11.554ZM77.4922 5.72727C77.4922 5.1108 77.7706 4.53409 78.4666 4.53409C79.1825 4.53409 79.4212 5.1108 79.4212 5.72727V6.2642C79.4212 6.88068 79.1626 7.45739 78.4666 7.45739C77.7507 7.45739 77.4922 6.88068 77.4922 6.2642V5.72727Z" fill="#1C1C1C"/>
<path d="M124.651 14L125.675 11.1165H129.791L130.815 14H132.108L128.369 3.81818H127.097L123.358 14H124.651ZM126.062 10.0227L127.693 5.42898H127.773L129.403 10.0227H126.062ZM136.418 14.1591C137.89 14.1591 138.387 13.2443 138.646 12.8267H138.785V14H139.918V3.81818H138.745V7.5767H138.646C138.387 7.17898 137.93 6.2642 136.438 6.2642C134.509 6.2642 133.177 7.79545 133.177 10.2017C133.177 12.6278 134.509 14.1591 136.418 14.1591ZM136.577 13.1051C135.106 13.1051 134.35 11.8125 134.35 10.1818C134.35 8.57102 135.086 7.31818 136.577 7.31818C138.009 7.31818 138.765 8.47159 138.765 10.1818C138.765 11.9119 137.989 13.1051 136.577 13.1051ZM144.477 14.179C145.81 14.179 146.506 13.4631 146.744 12.9659H146.804V14H147.977V8.96875C147.977 6.54261 146.128 6.2642 145.153 6.2642C144 6.2642 142.688 6.66193 142.091 8.05398L143.205 8.4517C143.463 7.89489 144.075 7.2983 145.193 7.2983C146.272 7.2983 146.804 7.87003 146.804 8.84943V8.8892C146.804 9.45597 146.227 9.40625 144.835 9.58523C143.418 9.76918 141.872 10.0824 141.872 11.8324C141.872 13.3239 143.026 14.179 144.477 14.179ZM144.656 13.125C143.722 13.125 143.045 12.7074 143.045 11.892C143.045 10.9972 143.861 10.7188 144.776 10.5994C145.273 10.5398 146.605 10.4006 146.804 10.1619V11.2358C146.804 12.1903 146.048 13.125 144.656 13.125ZM150.278 14H151.411V12.8267H151.551C151.809 13.2443 152.306 14.1591 153.778 14.1591C155.687 14.1591 157.019 12.6278 157.019 10.2017C157.019 7.79545 155.687 6.2642 153.758 6.2642C152.267 6.2642 151.809 7.17898 151.551 7.5767H151.451V3.81818H150.278V14ZM151.431 10.1818C151.431 8.47159 152.187 7.31818 153.619 7.31818C155.11 7.31818 155.846 8.57102 155.846 10.1818C155.846 11.8125 155.09 13.1051 153.619 13.1051C152.207 13.1051 151.431 11.9119 151.431 10.1818ZM158.814 14H159.987V6.36364H158.814V14ZM159.411 5.09091C159.868 5.09091 160.246 4.73295 160.246 4.29545C160.246 3.85795 159.868 3.5 159.411 3.5C158.953 3.5 158.575 3.85795 158.575 4.29545C158.575 4.73295 158.953 5.09091 159.411 5.09091ZM162.892 16.8636C163.951 16.8636 164.697 16.3018 165.139 15.1136L168.391 6.38352L167.108 6.36364L165 12.4489H164.92L162.812 6.36364H161.54L164.364 14.0398L164.145 14.6364C163.717 15.7997 163.19 15.9091 162.335 15.6903L162.037 16.7244C162.156 16.7841 162.494 16.8636 162.892 16.8636ZM172.772 14.1591C174.84 14.1591 176.232 12.5881 176.232 10.2216C176.232 7.83523 174.84 6.2642 172.772 6.2642C170.704 6.2642 169.312 7.83523 169.312 10.2216C169.312 12.5881 170.704 14.1591 172.772 14.1591ZM172.772 13.1051C171.201 13.1051 170.485 11.7528 170.485 10.2216C170.485 8.69034 171.201 7.31818 172.772 7.31818C174.343 7.31818 175.059 8.69034 175.059 10.2216C175.059 11.7528 174.343 13.1051 172.772 13.1051ZM181.344 6.36364H179.713V4.53409H178.54V6.36364H177.387V7.35795H178.54V12.1307C178.54 13.4631 179.614 14.0994 180.608 14.0994C181.046 14.0994 181.324 14.0199 181.483 13.9602L181.245 12.9062C181.145 12.9261 180.986 12.9659 180.728 12.9659C180.211 12.9659 179.713 12.8068 179.713 11.8125V7.35795H181.344V6.36364ZM191.422 9.08807H186.967V10.1818H191.422V9.08807ZM197.404 14H203.827V12.9062H199.094V12.8267L201.381 10.3807C203.131 8.50639 203.648 7.63139 203.648 6.50284C203.648 4.93182 202.375 3.67898 200.585 3.67898C198.801 3.67898 197.443 4.89205 197.443 6.68182H198.617C198.617 5.52344 199.367 4.75284 200.546 4.75284C201.649 4.75284 202.494 5.42898 202.494 6.50284C202.494 7.44247 201.943 8.13849 200.764 9.42614L197.404 13.1051V14ZM209.32 14.1392C211.294 14.1392 212.761 12.9013 212.761 11.2358C212.761 9.94318 211.995 9.00355 210.713 8.78977V8.71023C211.742 8.39702 212.383 7.55185 212.383 6.40341C212.383 4.96165 211.244 3.67898 209.36 3.67898C207.6 3.67898 206.139 4.76278 206.079 6.36364H207.272C207.317 5.34943 208.281 4.75284 209.34 4.75284C210.464 4.75284 211.19 5.43395 211.19 6.46307C211.19 7.53693 210.35 8.23295 209.142 8.23295H208.326V9.3267H209.142C210.688 9.3267 211.548 10.1122 211.548 11.2358C211.548 12.3146 210.608 13.0455 209.301 13.0455C208.122 13.0455 207.188 12.4389 207.113 11.4545H205.86C205.935 13.0554 207.347 14.1392 209.32 14.1392ZM219.985 12.0909C219.985 13.2045 220.681 14.1392 221.973 14.1392C223.246 14.1392 223.942 13.2045 223.942 12.0909V11.554C223.942 10.4403 223.266 9.50568 221.973 9.50568C220.7 9.50568 219.985 10.4403 219.985 11.554V12.0909ZM214.914 6.2642C214.914 7.37784 215.61 8.3125 216.902 8.3125C218.175 8.3125 218.871 7.37784 218.871 6.2642V5.72727C218.871 4.61364 218.195 3.67898 216.902 3.67898C215.629 3.67898 214.914 4.61364 214.914 5.72727V6.2642ZM215.291 14H216.425L223.425 3.81818H222.291L215.291 14ZM220.999 11.554C220.999 10.9375 221.277 10.3608 221.973 10.3608C222.689 10.3608 222.928 10.9375 222.928 11.554V12.0909C222.928 12.7074 222.669 13.2841 221.973 13.2841C221.257 13.2841 220.999 12.7074 220.999 12.0909V11.554ZM215.928 5.72727C215.928 5.1108 216.206 4.53409 216.902 4.53409C217.618 4.53409 217.857 5.1108 217.857 5.72727V6.2642C217.857 6.88068 217.598 7.45739 216.902 7.45739C216.186 7.45739 215.928 6.88068 215.928 6.2642V5.72727Z" fill="#1C1C1C"/>
<path d="M8.19318 30H9.46591C9.08807 28.0312 7.4375 26.679 5.28977 26.679C2.67969 26.679 0.835227 28.6875 0.835227 31.9091C0.835227 35.1307 2.66477 37.1392 5.36932 37.1392C7.79545 37.1392 9.52557 35.5234 9.52557 33.0028V31.9091H5.64773V33.0028H8.33239C8.29759 34.8324 7.09446 35.9858 5.36932 35.9858C3.48011 35.9858 2.02841 34.554 2.02841 31.9091C2.02841 29.2642 3.48011 27.8324 5.28977 27.8324C6.76136 27.8324 7.76065 28.6626 8.19318 30ZM14.6799 37.1591C16.231 37.1591 17.3645 36.3835 17.7225 35.2301L16.589 34.9119C16.2907 35.7074 15.5996 36.1051 14.6799 36.1051C13.3027 36.1051 12.3532 35.2152 12.2985 33.5795H17.8418V33.0824C17.8418 30.2386 16.1515 29.2642 14.5605 29.2642C12.4924 29.2642 11.1202 30.8949 11.1202 33.2415C11.1202 35.5881 12.4725 37.1591 14.6799 37.1591ZM12.2985 32.5653C12.378 31.3771 13.2182 30.3182 14.5605 30.3182C15.8333 30.3182 16.6486 31.2727 16.6486 32.5653H12.2985ZM22.7289 37.1591C24.7971 37.1591 26.1891 35.5881 26.1891 33.2216C26.1891 30.8352 24.7971 29.2642 22.7289 29.2642C20.6607 29.2642 19.2686 30.8352 19.2686 33.2216C19.2686 35.5881 20.6607 37.1591 22.7289 37.1591ZM22.7289 36.1051C21.1578 36.1051 20.4419 34.7528 20.4419 33.2216C20.4419 31.6903 21.1578 30.3182 22.7289 30.3182C24.2999 30.3182 25.0158 31.6903 25.0158 33.2216C25.0158 34.7528 24.2999 36.1051 22.7289 36.1051ZM27.9801 37H29.1534V32.2273C29.1534 31.1087 29.9688 30.3182 30.8835 30.3182C31.7734 30.3182 32.3949 30.8999 32.3949 31.7699V37H33.5881V32.0284C33.5881 31.044 34.2045 30.3182 35.2784 30.3182C36.1136 30.3182 36.8295 30.7607 36.8295 31.8892V37H38.0028V31.8892C38.0028 30.0945 37.0384 29.2642 35.6761 29.2642C34.5824 29.2642 33.782 29.7663 33.3892 30.5568H33.3097C32.9318 29.7415 32.2656 29.2642 31.2614 29.2642C30.267 29.2642 29.5312 29.7415 29.2131 30.5568H29.1136V29.3636H27.9801V37ZM43.3498 37.1591C44.9009 37.1591 46.0344 36.3835 46.3924 35.2301L45.2589 34.9119C44.9606 35.7074 44.2695 36.1051 43.3498 36.1051C41.9727 36.1051 41.0231 35.2152 40.9684 33.5795H46.5117V33.0824C46.5117 30.2386 44.8214 29.2642 43.2305 29.2642C41.1623 29.2642 39.7901 30.8949 39.7901 33.2415C39.7901 35.5881 41.1424 37.1591 43.3498 37.1591ZM40.9684 32.5653C41.0479 31.3771 41.8881 30.3182 43.2305 30.3182C44.5032 30.3182 45.3185 31.2727 45.3185 32.5653H40.9684ZM51.6175 29.3636H49.9869V27.5341H48.8136V29.3636H47.6602V30.358H48.8136V35.1307C48.8136 36.4631 49.8874 37.0994 50.8817 37.0994C51.3192 37.0994 51.5977 37.0199 51.7567 36.9602L51.5181 35.9062C51.4187 35.9261 51.2596 35.9659 51.0011 35.9659C50.484 35.9659 49.9869 35.8068 49.9869 34.8125V30.358H51.6175V29.3636ZM53.3825 37H54.5558V32.1676C54.5558 31.1335 55.3711 30.3778 56.4847 30.3778C56.7979 30.3778 57.1211 30.4375 57.2006 30.4574V29.2642C57.0664 29.2543 56.7582 29.2443 56.5842 29.2443C55.6694 29.2443 54.8739 29.7614 54.5955 30.517H54.516V29.3636H53.3825V37ZM58.5914 37H59.7647V29.3636H58.5914V37ZM59.188 28.0909C59.6454 28.0909 60.0233 27.733 60.0233 27.2955C60.0233 26.858 59.6454 26.5 59.188 26.5C58.7306 26.5 58.3528 26.858 58.3528 27.2955C58.3528 27.733 58.7306 28.0909 59.188 28.0909ZM62.6694 39.8636C63.7283 39.8636 64.4741 39.3018 64.9165 38.1136L68.168 29.3835L66.8853 29.3636L64.7773 35.4489H64.6978L62.5898 29.3636H61.3171L64.141 37.0398L63.9222 37.6364C63.4947 38.7997 62.9677 38.9091 62.1126 38.6903L61.8143 39.7244C61.9336 39.7841 62.2717 39.8636 62.6694 39.8636ZM71.7351 37.179C73.0675 37.179 73.7635 36.4631 74.0021 35.9659H74.0618V37H75.2351V31.9688C75.2351 29.5426 73.3857 29.2642 72.4112 29.2642C71.2578 29.2642 69.9453 29.6619 69.3487 31.054L70.4624 31.4517C70.7209 30.8949 71.3324 30.2983 72.451 30.2983C73.5298 30.2983 74.0618 30.87 74.0618 31.8494V31.8892C74.0618 32.456 73.4851 32.4062 72.093 32.5852C70.6761 32.7692 69.13 33.0824 69.13 34.8324C69.13 36.3239 70.2834 37.179 71.7351 37.179ZM71.9141 36.125C70.9794 36.125 70.3033 35.7074 70.3033 34.892C70.3033 33.9972 71.1186 33.7188 72.0334 33.5994C72.5305 33.5398 73.8629 33.4006 74.0618 33.1619V34.2358C74.0618 35.1903 73.3061 36.125 71.9141 36.125ZM85.6891 32.0881H81.2346V33.1818H85.6891V32.0881ZM95.2507 26.8182H94.0178L91.4723 28.5085V29.7614L93.9581 28.1108H94.0178V37H95.2507V26.8182ZM101.5 37.1392C103.747 37.1392 105.04 35.2351 105.04 31.9091C105.04 28.608 103.727 26.679 101.5 26.679C99.2727 26.679 97.9602 28.608 97.9602 31.9091C97.9602 35.2351 99.2528 37.1392 101.5 37.1392ZM101.5 36.0455C100.018 36.0455 99.1534 34.5589 99.1534 31.9091C99.1534 29.2642 100.028 27.7528 101.5 27.7528C102.972 27.7528 103.847 29.2642 103.847 31.9091C103.847 34.5589 102.982 36.0455 101.5 36.0455ZM112.119 35.0909C112.119 36.2045 112.815 37.1392 114.108 37.1392C115.381 37.1392 116.077 36.2045 116.077 35.0909V34.554C116.077 33.4403 115.401 32.5057 114.108 32.5057C112.835 32.5057 112.119 33.4403 112.119 34.554V35.0909ZM107.048 29.2642C107.048 30.3778 107.744 31.3125 109.037 31.3125C110.31 31.3125 111.006 30.3778 111.006 29.2642V28.7273C111.006 27.6136 110.33 26.679 109.037 26.679C107.764 26.679 107.048 27.6136 107.048 28.7273V29.2642ZM107.426 37H108.56L115.56 26.8182H114.426L107.426 37ZM113.134 34.554C113.134 33.9375 113.412 33.3608 114.108 33.3608C114.824 33.3608 115.062 33.9375 115.062 34.554V35.0909C115.062 35.7074 114.804 36.2841 114.108 36.2841C113.392 36.2841 113.134 35.7074 113.134 35.0909V34.554ZM108.062 28.7273C108.062 28.1108 108.341 27.5341 109.037 27.5341C109.753 27.5341 109.991 28.1108 109.991 28.7273V29.2642C109.991 29.8807 109.733 30.4574 109.037 30.4574C108.321 30.4574 108.062 29.8807 108.062 29.2642V28.7273Z" fill="#1C1C1C"/>
</svg>
