<svg width="845" height="280" viewBox="0 0 845 280" fill="none" xmlns="http://www.w3.org/2000/svg">
<line x1="118" y1="175" x2="348" y2="175" stroke="#C4F1FF" stroke-width="2"/>
<line x1="459" y1="175" x2="689" y2="175" stroke="#C4F1FF" stroke-width="2"/>
<path d="M359.43 244.182C359.43 240.5 357.271 238.205 354.294 238.205C351.317 238.205 349.158 240.5 349.158 244.182C349.158 247.864 351.317 250.159 354.294 250.159C357.271 250.159 359.43 247.864 359.43 244.182ZM358.067 244.182C358.067 247.205 356.408 248.841 354.294 248.841C352.18 248.841 350.521 247.205 350.521 244.182C350.521 241.159 352.18 239.523 354.294 239.523C356.408 239.523 358.067 241.159 358.067 244.182ZM361.018 242.523H363.904V250H365.245V242.523H368.109V241.273H361.018V242.523ZM369.965 250H374.078C375.851 250 376.919 249 376.919 247.659C376.919 246.29 375.88 245.551 374.919 245.409C375.902 245.205 376.601 244.653 376.601 243.591C376.601 242.199 375.408 241.273 373.533 241.273H369.965V250ZM371.237 248.773V246.091H374.078C374.999 246.091 375.556 246.642 375.556 247.545C375.556 248.307 374.999 248.773 374.078 248.773H371.237ZM371.237 244.932V242.5H373.533C374.607 242.5 375.26 242.949 375.26 243.682C375.26 244.46 374.607 244.932 373.533 244.932H371.237ZM382.508 250.182C384.281 250.182 385.576 249.295 385.986 247.977L384.69 247.614C384.349 248.523 383.559 248.977 382.508 248.977C380.934 248.977 379.849 247.96 379.787 246.091H386.122V245.523C386.122 242.273 384.19 241.159 382.372 241.159C380.008 241.159 378.44 243.023 378.44 245.705C378.44 248.386 379.986 250.182 382.508 250.182ZM379.787 244.932C379.878 243.574 380.838 242.364 382.372 242.364C383.826 242.364 384.758 243.455 384.758 244.932H379.787ZM387.249 242.523H390.136V250H391.476V242.523H394.34V241.273H387.249V242.523ZM397.537 248.023V241.273H396.196V250H397.764L401.946 243.25V250H403.287V241.273H401.741L397.537 248.023ZM404.455 242.523H407.342V250H408.683V242.523H411.546V241.273H404.455V242.523ZM414.743 244.432V241.273H413.402V250H417.061C419.107 250 420.22 248.75 420.22 247.182C420.22 245.591 419.107 244.432 417.061 244.432H414.743ZM414.743 245.682H417.061C418.124 245.682 418.88 246.33 418.88 247.25C418.88 248.131 418.124 248.75 417.061 248.75H414.743V245.682ZM427.903 241.273H426.562V250H427.903V246.273H432.084V250H433.425V241.273H432.084V245.023H427.903V241.273ZM438.342 250.205C439.865 250.205 440.661 249.386 440.933 248.818H441.001V250H442.342V244.25C442.342 241.477 440.229 241.159 439.115 241.159C437.797 241.159 436.297 241.614 435.615 243.205L436.888 243.659C437.183 243.023 437.882 242.341 439.161 242.341C440.393 242.341 441.001 242.994 441.001 244.114V244.159C441.001 244.807 440.342 244.75 438.751 244.955C437.132 245.165 435.365 245.523 435.365 247.523C435.365 249.227 436.683 250.205 438.342 250.205ZM438.547 249C437.479 249 436.706 248.523 436.706 247.591C436.706 246.568 437.638 246.25 438.683 246.114C439.251 246.045 440.774 245.886 441.001 245.614V246.841C441.001 247.932 440.138 249 438.547 249ZM449.09 250H453.203C454.976 250 456.044 249 456.044 247.659C456.044 246.29 455.005 245.551 454.044 245.409C455.027 245.205 455.726 244.653 455.726 243.591C455.726 242.199 454.533 241.273 452.658 241.273H449.09V250ZM450.363 248.773V246.091H453.203C454.124 246.091 454.681 246.642 454.681 247.545C454.681 248.307 454.124 248.773 453.203 248.773H450.363ZM450.363 244.932V242.5H452.658C453.732 242.5 454.385 242.949 454.385 243.682C454.385 244.46 453.732 244.932 452.658 244.932H450.363ZM461.52 250.182C463.451 250.182 464.724 249 464.951 247.455H463.611C463.361 248.409 462.565 248.977 461.52 248.977C459.929 248.977 458.906 247.659 458.906 245.636C458.906 243.659 459.951 242.364 461.52 242.364C462.701 242.364 463.406 243.091 463.611 243.886H464.951C464.724 242.25 463.338 241.159 461.497 241.159C459.133 241.159 457.565 243.023 457.565 245.682C457.565 248.295 459.065 250.182 461.52 250.182ZM470.471 250.182C472.243 250.182 473.539 249.295 473.948 247.977L472.653 247.614C472.312 248.523 471.522 248.977 470.471 248.977C468.897 248.977 467.812 247.96 467.749 246.091H474.084V245.523C474.084 242.273 472.153 241.159 470.334 241.159C467.971 241.159 466.403 243.023 466.403 245.705C466.403 248.386 467.948 250.182 470.471 250.182ZM467.749 244.932C467.84 243.574 468.8 242.364 470.334 242.364C471.789 242.364 472.721 243.455 472.721 244.932H467.749ZM378.988 274H383.102C384.875 274 385.943 273 385.943 271.659C385.943 270.29 384.903 269.551 383.943 269.409C384.926 269.205 385.625 268.653 385.625 267.591C385.625 266.199 384.431 265.273 382.556 265.273H378.988V274ZM380.261 272.773V270.091H383.102C384.022 270.091 384.579 270.642 384.579 271.545C384.579 272.307 384.022 272.773 383.102 272.773H380.261ZM380.261 268.932V266.5H382.556C383.63 266.5 384.284 266.949 384.284 267.682C384.284 268.46 383.63 268.932 382.556 268.932H380.261ZM391.418 274.182C393.782 274.182 395.373 272.386 395.373 269.682C395.373 266.955 393.782 265.159 391.418 265.159C389.054 265.159 387.463 266.955 387.463 269.682C387.463 272.386 389.054 274.182 391.418 274.182ZM391.418 272.977C389.623 272.977 388.804 271.432 388.804 269.682C388.804 267.932 389.623 266.364 391.418 266.364C393.213 266.364 394.032 267.932 394.032 269.682C394.032 271.432 393.213 272.977 391.418 272.977ZM397.319 274H398.66V266.523H402.842V274H404.183V265.273H397.319V274ZM406.532 277.273H407.873V272.659H407.987C408.282 273.136 408.85 274.182 410.532 274.182C412.714 274.182 414.237 272.432 414.237 269.659C414.237 266.909 412.714 265.159 410.509 265.159C408.805 265.159 408.282 266.205 407.987 266.659H407.827V265.273H406.532V277.273ZM407.85 269.636C407.85 267.682 408.714 266.364 410.35 266.364C412.055 266.364 412.896 267.795 412.896 269.636C412.896 271.5 412.032 272.977 410.35 272.977C408.737 272.977 407.85 271.614 407.85 269.636ZM419.727 274.182C422.091 274.182 423.682 272.386 423.682 269.682C423.682 266.955 422.091 265.159 419.727 265.159C417.364 265.159 415.773 266.955 415.773 269.682C415.773 272.386 417.364 274.182 419.727 274.182ZM419.727 272.977C417.932 272.977 417.114 271.432 417.114 269.682C417.114 267.932 417.932 266.364 419.727 266.364C421.523 266.364 422.341 267.932 422.341 269.682C422.341 271.432 421.523 272.977 419.727 272.977ZM429.174 274.182C431.106 274.182 432.379 273 432.606 271.455H431.265C431.015 272.409 430.22 272.977 429.174 272.977C427.583 272.977 426.561 271.659 426.561 269.636C426.561 267.659 427.606 266.364 429.174 266.364C430.356 266.364 431.061 267.091 431.265 267.886H432.606C432.379 266.25 430.992 265.159 429.152 265.159C426.788 265.159 425.22 267.023 425.22 269.682C425.22 272.295 426.72 274.182 429.174 274.182ZM435.807 268.432V265.273H434.466V274H438.125C440.171 274 441.285 272.75 441.285 271.182C441.285 269.591 440.171 268.432 438.125 268.432H435.807ZM442.671 274H444.012V265.273H442.671V274ZM435.807 269.682H438.125C439.188 269.682 439.944 270.33 439.944 271.25C439.944 272.131 439.188 272.75 438.125 272.75H435.807V269.682Z" fill="#6E7381"/>
<circle cx="411.5" cy="175.5" r="47.5" fill="#E0F8FF"/>
<g clip-path="url(#clip0_778_132)">
<path fill-rule="evenodd" clip-rule="evenodd" d="M400.093 163.105C400.225 163.87 399.712 164.598 398.946 164.73C398.184 164.862 397.453 164.351 397.321 163.583C396.274 157.517 400.96 152 407.067 152C413.182 152 417.845 157.517 416.818 163.559C416.687 164.325 415.961 164.841 415.195 164.71C414.43 164.58 413.915 163.854 414.045 163.088C414.783 158.747 411.43 154.812 407.067 154.812C402.691 154.812 399.344 158.765 400.093 163.105ZM416.406 172.685C418.467 171.666 420.977 172.492 422.031 174.56C424.828 173.177 428.114 175.228 428.114 178.344V192.969C428.114 196.846 424.96 200 421.083 200H409.632C407.696 200 405.826 199.19 404.502 197.778L395.008 187.651C393.377 185.938 393.465 183.213 395.236 181.612C396.915 180.095 399.57 180.211 401.155 181.871L402.807 183.601V161.938C402.807 159.556 404.777 157.653 407.153 157.72C409.421 157.782 411.265 159.7 411.265 161.996V170.608C413.257 169.917 415.448 170.805 416.406 172.685ZM421.083 197.188C423.409 197.188 425.302 195.295 425.302 192.969V178.344C425.302 177.569 424.671 176.938 423.895 176.938C423.12 176.938 422.489 177.569 422.489 178.344V178.813C422.489 179.589 421.86 180.219 421.083 180.219C420.306 180.219 419.677 179.589 419.677 178.813V176.469C419.677 175.694 419.046 175.063 418.27 175.063C417.495 175.063 416.864 175.694 416.864 176.469V178.813C416.864 179.589 416.235 180.219 415.458 180.219C414.681 180.219 414.052 179.589 414.052 178.813V174.594C414.052 173.819 413.421 173.188 412.645 173.188C411.961 173.188 411.391 173.678 411.265 174.326V178.813C411.265 179.592 410.63 180.226 409.846 180.218C409.061 180.226 408.427 179.591 408.427 178.813C408.427 175.273 408.431 174.491 408.437 173.589C408.444 172.363 408.453 170.915 408.453 161.996C408.453 161.209 407.836 160.553 407.076 160.532C406.275 160.509 405.62 161.147 405.62 161.938V187.111C405.62 188.376 404.07 188.997 403.196 188.081L399.121 183.814C398.578 183.245 397.681 183.193 397.122 183.698C396.529 184.235 396.503 185.144 397.047 185.714C397.064 185.732 399.432 188.258 401.8 190.784C404.169 193.31 406.537 195.836 406.554 195.854C407.348 196.702 408.47 197.188 409.632 197.188H421.083Z" fill="#48CCD5"/>
</g>
<circle cx="363.5" cy="175.5" r="15.5" fill="#48CCD5"/>
<path d="M360.331 181C359.99 181 359.739 180.925 359.579 180.776C359.43 180.616 359.355 180.387 359.355 180.088C359.355 179.907 359.403 179.731 359.499 179.56C359.595 179.389 359.734 179.208 359.915 179.016L363.131 175.592C363.622 175.08 363.974 174.616 364.187 174.2C364.4 173.773 364.507 173.347 364.507 172.92C364.507 171.832 363.851 171.288 362.539 171.288C362.176 171.288 361.814 171.341 361.451 171.448C361.088 171.544 360.72 171.715 360.347 171.96C360.112 172.12 359.894 172.168 359.691 172.104C359.488 172.04 359.334 171.912 359.227 171.72C359.12 171.517 359.083 171.304 359.115 171.08C359.158 170.856 359.296 170.664 359.531 170.504C359.99 170.195 360.502 169.96 361.067 169.8C361.643 169.64 362.219 169.56 362.795 169.56C364 169.56 364.923 169.832 365.563 170.376C366.214 170.92 366.539 171.699 366.539 172.712C366.539 173.395 366.374 174.051 366.043 174.68C365.723 175.309 365.216 175.987 364.523 176.712L362.043 179.304H366.219C366.806 179.304 367.099 179.581 367.099 180.136C367.099 180.712 366.806 181 366.219 181H360.331Z" fill="white"/>
<circle cx="69.5" cy="175.5" r="47.5" fill="#E0F8FF"/>
<g clip-path="url(#clip1_778_132)">
<path fill-rule="evenodd" clip-rule="evenodd" d="M79.9993 153.537C78.8734 153.537 77.7781 153.671 76.7284 153.924C73.8667 151.7 70.3247 150.467 66.6721 150.438C62.2135 150.404 58.0114 152.113 54.8456 155.253C51.6756 158.398 49.9299 162.591 49.9299 167.059C49.9299 168.164 49.6565 169.264 49.1393 170.241L46.3271 175.55C45.8705 176.408 45.8931 177.422 46.3875 178.262C46.8822 179.101 47.7583 179.613 48.7311 179.63L49.9254 179.63V183.88C49.9254 186.422 51.9911 188.489 54.53 188.489H57.5228V189.732C57.5228 191.844 59.2396 193.562 61.3498 193.562H74.5029C76.6131 193.562 78.3299 191.844 78.3299 189.732V186.98C78.3299 185.151 78.5173 183.323 78.8877 181.528C79.2545 181.557 79.6252 181.572 79.9993 181.572C87.7194 181.572 94 175.284 94 167.555C94 159.826 87.7193 153.537 79.9993 153.537ZM75.5175 186.98V189.732C75.5175 190.293 75.0624 190.75 74.5029 190.75H61.3498C60.7903 190.75 60.3352 190.293 60.3352 189.732V188.145C60.3352 186.784 59.2286 185.677 57.8682 185.677H54.53C53.5418 185.677 52.7378 184.871 52.7378 183.88V179.286C52.7378 177.925 51.6312 176.818 50.2708 176.818H48.838L51.6244 171.557C52.3558 170.177 52.7423 168.621 52.7423 167.059C52.7423 163.346 54.1927 159.863 56.8263 157.25C59.4559 154.641 62.9428 153.223 66.6497 153.25C69.0771 153.27 71.4449 153.928 73.511 155.136C69.049 157.482 65.9986 162.168 65.9986 167.555C65.9986 173.937 70.2809 179.337 76.1199 181.025C75.7199 182.985 75.5175 184.982 75.5175 186.98ZM79.9993 178.76C73.8302 178.76 68.8112 173.733 68.8112 167.555C68.8112 161.376 73.8301 156.35 79.9993 156.35C86.1686 156.35 91.1876 161.376 91.1876 167.555C91.1876 173.733 86.1686 178.76 79.9993 178.76ZM80.2663 158.754C78.8064 158.681 77.3773 159.229 76.346 160.26C75.7968 160.809 75.7968 161.7 76.346 162.249C76.8951 162.798 77.7855 162.798 78.3346 162.249C78.8116 161.772 79.448 161.527 80.124 161.562C81.2895 161.622 82.2664 162.578 82.3479 163.741C82.4211 164.786 81.8166 165.739 80.8435 166.113C79.4975 166.63 78.5932 167.964 78.5932 169.431C78.5932 170.208 79.2228 170.838 79.9994 170.838C80.776 170.838 81.4057 170.208 81.4057 169.431C81.4057 169.119 81.5852 168.841 81.8526 168.738C83.9873 167.918 85.3137 165.831 85.1534 163.544C84.9714 160.945 82.8703 158.885 80.2663 158.754ZM78.5933 173.494C78.5933 172.718 79.2229 172.088 79.9995 172.088C80.7761 172.088 81.4057 172.718 81.4058 173.494V174.957C81.4058 175.733 80.7761 176.363 79.9995 176.363C79.2229 176.363 78.5933 175.733 78.5933 174.957V173.494Z" fill="#48CCD5"/>
</g>
<circle cx="21.5" cy="175.5" r="15.5" fill="#48CCD5"/>
<path d="M18.6991 181C18.1125 181 17.8191 180.712 17.8191 180.136C17.8191 179.581 18.1125 179.304 18.6991 179.304H20.4911V172.056L19.1311 172.872C18.8751 173.021 18.6405 173.059 18.4271 172.984C18.2245 172.909 18.0698 172.776 17.9631 172.584C17.8565 172.392 17.8245 172.184 17.8671 171.96C17.9098 171.725 18.0591 171.533 18.3151 171.384L20.5231 170.056C20.7365 169.928 20.9498 169.821 21.1631 169.736C21.3765 169.64 21.5738 169.592 21.7551 169.592C21.9791 169.592 22.1658 169.656 22.3151 169.784C22.4645 169.901 22.5391 170.099 22.5391 170.376V179.304H24.1711C24.7578 179.304 25.0511 179.581 25.0511 180.136C25.0511 180.712 24.7578 181 24.1711 181H18.6991Z" fill="white"/>
<path d="M6.03878 250H7.44787V244.795H13.6524V250H15.0615V238.364H13.6524V243.545H7.44787V238.364H6.03878V250ZM20.1689 250.205C21.6916 250.205 22.4871 249.386 22.7598 248.818H22.828V250H24.1689V244.25C24.1689 241.477 22.0553 241.159 20.9416 241.159C19.6234 241.159 18.1234 241.614 17.4416 243.205L18.7143 243.659C19.0098 243.023 19.7087 242.341 20.9871 242.341C22.22 242.341 22.828 242.994 22.828 244.114V244.159C22.828 244.807 22.1689 244.75 20.578 244.955C18.9587 245.165 17.1916 245.523 17.1916 247.523C17.1916 249.227 18.5098 250.205 20.1689 250.205ZM20.3734 249C19.3053 249 18.5325 248.523 18.5325 247.591C18.5325 246.568 19.4643 246.25 20.5098 246.114C21.078 246.045 22.6007 245.886 22.828 245.614V246.841C22.828 247.932 21.9643 249 20.3734 249ZM25.9709 250H27.5845L30.5618 246.25H31.2436V250H32.5845V246.25H33.2663L36.2209 250H37.8345L34.3118 245.568L37.7891 241.273H36.1981L33.2891 245H32.5845V241.273H31.2436V245H30.5163L27.6072 241.273H26.0163L29.5163 245.568L25.9709 250ZM44.4234 248.182L41.4234 241.273H39.6507V250H40.9916V243.199L43.878 250H44.9689L47.8553 243.324V250H49.1962V241.273H47.4689L44.4234 248.182ZM52.8916 248.023V241.273H51.5507V250H53.1189L57.3007 243.25V250H58.6416V241.273H57.0962L52.8916 248.023ZM59.8101 242.523H62.6964V250H64.0374V242.523H66.901V241.273H59.8101V242.523ZM71.9629 250.182C73.7357 250.182 75.0311 249.295 75.4402 247.977L74.1447 247.614C73.8038 248.523 73.0141 248.977 71.9629 248.977C70.3891 248.977 69.3038 247.96 69.2413 246.091H75.5766V245.523C75.5766 242.273 73.6447 241.159 71.8266 241.159C69.4629 241.159 67.8947 243.023 67.8947 245.705C67.8947 248.386 69.4402 250.182 71.9629 250.182ZM69.2413 244.932C69.3322 243.574 70.2925 242.364 71.8266 242.364C73.2811 242.364 74.2129 243.455 74.2129 244.932H69.2413ZM81.9163 250H83.2572V246.318H84.4618L87.3254 250H89.0527L85.4845 245.477L89.0072 241.273H87.28L84.1436 245.068H83.2572V241.273H81.9163V250ZM91.751 241.273H90.4101V250H91.751V246.273H95.9328V250H97.2737V241.273H95.9328V245.023H91.751V241.273ZM103.168 250.182C105.532 250.182 107.123 248.386 107.123 245.682C107.123 242.955 105.532 241.159 103.168 241.159C100.804 241.159 99.2135 242.955 99.2135 245.682C99.2135 248.386 100.804 250.182 103.168 250.182ZM103.168 248.977C101.373 248.977 100.554 247.432 100.554 245.682C100.554 243.932 101.373 242.364 103.168 242.364C104.963 242.364 105.782 243.932 105.782 245.682C105.782 247.432 104.963 248.977 103.168 248.977ZM109.069 250H110.41V242.523H114.592V250H115.933V241.273H109.069V250ZM118.282 250H119.623V246.318H120.827L123.691 250H125.418L121.85 245.477L125.373 241.273H123.646L120.509 245.068H119.623V241.273H118.282V250ZM127.639 253.273C128.85 253.273 129.702 252.631 130.208 251.273L133.923 241.295L132.458 241.273L130.048 248.227H129.958L127.548 241.273H126.094L129.321 250.045L129.071 250.727C128.583 252.057 127.98 252.182 127.003 251.932L126.662 253.114C126.798 253.182 127.185 253.273 127.639 253.273ZM16.3599 271.773C16.4054 273.205 17.7747 274.182 19.6327 274.182C21.5418 274.182 22.9281 273.159 22.9281 271.568C22.9281 270.477 22.2747 269.591 21.2918 269.523V269.432C22.1213 269.176 22.7463 268.574 22.7463 267.591C22.7463 266.21 21.5645 265.159 19.7236 265.159C17.9054 265.159 16.6099 266.159 16.5645 267.568H17.9736C18.0134 266.847 18.769 266.341 19.7918 266.341C20.8088 266.341 21.3827 266.858 21.3827 267.636C21.3827 268.364 20.8827 268.909 19.8145 268.909H18.3145V270.114H19.8145C20.8827 270.114 21.5645 270.699 21.5645 271.568C21.5645 272.562 20.6838 272.977 19.6099 272.977C18.5588 272.977 17.8543 272.562 17.7918 271.773H16.3599ZM27.2798 274.205C28.8026 274.205 29.598 273.386 29.8707 272.818H29.9389V274H31.2798V268.25C31.2798 265.477 29.1662 265.159 28.0526 265.159C26.7344 265.159 25.2344 265.614 24.5526 267.205L25.8253 267.659C26.1207 267.023 26.8196 266.341 28.098 266.341C29.331 266.341 29.9389 266.994 29.9389 268.114V268.159C29.9389 268.807 29.2798 268.75 27.6889 268.955C26.0696 269.165 24.3026 269.523 24.3026 271.523C24.3026 273.227 25.6207 274.205 27.2798 274.205ZM27.4844 273C26.4162 273 25.6435 272.523 25.6435 271.591C25.6435 270.568 26.5753 270.25 27.6207 270.114C28.1889 270.045 29.7116 269.886 29.9389 269.614V270.841C29.9389 271.932 29.0753 273 27.4844 273ZM33.6273 274H34.9682V266.523H39.15V274H40.4909V265.273H33.6273V274ZM43.3909 277.273C44.6011 277.273 45.4534 276.631 45.9591 275.273L49.675 265.295L48.2091 265.273L45.8 272.227H45.7091L43.3 265.273H41.8455L45.0727 274.045L44.8227 274.727C44.3341 276.057 43.7318 276.182 42.7545 275.932L42.4136 277.114C42.55 277.182 42.9364 277.273 43.3909 277.273ZM54.5821 274.182C56.5139 274.182 57.7866 273 58.0139 271.455H56.673C56.423 272.409 55.6276 272.977 54.5821 272.977C52.9912 272.977 51.9685 271.659 51.9685 269.636C51.9685 267.659 53.0139 266.364 54.5821 266.364C55.7639 266.364 56.4685 267.091 56.673 267.886H58.0139C57.7866 266.25 56.4003 265.159 54.5594 265.159C52.1957 265.159 50.6276 267.023 50.6276 269.682C50.6276 272.295 52.1276 274.182 54.5821 274.182ZM59.8741 274H61.2151V270.318H62.4196L65.2832 274H67.0105L63.4423 269.477L66.9651 265.273H65.2378L62.1014 269.068H61.2151V265.273H59.8741V274ZM70.9361 274.205C72.4588 274.205 73.2543 273.386 73.527 272.818H73.5952V274H74.9361V268.25C74.9361 265.477 72.8224 265.159 71.7088 265.159C70.3906 265.159 68.8906 265.614 68.2088 267.205L69.4815 267.659C69.777 267.023 70.4759 266.341 71.7543 266.341C72.9872 266.341 73.5952 266.994 73.5952 268.114V268.159C73.5952 268.807 72.9361 268.75 71.3452 268.955C69.7259 269.165 67.9588 269.523 67.9588 271.523C67.9588 273.227 69.277 274.205 70.9361 274.205ZM71.1406 273C70.0724 273 69.2997 272.523 69.2997 271.591C69.2997 270.568 70.2315 270.25 71.277 270.114C71.8452 270.045 73.3679 269.886 73.5952 269.614V270.841C73.5952 271.932 72.7315 273 71.1406 273ZM81.1835 266.523H84.0699V274H85.4108V266.523H88.2744V265.273H81.1835V266.523ZM93.3364 274.182C95.1091 274.182 96.4045 273.295 96.8136 271.977L95.5182 271.614C95.1773 272.523 94.3875 272.977 93.3364 272.977C91.7625 272.977 90.6773 271.96 90.6148 270.091H96.95V269.523C96.95 266.273 95.0182 265.159 93.2 265.159C90.8364 265.159 89.2682 267.023 89.2682 269.705C89.2682 272.386 90.8136 274.182 93.3364 274.182ZM90.6148 268.932C90.7057 267.574 91.6659 266.364 93.2 266.364C94.6545 266.364 95.5864 267.455 95.5864 268.932H90.6148ZM102.435 274.182C104.367 274.182 105.64 273 105.867 271.455H104.526C104.276 272.409 103.481 272.977 102.435 272.977C100.844 272.977 99.8216 271.659 99.8216 269.636C99.8216 267.659 100.867 266.364 102.435 266.364C103.617 266.364 104.322 267.091 104.526 267.886H105.867C105.64 266.25 104.253 265.159 102.412 265.159C100.049 265.159 98.4807 267.023 98.4807 269.682C98.4807 272.295 99.9807 274.182 102.435 274.182ZM107.04 266.523H109.926V274H111.267V266.523H114.131V265.273H107.04V266.523ZM118.102 274.205C119.624 274.205 120.42 273.386 120.693 272.818H120.761V274H122.102V268.25C122.102 265.477 119.988 265.159 118.874 265.159C117.556 265.159 116.056 265.614 115.374 267.205L116.647 267.659C116.943 267.023 117.641 266.341 118.92 266.341C120.153 266.341 120.761 266.994 120.761 268.114V268.159C120.761 268.807 120.102 268.75 118.511 268.955C116.891 269.165 115.124 269.523 115.124 271.523C115.124 273.227 116.443 274.205 118.102 274.205ZM118.306 273C117.238 273 116.465 272.523 116.465 271.591C116.465 270.568 117.397 270.25 118.443 270.114C119.011 270.045 120.534 269.886 120.761 269.614V270.841C120.761 271.932 119.897 273 118.306 273Z" fill="#6E7381"/>
<path d="M682.717 250H684.126V244.795H690.331V250H691.74V238.364H690.331V243.545H684.126V238.364H682.717V250ZM696.847 250.205C698.37 250.205 699.165 249.386 699.438 248.818H699.506V250H700.847V244.25C700.847 241.477 698.733 241.159 697.62 241.159C696.302 241.159 694.802 241.614 694.12 243.205L695.392 243.659C695.688 243.023 696.387 242.341 697.665 242.341C698.898 242.341 699.506 242.994 699.506 244.114V244.159C699.506 244.807 698.847 244.75 697.256 244.955C695.637 245.165 693.87 245.523 693.87 247.523C693.87 249.227 695.188 250.205 696.847 250.205ZM697.052 249C695.983 249 695.211 248.523 695.211 247.591C695.211 246.568 696.142 246.25 697.188 246.114C697.756 246.045 699.279 245.886 699.506 245.614V246.841C699.506 247.932 698.642 249 697.052 249ZM704.535 248.023V241.273H703.194V250H704.763L708.944 243.25V250H710.285V241.273H708.74L704.535 248.023ZM707.854 238.364C707.854 238.955 707.535 239.477 706.74 239.477C705.944 239.477 705.649 238.955 705.649 238.364H704.399C704.399 239.591 705.308 240.455 706.74 240.455C708.194 240.455 709.104 239.591 709.104 238.364H707.854ZM711.71 252.5H713.05V250H719.505V252.5H720.846V248.75H719.505V241.273H713.96L713.664 244.727C713.454 247.17 713.141 248.011 712.437 248.75H711.71V252.5ZM713.96 248.75C714.573 247.943 714.795 246.551 714.982 244.727L715.21 242.523H718.164V248.75H713.96ZM723.867 248.023V241.273H722.526V250H724.094L728.276 243.25V250H729.617V241.273H728.071L723.867 248.023ZM730.785 242.523H733.671V250H735.012V242.523H737.876V241.273H730.785V242.523ZM742.938 250.182C744.711 250.182 746.006 249.295 746.415 247.977L745.12 247.614C744.779 248.523 743.989 248.977 742.938 248.977C741.364 248.977 740.279 247.96 740.216 246.091H746.552V245.523C746.552 242.273 744.62 241.159 742.802 241.159C740.438 241.159 738.87 243.023 738.87 245.705C738.87 248.386 740.415 250.182 742.938 250.182ZM740.216 244.932C740.307 243.574 741.267 242.364 742.802 242.364C744.256 242.364 745.188 243.455 745.188 244.932H740.216ZM752.891 250H754.232V246.318H755.437L758.3 250H760.028L756.46 245.477L759.982 241.273H758.255L755.119 245.068H754.232V241.273H752.891V250ZM763.953 250.205C765.476 250.205 766.271 249.386 766.544 248.818H766.612V250H767.953V244.25C767.953 241.477 765.84 241.159 764.726 241.159C763.408 241.159 761.908 241.614 761.226 243.205L762.499 243.659C762.794 243.023 763.493 242.341 764.771 242.341C766.004 242.341 766.612 242.994 766.612 244.114V244.159C766.612 244.807 765.953 244.75 764.362 244.955C762.743 245.165 760.976 245.523 760.976 247.523C760.976 249.227 762.294 250.205 763.953 250.205ZM764.158 249C763.09 249 762.317 248.523 762.317 247.591C762.317 246.568 763.249 246.25 764.294 246.114C764.862 246.045 766.385 245.886 766.612 245.614V246.841C766.612 247.932 765.749 249 764.158 249ZM770.301 253.273H771.642V248.659H771.755C772.051 249.136 772.619 250.182 774.301 250.182C776.483 250.182 778.005 248.432 778.005 245.659C778.005 242.909 776.483 241.159 774.278 241.159C772.573 241.159 772.051 242.205 771.755 242.659H771.596V241.273H770.301V253.273ZM771.619 245.636C771.619 243.682 772.483 242.364 774.119 242.364C775.823 242.364 776.664 243.795 776.664 245.636C776.664 247.5 775.801 248.977 774.119 248.977C772.505 248.977 771.619 247.614 771.619 245.636ZM781.292 244.432V241.273H779.951V250H783.61C785.655 250 786.769 248.75 786.769 247.182C786.769 245.591 785.655 244.432 783.61 244.432H781.292ZM781.292 245.682H783.61C784.672 245.682 785.428 246.33 785.428 247.25C785.428 248.131 784.672 248.75 783.61 248.75H781.292V245.682ZM792.369 250.182C794.142 250.182 795.437 249.295 795.846 247.977L794.551 247.614C794.21 248.523 793.42 248.977 792.369 248.977C790.795 248.977 789.71 247.96 789.648 246.091H795.983V245.523C795.983 242.273 794.051 241.159 792.233 241.159C789.869 241.159 788.301 243.023 788.301 245.705C788.301 248.386 789.846 250.182 792.369 250.182ZM789.648 244.932C789.739 243.574 790.699 242.364 792.233 242.364C793.687 242.364 794.619 243.455 794.619 244.932H789.648ZM797.923 253.273H799.263V248.659H799.377C799.673 249.136 800.241 250.182 801.923 250.182C804.104 250.182 805.627 248.432 805.627 245.659C805.627 242.909 804.104 241.159 801.9 241.159C800.195 241.159 799.673 242.205 799.377 242.659H799.218V241.273H797.923V253.273ZM799.241 245.636C799.241 243.682 800.104 242.364 801.741 242.364C803.445 242.364 804.286 243.795 804.286 245.636C804.286 247.5 803.423 248.977 801.741 248.977C800.127 248.977 799.241 247.614 799.241 245.636ZM808.124 253.273C809.334 253.273 810.186 252.631 810.692 251.273L814.408 241.295L812.942 241.273L810.533 248.227H810.442L808.033 241.273H806.578L809.806 250.045L809.556 250.727C809.067 252.057 808.465 252.182 807.487 251.932L807.146 253.114C807.283 253.182 807.669 253.273 808.124 253.273ZM817.535 248.409H816.081L816.012 249.045C815.848 250.585 815.524 252.119 815.376 252.841H816.399C816.671 252.068 817.251 250.318 817.444 249.023L817.535 248.409ZM662.954 274H664.295V270.318H665.499L668.363 274H670.09L666.522 269.477L670.045 265.273H668.317L665.181 269.068H664.295V265.273H662.954V274ZM674.634 274.182C676.997 274.182 678.588 272.386 678.588 269.682C678.588 266.955 676.997 265.159 674.634 265.159C672.27 265.159 670.679 266.955 670.679 269.682C670.679 272.386 672.27 274.182 674.634 274.182ZM674.634 272.977C672.838 272.977 672.02 271.432 672.02 269.682C672.02 267.932 672.838 266.364 674.634 266.364C676.429 266.364 677.247 267.932 677.247 269.682C677.247 271.432 676.429 272.977 674.634 272.977ZM679.394 266.523H682.281V274H683.622V266.523H686.485V265.273H679.394V266.523ZM691.434 274.182C693.797 274.182 695.388 272.386 695.388 269.682C695.388 266.955 693.797 265.159 691.434 265.159C689.07 265.159 687.479 266.955 687.479 269.682C687.479 272.386 689.07 274.182 691.434 274.182ZM691.434 272.977C689.638 272.977 688.82 271.432 688.82 269.682C688.82 267.932 689.638 266.364 691.434 266.364C693.229 266.364 694.047 267.932 694.047 269.682C694.047 271.432 693.229 272.977 691.434 272.977ZM697.335 277.273H698.676V272.659H698.79C699.085 273.136 699.653 274.182 701.335 274.182C703.517 274.182 705.04 272.432 705.04 269.659C705.04 266.909 703.517 265.159 701.312 265.159C699.608 265.159 699.085 266.205 698.79 266.659H698.631V265.273H697.335V277.273ZM698.653 269.636C698.653 267.682 699.517 266.364 701.153 266.364C702.858 266.364 703.699 267.795 703.699 269.636C703.699 271.5 702.835 272.977 701.153 272.977C699.54 272.977 698.653 271.614 698.653 269.636ZM709.553 274.205C711.076 274.205 711.871 273.386 712.144 272.818H712.212V274H713.553V268.25C713.553 265.477 711.44 265.159 710.326 265.159C709.008 265.159 707.508 265.614 706.826 267.205L708.099 267.659C708.394 267.023 709.093 266.341 710.371 266.341C711.604 266.341 712.212 266.994 712.212 268.114V268.159C712.212 268.807 711.553 268.75 709.962 268.955C708.343 269.165 706.576 269.523 706.576 271.523C706.576 273.227 707.894 274.205 709.553 274.205ZM709.758 273C708.69 273 707.917 272.523 707.917 271.591C707.917 270.568 708.849 270.25 709.894 270.114C710.462 270.045 711.985 269.886 712.212 269.614V270.841C712.212 271.932 711.349 273 709.758 273ZM721.151 274H722.423V265.273H718.833C716.952 265.273 715.81 266.256 715.81 267.864C715.81 269.062 716.412 269.915 717.463 270.273L715.333 274H716.787L718.81 270.455H721.151V274ZM721.151 269.205H718.673C717.725 269.205 717.151 268.699 717.151 267.864C717.151 267.017 717.787 266.5 718.833 266.5H721.151V269.205ZM729.185 274H733.299C735.071 274 736.14 273 736.14 271.659C736.14 270.29 735.1 269.551 734.14 269.409C735.123 269.205 735.821 268.653 735.821 267.591C735.821 266.199 734.628 265.273 732.753 265.273H729.185V274ZM730.458 272.773V270.091H733.299C734.219 270.091 734.776 270.642 734.776 271.545C734.776 272.307 734.219 272.773 733.299 272.773H730.458ZM730.458 268.932V266.5H732.753C733.827 266.5 734.481 266.949 734.481 267.682C734.481 268.46 733.827 268.932 732.753 268.932H730.458ZM740.638 274.205C742.16 274.205 742.956 273.386 743.229 272.818H743.297V274H744.638V268.25C744.638 265.477 742.524 265.159 741.41 265.159C740.092 265.159 738.592 265.614 737.91 267.205L739.183 267.659C739.479 267.023 740.177 266.341 741.456 266.341C742.689 266.341 743.297 266.994 743.297 268.114V268.159C743.297 268.807 742.638 268.75 741.047 268.955C739.427 269.165 737.66 269.523 737.66 271.523C737.66 273.227 738.979 274.205 740.638 274.205ZM740.842 273C739.774 273 739.001 272.523 739.001 271.591C739.001 270.568 739.933 270.25 740.979 270.114C741.547 270.045 743.069 269.886 743.297 269.614V270.841C743.297 271.932 742.433 273 740.842 273ZM751.758 272.182L748.758 265.273H746.985V274H748.326V267.199L751.212 274H752.303L755.19 267.324V274H756.531V265.273H754.803L751.758 272.182ZM763.285 274H764.626V266.523H768.808V274H770.149V265.273H763.285V274ZM776.043 274.182C778.407 274.182 779.998 272.386 779.998 269.682C779.998 266.955 778.407 265.159 776.043 265.159C773.679 265.159 772.088 266.955 772.088 269.682C772.088 272.386 773.679 274.182 776.043 274.182ZM776.043 272.977C774.248 272.977 773.429 271.432 773.429 269.682C773.429 267.932 774.248 266.364 776.043 266.364C777.838 266.364 778.657 267.932 778.657 269.682C778.657 271.432 777.838 272.977 776.043 272.977ZM781.013 276.5H782.354V274H788.808V276.5H790.149V272.75H788.808V265.273H783.263L782.967 268.727C782.757 271.17 782.444 272.011 781.74 272.75H781.013V276.5ZM783.263 272.75C783.876 271.943 784.098 270.551 784.285 268.727L784.513 266.523H787.467V272.75H783.263ZM792.829 265.273H791.283L794.056 269.636L791.283 274H792.829L794.92 270.614L797.011 274H798.556L795.738 269.636L798.556 265.273H797.011L794.92 268.841L792.829 265.273ZM803.556 274.182C805.919 274.182 807.51 272.386 807.51 269.682C807.51 266.955 805.919 265.159 803.556 265.159C801.192 265.159 799.601 266.955 799.601 269.682C799.601 272.386 801.192 274.182 803.556 274.182ZM803.556 272.977C801.76 272.977 800.942 271.432 800.942 269.682C800.942 267.932 801.76 266.364 803.556 266.364C805.351 266.364 806.169 267.932 806.169 269.682C806.169 271.432 805.351 272.977 803.556 272.977ZM808.525 276.5H809.866V274H816.321V276.5H817.662V272.75H816.321V265.273H810.775L810.48 268.727C810.269 271.17 809.957 272.011 809.252 272.75H808.525V276.5ZM810.775 272.75C811.389 271.943 811.61 270.551 811.798 268.727L812.025 266.523H814.98V272.75H810.775ZM820.682 272.023V265.273H819.341V274H820.91L825.091 267.25V274H826.432V265.273H824.887L820.682 272.023ZM827.601 266.523H830.487V274H831.828V266.523H834.692V265.273H827.601V266.523ZM836.072 274.091C836.634 274.091 837.094 273.631 837.094 273.068C837.094 272.506 836.634 272.045 836.072 272.045C835.509 272.045 835.049 272.506 835.049 273.068C835.049 273.631 835.509 274.091 836.072 274.091Z" fill="#6E7381"/>
<circle cx="752.5" cy="175.5" r="47.5" fill="#E0F8FF"/>
<path fill-rule="evenodd" clip-rule="evenodd" d="M753 156.1C748.397 156.1 744.652 159.844 744.652 164.447C744.652 169.05 748.397 172.794 753 172.794C757.602 172.794 761.347 169.05 761.347 164.447C761.347 159.844 757.602 156.1 753 156.1ZM753 169.982C749.948 169.982 747.465 167.499 747.465 164.447C747.465 161.395 749.948 158.912 753 158.912C756.052 158.912 758.534 161.395 758.534 164.447C758.534 167.499 756.052 169.982 753 169.982ZM732.132 170.108C732.132 166.663 734.935 163.86 738.38 163.86C741.826 163.86 744.628 166.663 744.628 170.108C744.628 173.553 741.826 176.356 738.38 176.356C734.935 176.356 732.132 173.553 732.132 170.108ZM734.945 170.108C734.945 172.002 736.486 173.543 738.38 173.543C740.275 173.543 741.816 172.002 741.816 170.108C741.816 168.213 740.275 166.672 738.38 166.672C736.486 166.672 734.945 168.213 734.945 170.108ZM765.27 177.139H769.969C773.846 177.139 777 180.294 777 184.171V191.682C777 194.008 775.107 195.9 772.781 195.9H733.219C730.893 195.9 729 194.008 729 191.682V184.171C729 180.294 732.154 177.139 736.031 177.139H740.73C741.369 177.139 741.988 177.227 742.578 177.387C743.74 175.103 746.113 173.533 748.847 173.533H757.153C759.887 173.533 762.26 175.103 763.422 177.387C764.012 177.227 764.631 177.139 765.27 177.139ZM741.816 193.088V180.564C741.816 180.408 741.823 180.253 741.833 180.099C741.481 180.004 741.112 179.952 740.73 179.952H736.031C733.705 179.952 731.812 181.844 731.812 184.171V191.682C731.812 192.457 732.443 193.088 733.219 193.088H741.816ZM744.629 193.088H761.371V180.564C761.371 178.238 759.479 176.345 757.153 176.345H748.847C746.521 176.345 744.629 178.238 744.629 180.564V193.088ZM772.781 193.088C773.557 193.088 774.188 192.457 774.188 191.682V184.171C774.188 181.844 772.295 179.952 769.969 179.952H765.27C764.888 179.952 764.519 180.004 764.167 180.099C764.177 180.253 764.184 180.408 764.184 180.564V193.088H772.781ZM761.371 170.108C761.371 166.663 764.174 163.86 767.619 163.86C771.064 163.86 773.867 166.663 773.867 170.108C773.867 173.553 771.064 176.356 767.619 176.356C764.174 176.356 761.371 173.553 761.371 170.108ZM764.184 170.108C764.184 172.002 765.725 173.543 767.619 173.543C769.514 173.543 771.055 172.002 771.055 170.108C771.055 168.213 769.514 166.672 767.619 166.672C765.725 166.672 764.184 168.213 764.184 170.108Z" fill="#48CCD5"/>
<circle cx="704.5" cy="174.5" r="15.5" fill="#48CCD5"/>
<path d="M703.779 181.16C703.203 181.16 702.606 181.085 701.987 180.936C701.368 180.787 700.83 180.563 700.371 180.264C700.104 180.083 699.944 179.88 699.891 179.656C699.838 179.421 699.864 179.213 699.971 179.032C700.078 178.84 700.238 178.712 700.451 178.648C700.675 178.584 700.926 178.627 701.203 178.776C701.64 179.011 702.062 179.181 702.467 179.288C702.872 179.384 703.288 179.432 703.715 179.432C705.155 179.432 705.875 178.867 705.875 177.736C705.875 177.203 705.694 176.808 705.331 176.552C704.979 176.285 704.462 176.152 703.779 176.152H702.755C702.456 176.152 702.227 176.077 702.067 175.928C701.918 175.779 701.843 175.571 701.843 175.304C701.843 175.037 701.918 174.829 702.067 174.68C702.227 174.531 702.456 174.456 702.755 174.456H703.587C704.184 174.456 704.659 174.312 705.011 174.024C705.363 173.725 705.539 173.315 705.539 172.792C705.539 172.301 705.374 171.928 705.043 171.672C704.723 171.416 704.254 171.288 703.635 171.288C703.24 171.288 702.867 171.336 702.515 171.432C702.174 171.517 701.795 171.683 701.379 171.928C701.134 172.077 700.91 172.12 700.707 172.056C700.504 171.981 700.344 171.853 700.227 171.672C700.12 171.48 700.088 171.272 700.131 171.048C700.174 170.824 700.323 170.632 700.579 170.472C701.518 169.864 702.595 169.56 703.811 169.56C704.984 169.56 705.896 169.827 706.547 170.36C707.198 170.883 707.523 171.613 707.523 172.552C707.523 173.16 707.368 173.693 707.059 174.152C706.75 174.611 706.328 174.941 705.795 175.144C706.446 175.325 706.952 175.661 707.315 176.152C707.678 176.632 707.859 177.219 707.859 177.912C707.859 178.915 707.496 179.709 706.771 180.296C706.046 180.872 705.048 181.16 703.779 181.16Z" fill="white"/>
<path d="M255.871 33.288C255.06 33.288 254.442 33.064 254.015 32.616C253.588 32.168 253.375 31.5387 253.375 30.728V12.68C253.375 11.8693 253.588 11.2507 254.015 10.824C254.442 10.376 255.06 10.152 255.871 10.152C257.514 10.152 258.335 10.9947 258.335 12.68V19.752H261.055L266.175 11.432C266.516 10.8773 266.922 10.5147 267.391 10.344C267.86 10.152 268.33 10.1093 268.799 10.216C269.268 10.3227 269.663 10.5467 269.983 10.888C270.324 11.2293 270.516 11.6453 270.559 12.136C270.623 12.6267 270.474 13.16 270.111 13.736L265.599 20.68C267.156 21.448 268.426 22.8453 269.407 24.872L271.775 29.736C272.095 30.3973 272.191 30.984 272.063 31.496C271.956 32.008 271.711 32.424 271.327 32.744C270.943 33.0427 270.495 33.2133 269.983 33.256C269.471 33.2987 268.97 33.2027 268.479 32.968C268.01 32.712 267.647 32.2853 267.391 31.688L265.023 26.6C264.554 25.5973 263.988 24.8933 263.327 24.488C262.687 24.0613 261.866 23.848 260.863 23.848H258.335V30.728C258.335 31.5387 258.122 32.168 257.695 32.616C257.29 33.064 256.682 33.288 255.871 33.288ZM280.377 33.352C279.204 33.352 278.169 33.128 277.273 32.68C276.377 32.232 275.662 31.624 275.129 30.856C274.617 30.088 274.361 29.224 274.361 28.264C274.361 27.1333 274.66 26.2267 275.257 25.544C275.854 24.8613 276.825 24.3813 278.169 24.104C279.513 23.8053 281.294 23.656 283.513 23.656H284.665V23.112C284.665 22.1733 284.452 21.512 284.025 21.128C283.598 20.7227 282.873 20.52 281.849 20.52C281.273 20.52 280.644 20.5947 279.961 20.744C279.278 20.872 278.542 21.096 277.753 21.416C277.156 21.672 276.654 21.6933 276.249 21.48C275.844 21.2453 275.577 20.904 275.449 20.456C275.321 19.9867 275.353 19.5173 275.545 19.048C275.758 18.5787 276.164 18.2373 276.761 18.024C277.764 17.64 278.702 17.3733 279.577 17.224C280.473 17.0533 281.294 16.968 282.041 16.968C284.473 16.968 286.286 17.5227 287.481 18.632C288.676 19.72 289.273 21.416 289.273 23.72V30.824C289.273 32.4667 288.526 33.288 287.033 33.288C285.518 33.288 284.761 32.4667 284.761 30.824V30.632C284.441 31.464 283.897 32.1253 283.129 32.616C282.382 33.1067 281.465 33.352 280.377 33.352ZM281.465 30.12C282.361 30.12 283.118 29.8107 283.737 29.192C284.356 28.5733 284.665 27.7733 284.665 26.792V26.152H283.545C281.902 26.152 280.74 26.3013 280.057 26.6C279.374 26.8773 279.033 27.368 279.033 28.072C279.033 28.6693 279.236 29.16 279.641 29.544C280.068 29.928 280.676 30.12 281.465 30.12ZM295.441 33.288C294.652 33.288 294.044 33.0747 293.617 32.648C293.212 32.2213 293.009 31.6133 293.009 30.824V19.496C293.009 18.7067 293.212 18.0987 293.617 17.672C294.044 17.2453 294.652 17.032 295.441 17.032C297.041 17.032 297.841 17.8533 297.841 19.496V23.144H299.729L303.313 18.152C303.761 17.5333 304.273 17.1813 304.849 17.096C305.425 17.0107 305.948 17.128 306.417 17.448C306.886 17.7467 307.185 18.1627 307.313 18.696C307.462 19.2293 307.313 19.816 306.865 20.456L304.113 24.328C304.561 24.6053 304.966 24.968 305.329 25.416C305.713 25.8427 306.065 26.344 306.385 26.92L308.081 30.024C308.38 30.5573 308.476 31.0587 308.369 31.528C308.262 31.976 308.038 32.3493 307.697 32.648C307.356 32.9467 306.95 33.128 306.481 33.192C306.012 33.2773 305.553 33.224 305.105 33.032C304.657 32.84 304.284 32.4667 303.985 31.912L302.033 28.456C301.692 27.8373 301.34 27.4213 300.977 27.208C300.614 26.9733 300.145 26.856 299.569 26.856H297.841V30.824C297.841 32.4667 297.041 33.288 295.441 33.288ZM321.79 33.288C320.382 33.288 319.678 32.5307 319.678 31.016V19.688C319.678 17.9173 320.414 17.032 321.886 17.032C322.568 17.032 323.102 17.2027 323.486 17.544C323.891 17.864 324.243 18.2693 324.542 18.76L328.798 25.864L333.022 18.792C333.278 18.344 333.598 17.9387 333.982 17.576C334.366 17.2133 334.92 17.032 335.646 17.032C337.139 17.032 337.886 17.9173 337.886 19.688V31.016C337.886 32.5307 337.171 33.288 335.742 33.288C334.334 33.288 333.63 32.5307 333.63 31.016V24.2L330.398 29.608C330.248 29.8427 330.056 30.0667 329.822 30.28C329.587 30.4933 329.246 30.6 328.798 30.6C328.35 30.6 328.008 30.504 327.774 30.312C327.539 30.0987 327.336 29.864 327.166 29.608L323.902 24.2V31.016C323.902 32.5307 323.198 33.288 321.79 33.288ZM344.02 33C342.463 33 341.684 32.2107 341.684 30.632V19.464C341.684 17.8427 342.495 17.032 344.116 17.032C345.716 17.032 346.516 17.8427 346.516 19.464V22.28H350.292C354.559 22.28 356.692 24.0293 356.692 27.528C356.692 29.1493 356.105 30.472 354.932 31.496C353.78 32.4987 352.233 33 350.292 33H344.02ZM360.724 33.288C359.124 33.288 358.324 32.4667 358.324 30.824V19.464C358.324 17.8427 359.124 17.032 360.724 17.032C362.345 17.032 363.156 17.8427 363.156 19.464V30.824C363.156 32.4667 362.345 33.288 360.724 33.288ZM346.516 29.896H349.46C350.335 29.896 351.017 29.704 351.508 29.32C352.02 28.936 352.276 28.36 352.276 27.592C352.276 26.824 352.031 26.2587 351.54 25.896C351.049 25.5333 350.356 25.352 349.46 25.352H346.516V29.896ZM383.061 33.352C381.376 33.352 379.904 33.0213 378.645 32.36C377.408 31.6773 376.448 30.728 375.765 29.512C375.082 28.2747 374.741 26.8133 374.741 25.128C374.741 23.464 375.082 22.024 375.765 20.808C376.448 19.5707 377.408 18.6213 378.645 17.96C379.904 17.2987 381.376 16.968 383.061 16.968C384.746 16.968 386.208 17.2987 387.445 17.96C388.704 18.6213 389.674 19.5707 390.357 20.808C391.061 22.024 391.413 23.464 391.413 25.128C391.413 26.8133 391.061 28.2747 390.357 29.512C389.674 30.728 388.704 31.6773 387.445 32.36C386.208 33.0213 384.746 33.352 383.061 33.352ZM383.061 29.736C384.085 29.736 384.917 29.3627 385.557 28.616C386.218 27.8693 386.549 26.7067 386.549 25.128C386.549 23.5707 386.218 22.4293 385.557 21.704C384.917 20.9573 384.085 20.584 383.061 20.584C382.037 20.584 381.205 20.9573 380.565 21.704C379.925 22.4293 379.605 23.5707 379.605 25.128C379.605 26.7067 379.925 27.8693 380.565 28.616C381.205 29.3627 382.037 29.736 383.061 29.736ZM396.853 33.288C396.064 33.288 395.456 33.0747 395.029 32.648C394.624 32.2213 394.421 31.6133 394.421 30.824V20.008C394.421 19.1333 394.645 18.4613 395.093 17.992C395.563 17.5227 396.235 17.288 397.109 17.288H407.253C408.128 17.288 408.8 17.5227 409.269 17.992C409.739 18.4613 409.973 19.1333 409.973 20.008V30.824C409.973 31.6133 409.76 32.2213 409.333 32.648C408.907 33.0747 408.309 33.288 407.541 33.288C405.941 33.288 405.141 32.4667 405.141 30.824V21.032H399.253V30.824C399.253 32.4667 398.453 33.288 396.853 33.288ZM416.203 39.048C414.582 39.048 413.771 38.2267 413.771 36.584V19.464C413.771 17.8427 414.561 17.032 416.139 17.032C417.739 17.032 418.539 17.8427 418.539 19.464V19.56C418.987 18.7707 419.649 18.1413 420.523 17.672C421.398 17.2027 422.379 16.968 423.467 16.968C424.833 16.968 426.027 17.2987 427.051 17.96C428.097 18.6213 428.907 19.56 429.483 20.776C430.059 21.992 430.347 23.4427 430.347 25.128C430.347 26.8133 430.059 28.2747 429.483 29.512C428.907 30.728 428.097 31.6773 427.051 32.36C426.027 33.0213 424.833 33.352 423.467 33.352C422.422 33.352 421.462 33.128 420.587 32.68C419.734 32.232 419.073 31.6347 418.603 30.888V36.584C418.603 38.2267 417.803 39.048 416.203 39.048ZM422.027 29.736C423.051 29.736 423.883 29.3627 424.523 28.616C425.163 27.8693 425.483 26.7067 425.483 25.128C425.483 23.5707 425.163 22.4293 424.523 21.704C423.883 20.9573 423.051 20.584 422.027 20.584C420.982 20.584 420.139 20.9573 419.499 21.704C418.859 22.4293 418.539 23.5707 418.539 25.128C418.539 26.7067 418.859 27.8693 419.499 28.616C420.139 29.3627 420.982 29.736 422.027 29.736ZM441.563 33.352C439.707 33.352 438.107 33.0213 436.763 32.36C435.44 31.6773 434.416 30.728 433.691 29.512C432.987 28.2747 432.635 26.824 432.635 25.16C432.635 23.5387 432.976 22.12 433.659 20.904C434.363 19.6667 435.312 18.7067 436.507 18.024C437.723 17.32 439.12 16.968 440.699 16.968C442.981 16.968 444.795 17.6933 446.139 19.144C447.483 20.5733 448.155 22.5147 448.155 24.968C448.155 25.7787 447.653 26.184 446.651 26.184H437.243C437.413 27.4213 437.861 28.328 438.587 28.904C439.333 29.4587 440.357 29.736 441.659 29.736C442.171 29.736 442.747 29.6827 443.387 29.576C444.048 29.448 444.677 29.2347 445.275 28.936C445.893 28.6373 446.416 28.584 446.843 28.776C447.269 28.9467 447.557 29.2453 447.707 29.672C447.877 30.0987 447.877 30.5467 447.707 31.016C447.557 31.464 447.205 31.8373 446.651 32.136C445.904 32.5413 445.072 32.84 444.155 33.032C443.259 33.2453 442.395 33.352 441.563 33.352ZM440.891 20.168C439.867 20.168 439.035 20.4773 438.395 21.096C437.776 21.7147 437.392 22.5787 437.243 23.688H444.155C444.027 21.3413 442.939 20.168 440.891 20.168ZM451.833 37.448C451.193 37.448 450.692 37.256 450.329 36.872C449.966 36.5093 449.785 35.9867 449.785 35.304V31.496C449.785 30.1307 450.425 29.4053 451.705 29.32C452.238 28.3813 452.612 27.336 452.825 26.184C453.06 25.0107 453.177 23.5067 453.177 21.672V20.008C453.177 19.1333 453.401 18.4613 453.849 17.992C454.318 17.5227 454.99 17.288 455.865 17.288H463.353C464.228 17.288 464.9 17.5227 465.369 17.992C465.838 18.4613 466.073 19.1333 466.073 20.008V29.288H466.489C467.94 29.288 468.665 30.024 468.665 31.496V35.304C468.665 36.7333 467.982 37.448 466.617 37.448C465.252 37.448 464.569 36.7333 464.569 35.304V33H453.849V35.304C453.849 36.7333 453.177 37.448 451.833 37.448ZM455.929 29.32H461.561V20.968H457.273V22.888C457.273 24.0613 457.156 25.224 456.921 26.376C456.686 27.528 456.356 28.5093 455.929 29.32ZM479.075 33.352C477.219 33.352 475.619 33.0213 474.275 32.36C472.952 31.6773 471.928 30.728 471.203 29.512C470.499 28.2747 470.147 26.824 470.147 25.16C470.147 23.5387 470.488 22.12 471.171 20.904C471.875 19.6667 472.824 18.7067 474.019 18.024C475.235 17.32 476.632 16.968 478.211 16.968C480.494 16.968 482.307 17.6933 483.651 19.144C484.995 20.5733 485.667 22.5147 485.667 24.968C485.667 25.7787 485.166 26.184 484.163 26.184H474.755C474.926 27.4213 475.374 28.328 476.099 28.904C476.846 29.4587 477.87 29.736 479.171 29.736C479.683 29.736 480.259 29.6827 480.899 29.576C481.56 29.448 482.19 29.2347 482.787 28.936C483.406 28.6373 483.928 28.584 484.355 28.776C484.782 28.9467 485.07 29.2453 485.219 29.672C485.39 30.0987 485.39 30.5467 485.219 31.016C485.07 31.464 484.718 31.8373 484.163 32.136C483.416 32.5413 482.584 32.84 481.667 33.032C480.771 33.2453 479.907 33.352 479.075 33.352ZM478.403 20.168C477.379 20.168 476.547 20.4773 475.907 21.096C475.288 21.7147 474.904 22.5787 474.755 23.688H481.667C481.539 21.3413 480.451 20.168 478.403 20.168ZM501.474 33.288C499.852 33.288 499.042 32.4667 499.042 30.824V21.032H494.946V22.792C494.946 25.544 494.562 27.7627 493.794 29.448C493.047 31.1333 491.842 32.3173 490.178 33C489.495 33.2773 488.887 33.3093 488.354 33.096C487.842 32.904 487.458 32.5733 487.202 32.104C486.967 31.6133 486.914 31.1013 487.042 30.568C487.191 30.0347 487.575 29.576 488.194 29.192C489.132 28.6587 489.751 27.8587 490.05 26.792C490.37 25.704 490.53 24.3173 490.53 22.632V20.008C490.53 19.1333 490.754 18.4613 491.202 17.992C491.671 17.5227 492.343 17.288 493.218 17.288H501.186C502.06 17.288 502.722 17.5227 503.17 17.992C503.639 18.4613 503.874 19.1333 503.874 20.008V30.824C503.874 31.6133 503.66 32.2213 503.234 32.648C502.828 33.0747 502.242 33.288 501.474 33.288ZM519.645 33.288C518.92 33.288 518.365 33.096 517.981 32.712C517.597 32.3067 517.405 31.7413 517.405 31.016V27.912H515.997C515.506 27.912 515.058 28.0613 514.653 28.36C514.269 28.6373 513.938 29 513.661 29.448L511.933 32.072C511.549 32.6267 511.112 32.9787 510.621 33.128C510.152 33.2987 509.682 33.32 509.213 33.192C508.765 33.064 508.381 32.8293 508.061 32.488C507.762 32.1253 507.592 31.72 507.549 31.272C507.506 30.8027 507.666 30.3227 508.029 29.832L508.893 28.488C509.106 28.168 509.384 27.8587 509.725 27.56C510.088 27.2613 510.482 27.0267 510.909 26.856C508.349 26.3653 507.069 24.84 507.069 22.28C507.069 20.7227 507.602 19.5067 508.669 18.632C509.736 17.736 511.293 17.288 513.341 17.288H519.485C521.064 17.288 521.853 18.0773 521.853 19.656V31.016C521.853 31.7413 521.65 32.3067 521.245 32.712C520.84 33.096 520.306 33.288 519.645 33.288ZM514.365 24.808H517.405V20.392H514.365C513.448 20.392 512.754 20.584 512.285 20.968C511.837 21.352 511.613 21.8853 511.613 22.568C511.613 23.272 511.837 23.8267 512.285 24.232C512.754 24.616 513.448 24.808 514.365 24.808ZM533.844 33.352C531.988 33.352 530.388 33.0213 529.044 32.36C527.721 31.6773 526.697 30.728 525.972 29.512C525.268 28.2747 524.916 26.824 524.916 25.16C524.916 23.5387 525.257 22.12 525.94 20.904C526.644 19.6667 527.593 18.7067 528.788 18.024C530.004 17.32 531.401 16.968 532.98 16.968C535.263 16.968 537.076 17.6933 538.42 19.144C539.764 20.5733 540.436 22.5147 540.436 24.968C540.436 25.7787 539.935 26.184 538.932 26.184H529.524C529.695 27.4213 530.143 28.328 530.868 28.904C531.615 29.4587 532.639 29.736 533.94 29.736C534.452 29.736 535.028 29.6827 535.668 29.576C536.329 29.448 536.959 29.2347 537.556 28.936C538.175 28.6373 538.697 28.584 539.124 28.776C539.551 28.9467 539.839 29.2453 539.988 29.672C540.159 30.0987 540.159 30.5467 539.988 31.016C539.839 31.464 539.487 31.8373 538.932 32.136C538.185 32.5413 537.353 32.84 536.436 33.032C535.54 33.2453 534.676 33.352 533.844 33.352ZM533.172 20.168C532.148 20.168 531.316 20.4773 530.676 21.096C530.057 21.7147 529.673 22.5787 529.524 23.688H536.436C536.308 21.3413 535.22 20.168 533.172 20.168ZM545.458 33.288C544.05 33.288 543.346 32.5307 543.346 31.016V19.688C543.346 17.9173 544.082 17.032 545.554 17.032C546.237 17.032 546.77 17.2027 547.154 17.544C547.56 17.864 547.912 18.2693 548.21 18.76L552.466 25.864L556.69 18.792C556.946 18.344 557.266 17.9387 557.65 17.576C558.034 17.2133 558.589 17.032 559.314 17.032C560.808 17.032 561.554 17.9173 561.554 19.688V31.016C561.554 32.5307 560.84 33.288 559.41 33.288C558.002 33.288 557.298 32.5307 557.298 31.016V24.2L554.066 29.608C553.917 29.8427 553.725 30.0667 553.49 30.28C553.256 30.4933 552.914 30.6 552.466 30.6C552.018 30.6 551.677 30.504 551.442 30.312C551.208 30.0987 551.005 29.864 550.834 29.608L547.57 24.2V31.016C547.57 32.5307 546.866 33.288 545.458 33.288ZM570.32 26.024C569.851 26.024 569.477 25.8747 569.2 25.576C568.944 25.256 568.816 24.8293 568.816 24.296C568.816 23.3787 568.987 22.5253 569.328 21.736C569.669 20.9467 570.256 20.104 571.088 19.208C571.685 18.568 572.101 18.024 572.336 17.576C572.571 17.1067 572.688 16.6267 572.688 16.136C572.688 15.5387 572.464 15.0693 572.016 14.728C571.589 14.3867 570.971 14.216 570.16 14.216C569.392 14.216 568.677 14.312 568.016 14.504C567.376 14.696 566.747 14.9733 566.128 15.336C565.424 15.6987 564.827 15.7947 564.336 15.624C563.845 15.432 563.493 15.0907 563.28 14.6C563.088 14.1093 563.088 13.5867 563.28 13.032C563.493 12.4773 563.941 12.008 564.624 11.624C565.499 11.1333 566.459 10.76 567.504 10.504C568.571 10.2267 569.573 10.088 570.512 10.088C571.92 10.088 573.157 10.3227 574.224 10.792C575.291 11.24 576.112 11.88 576.688 12.712C577.285 13.5227 577.584 14.472 577.584 15.56C577.584 16.5413 577.36 17.448 576.912 18.28C576.485 19.112 575.717 19.9867 574.608 20.904C573.605 21.736 572.923 22.4507 572.56 23.048C572.197 23.624 571.963 24.2427 571.856 24.904C571.792 25.2453 571.632 25.5227 571.376 25.736C571.141 25.928 570.789 26.024 570.32 26.024ZM570.256 33.16C569.403 33.16 568.72 32.904 568.208 32.392C567.717 31.88 567.472 31.2187 567.472 30.408C567.472 29.6187 567.717 28.9787 568.208 28.488C568.72 27.976 569.403 27.72 570.256 27.72C571.109 27.72 571.771 27.976 572.24 28.488C572.731 28.9787 572.976 29.6187 572.976 30.408C572.976 31.2187 572.731 31.88 572.24 32.392C571.771 32.904 571.109 33.16 570.256 33.16Z" fill="#1C1C1C"/>
<path d="M187.454 53.3636H178.772V65H180.182V54.6136H186.045V65H187.454V53.3636ZM190.015 68.2727H191.356V63.6591H191.469C191.765 64.1364 192.333 65.1818 194.015 65.1818C196.197 65.1818 197.719 63.4318 197.719 60.6591C197.719 57.9091 196.197 56.1591 193.992 56.1591C192.287 56.1591 191.765 57.2045 191.469 57.6591H191.31V56.2727H190.015V68.2727ZM191.333 60.6364C191.333 58.6818 192.197 57.3636 193.833 57.3636C195.537 57.3636 196.378 58.7955 196.378 60.6364C196.378 62.5 195.515 63.9773 193.833 63.9773C192.219 63.9773 191.333 62.6136 191.333 60.6364ZM201.006 63.0227V56.2727H199.665V65H201.233L205.415 58.25V65H206.756V56.2727H205.21L201.006 63.0227ZM217.057 65.1818C218.989 65.1818 220.262 64 220.489 62.4545H219.148C218.898 63.4091 218.103 63.9773 217.057 63.9773C215.466 63.9773 214.443 62.6591 214.443 60.6364C214.443 58.6591 215.489 57.3636 217.057 57.3636C218.239 57.3636 218.943 58.0909 219.148 58.8864H220.489C220.262 57.25 218.875 56.1591 217.034 56.1591C214.671 56.1591 213.103 58.0227 213.103 60.6818C213.103 63.2955 214.603 65.1818 217.057 65.1818ZM225.895 65.1818C228.258 65.1818 229.849 63.3864 229.849 60.6818C229.849 57.9545 228.258 56.1591 225.895 56.1591C223.531 56.1591 221.94 57.9545 221.94 60.6818C221.94 63.3864 223.531 65.1818 225.895 65.1818ZM225.895 63.9773C224.099 63.9773 223.281 62.4318 223.281 60.6818C223.281 58.9318 224.099 57.3636 225.895 57.3636C227.69 57.3636 228.508 58.9318 228.508 60.6818C228.508 62.4318 227.69 63.9773 225.895 63.9773ZM231.251 62.7727C231.296 64.2045 232.665 65.1818 234.523 65.1818C236.432 65.1818 237.819 64.1591 237.819 62.5682C237.819 61.4773 237.165 60.5909 236.182 60.5227V60.4318C237.012 60.1761 237.637 59.5739 237.637 58.5909C237.637 57.2102 236.455 56.1591 234.614 56.1591C232.796 56.1591 231.501 57.1591 231.455 58.5682H232.864C232.904 57.8466 233.66 57.3409 234.682 57.3409C235.699 57.3409 236.273 57.858 236.273 58.6364C236.273 59.3636 235.773 59.9091 234.705 59.9091H233.205V61.1136H234.705C235.773 61.1136 236.455 61.6989 236.455 62.5682C236.455 63.5625 235.574 63.9773 234.501 63.9773C233.449 63.9773 232.745 63.5625 232.682 62.7727H231.251ZM238.67 67.5H240.011V65H246.466V67.5H247.807V63.75H246.466V56.2727H240.92L240.625 59.7273C240.415 62.1705 240.102 63.0114 239.398 63.75H238.67V67.5ZM240.92 63.75C241.534 62.9432 241.756 61.5511 241.943 59.7273L242.17 57.5227H245.125V63.75H240.92ZM252.055 65.2045C253.578 65.2045 254.373 64.3864 254.646 63.8182H254.714V65H256.055V59.25C256.055 56.4773 253.941 56.1591 252.828 56.1591C251.509 56.1591 250.009 56.6136 249.328 58.2045L250.6 58.6591C250.896 58.0227 251.595 57.3409 252.873 57.3409C254.106 57.3409 254.714 57.9943 254.714 59.1136V59.1591C254.714 59.8068 254.055 59.75 252.464 59.9545C250.845 60.1648 249.078 60.5227 249.078 62.5227C249.078 64.2273 250.396 65.2045 252.055 65.2045ZM252.259 64C251.191 64 250.418 63.5227 250.418 62.5909C250.418 61.5682 251.35 61.25 252.396 61.1136C252.964 61.0455 254.487 60.8864 254.714 60.6136V61.8409C254.714 62.9318 253.85 64 252.259 64ZM259.743 56.2727H258.402V65H259.743V61.2727H263.925V65H265.266V56.2727H263.925V60.0227H259.743V56.2727ZM268.956 63.0227V56.2727H267.615V65H269.183L273.365 58.25V65H274.706V56.2727H273.16L268.956 63.0227ZM278.403 63.0227V56.2727H277.062V65H278.63L282.812 58.25V65H284.153V56.2727H282.607L278.403 63.0227ZM296.295 56.2727H290.909V65H292.249V57.5227H296.295V56.2727ZM301.358 65.1818C303.131 65.1818 304.426 64.2955 304.835 62.9773L303.54 62.6136C303.199 63.5227 302.409 63.9773 301.358 63.9773C299.784 63.9773 298.699 62.9602 298.637 61.0909H304.972V60.5227C304.972 57.2727 303.04 56.1591 301.222 56.1591C298.858 56.1591 297.29 58.0227 297.29 60.7045C297.29 63.3864 298.835 65.1818 301.358 65.1818ZM298.637 59.9318C298.728 58.5739 299.688 57.3636 301.222 57.3636C302.676 57.3636 303.608 58.4545 303.608 59.9318H298.637ZM308.253 56.2727H306.912V65H308.253V61.2727H312.434V65H313.775V56.2727H312.434V60.0227H308.253V56.2727ZM319.783 65.1818C321.556 65.1818 322.851 64.2955 323.261 62.9773L321.965 62.6136C321.624 63.5227 320.834 63.9773 319.783 63.9773C318.209 63.9773 317.124 62.9602 317.062 61.0909H323.397V60.5227C323.397 57.2727 321.465 56.1591 319.647 56.1591C317.283 56.1591 315.715 58.0227 315.715 60.7045C315.715 63.3864 317.261 65.1818 319.783 65.1818ZM317.062 59.9318C317.153 58.5739 318.113 57.3636 319.647 57.3636C321.101 57.3636 322.033 58.4545 322.033 59.9318H317.062ZM325.337 68.2727H326.678V63.6591H326.791C327.087 64.1364 327.655 65.1818 329.337 65.1818C331.518 65.1818 333.041 63.4318 333.041 60.6591C333.041 57.9091 331.518 56.1591 329.314 56.1591C327.609 56.1591 327.087 57.2045 326.791 57.6591H326.632V56.2727H325.337V68.2727ZM326.655 60.6364C326.655 58.6818 327.518 57.3636 329.155 57.3636C330.859 57.3636 331.7 58.7955 331.7 60.6364C331.7 62.5 330.837 63.9773 329.155 63.9773C327.541 63.9773 326.655 62.6136 326.655 60.6364ZM337.555 65.2045C339.078 65.2045 339.873 64.3864 340.146 63.8182H340.214V65H341.555V59.25C341.555 56.4773 339.441 56.1591 338.328 56.1591C337.009 56.1591 335.509 56.6136 334.828 58.2045L336.1 58.6591C336.396 58.0227 337.095 57.3409 338.373 57.3409C339.606 57.3409 340.214 57.9943 340.214 59.1136V59.1591C340.214 59.8068 339.555 59.75 337.964 59.9545C336.345 60.1648 334.578 60.5227 334.578 62.5227C334.578 64.2273 335.896 65.2045 337.555 65.2045ZM337.759 64C336.691 64 335.918 63.5227 335.918 62.5909C335.918 61.5682 336.85 61.25 337.896 61.1136C338.464 61.0455 339.987 60.8864 340.214 60.6136V61.8409C340.214 62.9318 339.35 64 337.759 64ZM342.715 57.5227H345.601V65H346.942V57.5227H349.806V56.2727H342.715V57.5227ZM354.754 65.1818C357.118 65.1818 358.709 63.3864 358.709 60.6818C358.709 57.9545 357.118 56.1591 354.754 56.1591C352.39 56.1591 350.799 57.9545 350.799 60.6818C350.799 63.3864 352.39 65.1818 354.754 65.1818ZM354.754 63.9773C352.959 63.9773 352.14 62.4318 352.14 60.6818C352.14 58.9318 352.959 57.3636 354.754 57.3636C356.549 57.3636 357.368 58.9318 357.368 60.6818C357.368 62.4318 356.549 63.9773 354.754 63.9773ZM360.655 68.2727H361.996V63.6591H362.11C362.405 64.1364 362.974 65.1818 364.655 65.1818C366.837 65.1818 368.36 63.4318 368.36 60.6591C368.36 57.9091 366.837 56.1591 364.633 56.1591C362.928 56.1591 362.405 57.2045 362.11 57.6591H361.951V56.2727H360.655V68.2727ZM361.974 60.6364C361.974 58.6818 362.837 57.3636 364.474 57.3636C366.178 57.3636 367.019 58.7955 367.019 60.6364C367.019 62.5 366.155 63.9773 364.474 63.9773C362.86 63.9773 361.974 62.6136 361.974 60.6364ZM372.874 65.2045C374.396 65.2045 375.192 64.3864 375.464 63.8182H375.533V65H376.874V59.25C376.874 56.4773 374.76 56.1591 373.646 56.1591C372.328 56.1591 370.828 56.6136 370.146 58.2045L371.419 58.6591C371.714 58.0227 372.413 57.3409 373.692 57.3409C374.925 57.3409 375.533 57.9943 375.533 59.1136V59.1591C375.533 59.8068 374.874 59.75 373.283 59.9545C371.663 60.1648 369.896 60.5227 369.896 62.5227C369.896 64.2273 371.214 65.2045 372.874 65.2045ZM373.078 64C372.01 64 371.237 63.5227 371.237 62.5909C371.237 61.5682 372.169 61.25 373.214 61.1136C373.783 61.0455 375.305 60.8864 375.533 60.6136V61.8409C375.533 62.9318 374.669 64 373.078 64ZM388.394 63.1818L385.394 56.2727H383.621V65H384.962V58.1989L387.848 65H388.939L391.826 58.3239V65H393.166V56.2727H391.439L388.394 63.1818ZM396.862 59.4318V56.2727H395.521V65H399.18C401.226 65 402.339 63.75 402.339 62.1818C402.339 60.5909 401.226 59.4318 399.18 59.4318H396.862ZM403.726 65H405.066V56.2727H403.726V65ZM396.862 60.6818H399.18C400.243 60.6818 400.998 61.3295 400.998 62.25C400.998 63.1307 400.243 63.75 399.18 63.75H396.862V60.6818ZM413.162 63.0227V56.2727H411.821V65H413.389L417.571 58.25V65H418.912V56.2727H417.366L413.162 63.0227ZM424.813 65.1818C426.745 65.1818 428.018 64 428.245 62.4545H426.904C426.654 63.4091 425.859 63.9773 424.813 63.9773C423.222 63.9773 422.2 62.6591 422.2 60.6364C422.2 58.6591 423.245 57.3636 424.813 57.3636C425.995 57.3636 426.7 58.0909 426.904 58.8864H428.245C428.018 57.25 426.632 56.1591 424.791 56.1591C422.427 56.1591 420.859 58.0227 420.859 60.6818C420.859 63.2955 422.359 65.1818 424.813 65.1818ZM430.105 65H431.446V57.5227H435.628V65H436.969V56.2727H430.105V65ZM442.863 65.1818C445.227 65.1818 446.818 63.3864 446.818 60.6818C446.818 57.9545 445.227 56.1591 442.863 56.1591C440.5 56.1591 438.909 57.9545 438.909 60.6818C438.909 63.3864 440.5 65.1818 442.863 65.1818ZM442.863 63.9773C441.068 63.9773 440.25 62.4318 440.25 60.6818C440.25 58.9318 441.068 57.3636 442.863 57.3636C444.659 57.3636 445.477 58.9318 445.477 60.6818C445.477 62.4318 444.659 63.9773 442.863 63.9773ZM447.992 65H448.447C450.378 65 450.935 63.5 451.06 60.6364L451.197 57.5227H454.401V65H455.742V56.2727H449.924L449.765 60.1364C449.651 63.0682 449.356 63.75 448.31 63.75H447.992V65ZM459.443 59.4318V56.2727H458.102V65H461.761C463.807 65 464.92 63.75 464.92 62.1818C464.92 60.5909 463.807 59.4318 461.761 59.4318H459.443ZM459.443 60.6818H461.761C462.824 60.6818 463.58 61.3295 463.58 62.25C463.58 63.1307 462.824 63.75 461.761 63.75H459.443V60.6818ZM466.316 62.7727C466.362 64.2045 467.731 65.1818 469.589 65.1818C471.498 65.1818 472.884 64.1591 472.884 62.5682C472.884 61.4773 472.231 60.5909 471.248 60.5227V60.4318C472.078 60.1761 472.703 59.5739 472.703 58.5909C472.703 57.2102 471.521 56.1591 469.68 56.1591C467.862 56.1591 466.566 57.1591 466.521 58.5682H467.93C467.97 57.8466 468.725 57.3409 469.748 57.3409C470.765 57.3409 471.339 57.858 471.339 58.6364C471.339 59.3636 470.839 59.9091 469.771 59.9091H468.271V61.1136H469.771C470.839 61.1136 471.521 61.6989 471.521 62.5682C471.521 63.5625 470.64 63.9773 469.566 63.9773C468.515 63.9773 467.811 63.5625 467.748 62.7727H466.316ZM478.213 65.1818C480.577 65.1818 482.168 63.3864 482.168 60.6818C482.168 57.9545 480.577 56.1591 478.213 56.1591C475.85 56.1591 474.259 57.9545 474.259 60.6818C474.259 63.3864 475.85 65.1818 478.213 65.1818ZM478.213 63.9773C476.418 63.9773 475.6 62.4318 475.6 60.6818C475.6 58.9318 476.418 57.3636 478.213 57.3636C480.009 57.3636 480.827 58.9318 480.827 60.6818C480.827 62.4318 480.009 63.9773 478.213 63.9773ZM484.115 65H488.228C490.001 65 491.069 64 491.069 62.6591C491.069 61.2898 490.03 60.5511 489.069 60.4091C490.052 60.2045 490.751 59.6534 490.751 58.5909C490.751 57.1989 489.558 56.2727 487.683 56.2727H484.115V65ZM485.388 63.7727V61.0909H488.228C489.149 61.0909 489.706 61.642 489.706 62.5455C489.706 63.3068 489.149 63.7727 488.228 63.7727H485.388ZM485.388 59.9318V57.5H487.683C488.757 57.5 489.41 57.9489 489.41 58.6818C489.41 59.4602 488.757 59.9318 487.683 59.9318H485.388ZM495.567 65.2045C497.09 65.2045 497.885 64.3864 498.158 63.8182H498.226V65H499.567V59.25C499.567 56.4773 497.454 56.1591 496.34 56.1591C495.022 56.1591 493.522 56.6136 492.84 58.2045L494.113 58.6591C494.408 58.0227 495.107 57.3409 496.385 57.3409C497.618 57.3409 498.226 57.9943 498.226 59.1136V59.1591C498.226 59.8068 497.567 59.75 495.976 59.9545C494.357 60.1648 492.59 60.5227 492.59 62.5227C492.59 64.2273 493.908 65.2045 495.567 65.2045ZM495.772 64C494.704 64 493.931 63.5227 493.931 62.5909C493.931 61.5682 494.863 61.25 495.908 61.1136C496.476 61.0455 497.999 60.8864 498.226 60.6136V61.8409C498.226 62.9318 497.363 64 495.772 64ZM501.142 65H501.597C503.528 65 504.085 63.5 504.21 60.6364L504.347 57.5227H507.551V65H508.892V56.2727H503.074L502.915 60.1364C502.801 63.0682 502.506 63.75 501.46 63.75H501.142V65ZM512.593 63.0227V56.2727H511.252V65H512.82L517.002 58.25V65H518.343V56.2727H516.798L512.593 63.0227ZM526.44 56.2727H525.099V65H526.44V61.2727H530.622V65H531.963V56.2727H530.622V60.0227H526.44V56.2727ZM537.971 65.1818C539.743 65.1818 541.039 64.2955 541.448 62.9773L540.153 62.6136C539.812 63.5227 539.022 63.9773 537.971 63.9773C536.397 63.9773 535.312 62.9602 535.249 61.0909H541.584V60.5227C541.584 57.2727 539.653 56.1591 537.834 56.1591C535.471 56.1591 533.903 58.0227 533.903 60.7045C533.903 63.3864 535.448 65.1818 537.971 65.1818ZM535.249 59.9318C535.34 58.5739 536.3 57.3636 537.834 57.3636C539.289 57.3636 540.221 58.4545 540.221 59.9318H535.249ZM550.001 53C549.575 53.358 548.939 53.358 548.047 53.3523C547.757 53.3523 547.439 53.3523 547.092 53.3636C544.433 53.4318 543.115 55.4545 543.115 59.3409V60.2727C543.115 63.5 544.683 65.1818 547.024 65.1818C549.359 65.1818 550.911 63.4886 550.911 60.75C550.911 58 549.337 56.5455 547.297 56.5455C546.098 56.5455 544.979 57.0455 544.388 58.1364H544.274C544.456 55.8864 545.297 54.6818 547.115 54.6136C548.729 54.5455 549.888 54.5909 550.683 53.8182L550.001 53ZM547.024 63.9773C545.433 63.9773 544.456 62.7045 544.456 60.75C544.484 58.8409 545.445 57.75 547.001 57.75C548.598 57.75 549.57 58.8409 549.57 60.75C549.57 62.7159 548.604 63.9773 547.024 63.9773ZM556.521 65.1818C558.293 65.1818 559.589 64.2955 559.998 62.9773L558.703 62.6136C558.362 63.5227 557.572 63.9773 556.521 63.9773C554.947 63.9773 553.862 62.9602 553.799 61.0909H560.134V60.5227C560.134 57.2727 558.203 56.1591 556.384 56.1591C554.021 56.1591 552.453 58.0227 552.453 60.7045C552.453 63.3864 553.998 65.1818 556.521 65.1818ZM553.799 59.9318C553.89 58.5739 554.85 57.3636 556.384 57.3636C557.839 57.3636 558.771 58.4545 558.771 59.9318H553.799ZM561.529 62.7727C561.574 64.2045 562.943 65.1818 564.801 65.1818C566.71 65.1818 568.097 64.1591 568.097 62.5682C568.097 61.4773 567.443 60.5909 566.46 60.5227V60.4318C567.29 60.1761 567.915 59.5739 567.915 58.5909C567.915 57.2102 566.733 56.1591 564.892 56.1591C563.074 56.1591 561.779 57.1591 561.733 58.5682H563.142C563.182 57.8466 563.938 57.3409 564.96 57.3409C565.978 57.3409 566.551 57.858 566.551 58.6364C566.551 59.3636 566.051 59.9091 564.983 59.9091H563.483V61.1136H564.983C566.051 61.1136 566.733 61.6989 566.733 62.5682C566.733 63.5625 565.853 63.9773 564.779 63.9773C563.728 63.9773 563.023 63.5625 562.96 62.7727H561.529ZM571.221 63.0227V56.2727H569.88V65H571.449L575.63 58.25V65H576.971V56.2727H575.426L571.221 63.0227ZM578.782 62.7727C578.827 64.2045 580.197 65.1818 582.055 65.1818C583.964 65.1818 585.35 64.1591 585.35 62.5682C585.35 61.4773 584.697 60.5909 583.714 60.5227V60.4318C584.543 60.1761 585.168 59.5739 585.168 58.5909C585.168 57.2102 583.986 56.1591 582.145 56.1591C580.327 56.1591 579.032 57.1591 578.986 58.5682H580.395C580.435 57.8466 581.191 57.3409 582.214 57.3409C583.231 57.3409 583.805 57.858 583.805 58.6364C583.805 59.3636 583.305 59.9091 582.236 59.9091H580.736V61.1136H582.236C583.305 61.1136 583.986 61.6989 583.986 62.5682C583.986 63.5625 583.106 63.9773 582.032 63.9773C580.981 63.9773 580.276 63.5625 580.214 62.7727H578.782ZM587.134 65H591.247C593.02 65 594.088 64 594.088 62.6591C594.088 61.2898 593.048 60.5511 592.088 60.4091C593.071 60.2045 593.77 59.6534 593.77 58.5909C593.77 57.1989 592.577 56.2727 590.702 56.2727H587.134V65ZM588.406 63.7727V61.0909H591.247C592.168 61.0909 592.724 61.642 592.724 62.5455C592.724 63.3068 592.168 63.7727 591.247 63.7727H588.406ZM588.406 59.9318V57.5H590.702C591.776 57.5 592.429 57.9489 592.429 58.6818C592.429 59.4602 591.776 59.9318 590.702 59.9318H588.406ZM599.677 65.1818C601.45 65.1818 602.745 64.2955 603.154 62.9773L601.859 62.6136C601.518 63.5227 600.728 63.9773 599.677 63.9773C598.103 63.9773 597.018 62.9602 596.955 61.0909H603.291V60.5227C603.291 57.2727 601.359 56.1591 599.541 56.1591C597.177 56.1591 595.609 58.0227 595.609 60.7045C595.609 63.3864 597.154 65.1818 599.677 65.1818ZM596.955 59.9318C597.046 58.5739 598.007 57.3636 599.541 57.3636C600.995 57.3636 601.927 58.4545 601.927 59.9318H596.955ZM608.776 65.1818C610.708 65.1818 611.98 64 612.208 62.4545H610.867C610.617 63.4091 609.821 63.9773 608.776 63.9773C607.185 63.9773 606.162 62.6591 606.162 60.6364C606.162 58.6591 607.208 57.3636 608.776 57.3636C609.958 57.3636 610.662 58.0909 610.867 58.8864H612.208C611.98 57.25 610.594 56.1591 608.753 56.1591C606.389 56.1591 604.821 58.0227 604.821 60.6818C604.821 63.2955 606.321 65.1818 608.776 65.1818ZM613.38 57.5227H616.267V65H617.608V57.5227H620.471V56.2727H613.38V57.5227ZM623.668 56.2727H622.327V65H623.668V61.2727H627.85V65H629.191V56.2727H627.85V60.0227H623.668V56.2727ZM632.881 59.4318V56.2727H631.54V65H635.199C637.244 65 638.358 63.75 638.358 62.1818C638.358 60.5909 637.244 59.4318 635.199 59.4318H632.881ZM639.744 65H641.085V56.2727H639.744V65ZM632.881 60.6818H635.199C636.261 60.6818 637.017 61.3295 637.017 62.25C637.017 63.1307 636.261 63.75 635.199 63.75H632.881V60.6818ZM644.781 63.0227V56.2727H643.44V65H645.008L649.19 58.25V65H650.531V56.2727H648.985L644.781 63.0227ZM648.099 53.3636C648.099 53.9545 647.781 54.4773 646.985 54.4773C646.19 54.4773 645.894 53.9545 645.894 53.3636H644.644C644.644 54.5909 645.553 55.4545 646.985 55.4545C648.44 55.4545 649.349 54.5909 649.349 53.3636H648.099ZM195.555 92.2727C196.765 92.2727 197.617 91.6307 198.123 90.2727L201.839 80.2955L200.373 80.2727L197.964 87.2273H197.873L195.464 80.2727H194.01L197.237 89.0455L196.987 89.7273C196.498 91.0568 195.896 91.1818 194.919 90.9318L194.578 92.1136C194.714 92.1818 195.1 92.2727 195.555 92.2727ZM204.854 80.2727H203.513V89H204.854V85.2727H209.036V89H210.377V80.2727H209.036V84.0227H204.854V80.2727ZM214.067 87.0227V80.2727H212.726V89H214.294L218.476 82.25V89H219.817V80.2727H218.271L214.067 87.0227ZM222.173 89H226.286C228.059 89 229.127 88 229.127 86.6591C229.127 85.2898 228.087 84.5511 227.127 84.4091C228.11 84.2045 228.809 83.6534 228.809 82.5909C228.809 81.1989 227.616 80.2727 225.741 80.2727H222.173V89ZM223.445 87.7727V85.0909H226.286C227.207 85.0909 227.763 85.642 227.763 86.5455C227.763 87.3068 227.207 87.7727 226.286 87.7727H223.445ZM223.445 83.9318V81.5H225.741C226.815 81.5 227.468 81.9489 227.468 82.6818C227.468 83.4602 226.815 83.9318 225.741 83.9318H223.445ZM234.716 89.1818C236.489 89.1818 237.784 88.2955 238.193 86.9773L236.898 86.6136C236.557 87.5227 235.767 87.9773 234.716 87.9773C233.142 87.9773 232.057 86.9602 231.994 85.0909H238.33V84.5227C238.33 81.2727 236.398 80.1591 234.58 80.1591C232.216 80.1591 230.648 82.0227 230.648 84.7045C230.648 87.3864 232.193 89.1818 234.716 89.1818ZM231.994 83.9318C232.085 82.5739 233.046 81.3636 234.58 81.3636C236.034 81.3636 236.966 82.4545 236.966 83.9318H231.994ZM240.269 92.2727H241.61V87.6591H241.724C242.019 88.1364 242.588 89.1818 244.269 89.1818C246.451 89.1818 247.974 87.4318 247.974 84.6591C247.974 81.9091 246.451 80.1591 244.247 80.1591C242.542 80.1591 242.019 81.2045 241.724 81.6591H241.565V80.2727H240.269V92.2727ZM241.588 84.6364C241.588 82.6818 242.451 81.3636 244.088 81.3636C245.792 81.3636 246.633 82.7955 246.633 84.6364C246.633 86.5 245.769 87.9773 244.088 87.9773C242.474 87.9773 241.588 86.6136 241.588 84.6364ZM253.465 89.1818C255.397 89.1818 256.669 88 256.897 86.4545H255.556C255.306 87.4091 254.51 87.9773 253.465 87.9773C251.874 87.9773 250.851 86.6591 250.851 84.6364C250.851 82.6591 251.897 81.3636 253.465 81.3636C254.647 81.3636 255.351 82.0909 255.556 82.8864H256.897C256.669 81.25 255.283 80.1591 253.442 80.1591C251.079 80.1591 249.51 82.0227 249.51 84.6818C249.51 87.2955 251.01 89.1818 253.465 89.1818ZM261.325 89.2045C262.848 89.2045 263.643 88.3864 263.916 87.8182H263.984V89H265.325V83.25C265.325 80.4773 263.212 80.1591 262.098 80.1591C260.78 80.1591 259.28 80.6136 258.598 82.2045L259.871 82.6591C260.166 82.0227 260.865 81.3409 262.143 81.3409C263.376 81.3409 263.984 81.9943 263.984 83.1136V83.1591C263.984 83.8068 263.325 83.75 261.734 83.9545C260.115 84.1648 258.348 84.5227 258.348 86.5227C258.348 88.2273 259.666 89.2045 261.325 89.2045ZM261.53 88C260.462 88 259.689 87.5227 259.689 86.5909C259.689 85.5682 260.621 85.25 261.666 85.1136C262.234 85.0455 263.757 84.8864 263.984 84.6136V85.8409C263.984 86.9318 263.121 88 261.53 88ZM266.9 89H267.354C269.286 89 269.843 87.5 269.968 84.6364L270.104 81.5227H273.309V89H274.65V80.2727H268.832L268.673 84.1364C268.559 87.0682 268.263 87.75 267.218 87.75H266.9V89ZM278.351 83.4318V80.2727H277.01V89H280.669C282.715 89 283.828 87.75 283.828 86.1818C283.828 84.5909 282.715 83.4318 280.669 83.4318H278.351ZM278.351 84.6818H280.669C281.732 84.6818 282.487 85.3295 282.487 86.25C282.487 87.1307 281.732 87.75 280.669 87.75H278.351V84.6818ZM287.11 80.2727H285.769V89H287.11V85.2727H291.292V89H292.633V80.2727H291.292V84.0227H287.11V80.2727ZM296.323 83.4318V80.2727H294.982V89H298.641C300.687 89 301.8 87.75 301.8 86.1818C301.8 84.5909 300.687 83.4318 298.641 83.4318H296.323ZM303.187 89H304.527V80.2727H303.187V89ZM296.323 84.6818H298.641C299.704 84.6818 300.459 85.3295 300.459 86.25C300.459 87.1307 299.704 87.75 298.641 87.75H296.323V84.6818ZM308.223 87.0227V80.2727H306.882V89H308.45L312.632 82.25V89H313.973V80.2727H312.427L308.223 87.0227ZM311.541 77.3636C311.541 77.9545 311.223 78.4773 310.427 78.4773C309.632 78.4773 309.337 77.9545 309.337 77.3636H308.087C308.087 78.5909 308.996 79.4545 310.427 79.4545C311.882 79.4545 312.791 78.5909 312.791 77.3636H311.541ZM320.729 89H322.07V85.3182H323.274L326.138 89H327.865L324.297 84.4773L327.82 80.2727H326.092L322.956 84.0682H322.07V80.2727H320.729V89ZM332.409 89.1818C334.772 89.1818 336.363 87.3864 336.363 84.6818C336.363 81.9545 334.772 80.1591 332.409 80.1591C330.045 80.1591 328.454 81.9545 328.454 84.6818C328.454 87.3864 330.045 89.1818 332.409 89.1818ZM332.409 87.9773C330.613 87.9773 329.795 86.4318 329.795 84.6818C329.795 82.9318 330.613 81.3636 332.409 81.3636C334.204 81.3636 335.022 82.9318 335.022 84.6818C335.022 86.4318 334.204 87.9773 332.409 87.9773ZM337.378 91.5H338.719V89H345.174V91.5H346.515V87.75H345.174V80.2727H339.628L339.333 83.7273C339.123 86.1705 338.81 87.0114 338.106 87.75H337.378V91.5ZM339.628 87.75C340.242 86.9432 340.463 85.5511 340.651 83.7273L340.878 81.5227H343.833V87.75H339.628ZM352.594 92.2727H353.935V87.6591H354.049C354.344 88.1364 354.913 89.1818 356.594 89.1818C358.776 89.1818 360.299 87.4318 360.299 84.6591C360.299 81.9091 358.776 80.1591 356.572 80.1591C354.867 80.1591 354.344 81.2045 354.049 81.6591H353.89V80.2727H352.594V92.2727ZM353.913 84.6364C353.913 82.6818 354.776 81.3636 356.413 81.3636C358.117 81.3636 358.958 82.7955 358.958 84.6364C358.958 86.5 358.094 87.9773 356.413 87.9773C354.799 87.9773 353.913 86.6136 353.913 84.6364ZM365.904 89.1818C367.676 89.1818 368.972 88.2955 369.381 86.9773L368.085 86.6136C367.744 87.5227 366.955 87.9773 365.904 87.9773C364.33 87.9773 363.244 86.9602 363.182 85.0909H369.517V84.5227C369.517 81.2727 367.585 80.1591 365.767 80.1591C363.404 80.1591 361.835 82.0227 361.835 84.7045C361.835 87.3864 363.381 89.1818 365.904 89.1818ZM363.182 83.9318C363.273 82.5739 364.233 81.3636 365.767 81.3636C367.222 81.3636 368.154 82.4545 368.154 83.9318H363.182ZM378.184 80.2727H376.843V84.6989C376.196 84.8864 375.531 85 374.73 85C373.639 85 372.798 84.3864 372.798 83.0455V80.25H371.457V83.0455C371.457 85.1818 372.752 86.25 374.73 86.25C375.554 86.25 376.213 86.142 376.843 85.9545V89H378.184V80.2727ZM384.204 89.1818C385.976 89.1818 387.272 88.2955 387.681 86.9773L386.385 86.6136C386.044 87.5227 385.255 87.9773 384.204 87.9773C382.63 87.9773 381.544 86.9602 381.482 85.0909H387.817V84.5227C387.817 81.2727 385.885 80.1591 384.067 80.1591C381.704 80.1591 380.135 82.0227 380.135 84.7045C380.135 87.3864 381.681 89.1818 384.204 89.1818ZM381.482 83.9318C381.573 82.5739 382.533 81.3636 384.067 81.3636C385.522 81.3636 386.454 82.4545 386.454 83.9318H381.482ZM391.098 87.0227V80.2727H389.757V89H391.325L395.507 82.25V89H396.848V80.2727H395.302L391.098 87.0227ZM394.416 77.3636C394.416 77.9545 394.098 78.4773 393.302 78.4773C392.507 78.4773 392.212 77.9545 392.212 77.3636H390.962C390.962 78.5909 391.871 79.4545 393.302 79.4545C394.757 79.4545 395.666 78.5909 395.666 77.3636H394.416ZM400.181 89.0909C400.744 89.0909 401.204 88.6307 401.204 88.0682C401.204 87.5057 400.744 87.0455 400.181 87.0455C399.619 87.0455 399.158 87.5057 399.158 88.0682C399.158 88.6307 399.619 89.0909 400.181 89.0909ZM416.796 77.3636H408.115V89H409.524V78.6136H415.387V89H416.796V77.3636ZM419.357 92.2727H420.698V87.6591H420.812C421.107 88.1364 421.675 89.1818 423.357 89.1818C425.539 89.1818 427.062 87.4318 427.062 84.6591C427.062 81.9091 425.539 80.1591 423.334 80.1591C421.63 80.1591 421.107 81.2045 420.812 81.6591H420.652V80.2727H419.357V92.2727ZM420.675 84.6364C420.675 82.6818 421.539 81.3636 423.175 81.3636C424.88 81.3636 425.721 82.7955 425.721 84.6364C425.721 86.5 424.857 87.9773 423.175 87.9773C421.562 87.9773 420.675 86.6136 420.675 84.6364ZM430.348 87.0227V80.2727H429.007V89H430.575L434.757 82.25V89H436.098V80.2727H434.552L430.348 87.0227ZM446.399 89.1818C448.331 89.1818 449.604 88 449.831 86.4545H448.49C448.24 87.4091 447.445 87.9773 446.399 87.9773C444.808 87.9773 443.786 86.6591 443.786 84.6364C443.786 82.6591 444.831 81.3636 446.399 81.3636C447.581 81.3636 448.286 82.0909 448.49 82.8864H449.831C449.604 81.25 448.217 80.1591 446.377 80.1591C444.013 80.1591 442.445 82.0227 442.445 84.6818C442.445 87.2955 443.945 89.1818 446.399 89.1818ZM455.237 89.1818C457.6 89.1818 459.191 87.3864 459.191 84.6818C459.191 81.9545 457.6 80.1591 455.237 80.1591C452.873 80.1591 451.282 81.9545 451.282 84.6818C451.282 87.3864 452.873 89.1818 455.237 89.1818ZM455.237 87.9773C453.441 87.9773 452.623 86.4318 452.623 84.6818C452.623 82.9318 453.441 81.3636 455.237 81.3636C457.032 81.3636 457.85 82.9318 457.85 84.6818C457.85 86.4318 457.032 87.9773 455.237 87.9773ZM460.593 86.7727C460.638 88.2045 462.008 89.1818 463.865 89.1818C465.775 89.1818 467.161 88.1591 467.161 86.5682C467.161 85.4773 466.508 84.5909 465.525 84.5227V84.4318C466.354 84.1761 466.979 83.5739 466.979 82.5909C466.979 81.2102 465.797 80.1591 463.956 80.1591C462.138 80.1591 460.843 81.1591 460.797 82.5682H462.206C462.246 81.8466 463.002 81.3409 464.025 81.3409C465.042 81.3409 465.615 81.858 465.615 82.6364C465.615 83.3636 465.115 83.9091 464.047 83.9091H462.547V85.1136H464.047C465.115 85.1136 465.797 85.6989 465.797 86.5682C465.797 87.5625 464.917 87.9773 463.843 87.9773C462.792 87.9773 462.087 87.5625 462.025 86.7727H460.593ZM468.013 91.5H469.354V89H475.808V91.5H477.149V87.75H475.808V80.2727H470.263L469.967 83.7273C469.757 86.1705 469.444 87.0114 468.74 87.75H468.013V91.5ZM470.263 87.75C470.876 86.9432 471.098 85.5511 471.285 83.7273L471.513 81.5227H474.467V87.75H470.263ZM481.397 89.2045C482.92 89.2045 483.715 88.3864 483.988 87.8182H484.056V89H485.397V83.25C485.397 80.4773 483.283 80.1591 482.17 80.1591C480.852 80.1591 479.352 80.6136 478.67 82.2045L479.942 82.6591C480.238 82.0227 480.937 81.3409 482.215 81.3409C483.448 81.3409 484.056 81.9943 484.056 83.1136V83.1591C484.056 83.8068 483.397 83.75 481.806 83.9545C480.187 84.1648 478.42 84.5227 478.42 86.5227C478.42 88.2273 479.738 89.2045 481.397 89.2045ZM481.602 88C480.533 88 479.761 87.5227 479.761 86.5909C479.761 85.5682 480.692 85.25 481.738 85.1136C482.306 85.0455 483.829 84.8864 484.056 84.6136V85.8409C484.056 86.9318 483.192 88 481.602 88ZM489.085 80.2727H487.744V89H489.085V85.2727H493.267V89H494.608V80.2727H493.267V84.0227H489.085V80.2727ZM498.298 87.0227V80.2727H496.957V89H498.525L502.707 82.25V89H504.048V80.2727H502.502L498.298 87.0227ZM507.745 87.0227V80.2727H506.404V89H507.972L512.154 82.25V89H513.495V80.2727H511.949L507.745 87.0227ZM525.637 80.2727H520.251V89H521.592V81.5227H525.637V80.2727ZM530.7 89.1818C532.473 89.1818 533.769 88.2955 534.178 86.9773L532.882 86.6136C532.541 87.5227 531.752 87.9773 530.7 87.9773C529.127 87.9773 528.041 86.9602 527.979 85.0909H534.314V84.5227C534.314 81.2727 532.382 80.1591 530.564 80.1591C528.2 80.1591 526.632 82.0227 526.632 84.7045C526.632 87.3864 528.178 89.1818 530.7 89.1818ZM527.979 83.9318C528.07 82.5739 529.03 81.3636 530.564 81.3636C532.019 81.3636 532.95 82.4545 532.95 83.9318H527.979ZM537.595 80.2727H536.254V89H537.595V85.2727H541.777V89H543.117V80.2727H541.777V84.0227H537.595V80.2727ZM549.125 89.1818C550.898 89.1818 552.194 88.2955 552.603 86.9773L551.307 86.6136C550.966 87.5227 550.177 87.9773 549.125 87.9773C547.552 87.9773 546.466 86.9602 546.404 85.0909H552.739V84.5227C552.739 81.2727 550.807 80.1591 548.989 80.1591C546.625 80.1591 545.057 82.0227 545.057 84.7045C545.057 87.3864 546.603 89.1818 549.125 89.1818ZM546.404 83.9318C546.495 82.5739 547.455 81.3636 548.989 81.3636C550.444 81.3636 551.375 82.4545 551.375 83.9318H546.404ZM554.679 92.2727H556.02V87.6591H556.133C556.429 88.1364 556.997 89.1818 558.679 89.1818C560.861 89.1818 562.383 87.4318 562.383 84.6591C562.383 81.9091 560.861 80.1591 558.656 80.1591C556.952 80.1591 556.429 81.2045 556.133 81.6591H555.974V80.2727H554.679V92.2727ZM555.997 84.6364C555.997 82.6818 556.861 81.3636 558.497 81.3636C560.202 81.3636 561.042 82.7955 561.042 84.6364C561.042 86.5 560.179 87.9773 558.497 87.9773C556.883 87.9773 555.997 86.6136 555.997 84.6364ZM566.897 89.2045C568.42 89.2045 569.215 88.3864 569.488 87.8182H569.556V89H570.897V83.25C570.897 80.4773 568.783 80.1591 567.67 80.1591C566.352 80.1591 564.852 80.6136 564.17 82.2045L565.442 82.6591C565.738 82.0227 566.437 81.3409 567.715 81.3409C568.948 81.3409 569.556 81.9943 569.556 83.1136V83.1591C569.556 83.8068 568.897 83.75 567.306 83.9545C565.687 84.1648 563.92 84.5227 563.92 86.5227C563.92 88.2273 565.238 89.2045 566.897 89.2045ZM567.102 88C566.033 88 565.261 87.5227 565.261 86.5909C565.261 85.5682 566.192 85.25 567.238 85.1136C567.806 85.0455 569.329 84.8864 569.556 84.6136V85.8409C569.556 86.9318 568.692 88 567.102 88ZM572.057 81.5227H574.943V89H576.284V81.5227H579.148V80.2727H572.057V81.5227ZM584.096 89.1818C586.46 89.1818 588.051 87.3864 588.051 84.6818C588.051 81.9545 586.46 80.1591 584.096 80.1591C581.733 80.1591 580.142 81.9545 580.142 84.6818C580.142 87.3864 581.733 89.1818 584.096 89.1818ZM584.096 87.9773C582.301 87.9773 581.483 86.4318 581.483 84.6818C581.483 82.9318 582.301 81.3636 584.096 81.3636C585.892 81.3636 586.71 82.9318 586.71 84.6818C586.71 86.4318 585.892 87.9773 584.096 87.9773ZM589.998 92.2727H591.339V87.6591H591.452C591.748 88.1364 592.316 89.1818 593.998 89.1818C596.179 89.1818 597.702 87.4318 597.702 84.6591C597.702 81.9091 596.179 80.1591 593.975 80.1591C592.27 80.1591 591.748 81.2045 591.452 81.6591H591.293V80.2727H589.998V92.2727ZM591.316 84.6364C591.316 82.6818 592.179 81.3636 593.816 81.3636C595.52 81.3636 596.361 82.7955 596.361 84.6364C596.361 86.5 595.498 87.9773 593.816 87.9773C592.202 87.9773 591.316 86.6136 591.316 84.6364ZM602.216 89.2045C603.738 89.2045 604.534 88.3864 604.807 87.8182H604.875V89H606.216V83.25C606.216 80.4773 604.102 80.1591 602.988 80.1591C601.67 80.1591 600.17 80.6136 599.488 82.2045L600.761 82.6591C601.057 82.0227 601.756 81.3409 603.034 81.3409C604.267 81.3409 604.875 81.9943 604.875 83.1136V83.1591C604.875 83.8068 604.216 83.75 602.625 83.9545C601.006 84.1648 599.238 84.5227 599.238 86.5227C599.238 88.2273 600.557 89.2045 602.216 89.2045ZM602.42 88C601.352 88 600.579 87.5227 600.579 86.5909C600.579 85.5682 601.511 85.25 602.557 85.1136C603.125 85.0455 604.648 84.8864 604.875 84.6136V85.8409C604.875 86.9318 604.011 88 602.42 88ZM617.736 87.1818L614.736 80.2727H612.963V89H614.304V82.1989L617.191 89H618.281L621.168 82.3239V89H622.509V80.2727H620.781L617.736 87.1818ZM626.204 83.4318V80.2727H624.863V89H628.522C630.568 89 631.681 87.75 631.681 86.1818C631.681 84.5909 630.568 83.4318 628.522 83.4318H626.204ZM633.068 89H634.409V80.2727H633.068V89ZM626.204 84.6818H628.522C629.585 84.6818 630.34 85.3295 630.34 86.25C630.34 87.1307 629.585 87.75 628.522 87.75H626.204V84.6818Z" fill="#6E7381"/>
<defs>
<clipPath id="clip0_778_132">
<rect width="48" height="48" fill="white" transform="translate(387 152)"/>
</clipPath>
<clipPath id="clip1_778_132">
<rect width="48" height="48" fill="white" transform="translate(46 148)"/>
</clipPath>
</defs>
</svg>
