<svg width="387" height="285" viewBox="0 0 387 285" fill="none" xmlns="http://www.w3.org/2000/svg">
<rect x="1.5" y="1.5" width="384" height="282" rx="8.5" fill="white" stroke="#74D272" stroke-width="3"/>
<path d="M64.2273 96.1818C64.2273 92.5 62.0682 90.2045 59.0909 90.2045C56.1136 90.2045 53.9545 92.5 53.9545 96.1818C53.9545 99.8636 56.1136 102.159 59.0909 102.159C62.0682 102.159 64.2273 99.8636 64.2273 96.1818ZM62.8636 96.1818C62.8636 99.2045 61.2045 100.841 59.0909 100.841C56.9773 100.841 55.3182 99.2045 55.3182 96.1818C55.3182 93.1591 56.9773 91.5227 59.0909 91.5227C61.2045 91.5227 62.8636 93.1591 62.8636 96.1818ZM67.6557 93.2727H66.3148V102H67.6557V98.2727H71.8375V102H73.1784V93.2727H71.8375V97.0227H67.6557V93.2727ZM79.3818 99.7727C79.4273 101.205 80.7966 102.182 82.6545 102.182C84.5636 102.182 85.95 101.159 85.95 99.5682C85.95 98.4773 85.2966 97.5909 84.3136 97.5227V97.4318C85.1432 97.1761 85.7682 96.5739 85.7682 95.5909C85.7682 94.2102 84.5864 93.1591 82.7455 93.1591C80.9273 93.1591 79.6318 94.1591 79.5864 95.5682H80.9955C81.0352 94.8466 81.7909 94.3409 82.8136 94.3409C83.8307 94.3409 84.4045 94.858 84.4045 95.6364C84.4045 96.3636 83.9045 96.9091 82.8364 96.9091H81.3364V98.1136H82.8364C83.9045 98.1136 84.5864 98.6989 84.5864 99.5682C84.5864 100.562 83.7057 100.977 82.6318 100.977C81.5807 100.977 80.8761 100.562 80.8136 99.7727H79.3818ZM90.3017 102.205C91.8244 102.205 92.6199 101.386 92.8926 100.818H92.9608V102H94.3017V96.25C94.3017 93.4773 92.1881 93.1591 91.0744 93.1591C89.7562 93.1591 88.2562 93.6136 87.5744 95.2045L88.8472 95.6591C89.1426 95.0227 89.8415 94.3409 91.1199 94.3409C92.3528 94.3409 92.9608 94.9943 92.9608 96.1136V96.1591C92.9608 96.8068 92.3017 96.75 90.7108 96.9545C89.0915 97.1648 87.3244 97.5227 87.3244 99.5227C87.3244 101.227 88.6426 102.205 90.3017 102.205ZM90.5062 101C89.4381 101 88.6653 100.523 88.6653 99.5909C88.6653 98.5682 89.5972 98.25 90.6426 98.1136C91.2108 98.0455 92.7335 97.8864 92.9608 97.6136V98.8409C92.9608 99.9318 92.0972 101 90.5062 101ZM100.195 102.182C102.126 102.182 103.399 101 103.626 99.4545H102.286C102.036 100.409 101.24 100.977 100.195 100.977C98.6037 100.977 97.581 99.6591 97.581 97.6364C97.581 95.6591 98.6264 94.3636 100.195 94.3636C101.376 94.3636 102.081 95.0909 102.286 95.8864H103.626C103.399 94.25 102.013 93.1591 100.172 93.1591C97.8082 93.1591 96.2401 95.0227 96.2401 97.6818C96.2401 100.295 97.7401 102.182 100.195 102.182ZM104.714 102H105.168C107.1 102 107.657 100.5 107.782 97.6364L107.918 94.5227H111.123V102H112.464V93.2727H106.646L106.487 97.1364C106.373 100.068 106.078 100.75 105.032 100.75H104.714V102ZM115.375 105.273C116.586 105.273 117.438 104.631 117.943 103.273L121.659 93.2955L120.193 93.2727L117.784 100.227H117.693L115.284 93.2727H113.83L117.057 102.045L116.807 102.727C116.318 104.057 115.716 104.182 114.739 103.932L114.398 105.114C114.534 105.182 114.921 105.273 115.375 105.273ZM122.788 102H124.402L127.379 98.25H128.061V102H129.402V98.25H130.084L133.038 102H134.652L131.129 97.5682L134.606 93.2727H133.015L130.106 97H129.402V93.2727H128.061V97H127.334L124.424 93.2727H122.834L126.334 97.5682L122.788 102ZM137.809 100.023V93.2727H136.468V102H138.036L142.218 95.25V102H143.559V93.2727H142.013L137.809 100.023ZM145.915 102H150.028C151.801 102 152.869 101 152.869 99.6591C152.869 98.2898 151.83 97.5511 150.869 97.4091C151.852 97.2045 152.551 96.6534 152.551 95.5909C152.551 94.1989 151.358 93.2727 149.483 93.2727H145.915V102ZM147.188 100.773V98.0909H150.028C150.949 98.0909 151.506 98.642 151.506 99.5455C151.506 100.307 150.949 100.773 150.028 100.773H147.188ZM147.188 96.9318V94.5H149.483C150.557 94.5 151.21 94.9489 151.21 95.6818C151.21 96.4602 150.557 96.9318 149.483 96.9318H147.188ZM157.367 102.205C158.89 102.205 159.686 101.386 159.958 100.818H160.026V102H161.367V96.25C161.367 93.4773 159.254 93.1591 158.14 93.1591C156.822 93.1591 155.322 93.6136 154.64 95.2045L155.913 95.6591C156.208 95.0227 156.907 94.3409 158.186 94.3409C159.418 94.3409 160.026 94.9943 160.026 96.1136V96.1591C160.026 96.8068 159.367 96.75 157.776 96.9545C156.157 97.1648 154.39 97.5227 154.39 99.5227C154.39 101.227 155.708 102.205 157.367 102.205ZM157.572 101C156.504 101 155.731 100.523 155.731 99.5909C155.731 98.5682 156.663 98.25 157.708 98.1136C158.276 98.0455 159.799 97.8864 160.026 97.6136V98.8409C160.026 99.9318 159.163 101 157.572 101ZM167.374 102.182C169.147 102.182 170.442 101.295 170.851 99.9773L169.556 99.6136C169.215 100.523 168.425 100.977 167.374 100.977C165.8 100.977 164.715 99.9602 164.652 98.0909H170.988V97.5227C170.988 94.2727 169.056 93.1591 167.238 93.1591C164.874 93.1591 163.306 95.0227 163.306 97.7045C163.306 100.386 164.851 102.182 167.374 102.182ZM164.652 96.9318C164.743 95.5739 165.703 94.3636 167.238 94.3636C168.692 94.3636 169.624 95.4545 169.624 96.9318H164.652ZM172.115 94.5227H175.001V102H176.342V94.5227H179.206V93.2727H172.115V94.5227ZM185.462 102H189.575C191.348 102 192.416 101 192.416 99.6591C192.416 98.2898 191.376 97.5511 190.416 97.4091C191.399 97.2045 192.098 96.6534 192.098 95.5909C192.098 94.1989 190.905 93.2727 189.03 93.2727H185.462V102ZM186.734 100.773V98.0909H189.575C190.496 98.0909 191.053 98.642 191.053 99.5455C191.053 100.307 190.496 100.773 189.575 100.773H186.734ZM186.734 96.9318V94.5H189.03C190.104 94.5 190.757 94.9489 190.757 95.6818C190.757 96.4602 190.104 96.9318 189.03 96.9318H186.734ZM197.891 102.182C199.823 102.182 201.096 101 201.323 99.4545H199.982C199.732 100.409 198.937 100.977 197.891 100.977C196.301 100.977 195.278 99.6591 195.278 97.6364C195.278 95.6591 196.323 94.3636 197.891 94.3636C199.073 94.3636 199.778 95.0909 199.982 95.8864H201.323C201.096 94.25 199.71 93.1591 197.869 93.1591C195.505 93.1591 193.937 95.0227 193.937 97.6818C193.937 100.295 195.437 102.182 197.891 102.182ZM206.843 102.182C208.615 102.182 209.911 101.295 210.32 99.9773L209.024 99.6136C208.684 100.523 207.894 100.977 206.843 100.977C205.269 100.977 204.184 99.9602 204.121 98.0909H210.456V97.5227C210.456 94.2727 208.524 93.1591 206.706 93.1591C204.343 93.1591 202.774 95.0227 202.774 97.7045C202.774 100.386 204.32 102.182 206.843 102.182ZM204.121 96.9318C204.212 95.5739 205.172 94.3636 206.706 94.3636C208.161 94.3636 209.093 95.4545 209.093 96.9318H204.121ZM215.941 102.182C218.305 102.182 219.896 100.386 219.896 97.6818C219.896 94.9545 218.305 93.1591 215.941 93.1591C213.578 93.1591 211.987 94.9545 211.987 97.6818C211.987 100.386 213.578 102.182 215.941 102.182ZM215.941 100.977C214.146 100.977 213.328 99.4318 213.328 97.6818C213.328 95.9318 214.146 94.3636 215.941 94.3636C217.737 94.3636 218.555 95.9318 218.555 97.6818C218.555 99.4318 217.737 100.977 215.941 100.977ZM228.32 90C227.894 90.358 227.258 90.358 226.366 90.3523C226.076 90.3523 225.758 90.3523 225.411 90.3636C222.752 90.4318 221.434 92.4545 221.434 96.3409V97.2727C221.434 100.5 223.002 102.182 225.343 102.182C227.678 102.182 229.229 100.489 229.229 97.75C229.229 95 227.655 93.5455 225.616 93.5455C224.417 93.5455 223.297 94.0455 222.707 95.1364H222.593C222.775 92.8864 223.616 91.6818 225.434 91.6136C227.047 91.5455 228.207 91.5909 229.002 90.8182L228.32 90ZM225.343 100.977C223.752 100.977 222.775 99.7045 222.775 97.75C222.803 95.8409 223.763 94.75 225.32 94.75C226.917 94.75 227.888 95.8409 227.888 97.75C227.888 99.7159 226.922 100.977 225.343 100.977ZM243.089 100.75H241.794V93.2727H240.453V100.75H237.158V93.2727H235.817V100.75H232.521V93.2727H231.18V102H241.544V104.5H242.93L243.089 100.75ZM248.505 102.182C250.278 102.182 251.573 101.295 251.982 99.9773L250.687 99.6136C250.346 100.523 249.556 100.977 248.505 100.977C246.931 100.977 245.846 99.9602 245.784 98.0909H252.119V97.5227C252.119 94.2727 250.187 93.1591 248.369 93.1591C246.005 93.1591 244.437 95.0227 244.437 97.7045C244.437 100.386 245.982 102.182 248.505 102.182ZM245.784 96.9318C245.874 95.5739 246.835 94.3636 248.369 94.3636C249.823 94.3636 250.755 95.4545 250.755 96.9318H245.784ZM259.445 93.2727H254.059V102H255.399V94.5227H259.445V93.2727ZM264.395 102.182C266.758 102.182 268.349 100.386 268.349 97.6818C268.349 94.9545 266.758 93.1591 264.395 93.1591C262.031 93.1591 260.44 94.9545 260.44 97.6818C260.44 100.386 262.031 102.182 264.395 102.182ZM264.395 100.977C262.599 100.977 261.781 99.4318 261.781 97.6818C261.781 95.9318 262.599 94.3636 264.395 94.3636C266.19 94.3636 267.008 95.9318 267.008 97.6818C267.008 99.4318 266.19 100.977 264.395 100.977ZM275.56 105.273C276.77 105.273 277.622 104.631 278.128 103.273L281.844 93.2955L280.378 93.2727L277.969 100.227H277.878L275.469 93.2727H274.014L277.241 102.045L276.991 102.727C276.503 104.057 275.901 104.182 274.923 103.932L274.582 105.114C274.719 105.182 275.105 105.273 275.56 105.273ZM283.518 102H287.632C289.404 102 290.472 101 290.472 99.6591C290.472 98.2898 289.433 97.5511 288.472 97.4091C289.455 97.2045 290.154 96.6534 290.154 95.5909C290.154 94.1989 288.961 93.2727 287.086 93.2727H283.518V102ZM284.791 100.773V98.0909H287.632C288.552 98.0909 289.109 98.642 289.109 99.5455C289.109 100.307 288.552 100.773 287.632 100.773H284.791ZM284.791 96.9318V94.5H287.086C288.16 94.5 288.813 94.9489 288.813 95.6818C288.813 96.4602 288.16 96.9318 287.086 96.9318H284.791ZM294.97 102.205C296.493 102.205 297.289 101.386 297.561 100.818H297.63V102H298.97V96.25C298.97 93.4773 296.857 93.1591 295.743 93.1591C294.425 93.1591 292.925 93.6136 292.243 95.2045L293.516 95.6591C293.811 95.0227 294.51 94.3409 295.789 94.3409C297.022 94.3409 297.63 94.9943 297.63 96.1136V96.1591C297.63 96.8068 296.97 96.75 295.38 96.9545C293.76 97.1648 291.993 97.5227 291.993 99.5227C291.993 101.227 293.311 102.205 294.97 102.205ZM295.175 101C294.107 101 293.334 100.523 293.334 99.5909C293.334 98.5682 294.266 98.25 295.311 98.1136C295.88 98.0455 297.402 97.8864 297.63 97.6136V98.8409C297.63 99.9318 296.766 101 295.175 101ZM300.772 102H302.386L305.363 98.25H306.045V102H307.386V98.25H308.068L311.022 102H312.636L309.113 97.5682L312.591 93.2727H311L308.091 97H307.386V93.2727H306.045V97H305.318L302.409 93.2727H300.818L304.318 97.5682L300.772 102ZM317.752 102.182C319.525 102.182 320.82 101.295 321.229 99.9773L319.934 99.6136C319.593 100.523 318.803 100.977 317.752 100.977C316.178 100.977 315.093 99.9602 315.03 98.0909H321.366V97.5227C321.366 94.2727 319.434 93.1591 317.616 93.1591C315.252 93.1591 313.684 95.0227 313.684 97.7045C313.684 100.386 315.229 102.182 317.752 102.182ZM315.03 96.9318C315.121 95.5739 316.082 94.3636 317.616 94.3636C319.07 94.3636 320.002 95.4545 320.002 96.9318H315.03ZM324.646 93.2727H323.305V102H324.646V98.2727H328.828V102H330.169V93.2727H328.828V97.0227H324.646V93.2727ZM333.859 100.023V93.2727H332.518V102H334.086L338.268 95.25V102H339.609V93.2727H338.063L333.859 100.023ZM347.215 102H348.487V93.2727H344.897C343.016 93.2727 341.874 94.2557 341.874 95.8636C341.874 97.0625 342.476 97.9148 343.527 98.2727L341.397 102H342.851L344.874 98.4545H347.215V102ZM347.215 97.2045H344.737C343.789 97.2045 343.215 96.6989 343.215 95.8636C343.215 95.017 343.851 94.5 344.897 94.5H347.215V97.2045Z" fill="black"/>
<circle cx="32.5" cy="96.5" r="5.5" fill="#C4C4C4"/>
<path d="M64.2273 125.182C64.2273 121.5 62.0682 119.205 59.0909 119.205C56.1136 119.205 53.9545 121.5 53.9545 125.182C53.9545 128.864 56.1136 131.159 59.0909 131.159C62.0682 131.159 64.2273 128.864 64.2273 125.182ZM62.8636 125.182C62.8636 128.205 61.2045 129.841 59.0909 129.841C56.9773 129.841 55.3182 128.205 55.3182 125.182C55.3182 122.159 56.9773 120.523 59.0909 120.523C61.2045 120.523 62.8636 122.159 62.8636 125.182ZM72.792 119C72.3659 119.358 71.7295 119.358 70.8375 119.352C70.5477 119.352 70.2295 119.352 69.883 119.364C67.2239 119.432 65.9057 121.455 65.9057 125.341V126.273C65.9057 129.5 67.4739 131.182 69.8148 131.182C72.15 131.182 73.7011 129.489 73.7011 126.75C73.7011 124 72.1273 122.545 70.0875 122.545C68.8886 122.545 67.7693 123.045 67.1784 124.136H67.0648C67.2466 121.886 68.0875 120.682 69.9057 120.614C71.5193 120.545 72.6784 120.591 73.4739 119.818L72.792 119ZM69.8148 129.977C68.2239 129.977 67.2466 128.705 67.2466 126.75C67.275 124.841 68.2352 123.75 69.792 123.75C71.3886 123.75 72.3602 124.841 72.3602 126.75C72.3602 128.716 71.3943 129.977 69.8148 129.977ZM87.5614 129.75H86.2659V122.273H84.925V129.75H81.6295V122.273H80.2886V129.75H76.9932V122.273H75.6523V131H86.0159V133.5H87.4023L87.5614 129.75ZM92.977 131.182C94.7497 131.182 96.0452 130.295 96.4543 128.977L95.1588 128.614C94.8179 129.523 94.0281 129.977 92.977 129.977C91.4031 129.977 90.3179 128.96 90.2554 127.091H96.5906V126.523C96.5906 123.273 94.6588 122.159 92.8406 122.159C90.477 122.159 88.9088 124.023 88.9088 126.705C88.9088 129.386 90.4543 131.182 92.977 131.182ZM90.2554 125.932C90.3463 124.574 91.3065 123.364 92.8406 123.364C94.2952 123.364 95.227 124.455 95.227 125.932H90.2554ZM102.076 131.182C104.008 131.182 105.28 130 105.508 128.455H104.167C103.917 129.409 103.121 129.977 102.076 129.977C100.485 129.977 99.4622 128.659 99.4622 126.636C99.4622 124.659 100.508 123.364 102.076 123.364C103.258 123.364 103.962 124.091 104.167 124.886H105.508C105.28 123.25 103.894 122.159 102.053 122.159C99.6895 122.159 98.1213 124.023 98.1213 126.682C98.1213 129.295 99.6213 131.182 102.076 131.182ZM106.68 123.523H109.567V131H110.908V123.523H113.771V122.273H106.68V123.523ZM115.627 131H119.741C121.514 131 122.582 130 122.582 128.659C122.582 127.29 121.542 126.551 120.582 126.409C121.565 126.205 122.264 125.653 122.264 124.591C122.264 123.199 121.07 122.273 119.195 122.273H115.627V131ZM116.9 129.773V127.091H119.741C120.661 127.091 121.218 127.642 121.218 128.545C121.218 129.307 120.661 129.773 119.741 129.773H116.9ZM116.9 125.932V123.5H119.195C120.269 123.5 120.923 123.949 120.923 124.682C120.923 125.46 120.269 125.932 119.195 125.932H116.9ZM128.171 131.182C129.943 131.182 131.239 130.295 131.648 128.977L130.353 128.614C130.012 129.523 129.222 129.977 128.171 129.977C126.597 129.977 125.512 128.96 125.449 127.091H131.784V126.523C131.784 123.273 129.853 122.159 128.034 122.159C125.671 122.159 124.103 124.023 124.103 126.705C124.103 129.386 125.648 131.182 128.171 131.182ZM125.449 125.932C125.54 124.574 126.5 123.364 128.034 123.364C129.489 123.364 130.421 124.455 130.421 125.932H125.449ZM135.065 122.273H133.724V131H135.065V127.273H139.247V131H140.588V122.273H139.247V126.023H135.065V122.273ZM144.278 122.273H142.937V131H144.278V127.273H148.459V131H149.8V122.273H148.459V126.023H144.278V122.273ZM155.695 131.182C158.058 131.182 159.649 129.386 159.649 126.682C159.649 123.955 158.058 122.159 155.695 122.159C153.331 122.159 151.74 123.955 151.74 126.682C151.74 129.386 153.331 131.182 155.695 131.182ZM155.695 129.977C153.899 129.977 153.081 128.432 153.081 126.682C153.081 124.932 153.899 123.364 155.695 123.364C157.49 123.364 158.308 124.932 158.308 126.682C158.308 128.432 157.49 129.977 155.695 129.977ZM165.255 131.182C167.028 131.182 168.323 130.295 168.732 128.977L167.437 128.614C167.096 129.523 166.306 129.977 165.255 129.977C163.681 129.977 162.596 128.96 162.534 127.091H168.869V126.523C168.869 123.273 166.937 122.159 165.119 122.159C162.755 122.159 161.187 124.023 161.187 126.705C161.187 129.386 162.732 131.182 165.255 131.182ZM162.534 125.932C162.624 124.574 163.585 123.364 165.119 123.364C166.573 123.364 167.505 124.455 167.505 125.932H162.534ZM174.663 128.773C174.709 130.205 176.078 131.182 177.936 131.182C179.845 131.182 181.231 130.159 181.231 128.568C181.231 127.477 180.578 126.591 179.595 126.523V126.432C180.424 126.176 181.049 125.574 181.049 124.591C181.049 123.21 179.868 122.159 178.027 122.159C176.209 122.159 174.913 123.159 174.868 124.568H176.277C176.316 123.847 177.072 123.341 178.095 123.341C179.112 123.341 179.686 123.858 179.686 124.636C179.686 125.364 179.186 125.909 178.118 125.909H176.618V127.114H178.118C179.186 127.114 179.868 127.699 179.868 128.568C179.868 129.562 178.987 129.977 177.913 129.977C176.862 129.977 176.157 129.562 176.095 128.773H174.663ZM182.083 133.5H183.424V131H189.878V133.5H191.219V129.75H189.878V122.273H184.333L184.038 125.727C183.827 128.17 183.515 129.011 182.81 129.75H182.083V133.5ZM184.333 129.75C184.947 128.943 185.168 127.551 185.356 125.727L185.583 123.523H188.538V129.75H184.333ZM192.899 134.273H194.24V129.659H194.354C194.649 130.136 195.217 131.182 196.899 131.182C199.081 131.182 200.604 129.432 200.604 126.659C200.604 123.909 199.081 122.159 196.876 122.159C195.172 122.159 194.649 123.205 194.354 123.659H194.195V122.273H192.899V134.273ZM194.217 126.636C194.217 124.682 195.081 123.364 196.717 123.364C198.422 123.364 199.263 124.795 199.263 126.636C199.263 128.5 198.399 129.977 196.717 129.977C195.104 129.977 194.217 128.614 194.217 126.636ZM205.117 131.205C206.64 131.205 207.436 130.386 207.708 129.818H207.776V131H209.117V125.25C209.117 122.477 207.004 122.159 205.89 122.159C204.572 122.159 203.072 122.614 202.39 124.205L203.663 124.659C203.958 124.023 204.657 123.341 205.936 123.341C207.168 123.341 207.776 123.994 207.776 125.114V125.159C207.776 125.807 207.117 125.75 205.526 125.955C203.907 126.165 202.14 126.523 202.14 128.523C202.14 130.227 203.458 131.205 205.117 131.205ZM205.322 130C204.254 130 203.481 129.523 203.481 128.591C203.481 127.568 204.413 127.25 205.458 127.114C206.026 127.045 207.549 126.886 207.776 126.614V127.841C207.776 128.932 206.913 130 205.322 130ZM211.465 131H215.578C217.351 131 218.419 130 218.419 128.659C218.419 127.29 217.38 126.551 216.419 126.409C217.402 126.205 218.101 125.653 218.101 124.591C218.101 123.199 216.908 122.273 215.033 122.273H211.465V131ZM212.738 129.773V127.091H215.578C216.499 127.091 217.056 127.642 217.056 128.545C217.056 129.307 216.499 129.773 215.578 129.773H212.738ZM212.738 125.932V123.5H215.033C216.107 123.5 216.76 123.949 216.76 124.682C216.76 125.46 216.107 125.932 215.033 125.932H212.738ZM223.895 131.182C226.258 131.182 227.849 129.386 227.849 126.682C227.849 123.955 226.258 122.159 223.895 122.159C221.531 122.159 219.94 123.955 219.94 126.682C219.94 129.386 221.531 131.182 223.895 131.182ZM223.895 129.977C222.099 129.977 221.281 128.432 221.281 126.682C221.281 124.932 222.099 123.364 223.895 123.364C225.69 123.364 226.508 124.932 226.508 126.682C226.508 128.432 225.69 129.977 223.895 129.977ZM233.341 131.182C235.705 131.182 237.296 129.386 237.296 126.682C237.296 123.955 235.705 122.159 233.341 122.159C230.978 122.159 229.387 123.955 229.387 126.682C229.387 129.386 230.978 131.182 233.341 131.182ZM233.341 129.977C231.546 129.977 230.728 128.432 230.728 126.682C230.728 124.932 231.546 123.364 233.341 123.364C235.137 123.364 235.955 124.932 235.955 126.682C235.955 128.432 235.137 129.977 233.341 129.977ZM239.884 122.273H238.338L241.111 126.636L238.338 131H239.884L241.974 127.614L244.065 131H245.611L242.793 126.636L245.611 122.273H244.065L241.974 125.841L239.884 122.273ZM247.424 134.273H248.765V129.659H248.879C249.174 130.136 249.742 131.182 251.424 131.182C253.606 131.182 255.129 129.432 255.129 126.659C255.129 123.909 253.606 122.159 251.401 122.159C249.697 122.159 249.174 123.205 248.879 123.659H248.72V122.273H247.424V134.273ZM248.742 126.636C248.742 124.682 249.606 123.364 251.242 123.364C252.947 123.364 253.788 124.795 253.788 126.636C253.788 128.5 252.924 129.977 251.242 129.977C249.629 129.977 248.742 128.614 248.742 126.636ZM259.642 131.205C261.165 131.205 261.961 130.386 262.233 129.818H262.301V131H263.642V125.25C263.642 122.477 261.529 122.159 260.415 122.159C259.097 122.159 257.597 122.614 256.915 124.205L258.188 124.659C258.483 124.023 259.182 123.341 260.461 123.341C261.693 123.341 262.301 123.994 262.301 125.114V125.159C262.301 125.807 261.642 125.75 260.051 125.955C258.432 126.165 256.665 126.523 256.665 128.523C256.665 130.227 257.983 131.205 259.642 131.205ZM259.847 130C258.779 130 258.006 129.523 258.006 128.591C258.006 127.568 258.938 127.25 259.983 127.114C260.551 127.045 262.074 126.886 262.301 126.614V127.841C262.301 128.932 261.438 130 259.847 130ZM267.331 122.273H265.99V131H267.331V127.273H271.512V131H272.853V122.273H271.512V126.023H267.331V122.273ZM278.861 131.182C280.634 131.182 281.93 130.295 282.339 128.977L281.043 128.614C280.702 129.523 279.913 129.977 278.861 129.977C277.288 129.977 276.202 128.96 276.14 127.091H282.475V126.523C282.475 123.273 280.543 122.159 278.725 122.159C276.361 122.159 274.793 124.023 274.793 126.705C274.793 129.386 276.339 131.182 278.861 131.182ZM276.14 125.932C276.231 124.574 277.191 123.364 278.725 123.364C280.18 123.364 281.111 124.455 281.111 125.932H276.14ZM285.756 122.273H284.415V131H285.756V127.273H289.938V131H291.278V122.273H289.938V126.023H285.756V122.273ZM294.968 129.023V122.273H293.627V131H295.195L299.377 124.25V131H300.718V122.273H299.173L294.968 129.023ZM306.733 131.182C308.506 131.182 309.801 130.295 310.211 128.977L308.915 128.614C308.574 129.523 307.784 129.977 306.733 129.977C305.159 129.977 304.074 128.96 304.012 127.091H310.347V126.523C310.347 123.273 308.415 122.159 306.597 122.159C304.233 122.159 302.665 124.023 302.665 126.705C302.665 129.386 304.211 131.182 306.733 131.182ZM304.012 125.932C304.103 124.574 305.063 123.364 306.597 123.364C308.051 123.364 308.983 124.455 308.983 125.932H304.012Z" fill="black"/>
<circle cx="32.5" cy="125.5" r="5.5" fill="#C4C4C4"/>
<path d="M60.7727 209.273H62.1364C62.0739 207.517 60.4545 206.205 58.2045 206.205C55.9773 206.205 54.2273 207.5 54.2273 209.455C54.2273 211.023 55.3636 211.955 57.1818 212.477L58.6136 212.886C59.8409 213.227 60.9318 213.659 60.9318 214.818C60.9318 216.091 59.7045 216.932 58.0909 216.932C56.7045 216.932 55.4773 216.318 55.3636 215H53.9091C54.0455 216.909 55.5909 218.205 58.0909 218.205C60.7727 218.205 62.2955 216.727 62.2955 214.841C62.2955 212.659 60.2273 211.955 59.0227 211.636L57.8409 211.318C56.9773 211.091 55.5909 210.636 55.5909 209.386C55.5909 208.273 56.6136 207.455 58.1591 207.455C59.5682 207.455 60.6364 208.125 60.7727 209.273ZM65.6713 212.75C65.6713 211.227 66.6429 210.364 67.9668 210.364C69.2281 210.364 69.9895 211.159 69.9895 212.545V218H71.3304V212.455C71.3304 210.21 70.1372 209.159 68.3531 209.159C66.9781 209.159 66.194 209.733 65.7849 210.636H65.6713V206.364H64.3304V218H65.6713V212.75ZM76.2517 218.205C77.7744 218.205 78.5699 217.386 78.8426 216.818H78.9108V218H80.2517V212.25C80.2517 209.477 78.1381 209.159 77.0244 209.159C75.7062 209.159 74.2062 209.614 73.5244 211.205L74.7972 211.659C75.0926 211.023 75.7915 210.341 77.0699 210.341C78.3028 210.341 78.9108 210.994 78.9108 212.114V212.159C78.9108 212.807 78.2517 212.75 76.6608 212.955C75.0415 213.165 73.2744 213.523 73.2744 215.523C73.2744 217.227 74.5926 218.205 76.2517 218.205ZM76.4562 217C75.3881 217 74.6153 216.523 74.6153 215.591C74.6153 214.568 75.5472 214.25 76.5926 214.114C77.1608 214.045 78.6835 213.886 78.9108 213.614V214.841C78.9108 215.932 78.0472 217 76.4562 217ZM82.781 218H84.0764V216.659H84.2355C84.531 217.136 85.0991 218.182 86.781 218.182C88.9628 218.182 90.4855 216.432 90.4855 213.659C90.4855 210.909 88.9628 209.159 86.7582 209.159C85.0537 209.159 84.531 210.205 84.2355 210.659H84.1219V206.364H82.781V218ZM84.0991 213.636C84.0991 211.682 84.9628 210.364 86.5991 210.364C88.3037 210.364 89.1446 211.795 89.1446 213.636C89.1446 215.5 88.281 216.977 86.5991 216.977C84.9855 216.977 84.0991 215.614 84.0991 213.636ZM92.4366 218H93.7776V212.477C93.7776 211.295 94.7094 210.432 95.9821 210.432C96.3401 210.432 96.7094 210.5 96.8003 210.523V209.159C96.6469 209.148 96.2946 209.136 96.0957 209.136C95.0503 209.136 94.1412 209.727 93.823 210.591H93.7321V209.273H92.4366V218ZM99.6307 206.364H98.2898V218H99.6307V206.364ZM101.987 218H103.328V209.273H101.987V218ZM102.668 207.818C103.191 207.818 103.623 207.409 103.623 206.909C103.623 206.409 103.191 206 102.668 206C102.146 206 101.714 206.409 101.714 206.909C101.714 207.409 102.146 207.818 102.668 207.818ZM110.265 218H111.561V216.659H111.72C112.015 217.136 112.584 218.182 114.265 218.182C116.447 218.182 117.97 216.432 117.97 213.659C117.97 210.909 116.447 209.159 114.243 209.159C112.538 209.159 112.015 210.205 111.72 210.659H111.606V206.364H110.265V218ZM111.584 213.636C111.584 211.682 112.447 210.364 114.084 210.364C115.788 210.364 116.629 211.795 116.629 213.636C116.629 215.5 115.765 216.977 114.084 216.977C112.47 216.977 111.584 215.614 111.584 213.636ZM123.466 218.182C125.83 218.182 127.421 216.386 127.421 213.682C127.421 210.955 125.83 209.159 123.466 209.159C121.103 209.159 119.512 210.955 119.512 213.682C119.512 216.386 121.103 218.182 123.466 218.182ZM123.466 216.977C121.671 216.977 120.853 215.432 120.853 213.682C120.853 211.932 121.671 210.364 123.466 210.364C125.262 210.364 126.08 211.932 126.08 213.682C126.08 215.432 125.262 216.977 123.466 216.977ZM130.55 206.364H129.277V207.409C129.277 208.25 128.868 208.977 128.391 209.659L129.118 210.25C130.027 209.523 130.55 208.318 130.55 207.386V206.364ZM133.562 206.364H132.221V218H133.562V206.364ZM135.918 218H137.259V209.273H135.918V218ZM136.6 207.818C137.122 207.818 137.554 207.409 137.554 206.909C137.554 206.409 137.122 206 136.6 206C136.077 206 135.645 206.409 135.645 206.909C135.645 207.409 136.077 207.818 136.6 207.818ZM145.797 211.227C145.376 209.989 144.433 209.159 142.706 209.159C140.865 209.159 139.501 210.205 139.501 211.682C139.501 212.886 140.217 213.693 141.819 214.068L143.274 214.409C144.155 214.614 144.569 215.034 144.569 215.636C144.569 216.386 143.774 217 142.524 217C141.427 217 140.74 216.528 140.501 215.591L139.228 215.909C139.541 217.392 140.762 218.182 142.547 218.182C144.575 218.182 145.956 217.074 145.956 215.568C145.956 214.352 145.194 213.585 143.637 213.205L142.342 212.886C141.308 212.631 140.842 212.284 140.842 211.614C140.842 210.864 141.637 210.318 142.706 210.318C143.876 210.318 144.359 210.966 144.592 211.568L145.797 211.227ZM149.215 212.75C149.215 211.227 150.187 210.364 151.511 210.364C152.772 210.364 153.533 211.159 153.533 212.545V218H154.874V212.455C154.874 210.21 153.681 209.159 151.897 209.159C150.522 209.159 149.738 209.733 149.329 210.636H149.215V206.364H147.874V218H149.215V212.75ZM158.568 212.75C158.568 211.227 159.511 210.364 160.795 210.364C162.04 210.364 162.795 211.176 162.795 212.545V218H164.136V212.455C164.136 210.227 162.949 209.159 161.182 209.159C159.864 209.159 159.045 209.75 158.636 210.636H158.523V209.273H157.227V218H158.568V212.75ZM166.487 218H167.828V209.273H166.487V218ZM167.168 207.818C167.691 207.818 168.123 207.409 168.123 206.909C168.123 206.409 167.691 206 167.168 206C166.646 206 166.214 206.409 166.214 206.909C166.214 207.409 166.646 207.818 167.168 207.818ZM178.129 218.182C180.493 218.182 182.084 216.386 182.084 213.682C182.084 210.955 180.493 209.159 178.129 209.159C175.765 209.159 174.174 210.955 174.174 213.682C174.174 216.386 175.765 218.182 178.129 218.182ZM178.129 216.977C176.334 216.977 175.515 215.432 175.515 213.682C175.515 211.932 176.334 210.364 178.129 210.364C179.924 210.364 180.743 211.932 180.743 213.682C180.743 215.432 179.924 216.977 178.129 216.977ZM185.212 206.364H183.939V207.409C183.939 208.25 183.53 208.977 183.053 209.659L183.78 210.25C184.689 209.523 185.212 208.318 185.212 207.386V206.364ZM186.54 218H187.881V212.477C187.881 211.295 188.812 210.432 190.085 210.432C190.443 210.432 190.812 210.5 190.903 210.523V209.159C190.75 209.148 190.398 209.136 190.199 209.136C189.153 209.136 188.244 209.727 187.926 210.591H187.835V209.273H186.54V218ZM195.65 221.455C197.741 221.455 199.423 220.5 199.423 218.25V209.273H198.127V210.659H197.991C197.695 210.205 197.15 209.159 195.445 209.159C193.241 209.159 191.718 210.909 191.718 213.591C191.718 216.318 193.309 217.864 195.423 217.864C197.127 217.864 197.673 216.864 197.968 216.386H198.082V218.159C198.082 219.614 197.059 220.273 195.65 220.273C194.065 220.273 193.508 219.438 193.15 218.955L192.082 219.705C192.627 220.619 193.701 221.455 195.65 221.455ZM195.605 216.659C193.923 216.659 193.059 215.386 193.059 213.568C193.059 211.795 193.9 210.364 195.605 210.364C197.241 210.364 198.105 211.682 198.105 213.568C198.105 215.5 197.218 216.659 195.605 216.659ZM204.345 218.205C205.868 218.205 206.664 217.386 206.936 216.818H207.005V218H208.345V212.25C208.345 209.477 206.232 209.159 205.118 209.159C203.8 209.159 202.3 209.614 201.618 211.205L202.891 211.659C203.186 211.023 203.885 210.341 205.164 210.341C206.397 210.341 207.005 210.994 207.005 212.114V212.159C207.005 212.807 206.345 212.75 204.755 212.955C203.135 213.165 201.368 213.523 201.368 215.523C201.368 217.227 202.686 218.205 204.345 218.205ZM204.55 217C203.482 217 202.709 216.523 202.709 215.591C202.709 214.568 203.641 214.25 204.686 214.114C205.255 214.045 206.777 213.886 207.005 213.614V214.841C207.005 215.932 206.141 217 204.55 217ZM212.034 212.75C212.034 211.227 212.977 210.364 214.261 210.364C215.505 210.364 216.261 211.176 216.261 212.545V218H217.602V212.455C217.602 210.227 216.414 209.159 214.647 209.159C213.329 209.159 212.511 209.75 212.102 210.636H211.988V209.273H210.693V218H212.034V212.75ZM222.52 218.205C224.043 218.205 224.839 217.386 225.111 216.818H225.18V218H226.52V212.25C226.52 209.477 224.407 209.159 223.293 209.159C221.975 209.159 220.475 209.614 219.793 211.205L221.066 211.659C221.361 211.023 222.06 210.341 223.339 210.341C224.572 210.341 225.18 210.994 225.18 212.114V212.159C225.18 212.807 224.52 212.75 222.93 212.955C221.31 213.165 219.543 213.523 219.543 215.523C219.543 217.227 220.861 218.205 222.52 218.205ZM222.725 217C221.657 217 220.884 216.523 220.884 215.591C220.884 214.568 221.816 214.25 222.861 214.114C223.43 214.045 224.952 213.886 225.18 213.614V214.841C225.18 215.932 224.316 217 222.725 217ZM235.05 211.227C234.629 209.989 233.686 209.159 231.959 209.159C230.118 209.159 228.754 210.205 228.754 211.682C228.754 212.886 229.47 213.693 231.072 214.068L232.527 214.409C233.408 214.614 233.822 215.034 233.822 215.636C233.822 216.386 233.027 217 231.777 217C230.68 217 229.993 216.528 229.754 215.591L228.482 215.909C228.794 217.392 230.016 218.182 231.8 218.182C233.828 218.182 235.209 217.074 235.209 215.568C235.209 214.352 234.447 213.585 232.891 213.205L231.595 212.886C230.561 212.631 230.095 212.284 230.095 211.614C230.095 210.864 230.891 210.318 231.959 210.318C233.129 210.318 233.612 210.966 233.845 211.568L235.05 211.227ZM237.127 218H238.468V209.273H237.127V218ZM237.809 207.818C238.332 207.818 238.764 207.409 238.764 206.909C238.764 206.409 238.332 206 237.809 206C237.286 206 236.855 206.409 236.855 206.909C236.855 207.409 237.286 207.818 237.809 207.818ZM240.574 218H247.415V216.75H242.438V216.659L247.256 210.341V209.273H240.733V210.523H245.529V210.614L240.574 216.977V218Z" fill="black"/>
<circle cx="32.5" cy="212.5" r="5.5" fill="#C4C4C4"/>
<path d="M53.4091 148.364L57.6136 155.205V160H59.0227V155.205L63.2273 148.364H61.6136L58.3864 153.795H58.25L55.0227 148.364H53.4091ZM66.1955 160.205C67.7182 160.205 68.5136 159.386 68.7864 158.818H68.8545V160H70.1955V154.25C70.1955 151.477 68.0818 151.159 66.9682 151.159C65.65 151.159 64.15 151.614 63.4682 153.205L64.7409 153.659C65.0364 153.023 65.7352 152.341 67.0136 152.341C68.2466 152.341 68.8545 152.994 68.8545 154.114V154.159C68.8545 154.807 68.1955 154.75 66.6045 154.955C64.9852 155.165 63.2182 155.523 63.2182 157.523C63.2182 159.227 64.5364 160.205 66.1955 160.205ZM66.4 159C65.3318 159 64.5591 158.523 64.5591 157.591C64.5591 156.568 65.4909 156.25 66.5364 156.114C67.1045 156.045 68.6273 155.886 68.8545 155.614V156.841C68.8545 157.932 67.9909 159 66.4 159ZM73.5429 151.273H71.9974L74.7702 155.636L71.9974 160H73.5429L75.6338 156.614L77.7247 160H79.2702L76.452 155.636L79.2702 151.273H77.7247L75.6338 154.841L73.5429 151.273ZM87.2653 153.227C86.8449 151.989 85.9017 151.159 84.1744 151.159C82.3335 151.159 80.9699 152.205 80.9699 153.682C80.9699 154.886 81.6858 155.693 83.2881 156.068L84.7426 156.409C85.6233 156.614 86.0381 157.034 86.0381 157.636C86.0381 158.386 85.2426 159 83.9926 159C82.896 159 82.2085 158.528 81.9699 157.591L80.6972 157.909C81.0097 159.392 82.2313 160.182 84.0153 160.182C86.0438 160.182 87.4244 159.074 87.4244 157.568C87.4244 156.352 86.6631 155.585 85.1063 155.205L83.8108 154.886C82.7767 154.631 82.3108 154.284 82.3108 153.614C82.3108 152.864 83.1063 152.318 84.1744 152.318C85.3449 152.318 85.8278 152.966 86.0608 153.568L87.2653 153.227ZM90.6838 154.75C90.6838 153.227 91.6554 152.364 92.9793 152.364C94.2406 152.364 95.002 153.159 95.002 154.545V160H96.3429V154.455C96.3429 152.21 95.1497 151.159 93.3656 151.159C91.9906 151.159 91.2065 151.733 90.7974 152.636H90.6838V148.364H89.3429V160H90.6838V154.75ZM98.696 160H100.037V151.273H98.696V160ZM99.3778 149.818C99.9006 149.818 100.332 149.409 100.332 148.909C100.332 148.409 99.9006 148 99.3778 148C98.8551 148 98.4233 148.409 98.4233 148.909C98.4233 149.409 98.8551 149.818 99.3778 149.818ZM110.088 160.182C111.77 160.182 112.338 159.136 112.634 158.659H112.793V160H114.088V148.364H112.747V152.659H112.634C112.338 152.205 111.816 151.159 110.111 151.159C107.907 151.159 106.384 152.909 106.384 155.659C106.384 158.432 107.907 160.182 110.088 160.182ZM110.27 158.977C108.588 158.977 107.725 157.5 107.725 155.636C107.725 153.795 108.566 152.364 110.27 152.364C111.907 152.364 112.77 153.682 112.77 155.636C112.77 157.614 111.884 158.977 110.27 158.977ZM119.199 160.205C120.721 160.205 121.517 159.386 121.789 158.818H121.858V160H123.199V154.25C123.199 151.477 121.085 151.159 119.971 151.159C118.653 151.159 117.153 151.614 116.471 153.205L117.744 153.659C118.039 153.023 118.738 152.341 120.017 152.341C121.25 152.341 121.858 152.994 121.858 154.114V154.159C121.858 154.807 121.199 154.75 119.608 154.955C117.988 155.165 116.221 155.523 116.221 157.523C116.221 159.227 117.539 160.205 119.199 160.205ZM119.403 159C118.335 159 117.562 158.523 117.562 157.591C117.562 156.568 118.494 156.25 119.539 156.114C120.108 156.045 121.63 155.886 121.858 155.614V156.841C121.858 157.932 120.994 159 119.403 159ZM125.546 160H126.887V154.477C126.887 153.295 127.819 152.432 129.091 152.432C129.449 152.432 129.819 152.5 129.91 152.523V151.159C129.756 151.148 129.404 151.136 129.205 151.136C128.16 151.136 127.251 151.727 126.932 152.591H126.841V151.273H125.546V160ZM134.679 160.182C137.043 160.182 138.634 158.386 138.634 155.682C138.634 152.955 137.043 151.159 134.679 151.159C132.315 151.159 130.724 152.955 130.724 155.682C130.724 158.386 132.315 160.182 134.679 160.182ZM134.679 158.977C132.884 158.977 132.065 157.432 132.065 155.682C132.065 153.932 132.884 152.364 134.679 152.364C136.474 152.364 137.293 153.932 137.293 155.682C137.293 157.432 136.474 158.977 134.679 158.977ZM140.58 160H141.921V154.545C141.921 153.267 142.853 152.364 143.899 152.364C144.916 152.364 145.626 153.028 145.626 154.023V160H146.989V154.318C146.989 153.193 147.694 152.364 148.921 152.364C149.876 152.364 150.694 152.869 150.694 154.159V160H152.035V154.159C152.035 152.108 150.933 151.159 149.376 151.159C148.126 151.159 147.211 151.733 146.762 152.636H146.671C146.239 151.705 145.478 151.159 144.33 151.159C143.194 151.159 142.353 151.705 141.989 152.636H141.876V151.273H140.58V160ZM156.955 160.205C158.478 160.205 159.273 159.386 159.546 158.818H159.614V160H160.955V154.25C160.955 151.477 158.841 151.159 157.728 151.159C156.409 151.159 154.909 151.614 154.228 153.205L155.5 153.659C155.796 153.023 156.495 152.341 157.773 152.341C159.006 152.341 159.614 152.994 159.614 154.114V154.159C159.614 154.807 158.955 154.75 157.364 154.955C155.745 155.165 153.978 155.523 153.978 157.523C153.978 159.227 155.296 160.205 156.955 160.205ZM157.159 159C156.091 159 155.318 158.523 155.318 157.591C155.318 156.568 156.25 156.25 157.296 156.114C157.864 156.045 159.387 155.886 159.614 155.614V156.841C159.614 157.932 158.75 159 157.159 159ZM166.598 160.182C168.28 160.182 168.848 159.136 169.143 158.659H169.302V160H170.598V148.364H169.257V152.659H169.143C168.848 152.205 168.325 151.159 166.62 151.159C164.416 151.159 162.893 152.909 162.893 155.659C162.893 158.432 164.416 160.182 166.598 160.182ZM166.78 158.977C165.098 158.977 164.234 157.5 164.234 155.636C164.234 153.795 165.075 152.364 166.78 152.364C168.416 152.364 169.28 153.682 169.28 155.636C169.28 157.614 168.393 158.977 166.78 158.977ZM177.54 160H178.881V156.733L179.818 155.864L183.085 160H184.79L180.83 155L184.517 151.273H182.858L179.04 155.159H178.881V148.364H177.54V160ZM189.329 160.182C191.693 160.182 193.284 158.386 193.284 155.682C193.284 152.955 191.693 151.159 189.329 151.159C186.965 151.159 185.374 152.955 185.374 155.682C185.374 158.386 186.965 160.182 189.329 160.182ZM189.329 158.977C187.534 158.977 186.715 157.432 186.715 155.682C186.715 153.932 187.534 152.364 189.329 152.364C191.124 152.364 191.943 153.932 191.943 155.682C191.943 157.432 191.124 158.977 189.329 158.977ZM196.412 148.364H195.139V149.409C195.139 150.25 194.73 150.977 194.253 151.659L194.98 152.25C195.889 151.523 196.412 150.318 196.412 149.386V148.364ZM197.74 160H199.081V154.477C199.081 153.295 200.012 152.432 201.285 152.432C201.643 152.432 202.012 152.5 202.103 152.523V151.159C201.95 151.148 201.598 151.136 201.399 151.136C200.353 151.136 199.444 151.727 199.126 152.591H199.035V151.273H197.74V160ZM206.161 160.205C207.684 160.205 208.479 159.386 208.752 158.818H208.82V160H210.161V154.25C210.161 151.477 208.047 151.159 206.934 151.159C205.616 151.159 204.116 151.614 203.434 153.205L204.707 153.659C205.002 153.023 205.701 152.341 206.979 152.341C208.212 152.341 208.82 152.994 208.82 154.114V154.159C208.82 154.807 208.161 154.75 206.57 154.955C204.951 155.165 203.184 155.523 203.184 157.523C203.184 159.227 204.502 160.205 206.161 160.205ZM206.366 159C205.297 159 204.525 158.523 204.525 157.591C204.525 156.568 205.457 156.25 206.502 156.114C207.07 156.045 208.593 155.886 208.82 155.614V156.841C208.82 157.932 207.957 159 206.366 159ZM215.804 160.182C217.486 160.182 218.054 159.136 218.349 158.659H218.509V160H219.804V148.364H218.463V152.659H218.349C218.054 152.205 217.531 151.159 215.827 151.159C213.622 151.159 212.099 152.909 212.099 155.659C212.099 158.432 213.622 160.182 215.804 160.182ZM215.986 158.977C214.304 158.977 213.44 157.5 213.44 155.636C213.44 153.795 214.281 152.364 215.986 152.364C217.622 152.364 218.486 153.682 218.486 155.636C218.486 157.614 217.599 158.977 215.986 158.977ZM222.346 160H223.687V151.273H222.346V160ZM223.028 149.818C223.551 149.818 223.982 149.409 223.982 148.909C223.982 148.409 223.551 148 223.028 148C222.505 148 222.073 148.409 222.073 148.909C222.073 149.409 222.505 149.818 223.028 149.818Z" fill="black"/>
<circle cx="32.5" cy="154.5" r="5.5" fill="#C4C4C4"/>
<path d="M64.2273 241.182C64.2273 237.5 62.0682 235.205 59.0909 235.205C56.1136 235.205 53.9545 237.5 53.9545 241.182C53.9545 244.864 56.1136 247.159 59.0909 247.159C62.0682 247.159 64.2273 244.864 64.2273 241.182ZM62.8636 241.182C62.8636 244.205 61.2045 245.841 59.0909 245.841C56.9773 245.841 55.3182 244.205 55.3182 241.182C55.3182 238.159 56.9773 236.523 59.0909 236.523C61.2045 236.523 62.8636 238.159 62.8636 241.182ZM69.6102 247.182C71.292 247.182 71.8602 246.136 72.1557 245.659H72.3148V247H73.6102V235.364H72.2693V239.659H72.1557C71.8602 239.205 71.3375 238.159 69.633 238.159C67.4284 238.159 65.9057 239.909 65.9057 242.659C65.9057 245.432 67.4284 247.182 69.6102 247.182ZM69.792 245.977C68.1102 245.977 67.2466 244.5 67.2466 242.636C67.2466 240.795 68.0875 239.364 69.792 239.364C71.4284 239.364 72.292 240.682 72.292 242.636C72.292 244.614 71.4057 245.977 69.792 245.977ZM78.7205 247.205C80.2432 247.205 81.0386 246.386 81.3114 245.818H81.3795V247H82.7205V241.25C82.7205 238.477 80.6068 238.159 79.4932 238.159C78.175 238.159 76.675 238.614 75.9932 240.205L77.2659 240.659C77.5614 240.023 78.2602 239.341 79.5386 239.341C80.7716 239.341 81.3795 239.994 81.3795 241.114V241.159C81.3795 241.807 80.7205 241.75 79.1295 241.955C77.5102 242.165 75.7432 242.523 75.7432 244.523C75.7432 246.227 77.0614 247.205 78.7205 247.205ZM78.925 246C77.8568 246 77.0841 245.523 77.0841 244.591C77.0841 243.568 78.0159 243.25 79.0614 243.114C79.6295 243.045 81.1523 242.886 81.3795 242.614V243.841C81.3795 244.932 80.5159 246 78.925 246ZM85.0679 247H86.4088V241.545C86.4088 240.267 87.3406 239.364 88.3861 239.364C89.4031 239.364 90.1134 240.028 90.1134 241.023V247H91.477V241.318C91.477 240.193 92.1815 239.364 93.4088 239.364C94.3634 239.364 95.1815 239.869 95.1815 241.159V247H96.5224V241.159C96.5224 239.108 95.4202 238.159 93.8634 238.159C92.6134 238.159 91.6986 238.733 91.2497 239.636H91.1588C90.727 238.705 89.9656 238.159 88.8179 238.159C87.6815 238.159 86.8406 238.705 86.477 239.636H86.3634V238.273H85.0679V247ZM100.215 235.364H98.8741V247H100.215V235.364ZM105.139 247.205C106.662 247.205 107.457 246.386 107.73 245.818H107.798V247H109.139V241.25C109.139 238.477 107.026 238.159 105.912 238.159C104.594 238.159 103.094 238.614 102.412 240.205L103.685 240.659C103.98 240.023 104.679 239.341 105.957 239.341C107.19 239.341 107.798 239.994 107.798 241.114V241.159C107.798 241.807 107.139 241.75 105.548 241.955C103.929 242.165 102.162 242.523 102.162 244.523C102.162 246.227 103.48 247.205 105.139 247.205ZM105.344 246C104.276 246 103.503 245.523 103.503 244.591C103.503 243.568 104.435 243.25 105.48 243.114C106.048 243.045 107.571 242.886 107.798 242.614V243.841C107.798 244.932 106.935 246 105.344 246ZM111.487 247H112.828V241.477C112.828 240.295 113.759 239.432 115.032 239.432C115.39 239.432 115.759 239.5 115.85 239.523V238.159C115.697 238.148 115.345 238.136 115.146 238.136C114.1 238.136 113.191 238.727 112.873 239.591H112.782V238.273H111.487V247ZM127.922 240.227C127.501 238.989 126.558 238.159 124.831 238.159C122.99 238.159 121.626 239.205 121.626 240.682C121.626 241.886 122.342 242.693 123.944 243.068L125.399 243.409C126.28 243.614 126.694 244.034 126.694 244.636C126.694 245.386 125.899 246 124.649 246C123.552 246 122.865 245.528 122.626 244.591L121.353 244.909C121.666 246.392 122.887 247.182 124.672 247.182C126.7 247.182 128.081 246.074 128.081 244.568C128.081 243.352 127.319 242.585 125.762 242.205L124.467 241.886C123.433 241.631 122.967 241.284 122.967 240.614C122.967 239.864 123.762 239.318 124.831 239.318C126.001 239.318 126.484 239.966 126.717 240.568L127.922 240.227ZM129.999 247H131.34V238.273H129.999V247ZM130.681 236.818C131.204 236.818 131.636 236.409 131.636 235.909C131.636 235.409 131.204 235 130.681 235C130.158 235 129.726 235.409 129.726 235.909C129.726 236.409 130.158 236.818 130.681 236.818ZM133.446 247H140.287V245.75H135.31V245.659L140.128 239.341V238.273H133.605V239.523H138.401V239.614L133.446 245.977V247ZM145.298 247.182C146.98 247.182 147.548 246.136 147.843 245.659H148.002V247H149.298V235.364H147.957V239.659H147.843C147.548 239.205 147.025 238.159 145.32 238.159C143.116 238.159 141.593 239.909 141.593 242.659C141.593 245.432 143.116 247.182 145.298 247.182ZM145.48 245.977C143.798 245.977 142.934 244.5 142.934 242.636C142.934 240.795 143.775 239.364 145.48 239.364C147.116 239.364 147.98 240.682 147.98 242.636C147.98 244.614 147.093 245.977 145.48 245.977ZM154.408 247.205C155.931 247.205 156.726 246.386 156.999 245.818H157.067V247H158.408V241.25C158.408 238.477 156.294 238.159 155.181 238.159C153.863 238.159 152.363 238.614 151.681 240.205L152.953 240.659C153.249 240.023 153.948 239.341 155.226 239.341C156.459 239.341 157.067 239.994 157.067 241.114V241.159C157.067 241.807 156.408 241.75 154.817 241.955C153.198 242.165 151.431 242.523 151.431 244.523C151.431 246.227 152.749 247.205 154.408 247.205ZM154.613 246C153.544 246 152.772 245.523 152.772 244.591C152.772 243.568 153.703 243.25 154.749 243.114C155.317 243.045 156.84 242.886 157.067 242.614V243.841C157.067 244.932 156.203 246 154.613 246ZM162.096 241.75C162.096 240.227 163.039 239.364 164.324 239.364C165.568 239.364 166.324 240.176 166.324 241.545V247H167.664V241.455C167.664 239.227 166.477 238.159 164.71 238.159C163.392 238.159 162.574 238.75 162.164 239.636H162.051V238.273H160.755V247H162.096V241.75ZM174.415 247H175.756V241.545C175.756 240.267 176.688 239.364 177.733 239.364C178.75 239.364 179.46 240.028 179.46 241.023V247H180.824V241.318C180.824 240.193 181.528 239.364 182.756 239.364C183.71 239.364 184.528 239.869 184.528 241.159V247H185.869V241.159C185.869 239.108 184.767 238.159 183.21 238.159C181.96 238.159 181.045 238.733 180.597 239.636H180.506C180.074 238.705 179.312 238.159 178.165 238.159C177.028 238.159 176.188 238.705 175.824 239.636H175.71V238.273H174.415V247ZM188.221 247H189.562V238.273H188.221V247ZM188.903 236.818C189.426 236.818 189.857 236.409 189.857 235.909C189.857 235.409 189.426 235 188.903 235C188.38 235 187.948 235.409 187.948 235.909C187.948 236.409 188.38 236.818 188.903 236.818ZM193.259 241.75C193.259 240.227 194.202 239.364 195.486 239.364C196.73 239.364 197.486 240.176 197.486 241.545V247H198.827V241.455C198.827 239.227 197.639 238.159 195.872 238.159C194.554 238.159 193.736 238.75 193.327 239.636H193.213V238.273H191.918V247H193.259V241.75ZM202.518 241.75C202.518 240.227 203.461 239.364 204.745 239.364C205.99 239.364 206.745 240.176 206.745 241.545V247H208.086V241.455C208.086 239.227 206.899 238.159 205.132 238.159C203.814 238.159 202.995 238.75 202.586 239.636H202.473V238.273H201.177V247H202.518V241.75ZM213.005 247.205C214.528 247.205 215.323 246.386 215.596 245.818H215.664V247H217.005V241.25C217.005 238.477 214.891 238.159 213.778 238.159C212.459 238.159 210.959 238.614 210.278 240.205L211.55 240.659C211.846 240.023 212.545 239.341 213.823 239.341C215.056 239.341 215.664 239.994 215.664 241.114V241.159C215.664 241.807 215.005 241.75 213.414 241.955C211.795 242.165 210.028 242.523 210.028 244.523C210.028 246.227 211.346 247.205 213.005 247.205ZM213.209 246C212.141 246 211.368 245.523 211.368 244.591C211.368 243.568 212.3 243.25 213.346 243.114C213.914 243.045 215.437 242.886 215.664 242.614V243.841C215.664 244.932 214.8 246 213.209 246ZM223.148 238.273H221.284V236.182H219.943V238.273H218.625V239.409H219.943V244.864C219.943 246.386 221.17 247.114 222.307 247.114C222.807 247.114 223.125 247.023 223.307 246.955L223.034 245.75C222.92 245.773 222.739 245.818 222.443 245.818C221.852 245.818 221.284 245.636 221.284 244.5V239.409H223.148V238.273ZM228.266 247.182C229.948 247.182 230.516 246.136 230.812 245.659H230.971V247H232.266V235.364H230.926V239.659H230.812C230.516 239.205 229.994 238.159 228.289 238.159C226.085 238.159 224.562 239.909 224.562 242.659C224.562 245.432 226.085 247.182 228.266 247.182ZM228.448 245.977C226.766 245.977 225.903 244.5 225.903 242.636C225.903 240.795 226.744 239.364 228.448 239.364C230.085 239.364 230.948 240.682 230.948 242.636C230.948 244.614 230.062 245.977 228.448 245.977ZM238.354 247.182C240.718 247.182 242.309 245.386 242.309 242.682C242.309 239.955 240.718 238.159 238.354 238.159C235.99 238.159 234.399 239.955 234.399 242.682C234.399 245.386 235.99 247.182 238.354 247.182ZM238.354 245.977C236.559 245.977 235.74 244.432 235.74 242.682C235.74 240.932 236.559 239.364 238.354 239.364C240.149 239.364 240.968 240.932 240.968 242.682C240.968 244.432 240.149 245.977 238.354 245.977ZM244.255 247H245.596V241.477C245.596 240.295 246.528 239.432 247.801 239.432C248.159 239.432 248.528 239.5 248.619 239.523V238.159C248.466 238.148 248.113 238.136 247.914 238.136C246.869 238.136 245.96 238.727 245.642 239.591H245.551V238.273H244.255V247ZM254.69 247H255.986V245.659H256.145C256.44 246.136 257.009 247.182 258.69 247.182C260.872 247.182 262.395 245.432 262.395 242.659C262.395 239.909 260.872 238.159 258.668 238.159C256.963 238.159 256.44 239.205 256.145 239.659H256.031V235.364H254.69V247ZM256.009 242.636C256.009 240.682 256.872 239.364 258.509 239.364C260.213 239.364 261.054 240.795 261.054 242.636C261.054 244.5 260.19 245.977 258.509 245.977C256.895 245.977 256.009 244.614 256.009 242.636ZM267.891 247.182C270.255 247.182 271.846 245.386 271.846 242.682C271.846 239.955 270.255 238.159 267.891 238.159C265.528 238.159 263.937 239.955 263.937 242.682C263.937 245.386 265.528 247.182 267.891 247.182ZM267.891 245.977C266.096 245.977 265.278 244.432 265.278 242.682C265.278 240.932 266.096 239.364 267.891 239.364C269.687 239.364 270.505 240.932 270.505 242.682C270.505 244.432 269.687 245.977 267.891 245.977ZM274.975 235.364H273.702V236.409C273.702 237.25 273.293 237.977 272.816 238.659L273.543 239.25C274.452 238.523 274.975 237.318 274.975 236.386V235.364ZM277.987 235.364H276.646V247H277.987V235.364ZM282.911 247.205C284.434 247.205 285.229 246.386 285.502 245.818H285.57V247H286.911V241.25C286.911 238.477 284.797 238.159 283.684 238.159C282.366 238.159 280.866 238.614 280.184 240.205L281.457 240.659C281.752 240.023 282.451 239.341 283.729 239.341C284.962 239.341 285.57 239.994 285.57 241.114V241.159C285.57 241.807 284.911 241.75 283.32 241.955C281.701 242.165 279.934 242.523 279.934 244.523C279.934 246.227 281.252 247.205 282.911 247.205ZM283.116 246C282.047 246 281.275 245.523 281.275 244.591C281.275 243.568 282.207 243.25 283.252 243.114C283.82 243.045 285.343 242.886 285.57 242.614V243.841C285.57 244.932 284.707 246 283.116 246ZM292.554 247.182C294.236 247.182 294.804 246.136 295.099 245.659H295.259V247H296.554V235.364H295.213V239.659H295.099C294.804 239.205 294.281 238.159 292.577 238.159C290.372 238.159 288.849 239.909 288.849 242.659C288.849 245.432 290.372 247.182 292.554 247.182ZM292.736 245.977C291.054 245.977 290.19 244.5 290.19 242.636C290.19 240.795 291.031 239.364 292.736 239.364C294.372 239.364 295.236 240.682 295.236 242.636C295.236 244.614 294.349 245.977 292.736 245.977ZM299.096 247H300.437V238.273H299.096V247ZM299.778 236.818C300.301 236.818 300.732 236.409 300.732 235.909C300.732 235.409 300.301 235 299.778 235C299.255 235 298.823 235.409 298.823 235.909C298.823 236.409 299.255 236.818 299.778 236.818Z" fill="black"/>
<circle cx="32.5" cy="241.5" r="5.5" fill="#C4C4C4"/>
<path d="M53.7727 178.614H57.4318V189H58.8409V178.614H62.5V177.364H53.7727V178.614ZM68.7054 185.432C68.7054 187.068 67.4554 187.818 66.4554 187.818C65.3418 187.818 64.5463 187 64.5463 185.727V180.273H63.2054V185.818C63.2054 188.045 64.3872 189.114 66.0236 189.114C67.3418 189.114 68.2054 188.409 68.6145 187.523H68.7054V189H70.0463V180.273H68.7054V185.432ZM72.4023 189H73.7432V183.477C73.7432 182.295 74.675 181.432 75.9477 181.432C76.3057 181.432 76.675 181.5 76.7659 181.523V180.159C76.6125 180.148 76.2602 180.136 76.0614 180.136C75.0159 180.136 74.1068 180.727 73.7886 181.591H73.6977V180.273H72.4023V189ZM79.5963 177.364H78.2554V189H79.5963V177.364ZM81.9523 189H83.2932V180.273H81.9523V189ZM82.6341 178.818C83.1568 178.818 83.5886 178.409 83.5886 177.909C83.5886 177.409 83.1568 177 82.6341 177C82.1114 177 81.6795 177.409 81.6795 177.909C81.6795 178.409 82.1114 178.818 82.6341 178.818ZM93.3446 189.182C95.0264 189.182 95.5946 188.136 95.8901 187.659H96.0491V189H97.3446V177.364H96.0037V181.659H95.8901C95.5946 181.205 95.0719 180.159 93.3673 180.159C91.1628 180.159 89.6401 181.909 89.6401 184.659C89.6401 187.432 91.1628 189.182 93.3446 189.182ZM93.5264 187.977C91.8446 187.977 90.981 186.5 90.981 184.636C90.981 182.795 91.8219 181.364 93.5264 181.364C95.1628 181.364 96.0264 182.682 96.0264 184.636C96.0264 186.614 95.1401 187.977 93.5264 187.977ZM102.455 189.205C103.978 189.205 104.773 188.386 105.046 187.818H105.114V189H106.455V183.25C106.455 180.477 104.341 180.159 103.228 180.159C101.909 180.159 100.409 180.614 99.7276 182.205L101 182.659C101.296 182.023 101.995 181.341 103.273 181.341C104.506 181.341 105.114 181.994 105.114 183.114V183.159C105.114 183.807 104.455 183.75 102.864 183.955C101.245 184.165 99.4776 184.523 99.4776 186.523C99.4776 188.227 100.796 189.205 102.455 189.205ZM102.659 188C101.591 188 100.818 187.523 100.818 186.591C100.818 185.568 101.75 185.25 102.796 185.114C103.364 185.045 104.887 184.886 105.114 184.614V185.841C105.114 186.932 104.25 188 102.659 188ZM115.626 180.273H114.172L111.763 187.227H111.672L109.263 180.273H107.808L111.035 189H112.399L115.626 180.273ZM118.637 177.364H117.296V189H118.637V177.364ZM123.561 189.205C125.084 189.205 125.879 188.386 126.152 187.818H126.22V189H127.561V183.25C127.561 180.477 125.447 180.159 124.334 180.159C123.016 180.159 121.516 180.614 120.834 182.205L122.107 182.659C122.402 182.023 123.101 181.341 124.379 181.341C125.612 181.341 126.22 181.994 126.22 183.114V183.159C126.22 183.807 125.561 183.75 123.97 183.955C122.351 184.165 120.584 184.523 120.584 186.523C120.584 188.227 121.902 189.205 123.561 189.205ZM123.766 188C122.697 188 121.925 187.523 121.925 186.591C121.925 185.568 122.857 185.25 123.902 185.114C124.47 185.045 125.993 184.886 126.22 184.614V185.841C126.22 186.932 125.357 188 123.766 188ZM133.704 180.273H131.84V178.182H130.499V180.273H129.181V181.409H130.499V186.864C130.499 188.386 131.727 189.114 132.863 189.114C133.363 189.114 133.681 189.023 133.863 188.955L133.59 187.75C133.477 187.773 133.295 187.818 132.999 187.818C132.409 187.818 131.84 187.636 131.84 186.5V181.409H133.704V180.273ZM137.149 177.364H135.809V189H137.149V177.364ZM142.074 189.205C143.596 189.205 144.392 188.386 144.664 187.818H144.733V189H146.074V183.25C146.074 180.477 143.96 180.159 142.846 180.159C141.528 180.159 140.028 180.614 139.346 182.205L140.619 182.659C140.914 182.023 141.613 181.341 142.892 181.341C144.125 181.341 144.733 181.994 144.733 183.114V183.159C144.733 183.807 144.074 183.75 142.483 183.955C140.863 184.165 139.096 184.523 139.096 186.523C139.096 188.227 140.414 189.205 142.074 189.205ZM142.278 188C141.21 188 140.437 187.523 140.437 186.591C140.437 185.568 141.369 185.25 142.414 185.114C142.983 185.045 144.505 184.886 144.733 184.614V185.841C144.733 186.932 143.869 188 142.278 188ZM148.421 189H149.762V183.477C149.762 182.295 150.694 181.432 151.966 181.432C152.324 181.432 152.694 181.5 152.785 181.523V180.159C152.631 180.148 152.279 180.136 152.08 180.136C151.035 180.136 150.126 180.727 149.807 181.591H149.716V180.273H148.421V189ZM157.304 189.182C158.986 189.182 159.554 188.136 159.849 187.659H160.009V189H161.304V177.364H159.963V181.659H159.849C159.554 181.205 159.031 180.159 157.327 180.159C155.122 180.159 153.599 181.909 153.599 184.659C153.599 187.432 155.122 189.182 157.304 189.182ZM157.486 187.977C155.804 187.977 154.94 186.5 154.94 184.636C154.94 182.795 155.781 181.364 157.486 181.364C159.122 181.364 159.986 182.682 159.986 184.636C159.986 186.614 159.099 187.977 157.486 187.977ZM166.414 189.205C167.937 189.205 168.732 188.386 169.005 187.818H169.073V189H170.414V183.25C170.414 180.477 168.301 180.159 167.187 180.159C165.869 180.159 164.369 180.614 163.687 182.205L164.96 182.659C165.255 182.023 165.954 181.341 167.232 181.341C168.465 181.341 169.073 181.994 169.073 183.114V183.159C169.073 183.807 168.414 183.75 166.823 183.955C165.204 184.165 163.437 184.523 163.437 186.523C163.437 188.227 164.755 189.205 166.414 189.205ZM166.619 188C165.551 188 164.778 187.523 164.778 186.591C164.778 185.568 165.71 185.25 166.755 185.114C167.323 185.045 168.846 184.886 169.073 184.614V185.841C169.073 186.932 168.21 188 166.619 188ZM177.162 189H178.503V183.545C178.503 182.267 179.434 181.364 180.48 181.364C181.497 181.364 182.207 182.028 182.207 183.023V189H183.571V183.318C183.571 182.193 184.275 181.364 185.503 181.364C186.457 181.364 187.275 181.869 187.275 183.159V189H188.616V183.159C188.616 181.108 187.514 180.159 185.957 180.159C184.707 180.159 183.792 180.733 183.343 181.636H183.253C182.821 180.705 182.059 180.159 180.912 180.159C179.775 180.159 178.934 180.705 178.571 181.636H178.457V180.273H177.162V189ZM193.536 189.205C195.059 189.205 195.854 188.386 196.127 187.818H196.195V189H197.536V183.25C197.536 180.477 195.422 180.159 194.309 180.159C192.991 180.159 191.491 180.614 190.809 182.205L192.082 182.659C192.377 182.023 193.076 181.341 194.354 181.341C195.587 181.341 196.195 181.994 196.195 183.114V183.159C196.195 183.807 195.536 183.75 193.945 183.955C192.326 184.165 190.559 184.523 190.559 186.523C190.559 188.227 191.877 189.205 193.536 189.205ZM193.741 188C192.672 188 191.9 187.523 191.9 186.591C191.9 185.568 192.832 185.25 193.877 185.114C194.445 185.045 195.968 184.886 196.195 184.614V185.841C196.195 186.932 195.332 188 193.741 188ZM201.224 177.364H199.884V189H201.224V177.364ZM206.149 189.205C207.671 189.205 208.467 188.386 208.739 187.818H208.808V189H210.149V183.25C210.149 180.477 208.035 180.159 206.921 180.159C205.603 180.159 204.103 180.614 203.421 182.205L204.694 182.659C204.989 182.023 205.688 181.341 206.967 181.341C208.2 181.341 208.808 181.994 208.808 183.114V183.159C208.808 183.807 208.149 183.75 206.558 183.955C204.938 184.165 203.171 184.523 203.171 186.523C203.171 188.227 204.489 189.205 206.149 189.205ZM206.353 188C205.285 188 204.512 187.523 204.512 186.591C204.512 185.568 205.444 185.25 206.489 185.114C207.058 185.045 208.58 184.886 208.808 184.614V185.841C208.808 186.932 207.944 188 206.353 188ZM212.496 189H213.837V185.733L214.774 184.864L218.041 189H219.746L215.786 184L219.473 180.273H217.814L213.996 184.159H213.837V177.364H212.496V189ZM223.667 189.205C225.19 189.205 225.986 188.386 226.258 187.818H226.326V189H227.667V183.25C227.667 180.477 225.554 180.159 224.44 180.159C223.122 180.159 221.622 180.614 220.94 182.205L222.213 182.659C222.508 182.023 223.207 181.341 224.486 181.341C225.718 181.341 226.326 181.994 226.326 183.114V183.159C226.326 183.807 225.667 183.75 224.076 183.955C222.457 184.165 220.69 184.523 220.69 186.523C220.69 188.227 222.008 189.205 223.667 189.205ZM223.872 188C222.804 188 222.031 187.523 222.031 186.591C222.031 185.568 222.963 185.25 224.008 185.114C224.576 185.045 226.099 184.886 226.326 184.614V185.841C226.326 186.932 225.463 188 223.872 188ZM237.96 189.182C240.324 189.182 241.915 187.386 241.915 184.682C241.915 181.955 240.324 180.159 237.96 180.159C235.597 180.159 234.006 181.955 234.006 184.682C234.006 187.386 235.597 189.182 237.96 189.182ZM237.96 187.977C236.165 187.977 235.347 186.432 235.347 184.682C235.347 182.932 236.165 181.364 237.96 181.364C239.756 181.364 240.574 182.932 240.574 184.682C240.574 186.432 239.756 187.977 237.96 187.977ZM250.043 182.227C249.623 180.989 248.68 180.159 246.953 180.159C245.112 180.159 243.748 181.205 243.748 182.682C243.748 183.886 244.464 184.693 246.066 185.068L247.521 185.409C248.401 185.614 248.816 186.034 248.816 186.636C248.816 187.386 248.021 188 246.771 188C245.674 188 244.987 187.528 244.748 186.591L243.475 186.909C243.788 188.392 245.009 189.182 246.793 189.182C248.822 189.182 250.203 188.074 250.203 186.568C250.203 185.352 249.441 184.585 247.884 184.205L246.589 183.886C245.555 183.631 245.089 183.284 245.089 182.614C245.089 181.864 245.884 181.318 246.953 181.318C248.123 181.318 248.606 181.966 248.839 182.568L250.043 182.227ZM253.462 183.75C253.462 182.227 254.434 181.364 255.757 181.364C257.019 181.364 257.78 182.159 257.78 183.545V189H259.121V183.455C259.121 181.21 257.928 180.159 256.144 180.159C254.769 180.159 253.985 180.733 253.576 181.636H253.462V177.364H252.121V189H253.462V183.75ZM261.474 189H262.815V180.273H261.474V189ZM262.156 178.818C262.679 178.818 263.111 178.409 263.111 177.909C263.111 177.409 262.679 177 262.156 177C261.633 177 261.201 177.409 261.201 177.909C261.201 178.409 261.633 178.818 262.156 178.818ZM265.171 189H266.512V183.477C266.512 182.295 267.444 181.432 268.716 181.432C269.074 181.432 269.444 181.5 269.535 181.523V180.159C269.381 180.148 269.029 180.136 268.83 180.136C267.785 180.136 266.876 180.727 266.557 181.591H266.466V180.273H265.171V189ZM273.592 189.205C275.115 189.205 275.911 188.386 276.183 187.818H276.251V189H277.592V183.25C277.592 180.477 275.479 180.159 274.365 180.159C273.047 180.159 271.547 180.614 270.865 182.205L272.138 182.659C272.433 182.023 273.132 181.341 274.411 181.341C275.643 181.341 276.251 181.994 276.251 183.114V183.159C276.251 183.807 275.592 183.75 274.001 183.955C272.382 184.165 270.615 184.523 270.615 186.523C270.615 188.227 271.933 189.205 273.592 189.205ZM273.797 188C272.729 188 271.956 187.523 271.956 186.591C271.956 185.568 272.888 185.25 273.933 185.114C274.501 185.045 276.024 184.886 276.251 184.614V185.841C276.251 186.932 275.388 188 273.797 188ZM286.122 182.227C285.701 180.989 284.758 180.159 283.031 180.159C281.19 180.159 279.826 181.205 279.826 182.682C279.826 183.886 280.542 184.693 282.144 185.068L283.599 185.409C284.48 185.614 284.894 186.034 284.894 186.636C284.894 187.386 284.099 188 282.849 188C281.752 188 281.065 187.528 280.826 186.591L279.553 186.909C279.866 188.392 281.087 189.182 282.872 189.182C284.9 189.182 286.281 188.074 286.281 186.568C286.281 185.352 285.519 184.585 283.962 184.205L282.667 183.886C281.633 183.631 281.167 183.284 281.167 182.614C281.167 181.864 281.962 181.318 283.031 181.318C284.201 181.318 284.684 181.966 284.917 182.568L286.122 182.227ZM288.199 189H289.54V180.273H288.199V189ZM288.881 178.818C289.404 178.818 289.836 178.409 289.836 177.909C289.836 177.409 289.404 177 288.881 177C288.358 177 287.926 177.409 287.926 177.909C287.926 178.409 288.358 178.818 288.881 178.818ZM291.646 189H298.487V187.75H293.51V187.659L298.328 181.341V180.273H291.805V181.523H296.601V181.614L291.646 187.977V189Z" fill="black"/>
<circle cx="32.5" cy="183.5" r="5.5" fill="#C4C4C4"/>
<path fill-rule="evenodd" clip-rule="evenodd" d="M199.833 38.3333C198.453 38.3333 197.333 37.214 197.333 35.8333C197.333 34.4526 198.453 33.3333 199.833 33.3333C201.214 33.3333 202.333 34.4526 202.333 35.8333C202.333 37.214 201.214 38.3333 199.833 38.3333ZM188.167 38.3333C186.786 38.3333 185.667 37.214 185.667 35.8333C185.667 34.4526 186.786 33.3333 188.167 33.3333C189.548 33.3333 190.667 34.4526 190.667 35.8333C190.667 37.214 189.548 38.3333 188.167 38.3333ZM193.983 23.3333C203.2 23.3333 210.667 30.8 210.667 40C210.667 49.2 203.2 56.6666 193.983 56.6666C184.783 56.6666 177.333 49.2 177.333 40C177.333 30.8 184.783 23.3333 193.983 23.3333ZM194 53.3333C201.367 53.3333 207.333 47.3666 207.333 40C207.333 32.6333 201.367 26.6666 194 26.6666C186.633 26.6666 180.667 32.6333 180.667 40C180.667 47.3666 186.633 53.3333 194 53.3333ZM201.35 43.1499C201.933 43.5166 202.117 44.2833 201.75 44.8666C200.05 47.5499 197.167 49.1666 194 49.1666C190.833 49.1666 187.95 47.5666 186.25 44.8499C185.883 44.2666 186.067 43.4999 186.65 43.1333C187.233 42.7666 188 42.9499 188.367 43.5333C189.6 45.4999 191.7 46.6666 194 46.6666C196.3 46.6666 198.4 45.4999 199.633 43.5499C199.983 42.9666 200.767 42.7833 201.35 43.1499Z" fill="#74D272"/>
</svg>
