<svg width="514" height="57" viewBox="0 0 514 57" fill="none" xmlns="http://www.w3.org/2000/svg">
<rect y="25" width="514" height="32" rx="8" fill="#C4C4C4"/>
<rect y="25" width="252" height="32" rx="8" fill="url(#paint0_linear_786_33)"/>
<path d="M15.968 44.336C16.608 44.336 16.928 44.608 16.928 45.152C16.928 45.7173 16.608 46 15.968 46H9.888C9.61067 46 9.392 45.92 9.232 45.76C9.072 45.5893 8.992 45.3813 8.992 45.136C8.992 44.816 9.11467 44.528 9.36 44.272L13.008 40.352C13.456 39.8613 13.7813 39.4133 13.984 39.008C14.1973 38.592 14.304 38.1813 14.304 37.776C14.304 37.2747 14.16 36.8907 13.872 36.624C13.584 36.3573 13.1733 36.224 12.64 36.224C12.2027 36.224 11.776 36.3093 11.36 36.48C10.9547 36.64 10.544 36.864 10.128 37.152C10.0213 37.2267 9.91467 37.2907 9.808 37.344C9.70133 37.3867 9.59467 37.408 9.488 37.408C9.30667 37.408 9.14667 37.3227 9.008 37.152C8.88 36.9813 8.816 36.7787 8.816 36.544C8.816 36.384 8.84267 36.2453 8.896 36.128C8.96 36.0107 9.056 35.8987 9.184 35.792C9.65333 35.4187 10.2027 35.1253 10.832 34.912C11.4613 34.688 12.0907 34.576 12.72 34.576C13.8187 34.576 14.6933 34.8533 15.344 35.408C16.0053 35.9627 16.336 36.7093 16.336 37.648C16.336 38.2987 16.1973 38.912 15.92 39.488C15.6427 40.0533 15.1733 40.688 14.512 41.392L11.744 44.336H15.968ZM28.2811 40.208C28.9531 40.3787 29.4651 40.704 29.8171 41.184C30.1798 41.6533 30.3611 42.24 30.3611 42.944C30.3611 43.9147 30.0038 44.688 29.2891 45.264C28.5745 45.84 27.6091 46.128 26.3931 46.128C25.6998 46.128 25.0331 46.0213 24.3931 45.808C23.7531 45.5947 23.2091 45.296 22.7611 44.912C22.5158 44.6987 22.3931 44.448 22.3931 44.16C22.3931 43.9253 22.4571 43.728 22.5851 43.568C22.7238 43.3973 22.8838 43.312 23.0651 43.312C23.1718 43.312 23.2678 43.3333 23.3531 43.376C23.4385 43.408 23.5558 43.4667 23.7051 43.552C24.1531 43.8507 24.5798 44.08 24.9851 44.24C25.3905 44.4 25.8331 44.48 26.3131 44.48C27.0171 44.48 27.5398 44.3413 27.8811 44.064C28.2225 43.776 28.3931 43.344 28.3931 42.768C28.3931 42.2027 28.2118 41.7867 27.8491 41.52C27.4971 41.2427 26.9478 41.104 26.2011 41.104H25.2891C25.0438 41.104 24.8518 41.024 24.7131 40.864C24.5851 40.6933 24.5211 40.5013 24.5211 40.288C24.5211 40.064 24.5851 39.872 24.7131 39.712C24.8518 39.552 25.0438 39.472 25.2891 39.472H25.9291C27.3905 39.472 28.1211 38.9227 28.1211 37.824C28.1211 37.312 27.9665 36.9173 27.6571 36.64C27.3478 36.3627 26.9211 36.224 26.3771 36.224C25.5985 36.224 24.7665 36.5333 23.8811 37.152C23.7318 37.2373 23.6145 37.3013 23.5291 37.344C23.4438 37.376 23.3478 37.392 23.2411 37.392C23.0598 37.392 22.8998 37.312 22.7611 37.152C22.6331 36.9813 22.5691 36.7787 22.5691 36.544C22.5691 36.384 22.5958 36.2507 22.6491 36.144C22.7131 36.0267 22.8091 35.9093 22.9371 35.792C23.3851 35.4187 23.9185 35.1253 24.5371 34.912C25.1665 34.688 25.8065 34.576 26.4571 34.576C27.5665 34.576 28.4465 34.848 29.0971 35.392C29.7585 35.936 30.0891 36.6613 30.0891 37.568C30.0785 38.1867 29.9131 38.7307 29.5931 39.2C29.2838 39.6587 28.8465 39.9947 28.2811 40.208ZM36.0469 46.144C34.7135 46.144 33.6949 45.6533 32.9909 44.672C32.2869 43.68 31.9349 42.24 31.9349 40.352C31.9349 38.4747 32.2869 37.0453 32.9909 36.064C33.6949 35.072 34.7135 34.576 36.0469 34.576C37.3802 34.576 38.3989 35.072 39.1029 36.064C39.8069 37.0453 40.1589 38.4747 40.1589 40.352C40.1589 42.2293 39.8069 43.664 39.1029 44.656C38.3989 45.648 37.3802 46.144 36.0469 46.144ZM36.0469 44.528C36.7722 44.528 37.3002 44.1973 37.6309 43.536C37.9615 42.864 38.1269 41.8027 38.1269 40.352C38.1269 38.8907 37.9615 37.8347 37.6309 37.184C37.3002 36.5227 36.7722 36.192 36.0469 36.192C35.3215 36.192 34.7935 36.5227 34.4629 37.184C34.1322 37.8453 33.9669 38.9013 33.9669 40.352C33.9669 41.8027 34.1322 42.864 34.4629 43.536C34.7935 44.1973 35.3215 44.528 36.0469 44.528ZM45.5406 46.144C44.2073 46.144 43.1886 45.6533 42.4846 44.672C41.7806 43.68 41.4286 42.24 41.4286 40.352C41.4286 38.4747 41.7806 37.0453 42.4846 36.064C43.1886 35.072 44.2073 34.576 45.5406 34.576C46.874 34.576 47.8926 35.072 48.5966 36.064C49.3006 37.0453 49.6526 38.4747 49.6526 40.352C49.6526 42.2293 49.3006 43.664 48.5966 44.656C47.8926 45.648 46.874 46.144 45.5406 46.144ZM45.5406 44.528C46.266 44.528 46.794 44.1973 47.1246 43.536C47.4553 42.864 47.6206 41.8027 47.6206 40.352C47.6206 38.8907 47.4553 37.8347 47.1246 37.184C46.794 36.5227 46.266 36.192 45.5406 36.192C44.8153 36.192 44.2873 36.5227 43.9566 37.184C43.626 37.8453 43.4606 38.9013 43.4606 40.352C43.4606 41.8027 43.626 42.864 43.9566 43.536C44.2873 44.1973 44.8153 44.528 45.5406 44.528ZM59.2781 46.144C57.9448 46.144 56.9261 45.6533 56.2221 44.672C55.5181 43.68 55.1661 42.24 55.1661 40.352C55.1661 38.4747 55.5181 37.0453 56.2221 36.064C56.9261 35.072 57.9448 34.576 59.2781 34.576C60.6115 34.576 61.6301 35.072 62.3341 36.064C63.0381 37.0453 63.3901 38.4747 63.3901 40.352C63.3901 42.2293 63.0381 43.664 62.3341 44.656C61.6301 45.648 60.6115 46.144 59.2781 46.144ZM59.2781 44.528C60.0035 44.528 60.5315 44.1973 60.8621 43.536C61.1928 42.864 61.3581 41.8027 61.3581 40.352C61.3581 38.8907 61.1928 37.8347 60.8621 37.184C60.5315 36.5227 60.0035 36.192 59.2781 36.192C58.5528 36.192 58.0248 36.5227 57.6941 37.184C57.3635 37.8453 57.1981 38.9013 57.1981 40.352C57.1981 41.8027 57.3635 42.864 57.6941 43.536C58.0248 44.1973 58.5528 44.528 59.2781 44.528ZM68.7719 46.144C67.4385 46.144 66.4199 45.6533 65.7159 44.672C65.0119 43.68 64.6599 42.24 64.6599 40.352C64.6599 38.4747 65.0119 37.0453 65.7159 36.064C66.4199 35.072 67.4385 34.576 68.7719 34.576C70.1052 34.576 71.1239 35.072 71.8279 36.064C72.5319 37.0453 72.8839 38.4747 72.8839 40.352C72.8839 42.2293 72.5319 43.664 71.8279 44.656C71.1239 45.648 70.1052 46.144 68.7719 46.144ZM68.7719 44.528C69.4972 44.528 70.0252 44.1973 70.3559 43.536C70.6865 42.864 70.8519 41.8027 70.8519 40.352C70.8519 38.8907 70.6865 37.8347 70.3559 37.184C70.0252 36.5227 69.4972 36.192 68.7719 36.192C68.0465 36.192 67.5185 36.5227 67.1879 37.184C66.8572 37.8453 66.6919 38.9013 66.6919 40.352C66.6919 41.8027 66.8572 42.864 67.1879 43.536C67.5185 44.1973 68.0465 44.528 68.7719 44.528ZM78.2656 46.144C76.9323 46.144 75.9136 45.6533 75.2096 44.672C74.5056 43.68 74.1536 42.24 74.1536 40.352C74.1536 38.4747 74.5056 37.0453 75.2096 36.064C75.9136 35.072 76.9323 34.576 78.2656 34.576C79.599 34.576 80.6176 35.072 81.3216 36.064C82.0256 37.0453 82.3776 38.4747 82.3776 40.352C82.3776 42.2293 82.0256 43.664 81.3216 44.656C80.6176 45.648 79.599 46.144 78.2656 46.144ZM78.2656 44.528C78.991 44.528 79.519 44.1973 79.8496 43.536C80.1803 42.864 80.3456 41.8027 80.3456 40.352C80.3456 38.8907 80.1803 37.8347 79.8496 37.184C79.519 36.5227 78.991 36.192 78.2656 36.192C77.5403 36.192 77.0123 36.5227 76.6816 37.184C76.351 37.8453 76.1856 38.9013 76.1856 40.352C76.1856 41.8027 76.351 42.864 76.6816 43.536C77.0123 44.1973 77.5403 44.528 78.2656 44.528ZM91.0751 46.128C89.9125 46.128 88.9738 45.8987 88.2591 45.44C87.9178 45.2373 87.7471 44.9493 87.7471 44.576C87.7471 44.3627 87.8058 44.192 87.9231 44.064C88.0405 43.9253 88.1845 43.856 88.3551 43.856C88.5365 43.856 88.7871 43.9413 89.1071 44.112C89.4485 44.272 89.7578 44.3947 90.0351 44.48C90.3231 44.5653 90.6858 44.608 91.1231 44.608C91.5711 44.608 91.9178 44.5333 92.1631 44.384C92.4191 44.2347 92.5471 44.0267 92.5471 43.76C92.5471 43.5787 92.4938 43.4347 92.3871 43.328C92.2911 43.2213 92.1098 43.1253 91.8431 43.04C91.5871 42.944 91.1925 42.8373 90.6591 42.72C89.7098 42.528 89.0271 42.256 88.6111 41.904C88.2058 41.552 88.0031 41.0667 88.0031 40.448C88.0031 39.9787 88.1418 39.5573 88.4191 39.184C88.6965 38.8 89.0751 38.5067 89.5551 38.304C90.0458 38.0907 90.6005 37.984 91.2191 37.984C91.6671 37.984 92.0991 38.0427 92.5151 38.16C92.9311 38.2667 93.3045 38.4267 93.6351 38.64C93.9765 38.8533 94.1471 39.136 94.1471 39.488C94.1471 39.7013 94.0885 39.8827 93.9711 40.032C93.8538 40.1707 93.7098 40.24 93.5391 40.24C93.4218 40.24 93.3045 40.2187 93.1871 40.176C93.0805 40.1227 92.9418 40.048 92.7711 39.952C92.4618 39.792 92.1951 39.6747 91.9711 39.6C91.7471 39.5147 91.4698 39.472 91.1391 39.472C90.7445 39.472 90.4298 39.552 90.1951 39.712C89.9711 39.872 89.8591 40.0907 89.8591 40.368C89.8591 40.6347 89.9765 40.8373 90.2111 40.976C90.4458 41.1147 90.8991 41.2533 91.5711 41.392C92.2858 41.5413 92.8458 41.712 93.2511 41.904C93.6565 42.096 93.9445 42.336 94.1151 42.624C94.2965 42.912 94.3871 43.28 94.3871 43.728C94.3871 44.4533 94.0831 45.0347 93.4751 45.472C92.8778 45.9093 92.0778 46.128 91.0751 46.128ZM102.085 38.016C102.394 38.016 102.639 38.1013 102.821 38.272C103.002 38.4427 103.093 38.672 103.093 38.96V45.168C103.093 45.4453 102.997 45.6693 102.805 45.84C102.623 46.0107 102.383 46.096 102.085 46.096C101.797 46.096 101.567 46.016 101.397 45.856C101.226 45.696 101.141 45.4773 101.141 45.2V44.8C100.895 45.2267 100.565 45.5573 100.149 45.792C99.7328 46.016 99.2634 46.128 98.7408 46.128C96.8208 46.128 95.8608 45.0507 95.8608 42.896V38.96C95.8608 38.672 95.9514 38.4427 96.1328 38.272C96.3141 38.1013 96.5541 38.016 96.8528 38.016C97.1621 38.016 97.4074 38.1013 97.5888 38.272C97.7701 38.4427 97.8608 38.672 97.8608 38.96V42.912C97.8608 43.4667 97.9728 43.8773 98.1968 44.144C98.4208 44.4107 98.7728 44.544 99.2528 44.544C99.8074 44.544 100.25 44.3627 100.581 44C100.922 43.6267 101.093 43.136 101.093 42.528V38.96C101.093 38.672 101.183 38.4427 101.365 38.272C101.546 38.1013 101.786 38.016 102.085 38.016ZM114.37 37.984C115.224 37.984 115.874 38.24 116.322 38.752C116.781 39.2533 117.01 40.0693 117.01 41.2V45.136C117.01 45.4453 116.914 45.6853 116.722 45.856C116.541 46.016 116.301 46.096 116.002 46.096C115.714 46.096 115.474 46.016 115.282 45.856C115.101 45.6853 115.01 45.4453 115.01 45.136V41.2C115.01 40.6133 114.904 40.1973 114.69 39.952C114.488 39.696 114.173 39.568 113.746 39.568C113.224 39.568 112.808 39.7493 112.498 40.112C112.189 40.464 112.034 40.9493 112.034 41.568V45.136C112.034 45.4453 111.938 45.6853 111.746 45.856C111.565 46.016 111.33 46.096 111.042 46.096C110.754 46.096 110.514 46.016 110.322 45.856C110.13 45.6853 110.034 45.4453 110.034 45.136V41.2C110.034 40.6133 109.928 40.1973 109.714 39.952C109.512 39.696 109.197 39.568 108.77 39.568C108.248 39.568 107.832 39.7493 107.522 40.112C107.224 40.464 107.074 40.9493 107.074 41.568V45.136C107.074 45.4453 106.978 45.6853 106.786 45.856C106.594 46.016 106.354 46.096 106.066 46.096C105.778 46.096 105.538 46.016 105.346 45.856C105.165 45.6853 105.074 45.4453 105.074 45.136V38.944C105.074 38.6453 105.17 38.416 105.362 38.256C105.554 38.096 105.794 38.016 106.082 38.016C106.36 38.016 106.584 38.096 106.754 38.256C106.936 38.4053 107.026 38.624 107.026 38.912V39.296C107.272 38.8693 107.597 38.544 108.002 38.32C108.418 38.096 108.893 37.984 109.426 37.984C110.6 37.984 111.384 38.4747 111.778 39.456C112.013 39.008 112.36 38.6507 112.818 38.384C113.277 38.1173 113.794 37.984 114.37 37.984Z" fill="white"/>
<path d="M1.40909 18H2.81818V12.7955H9.02273V18H10.4318V6.36364H9.02273V11.5455H2.81818V6.36364H1.40909V18ZM15.5392 18.2045C17.0619 18.2045 17.8574 17.3864 18.1301 16.8182H18.1983V18H19.5392V12.25C19.5392 9.47727 17.4256 9.15909 16.3119 9.15909C14.9937 9.15909 13.4937 9.61364 12.8119 11.2045L14.0847 11.6591C14.3801 11.0227 15.079 10.3409 16.3574 10.3409C17.5903 10.3409 18.1983 10.9943 18.1983 12.1136V12.1591C18.1983 12.8068 17.5392 12.75 15.9483 12.9545C14.329 13.1648 12.5619 13.5227 12.5619 15.5227C12.5619 17.2273 13.8801 18.2045 15.5392 18.2045ZM15.7437 17C14.6756 17 13.9028 16.5227 13.9028 15.5909C13.9028 14.5682 14.8347 14.25 15.8801 14.1136C16.4483 14.0455 17.971 13.8864 18.1983 13.6136V14.8409C18.1983 15.9318 17.3347 17 15.7437 17ZM28.6139 9.27273H27.273V13.6989C26.6253 13.8864 25.9605 14 25.1594 14C24.0685 14 23.2276 13.3864 23.2276 12.0455V9.25H21.8866V12.0455C21.8866 14.1818 23.1821 15.25 25.1594 15.25C25.9832 15.25 26.6423 15.142 27.273 14.9545V18H28.6139V9.27273ZM32.3151 16.0227V9.27273H30.9741V18H32.5423L36.7241 11.25V18H38.0651V9.27273H36.5196L32.3151 16.0227ZM41.7619 9.27273H40.421V18H41.7619V14.2727H45.9437V18H47.2847V9.27273H45.9437V13.0227H41.7619V9.27273ZM52.2017 18.2045C53.7244 18.2045 54.5199 17.3864 54.7926 16.8182H54.8608V18H56.2017V12.25C56.2017 9.47727 54.0881 9.15909 52.9744 9.15909C51.6562 9.15909 50.1562 9.61364 49.4744 11.2045L50.7472 11.6591C51.0426 11.0227 51.7415 10.3409 53.0199 10.3409C54.2528 10.3409 54.8608 10.9943 54.8608 12.1136V12.1591C54.8608 12.8068 54.2017 12.75 52.6108 12.9545C50.9915 13.1648 49.2244 13.5227 49.2244 15.5227C49.2244 17.2273 50.5426 18.2045 52.2017 18.2045ZM52.4062 17C51.3381 17 50.5653 16.5227 50.5653 15.5909C50.5653 14.5682 51.4972 14.25 52.5426 14.1136C53.1108 14.0455 54.6335 13.8864 54.8608 13.6136V14.8409C54.8608 15.9318 53.9972 17 52.4062 17ZM59.2537 9.27273H57.9128V18H59.2537V14.3409H61.4923C61.731 16.6761 63.248 18.1818 65.4128 18.1818C67.7764 18.1818 69.3673 16.3864 69.3673 13.6818C69.3673 10.9545 67.7764 9.15909 65.4128 9.15909C63.2253 9.15909 61.6969 10.6989 61.4866 13.0909H59.2537V9.27273ZM65.4128 16.9773C63.6173 16.9773 62.7991 15.4318 62.7991 13.6818C62.7991 11.9318 63.6173 10.3636 65.4128 10.3636C67.2082 10.3636 68.0264 11.9318 68.0264 13.6818C68.0264 15.4318 67.2082 16.9773 65.4128 16.9773ZM83.3582 16.75H82.0628V9.27273H80.7219V16.75H77.4264V9.27273H76.0855V16.75H72.7901V9.27273H71.4492V18H81.8128V20.5H83.1992L83.3582 16.75ZM86.5494 16.0227V9.27273H85.2085V18H86.7767L90.9585 11.25V18H92.2994V9.27273H90.754L86.5494 16.0227ZM95.9963 16.0227V9.27273H94.6554V18H96.2236L100.405 11.25V18H101.746V9.27273H100.201L95.9963 16.0227ZM99.3145 6.36364C99.3145 6.95455 98.9963 7.47727 98.2009 7.47727C97.4054 7.47727 97.1099 6.95455 97.1099 6.36364H95.8599C95.8599 7.59091 96.769 8.45455 98.2009 8.45455C99.6554 8.45455 100.564 7.59091 100.564 6.36364H99.3145ZM112.048 18.1818C113.98 18.1818 115.252 17 115.48 15.4545H114.139C113.889 16.4091 113.093 16.9773 112.048 16.9773C110.457 16.9773 109.434 15.6591 109.434 13.6364C109.434 11.6591 110.48 10.3636 112.048 10.3636C113.23 10.3636 113.934 11.0909 114.139 11.8864H115.48C115.252 10.25 113.866 9.15909 112.025 9.15909C109.661 9.15909 108.093 11.0227 108.093 13.6818C108.093 16.2955 109.593 18.1818 112.048 18.1818ZM117.34 18H118.681V10.5227H122.863V18H124.203V9.27273H117.34V18ZM130.211 18.1818C131.984 18.1818 133.28 17.2955 133.689 15.9773L132.393 15.6136C132.052 16.5227 131.262 16.9773 130.211 16.9773C128.637 16.9773 127.552 15.9602 127.49 14.0909H133.825V13.5227C133.825 10.2727 131.893 9.15909 130.075 9.15909C127.711 9.15909 126.143 11.0227 126.143 13.7045C126.143 16.3864 127.689 18.1818 130.211 18.1818ZM127.49 12.9318C127.581 11.5739 128.541 10.3636 130.075 10.3636C131.53 10.3636 132.461 11.4545 132.461 12.9318H127.49ZM142.628 9.27273H141.288V16.75H137.106V9.27273H135.765V18H142.515V20.8182H143.856V16.75H142.628V9.27273ZM147.162 16.0227V9.27273H145.821V18H147.389L151.571 11.25V18H152.912V9.27273H151.366L147.162 16.0227ZM157.836 18.2045C159.359 18.2045 160.154 17.3864 160.427 16.8182H160.495V18H161.836V12.25C161.836 9.47727 159.722 9.15909 158.609 9.15909C157.291 9.15909 155.791 9.61364 155.109 11.2045L156.382 11.6591C156.677 11.0227 157.376 10.3409 158.654 10.3409C159.887 10.3409 160.495 10.9943 160.495 12.1136V12.1591C160.495 12.8068 159.836 12.75 158.245 12.9545C156.626 13.1648 154.859 13.5227 154.859 15.5227C154.859 17.2273 156.177 18.2045 157.836 18.2045ZM158.041 17C156.972 17 156.2 16.5227 156.2 15.5909C156.2 14.5682 157.132 14.25 158.177 14.1136C158.745 14.0455 160.268 13.8864 160.495 13.6136V14.8409C160.495 15.9318 159.632 17 158.041 17ZM163.411 18H163.865C165.797 18 166.354 16.5 166.479 13.6364L166.615 10.5227H169.82V18H171.161V9.27273H165.343L165.184 13.1364C165.07 16.0682 164.774 16.75 163.729 16.75H163.411V18ZM174.862 16.0227V9.27273H173.521V18H175.089L179.271 11.25V18H180.612V9.27273H179.066L174.862 16.0227ZM186.513 18.1818C188.445 18.1818 189.718 17 189.945 15.4545H188.604C188.354 16.4091 187.559 16.9773 186.513 16.9773C184.922 16.9773 183.9 15.6591 183.9 13.6364C183.9 11.6591 184.945 10.3636 186.513 10.3636C187.695 10.3636 188.4 11.0909 188.604 11.8864H189.945C189.718 10.25 188.332 9.15909 186.491 9.15909C184.127 9.15909 182.559 11.0227 182.559 13.6818C182.559 16.2955 184.059 18.1818 186.513 18.1818ZM191.118 10.5227H194.004V18H195.345V10.5227H198.209V9.27273H191.118V10.5227Z" fill="black"/>
<defs>
<linearGradient id="paint0_linear_786_33" x1="126" y1="25" x2="126" y2="57" gradientUnits="userSpaceOnUse">
<stop stop-color="#30DC2C"/>
<stop offset="1" stop-color="#04C700"/>
</linearGradient>
</defs>
</svg>
