<svg width="514" height="57" viewBox="0 0 514 57" fill="none" xmlns="http://www.w3.org/2000/svg">
<rect y="25" width="514" height="32" rx="8" fill="#C4C4C4"/>
<rect y="25" width="351" height="32" rx="8" fill="url(#paint0_linear_786_32)"/>
<path d="M16.048 34.72C16.3253 34.72 16.5387 34.8 16.688 34.96C16.8373 35.1093 16.912 35.3067 16.912 35.552C16.912 35.7973 16.8373 36.0533 16.688 36.32L11.584 45.584C11.3707 45.9467 11.0773 46.128 10.704 46.128C10.448 46.128 10.2187 46.0427 10.016 45.872C9.824 45.6907 9.728 45.472 9.728 45.216C9.728 45.0347 9.78133 44.8533 9.888 44.672L14.48 36.384H9.648C9.008 36.384 8.688 36.112 8.688 35.568C8.688 35.0027 9.008 34.72 9.648 34.72H16.048ZM27.1295 38.784C27.8335 38.784 28.4522 38.9387 28.9855 39.248C29.5295 39.5467 29.9508 39.968 30.2495 40.512C30.5482 41.056 30.6975 41.68 30.6975 42.384C30.6975 43.12 30.5268 43.7707 30.1855 44.336C29.8548 44.9013 29.3802 45.344 28.7615 45.664C28.1535 45.9733 27.4495 46.128 26.6495 46.128C25.9882 46.128 25.3375 46.0213 24.6975 45.808C24.0682 45.584 23.5295 45.2853 23.0815 44.912C22.8362 44.6987 22.7135 44.448 22.7135 44.16C22.7135 43.9253 22.7775 43.728 22.9055 43.568C23.0442 43.3973 23.2042 43.312 23.3855 43.312C23.4922 43.312 23.5935 43.3333 23.6895 43.376C23.7855 43.408 23.8975 43.4667 24.0255 43.552C24.4522 43.8507 24.8682 44.08 25.2735 44.24C25.6788 44.4 26.1108 44.48 26.5695 44.48C27.2735 44.48 27.8122 44.304 28.1855 43.952C28.5588 43.6 28.7455 43.0987 28.7455 42.448C28.7455 41.8187 28.5535 41.3227 28.1695 40.96C27.7962 40.5867 27.2788 40.4 26.6175 40.4C26.2015 40.4 25.8282 40.4587 25.4975 40.576C25.1775 40.6933 24.8468 40.8907 24.5055 41.168C24.3028 41.3067 24.0948 41.376 23.8815 41.376C23.6682 41.376 23.4868 41.312 23.3375 41.184C23.1882 41.056 23.1135 40.8853 23.1135 40.672V35.68C23.1135 35.3813 23.1988 35.1467 23.3695 34.976C23.5402 34.8053 23.7802 34.72 24.0895 34.72H29.4175C30.0575 34.72 30.3775 34.9867 30.3775 35.52C30.3775 36.0533 30.0575 36.32 29.4175 36.32H25.1295V39.36C25.6735 38.976 26.3402 38.784 27.1295 38.784ZM36.0313 46.144C34.6979 46.144 33.6793 45.6533 32.9753 44.672C32.2713 43.68 31.9193 42.24 31.9193 40.352C31.9193 38.4747 32.2713 37.0453 32.9753 36.064C33.6793 35.072 34.6979 34.576 36.0313 34.576C37.3646 34.576 38.3833 35.072 39.0873 36.064C39.7913 37.0453 40.1433 38.4747 40.1433 40.352C40.1433 42.2293 39.7913 43.664 39.0873 44.656C38.3833 45.648 37.3646 46.144 36.0313 46.144ZM36.0313 44.528C36.7566 44.528 37.2846 44.1973 37.6153 43.536C37.9459 42.864 38.1113 41.8027 38.1113 40.352C38.1113 38.8907 37.9459 37.8347 37.6153 37.184C37.2846 36.5227 36.7566 36.192 36.0313 36.192C35.3059 36.192 34.7779 36.5227 34.4473 37.184C34.1166 37.8453 33.9513 38.9013 33.9513 40.352C33.9513 41.8027 34.1166 42.864 34.4473 43.536C34.7779 44.1973 35.3059 44.528 36.0313 44.528ZM45.525 46.144C44.1917 46.144 43.173 45.6533 42.469 44.672C41.765 43.68 41.413 42.24 41.413 40.352C41.413 38.4747 41.765 37.0453 42.469 36.064C43.173 35.072 44.1917 34.576 45.525 34.576C46.8583 34.576 47.877 35.072 48.581 36.064C49.285 37.0453 49.637 38.4747 49.637 40.352C49.637 42.2293 49.285 43.664 48.581 44.656C47.877 45.648 46.8583 46.144 45.525 46.144ZM45.525 44.528C46.2503 44.528 46.7783 44.1973 47.109 43.536C47.4397 42.864 47.605 41.8027 47.605 40.352C47.605 38.8907 47.4397 37.8347 47.109 37.184C46.7783 36.5227 46.2503 36.192 45.525 36.192C44.7997 36.192 44.2717 36.5227 43.941 37.184C43.6103 37.8453 43.445 38.9013 43.445 40.352C43.445 41.8027 43.6103 42.864 43.941 43.536C44.2717 44.1973 44.7997 44.528 45.525 44.528ZM59.2625 46.144C57.9292 46.144 56.9105 45.6533 56.2065 44.672C55.5025 43.68 55.1505 42.24 55.1505 40.352C55.1505 38.4747 55.5025 37.0453 56.2065 36.064C56.9105 35.072 57.9292 34.576 59.2625 34.576C60.5958 34.576 61.6145 35.072 62.3185 36.064C63.0225 37.0453 63.3745 38.4747 63.3745 40.352C63.3745 42.2293 63.0225 43.664 62.3185 44.656C61.6145 45.648 60.5958 46.144 59.2625 46.144ZM59.2625 44.528C59.9878 44.528 60.5158 44.1973 60.8465 43.536C61.1772 42.864 61.3425 41.8027 61.3425 40.352C61.3425 38.8907 61.1772 37.8347 60.8465 37.184C60.5158 36.5227 59.9878 36.192 59.2625 36.192C58.5372 36.192 58.0092 36.5227 57.6785 37.184C57.3478 37.8453 57.1825 38.9013 57.1825 40.352C57.1825 41.8027 57.3478 42.864 57.6785 43.536C58.0092 44.1973 58.5372 44.528 59.2625 44.528ZM68.7562 46.144C67.4229 46.144 66.4042 45.6533 65.7002 44.672C64.9962 43.68 64.6442 42.24 64.6442 40.352C64.6442 38.4747 64.9962 37.0453 65.7002 36.064C66.4042 35.072 67.4229 34.576 68.7562 34.576C70.0896 34.576 71.1082 35.072 71.8122 36.064C72.5162 37.0453 72.8682 38.4747 72.8682 40.352C72.8682 42.2293 72.5162 43.664 71.8122 44.656C71.1082 45.648 70.0896 46.144 68.7562 46.144ZM68.7562 44.528C69.4816 44.528 70.0096 44.1973 70.3402 43.536C70.6709 42.864 70.8362 41.8027 70.8362 40.352C70.8362 38.8907 70.6709 37.8347 70.3402 37.184C70.0096 36.5227 69.4816 36.192 68.7562 36.192C68.0309 36.192 67.5029 36.5227 67.1722 37.184C66.8416 37.8453 66.6762 38.9013 66.6762 40.352C66.6762 41.8027 66.8416 42.864 67.1722 43.536C67.5029 44.1973 68.0309 44.528 68.7562 44.528ZM78.25 46.144C76.9167 46.144 75.898 45.6533 75.194 44.672C74.49 43.68 74.138 42.24 74.138 40.352C74.138 38.4747 74.49 37.0453 75.194 36.064C75.898 35.072 76.9167 34.576 78.25 34.576C79.5833 34.576 80.602 35.072 81.306 36.064C82.01 37.0453 82.362 38.4747 82.362 40.352C82.362 42.2293 82.01 43.664 81.306 44.656C80.602 45.648 79.5833 46.144 78.25 46.144ZM78.25 44.528C78.9753 44.528 79.5033 44.1973 79.834 43.536C80.1647 42.864 80.33 41.8027 80.33 40.352C80.33 38.8907 80.1647 37.8347 79.834 37.184C79.5033 36.5227 78.9753 36.192 78.25 36.192C77.5247 36.192 76.9967 36.5227 76.666 37.184C76.3353 37.8453 76.17 38.9013 76.17 40.352C76.17 41.8027 76.3353 42.864 76.666 43.536C76.9967 44.1973 77.5247 44.528 78.25 44.528ZM91.0595 46.128C89.8968 46.128 88.9582 45.8987 88.2435 45.44C87.9022 45.2373 87.7315 44.9493 87.7315 44.576C87.7315 44.3627 87.7902 44.192 87.9075 44.064C88.0248 43.9253 88.1688 43.856 88.3395 43.856C88.5208 43.856 88.7715 43.9413 89.0915 44.112C89.4328 44.272 89.7422 44.3947 90.0195 44.48C90.3075 44.5653 90.6702 44.608 91.1075 44.608C91.5555 44.608 91.9022 44.5333 92.1475 44.384C92.4035 44.2347 92.5315 44.0267 92.5315 43.76C92.5315 43.5787 92.4782 43.4347 92.3715 43.328C92.2755 43.2213 92.0942 43.1253 91.8275 43.04C91.5715 42.944 91.1768 42.8373 90.6435 42.72C89.6942 42.528 89.0115 42.256 88.5955 41.904C88.1902 41.552 87.9875 41.0667 87.9875 40.448C87.9875 39.9787 88.1262 39.5573 88.4035 39.184C88.6808 38.8 89.0595 38.5067 89.5395 38.304C90.0302 38.0907 90.5848 37.984 91.2035 37.984C91.6515 37.984 92.0835 38.0427 92.4995 38.16C92.9155 38.2667 93.2888 38.4267 93.6195 38.64C93.9608 38.8533 94.1315 39.136 94.1315 39.488C94.1315 39.7013 94.0728 39.8827 93.9555 40.032C93.8382 40.1707 93.6942 40.24 93.5235 40.24C93.4062 40.24 93.2888 40.2187 93.1715 40.176C93.0648 40.1227 92.9262 40.048 92.7555 39.952C92.4462 39.792 92.1795 39.6747 91.9555 39.6C91.7315 39.5147 91.4542 39.472 91.1235 39.472C90.7288 39.472 90.4142 39.552 90.1795 39.712C89.9555 39.872 89.8435 40.0907 89.8435 40.368C89.8435 40.6347 89.9608 40.8373 90.1955 40.976C90.4302 41.1147 90.8835 41.2533 91.5555 41.392C92.2702 41.5413 92.8302 41.712 93.2355 41.904C93.6408 42.096 93.9288 42.336 94.0995 42.624C94.2808 42.912 94.3715 43.28 94.3715 43.728C94.3715 44.4533 94.0675 45.0347 93.4595 45.472C92.8622 45.9093 92.0622 46.128 91.0595 46.128ZM102.069 38.016C102.378 38.016 102.624 38.1013 102.805 38.272C102.986 38.4427 103.077 38.672 103.077 38.96V45.168C103.077 45.4453 102.981 45.6693 102.789 45.84C102.608 46.0107 102.368 46.096 102.069 46.096C101.781 46.096 101.552 46.016 101.381 45.856C101.21 45.696 101.125 45.4773 101.125 45.2V44.8C100.88 45.2267 100.549 45.5573 100.133 45.792C99.7171 46.016 99.2478 46.128 98.7251 46.128C96.8051 46.128 95.8451 45.0507 95.8451 42.896V38.96C95.8451 38.672 95.9358 38.4427 96.1171 38.272C96.2985 38.1013 96.5385 38.016 96.8371 38.016C97.1465 38.016 97.3918 38.1013 97.5731 38.272C97.7545 38.4427 97.8451 38.672 97.8451 38.96V42.912C97.8451 43.4667 97.9571 43.8773 98.1811 44.144C98.4051 44.4107 98.7571 44.544 99.2371 44.544C99.7918 44.544 100.234 44.3627 100.565 44C100.906 43.6267 101.077 43.136 101.077 42.528V38.96C101.077 38.672 101.168 38.4427 101.349 38.272C101.53 38.1013 101.77 38.016 102.069 38.016ZM114.355 37.984C115.208 37.984 115.859 38.24 116.307 38.752C116.765 39.2533 116.995 40.0693 116.995 41.2V45.136C116.995 45.4453 116.899 45.6853 116.707 45.856C116.525 46.016 116.285 46.096 115.987 46.096C115.699 46.096 115.459 46.016 115.267 45.856C115.085 45.6853 114.995 45.4453 114.995 45.136V41.2C114.995 40.6133 114.888 40.1973 114.675 39.952C114.472 39.696 114.157 39.568 113.731 39.568C113.208 39.568 112.792 39.7493 112.483 40.112C112.173 40.464 112.019 40.9493 112.019 41.568V45.136C112.019 45.4453 111.923 45.6853 111.731 45.856C111.549 46.016 111.315 46.096 111.027 46.096C110.739 46.096 110.499 46.016 110.307 45.856C110.115 45.6853 110.019 45.4453 110.019 45.136V41.2C110.019 40.6133 109.912 40.1973 109.699 39.952C109.496 39.696 109.181 39.568 108.755 39.568C108.232 39.568 107.816 39.7493 107.507 40.112C107.208 40.464 107.059 40.9493 107.059 41.568V45.136C107.059 45.4453 106.963 45.6853 106.771 45.856C106.579 46.016 106.339 46.096 106.051 46.096C105.763 46.096 105.523 46.016 105.331 45.856C105.149 45.6853 105.059 45.4453 105.059 45.136V38.944C105.059 38.6453 105.155 38.416 105.347 38.256C105.539 38.096 105.779 38.016 106.067 38.016C106.344 38.016 106.568 38.096 106.739 38.256C106.92 38.4053 107.011 38.624 107.011 38.912V39.296C107.256 38.8693 107.581 38.544 107.987 38.32C108.403 38.096 108.877 37.984 109.411 37.984C110.584 37.984 111.368 38.4747 111.763 39.456C111.997 39.008 112.344 38.6507 112.803 38.384C113.261 38.1173 113.779 37.984 114.355 37.984Z" fill="white"/>
<path d="M10.7727 10C10.3409 7.61364 8.43182 6.20455 6.09091 6.20455C3.11364 6.20455 0.954545 8.5 0.954545 12.1818C0.954545 15.8636 3.11364 18.1591 6.09091 18.1591C8.43182 18.1591 10.3409 16.75 10.7727 14.3636H9.36364C9.02273 15.9773 7.63636 16.8409 6.09091 16.8409C3.97727 16.8409 2.31818 15.2045 2.31818 12.1818C2.31818 9.15909 3.97727 7.52273 6.09091 7.52273C7.63636 7.52273 9.02273 8.38636 9.36364 10H10.7727ZM12.7679 18H14.1088V10.5227H18.2906V18H19.6315V9.27273H12.7679V18ZM25.6395 18.1818C27.4122 18.1818 28.7077 17.2955 29.1168 15.9773L27.8213 15.6136C27.4804 16.5227 26.6906 16.9773 25.6395 16.9773C24.0656 16.9773 22.9804 15.9602 22.9179 14.0909H29.2531V13.5227C29.2531 10.2727 27.3213 9.15909 25.5031 9.15909C23.1395 9.15909 21.5713 11.0227 21.5713 13.7045C21.5713 16.3864 23.1168 18.1818 25.6395 18.1818ZM22.9179 12.9318C23.0088 11.5739 23.969 10.3636 25.5031 10.3636C26.9577 10.3636 27.8895 11.4545 27.8895 12.9318H22.9179ZM38.0565 9.27273H36.7156V16.75H32.5338V9.27273H31.1929V18H37.9429V20.8182H39.2838V16.75H38.0565V9.27273ZM42.5901 16.0227V9.27273H41.2491V18H42.8173L46.9991 11.25V18H48.3401V9.27273H46.7946L42.5901 16.0227ZM53.2642 18.2045C54.7869 18.2045 55.5824 17.3864 55.8551 16.8182H55.9233V18H57.2642V12.25C57.2642 9.47727 55.1506 9.15909 54.0369 9.15909C52.7188 9.15909 51.2188 9.61364 50.5369 11.2045L51.8097 11.6591C52.1051 11.0227 52.804 10.3409 54.0824 10.3409C55.3153 10.3409 55.9233 10.9943 55.9233 12.1136V12.1591C55.9233 12.8068 55.2642 12.75 53.6733 12.9545C52.054 13.1648 50.2869 13.5227 50.2869 15.5227C50.2869 17.2273 51.6051 18.2045 53.2642 18.2045ZM53.4688 17C52.4006 17 51.6278 16.5227 51.6278 15.5909C51.6278 14.5682 52.5597 14.25 53.6051 14.1136C54.1733 14.0455 55.696 13.8864 55.9233 13.6136V14.8409C55.9233 15.9318 55.0597 17 53.4688 17ZM58.8389 18H59.2935C61.2253 18 61.7821 16.5 61.9071 13.6364L62.0435 10.5227H65.248V18H66.5889V9.27273H60.7707L60.6116 13.1364C60.498 16.0682 60.2026 16.75 59.1571 16.75H58.8389V18ZM70.2901 16.0227V9.27273H68.9492V18H70.5173L74.6992 11.25V18H76.0401V9.27273H74.4946L70.2901 16.0227ZM81.9415 18.1818C83.8733 18.1818 85.146 17 85.3733 15.4545H84.0324C83.7824 16.4091 82.9869 16.9773 81.9415 16.9773C80.3506 16.9773 79.3278 15.6591 79.3278 13.6364C79.3278 11.6591 80.3733 10.3636 81.9415 10.3636C83.1233 10.3636 83.8278 11.0909 84.0324 11.8864H85.3733C85.146 10.25 83.7597 9.15909 81.9187 9.15909C79.5551 9.15909 77.9869 11.0227 77.9869 13.6818C77.9869 16.2955 79.4869 18.1818 81.9415 18.1818ZM86.546 10.5227H89.4324V18H90.7733V10.5227H93.6369V9.27273H86.546V10.5227ZM103.438 18.1818C105.37 18.1818 106.643 17 106.87 15.4545H105.529C105.279 16.4091 104.484 16.9773 103.438 16.9773C101.847 16.9773 100.825 15.6591 100.825 13.6364C100.825 11.6591 101.87 10.3636 103.438 10.3636C104.62 10.3636 105.325 11.0909 105.529 11.8864H106.87C106.643 10.25 105.257 9.15909 103.416 9.15909C101.052 9.15909 99.4838 11.0227 99.4838 13.6818C99.4838 16.2955 100.984 18.1818 103.438 18.1818ZM112.276 18.1818C114.639 18.1818 116.23 16.3864 116.23 13.6818C116.23 10.9545 114.639 9.15909 112.276 9.15909C109.912 9.15909 108.321 10.9545 108.321 13.6818C108.321 16.3864 109.912 18.1818 112.276 18.1818ZM112.276 16.9773C110.48 16.9773 109.662 15.4318 109.662 13.6818C109.662 11.9318 110.48 10.3636 112.276 10.3636C114.071 10.3636 114.889 11.9318 114.889 13.6818C114.889 15.4318 114.071 16.9773 112.276 16.9773ZM126.123 18.1818C128.055 18.1818 129.327 17 129.555 15.4545H128.214C127.964 16.4091 127.168 16.9773 126.123 16.9773C124.532 16.9773 123.509 15.6591 123.509 13.6364C123.509 11.6591 124.555 10.3636 126.123 10.3636C127.305 10.3636 128.009 11.0909 128.214 11.8864H129.555C129.327 10.25 127.941 9.15909 126.1 9.15909C123.736 9.15909 122.168 11.0227 122.168 13.6818C122.168 16.2955 123.668 18.1818 126.123 18.1818ZM131.415 21.2727H132.756V16.6591H132.869C133.165 17.1364 133.733 18.1818 135.415 18.1818C137.597 18.1818 139.119 16.4318 139.119 13.6591C139.119 10.9091 137.597 9.15909 135.392 9.15909C133.688 9.15909 133.165 10.2045 132.869 10.6591H132.71V9.27273H131.415V21.2727ZM132.733 13.6364C132.733 11.6818 133.597 10.3636 135.233 10.3636C136.938 10.3636 137.778 11.7955 137.778 13.6364C137.778 15.5 136.915 16.9773 135.233 16.9773C133.619 16.9773 132.733 15.6136 132.733 13.6364ZM144.724 18.1818C146.497 18.1818 147.792 17.2955 148.201 15.9773L146.906 15.6136C146.565 16.5227 145.775 16.9773 144.724 16.9773C143.15 16.9773 142.065 15.9602 142.002 14.0909H148.337V13.5227C148.337 10.2727 146.406 9.15909 144.587 9.15909C142.224 9.15909 140.656 11.0227 140.656 13.7045C140.656 16.3864 142.201 18.1818 144.724 18.1818ZM142.002 12.9318C142.093 11.5739 143.053 10.3636 144.587 10.3636C146.042 10.3636 146.974 11.4545 146.974 12.9318H142.002ZM149.345 20.5H150.686V18H157.141V20.5H158.482V16.75H157.141V9.27273H151.595L151.3 12.7273C151.09 15.1705 150.777 16.0114 150.073 16.75H149.345V20.5ZM151.595 16.75C152.209 15.9432 152.431 14.5511 152.618 12.7273L152.845 10.5227H155.8V16.75H151.595ZM161.503 9.27273H160.162V18H161.503V14.2727H165.684V18H167.025V9.27273H165.684V13.0227H161.503V9.27273ZM170.715 16.0227V9.27273H169.374V18H170.942L175.124 11.25V18H176.465V9.27273H174.92L170.715 16.0227ZM183.594 16.1818L180.594 9.27273H178.821V18H180.162V11.1989L183.048 18H184.139L187.026 11.3239V18H188.366V9.27273H186.639L183.594 16.1818ZM198.666 18.1818C200.598 18.1818 201.871 17 202.098 15.4545H200.757C200.507 16.4091 199.712 16.9773 198.666 16.9773C197.076 16.9773 196.053 15.6591 196.053 13.6364C196.053 11.6591 197.098 10.3636 198.666 10.3636C199.848 10.3636 200.553 11.0909 200.757 11.8864H202.098C201.871 10.25 200.485 9.15909 198.644 9.15909C196.28 9.15909 194.712 11.0227 194.712 13.6818C194.712 16.2955 196.212 18.1818 198.666 18.1818ZM203.271 10.5227H206.157V18H207.498V10.5227H210.362V9.27273H203.271V10.5227ZM214.333 18.2045C215.856 18.2045 216.651 17.3864 216.924 16.8182H216.992V18H218.333V12.25C218.333 9.47727 216.219 9.15909 215.106 9.15909C213.788 9.15909 212.288 9.61364 211.606 11.2045L212.878 11.6591C213.174 11.0227 213.873 10.3409 215.151 10.3409C216.384 10.3409 216.992 10.9943 216.992 12.1136V12.1591C216.992 12.8068 216.333 12.75 214.742 12.9545C213.123 13.1648 211.356 13.5227 211.356 15.5227C211.356 17.2273 212.674 18.2045 214.333 18.2045ZM214.538 17C213.469 17 212.697 16.5227 212.697 15.5909C212.697 14.5682 213.628 14.25 214.674 14.1136C215.242 14.0455 216.765 13.8864 216.992 13.6136V14.8409C216.992 15.9318 216.128 17 214.538 17ZM220.135 18H221.749L224.726 14.25H225.408V18H226.749V14.25H227.43L230.385 18H231.999L228.476 13.5682L231.953 9.27273H230.362L227.453 13H226.749V9.27273H225.408V13H224.68L221.771 9.27273H220.18L223.68 13.5682L220.135 18ZM237.114 18.1818C238.887 18.1818 240.183 17.2955 240.592 15.9773L239.296 15.6136C238.955 16.5227 238.166 16.9773 237.114 16.9773C235.541 16.9773 234.455 15.9602 234.393 14.0909H240.728V13.5227C240.728 10.2727 238.796 9.15909 236.978 9.15909C234.614 9.15909 233.046 11.0227 233.046 13.7045C233.046 16.3864 234.592 18.1818 237.114 18.1818ZM234.393 12.9318C234.484 11.5739 235.444 10.3636 236.978 10.3636C238.433 10.3636 239.364 11.4545 239.364 12.9318H234.393ZM247.441 16.1818L244.441 9.27273H242.668V18H244.009V11.1989L246.895 18H247.986L250.872 11.3239V18H252.213V9.27273H250.486L247.441 16.1818Z" fill="black"/>
<defs>
<linearGradient id="paint0_linear_786_32" x1="175.5" y1="25" x2="175.5" y2="57" gradientUnits="userSpaceOnUse">
<stop stop-color="#30DC2C"/>
<stop offset="1" stop-color="#04C700"/>
</linearGradient>
</defs>
</svg>
