<svg width="514" height="57" viewBox="0 0 514 57" fill="none" xmlns="http://www.w3.org/2000/svg">
<rect y="25" width="514" height="32" rx="8" fill="#D5D5D5"/>
<rect y="25" width="434" height="32" rx="8" fill="url(#paint0_linear_786_31)"/>
<path d="M16.016 45.336C16.656 45.336 16.976 45.608 16.976 46.152C16.976 46.7173 16.656 47 16.016 47H10.608C9.95733 47 9.632 46.7173 9.632 46.152C9.632 45.608 9.95733 45.336 10.608 45.336H12.272V38.04L10.736 38.984C10.5867 39.0693 10.4533 39.112 10.336 39.112C10.112 39.112 9.92 39.016 9.76 38.824C9.61067 38.632 9.536 38.4187 9.536 38.184C9.536 37.8747 9.67467 37.6347 9.952 37.464L12.432 35.928C12.752 35.736 13.056 35.64 13.344 35.64C13.6427 35.64 13.8827 35.7307 14.064 35.912C14.2453 36.0933 14.336 36.344 14.336 36.664V45.336H16.016ZM25.4618 45.336C26.1018 45.336 26.4218 45.608 26.4218 46.152C26.4218 46.7173 26.1018 47 25.4618 47H19.3817C19.1044 47 18.8857 46.92 18.7257 46.76C18.5657 46.5893 18.4857 46.3813 18.4857 46.136C18.4857 45.816 18.6084 45.528 18.8537 45.272L22.5017 41.352C22.9497 40.8613 23.2751 40.4133 23.4777 40.008C23.6911 39.592 23.7977 39.1813 23.7977 38.776C23.7977 38.2747 23.6537 37.8907 23.3657 37.624C23.0777 37.3573 22.6671 37.224 22.1337 37.224C21.6964 37.224 21.2697 37.3093 20.8537 37.48C20.4484 37.64 20.0377 37.864 19.6217 38.152C19.5151 38.2267 19.4084 38.2907 19.3017 38.344C19.1951 38.3867 19.0884 38.408 18.9817 38.408C18.8004 38.408 18.6404 38.3227 18.5017 38.152C18.3737 37.9813 18.3097 37.7787 18.3097 37.544C18.3097 37.384 18.3364 37.2453 18.3897 37.128C18.4537 37.0107 18.5497 36.8987 18.6777 36.792C19.1471 36.4187 19.6964 36.1253 20.3257 35.912C20.9551 35.688 21.5844 35.576 22.2137 35.576C23.3124 35.576 24.1871 35.8533 24.8377 36.408C25.4991 36.9627 25.8298 37.7093 25.8298 38.648C25.8298 39.2987 25.6911 39.912 25.4138 40.488C25.1364 41.0533 24.6671 41.688 24.0057 42.392L21.2377 45.336H25.4618ZM36.0469 47.144C34.7135 47.144 33.6949 46.6533 32.9909 45.672C32.2869 44.68 31.9349 43.24 31.9349 41.352C31.9349 39.4747 32.2869 38.0453 32.9909 37.064C33.6949 36.072 34.7135 35.576 36.0469 35.576C37.3802 35.576 38.3989 36.072 39.1029 37.064C39.8069 38.0453 40.1589 39.4747 40.1589 41.352C40.1589 43.2293 39.8069 44.664 39.1029 45.656C38.3989 46.648 37.3802 47.144 36.0469 47.144ZM36.0469 45.528C36.7722 45.528 37.3002 45.1973 37.6309 44.536C37.9615 43.864 38.1269 42.8027 38.1269 41.352C38.1269 39.8907 37.9615 38.8347 37.6309 38.184C37.3002 37.5227 36.7722 37.192 36.0469 37.192C35.3215 37.192 34.7935 37.5227 34.4629 38.184C34.1322 38.8453 33.9669 39.9013 33.9669 41.352C33.9669 42.8027 34.1322 43.864 34.4629 44.536C34.7935 45.1973 35.3215 45.528 36.0469 45.528ZM45.5406 47.144C44.2073 47.144 43.1886 46.6533 42.4846 45.672C41.7806 44.68 41.4286 43.24 41.4286 41.352C41.4286 39.4747 41.7806 38.0453 42.4846 37.064C43.1886 36.072 44.2073 35.576 45.5406 35.576C46.874 35.576 47.8926 36.072 48.5966 37.064C49.3006 38.0453 49.6526 39.4747 49.6526 41.352C49.6526 43.2293 49.3006 44.664 48.5966 45.656C47.8926 46.648 46.874 47.144 45.5406 47.144ZM45.5406 45.528C46.266 45.528 46.794 45.1973 47.1246 44.536C47.4553 43.864 47.6206 42.8027 47.6206 41.352C47.6206 39.8907 47.4553 38.8347 47.1246 38.184C46.794 37.5227 46.266 37.192 45.5406 37.192C44.8153 37.192 44.2873 37.5227 43.9566 38.184C43.626 38.8453 43.4606 39.9013 43.4606 41.352C43.4606 42.8027 43.626 43.864 43.9566 44.536C44.2873 45.1973 44.8153 45.528 45.5406 45.528ZM55.0344 47.144C53.701 47.144 52.6824 46.6533 51.9784 45.672C51.2744 44.68 50.9224 43.24 50.9224 41.352C50.9224 39.4747 51.2744 38.0453 51.9784 37.064C52.6824 36.072 53.701 35.576 55.0344 35.576C56.3677 35.576 57.3864 36.072 58.0904 37.064C58.7944 38.0453 59.1464 39.4747 59.1464 41.352C59.1464 43.2293 58.7944 44.664 58.0904 45.656C57.3864 46.648 56.3677 47.144 55.0344 47.144ZM55.0344 45.528C55.7597 45.528 56.2877 45.1973 56.6184 44.536C56.949 43.864 57.1144 42.8027 57.1144 41.352C57.1144 39.8907 56.949 38.8347 56.6184 38.184C56.2877 37.5227 55.7597 37.192 55.0344 37.192C54.309 37.192 53.781 37.5227 53.4504 38.184C53.1197 38.8453 52.9544 39.9013 52.9544 41.352C52.9544 42.8027 53.1197 43.864 53.4504 44.536C53.781 45.1973 54.309 45.528 55.0344 45.528ZM68.7719 47.144C67.4385 47.144 66.4199 46.6533 65.7159 45.672C65.0119 44.68 64.6599 43.24 64.6599 41.352C64.6599 39.4747 65.0119 38.0453 65.7159 37.064C66.4199 36.072 67.4385 35.576 68.7719 35.576C70.1052 35.576 71.1239 36.072 71.8279 37.064C72.5319 38.0453 72.8839 39.4747 72.8839 41.352C72.8839 43.2293 72.5319 44.664 71.8279 45.656C71.1239 46.648 70.1052 47.144 68.7719 47.144ZM68.7719 45.528C69.4972 45.528 70.0252 45.1973 70.3559 44.536C70.6865 43.864 70.8519 42.8027 70.8519 41.352C70.8519 39.8907 70.6865 38.8347 70.3559 38.184C70.0252 37.5227 69.4972 37.192 68.7719 37.192C68.0465 37.192 67.5185 37.5227 67.1879 38.184C66.8572 38.8453 66.6919 39.9013 66.6919 41.352C66.6919 42.8027 66.8572 43.864 67.1879 44.536C67.5185 45.1973 68.0465 45.528 68.7719 45.528ZM78.2656 47.144C76.9323 47.144 75.9136 46.6533 75.2096 45.672C74.5056 44.68 74.1536 43.24 74.1536 41.352C74.1536 39.4747 74.5056 38.0453 75.2096 37.064C75.9136 36.072 76.9323 35.576 78.2656 35.576C79.599 35.576 80.6176 36.072 81.3216 37.064C82.0256 38.0453 82.3776 39.4747 82.3776 41.352C82.3776 43.2293 82.0256 44.664 81.3216 45.656C80.6176 46.648 79.599 47.144 78.2656 47.144ZM78.2656 45.528C78.991 45.528 79.519 45.1973 79.8496 44.536C80.1803 43.864 80.3456 42.8027 80.3456 41.352C80.3456 39.8907 80.1803 38.8347 79.8496 38.184C79.519 37.5227 78.991 37.192 78.2656 37.192C77.5403 37.192 77.0123 37.5227 76.6816 38.184C76.351 38.8453 76.1856 39.9013 76.1856 41.352C76.1856 42.8027 76.351 43.864 76.6816 44.536C77.0123 45.1973 77.5403 45.528 78.2656 45.528ZM87.7594 47.144C86.426 47.144 85.4074 46.6533 84.7034 45.672C83.9994 44.68 83.6474 43.24 83.6474 41.352C83.6474 39.4747 83.9994 38.0453 84.7034 37.064C85.4074 36.072 86.426 35.576 87.7594 35.576C89.0927 35.576 90.1114 36.072 90.8154 37.064C91.5194 38.0453 91.8714 39.4747 91.8714 41.352C91.8714 43.2293 91.5194 44.664 90.8154 45.656C90.1114 46.648 89.0927 47.144 87.7594 47.144ZM87.7594 45.528C88.4847 45.528 89.0127 45.1973 89.3434 44.536C89.674 43.864 89.8394 42.8027 89.8394 41.352C89.8394 39.8907 89.674 38.8347 89.3434 38.184C89.0127 37.5227 88.4847 37.192 87.7594 37.192C87.034 37.192 86.506 37.5227 86.1754 38.184C85.8447 38.8453 85.6794 39.9013 85.6794 41.352C85.6794 42.8027 85.8447 43.864 86.1754 44.536C86.506 45.1973 87.034 45.528 87.7594 45.528ZM100.569 47.128C99.4062 47.128 98.4675 46.8987 97.7529 46.44C97.4115 46.2373 97.2409 45.9493 97.2409 45.576C97.2409 45.3627 97.2995 45.192 97.4169 45.064C97.5342 44.9253 97.6782 44.856 97.8489 44.856C98.0302 44.856 98.2809 44.9413 98.6009 45.112C98.9422 45.272 99.2515 45.3947 99.5289 45.48C99.8169 45.5653 100.18 45.608 100.617 45.608C101.065 45.608 101.412 45.5333 101.657 45.384C101.913 45.2347 102.041 45.0267 102.041 44.76C102.041 44.5787 101.988 44.4347 101.881 44.328C101.785 44.2213 101.604 44.1253 101.337 44.04C101.081 43.944 100.686 43.8373 100.153 43.72C99.2035 43.528 98.5209 43.256 98.1049 42.904C97.6995 42.552 97.4969 42.0667 97.4969 41.448C97.4969 40.9787 97.6355 40.5573 97.9129 40.184C98.1902 39.8 98.5689 39.5067 99.0489 39.304C99.5395 39.0907 100.094 38.984 100.713 38.984C101.161 38.984 101.593 39.0427 102.009 39.16C102.425 39.2667 102.798 39.4267 103.129 39.64C103.47 39.8533 103.641 40.136 103.641 40.488C103.641 40.7013 103.582 40.8827 103.465 41.032C103.348 41.1707 103.204 41.24 103.033 41.24C102.916 41.24 102.798 41.2187 102.681 41.176C102.574 41.1227 102.436 41.048 102.265 40.952C101.956 40.792 101.689 40.6747 101.465 40.6C101.241 40.5147 100.964 40.472 100.633 40.472C100.238 40.472 99.9235 40.552 99.6889 40.712C99.4649 40.872 99.3529 41.0907 99.3529 41.368C99.3529 41.6347 99.4702 41.8373 99.7049 41.976C99.9395 42.1147 100.393 42.2533 101.065 42.392C101.78 42.5413 102.34 42.712 102.745 42.904C103.15 43.096 103.438 43.336 103.609 43.624C103.79 43.912 103.881 44.28 103.881 44.728C103.881 45.4533 103.577 46.0347 102.969 46.472C102.372 46.9093 101.572 47.128 100.569 47.128ZM111.579 39.016C111.888 39.016 112.133 39.1013 112.315 39.272C112.496 39.4427 112.587 39.672 112.587 39.96V46.168C112.587 46.4453 112.491 46.6693 112.299 46.84C112.117 47.0107 111.877 47.096 111.579 47.096C111.291 47.096 111.061 47.016 110.891 46.856C110.72 46.696 110.635 46.4773 110.635 46.2V45.8C110.389 46.2267 110.059 46.5573 109.643 46.792C109.227 47.016 108.757 47.128 108.235 47.128C106.315 47.128 105.355 46.0507 105.355 43.896V39.96C105.355 39.672 105.445 39.4427 105.627 39.272C105.808 39.1013 106.048 39.016 106.347 39.016C106.656 39.016 106.901 39.1013 107.083 39.272C107.264 39.4427 107.355 39.672 107.355 39.96V43.912C107.355 44.4667 107.467 44.8773 107.691 45.144C107.915 45.4107 108.267 45.544 108.747 45.544C109.301 45.544 109.744 45.3627 110.075 45C110.416 44.6267 110.587 44.136 110.587 43.528V39.96C110.587 39.672 110.677 39.4427 110.859 39.272C111.04 39.1013 111.28 39.016 111.579 39.016ZM123.864 38.984C124.717 38.984 125.368 39.24 125.816 39.752C126.275 40.2533 126.504 41.0693 126.504 42.2V46.136C126.504 46.4453 126.408 46.6853 126.216 46.856C126.035 47.016 125.795 47.096 125.496 47.096C125.208 47.096 124.968 47.016 124.776 46.856C124.595 46.6853 124.504 46.4453 124.504 46.136V42.2C124.504 41.6133 124.397 41.1973 124.184 40.952C123.981 40.696 123.667 40.568 123.24 40.568C122.717 40.568 122.301 40.7493 121.992 41.112C121.683 41.464 121.528 41.9493 121.528 42.568V46.136C121.528 46.4453 121.432 46.6853 121.24 46.856C121.059 47.016 120.824 47.096 120.536 47.096C120.248 47.096 120.008 47.016 119.816 46.856C119.624 46.6853 119.528 46.4453 119.528 46.136V42.2C119.528 41.6133 119.421 41.1973 119.208 40.952C119.005 40.696 118.691 40.568 118.264 40.568C117.741 40.568 117.325 40.7493 117.016 41.112C116.717 41.464 116.568 41.9493 116.568 42.568V46.136C116.568 46.4453 116.472 46.6853 116.28 46.856C116.088 47.016 115.848 47.096 115.56 47.096C115.272 47.096 115.032 47.016 114.84 46.856C114.659 46.6853 114.568 46.4453 114.568 46.136V39.944C114.568 39.6453 114.664 39.416 114.856 39.256C115.048 39.096 115.288 39.016 115.576 39.016C115.853 39.016 116.077 39.096 116.248 39.256C116.429 39.4053 116.52 39.624 116.52 39.912V40.296C116.765 39.8693 117.091 39.544 117.496 39.32C117.912 39.096 118.387 38.984 118.92 38.984C120.093 38.984 120.877 39.4747 121.272 40.456C121.507 40.008 121.853 39.6507 122.312 39.384C122.771 39.1173 123.288 38.984 123.864 38.984Z" fill="white"/>
<path d="M10.7727 10C10.3409 7.61364 8.43182 6.20455 6.09091 6.20455C3.11364 6.20455 0.954545 8.5 0.954545 12.1818C0.954545 15.8636 3.11364 18.1591 6.09091 18.1591C8.43182 18.1591 10.3409 16.75 10.7727 14.3636H9.36364C9.02273 15.9773 7.63636 16.8409 6.09091 16.8409C3.97727 16.8409 2.31818 15.2045 2.31818 12.1818C2.31818 9.15909 3.97727 7.52273 6.09091 7.52273C7.63636 7.52273 9.02273 8.38636 9.36364 10H10.7727ZM12.7679 18H14.1088V10.5227H18.2906V18H19.6315V9.27273H12.7679V18ZM25.6395 18.1818C27.4122 18.1818 28.7077 17.2955 29.1168 15.9773L27.8213 15.6136C27.4804 16.5227 26.6906 16.9773 25.6395 16.9773C24.0656 16.9773 22.9804 15.9602 22.9179 14.0909H29.2531V13.5227C29.2531 10.2727 27.3213 9.15909 25.5031 9.15909C23.1395 9.15909 21.5713 11.0227 21.5713 13.7045C21.5713 16.3864 23.1168 18.1818 25.6395 18.1818ZM22.9179 12.9318C23.0088 11.5739 23.969 10.3636 25.5031 10.3636C26.9577 10.3636 27.8895 11.4545 27.8895 12.9318H22.9179ZM38.0565 9.27273H36.7156V16.75H32.5338V9.27273H31.1929V18H37.9429V20.8182H39.2838V16.75H38.0565V9.27273ZM42.5901 16.0227V9.27273H41.2491V18H42.8173L46.9991 11.25V18H48.3401V9.27273H46.7946L42.5901 16.0227ZM53.2642 18.2045C54.7869 18.2045 55.5824 17.3864 55.8551 16.8182H55.9233V18H57.2642V12.25C57.2642 9.47727 55.1506 9.15909 54.0369 9.15909C52.7188 9.15909 51.2188 9.61364 50.5369 11.2045L51.8097 11.6591C52.1051 11.0227 52.804 10.3409 54.0824 10.3409C55.3153 10.3409 55.9233 10.9943 55.9233 12.1136V12.1591C55.9233 12.8068 55.2642 12.75 53.6733 12.9545C52.054 13.1648 50.2869 13.5227 50.2869 15.5227C50.2869 17.2273 51.6051 18.2045 53.2642 18.2045ZM53.4688 17C52.4006 17 51.6278 16.5227 51.6278 15.5909C51.6278 14.5682 52.5597 14.25 53.6051 14.1136C54.1733 14.0455 55.696 13.8864 55.9233 13.6136V14.8409C55.9233 15.9318 55.0597 17 53.4688 17ZM58.8389 18H59.2935C61.2253 18 61.7821 16.5 61.9071 13.6364L62.0435 10.5227H65.248V18H66.5889V9.27273H60.7707L60.6116 13.1364C60.498 16.0682 60.2026 16.75 59.1571 16.75H58.8389V18ZM70.2901 16.0227V9.27273H68.9492V18H70.5173L74.6992 11.25V18H76.0401V9.27273H74.4946L70.2901 16.0227ZM81.9415 18.1818C83.8733 18.1818 85.146 17 85.3733 15.4545H84.0324C83.7824 16.4091 82.9869 16.9773 81.9415 16.9773C80.3506 16.9773 79.3278 15.6591 79.3278 13.6364C79.3278 11.6591 80.3733 10.3636 81.9415 10.3636C83.1233 10.3636 83.8278 11.0909 84.0324 11.8864H85.3733C85.146 10.25 83.7597 9.15909 81.9187 9.15909C79.5551 9.15909 77.9869 11.0227 77.9869 13.6818C77.9869 16.2955 79.4869 18.1818 81.9415 18.1818ZM86.546 10.5227H89.4324V18H90.7733V10.5227H93.6369V9.27273H86.546V10.5227ZM99.8929 18H104.007C105.779 18 106.847 17 106.847 15.6591C106.847 14.2898 105.808 13.5511 104.847 13.4091C105.83 13.2045 106.529 12.6534 106.529 11.5909C106.529 10.1989 105.336 9.27273 103.461 9.27273H99.8929V18ZM101.166 16.7727V14.0909H104.007C104.927 14.0909 105.484 14.642 105.484 15.5455C105.484 16.3068 104.927 16.7727 104.007 16.7727H101.166ZM101.166 12.9318V10.5H103.461C104.535 10.5 105.188 10.9489 105.188 11.6818C105.188 12.4602 104.535 12.9318 103.461 12.9318H101.166ZM110.118 12.4318V9.27273H108.777V18H112.436C114.482 18 115.595 16.75 115.595 15.1818C115.595 13.5909 114.482 12.4318 112.436 12.4318H110.118ZM116.982 18H118.323V9.27273H116.982V18ZM110.118 13.6818H112.436C113.499 13.6818 114.255 14.3295 114.255 15.25C114.255 16.1307 113.499 16.75 112.436 16.75H110.118V13.6818ZM124.223 18.1818C126.155 18.1818 127.427 17 127.655 15.4545H126.314C126.064 16.4091 125.268 16.9773 124.223 16.9773C122.632 16.9773 121.609 15.6591 121.609 13.6364C121.609 11.6591 122.655 10.3636 124.223 10.3636C125.405 10.3636 126.109 11.0909 126.314 11.8864H127.655C127.427 10.25 126.041 9.15909 124.2 9.15909C121.836 9.15909 120.268 11.0227 120.268 13.6818C120.268 16.2955 121.768 18.1818 124.223 18.1818ZM129.515 9.27273V18H140.128V9.27273H138.788V16.75H135.492V9.27273H134.151V16.75H130.856V9.27273H129.515ZM146.136 18.1818C147.909 18.1818 149.205 17.2955 149.614 15.9773L148.318 15.6136C147.977 16.5227 147.188 16.9773 146.136 16.9773C144.562 16.9773 143.477 15.9602 143.415 14.0909H149.75V13.5227C149.75 10.2727 147.818 9.15909 146 9.15909C143.636 9.15909 142.068 11.0227 142.068 13.7045C142.068 16.3864 143.614 18.1818 146.136 18.1818ZM143.415 12.9318C143.506 11.5739 144.466 10.3636 146 10.3636C147.455 10.3636 148.386 11.4545 148.386 12.9318H143.415ZM153.031 16.0227V9.27273H151.69V18H153.258L157.44 11.25V18H158.781V9.27273H157.235L153.031 16.0227ZM156.349 6.36364C156.349 6.95455 156.031 7.47727 155.235 7.47727C154.44 7.47727 154.144 6.95455 154.144 6.36364H152.894C152.894 7.59091 153.803 8.45455 155.235 8.45455C156.69 8.45455 157.599 7.59091 157.599 6.36364H156.349ZM165.537 18H166.878V14.3182H168.082L170.946 18H172.673L169.105 13.4773L172.628 9.27273H170.9L167.764 13.0682H166.878V9.27273H165.537V18ZM176.599 18.2045C178.121 18.2045 178.917 17.3864 179.189 16.8182H179.258V18H180.599V12.25C180.599 9.47727 178.485 9.15909 177.371 9.15909C176.053 9.15909 174.553 9.61364 173.871 11.2045L175.144 11.6591C175.439 11.0227 176.138 10.3409 177.417 10.3409C178.65 10.3409 179.258 10.9943 179.258 12.1136V12.1591C179.258 12.8068 178.599 12.75 177.008 12.9545C175.388 13.1648 173.621 13.5227 173.621 15.5227C173.621 17.2273 174.939 18.2045 176.599 18.2045ZM176.803 17C175.735 17 174.962 16.5227 174.962 15.5909C174.962 14.5682 175.894 14.25 176.939 14.1136C177.508 14.0455 179.03 13.8864 179.258 13.6136V14.8409C179.258 15.9318 178.394 17 176.803 17ZM181.759 10.5227H184.645V18H185.986V10.5227H188.849V9.27273H181.759V10.5227ZM193.911 18.1818C195.684 18.1818 196.98 17.2955 197.389 15.9773L196.093 15.6136C195.752 16.5227 194.962 16.9773 193.911 16.9773C192.337 16.9773 191.252 15.9602 191.19 14.0909H197.525V13.5227C197.525 10.2727 195.593 9.15909 193.775 9.15909C191.411 9.15909 189.843 11.0227 189.843 13.7045C189.843 16.3864 191.389 18.1818 193.911 18.1818ZM191.19 12.9318C191.281 11.5739 192.241 10.3636 193.775 10.3636C195.23 10.3636 196.161 11.4545 196.161 12.9318H191.19ZM204.851 9.27273H199.465V18H200.806V10.5227H204.851V9.27273ZM209.801 18.1818C212.164 18.1818 213.755 16.3864 213.755 13.6818C213.755 10.9545 212.164 9.15909 209.801 9.15909C207.437 9.15909 205.846 10.9545 205.846 13.6818C205.846 16.3864 207.437 18.1818 209.801 18.1818ZM209.801 16.9773C208.005 16.9773 207.187 15.4318 207.187 13.6818C207.187 11.9318 208.005 10.3636 209.801 10.3636C211.596 10.3636 212.414 11.9318 212.414 13.6818C212.414 15.4318 211.596 16.9773 209.801 16.9773ZM215.702 21.2727H217.043V16.6591H217.157C217.452 17.1364 218.02 18.1818 219.702 18.1818C221.884 18.1818 223.407 16.4318 223.407 13.6591C223.407 10.9091 221.884 9.15909 219.68 9.15909C217.975 9.15909 217.452 10.2045 217.157 10.6591H216.998V9.27273H215.702V21.2727ZM217.02 13.6364C217.02 11.6818 217.884 10.3636 219.52 10.3636C221.225 10.3636 222.066 11.7955 222.066 13.6364C222.066 15.5 221.202 16.9773 219.52 16.9773C217.907 16.9773 217.02 15.6136 217.02 13.6364ZM226.693 16.0227V9.27273H225.352V18H226.92L231.102 11.25V18H232.443V9.27273H230.898L226.693 16.0227ZM236.14 16.0227V9.27273H234.799V18H236.367L240.549 11.25V18H241.89V9.27273H240.345L236.14 16.0227Z" fill="black"/>
<defs>
<linearGradient id="paint0_linear_786_31" x1="217" y1="25" x2="217" y2="57" gradientUnits="userSpaceOnUse">
<stop stop-color="#30DC2C"/>
<stop offset="1" stop-color="#04C700"/>
</linearGradient>
</defs>
</svg>
