<svg width="433" height="48" viewBox="0 0 433 48" fill="none" xmlns="http://www.w3.org/2000/svg">
<g filter="url(#filter0_d_789_80)">
<g filter="url(#filter1_d_789_80)">
<path fill-rule="evenodd" clip-rule="evenodd" d="M4 9C4 5.68629 6.68629 3 10 3H128C131.314 3 134 5.68629 134 9V37C134 40.3137 131.314 43 128 43H10C6.68629 43 4 40.3137 4 37V9Z" fill="white"/>
</g>
<g opacity="0.8">
<path fill-rule="evenodd" clip-rule="evenodd" d="M18.75 28.005V30.7917C18.75 31.0483 18.9517 31.25 19.2083 31.25H21.995C22.1142 31.25 22.2333 31.2042 22.3158 31.1125L32.3258 21.1117L28.8883 17.6742L18.8875 27.675C18.7958 27.7667 18.75 27.8767 18.75 28.005ZM34.9842 18.4533C35.3417 18.0958 35.3417 17.5183 34.9842 17.1608L32.8392 15.0158C32.4817 14.6583 31.9042 14.6583 31.5467 15.0158L29.8692 16.6933L33.3067 20.1308L34.9842 18.4533Z" fill="#A7AAAE"/>
</g>
<path d="M49.1477 29H56.7614V27.233H51.2557V24.0568H56.3239V22.2898H51.2557V19.1307H56.7159V17.3636H49.1477V29ZM61.9142 29.1534C63.4142 29.1534 64.0903 28.2614 64.4142 27.625H64.5392V29H66.5619V17.3636H64.4994V21.7159H64.4142C64.1017 21.0852 63.4597 20.1591 61.9199 20.1591C59.9028 20.1591 58.3176 21.7386 58.3176 24.6477C58.3176 27.5227 59.8574 29.1534 61.9142 29.1534ZM62.4881 27.4659C61.1301 27.4659 60.4142 26.2727 60.4142 24.6364C60.4142 23.0114 61.1187 21.8466 62.4881 21.8466C63.8119 21.8466 64.5392 22.9432 64.5392 24.6364C64.5392 26.3295 63.8006 27.4659 62.4881 27.4659ZM68.6537 29H70.7105V20.2727H68.6537V29ZM69.6878 19.0341C70.3412 19.0341 70.8753 18.5341 70.8753 17.9205C70.8753 17.3011 70.3412 16.8011 69.6878 16.8011C69.0287 16.8011 68.4946 17.3011 68.4946 17.9205C68.4946 18.5341 69.0287 19.0341 69.6878 19.0341ZM77.0835 20.2727H75.3619V18.1818H73.3051V20.2727H72.0665V21.8636H73.3051V26.7159C73.2938 28.358 74.4869 29.1648 76.0324 29.1193C76.6176 29.1023 77.021 28.9886 77.2426 28.9148L76.896 27.3068C76.7824 27.3352 76.5494 27.3864 76.2938 27.3864C75.7767 27.3864 75.3619 27.2045 75.3619 26.375V21.8636H77.0835V20.2727ZM82.5724 29H84.6293V20.2727H82.5724V29ZM83.6065 19.0341C84.2599 19.0341 84.794 18.5341 84.794 17.9205C84.794 17.3011 84.2599 16.8011 83.6065 16.8011C82.9474 16.8011 82.4134 17.3011 82.4134 17.9205C82.4134 18.5341 82.9474 19.0341 83.6065 19.0341ZM88.7011 23.8864C88.7011 22.625 89.4625 21.8977 90.5477 21.8977C91.6102 21.8977 92.2466 22.5966 92.2466 23.7614V29H94.3034V23.4432C94.3091 21.3523 93.1159 20.1591 91.3148 20.1591C90.008 20.1591 89.1102 20.7841 88.7125 21.7557H88.6102V20.2727H86.6443V29H88.7011V23.8864ZM100.715 20.2727H98.9023V19.5852C98.9023 18.9034 99.1864 18.5227 99.9534 18.5227C100.277 18.5227 100.55 18.5966 100.72 18.6477L101.135 17.0568C100.868 16.9659 100.283 16.8182 99.5727 16.8182C98.0557 16.8182 96.8455 17.6875 96.8455 19.4489V20.2727H95.5557V21.8636H96.8455V29H98.9023V21.8636H100.715V20.2727ZM105.704 29.1705C108.261 29.1705 109.886 27.3693 109.886 24.6705C109.886 21.9659 108.261 20.1591 105.704 20.1591C103.147 20.1591 101.522 21.9659 101.522 24.6705C101.522 27.3693 103.147 29.1705 105.704 29.1705ZM105.716 27.5227C104.301 27.5227 103.608 26.2614 103.608 24.6648C103.608 23.0682 104.301 21.7898 105.716 21.7898C107.108 21.7898 107.801 23.0682 107.801 24.6648C107.801 26.2614 107.108 27.5227 105.716 27.5227Z" fill="#6E7381"/>
</g>
<g filter="url(#filter2_d_789_80)">
<g filter="url(#filter3_d_789_80)">
<path fill-rule="evenodd" clip-rule="evenodd" d="M150 9C150 5.68629 152.686 3 156 3H286C289.314 3 292 5.68629 292 9V37C292 40.3137 289.314 43 286 43H156C152.686 43 150 40.3137 150 37V9Z" fill="white"/>
</g>
<g opacity="0.8">
<path fill-rule="evenodd" clip-rule="evenodd" d="M179.417 23.9167V28.5C179.417 29.0042 179.004 29.4167 178.5 29.4167H167.5C166.996 29.4167 166.583 29.0042 166.583 28.5V23.9167C166.583 23.4125 166.171 23 165.667 23C165.162 23 164.75 23.4125 164.75 23.9167V29.4167C164.75 30.425 165.575 31.25 166.583 31.25H179.417C180.425 31.25 181.25 30.425 181.25 29.4167V23.9167C181.25 23.4125 180.837 23 180.333 23C179.829 23 179.417 23.4125 179.417 23.9167ZM173.917 23.6142L175.64 21.8908C175.997 21.5333 176.575 21.5333 176.932 21.8908C177.29 22.2483 177.29 22.8258 176.932 23.1833L173.642 26.4742C173.284 26.8317 172.707 26.8317 172.349 26.4742L169.058 23.1833C168.701 22.8258 168.701 22.2483 169.058 21.8908C169.416 21.5333 169.993 21.5333 170.351 21.8908L172.083 23.6142V15.6667C172.083 15.1625 172.496 14.75 173 14.75C173.504 14.75 173.917 15.1625 173.917 15.6667V23.6142Z" fill="#A7AAAE"/>
</g>
<path d="M199.091 29C202.636 29 204.739 26.8068 204.739 23.1705C204.739 19.5455 202.636 17.3636 199.17 17.3636H195.148V29H199.091ZM197.256 27.1761V19.1875H199.051C201.415 19.1875 202.648 20.5057 202.648 23.1705C202.648 25.8466 201.415 27.1761 198.989 27.1761H197.256ZM210.357 29.1705C212.914 29.1705 214.539 27.3693 214.539 24.6705C214.539 21.9659 212.914 20.1591 210.357 20.1591C207.801 20.1591 206.176 21.9659 206.176 24.6705C206.176 27.3693 207.801 29.1705 210.357 29.1705ZM210.369 27.5227C208.954 27.5227 208.261 26.2614 208.261 24.6648C208.261 23.0682 208.954 21.7898 210.369 21.7898C211.761 21.7898 212.454 23.0682 212.454 24.6648C212.454 26.2614 211.761 27.5227 210.369 27.5227ZM217.752 29H219.899L221.536 23.1023H221.655L223.291 29H225.434L227.905 20.2727H225.803L224.291 26.375H224.206L222.638 20.2727H220.564L218.996 26.4091H218.916L217.382 20.2727H215.286L217.752 29ZM231.298 23.8864C231.298 22.625 232.059 21.8977 233.145 21.8977C234.207 21.8977 234.843 22.5966 234.843 23.7614V29H236.9V23.4432C236.906 21.3523 235.713 20.1591 233.912 20.1591C232.605 20.1591 231.707 20.7841 231.309 21.7557H231.207V20.2727H229.241V29H231.298V23.8864ZM240.948 17.3636H238.891V29H240.948V17.3636ZM246.77 29.1705C249.327 29.1705 250.952 27.3693 250.952 24.6705C250.952 21.9659 249.327 20.1591 246.77 20.1591C244.213 20.1591 242.588 21.9659 242.588 24.6705C242.588 27.3693 244.213 29.1705 246.77 29.1705ZM246.781 27.5227C245.366 27.5227 244.673 26.2614 244.673 24.6648C244.673 23.0682 245.366 21.7898 246.781 21.7898C248.173 21.7898 248.866 23.0682 248.866 24.6648C248.866 26.2614 248.173 27.5227 246.781 27.5227ZM255.109 29.1761C256.478 29.1761 257.296 28.5341 257.671 27.8011H257.739V29H259.717V23.1591C259.717 20.8523 257.836 20.1591 256.171 20.1591C254.336 20.1591 252.927 20.9773 252.472 22.5682L254.393 22.8409C254.597 22.2443 255.177 21.733 256.183 21.733C257.137 21.733 257.66 22.2216 257.66 23.0795V23.1136C257.66 23.7045 257.041 23.733 255.501 23.8977C253.808 24.0795 252.188 24.5852 252.188 26.5511C252.188 28.267 253.444 29.1761 255.109 29.1761ZM255.643 27.6648C254.785 27.6648 254.171 27.2727 254.171 26.517C254.171 25.7273 254.859 25.3977 255.779 25.267C256.319 25.1932 257.399 25.0568 257.666 24.8409V25.8693C257.666 26.8409 256.882 27.6648 255.643 27.6648ZM264.924 29.1534C266.424 29.1534 267.1 28.2614 267.424 27.625H267.549V29H269.571V17.3636H267.509V21.7159H267.424C267.111 21.0852 266.469 20.1591 264.929 20.1591C262.912 20.1591 261.327 21.7386 261.327 24.6477C261.327 27.5227 262.867 29.1534 264.924 29.1534ZM265.497 27.4659C264.139 27.4659 263.424 26.2727 263.424 24.6364C263.424 23.0114 264.128 21.8466 265.497 21.8466C266.821 21.8466 267.549 22.9432 267.549 24.6364C267.549 26.3295 266.81 27.4659 265.497 27.4659Z" fill="#6E7381"/>
</g>
<g filter="url(#filter4_d_789_80)">
<g filter="url(#filter5_d_789_80)">
<path fill-rule="evenodd" clip-rule="evenodd" d="M305 9C305 5.68629 307.686 3 311 3H423C426.314 3 429 5.68629 429 9V37C429 40.3137 426.314 43 423 43H311C307.686 43 305 40.3137 305 37V9Z" fill="white"/>
</g>
<g opacity="0.8">
<path fill-rule="evenodd" clip-rule="evenodd" d="M320.117 30.7L336.113 23.8433C336.856 23.5225 336.856 22.4775 336.113 22.1567L320.117 15.3C319.512 15.0342 318.843 15.4833 318.843 16.1342L318.834 20.36C318.834 20.8183 319.173 21.2125 319.631 21.2675L332.584 23L319.631 24.7233C319.173 24.7875 318.834 25.1817 318.834 25.64L318.843 29.8658C318.843 30.5167 319.512 30.9658 320.117 30.7Z" fill="#A7AAAE"/>
</g>
<path d="M356.472 20.5625H358.5C358.46 18.5966 356.784 17.2045 354.307 17.2045C351.864 17.2045 350.028 18.5795 350.034 20.6364C350.034 22.3068 351.222 23.267 353.136 23.7614L354.46 24.1023C355.716 24.4205 356.545 24.8125 356.551 25.7159C356.545 26.7102 355.602 27.375 354.227 27.375C352.909 27.375 351.886 26.7841 351.801 25.5625H349.727C349.812 27.875 351.534 29.1761 354.244 29.1761C357.034 29.1761 358.653 27.7841 358.659 25.733C358.653 23.7159 356.989 22.7955 355.239 22.3807L354.148 22.108C353.193 21.8807 352.159 21.4773 352.17 20.5057C352.176 19.6307 352.96 18.9886 354.278 18.9886C355.534 18.9886 356.364 19.5739 356.472 20.5625ZM364.211 29.1705C366.245 29.1705 367.643 28.1761 368.007 26.6591L366.086 26.4432C365.808 27.1818 365.126 27.5682 364.239 27.5682C362.91 27.5682 362.029 26.6932 362.012 25.1989H368.092V24.5682C368.092 21.5057 366.251 20.1591 364.103 20.1591C361.603 20.1591 359.972 21.9943 359.972 24.6875C359.972 27.4261 361.58 29.1705 364.211 29.1705ZM362.018 23.8125C362.08 22.6989 362.904 21.7614 364.132 21.7614C365.313 21.7614 366.109 22.625 366.12 23.8125H362.018ZM371.789 23.8864C371.789 22.625 372.55 21.8977 373.635 21.8977C374.698 21.8977 375.334 22.5966 375.334 23.7614V29H377.391V23.4432C377.397 21.3523 376.203 20.1591 374.402 20.1591C373.095 20.1591 372.198 20.7841 371.8 21.7557H371.698V20.2727H369.732V29H371.789V23.8864ZM382.62 29.1534C384.12 29.1534 384.797 28.2614 385.12 27.625H385.245V29H387.268V17.3636H385.206V21.7159H385.12C384.808 21.0852 384.166 20.1591 382.626 20.1591C380.609 20.1591 379.024 21.7386 379.024 24.6477C379.024 27.5227 380.564 29.1534 382.62 29.1534ZM383.194 27.4659C381.836 27.4659 381.12 26.2727 381.12 24.6364C381.12 23.0114 381.825 21.8466 383.194 21.8466C384.518 21.8466 385.245 22.9432 385.245 24.6364C385.245 26.3295 384.507 27.4659 383.194 27.4659ZM397.587 20.2727H395.865V18.1818H393.808V20.2727H392.57V21.8636H393.808V26.7159C393.797 28.358 394.99 29.1648 396.536 29.1193C397.121 29.1023 397.524 28.9886 397.746 28.9148L397.399 27.3068C397.286 27.3352 397.053 27.3864 396.797 27.3864C396.28 27.3864 395.865 27.2045 395.865 26.375V21.8636H397.587V20.2727ZM402.92 29.1705C405.477 29.1705 407.102 27.3693 407.102 24.6705C407.102 21.9659 405.477 20.1591 402.92 20.1591C400.363 20.1591 398.738 21.9659 398.738 24.6705C398.738 27.3693 400.363 29.1705 402.92 29.1705ZM402.931 27.5227C401.516 27.5227 400.823 26.2614 400.823 24.6648C400.823 23.0682 401.516 21.7898 402.931 21.7898C404.323 21.7898 405.016 23.0682 405.016 24.6648C405.016 26.2614 404.323 27.5227 402.931 27.5227Z" fill="#6E7381"/>
</g>
<defs>
<filter id="filter0_d_789_80" x="0" y="0" width="138" height="48" filterUnits="userSpaceOnUse" color-interpolation-filters="sRGB">
<feFlood flood-opacity="0" result="BackgroundImageFix"/>
<feColorMatrix in="SourceAlpha" type="matrix" values="0 0 0 0 0 0 0 0 0 0 0 0 0 0 0 0 0 0 127 0" result="hardAlpha"/>
<feOffset dy="1"/>
<feGaussianBlur stdDeviation="2"/>
<feColorMatrix type="matrix" values="0 0 0 0 0.0627451 0 0 0 0 0 0 0 0 0 0 0 0 0 0.15 0"/>
<feBlend mode="normal" in2="BackgroundImageFix" result="effect1_dropShadow_789_80"/>
<feBlend mode="normal" in="SourceGraphic" in2="effect1_dropShadow_789_80" result="shape"/>
</filter>
<filter id="filter1_d_789_80" x="2" y="2" width="134" height="44" filterUnits="userSpaceOnUse" color-interpolation-filters="sRGB">
<feFlood flood-opacity="0" result="BackgroundImageFix"/>
<feColorMatrix in="SourceAlpha" type="matrix" values="0 0 0 0 0 0 0 0 0 0 0 0 0 0 0 0 0 0 127 0" result="hardAlpha"/>
<feOffset dy="1"/>
<feGaussianBlur stdDeviation="1"/>
<feColorMatrix type="matrix" values="0 0 0 0 0.220833 0 0 0 0 0.220833 0 0 0 0 0.220833 0 0 0 0.07 0"/>
<feBlend mode="normal" in2="BackgroundImageFix" result="effect1_dropShadow_789_80"/>
<feBlend mode="normal" in="SourceGraphic" in2="effect1_dropShadow_789_80" result="shape"/>
</filter>
<filter id="filter2_d_789_80" x="146" y="0" width="150" height="48" filterUnits="userSpaceOnUse" color-interpolation-filters="sRGB">
<feFlood flood-opacity="0" result="BackgroundImageFix"/>
<feColorMatrix in="SourceAlpha" type="matrix" values="0 0 0 0 0 0 0 0 0 0 0 0 0 0 0 0 0 0 127 0" result="hardAlpha"/>
<feOffset dy="1"/>
<feGaussianBlur stdDeviation="2"/>
<feColorMatrix type="matrix" values="0 0 0 0 0.0627451 0 0 0 0 0 0 0 0 0 0 0 0 0 0.15 0"/>
<feBlend mode="normal" in2="BackgroundImageFix" result="effect1_dropShadow_789_80"/>
<feBlend mode="normal" in="SourceGraphic" in2="effect1_dropShadow_789_80" result="shape"/>
</filter>
<filter id="filter3_d_789_80" x="148" y="2" width="146" height="44" filterUnits="userSpaceOnUse" color-interpolation-filters="sRGB">
<feFlood flood-opacity="0" result="BackgroundImageFix"/>
<feColorMatrix in="SourceAlpha" type="matrix" values="0 0 0 0 0 0 0 0 0 0 0 0 0 0 0 0 0 0 127 0" result="hardAlpha"/>
<feOffset dy="1"/>
<feGaussianBlur stdDeviation="1"/>
<feColorMatrix type="matrix" values="0 0 0 0 0.220833 0 0 0 0 0.220833 0 0 0 0 0.220833 0 0 0 0.07 0"/>
<feBlend mode="normal" in2="BackgroundImageFix" result="effect1_dropShadow_789_80"/>
<feBlend mode="normal" in="SourceGraphic" in2="effect1_dropShadow_789_80" result="shape"/>
</filter>
<filter id="filter4_d_789_80" x="301" y="0" width="132" height="48" filterUnits="userSpaceOnUse" color-interpolation-filters="sRGB">
<feFlood flood-opacity="0" result="BackgroundImageFix"/>
<feColorMatrix in="SourceAlpha" type="matrix" values="0 0 0 0 0 0 0 0 0 0 0 0 0 0 0 0 0 0 127 0" result="hardAlpha"/>
<feOffset dy="1"/>
<feGaussianBlur stdDeviation="2"/>
<feColorMatrix type="matrix" values="0 0 0 0 0.0627451 0 0 0 0 0 0 0 0 0 0 0 0 0 0.15 0"/>
<feBlend mode="normal" in2="BackgroundImageFix" result="effect1_dropShadow_789_80"/>
<feBlend mode="normal" in="SourceGraphic" in2="effect1_dropShadow_789_80" result="shape"/>
</filter>
<filter id="filter5_d_789_80" x="303" y="2" width="128" height="44" filterUnits="userSpaceOnUse" color-interpolation-filters="sRGB">
<feFlood flood-opacity="0" result="BackgroundImageFix"/>
<feColorMatrix in="SourceAlpha" type="matrix" values="0 0 0 0 0 0 0 0 0 0 0 0 0 0 0 0 0 0 127 0" result="hardAlpha"/>
<feOffset dy="1"/>
<feGaussianBlur stdDeviation="1"/>
<feColorMatrix type="matrix" values="0 0 0 0 0.220833 0 0 0 0 0.220833 0 0 0 0 0.220833 0 0 0 0.07 0"/>
<feBlend mode="normal" in2="BackgroundImageFix" result="effect1_dropShadow_789_80"/>
<feBlend mode="normal" in="SourceGraphic" in2="effect1_dropShadow_789_80" result="shape"/>
</filter>
</defs>
</svg>
