<svg width="589" height="480" viewBox="0 0 589 480" fill="none" xmlns="http://www.w3.org/2000/svg">
<rect width="589" height="480" rx="16" fill="#F2F2F2"/>
<path d="M36.4 50.2C35.5067 50.2 34.6333 50.1 33.78 49.9C32.94 49.7 32.2067 49.4 31.58 49C31.2733 48.8 31.0867 48.5533 31.02 48.26C30.9533 47.9667 30.9733 47.6933 31.08 47.44C31.2 47.1733 31.38 46.9933 31.62 46.9C31.8733 46.7933 32.16 46.84 32.48 47.04C33.0667 47.3867 33.6867 47.64 34.34 47.8C34.9933 47.96 35.68 48.04 36.4 48.04C37.4533 48.04 38.22 47.8667 38.7 47.52C39.18 47.16 39.42 46.7 39.42 46.14C39.42 45.6733 39.2467 45.3067 38.9 45.04C38.5667 44.7733 37.9867 44.5533 37.16 44.38L34.96 43.92C32.4533 43.3867 31.2 42.1 31.2 40.06C31.2 39.18 31.4333 38.4133 31.9 37.76C32.3667 37.1067 33.0133 36.6 33.84 36.24C34.6667 35.88 35.62 35.7 36.7 35.7C37.5 35.7 38.26 35.8 38.98 36C39.7 36.2 40.3467 36.4933 40.92 36.88C41.1867 37.0667 41.3467 37.3 41.4 37.58C41.4533 37.8467 41.42 38.1 41.3 38.34C41.18 38.5667 40.9867 38.7267 40.72 38.82C40.4667 38.9 40.1667 38.84 39.82 38.64C39.3267 38.36 38.8267 38.16 38.32 38.04C37.8133 37.92 37.2667 37.86 36.68 37.86C35.76 37.86 35.04 38.0533 34.52 38.44C34 38.8267 33.74 39.3333 33.74 39.96C33.74 40.44 33.9 40.8267 34.22 41.12C34.54 41.4 35.0867 41.62 35.86 41.78L38.04 42.24C39.36 42.52 40.34 42.96 40.98 43.56C41.6333 44.16 41.96 44.96 41.96 45.96C41.96 46.8 41.7333 47.54 41.28 48.18C40.8267 48.82 40.18 49.32 39.34 49.68C38.5133 50.0267 37.5333 50.2 36.4 50.2ZM44.9572 38.22C44.4905 38.22 44.1239 38.1067 43.8572 37.88C43.6039 37.64 43.4772 37.3133 43.4772 36.9C43.4772 36.4733 43.6039 36.1467 43.8572 35.92C44.1239 35.6933 44.4905 35.58 44.9572 35.58C45.9439 35.58 46.4372 36.02 46.4372 36.9C46.4372 37.78 45.9439 38.22 44.9572 38.22ZM44.9572 50.14C44.5572 50.14 44.2505 50.02 44.0372 49.78C43.8239 49.54 43.7172 49.2067 43.7172 48.78V41.44C43.7172 40.5333 44.1305 40.08 44.9572 40.08C45.7972 40.08 46.2172 40.5333 46.2172 41.44V48.78C46.2172 49.2067 46.1105 49.54 45.8972 49.78C45.6839 50.02 45.3705 50.14 44.9572 50.14ZM49.2148 50C48.8682 50 48.6082 49.8933 48.4348 49.68C48.2615 49.4533 48.1882 49.1867 48.2148 48.88C48.2415 48.5733 48.3815 48.28 48.6348 48L53.3348 42.1H49.0948C48.4548 42.1 48.1348 41.7867 48.1348 41.16C48.1348 40.5333 48.4548 40.22 49.0948 40.22H55.0148C55.4148 40.22 55.7082 40.3267 55.8948 40.54C56.0948 40.7533 56.1815 41.0133 56.1548 41.32C56.1415 41.6133 56.0082 41.9 55.7548 42.18L50.9948 48.12H55.4748C56.1148 48.12 56.4348 48.4333 56.4348 49.06C56.4348 49.6867 56.1148 50 55.4748 50H49.2148ZM61.4522 50.2C60.5989 50.2 59.8455 49.9933 59.1922 49.58C58.5522 49.1667 58.0522 48.58 57.6922 47.82C57.3322 47.0467 57.1522 46.14 57.1522 45.1C57.1522 44.0467 57.3322 43.1467 57.6922 42.4C58.0522 41.64 58.5522 41.0533 59.1922 40.64C59.8455 40.2267 60.5989 40.02 61.4522 40.02C62.1455 40.02 62.7722 40.1733 63.3322 40.48C63.8922 40.7867 64.3122 41.1933 64.5922 41.7V37C64.5922 36.16 65.0055 35.74 65.8322 35.74C66.6722 35.74 67.0922 36.16 67.0922 37V48.88C67.0922 49.7333 66.6789 50.16 65.8522 50.16C65.0255 50.16 64.6122 49.7333 64.6122 48.88V48.46C64.3322 48.9933 63.9122 49.42 63.3522 49.74C62.7922 50.0467 62.1589 50.2 61.4522 50.2ZM62.1522 48.3C62.8989 48.3 63.4989 48.0333 63.9522 47.5C64.4055 46.9533 64.6322 46.1533 64.6322 45.1C64.6322 44.0333 64.4055 43.24 63.9522 42.72C63.4989 42.1867 62.8989 41.92 62.1522 41.92C61.4055 41.92 60.8055 42.1867 60.3522 42.72C59.8989 43.24 59.6722 44.0333 59.6722 45.1C59.6722 46.1533 59.8989 46.9533 60.3522 47.5C60.8055 48.0333 61.4055 48.3 62.1522 48.3ZM72.7044 50.2C71.9977 50.2 71.3644 50.0667 70.8044 49.8C70.2577 49.52 69.8244 49.1467 69.5044 48.68C69.1977 48.2133 69.0444 47.6867 69.0444 47.1C69.0444 46.38 69.231 45.8133 69.6044 45.4C69.9777 44.9733 70.5844 44.6667 71.4244 44.48C72.2644 44.2933 73.391 44.2 74.8044 44.2H75.5044V43.78C75.5044 43.1133 75.3577 42.6333 75.0644 42.34C74.771 42.0467 74.2777 41.9 73.5844 41.9C73.1977 41.9 72.7777 41.9467 72.3244 42.04C71.8844 42.1333 71.4177 42.2933 70.9244 42.52C70.6044 42.6667 70.3377 42.6867 70.1244 42.58C69.911 42.46 69.7644 42.28 69.6844 42.04C69.6177 41.7867 69.631 41.5333 69.7244 41.28C69.831 41.0267 70.0377 40.84 70.3444 40.72C70.9577 40.4667 71.5444 40.2867 72.1044 40.18C72.6777 40.0733 73.1977 40.02 73.6644 40.02C75.091 40.02 76.151 40.3533 76.8444 41.02C77.5377 41.6733 77.8844 42.6933 77.8844 44.08V48.88C77.8844 49.7333 77.4977 50.16 76.7244 50.16C75.9377 50.16 75.5444 49.7333 75.5444 48.88V48.44C75.3177 48.9867 74.9577 49.42 74.4644 49.74C73.971 50.0467 73.3844 50.2 72.7044 50.2ZM73.2244 48.48C73.8777 48.48 74.4177 48.2533 74.8444 47.8C75.2844 47.3467 75.5044 46.7733 75.5044 46.08V45.64H74.8244C73.571 45.64 72.6977 45.74 72.2044 45.94C71.7244 46.1267 71.4844 46.4733 71.4844 46.98C71.4844 47.42 71.6377 47.78 71.9444 48.06C72.251 48.34 72.6777 48.48 73.2244 48.48ZM84.7819 53.8C84.0619 53.8 83.3619 53.7333 82.6819 53.6C82.0152 53.4667 81.4085 53.26 80.8619 52.98C80.5419 52.82 80.3485 52.6133 80.2819 52.36C80.2285 52.12 80.2552 51.8867 80.3619 51.66C80.4685 51.4333 80.6285 51.2667 80.8419 51.16C81.0685 51.0667 81.3085 51.08 81.5619 51.2C82.1485 51.4933 82.7019 51.68 83.2219 51.76C83.7552 51.8533 84.2085 51.9 84.5819 51.9C86.3685 51.9 87.2619 51.04 87.2619 49.32V47.98C86.9819 48.5267 86.5485 48.96 85.9619 49.28C85.3885 49.6 84.7485 49.76 84.0419 49.76C83.1619 49.76 82.3952 49.56 81.7419 49.16C81.0885 48.7467 80.5819 48.1733 80.2219 47.44C79.8619 46.7067 79.6819 45.8533 79.6819 44.88C79.6819 43.9067 79.8619 43.06 80.2219 42.34C80.5819 41.6067 81.0885 41.04 81.7419 40.64C82.3952 40.2267 83.1619 40.02 84.0419 40.02C84.7485 40.02 85.3885 40.1733 85.9619 40.48C86.5352 40.7867 86.9552 41.2067 87.2219 41.74V41.32C87.2219 40.9067 87.3285 40.5933 87.5419 40.38C87.7685 40.1667 88.0752 40.06 88.4619 40.06C89.2885 40.06 89.7019 40.48 89.7019 41.32V49.02C89.7019 50.6067 89.2819 51.8 88.4419 52.6C87.6019 53.4 86.3819 53.8 84.7819 53.8ZM84.7219 47.86C85.4952 47.86 86.1085 47.5933 86.5619 47.06C87.0152 46.5267 87.2419 45.8 87.2419 44.88C87.2419 43.96 87.0152 43.24 86.5619 42.72C86.1085 42.1867 85.4952 41.92 84.7219 41.92C83.9485 41.92 83.3352 42.1867 82.8819 42.72C82.4285 43.24 82.2019 43.96 82.2019 44.88C82.2019 45.8 82.4285 46.5267 82.8819 47.06C83.3352 47.5933 83.9485 47.86 84.7219 47.86ZM93.3322 38.22C92.8655 38.22 92.4989 38.1067 92.2322 37.88C91.9789 37.64 91.8522 37.3133 91.8522 36.9C91.8522 36.4733 91.9789 36.1467 92.2322 35.92C92.4989 35.6933 92.8655 35.58 93.3322 35.58C94.3189 35.58 94.8122 36.02 94.8122 36.9C94.8122 37.78 94.3189 38.22 93.3322 38.22ZM93.3322 50.14C92.9322 50.14 92.6255 50.02 92.4122 49.78C92.1989 49.54 92.0922 49.2067 92.0922 48.78V41.44C92.0922 40.5333 92.5055 40.08 93.3322 40.08C94.1722 40.08 94.5922 40.5333 94.5922 41.44V48.78C94.5922 49.2067 94.4855 49.54 94.2722 49.78C94.0589 50.02 93.7455 50.14 93.3322 50.14ZM110.36 53.76C109.533 53.76 109.12 53.34 109.12 52.5V48.52C108.84 49.0267 108.42 49.4333 107.86 49.74C107.3 50.0467 106.673 50.2 105.98 50.2C105.126 50.2 104.373 49.9933 103.72 49.58C103.08 49.1667 102.58 48.58 102.22 47.82C101.86 47.0467 101.68 46.14 101.68 45.1C101.68 44.0467 101.86 43.1467 102.22 42.4C102.58 41.64 103.08 41.0533 103.72 40.64C104.373 40.2267 105.126 40.02 105.98 40.02C106.686 40.02 107.32 40.18 107.88 40.5C108.44 40.8067 108.86 41.22 109.14 41.74V41.32C109.14 40.48 109.553 40.06 110.38 40.06C111.206 40.06 111.62 40.48 111.62 41.32V52.5C111.62 53.34 111.2 53.76 110.36 53.76ZM106.68 48.3C107.426 48.3 108.026 48.0333 108.48 47.5C108.933 46.9533 109.16 46.1533 109.16 45.1C109.16 44.0333 108.933 43.24 108.48 42.72C108.026 42.1867 107.426 41.92 106.68 41.92C105.933 41.92 105.333 42.1867 104.88 42.72C104.426 43.24 104.2 44.0333 104.2 45.1C104.2 46.1533 104.426 46.9533 104.88 47.5C105.333 48.0333 105.933 48.3 106.68 48.3ZM115.252 38.22C114.785 38.22 114.418 38.1067 114.152 37.88C113.898 37.64 113.772 37.3133 113.772 36.9C113.772 36.4733 113.898 36.1467 114.152 35.92C114.418 35.6933 114.785 35.58 115.252 35.58C116.238 35.58 116.732 36.02 116.732 36.9C116.732 37.78 116.238 38.22 115.252 38.22ZM115.252 50.14C114.852 50.14 114.545 50.02 114.332 49.78C114.118 49.54 114.012 49.2067 114.012 48.78V41.44C114.012 40.5333 114.425 40.08 115.252 40.08C116.092 40.08 116.512 40.5333 116.512 41.44V48.78C116.512 49.2067 116.405 49.54 116.192 49.78C115.978 50.02 115.665 50.14 115.252 50.14ZM119.509 50C119.163 50 118.903 49.8933 118.729 49.68C118.556 49.4533 118.483 49.1867 118.509 48.88C118.536 48.5733 118.676 48.28 118.929 48L123.629 42.1H119.389C118.749 42.1 118.429 41.7867 118.429 41.16C118.429 40.5333 118.749 40.22 119.389 40.22H125.309C125.709 40.22 126.003 40.3267 126.189 40.54C126.389 40.7533 126.476 41.0133 126.449 41.32C126.436 41.6133 126.303 41.9 126.049 42.18L121.289 48.12H125.769C126.409 48.12 126.729 48.4333 126.729 49.06C126.729 49.6867 126.409 50 125.769 50H119.509ZM129.422 38.22C128.955 38.22 128.589 38.1067 128.322 37.88C128.069 37.64 127.942 37.3133 127.942 36.9C127.942 36.4733 128.069 36.1467 128.322 35.92C128.589 35.6933 128.955 35.58 129.422 35.58C130.409 35.58 130.902 36.02 130.902 36.9C130.902 37.78 130.409 38.22 129.422 38.22ZM129.422 50.14C129.022 50.14 128.715 50.02 128.502 49.78C128.289 49.54 128.182 49.2067 128.182 48.78V41.44C128.182 40.5333 128.595 40.08 129.422 40.08C130.262 40.08 130.682 40.5333 130.682 41.44V48.78C130.682 49.2067 130.575 49.54 130.362 49.78C130.149 50.02 129.835 50.14 129.422 50.14ZM141.22 53.76C140.393 53.76 139.98 53.34 139.98 52.5V48.52C139.7 49.0267 139.28 49.4333 138.72 49.74C138.16 50.0467 137.533 50.2 136.84 50.2C135.986 50.2 135.233 49.9933 134.58 49.58C133.94 49.1667 133.44 48.58 133.08 47.82C132.72 47.0467 132.54 46.14 132.54 45.1C132.54 44.0467 132.72 43.1467 133.08 42.4C133.44 41.64 133.94 41.0533 134.58 40.64C135.233 40.2267 135.986 40.02 136.84 40.02C137.546 40.02 138.18 40.18 138.74 40.5C139.3 40.8067 139.72 41.22 140 41.74V41.32C140 40.48 140.413 40.06 141.24 40.06C142.066 40.06 142.48 40.48 142.48 41.32V52.5C142.48 53.34 142.06 53.76 141.22 53.76ZM137.54 48.3C138.286 48.3 138.886 48.0333 139.34 47.5C139.793 46.9533 140.02 46.1533 140.02 45.1C140.02 44.0333 139.793 43.24 139.34 42.72C138.886 42.1867 138.286 41.92 137.54 41.92C136.793 41.92 136.193 42.1867 135.74 42.72C135.286 43.24 135.06 44.0333 135.06 45.1C135.06 46.1533 135.286 46.9533 135.74 47.5C136.193 48.0333 136.793 48.3 137.54 48.3ZM146.112 38.22C145.645 38.22 145.279 38.1067 145.012 37.88C144.759 37.64 144.632 37.3133 144.632 36.9C144.632 36.4733 144.759 36.1467 145.012 35.92C145.279 35.6933 145.645 35.58 146.112 35.58C147.099 35.58 147.592 36.02 147.592 36.9C147.592 37.78 147.099 38.22 146.112 38.22ZM146.112 50.14C145.712 50.14 145.405 50.02 145.192 49.78C144.979 49.54 144.872 49.2067 144.872 48.78V41.44C144.872 40.5333 145.285 40.08 146.112 40.08C146.952 40.08 147.372 40.5333 147.372 41.44V48.78C147.372 49.2067 147.265 49.54 147.052 49.78C146.839 50.02 146.525 50.14 146.112 50.14ZM153.35 50.2C152.776 50.2 152.17 50.14 151.53 50.02C150.89 49.9 150.316 49.6933 149.81 49.4C149.53 49.24 149.356 49.0467 149.29 48.82C149.223 48.58 149.23 48.36 149.31 48.16C149.403 47.9467 149.55 47.7933 149.75 47.7C149.963 47.6067 150.21 47.6267 150.49 47.76C151.023 48.0133 151.523 48.1933 151.99 48.3C152.456 48.3933 152.916 48.44 153.37 48.44C154.01 48.44 154.483 48.3333 154.79 48.12C155.11 47.8933 155.27 47.6 155.27 47.24C155.27 46.68 154.856 46.32 154.03 46.16L152.03 45.78C150.336 45.46 149.49 44.58 149.49 43.14C149.49 42.5 149.663 41.9467 150.01 41.48C150.37 41.0133 150.863 40.6533 151.49 40.4C152.116 40.1467 152.836 40.02 153.65 40.02C154.823 40.02 155.87 40.28 156.79 40.8C157.043 40.9333 157.19 41.12 157.23 41.36C157.283 41.5867 157.256 41.8067 157.15 42.02C157.056 42.22 156.903 42.3667 156.69 42.46C156.476 42.54 156.23 42.5133 155.95 42.38C155.536 42.1667 155.136 42.0133 154.75 41.92C154.376 41.8267 154.016 41.78 153.67 41.78C153.016 41.78 152.53 41.8933 152.21 42.12C151.903 42.3467 151.75 42.6467 151.75 43.02C151.75 43.6067 152.13 43.9667 152.89 44.1L154.89 44.48C155.756 44.64 156.41 44.9333 156.85 45.36C157.303 45.7867 157.53 46.36 157.53 47.08C157.53 48.0533 157.15 48.82 156.39 49.38C155.63 49.9267 154.616 50.2 153.35 50.2ZM160.575 50.16C159.748 50.16 159.335 49.7333 159.335 48.88V37C159.335 36.16 159.748 35.74 160.575 35.74C161.415 35.74 161.835 36.16 161.835 37V41.64C162.168 41.1067 162.615 40.7067 163.175 40.44C163.735 40.16 164.355 40.02 165.035 40.02C167.342 40.02 168.495 41.36 168.495 44.04V48.88C168.495 49.7333 168.082 50.16 167.255 50.16C166.415 50.16 165.995 49.7333 165.995 48.88V44.16C165.995 43.4 165.848 42.8467 165.555 42.5C165.275 42.1533 164.835 41.98 164.235 41.98C163.502 41.98 162.915 42.2133 162.475 42.68C162.048 43.1333 161.835 43.74 161.835 44.5V48.88C161.835 49.7333 161.415 50.16 160.575 50.16ZM174.174 50.2C171.948 50.2 170.834 48.9533 170.834 46.46V37C170.834 36.16 171.248 35.74 172.074 35.74C172.914 35.74 173.334 36.16 173.334 37V46.34C173.334 47.54 173.834 48.14 174.834 48.14C174.941 48.14 175.041 48.14 175.134 48.14C175.228 48.1267 175.321 48.1133 175.414 48.1C175.601 48.0733 175.728 48.1267 175.794 48.26C175.861 48.38 175.894 48.6333 175.894 49.02C175.894 49.3533 175.828 49.6133 175.694 49.8C175.561 49.9867 175.341 50.1 175.034 50.14C174.754 50.18 174.468 50.2 174.174 50.2ZM180.241 50.2C179.534 50.2 178.901 50.0667 178.341 49.8C177.794 49.52 177.361 49.1467 177.041 48.68C176.734 48.2133 176.581 47.6867 176.581 47.1C176.581 46.38 176.768 45.8133 177.141 45.4C177.514 44.9733 178.121 44.6667 178.961 44.48C179.801 44.2933 180.928 44.2 182.341 44.2H183.041V43.78C183.041 43.1133 182.894 42.6333 182.601 42.34C182.308 42.0467 181.814 41.9 181.121 41.9C180.734 41.9 180.314 41.9467 179.861 42.04C179.421 42.1333 178.954 42.2933 178.461 42.52C178.141 42.6667 177.874 42.6867 177.661 42.58C177.448 42.46 177.301 42.28 177.221 42.04C177.154 41.7867 177.168 41.5333 177.261 41.28C177.368 41.0267 177.574 40.84 177.881 40.72C178.494 40.4667 179.081 40.2867 179.641 40.18C180.214 40.0733 180.734 40.02 181.201 40.02C182.628 40.02 183.688 40.3533 184.381 41.02C185.074 41.6733 185.421 42.6933 185.421 44.08V48.88C185.421 49.7333 185.034 50.16 184.261 50.16C183.474 50.16 183.081 49.7333 183.081 48.88V48.44C182.854 48.9867 182.494 49.42 182.001 49.74C181.508 50.0467 180.921 50.2 180.241 50.2ZM180.761 48.48C181.414 48.48 181.954 48.2533 182.381 47.8C182.821 47.3467 183.041 46.7733 183.041 46.08V45.64H182.361C181.108 45.64 180.234 45.74 179.741 45.94C179.261 46.1267 179.021 46.4733 179.021 46.98C179.021 47.42 179.174 47.78 179.481 48.06C179.788 48.34 180.214 48.48 180.761 48.48ZM189.039 50.16C188.185 50.16 187.759 49.7333 187.759 48.88V41.32C187.759 40.48 188.165 40.06 188.979 40.06C189.792 40.06 190.199 40.48 190.199 41.32V41.94C190.679 40.7933 191.705 40.1533 193.279 40.02C193.852 39.9533 194.172 40.28 194.239 41C194.305 41.7067 193.959 42.1 193.199 42.18L192.759 42.22C191.119 42.38 190.299 43.22 190.299 44.74V48.88C190.299 49.7333 189.879 50.16 189.039 50.16Z" fill="#1C1C1C"/>
<rect x="34" y="100" width="482" height="8" rx="4" fill="#DEDEDE"/>
<rect x="34" y="100" width="424" height="8" rx="4" fill="#FF8D86"/>
<path d="M34.5795 84.2102H37.3239V92H38.3807V84.2102H41.125V83.2727H34.5795V84.2102ZM44.4148 92.1364C45.7443 92.1364 46.7159 91.4716 47.0227 90.483L46.0511 90.2102C45.7955 90.892 45.2031 91.233 44.4148 91.233C43.2344 91.233 42.4205 90.4702 42.3736 89.0682H47.125V88.642C47.125 86.2045 45.6761 85.3693 44.3125 85.3693C42.5398 85.3693 41.3636 86.767 41.3636 88.7784C41.3636 90.7898 42.5227 92.1364 44.4148 92.1364ZM42.3736 88.1989C42.4418 87.1804 43.1619 86.2727 44.3125 86.2727C45.4034 86.2727 46.1023 87.0909 46.1023 88.1989H42.3736ZM49.229 85.4545H48.07L50.1495 88.7273L48.07 92H49.229L50.7972 89.4602L52.3654 92H53.5245L51.4109 88.7273L53.5245 85.4545H52.3654L50.7972 88.1307L49.229 85.4545ZM55.9652 88.0625C55.9652 86.9205 56.6726 86.2727 57.6357 86.2727C58.5689 86.2727 59.1357 86.8821 59.1357 87.9091V92H60.1413V87.8409C60.1413 86.1705 59.2507 85.3693 57.9254 85.3693C56.9368 85.3693 56.3232 85.8125 56.0163 86.4773H55.9311V85.4545H54.9595V92H55.9652V88.0625ZM61.979 92H62.9847V85.4545H61.979V92ZM62.4904 84.3636C62.8825 84.3636 63.2063 84.0568 63.2063 83.6818C63.2063 83.3068 62.8825 83 62.4904 83C62.0984 83 61.7745 83.3068 61.7745 83.6818C61.7745 84.0568 62.0984 84.3636 62.4904 84.3636ZM64.8267 92H65.8324V89.5497L66.5355 88.8977L68.9858 92H70.2642L67.294 88.25L70.0597 85.4545H68.8153L65.9517 88.3693H65.8324V83.2727H64.8267V92ZM73.2802 92.1534C74.4222 92.1534 75.0188 91.5398 75.2234 91.1136H75.2745V92H76.2802V87.6875C76.2802 85.608 74.695 85.3693 73.8597 85.3693C72.8711 85.3693 71.7461 85.7102 71.2347 86.9034L72.1893 87.2443C72.4109 86.767 72.935 86.2557 73.8938 86.2557C74.8185 86.2557 75.2745 86.7457 75.2745 87.5852V87.6193C75.2745 88.1051 74.7802 88.0625 73.587 88.2159C72.3725 88.3736 71.0472 88.642 71.0472 90.142C71.0472 91.4205 72.0359 92.1534 73.2802 92.1534ZM73.4336 91.25C72.6325 91.25 72.0529 90.892 72.0529 90.1932C72.0529 89.4261 72.7518 89.1875 73.5359 89.0852C73.962 89.0341 75.104 88.9148 75.2745 88.7102V89.6307C75.2745 90.4489 74.6268 91.25 73.4336 91.25ZM86.843 85.4545H85.7521L83.9453 90.6705H83.8771L82.0703 85.4545H80.9794L83.3999 92H84.4226L86.843 85.4545ZM89.8974 92.1534C91.0394 92.1534 91.636 91.5398 91.8406 91.1136H91.8917V92H92.8974V87.6875C92.8974 85.608 91.3121 85.3693 90.4769 85.3693C89.4883 85.3693 88.3633 85.7102 87.8519 86.9034L88.8065 87.2443C89.0281 86.767 89.5522 86.2557 90.511 86.2557C91.4357 86.2557 91.8917 86.7457 91.8917 87.5852V87.6193C91.8917 88.1051 91.3974 88.0625 90.2042 88.2159C88.9897 88.3736 87.6644 88.642 87.6644 90.142C87.6644 91.4205 88.6531 92.1534 89.8974 92.1534ZM90.0508 91.25C89.2496 91.25 88.6701 90.892 88.6701 90.1932C88.6701 89.4261 89.369 89.1875 90.1531 89.0852C90.5792 89.0341 91.7212 88.9148 91.8917 88.7102V89.6307C91.8917 90.4489 91.244 91.25 90.0508 91.25ZM100.955 85.4545H99.5568V83.8864H98.5511V85.4545H97.5625V86.3068H98.5511V90.3977C98.5511 91.5398 99.4716 92.0852 100.324 92.0852C100.699 92.0852 100.938 92.017 101.074 91.9659L100.869 91.0625C100.784 91.0795 100.648 91.1136 100.426 91.1136C99.983 91.1136 99.5568 90.9773 99.5568 90.125V86.3068H100.955V85.4545ZM105.141 92.1364C106.471 92.1364 107.442 91.4716 107.749 90.483L106.778 90.2102C106.522 90.892 105.93 91.233 105.141 91.233C103.961 91.233 103.147 90.4702 103.1 89.0682H107.852V88.642C107.852 86.2045 106.403 85.3693 105.039 85.3693C103.266 85.3693 102.09 86.767 102.09 88.7784C102.09 90.7898 103.249 92.1364 105.141 92.1364ZM103.1 88.1989C103.168 87.1804 103.888 86.2727 105.039 86.2727C106.13 86.2727 106.829 87.0909 106.829 88.1989H103.1ZM109.956 85.4545H108.797L110.876 88.7273L108.797 92H109.956L111.524 89.4602L113.092 92H114.251L112.137 88.7273L114.251 85.4545H113.092L111.524 88.1307L109.956 85.4545ZM116.692 88.0625C116.692 86.9205 117.399 86.2727 118.362 86.2727C119.295 86.2727 119.862 86.8821 119.862 87.9091V92H120.868V87.8409C120.868 86.1705 119.977 85.3693 118.652 85.3693C117.663 85.3693 117.05 85.8125 116.743 86.4773H116.658V85.4545H115.686V92H116.692V88.0625ZM125.365 92.1364C127.137 92.1364 128.331 90.7898 128.331 88.7614C128.331 86.7159 127.137 85.3693 125.365 85.3693C123.592 85.3693 122.399 86.7159 122.399 88.7614C122.399 90.7898 123.592 92.1364 125.365 92.1364ZM125.365 91.233C124.018 91.233 123.404 90.0739 123.404 88.7614C123.404 87.4489 124.018 86.2727 125.365 86.2727C126.711 86.2727 127.325 87.4489 127.325 88.7614C127.325 90.0739 126.711 91.233 125.365 91.233ZM130.871 83.2727H129.866V92H130.871V83.2727ZM135.373 92.1364C137.145 92.1364 138.338 90.7898 138.338 88.7614C138.338 86.7159 137.145 85.3693 135.373 85.3693C133.6 85.3693 132.407 86.7159 132.407 88.7614C132.407 90.7898 133.6 92.1364 135.373 92.1364ZM135.373 91.233C134.026 91.233 133.412 90.0739 133.412 88.7614C133.412 87.4489 134.026 86.2727 135.373 86.2727C136.719 86.2727 137.333 87.4489 137.333 88.7614C137.333 90.0739 136.719 91.233 135.373 91.233ZM142.516 94.5909C144.084 94.5909 145.345 93.875 145.345 92.1875V85.4545H144.374V86.4943H144.271C144.05 86.1534 143.641 85.3693 142.362 85.3693C140.709 85.3693 139.567 86.6818 139.567 88.6932C139.567 90.7386 140.76 91.8977 142.345 91.8977C143.624 91.8977 144.033 91.1477 144.254 90.7898H144.339V92.1193C144.339 93.2102 143.572 93.7045 142.516 93.7045C141.327 93.7045 140.909 93.0781 140.641 92.7159L139.839 93.2784C140.249 93.9645 141.054 94.5909 142.516 94.5909ZM142.482 90.9943C141.22 90.9943 140.572 90.0398 140.572 88.6761C140.572 87.3466 141.203 86.2727 142.482 86.2727C143.709 86.2727 144.357 87.2614 144.357 88.6761C144.357 90.125 143.692 90.9943 142.482 90.9943ZM147.186 92H148.192V85.4545H147.186V92ZM147.697 84.3636C148.089 84.3636 148.413 84.0568 148.413 83.6818C148.413 83.3068 148.089 83 147.697 83C147.305 83 146.982 83.3068 146.982 83.6818C146.982 84.0568 147.305 84.3636 147.697 84.3636ZM150.681 94.4545C151.589 94.4545 152.228 93.973 152.608 92.9545L155.395 85.4716L154.295 85.4545L152.488 90.6705H152.42L150.613 85.4545H149.522L151.943 92.0341L151.755 92.5455C151.389 93.5426 150.937 93.6364 150.204 93.4489L149.949 94.3352C150.051 94.3864 150.341 94.4545 150.681 94.4545ZM158.452 92.1534C159.594 92.1534 160.191 91.5398 160.395 91.1136H160.446V92H161.452V87.6875C161.452 85.608 159.867 85.3693 159.032 85.3693C158.043 85.3693 156.918 85.7102 156.407 86.9034L157.361 87.2443C157.583 86.767 158.107 86.2557 159.066 86.2557C159.99 86.2557 160.446 86.7457 160.446 87.5852V87.6193C160.446 88.1051 159.952 88.0625 158.759 88.2159C157.544 88.3736 156.219 88.642 156.219 90.142C156.219 91.4205 157.208 92.1534 158.452 92.1534ZM158.605 91.25C157.804 91.25 157.225 90.892 157.225 90.1932C157.225 89.4261 157.924 89.1875 158.708 89.0852C159.134 89.0341 160.276 88.9148 160.446 88.7102V89.6307C160.446 90.4489 159.799 91.25 158.605 91.25Z" fill="#1C1C1C"/>
<rect x="528" y="91" width="31" height="25" rx="6" fill="#EC5147"/>
<path d="M539.07 108.119C540.885 108.119 542.168 107.088 542.176 105.673C542.168 104.574 541.396 103.649 540.42 103.474V103.423C541.268 103.219 541.844 102.422 541.852 101.48C541.844 100.146 540.668 99.1534 539.07 99.1534C537.455 99.1534 536.278 100.146 536.287 101.48C536.278 102.418 536.854 103.219 537.719 103.423V103.474C536.726 103.649 535.955 104.574 535.963 105.673C535.955 107.088 537.237 108.119 539.07 108.119ZM539.07 107.041C537.979 107.041 537.288 106.462 537.297 105.588C537.288 104.68 538.038 104.033 539.07 104.033C540.084 104.033 540.834 104.68 540.842 105.588C540.834 106.462 540.148 107.041 539.07 107.041ZM539.07 102.98C538.188 102.98 537.561 102.422 537.57 101.591C537.561 100.773 538.166 100.232 539.07 100.232C539.956 100.232 540.561 100.773 540.57 101.591C540.561 102.422 539.939 102.98 539.07 102.98ZM544.29 108.081C544.754 108.081 545.142 107.702 545.142 107.229C545.142 106.764 544.754 106.381 544.29 106.381C543.821 106.381 543.438 106.764 543.438 107.229C543.438 107.702 543.821 108.081 544.29 108.081ZM546.903 108H548.279L552.076 100.44V99.2727H546.306V100.402H550.713V100.466L546.903 108Z" fill="white"/>
<rect x="34" y="222" width="482" height="8" rx="4" fill="#DEDEDE"/>
<rect x="34" y="222" width="161.333" height="8" rx="4" fill="#FF8D86"/>
<path d="M35.0568 205.273V214H36.0455V207.369H36.1307L38.858 214H39.8125L42.5398 207.369H42.625V214H43.6136V205.273H42.3523L39.3864 212.517H39.2841L36.3182 205.273H35.0568ZM49.7212 211.324C49.7212 212.551 48.7837 213.114 48.0337 213.114C47.1985 213.114 46.6019 212.5 46.6019 211.545V207.455H45.5962V211.614C45.5962 213.284 46.4826 214.085 47.7099 214.085C48.6985 214.085 49.3462 213.557 49.6531 212.892H49.7212V214H50.7269V207.455H49.7212V211.324ZM57.2053 208.92C56.8899 207.991 56.1825 207.369 54.8871 207.369C53.5064 207.369 52.4837 208.153 52.4837 209.261C52.4837 210.165 53.0206 210.77 54.2223 211.051L55.3132 211.307C55.9737 211.46 56.2848 211.776 56.2848 212.227C56.2848 212.79 55.6882 213.25 54.7507 213.25C53.9283 213.25 53.4126 212.896 53.2337 212.193L52.2791 212.432C52.5135 213.544 53.4297 214.136 54.7678 214.136C56.2891 214.136 57.3246 213.305 57.3246 212.176C57.3246 211.264 56.7536 210.689 55.5859 210.403L54.6143 210.165C53.8388 209.973 53.4893 209.713 53.4893 209.21C53.4893 208.648 54.0859 208.239 54.8871 208.239C55.7649 208.239 56.1271 208.724 56.3018 209.176L57.2053 208.92ZM58.8384 214H59.8441V207.455H58.8384V214ZM59.3498 206.364C59.7418 206.364 60.0657 206.057 60.0657 205.682C60.0657 205.307 59.7418 205 59.3498 205C58.9577 205 58.6339 205.307 58.6339 205.682C58.6339 206.057 58.9577 206.364 59.3498 206.364ZM67.1577 216.455V207.455H66.1861V208.494H66.0668C65.8452 208.153 65.4531 207.369 64.1747 207.369C62.5213 207.369 61.3793 208.682 61.3793 210.744C61.3793 212.824 62.5213 214.136 64.1577 214.136C65.419 214.136 65.8452 213.352 66.0668 212.994H66.152V216.455H67.1577ZM66.169 210.727C66.169 212.21 65.5043 213.233 64.294 213.233C63.0327 213.233 62.3849 212.125 62.3849 210.727C62.3849 209.347 63.0156 208.273 64.294 208.273C65.5213 208.273 66.169 209.261 66.169 210.727ZM70.9247 214.153C72.0668 214.153 72.6634 213.54 72.8679 213.114H72.919V214H73.9247V209.688C73.9247 207.608 72.3395 207.369 71.5043 207.369C70.5156 207.369 69.3906 207.71 68.8793 208.903L69.8338 209.244C70.0554 208.767 70.5795 208.256 71.5384 208.256C72.4631 208.256 72.919 208.746 72.919 209.585V209.619C72.919 210.105 72.4247 210.062 71.2315 210.216C70.017 210.374 68.6918 210.642 68.6918 212.142C68.6918 213.42 69.6804 214.153 70.9247 214.153ZM71.0781 213.25C70.277 213.25 69.6974 212.892 69.6974 212.193C69.6974 211.426 70.3963 211.188 71.1804 211.085C71.6065 211.034 72.7486 210.915 72.919 210.71V211.631C72.919 212.449 72.2713 213.25 71.0781 213.25ZM84.4876 207.455H83.3967L81.5898 212.67H81.5217L79.7148 207.455H78.6239L81.0444 214H82.0671L84.4876 207.455ZM87.5419 214.153C88.6839 214.153 89.2805 213.54 89.4851 213.114H89.5362V214H90.5419V209.688C90.5419 207.608 88.9567 207.369 88.1214 207.369C87.1328 207.369 86.0078 207.71 85.4964 208.903L86.451 209.244C86.6726 208.767 87.1967 208.256 88.1555 208.256C89.0803 208.256 89.5362 208.746 89.5362 209.585V209.619C89.5362 210.105 89.0419 210.062 87.8487 210.216C86.6342 210.374 85.3089 210.642 85.3089 212.142C85.3089 213.42 86.2976 214.153 87.5419 214.153ZM87.6953 213.25C86.8942 213.25 86.3146 212.892 86.3146 212.193C86.3146 211.426 87.0135 211.188 87.7976 211.085C88.2237 211.034 89.3658 210.915 89.5362 210.71V211.631C89.5362 212.449 88.8885 213.25 87.6953 213.25ZM100.389 208.92C100.074 207.991 99.3661 207.369 98.0707 207.369C96.69 207.369 95.6673 208.153 95.6673 209.261C95.6673 210.165 96.2042 210.77 97.4059 211.051L98.4968 211.307C99.1573 211.46 99.4684 211.776 99.4684 212.227C99.4684 212.79 98.8718 213.25 97.9343 213.25C97.1119 213.25 96.5962 212.896 96.4173 212.193L95.4627 212.432C95.6971 213.544 96.6133 214.136 97.9513 214.136C99.4727 214.136 100.508 213.305 100.508 212.176C100.508 211.264 99.9371 210.689 98.7695 210.403L97.7979 210.165C97.0224 209.973 96.6729 209.713 96.6729 209.21C96.6729 208.648 97.2695 208.239 98.0707 208.239C98.9485 208.239 99.3107 208.724 99.4854 209.176L100.389 208.92ZM103.948 214.153C105.09 214.153 105.687 213.54 105.891 213.114H105.942V214H106.948V209.688C106.948 207.608 105.363 207.369 104.528 207.369C103.539 207.369 102.414 207.71 101.903 208.903L102.857 209.244C103.079 208.767 103.603 208.256 104.562 208.256C105.487 208.256 105.942 208.746 105.942 209.585V209.619C105.942 210.105 105.448 210.062 104.255 210.216C103.04 210.374 101.715 210.642 101.715 212.142C101.715 213.42 102.704 214.153 103.948 214.153ZM104.102 213.25C103.3 213.25 102.721 212.892 102.721 212.193C102.721 211.426 103.42 211.188 104.204 211.085C104.63 211.034 105.772 210.915 105.942 210.71V211.631C105.942 212.449 105.295 213.25 104.102 213.25ZM109.789 210.062C109.789 208.92 110.497 208.273 111.46 208.273C112.393 208.273 112.96 208.882 112.96 209.909V214H113.966V209.841C113.966 208.17 113.075 207.369 111.75 207.369C110.761 207.369 110.147 207.812 109.841 208.477H109.755V207.455H108.784V214H109.789V210.062ZM116.69 205.273H115.735V206.057C115.735 206.688 115.428 207.233 115.07 207.744L115.616 208.188C116.298 207.642 116.69 206.739 116.69 206.04V205.273ZM119.265 214.153C120.407 214.153 121.003 213.54 121.208 213.114H121.259V214H122.265V209.688C122.265 207.608 120.679 207.369 119.844 207.369C118.855 207.369 117.73 207.71 117.219 208.903L118.174 209.244C118.395 208.767 118.919 208.256 119.878 208.256C120.803 208.256 121.259 208.746 121.259 209.585V209.619C121.259 210.105 120.765 210.062 119.571 210.216C118.357 210.374 117.032 210.642 117.032 212.142C117.032 213.42 118.02 214.153 119.265 214.153ZM119.418 213.25C118.617 213.25 118.037 212.892 118.037 212.193C118.037 211.426 118.736 211.188 119.52 211.085C119.946 211.034 121.088 210.915 121.259 210.71V211.631C121.259 212.449 120.611 213.25 119.418 213.25ZM126.947 207.455H125.549V205.886H124.543V207.455H123.555V208.307H124.543V212.398C124.543 213.54 125.464 214.085 126.316 214.085C126.691 214.085 126.93 214.017 127.066 213.966L126.862 213.062C126.776 213.08 126.64 213.114 126.418 213.114C125.975 213.114 125.549 212.977 125.549 212.125V208.307H126.947V207.455Z" fill="#1C1C1C"/>
<rect x="528" y="213" width="31" height="25" rx="6" fill="#EC5147"/>
<path d="M539.07 230.119C540.885 230.119 542.168 229.088 542.176 227.673C542.168 226.574 541.396 225.649 540.42 225.474V225.423C541.268 225.219 541.844 224.422 541.852 223.48C541.844 222.146 540.668 221.153 539.07 221.153C537.455 221.153 536.278 222.146 536.287 223.48C536.278 224.418 536.854 225.219 537.719 225.423V225.474C536.726 225.649 535.955 226.574 535.963 227.673C535.955 229.088 537.237 230.119 539.07 230.119ZM539.07 229.041C537.979 229.041 537.288 228.462 537.297 227.588C537.288 226.68 538.038 226.033 539.07 226.033C540.084 226.033 540.834 226.68 540.842 227.588C540.834 228.462 540.148 229.041 539.07 229.041ZM539.07 224.98C538.188 224.98 537.561 224.422 537.57 223.591C537.561 222.773 538.166 222.232 539.07 222.232C539.956 222.232 540.561 222.773 540.57 223.591C540.561 224.422 539.939 224.98 539.07 224.98ZM544.29 230.081C544.754 230.081 545.142 229.702 545.142 229.229C545.142 228.764 544.754 228.381 544.29 228.381C543.821 228.381 543.438 228.764 543.438 229.229C543.438 229.702 543.821 230.081 544.29 230.081ZM546.903 230H548.279L552.076 222.44V221.273H546.306V222.402H550.713V222.466L546.903 230Z" fill="white"/>
<rect x="34" y="344" width="482" height="8" rx="4" fill="#DEDEDE"/>
<rect x="34" y="344" width="352" height="8" rx="4" fill="#FF8D86"/>
<path d="M34.5795 328.21H37.3239V336H38.3807V328.21H41.125V327.273H34.5795V328.21ZM44.4148 336.136C45.7443 336.136 46.7159 335.472 47.0227 334.483L46.0511 334.21C45.7955 334.892 45.2031 335.233 44.4148 335.233C43.2344 335.233 42.4205 334.47 42.3736 333.068H47.125V332.642C47.125 330.205 45.6761 329.369 44.3125 329.369C42.5398 329.369 41.3636 330.767 41.3636 332.778C41.3636 334.79 42.5227 336.136 44.4148 336.136ZM42.3736 332.199C42.4418 331.18 43.1619 330.273 44.3125 330.273C45.4034 330.273 46.1023 331.091 46.1023 332.199H42.3736ZM49.229 329.455H48.07L50.1495 332.727L48.07 336H49.229L50.7972 333.46L52.3654 336H53.5245L51.4109 332.727L53.5245 329.455H52.3654L50.7972 332.131L49.229 329.455ZM55.9652 332.062C55.9652 330.92 56.6726 330.273 57.6357 330.273C58.5689 330.273 59.1357 330.882 59.1357 331.909V336H60.1413V331.841C60.1413 330.17 59.2507 329.369 57.9254 329.369C56.9368 329.369 56.3232 329.812 56.0163 330.477H55.9311V329.455H54.9595V336H55.9652V332.062ZM61.979 336H62.9847V329.455H61.979V336ZM62.4904 328.364C62.8825 328.364 63.2063 328.057 63.2063 327.682C63.2063 327.307 62.8825 327 62.4904 327C62.0984 327 61.7745 327.307 61.7745 327.682C61.7745 328.057 62.0984 328.364 62.4904 328.364ZM64.8267 336H65.8324V333.55L66.5355 332.898L68.9858 336H70.2642L67.294 332.25L70.0597 329.455H68.8153L65.9517 332.369H65.8324V327.273H64.8267V336ZM73.2802 336.153C74.4222 336.153 75.0188 335.54 75.2234 335.114H75.2745V336H76.2802V331.688C76.2802 329.608 74.695 329.369 73.8597 329.369C72.8711 329.369 71.7461 329.71 71.2347 330.903L72.1893 331.244C72.4109 330.767 72.935 330.256 73.8938 330.256C74.8185 330.256 75.2745 330.746 75.2745 331.585V331.619C75.2745 332.105 74.7802 332.062 73.587 332.216C72.3725 332.374 71.0472 332.642 71.0472 334.142C71.0472 335.42 72.0359 336.153 73.2802 336.153ZM73.4336 335.25C72.6325 335.25 72.0529 334.892 72.0529 334.193C72.0529 333.426 72.7518 333.188 73.5359 333.085C73.962 333.034 75.104 332.915 75.2745 332.71V333.631C75.2745 334.449 74.6268 335.25 73.4336 335.25ZM86.843 329.455H85.7521L83.9453 334.67H83.8771L82.0703 329.455H80.9794L83.3999 336H84.4226L86.843 329.455ZM89.8974 336.153C91.0394 336.153 91.636 335.54 91.8406 335.114H91.8917V336H92.8974V331.688C92.8974 329.608 91.3121 329.369 90.4769 329.369C89.4883 329.369 88.3633 329.71 87.8519 330.903L88.8065 331.244C89.0281 330.767 89.5522 330.256 90.511 330.256C91.4357 330.256 91.8917 330.746 91.8917 331.585V331.619C91.8917 332.105 91.3974 332.062 90.2042 332.216C88.9897 332.374 87.6644 332.642 87.6644 334.142C87.6644 335.42 88.6531 336.153 89.8974 336.153ZM90.0508 335.25C89.2496 335.25 88.6701 334.892 88.6701 334.193C88.6701 333.426 89.369 333.188 90.1531 333.085C90.5792 333.034 91.7212 332.915 91.8917 332.71V333.631C91.8917 334.449 91.244 335.25 90.0508 335.25ZM100.955 329.455H99.5568V327.886H98.5511V329.455H97.5625V330.307H98.5511V334.398C98.5511 335.54 99.4716 336.085 100.324 336.085C100.699 336.085 100.938 336.017 101.074 335.966L100.869 335.062C100.784 335.08 100.648 335.114 100.426 335.114C99.983 335.114 99.5568 334.977 99.5568 334.125V330.307H100.955V329.455ZM105.141 336.136C106.471 336.136 107.442 335.472 107.749 334.483L106.778 334.21C106.522 334.892 105.93 335.233 105.141 335.233C103.961 335.233 103.147 334.47 103.1 333.068H107.852V332.642C107.852 330.205 106.403 329.369 105.039 329.369C103.266 329.369 102.09 330.767 102.09 332.778C102.09 334.79 103.249 336.136 105.141 336.136ZM103.1 332.199C103.168 331.18 103.888 330.273 105.039 330.273C106.13 330.273 106.829 331.091 106.829 332.199H103.1ZM109.956 329.455H108.797L110.876 332.727L108.797 336H109.956L111.524 333.46L113.092 336H114.251L112.137 332.727L114.251 329.455H113.092L111.524 332.131L109.956 329.455ZM116.692 332.062C116.692 330.92 117.399 330.273 118.362 330.273C119.295 330.273 119.862 330.882 119.862 331.909V336H120.868V331.841C120.868 330.17 119.977 329.369 118.652 329.369C117.663 329.369 117.05 329.812 116.743 330.477H116.658V329.455H115.686V336H116.692V332.062ZM125.365 336.136C127.137 336.136 128.331 334.79 128.331 332.761C128.331 330.716 127.137 329.369 125.365 329.369C123.592 329.369 122.399 330.716 122.399 332.761C122.399 334.79 123.592 336.136 125.365 336.136ZM125.365 335.233C124.018 335.233 123.404 334.074 123.404 332.761C123.404 331.449 124.018 330.273 125.365 330.273C126.711 330.273 127.325 331.449 127.325 332.761C127.325 334.074 126.711 335.233 125.365 335.233ZM130.871 327.273H129.866V336H130.871V327.273ZM135.373 336.136C137.145 336.136 138.338 334.79 138.338 332.761C138.338 330.716 137.145 329.369 135.373 329.369C133.6 329.369 132.407 330.716 132.407 332.761C132.407 334.79 133.6 336.136 135.373 336.136ZM135.373 335.233C134.026 335.233 133.412 334.074 133.412 332.761C133.412 331.449 134.026 330.273 135.373 330.273C136.719 330.273 137.333 331.449 137.333 332.761C137.333 334.074 136.719 335.233 135.373 335.233ZM142.516 338.591C144.084 338.591 145.345 337.875 145.345 336.188V329.455H144.374V330.494H144.271C144.05 330.153 143.641 329.369 142.362 329.369C140.709 329.369 139.567 330.682 139.567 332.693C139.567 334.739 140.76 335.898 142.345 335.898C143.624 335.898 144.033 335.148 144.254 334.79H144.339V336.119C144.339 337.21 143.572 337.705 142.516 337.705C141.327 337.705 140.909 337.078 140.641 336.716L139.839 337.278C140.249 337.964 141.054 338.591 142.516 338.591ZM142.482 334.994C141.22 334.994 140.572 334.04 140.572 332.676C140.572 331.347 141.203 330.273 142.482 330.273C143.709 330.273 144.357 331.261 144.357 332.676C144.357 334.125 143.692 334.994 142.482 334.994ZM147.186 336H148.192V329.455H147.186V336ZM147.697 328.364C148.089 328.364 148.413 328.057 148.413 327.682C148.413 327.307 148.089 327 147.697 327C147.305 327 146.982 327.307 146.982 327.682C146.982 328.057 147.305 328.364 147.697 328.364ZM150.681 338.455C151.589 338.455 152.228 337.973 152.608 336.955L155.395 329.472L154.295 329.455L152.488 334.67H152.42L150.613 329.455H149.522L151.943 336.034L151.755 336.545C151.389 337.543 150.937 337.636 150.204 337.449L149.949 338.335C150.051 338.386 150.341 338.455 150.681 338.455ZM158.452 336.153C159.594 336.153 160.191 335.54 160.395 335.114H160.446V336H161.452V331.688C161.452 329.608 159.867 329.369 159.032 329.369C158.043 329.369 156.918 329.71 156.407 330.903L157.361 331.244C157.583 330.767 158.107 330.256 159.066 330.256C159.99 330.256 160.446 330.746 160.446 331.585V331.619C160.446 332.105 159.952 332.062 158.759 332.216C157.544 332.374 156.219 332.642 156.219 334.142C156.219 335.42 157.208 336.153 158.452 336.153ZM158.605 335.25C157.804 335.25 157.225 334.892 157.225 334.193C157.225 333.426 157.924 333.188 158.708 333.085C159.134 333.034 160.276 332.915 160.446 332.71V333.631C160.446 334.449 159.799 335.25 158.605 335.25Z" fill="#1C1C1C"/>
<rect x="528" y="335" width="31" height="25" rx="6" fill="#EC5147"/>
<path d="M539.07 352.119C540.885 352.119 542.168 351.088 542.176 349.673C542.168 348.574 541.396 347.649 540.42 347.474V347.423C541.268 347.219 541.844 346.422 541.852 345.48C541.844 344.146 540.668 343.153 539.07 343.153C537.455 343.153 536.278 344.146 536.287 345.48C536.278 346.418 536.854 347.219 537.719 347.423V347.474C536.726 347.649 535.955 348.574 535.963 349.673C535.955 351.088 537.237 352.119 539.07 352.119ZM539.07 351.041C537.979 351.041 537.288 350.462 537.297 349.588C537.288 348.68 538.038 348.033 539.07 348.033C540.084 348.033 540.834 348.68 540.842 349.588C540.834 350.462 540.148 351.041 539.07 351.041ZM539.07 346.98C538.188 346.98 537.561 346.422 537.57 345.591C537.561 344.773 538.166 344.232 539.07 344.232C539.956 344.232 540.561 344.773 540.57 345.591C540.561 346.422 539.939 346.98 539.07 346.98ZM544.29 352.081C544.754 352.081 545.142 351.702 545.142 351.229C545.142 350.764 544.754 350.381 544.29 350.381C543.821 350.381 543.438 350.764 543.438 351.229C543.438 351.702 543.821 352.081 544.29 352.081ZM546.903 352H548.279L552.076 344.44V343.273H546.306V344.402H550.713V344.466L546.903 352Z" fill="white"/>
<rect x="34" y="161" width="482" height="8" rx="4" fill="#DEDEDE"/>
<rect x="34" y="161" width="224.583" height="8" rx="4" fill="#FF8D86"/>
<path d="M35.0568 153H36.1136V149.591H38.0227C38.0994 149.591 38.1719 149.591 38.2443 149.587L40.0852 153H41.3125L39.3395 149.395C40.4517 149.016 40.9716 148.108 40.9716 146.949C40.9716 145.406 40.0511 144.273 38.0057 144.273H35.0568V153ZM36.1136 148.636V145.21H37.9716C39.3864 145.21 39.9318 145.901 39.9318 146.949C39.9318 147.997 39.3864 148.636 37.9886 148.636H36.1136ZM44.5224 153.153C45.6644 153.153 46.261 152.54 46.4656 152.114H46.5167V153H47.5224V148.688C47.5224 146.608 45.9371 146.369 45.1019 146.369C44.1133 146.369 42.9883 146.71 42.4769 147.903L43.4315 148.244C43.6531 147.767 44.1772 147.256 45.136 147.256C46.0607 147.256 46.5167 147.746 46.5167 148.585V148.619C46.5167 149.105 46.0224 149.062 44.8292 149.216C43.6147 149.374 42.2894 149.642 42.2894 151.142C42.2894 152.42 43.2781 153.153 44.5224 153.153ZM44.6758 152.25C43.8746 152.25 43.2951 151.892 43.2951 151.193C43.2951 150.426 43.994 150.188 44.7781 150.085C45.2042 150.034 46.3462 149.915 46.5167 149.71V150.631C46.5167 151.449 45.869 152.25 44.6758 152.25ZM53.9943 147.92C53.679 146.991 52.9716 146.369 51.6761 146.369C50.2955 146.369 49.2727 147.153 49.2727 148.261C49.2727 149.165 49.8097 149.77 51.0114 150.051L52.1023 150.307C52.7628 150.46 53.0739 150.776 53.0739 151.227C53.0739 151.79 52.4773 152.25 51.5398 152.25C50.7173 152.25 50.2017 151.896 50.0227 151.193L49.0682 151.432C49.3026 152.544 50.2188 153.136 51.5568 153.136C53.0781 153.136 54.1136 152.305 54.1136 151.176C54.1136 150.264 53.5426 149.689 52.375 149.403L51.4034 149.165C50.6278 148.973 50.2784 148.713 50.2784 148.21C50.2784 147.648 50.875 147.239 51.6761 147.239C52.554 147.239 52.9162 147.724 53.0909 148.176L53.9943 147.92ZM55.6275 153H56.6332V148.909C56.6332 147.95 57.332 147.273 58.1161 147.273C58.8789 147.273 59.4116 147.771 59.4116 148.517V153H60.4343V148.739C60.4343 147.895 60.9627 147.273 61.8832 147.273C62.5991 147.273 63.2127 147.652 63.2127 148.619V153H64.2184V148.619C64.2184 147.081 63.3917 146.369 62.2241 146.369C61.2866 146.369 60.6005 146.8 60.2638 147.477H60.1957C59.8718 146.778 59.3008 146.369 58.44 146.369C57.5877 146.369 56.957 146.778 56.6843 147.477H56.5991V146.455H55.6275V153ZM72.0913 153.136C73.5401 153.136 74.4947 152.25 74.6651 151.091H73.6594C73.4719 151.807 72.8754 152.233 72.0913 152.233C70.8981 152.233 70.131 151.244 70.131 149.727C70.131 148.244 70.9151 147.273 72.0913 147.273C72.9776 147.273 73.506 147.818 73.6594 148.415H74.6651C74.4947 147.188 73.4549 146.369 72.0742 146.369C70.3015 146.369 69.1254 147.767 69.1254 149.761C69.1254 151.722 70.2504 153.136 72.0913 153.136ZM77.141 149.062C77.141 147.92 77.8697 147.273 78.8626 147.273C79.8086 147.273 80.3796 147.869 80.3796 148.909V153H81.3853V148.841C81.3853 147.158 80.4904 146.369 79.1523 146.369C78.1211 146.369 77.533 146.8 77.2262 147.477H77.141V144.273H76.1353V153H77.141V149.062ZM83.2251 153H84.2308V146.455H83.2251V153ZM83.7365 145.364C84.1286 145.364 84.4524 145.057 84.4524 144.682C84.4524 144.307 84.1286 144 83.7365 144C83.3445 144 83.0206 144.307 83.0206 144.682C83.0206 145.057 83.3445 145.364 83.7365 145.364ZM85.8853 153H91.016V152.062H87.283V151.994L90.8967 147.256V146.455H86.0046V147.392H89.6012V147.46L85.8853 152.233V153ZM92.565 153H93.5707V146.455H92.565V153ZM93.0763 145.364C93.4684 145.364 93.7923 145.057 93.7923 144.682C93.7923 144.307 93.4684 144 93.0763 144C92.6843 144 92.3604 144.307 92.3604 144.682C92.3604 145.057 92.6843 145.364 93.0763 145.364ZM100.049 147.92C99.7337 146.991 99.0263 146.369 97.7308 146.369C96.3501 146.369 95.3274 147.153 95.3274 148.261C95.3274 149.165 95.8643 149.77 97.0661 150.051L98.157 150.307C98.8175 150.46 99.1286 150.776 99.1286 151.227C99.1286 151.79 98.532 152.25 97.5945 152.25C96.772 152.25 96.2564 151.896 96.0774 151.193L95.1229 151.432C95.3572 152.544 96.2734 153.136 97.6115 153.136C99.1328 153.136 100.168 152.305 100.168 151.176C100.168 150.264 99.5973 149.689 98.4297 149.403L97.4581 149.165C96.6825 148.973 96.3331 148.713 96.3331 148.21C96.3331 147.648 96.9297 147.239 97.7308 147.239C98.6087 147.239 98.9709 147.724 99.1456 148.176L100.049 147.92ZM102.688 149.062C102.688 147.92 103.417 147.273 104.409 147.273C105.355 147.273 105.926 147.869 105.926 148.909V153H106.932V148.841C106.932 147.158 106.037 146.369 104.699 146.369C103.668 146.369 103.08 146.8 102.773 147.477H102.688V144.273H101.682V153H102.688V149.062Z" fill="#1C1C1C"/>
<rect x="528" y="152" width="31" height="25" rx="6" fill="#EC5147"/>
<path d="M540.257 169.119C542.081 169.136 543.292 167.824 543.287 166.149C543.292 164.479 542.077 163.281 540.564 163.281C539.644 163.281 538.847 163.724 538.4 164.462H538.336C538.34 162.48 539.09 161.304 540.368 161.304C541.208 161.304 541.736 161.815 541.915 162.54H543.215C543.015 161.159 541.928 160.153 540.368 160.153C538.34 160.153 537.074 161.896 537.074 164.93C537.07 168.143 538.706 169.107 540.257 169.119ZM540.253 168.011C539.239 168.011 538.498 167.159 538.498 166.179C538.502 165.203 539.277 164.351 540.283 164.351C541.28 164.351 542.013 165.156 542.009 166.166C542.013 167.197 541.25 168.011 540.253 168.011ZM545.309 169.081C545.774 169.081 546.162 168.702 546.162 168.229C546.162 167.764 545.774 167.381 545.309 167.381C544.841 167.381 544.457 167.764 544.457 168.229C544.457 168.702 544.841 169.081 545.309 169.081ZM550.108 160.273H548.825L546.647 161.696V162.957L548.735 161.594H548.787V169H550.108V160.273Z" fill="white"/>
<rect x="34" y="283" width="482" height="8" rx="4" fill="#DEDEDE"/>
<rect x="34" y="283" width="187.917" height="8" rx="4" fill="#FF8D86"/>
<path d="M36.1136 266.273H35.0568V275H36.1136V266.273ZM39.1019 271.062C39.1019 269.92 39.8093 269.273 40.7724 269.273C41.7056 269.273 42.2724 269.882 42.2724 270.909V275H43.2781V270.841C43.2781 269.17 42.3874 268.369 41.0621 268.369C40.0735 268.369 39.4599 268.812 39.1531 269.477H39.0678V268.455H38.0962V275H39.1019V271.062ZM49.7521 269.92C49.4368 268.991 48.7294 268.369 47.4339 268.369C46.0533 268.369 45.0305 269.153 45.0305 270.261C45.0305 271.165 45.5675 271.77 46.7692 272.051L47.8601 272.307C48.5206 272.46 48.8317 272.776 48.8317 273.227C48.8317 273.79 48.2351 274.25 47.2976 274.25C46.4751 274.25 45.9595 273.896 45.7805 273.193L44.826 273.432C45.0604 274.544 45.9766 275.136 47.3146 275.136C48.8359 275.136 49.8714 274.305 49.8714 273.176C49.8714 272.264 49.3004 271.689 48.1328 271.403L47.1612 271.165C46.3857 270.973 46.0362 270.713 46.0362 270.21C46.0362 269.648 46.6328 269.239 47.4339 269.239C48.3118 269.239 48.674 269.724 48.8487 270.176L49.7521 269.92ZM54.0444 275.136C55.8171 275.136 57.0103 273.79 57.0103 271.761C57.0103 269.716 55.8171 268.369 54.0444 268.369C52.2717 268.369 51.0785 269.716 51.0785 271.761C51.0785 273.79 52.2717 275.136 54.0444 275.136ZM54.0444 274.233C52.6978 274.233 52.0842 273.074 52.0842 271.761C52.0842 270.449 52.6978 269.273 54.0444 269.273C55.391 269.273 56.0046 270.449 56.0046 271.761C56.0046 273.074 55.391 274.233 54.0444 274.233ZM59.5511 271.062C59.5511 269.92 60.2585 269.273 61.2216 269.273C62.1548 269.273 62.7216 269.882 62.7216 270.909V275H63.7273V270.841C63.7273 269.17 62.8366 268.369 61.5114 268.369C60.5227 268.369 59.9091 268.812 59.6023 269.477H59.517V268.455H58.5455V275H59.5511V271.062ZM66.5707 266.273H65.565V275H66.5707V266.273ZM70.3388 275.153C71.4808 275.153 72.0774 274.54 72.282 274.114H72.3331V275H73.3388V270.688C73.3388 268.608 71.7536 268.369 70.9183 268.369C69.9297 268.369 68.8047 268.71 68.2933 269.903L69.2479 270.244C69.4695 269.767 69.9936 269.256 70.9524 269.256C71.8771 269.256 72.3331 269.746 72.3331 270.585V270.619C72.3331 271.105 71.8388 271.062 70.6456 271.216C69.4311 271.374 68.1058 271.642 68.1058 273.142C68.1058 274.42 69.0945 275.153 70.3388 275.153ZM70.4922 274.25C69.6911 274.25 69.1115 273.892 69.1115 273.193C69.1115 272.426 69.8104 272.188 70.5945 272.085C71.0206 272.034 72.1626 271.915 72.3331 271.71V272.631C72.3331 273.449 71.6854 274.25 70.4922 274.25ZM75.1744 275H76.18V270.858C76.18 269.972 76.8789 269.324 77.8335 269.324C78.1019 269.324 78.3789 269.375 78.4471 269.392V268.369C78.332 268.361 78.0678 268.352 77.9187 268.352C77.1346 268.352 76.4528 268.795 76.2141 269.443H76.146V268.455H75.1744V275ZM83.1506 275H84.1222V273.994H84.2415C84.4631 274.352 84.8892 275.136 86.1506 275.136C87.7869 275.136 88.929 273.824 88.929 271.744C88.929 269.682 87.7869 268.369 86.1335 268.369C84.8551 268.369 84.4631 269.153 84.2415 269.494H84.1562V266.273H83.1506V275ZM84.1392 271.727C84.1392 270.261 84.7869 269.273 86.0142 269.273C87.2926 269.273 87.9233 270.347 87.9233 271.727C87.9233 273.125 87.2756 274.233 86.0142 274.233C84.804 274.233 84.1392 273.21 84.1392 271.727ZM90.4673 275H91.473V268.455H90.4673V275ZM90.9787 267.364C91.3707 267.364 91.6946 267.057 91.6946 266.682C91.6946 266.307 91.3707 266 90.9787 266C90.5866 266 90.2628 266.307 90.2628 266.682C90.2628 267.057 90.5866 267.364 90.9787 267.364ZM94.3207 266.273H93.315V275H94.3207V266.273ZM98.0888 275.153C99.2308 275.153 99.8274 274.54 100.032 274.114H100.083V275H101.089V270.688C101.089 268.608 99.5036 268.369 98.6683 268.369C97.6797 268.369 96.5547 268.71 96.0433 269.903L96.9979 270.244C97.2195 269.767 97.7436 269.256 98.7024 269.256C99.6271 269.256 100.083 269.746 100.083 270.585V270.619C100.083 271.105 99.5888 271.062 98.3956 271.216C97.1811 271.374 95.8558 271.642 95.8558 273.142C95.8558 274.42 96.8445 275.153 98.0888 275.153ZM98.2422 274.25C97.4411 274.25 96.8615 273.892 96.8615 273.193C96.8615 272.426 97.5604 272.188 98.3445 272.085C98.7706 272.034 99.9126 271.915 100.083 271.71V272.631C100.083 273.449 99.4354 274.25 98.2422 274.25ZM103.93 271.062C103.93 269.92 104.637 269.273 105.6 269.273C106.534 269.273 107.1 269.882 107.1 270.909V275H108.106V270.841C108.106 269.17 107.216 268.369 105.89 268.369C104.902 268.369 104.288 268.812 103.981 269.477H103.896V268.455H102.924V275H103.93V271.062ZM113.319 275H114.325V270.909C114.325 269.95 115.023 269.273 115.808 269.273C116.57 269.273 117.103 269.771 117.103 270.517V275H118.126V270.739C118.126 269.895 118.654 269.273 119.575 269.273C120.29 269.273 120.904 269.652 120.904 270.619V275H121.91V270.619C121.91 269.081 121.083 268.369 119.915 268.369C118.978 268.369 118.292 268.8 117.955 269.477H117.887C117.563 268.778 116.992 268.369 116.131 268.369C115.279 268.369 114.648 268.778 114.376 269.477H114.29V268.455H113.319V275ZM127.874 272.324C127.874 273.551 126.936 274.114 126.186 274.114C125.351 274.114 124.754 273.5 124.754 272.545V268.455H123.749V272.614C123.749 274.284 124.635 275.085 125.862 275.085C126.851 275.085 127.499 274.557 127.805 273.892H127.874V275H128.879V268.455H127.874V272.324ZM131.727 266.273H130.721V275H131.727V266.273ZM136.228 275.136C138.001 275.136 139.194 273.79 139.194 271.761C139.194 269.716 138.001 268.369 136.228 268.369C134.455 268.369 133.262 269.716 133.262 271.761C133.262 273.79 134.455 275.136 136.228 275.136ZM136.228 274.233C134.881 274.233 134.268 273.074 134.268 271.761C134.268 270.449 134.881 269.273 136.228 269.273C137.575 269.273 138.188 270.449 138.188 271.761C138.188 273.074 137.575 274.233 136.228 274.233ZM146.201 277.455V268.455H145.229V269.494H145.11C144.888 269.153 144.496 268.369 143.218 268.369C141.564 268.369 140.422 269.682 140.422 271.744C140.422 273.824 141.564 275.136 143.201 275.136C144.462 275.136 144.888 274.352 145.11 273.994H145.195V277.455H146.201ZM145.212 271.727C145.212 273.21 144.547 274.233 143.337 274.233C142.076 274.233 141.428 273.125 141.428 271.727C141.428 270.347 142.059 269.273 143.337 269.273C144.564 269.273 145.212 270.261 145.212 271.727ZM150.701 275.136C152.473 275.136 153.667 273.79 153.667 271.761C153.667 269.716 152.473 268.369 150.701 268.369C148.928 268.369 147.735 269.716 147.735 271.761C147.735 273.79 148.928 275.136 150.701 275.136ZM150.701 274.233C149.354 274.233 148.74 273.074 148.74 271.761C148.74 270.449 149.354 269.273 150.701 269.273C152.047 269.273 152.661 270.449 152.661 271.761C152.661 273.074 152.047 274.233 150.701 274.233ZM158.048 268.455H156.651V266.886H155.645V268.455H154.656V269.307H155.645V273.398C155.645 274.54 156.565 275.085 157.418 275.085C157.793 275.085 158.031 275.017 158.168 274.966L157.963 274.062C157.878 274.08 157.741 274.114 157.52 274.114C157.077 274.114 156.651 273.977 156.651 273.125V269.307H158.048V268.455Z" fill="#1C1C1C"/>
<rect x="528" y="274" width="31" height="25" rx="6" fill="#EC5147"/>
<path d="M539.07 291.119C540.885 291.119 542.168 290.088 542.176 288.673C542.168 287.574 541.396 286.649 540.42 286.474V286.423C541.268 286.219 541.844 285.422 541.852 284.48C541.844 283.146 540.668 282.153 539.07 282.153C537.455 282.153 536.278 283.146 536.287 284.48C536.278 285.418 536.854 286.219 537.719 286.423V286.474C536.726 286.649 535.955 287.574 535.963 288.673C535.955 290.088 537.237 291.119 539.07 291.119ZM539.07 290.041C537.979 290.041 537.288 289.462 537.297 288.588C537.288 287.68 538.038 287.033 539.07 287.033C540.084 287.033 540.834 287.68 540.842 288.588C540.834 289.462 540.148 290.041 539.07 290.041ZM539.07 285.98C538.188 285.98 537.561 285.422 537.57 284.591C537.561 283.773 538.166 283.232 539.07 283.232C539.956 283.232 540.561 283.773 540.57 284.591C540.561 285.422 539.939 285.98 539.07 285.98ZM544.29 291.081C544.754 291.081 545.142 290.702 545.142 290.229C545.142 289.764 544.754 289.381 544.29 289.381C543.821 289.381 543.438 289.764 543.438 290.229C543.438 290.702 543.821 291.081 544.29 291.081ZM546.903 291H548.279L552.076 283.44V282.273H546.306V283.402H550.713V283.466L546.903 291Z" fill="white"/>
<rect x="34" y="405" width="482" height="8" rx="4" fill="#DEDEDE"/>
<rect x="34" y="405" width="89.8333" height="8" rx="4" fill="#FF8D86"/>
<path d="M34.5795 389.21H37.3239V397H38.3807V389.21H41.125V388.273H34.5795V389.21ZM44.4148 397.136C45.7443 397.136 46.7159 396.472 47.0227 395.483L46.0511 395.21C45.7955 395.892 45.2031 396.233 44.4148 396.233C43.2344 396.233 42.4205 395.47 42.3736 394.068H47.125V393.642C47.125 391.205 45.6761 390.369 44.3125 390.369C42.5398 390.369 41.3636 391.767 41.3636 393.778C41.3636 395.79 42.5227 397.136 44.4148 397.136ZM42.3736 393.199C42.4418 392.18 43.1619 391.273 44.3125 391.273C45.4034 391.273 46.1023 392.091 46.1023 393.199H42.3736ZM49.229 390.455H48.07L50.1495 393.727L48.07 397H49.229L50.7972 394.46L52.3654 397H53.5245L51.4109 393.727L53.5245 390.455H52.3654L50.7972 393.131L49.229 390.455ZM55.9652 393.062C55.9652 391.92 56.6726 391.273 57.6357 391.273C58.5689 391.273 59.1357 391.882 59.1357 392.909V397H60.1413V392.841C60.1413 391.17 59.2507 390.369 57.9254 390.369C56.9368 390.369 56.3232 390.812 56.0163 391.477H55.9311V390.455H54.9595V397H55.9652V393.062ZM61.979 397H62.9847V390.455H61.979V397ZM62.4904 389.364C62.8825 389.364 63.2063 389.057 63.2063 388.682C63.2063 388.307 62.8825 388 62.4904 388C62.0984 388 61.7745 388.307 61.7745 388.682C61.7745 389.057 62.0984 389.364 62.4904 389.364ZM64.8267 397H65.8324V394.55L66.5355 393.898L68.9858 397H70.2642L67.294 393.25L70.0597 390.455H68.8153L65.9517 393.369H65.8324V388.273H64.8267V397ZM73.2802 397.153C74.4222 397.153 75.0188 396.54 75.2234 396.114H75.2745V397H76.2802V392.688C76.2802 390.608 74.695 390.369 73.8597 390.369C72.8711 390.369 71.7461 390.71 71.2347 391.903L72.1893 392.244C72.4109 391.767 72.935 391.256 73.8938 391.256C74.8185 391.256 75.2745 391.746 75.2745 392.585V392.619C75.2745 393.105 74.7802 393.062 73.587 393.216C72.3725 393.374 71.0472 393.642 71.0472 395.142C71.0472 396.42 72.0359 397.153 73.2802 397.153ZM73.4336 396.25C72.6325 396.25 72.0529 395.892 72.0529 395.193C72.0529 394.426 72.7518 394.188 73.5359 394.085C73.962 394.034 75.104 393.915 75.2745 393.71V394.631C75.2745 395.449 74.6268 396.25 73.4336 396.25ZM86.843 390.455H85.7521L83.9453 395.67H83.8771L82.0703 390.455H80.9794L83.3999 397H84.4226L86.843 390.455ZM89.8974 397.153C91.0394 397.153 91.636 396.54 91.8406 396.114H91.8917V397H92.8974V392.688C92.8974 390.608 91.3121 390.369 90.4769 390.369C89.4883 390.369 88.3633 390.71 87.8519 391.903L88.8065 392.244C89.0281 391.767 89.5522 391.256 90.511 391.256C91.4357 391.256 91.8917 391.746 91.8917 392.585V392.619C91.8917 393.105 91.3974 393.062 90.2042 393.216C88.9897 393.374 87.6644 393.642 87.6644 395.142C87.6644 396.42 88.6531 397.153 89.8974 397.153ZM90.0508 396.25C89.2496 396.25 88.6701 395.892 88.6701 395.193C88.6701 394.426 89.369 394.188 90.1531 394.085C90.5792 394.034 91.7212 393.915 91.8917 393.71V394.631C91.8917 395.449 91.244 396.25 90.0508 396.25ZM100.955 390.455H99.5568V388.886H98.5511V390.455H97.5625V391.307H98.5511V395.398C98.5511 396.54 99.4716 397.085 100.324 397.085C100.699 397.085 100.938 397.017 101.074 396.966L100.869 396.062C100.784 396.08 100.648 396.114 100.426 396.114C99.983 396.114 99.5568 395.977 99.5568 395.125V391.307H100.955V390.455ZM105.141 397.136C106.471 397.136 107.442 396.472 107.749 395.483L106.778 395.21C106.522 395.892 105.93 396.233 105.141 396.233C103.961 396.233 103.147 395.47 103.1 394.068H107.852V393.642C107.852 391.205 106.403 390.369 105.039 390.369C103.266 390.369 102.09 391.767 102.09 393.778C102.09 395.79 103.249 397.136 105.141 397.136ZM103.1 393.199C103.168 392.18 103.888 391.273 105.039 391.273C106.13 391.273 106.829 392.091 106.829 393.199H103.1ZM109.956 390.455H108.797L110.876 393.727L108.797 397H109.956L111.524 394.46L113.092 397H114.251L112.137 393.727L114.251 390.455H113.092L111.524 393.131L109.956 390.455ZM116.692 393.062C116.692 391.92 117.399 391.273 118.362 391.273C119.295 391.273 119.862 391.882 119.862 392.909V397H120.868V392.841C120.868 391.17 119.977 390.369 118.652 390.369C117.663 390.369 117.05 390.812 116.743 391.477H116.658V390.455H115.686V397H116.692V393.062ZM125.365 397.136C127.137 397.136 128.331 395.79 128.331 393.761C128.331 391.716 127.137 390.369 125.365 390.369C123.592 390.369 122.399 391.716 122.399 393.761C122.399 395.79 123.592 397.136 125.365 397.136ZM125.365 396.233C124.018 396.233 123.404 395.074 123.404 393.761C123.404 392.449 124.018 391.273 125.365 391.273C126.711 391.273 127.325 392.449 127.325 393.761C127.325 395.074 126.711 396.233 125.365 396.233ZM130.871 388.273H129.866V397H130.871V388.273ZM135.373 397.136C137.145 397.136 138.338 395.79 138.338 393.761C138.338 391.716 137.145 390.369 135.373 390.369C133.6 390.369 132.407 391.716 132.407 393.761C132.407 395.79 133.6 397.136 135.373 397.136ZM135.373 396.233C134.026 396.233 133.412 395.074 133.412 393.761C133.412 392.449 134.026 391.273 135.373 391.273C136.719 391.273 137.333 392.449 137.333 393.761C137.333 395.074 136.719 396.233 135.373 396.233ZM142.516 399.591C144.084 399.591 145.345 398.875 145.345 397.188V390.455H144.374V391.494H144.271C144.05 391.153 143.641 390.369 142.362 390.369C140.709 390.369 139.567 391.682 139.567 393.693C139.567 395.739 140.76 396.898 142.345 396.898C143.624 396.898 144.033 396.148 144.254 395.79H144.339V397.119C144.339 398.21 143.572 398.705 142.516 398.705C141.327 398.705 140.909 398.078 140.641 397.716L139.839 398.278C140.249 398.964 141.054 399.591 142.516 399.591ZM142.482 395.994C141.22 395.994 140.572 395.04 140.572 393.676C140.572 392.347 141.203 391.273 142.482 391.273C143.709 391.273 144.357 392.261 144.357 393.676C144.357 395.125 143.692 395.994 142.482 395.994ZM147.186 397H148.192V390.455H147.186V397ZM147.697 389.364C148.089 389.364 148.413 389.057 148.413 388.682C148.413 388.307 148.089 388 147.697 388C147.305 388 146.982 388.307 146.982 388.682C146.982 389.057 147.305 389.364 147.697 389.364ZM150.681 399.455C151.589 399.455 152.228 398.973 152.608 397.955L155.395 390.472L154.295 390.455L152.488 395.67H152.42L150.613 390.455H149.522L151.943 397.034L151.755 397.545C151.389 398.543 150.937 398.636 150.204 398.449L149.949 399.335C150.051 399.386 150.341 399.455 150.681 399.455ZM158.452 397.153C159.594 397.153 160.191 396.54 160.395 396.114H160.446V397H161.452V392.688C161.452 390.608 159.867 390.369 159.032 390.369C158.043 390.369 156.918 390.71 156.407 391.903L157.361 392.244C157.583 391.767 158.107 391.256 159.066 391.256C159.99 391.256 160.446 391.746 160.446 392.585V392.619C160.446 393.105 159.952 393.062 158.759 393.216C157.544 393.374 156.219 393.642 156.219 395.142C156.219 396.42 157.208 397.153 158.452 397.153ZM158.605 396.25C157.804 396.25 157.225 395.892 157.225 395.193C157.225 394.426 157.924 394.188 158.708 394.085C159.134 394.034 160.276 393.915 160.446 393.71V394.631C160.446 395.449 159.799 396.25 158.605 396.25Z" fill="#1C1C1C"/>
<rect x="528" y="396" width="31" height="25" rx="6" fill="#EC5147"/>
<path d="M539.07 413.119C540.885 413.119 542.168 412.088 542.176 410.673C542.168 409.574 541.396 408.649 540.42 408.474V408.423C541.268 408.219 541.844 407.422 541.852 406.48C541.844 405.146 540.668 404.153 539.07 404.153C537.455 404.153 536.278 405.146 536.287 406.48C536.278 407.418 536.854 408.219 537.719 408.423V408.474C536.726 408.649 535.955 409.574 535.963 410.673C535.955 412.088 537.237 413.119 539.07 413.119ZM539.07 412.041C537.979 412.041 537.288 411.462 537.297 410.588C537.288 409.68 538.038 409.033 539.07 409.033C540.084 409.033 540.834 409.68 540.842 410.588C540.834 411.462 540.148 412.041 539.07 412.041ZM539.07 407.98C538.188 407.98 537.561 407.422 537.57 406.591C537.561 405.773 538.166 405.232 539.07 405.232C539.956 405.232 540.561 405.773 540.57 406.591C540.561 407.422 539.939 407.98 539.07 407.98ZM544.29 413.081C544.754 413.081 545.142 412.702 545.142 412.229C545.142 411.764 544.754 411.381 544.29 411.381C543.821 411.381 543.438 411.764 543.438 412.229C543.438 412.702 543.821 413.081 544.29 413.081ZM546.903 413H548.279L552.076 405.44V404.273H546.306V405.402H550.713V405.466L546.903 413Z" fill="white"/>
</svg>
