<svg width="589" height="480" viewBox="0 0 589 480" fill="none" xmlns="http://www.w3.org/2000/svg">
<rect width="589" height="480" rx="16" fill="#F2F2F2"/>
<path d="M36.4 50.2C35.5067 50.2 34.6333 50.1 33.78 49.9C32.94 49.7 32.2067 49.4 31.58 49C31.2733 48.8 31.0867 48.5533 31.02 48.26C30.9533 47.9667 30.9733 47.6933 31.08 47.44C31.2 47.1733 31.38 46.9933 31.62 46.9C31.8733 46.7933 32.16 46.84 32.48 47.04C33.0667 47.3867 33.6867 47.64 34.34 47.8C34.9933 47.96 35.68 48.04 36.4 48.04C37.4533 48.04 38.22 47.8667 38.7 47.52C39.18 47.16 39.42 46.7 39.42 46.14C39.42 45.6733 39.2467 45.3067 38.9 45.04C38.5667 44.7733 37.9867 44.5533 37.16 44.38L34.96 43.92C32.4533 43.3867 31.2 42.1 31.2 40.06C31.2 39.18 31.4333 38.4133 31.9 37.76C32.3667 37.1067 33.0133 36.6 33.84 36.24C34.6667 35.88 35.62 35.7 36.7 35.7C37.5 35.7 38.26 35.8 38.98 36C39.7 36.2 40.3467 36.4933 40.92 36.88C41.1867 37.0667 41.3467 37.3 41.4 37.58C41.4533 37.8467 41.42 38.1 41.3 38.34C41.18 38.5667 40.9867 38.7267 40.72 38.82C40.4667 38.9 40.1667 38.84 39.82 38.64C39.3267 38.36 38.8267 38.16 38.32 38.04C37.8133 37.92 37.2667 37.86 36.68 37.86C35.76 37.86 35.04 38.0533 34.52 38.44C34 38.8267 33.74 39.3333 33.74 39.96C33.74 40.44 33.9 40.8267 34.22 41.12C34.54 41.4 35.0867 41.62 35.86 41.78L38.04 42.24C39.36 42.52 40.34 42.96 40.98 43.56C41.6333 44.16 41.96 44.96 41.96 45.96C41.96 46.8 41.7333 47.54 41.28 48.18C40.8267 48.82 40.18 49.32 39.34 49.68C38.5133 50.0267 37.5333 50.2 36.4 50.2ZM44.9572 38.22C44.4905 38.22 44.1239 38.1067 43.8572 37.88C43.6039 37.64 43.4772 37.3133 43.4772 36.9C43.4772 36.4733 43.6039 36.1467 43.8572 35.92C44.1239 35.6933 44.4905 35.58 44.9572 35.58C45.9439 35.58 46.4372 36.02 46.4372 36.9C46.4372 37.78 45.9439 38.22 44.9572 38.22ZM44.9572 50.14C44.5572 50.14 44.2505 50.02 44.0372 49.78C43.8239 49.54 43.7172 49.2067 43.7172 48.78V41.44C43.7172 40.5333 44.1305 40.08 44.9572 40.08C45.7972 40.08 46.2172 40.5333 46.2172 41.44V48.78C46.2172 49.2067 46.1105 49.54 45.8972 49.78C45.6839 50.02 45.3705 50.14 44.9572 50.14ZM49.2148 50C48.8682 50 48.6082 49.8933 48.4348 49.68C48.2615 49.4533 48.1882 49.1867 48.2148 48.88C48.2415 48.5733 48.3815 48.28 48.6348 48L53.3348 42.1H49.0948C48.4548 42.1 48.1348 41.7867 48.1348 41.16C48.1348 40.5333 48.4548 40.22 49.0948 40.22H55.0148C55.4148 40.22 55.7082 40.3267 55.8948 40.54C56.0948 40.7533 56.1815 41.0133 56.1548 41.32C56.1415 41.6133 56.0082 41.9 55.7548 42.18L50.9948 48.12H55.4748C56.1148 48.12 56.4348 48.4333 56.4348 49.06C56.4348 49.6867 56.1148 50 55.4748 50H49.2148ZM61.4522 50.2C60.5989 50.2 59.8455 49.9933 59.1922 49.58C58.5522 49.1667 58.0522 48.58 57.6922 47.82C57.3322 47.0467 57.1522 46.14 57.1522 45.1C57.1522 44.0467 57.3322 43.1467 57.6922 42.4C58.0522 41.64 58.5522 41.0533 59.1922 40.64C59.8455 40.2267 60.5989 40.02 61.4522 40.02C62.1455 40.02 62.7722 40.1733 63.3322 40.48C63.8922 40.7867 64.3122 41.1933 64.5922 41.7V37C64.5922 36.16 65.0055 35.74 65.8322 35.74C66.6722 35.74 67.0922 36.16 67.0922 37V48.88C67.0922 49.7333 66.6789 50.16 65.8522 50.16C65.0255 50.16 64.6122 49.7333 64.6122 48.88V48.46C64.3322 48.9933 63.9122 49.42 63.3522 49.74C62.7922 50.0467 62.1589 50.2 61.4522 50.2ZM62.1522 48.3C62.8989 48.3 63.4989 48.0333 63.9522 47.5C64.4055 46.9533 64.6322 46.1533 64.6322 45.1C64.6322 44.0333 64.4055 43.24 63.9522 42.72C63.4989 42.1867 62.8989 41.92 62.1522 41.92C61.4055 41.92 60.8055 42.1867 60.3522 42.72C59.8989 43.24 59.6722 44.0333 59.6722 45.1C59.6722 46.1533 59.8989 46.9533 60.3522 47.5C60.8055 48.0333 61.4055 48.3 62.1522 48.3ZM72.7044 50.2C71.9977 50.2 71.3644 50.0667 70.8044 49.8C70.2577 49.52 69.8244 49.1467 69.5044 48.68C69.1977 48.2133 69.0444 47.6867 69.0444 47.1C69.0444 46.38 69.231 45.8133 69.6044 45.4C69.9777 44.9733 70.5844 44.6667 71.4244 44.48C72.2644 44.2933 73.391 44.2 74.8044 44.2H75.5044V43.78C75.5044 43.1133 75.3577 42.6333 75.0644 42.34C74.771 42.0467 74.2777 41.9 73.5844 41.9C73.1977 41.9 72.7777 41.9467 72.3244 42.04C71.8844 42.1333 71.4177 42.2933 70.9244 42.52C70.6044 42.6667 70.3377 42.6867 70.1244 42.58C69.911 42.46 69.7644 42.28 69.6844 42.04C69.6177 41.7867 69.631 41.5333 69.7244 41.28C69.831 41.0267 70.0377 40.84 70.3444 40.72C70.9577 40.4667 71.5444 40.2867 72.1044 40.18C72.6777 40.0733 73.1977 40.02 73.6644 40.02C75.091 40.02 76.151 40.3533 76.8444 41.02C77.5377 41.6733 77.8844 42.6933 77.8844 44.08V48.88C77.8844 49.7333 77.4977 50.16 76.7244 50.16C75.9377 50.16 75.5444 49.7333 75.5444 48.88V48.44C75.3177 48.9867 74.9577 49.42 74.4644 49.74C73.971 50.0467 73.3844 50.2 72.7044 50.2ZM73.2244 48.48C73.8777 48.48 74.4177 48.2533 74.8444 47.8C75.2844 47.3467 75.5044 46.7733 75.5044 46.08V45.64H74.8244C73.571 45.64 72.6977 45.74 72.2044 45.94C71.7244 46.1267 71.4844 46.4733 71.4844 46.98C71.4844 47.42 71.6377 47.78 71.9444 48.06C72.251 48.34 72.6777 48.48 73.2244 48.48ZM84.7819 53.8C84.0619 53.8 83.3619 53.7333 82.6819 53.6C82.0152 53.4667 81.4085 53.26 80.8619 52.98C80.5419 52.82 80.3485 52.6133 80.2819 52.36C80.2285 52.12 80.2552 51.8867 80.3619 51.66C80.4685 51.4333 80.6285 51.2667 80.8419 51.16C81.0685 51.0667 81.3085 51.08 81.5619 51.2C82.1485 51.4933 82.7019 51.68 83.2219 51.76C83.7552 51.8533 84.2085 51.9 84.5819 51.9C86.3685 51.9 87.2619 51.04 87.2619 49.32V47.98C86.9819 48.5267 86.5485 48.96 85.9619 49.28C85.3885 49.6 84.7485 49.76 84.0419 49.76C83.1619 49.76 82.3952 49.56 81.7419 49.16C81.0885 48.7467 80.5819 48.1733 80.2219 47.44C79.8619 46.7067 79.6819 45.8533 79.6819 44.88C79.6819 43.9067 79.8619 43.06 80.2219 42.34C80.5819 41.6067 81.0885 41.04 81.7419 40.64C82.3952 40.2267 83.1619 40.02 84.0419 40.02C84.7485 40.02 85.3885 40.1733 85.9619 40.48C86.5352 40.7867 86.9552 41.2067 87.2219 41.74V41.32C87.2219 40.9067 87.3285 40.5933 87.5419 40.38C87.7685 40.1667 88.0752 40.06 88.4619 40.06C89.2885 40.06 89.7019 40.48 89.7019 41.32V49.02C89.7019 50.6067 89.2819 51.8 88.4419 52.6C87.6019 53.4 86.3819 53.8 84.7819 53.8ZM84.7219 47.86C85.4952 47.86 86.1085 47.5933 86.5619 47.06C87.0152 46.5267 87.2419 45.8 87.2419 44.88C87.2419 43.96 87.0152 43.24 86.5619 42.72C86.1085 42.1867 85.4952 41.92 84.7219 41.92C83.9485 41.92 83.3352 42.1867 82.8819 42.72C82.4285 43.24 82.2019 43.96 82.2019 44.88C82.2019 45.8 82.4285 46.5267 82.8819 47.06C83.3352 47.5933 83.9485 47.86 84.7219 47.86ZM93.3322 38.22C92.8655 38.22 92.4989 38.1067 92.2322 37.88C91.9789 37.64 91.8522 37.3133 91.8522 36.9C91.8522 36.4733 91.9789 36.1467 92.2322 35.92C92.4989 35.6933 92.8655 35.58 93.3322 35.58C94.3189 35.58 94.8122 36.02 94.8122 36.9C94.8122 37.78 94.3189 38.22 93.3322 38.22ZM93.3322 50.14C92.9322 50.14 92.6255 50.02 92.4122 49.78C92.1989 49.54 92.0922 49.2067 92.0922 48.78V41.44C92.0922 40.5333 92.5055 40.08 93.3322 40.08C94.1722 40.08 94.5922 40.5333 94.5922 41.44V48.78C94.5922 49.2067 94.4855 49.54 94.2722 49.78C94.0589 50.02 93.7455 50.14 93.3322 50.14ZM110.36 53.76C109.533 53.76 109.12 53.34 109.12 52.5V48.52C108.84 49.0267 108.42 49.4333 107.86 49.74C107.3 50.0467 106.673 50.2 105.98 50.2C105.126 50.2 104.373 49.9933 103.72 49.58C103.08 49.1667 102.58 48.58 102.22 47.82C101.86 47.0467 101.68 46.14 101.68 45.1C101.68 44.0467 101.86 43.1467 102.22 42.4C102.58 41.64 103.08 41.0533 103.72 40.64C104.373 40.2267 105.126 40.02 105.98 40.02C106.686 40.02 107.32 40.18 107.88 40.5C108.44 40.8067 108.86 41.22 109.14 41.74V41.32C109.14 40.48 109.553 40.06 110.38 40.06C111.206 40.06 111.62 40.48 111.62 41.32V52.5C111.62 53.34 111.2 53.76 110.36 53.76ZM106.68 48.3C107.426 48.3 108.026 48.0333 108.48 47.5C108.933 46.9533 109.16 46.1533 109.16 45.1C109.16 44.0333 108.933 43.24 108.48 42.72C108.026 42.1867 107.426 41.92 106.68 41.92C105.933 41.92 105.333 42.1867 104.88 42.72C104.426 43.24 104.2 44.0333 104.2 45.1C104.2 46.1533 104.426 46.9533 104.88 47.5C105.333 48.0333 105.933 48.3 106.68 48.3ZM118.472 50.2C117.458 50.2 116.578 49.9933 115.832 49.58C115.085 49.1667 114.505 48.58 114.092 47.82C113.678 47.0467 113.472 46.14 113.472 45.1C113.472 44.06 113.678 43.16 114.092 42.4C114.505 41.64 115.085 41.0533 115.832 40.64C116.578 40.2267 117.458 40.02 118.472 40.02C119.485 40.02 120.365 40.2267 121.112 40.64C121.858 41.0533 122.438 41.64 122.852 42.4C123.265 43.16 123.472 44.06 123.472 45.1C123.472 46.14 123.265 47.0467 122.852 47.82C122.438 48.58 121.858 49.1667 121.112 49.58C120.365 49.9933 119.485 50.2 118.472 50.2ZM118.472 48.3C119.218 48.3 119.818 48.0333 120.272 47.5C120.725 46.9533 120.952 46.1533 120.952 45.1C120.952 44.0333 120.725 43.24 120.272 42.72C119.818 42.1867 119.218 41.92 118.472 41.92C117.725 41.92 117.125 42.1867 116.672 42.72C116.218 43.24 115.992 44.0333 115.992 45.1C115.992 46.1533 116.218 46.9533 116.672 47.5C117.125 48.0333 117.725 48.3 118.472 48.3ZM130.975 50.2C130.255 50.2 129.615 50.0467 129.055 49.74C128.495 49.42 128.075 48.9933 127.795 48.46V48.88C127.795 49.7333 127.388 50.16 126.575 50.16C125.748 50.16 125.335 49.7333 125.335 48.88V37C125.335 36.16 125.748 35.74 126.575 35.74C127.415 35.74 127.835 36.16 127.835 37V41.66C128.128 41.1667 128.548 40.7733 129.095 40.48C129.655 40.1733 130.282 40.02 130.975 40.02C131.842 40.02 132.595 40.2267 133.235 40.64C133.875 41.0533 134.375 41.64 134.735 42.4C135.095 43.1467 135.275 44.0467 135.275 45.1C135.275 46.14 135.095 47.0467 134.735 47.82C134.375 48.58 133.868 49.1667 133.215 49.58C132.575 49.9933 131.828 50.2 130.975 50.2ZM130.275 48.3C131.022 48.3 131.622 48.0333 132.075 47.5C132.528 46.9533 132.755 46.1533 132.755 45.1C132.755 44.0333 132.528 43.24 132.075 42.72C131.622 42.1867 131.022 41.92 130.275 41.92C129.528 41.92 128.928 42.1867 128.475 42.72C128.022 43.24 127.795 44.0333 127.795 45.1C127.795 46.1533 128.022 46.9533 128.475 47.5C128.928 48.0333 129.528 48.3 130.275 48.3ZM138.367 38.22C137.901 38.22 137.534 38.1067 137.267 37.88C137.014 37.64 136.887 37.3133 136.887 36.9C136.887 36.4733 137.014 36.1467 137.267 35.92C137.534 35.6933 137.901 35.58 138.367 35.58C139.354 35.58 139.847 36.02 139.847 36.9C139.847 37.78 139.354 38.22 138.367 38.22ZM138.367 50.14C137.967 50.14 137.661 50.02 137.447 49.78C137.234 49.54 137.127 49.2067 137.127 48.78V41.44C137.127 40.5333 137.541 40.08 138.367 40.08C139.207 40.08 139.627 40.5333 139.627 41.44V48.78C139.627 49.2067 139.521 49.54 139.307 49.78C139.094 50.02 138.781 50.14 138.367 50.14ZM145.365 50.2C143.138 50.2 142.025 48.9533 142.025 46.46V37C142.025 36.16 142.438 35.74 143.265 35.74C144.105 35.74 144.525 36.16 144.525 37V46.34C144.525 47.54 145.025 48.14 146.025 48.14C146.132 48.14 146.232 48.14 146.325 48.14C146.418 48.1267 146.512 48.1133 146.605 48.1C146.792 48.0733 146.918 48.1267 146.985 48.26C147.052 48.38 147.085 48.6333 147.085 49.02C147.085 49.3533 147.018 49.6133 146.885 49.8C146.752 49.9867 146.532 50.1 146.225 50.14C145.945 50.18 145.658 50.2 145.365 50.2ZM149.452 38.22C148.985 38.22 148.618 38.1067 148.352 37.88C148.098 37.64 147.972 37.3133 147.972 36.9C147.972 36.4733 148.098 36.1467 148.352 35.92C148.618 35.6933 148.985 35.58 149.452 35.58C150.438 35.58 150.932 36.02 150.932 36.9C150.932 37.78 150.438 38.22 149.452 38.22ZM149.452 50.14C149.052 50.14 148.745 50.02 148.532 49.78C148.318 49.54 148.212 49.2067 148.212 48.78V41.44C148.212 40.5333 148.625 40.08 149.452 40.08C150.292 40.08 150.712 40.5333 150.712 41.44V48.78C150.712 49.2067 150.605 49.54 150.392 49.78C150.178 50.02 149.865 50.14 149.452 50.14ZM155.589 53.76C155.136 53.76 154.823 53.5933 154.649 53.26C154.476 52.9267 154.483 52.5467 154.669 52.12L155.809 49.6L152.389 41.72C152.203 41.28 152.203 40.8933 152.389 40.56C152.576 40.2267 152.943 40.06 153.489 40.06C153.796 40.06 154.043 40.1333 154.229 40.28C154.416 40.4133 154.583 40.6733 154.729 41.06L157.129 47.06L159.589 41.04C159.736 40.6667 159.909 40.4133 160.109 40.28C160.309 40.1333 160.576 40.06 160.909 40.06C161.336 40.06 161.636 40.2267 161.809 40.56C161.983 40.8933 161.976 41.2733 161.789 41.7L156.929 52.8C156.756 53.1733 156.569 53.4267 156.369 53.56C156.169 53.6933 155.909 53.76 155.589 53.76ZM166.461 50.2C165.755 50.2 165.121 50.0667 164.561 49.8C164.015 49.52 163.581 49.1467 163.261 48.68C162.955 48.2133 162.801 47.6867 162.801 47.1C162.801 46.38 162.988 45.8133 163.361 45.4C163.735 44.9733 164.341 44.6667 165.181 44.48C166.021 44.2933 167.148 44.2 168.561 44.2H169.261V43.78C169.261 43.1133 169.115 42.6333 168.821 42.34C168.528 42.0467 168.035 41.9 167.341 41.9C166.955 41.9 166.535 41.9467 166.081 42.04C165.641 42.1333 165.175 42.2933 164.681 42.52C164.361 42.6667 164.095 42.6867 163.881 42.58C163.668 42.46 163.521 42.28 163.441 42.04C163.375 41.7867 163.388 41.5333 163.481 41.28C163.588 41.0267 163.795 40.84 164.101 40.72C164.715 40.4667 165.301 40.2867 165.861 40.18C166.435 40.0733 166.955 40.02 167.421 40.02C168.848 40.02 169.908 40.3533 170.601 41.02C171.295 41.6733 171.641 42.6933 171.641 44.08V48.88C171.641 49.7333 171.255 50.16 170.481 50.16C169.695 50.16 169.301 49.7333 169.301 48.88V48.44C169.075 48.9867 168.715 49.42 168.221 49.74C167.728 50.0467 167.141 50.2 166.461 50.2ZM166.981 48.48C167.635 48.48 168.175 48.2533 168.601 47.8C169.041 47.3467 169.261 46.7733 169.261 46.08V45.64H168.581C167.328 45.64 166.455 45.74 165.961 45.94C165.481 46.1267 165.241 46.4733 165.241 46.98C165.241 47.42 165.395 47.78 165.701 48.06C166.008 48.34 166.435 48.48 166.981 48.48ZM178.459 50.2C175.872 50.2 174.579 48.92 174.579 46.36V42.1H173.539C172.872 42.1 172.539 41.7867 172.539 41.16C172.539 40.5333 172.872 40.22 173.539 40.22H174.579V38.4C174.579 37.56 174.999 37.14 175.839 37.14C176.666 37.14 177.079 37.56 177.079 38.4V40.22H179.199C179.866 40.22 180.199 40.5333 180.199 41.16C180.199 41.7867 179.866 42.1 179.199 42.1H177.079V46.22C177.079 46.86 177.219 47.34 177.499 47.66C177.779 47.98 178.232 48.14 178.859 48.14C179.086 48.14 179.286 48.12 179.459 48.08C179.632 48.04 179.786 48.0133 179.919 48C180.079 47.9867 180.212 48.04 180.319 48.16C180.426 48.2667 180.479 48.4933 180.479 48.84C180.479 49.1067 180.432 49.3467 180.339 49.56C180.259 49.76 180.106 49.9 179.879 49.98C179.706 50.0333 179.479 50.08 179.199 50.12C178.919 50.1733 178.672 50.2 178.459 50.2ZM185.049 50.2C182.822 50.2 181.709 48.9533 181.709 46.46V37C181.709 36.16 182.122 35.74 182.949 35.74C183.789 35.74 184.209 36.16 184.209 37V46.34C184.209 47.54 184.709 48.14 185.709 48.14C185.815 48.14 185.915 48.14 186.009 48.14C186.102 48.1267 186.195 48.1133 186.289 48.1C186.475 48.0733 186.602 48.1267 186.669 48.26C186.735 48.38 186.769 48.6333 186.769 49.02C186.769 49.3533 186.702 49.6133 186.569 49.8C186.435 49.9867 186.215 50.1 185.909 50.14C185.629 50.18 185.342 50.2 185.049 50.2ZM191.115 50.2C190.409 50.2 189.775 50.0667 189.215 49.8C188.669 49.52 188.235 49.1467 187.915 48.68C187.609 48.2133 187.455 47.6867 187.455 47.1C187.455 46.38 187.642 45.8133 188.015 45.4C188.389 44.9733 188.995 44.6667 189.835 44.48C190.675 44.2933 191.802 44.2 193.215 44.2H193.915V43.78C193.915 43.1133 193.769 42.6333 193.475 42.34C193.182 42.0467 192.689 41.9 191.995 41.9C191.609 41.9 191.189 41.9467 190.735 42.04C190.295 42.1333 189.829 42.2933 189.335 42.52C189.015 42.6667 188.749 42.6867 188.535 42.58C188.322 42.46 188.175 42.28 188.095 42.04C188.029 41.7867 188.042 41.5333 188.135 41.28C188.242 41.0267 188.449 40.84 188.755 40.72C189.369 40.4667 189.955 40.2867 190.515 40.18C191.089 40.0733 191.609 40.02 192.075 40.02C193.502 40.02 194.562 40.3533 195.255 41.02C195.949 41.6733 196.295 42.6933 196.295 44.08V48.88C196.295 49.7333 195.909 50.16 195.135 50.16C194.349 50.16 193.955 49.7333 193.955 48.88V48.44C193.729 48.9867 193.369 49.42 192.875 49.74C192.382 50.0467 191.795 50.2 191.115 50.2ZM191.635 48.48C192.289 48.48 192.829 48.2533 193.255 47.8C193.695 47.3467 193.915 46.7733 193.915 46.08V45.64H193.235C191.982 45.64 191.109 45.74 190.615 45.94C190.135 46.1267 189.895 46.4733 189.895 46.98C189.895 47.42 190.049 47.78 190.355 48.06C190.662 48.34 191.089 48.48 191.635 48.48ZM199.913 50.16C199.059 50.16 198.633 49.7333 198.633 48.88V41.32C198.633 40.48 199.039 40.06 199.853 40.06C200.666 40.06 201.073 40.48 201.073 41.32V41.94C201.553 40.7933 202.579 40.1533 204.153 40.02C204.726 39.9533 205.046 40.28 205.113 41C205.179 41.7067 204.833 42.1 204.073 42.18L203.633 42.22C201.993 42.38 201.173 43.22 201.173 44.74V48.88C201.173 49.7333 200.753 50.16 199.913 50.16Z" fill="#1C1C1C"/>
<rect x="187" y="90" width="35" height="26" rx="6" fill="#EC5147"/>
<path d="M200.07 108.119C201.885 108.119 203.168 107.088 203.176 105.673C203.168 104.574 202.396 103.649 201.42 103.474V103.423C202.268 103.219 202.844 102.422 202.852 101.48C202.844 100.146 201.668 99.1534 200.07 99.1534C198.455 99.1534 197.278 100.146 197.287 101.48C197.278 102.418 197.854 103.219 198.719 103.423V103.474C197.726 103.649 196.955 104.574 196.963 105.673C196.955 107.088 198.237 108.119 200.07 108.119ZM200.07 107.041C198.979 107.041 198.288 106.462 198.297 105.588C198.288 104.68 199.038 104.033 200.07 104.033C201.084 104.033 201.834 104.68 201.842 105.588C201.834 106.462 201.148 107.041 200.07 107.041ZM200.07 102.98C199.188 102.98 198.561 102.422 198.57 101.591C198.561 100.773 199.166 100.232 200.07 100.232C200.956 100.232 201.561 100.773 201.57 101.591C201.561 102.422 200.939 102.98 200.07 102.98ZM205.29 108.081C205.754 108.081 206.142 107.702 206.142 107.229C206.142 106.764 205.754 106.381 205.29 106.381C204.821 106.381 204.438 106.764 204.438 107.229C204.438 107.702 204.821 108.081 205.29 108.081ZM207.903 108H209.279L213.076 100.44V99.2727H207.306V100.402H211.713V100.466L207.903 108Z" fill="white"/>
<path d="M102.573 97.6364C102.573 94.875 100.954 93.1534 98.7207 93.1534C96.4877 93.1534 94.8684 94.875 94.8684 97.6364C94.8684 100.398 96.4877 102.119 98.7207 102.119C100.954 102.119 102.573 100.398 102.573 97.6364ZM101.55 97.6364C101.55 99.9034 100.306 101.131 98.7207 101.131C97.1355 101.131 95.8911 99.9034 95.8911 97.6364C95.8911 95.3693 97.1355 94.142 98.7207 94.142C100.306 94.142 101.55 95.3693 101.55 97.6364ZM106.685 102.136C107.947 102.136 108.373 101.352 108.594 100.994H108.714V102H109.685V93.2727H108.68V96.4943H108.594C108.373 96.1534 107.981 95.3693 106.702 95.3693C105.049 95.3693 103.907 96.6818 103.907 98.7443C103.907 100.824 105.049 102.136 106.685 102.136ZM106.822 101.233C105.56 101.233 104.912 100.125 104.912 98.7273C104.912 97.3466 105.543 96.2727 106.822 96.2727C108.049 96.2727 108.697 97.2614 108.697 98.7273C108.697 100.21 108.032 101.233 106.822 101.233ZM113.593 102.153C114.735 102.153 115.331 101.54 115.536 101.114H115.587V102H116.593V97.6875C116.593 95.608 115.008 95.3693 114.172 95.3693C113.184 95.3693 112.059 95.7102 111.547 96.9034L112.502 97.2443C112.724 96.767 113.248 96.2557 114.206 96.2557C115.131 96.2557 115.587 96.7457 115.587 97.5852V97.6193C115.587 98.1051 115.093 98.0625 113.9 98.2159C112.685 98.3736 111.36 98.642 111.36 100.142C111.36 101.42 112.349 102.153 113.593 102.153ZM113.746 101.25C112.945 101.25 112.366 100.892 112.366 100.193C112.366 99.4261 113.064 99.1875 113.849 99.0852C114.275 99.0341 115.417 98.9148 115.587 98.7102V99.6307C115.587 100.449 114.939 101.25 113.746 101.25ZM118.428 102H119.434V97.9091C119.434 96.9503 120.133 96.2727 120.917 96.2727C121.68 96.2727 122.213 96.7713 122.213 97.517V102H123.235V97.7386C123.235 96.8949 123.764 96.2727 124.684 96.2727C125.4 96.2727 126.014 96.652 126.014 97.6193V102H127.019V97.6193C127.019 96.081 126.193 95.3693 125.025 95.3693C124.088 95.3693 123.401 95.7997 123.065 96.4773H122.997C122.673 95.7784 122.102 95.3693 121.241 95.3693C120.389 95.3693 119.758 95.7784 119.485 96.4773H119.4V95.4545H118.428V102ZM129.864 93.2727H128.858V102H129.864V93.2727ZM133.632 102.153C134.774 102.153 135.371 101.54 135.575 101.114H135.626V102H136.632V97.6875C136.632 95.608 135.047 95.3693 134.211 95.3693C133.223 95.3693 132.098 95.7102 131.586 96.9034L132.541 97.2443C132.763 96.767 133.287 96.2557 134.246 96.2557C135.17 96.2557 135.626 96.7457 135.626 97.5852V97.6193C135.626 98.1051 135.132 98.0625 133.939 98.2159C132.724 98.3736 131.399 98.642 131.399 100.142C131.399 101.42 132.388 102.153 133.632 102.153ZM133.785 101.25C132.984 101.25 132.405 100.892 132.405 100.193C132.405 99.4261 133.104 99.1875 133.888 99.0852C134.314 99.0341 135.456 98.9148 135.626 98.7102V99.6307C135.626 100.449 134.979 101.25 133.785 101.25ZM138.467 102H139.473V97.858C139.473 96.9716 140.172 96.3239 141.127 96.3239C141.395 96.3239 141.672 96.375 141.74 96.392V95.3693C141.625 95.3608 141.361 95.3523 141.212 95.3523C140.428 95.3523 139.746 95.7955 139.507 96.4432H139.439V95.4545H138.467V102ZM146.444 102H147.415V100.994H147.535C147.756 101.352 148.182 102.136 149.444 102.136C151.08 102.136 152.222 100.824 152.222 98.7443C152.222 96.6818 151.08 95.3693 149.427 95.3693C148.148 95.3693 147.756 96.1534 147.535 96.4943H147.449V93.2727H146.444V102ZM147.432 98.7273C147.432 97.2614 148.08 96.2727 149.307 96.2727C150.586 96.2727 151.216 97.3466 151.216 98.7273C151.216 100.125 150.569 101.233 149.307 101.233C148.097 101.233 147.432 100.21 147.432 98.7273ZM153.76 102H154.766V95.4545H153.76V102ZM154.272 94.3636C154.664 94.3636 154.988 94.0568 154.988 93.6818C154.988 93.3068 154.664 93 154.272 93C153.88 93 153.556 93.3068 153.556 93.6818C153.556 94.0568 153.88 94.3636 154.272 94.3636ZM157.614 93.2727H156.608V102H157.614V93.2727ZM161.382 102.153C162.524 102.153 163.121 101.54 163.325 101.114H163.376V102H164.382V97.6875C164.382 95.608 162.797 95.3693 161.961 95.3693C160.973 95.3693 159.848 95.7102 159.336 96.9034L160.291 97.2443C160.513 96.767 161.037 96.2557 161.996 96.2557C162.92 96.2557 163.376 96.7457 163.376 97.5852V97.6193C163.376 98.1051 162.882 98.0625 161.689 98.2159C160.474 98.3736 159.149 98.642 159.149 100.142C159.149 101.42 160.138 102.153 161.382 102.153ZM161.535 101.25C160.734 101.25 160.155 100.892 160.155 100.193C160.155 99.4261 160.854 99.1875 161.638 99.0852C162.064 99.0341 163.206 98.9148 163.376 98.7102V99.6307C163.376 100.449 162.729 101.25 161.535 101.25ZM167.223 98.0625C167.223 96.9205 167.931 96.2727 168.894 96.2727C169.827 96.2727 170.394 96.8821 170.394 97.9091V102H171.399V97.8409C171.399 96.1705 170.509 95.3693 169.183 95.3693C168.195 95.3693 167.581 95.8125 167.274 96.4773H167.189V95.4545H166.217V102H167.223V98.0625ZM126.995 117H128.001V112.909C128.001 111.95 128.699 111.273 129.483 111.273C130.246 111.273 130.779 111.771 130.779 112.517V117H131.802V112.739C131.802 111.895 132.33 111.273 133.251 111.273C133.966 111.273 134.58 111.652 134.58 112.619V117H135.586V112.619C135.586 111.081 134.759 110.369 133.591 110.369C132.654 110.369 131.968 110.8 131.631 111.477H131.563C131.239 110.778 130.668 110.369 129.807 110.369C128.955 110.369 128.324 110.778 128.052 111.477H127.966V110.455H126.995V117ZM141.55 114.324C141.55 115.551 140.612 116.114 139.862 116.114C139.027 116.114 138.43 115.5 138.43 114.545V110.455H137.425V114.614C137.425 116.284 138.311 117.085 139.538 117.085C140.527 117.085 141.175 116.557 141.481 115.892H141.55V117H142.555V110.455H141.55V114.324ZM145.403 108.273H144.397V117H145.403V108.273ZM149.904 117.136C151.677 117.136 152.87 115.79 152.87 113.761C152.87 111.716 151.677 110.369 149.904 110.369C148.131 110.369 146.938 111.716 146.938 113.761C146.938 115.79 148.131 117.136 149.904 117.136ZM149.904 116.233C148.557 116.233 147.944 115.074 147.944 113.761C147.944 112.449 148.557 111.273 149.904 111.273C151.251 111.273 151.864 112.449 151.864 113.761C151.864 115.074 151.251 116.233 149.904 116.233ZM159.877 119.455V110.455H158.905V111.494H158.786C158.564 111.153 158.172 110.369 156.894 110.369C155.24 110.369 154.098 111.682 154.098 113.744C154.098 115.824 155.24 117.136 156.877 117.136C158.138 117.136 158.564 116.352 158.786 115.994H158.871V119.455H159.877ZM158.888 113.727C158.888 115.21 158.223 116.233 157.013 116.233C155.752 116.233 155.104 115.125 155.104 113.727C155.104 112.347 155.735 111.273 157.013 111.273C158.24 111.273 158.888 112.261 158.888 113.727ZM164.377 117.136C166.149 117.136 167.342 115.79 167.342 113.761C167.342 111.716 166.149 110.369 164.377 110.369C162.604 110.369 161.411 111.716 161.411 113.761C161.411 115.79 162.604 117.136 164.377 117.136ZM164.377 116.233C163.03 116.233 162.416 115.074 162.416 113.761C162.416 112.449 163.03 111.273 164.377 111.273C165.723 111.273 166.337 112.449 166.337 113.761C166.337 115.074 165.723 116.233 164.377 116.233ZM171.724 110.455H170.327V108.886H169.321V110.455H168.332V111.307H169.321V115.398C169.321 116.54 170.241 117.085 171.094 117.085C171.469 117.085 171.707 117.017 171.844 116.966L171.639 116.062C171.554 116.08 171.417 116.114 171.196 116.114C170.753 116.114 170.327 115.977 170.327 115.125V111.307H171.724V110.455Z" fill="#1C1C1C"/>
<path d="M91.8128 263.273V269.511C91.8128 270.598 91.2929 271.182 90.381 271.182C89.55 271.182 88.9492 270.696 88.9492 269.955H87.9094C87.9094 271.297 88.9492 272.119 90.381 272.119C91.898 272.119 92.8696 271.186 92.8696 269.511V263.273H91.8128ZM94.8512 272H95.8568V265.455H94.8512V272ZM95.3625 264.364C95.7546 264.364 96.0784 264.057 96.0784 263.682C96.0784 263.307 95.7546 263 95.3625 263C94.9705 263 94.6466 263.307 94.6466 263.682C94.6466 264.057 94.9705 264.364 95.3625 264.364ZM102.335 266.92C102.02 265.991 101.312 265.369 100.017 265.369C98.6363 265.369 97.6136 266.153 97.6136 267.261C97.6136 268.165 98.1505 268.77 99.3522 269.051L100.443 269.307C101.104 269.46 101.415 269.776 101.415 270.227C101.415 270.79 100.818 271.25 99.8806 271.25C99.0582 271.25 98.5426 270.896 98.3636 270.193L97.409 270.432C97.6434 271.544 98.5596 272.136 99.8977 272.136C101.419 272.136 102.455 271.305 102.455 270.176C102.455 269.264 101.883 268.689 100.716 268.403L99.7443 268.165C98.9687 267.973 98.6193 267.713 98.6193 267.21C98.6193 266.648 99.2159 266.239 100.017 266.239C100.895 266.239 101.257 266.724 101.432 267.176L102.335 266.92ZM103.968 272H104.974V267.909C104.974 266.95 105.673 266.273 106.457 266.273C107.22 266.273 107.752 266.771 107.752 267.517V272H108.775V267.739C108.775 266.895 109.304 266.273 110.224 266.273C110.94 266.273 111.554 266.652 111.554 267.619V272H112.559V267.619C112.559 266.081 111.733 265.369 110.565 265.369C109.627 265.369 108.941 265.8 108.605 266.477H108.537C108.213 265.778 107.642 265.369 106.781 265.369C105.929 265.369 105.298 265.778 105.025 266.477H104.94V265.455H103.968V272ZM117.057 272.136C118.83 272.136 120.023 270.79 120.023 268.761C120.023 266.716 118.83 265.369 117.057 265.369C115.284 265.369 114.091 266.716 114.091 268.761C114.091 270.79 115.284 272.136 117.057 272.136ZM117.057 271.233C115.711 271.233 115.097 270.074 115.097 268.761C115.097 267.449 115.711 266.273 117.057 266.273C118.404 266.273 119.017 267.449 119.017 268.761C119.017 270.074 118.404 271.233 117.057 271.233ZM122.564 268.062C122.564 266.92 123.271 266.273 124.234 266.273C125.168 266.273 125.734 266.882 125.734 267.909V272H126.74V267.841C126.74 266.17 125.849 265.369 124.524 265.369C123.535 265.369 122.922 265.812 122.615 266.477H122.53V265.455H121.558V272H122.564V268.062ZM128.578 272H129.583V265.455H128.578V272ZM129.089 264.364C129.481 264.364 129.805 264.057 129.805 263.682C129.805 263.307 129.481 263 129.089 263C128.697 263 128.373 263.307 128.373 263.682C128.373 264.057 128.697 264.364 129.089 264.364ZM132.073 274.455C132.981 274.455 133.62 273.973 133.999 272.955L136.786 265.472L135.687 265.455L133.88 270.67H133.812L132.005 265.455H130.914L133.334 272.034L133.147 272.545C132.78 273.543 132.329 273.636 131.596 273.449L131.34 274.335C131.442 274.386 131.732 274.455 132.073 274.455ZM105.022 289.455V280.455H104.05V281.494H103.931C103.709 281.153 103.317 280.369 102.039 280.369C100.386 280.369 99.2436 281.682 99.2436 283.744C99.2436 285.824 100.386 287.136 102.022 287.136C103.283 287.136 103.709 286.352 103.931 285.994H104.016V289.455H105.022ZM104.033 283.727C104.033 285.21 103.369 286.233 102.158 286.233C100.897 286.233 100.249 285.125 100.249 283.727C100.249 282.347 100.88 281.273 102.158 281.273C103.386 281.273 104.033 282.261 104.033 283.727ZM110.988 284.324C110.988 285.551 110.05 286.114 109.3 286.114C108.465 286.114 107.869 285.5 107.869 284.545V280.455H106.863V284.614C106.863 286.284 107.749 287.085 108.977 287.085C109.965 287.085 110.613 286.557 110.92 285.892H110.988V287H111.994V280.455H110.988V284.324ZM119.188 280.455H118.097L116.29 285.67H116.222L114.415 280.455H113.324L115.745 287H116.767L119.188 280.455ZM125.868 280.455H124.777L122.97 285.67H122.902L121.095 280.455H120.004L122.424 287H123.447L125.868 280.455ZM128.922 287.153C130.064 287.153 130.66 286.54 130.865 286.114H130.916V287H131.922V282.688C131.922 280.608 130.337 280.369 129.501 280.369C128.513 280.369 127.388 280.71 126.876 281.903L127.831 282.244C128.053 281.767 128.577 281.256 129.535 281.256C130.46 281.256 130.916 281.746 130.916 282.585V282.619C130.916 283.105 130.422 283.062 129.229 283.216C128.014 283.374 126.689 283.642 126.689 285.142C126.689 286.42 127.678 287.153 128.922 287.153ZM129.075 286.25C128.274 286.25 127.695 285.892 127.695 285.193C127.695 284.426 128.393 284.188 129.178 284.085C129.604 284.034 130.746 283.915 130.916 283.71V284.631C130.916 285.449 130.268 286.25 129.075 286.25ZM136.604 280.455H135.206V278.886H134.201V280.455H133.212V281.307H134.201V285.398C134.201 286.54 135.121 287.085 135.973 287.085C136.348 287.085 136.587 287.017 136.723 286.966L136.519 286.062C136.434 286.08 136.297 286.114 136.076 286.114C135.632 286.114 135.206 285.977 135.206 285.125V281.307H136.604V280.455Z" fill="#1C1C1C"/>
<path d="M392.576 102H393.633V98.0966H397.417V97.1591H393.633V94.2102H397.809V93.2727H392.576V102ZM399.483 102H400.489V95.4545H399.483V102ZM399.994 94.3636C400.386 94.3636 400.71 94.0568 400.71 93.6818C400.71 93.3068 400.386 93 399.994 93C399.602 93 399.278 93.3068 399.278 93.6818C399.278 94.0568 399.602 94.3636 399.994 94.3636ZM402.331 102H403.336V99.5497L404.039 98.8977L406.49 102H407.768L404.798 98.25L407.564 95.4545H406.319L403.456 98.3693H403.336V93.2727H402.331V102ZM408.858 102H409.864V97.858C409.864 96.9716 410.562 96.3239 411.517 96.3239C411.786 96.3239 412.062 96.375 412.131 96.392V95.3693C412.016 95.3608 411.751 95.3523 411.602 95.3523C410.818 95.3523 410.136 95.7955 409.898 96.4432H409.83V95.4545H408.858V102ZM414.328 93.2727H413.323V102H414.328V93.2727ZM418.097 102.153C419.239 102.153 419.835 101.54 420.04 101.114H420.091V102H421.097V97.6875C421.097 95.608 419.511 95.3693 418.676 95.3693C417.688 95.3693 416.562 95.7102 416.051 96.9034L417.006 97.2443C417.227 96.767 417.751 96.2557 418.71 96.2557C419.635 96.2557 420.091 96.7457 420.091 97.5852V97.6193C420.091 98.1051 419.597 98.0625 418.403 98.2159C417.189 98.3736 415.864 98.642 415.864 100.142C415.864 101.42 416.852 102.153 418.097 102.153ZM418.25 101.25C417.449 101.25 416.869 100.892 416.869 100.193C416.869 99.4261 417.568 99.1875 418.352 99.0852C418.778 99.0341 419.92 98.9148 420.091 98.7102V99.6307C420.091 100.449 419.443 101.25 418.25 101.25ZM427.569 96.9205C427.253 95.9915 426.546 95.3693 425.25 95.3693C423.87 95.3693 422.847 96.1534 422.847 97.2614C422.847 98.1648 423.384 98.7699 424.586 99.0511L425.676 99.3068C426.337 99.4602 426.648 99.7756 426.648 100.227C426.648 100.79 426.051 101.25 425.114 101.25C424.292 101.25 423.776 100.896 423.597 100.193L422.642 100.432C422.877 101.544 423.793 102.136 425.131 102.136C426.652 102.136 427.688 101.305 427.688 100.176C427.688 99.2642 427.117 98.6889 425.949 98.4034L424.978 98.1648C424.202 97.973 423.853 97.7131 423.853 97.2102C423.853 96.6477 424.449 96.2386 425.25 96.2386C426.128 96.2386 426.49 96.7244 426.665 97.1761L427.569 96.9205ZM430.207 98.0625C430.207 96.9205 430.936 96.2727 431.929 96.2727C432.875 96.2727 433.446 96.8693 433.446 97.9091V102H434.452V97.8409C434.452 96.1577 433.557 95.3693 432.219 95.3693C431.188 95.3693 430.599 95.7997 430.293 96.4773H430.207V93.2727H429.202V102H430.207V98.0625ZM437.792 100.807H436.701L436.65 101.284C436.526 102.439 436.283 103.589 436.172 104.131H436.939C437.144 103.551 437.578 102.239 437.723 101.267L437.792 100.807ZM445.876 95.4545H444.479V93.8864H443.473V95.4545H442.484V96.3068H443.473V100.398C443.473 101.54 444.393 102.085 445.246 102.085C445.621 102.085 445.859 102.017 445.996 101.966L445.791 101.062C445.706 101.08 445.57 101.114 445.348 101.114C444.905 101.114 444.479 100.977 444.479 100.125V96.3068H445.876V95.4545ZM449.315 102.153C450.457 102.153 451.054 101.54 451.259 101.114H451.31V102H452.315V97.6875C452.315 95.608 450.73 95.3693 449.895 95.3693C448.906 95.3693 447.781 95.7102 447.27 96.9034L448.224 97.2443C448.446 96.767 448.97 96.2557 449.929 96.2557C450.854 96.2557 451.31 96.7457 451.31 97.5852V97.6193C451.31 98.1051 450.815 98.0625 449.622 98.2159C448.408 98.3736 447.082 98.642 447.082 100.142C447.082 101.42 448.071 102.153 449.315 102.153ZM449.469 101.25C448.668 101.25 448.088 100.892 448.088 100.193C448.088 99.4261 448.787 99.1875 449.571 99.0852C449.997 99.0341 451.139 98.9148 451.31 98.7102V99.6307C451.31 100.449 450.662 101.25 449.469 101.25ZM455.157 98.0625C455.157 96.9205 455.885 96.2727 456.878 96.2727C457.824 96.2727 458.395 96.8693 458.395 97.9091V102H459.401V97.8409C459.401 96.1577 458.506 95.3693 457.168 95.3693C456.137 95.3693 455.549 95.7997 455.242 96.4773H455.157V93.2727H454.151V102H455.157V98.0625ZM462.246 93.2727H461.241V102H462.246V93.2727ZM464.088 102H465.094V95.4545H464.088V102ZM464.6 94.3636C464.992 94.3636 465.316 94.0568 465.316 93.6818C465.316 93.3068 464.992 93 464.6 93C464.208 93 463.884 93.3068 463.884 93.6818C463.884 94.0568 464.208 94.3636 464.6 94.3636ZM467.942 93.2727H466.936V102H467.942V93.2727ZM478.511 95.4545H477.42L475.613 100.67H475.545L473.738 95.4545H472.647L475.068 102H476.091L478.511 95.4545ZM481.565 102.153C482.707 102.153 483.304 101.54 483.509 101.114H483.56V102H484.565V97.6875C484.565 95.608 482.98 95.3693 482.145 95.3693C481.156 95.3693 480.031 95.7102 479.52 96.9034L480.474 97.2443C480.696 96.767 481.22 96.2557 482.179 96.2557C483.104 96.2557 483.56 96.7457 483.56 97.5852V97.6193C483.56 98.1051 483.065 98.0625 481.872 98.2159C480.658 98.3736 479.332 98.642 479.332 100.142C479.332 101.42 480.321 102.153 481.565 102.153ZM481.719 101.25C480.918 101.25 480.338 100.892 480.338 100.193C480.338 99.4261 481.037 99.1875 481.821 99.0852C482.247 99.0341 483.389 98.9148 483.56 98.7102V99.6307C483.56 100.449 482.912 101.25 481.719 101.25ZM394.366 117.153C395.508 117.153 396.105 116.54 396.309 116.114H396.36V117H397.366V112.688C397.366 110.608 395.781 110.369 394.946 110.369C393.957 110.369 392.832 110.71 392.321 111.903L393.275 112.244C393.497 111.767 394.021 111.256 394.98 111.256C395.904 111.256 396.36 111.746 396.36 112.585V112.619C396.36 113.105 395.866 113.062 394.673 113.216C393.458 113.374 392.133 113.642 392.133 115.142C392.133 116.42 393.122 117.153 394.366 117.153ZM394.52 116.25C393.718 116.25 393.139 115.892 393.139 115.193C393.139 114.426 393.838 114.188 394.622 114.085C395.048 114.034 396.19 113.915 396.36 113.71V114.631C396.36 115.449 395.713 116.25 394.52 116.25ZM400.207 113.062C400.207 111.92 400.915 111.273 401.878 111.273C402.811 111.273 403.378 111.882 403.378 112.909V117H404.384V112.841C404.384 111.17 403.493 110.369 402.168 110.369C401.179 110.369 400.565 110.812 400.259 111.477H400.173V110.455H399.202V117H400.207V113.062ZM408.147 117.153C409.289 117.153 409.886 116.54 410.091 116.114H410.142V117H411.147V112.688C411.147 110.608 409.562 110.369 408.727 110.369C407.738 110.369 406.613 110.71 406.102 111.903L407.056 112.244C407.278 111.767 407.802 111.256 408.761 111.256C409.686 111.256 410.142 111.746 410.142 112.585V112.619C410.142 113.105 409.647 113.062 408.454 113.216C407.24 113.374 405.914 113.642 405.914 115.142C405.914 116.42 406.903 117.153 408.147 117.153ZM408.301 116.25C407.5 116.25 406.92 115.892 406.92 115.193C406.92 114.426 407.619 114.188 408.403 114.085C408.829 114.034 409.971 113.915 410.142 113.71V114.631C410.142 115.449 409.494 116.25 408.301 116.25ZM413.989 108.273H412.983V117H413.989V108.273ZM415.831 117H416.836V110.455H415.831V117ZM416.342 109.364C416.734 109.364 417.058 109.057 417.058 108.682C417.058 108.307 416.734 108 416.342 108C415.95 108 415.626 108.307 415.626 108.682C415.626 109.057 415.95 109.364 416.342 109.364ZM418.491 117H423.621V116.062H419.888V115.994L423.502 111.256V110.455H418.61V111.392H422.207V111.46L418.491 116.233V117Z" fill="#1C1C1C"/>
<path d="M429.114 265.273H428.057V274H429.114V265.273ZM431.096 267.455V274.477C431.096 275.142 430.824 275.517 430.21 275.517H430.022V276.455H430.227C431.488 276.455 432.102 275.688 432.102 274.477V267.455H431.096ZM431.591 266.364C431.983 266.364 432.306 266.057 432.306 265.682C432.306 265.307 431.983 265 431.591 265C431.199 265 430.875 265.307 430.875 265.682C430.875 266.057 431.199 266.364 431.591 266.364ZM436.603 274.136C438.376 274.136 439.569 272.79 439.569 270.761C439.569 268.716 438.376 267.369 436.603 267.369C434.83 267.369 433.637 268.716 433.637 270.761C433.637 272.79 434.83 274.136 436.603 274.136ZM436.603 273.233C435.256 273.233 434.643 272.074 434.643 270.761C434.643 269.449 435.256 268.273 436.603 268.273C437.95 268.273 438.563 269.449 438.563 270.761C438.563 272.074 437.95 273.233 436.603 273.233ZM443.576 274.136C444.837 274.136 445.263 273.352 445.485 272.994H445.604V274H446.576V265.273H445.57V268.494H445.485C445.263 268.153 444.871 267.369 443.593 267.369C441.939 267.369 440.797 268.682 440.797 270.744C440.797 272.824 441.939 274.136 443.576 274.136ZM443.712 273.233C442.451 273.233 441.803 272.125 441.803 270.727C441.803 269.347 442.434 268.273 443.712 268.273C444.939 268.273 445.587 269.261 445.587 270.727C445.587 272.21 444.922 273.233 443.712 273.233ZM448.557 274H449.563V271.55L450.266 270.898L452.716 274H453.995L451.025 270.25L453.79 267.455H452.546L449.682 270.369H449.563V265.273H448.557V274ZM457.474 274.136C459.247 274.136 460.44 272.79 460.44 270.761C460.44 268.716 459.247 267.369 457.474 267.369C455.701 267.369 454.508 268.716 454.508 270.761C454.508 272.79 455.701 274.136 457.474 274.136ZM457.474 273.233C456.127 273.233 455.514 272.074 455.514 270.761C455.514 269.449 456.127 268.273 457.474 268.273C458.821 268.273 459.434 269.449 459.434 270.761C459.434 272.074 458.821 273.233 457.474 273.233ZM461.975 274H462.981V269.858C462.981 268.972 463.68 268.324 464.634 268.324C464.903 268.324 465.18 268.375 465.248 268.392V267.369C465.133 267.361 464.869 267.352 464.719 267.352C463.935 267.352 463.254 267.795 463.015 268.443H462.947V267.455H461.975V274ZM467.446 265.273H466.44V274H467.446V265.273ZM469.288 274H470.293V267.455H469.288V274ZM469.799 266.364C470.191 266.364 470.515 266.057 470.515 265.682C470.515 265.307 470.191 265 469.799 265C469.407 265 469.083 265.307 469.083 265.682C469.083 266.057 469.407 266.364 469.799 266.364ZM472.135 274H473.141V271.55L473.844 270.898L476.294 274H477.573L474.603 270.25L477.368 267.455H476.124L473.26 270.369H473.141V265.273H472.135V274ZM487.39 267.455H486.299L484.492 272.67H484.424L482.617 267.455H481.526L483.947 274H484.969L487.39 267.455ZM490.444 274.153C491.586 274.153 492.183 273.54 492.387 273.114H492.439V274H493.444V269.688C493.444 267.608 491.859 267.369 491.024 267.369C490.035 267.369 488.91 267.71 488.399 268.903L489.353 269.244C489.575 268.767 490.099 268.256 491.058 268.256C491.983 268.256 492.439 268.746 492.439 269.585V269.619C492.439 270.105 491.944 270.062 490.751 270.216C489.537 270.374 488.211 270.642 488.211 272.142C488.211 273.42 489.2 274.153 490.444 274.153ZM490.598 273.25C489.797 273.25 489.217 272.892 489.217 272.193C489.217 271.426 489.916 271.188 490.7 271.085C491.126 271.034 492.268 270.915 492.439 270.71V271.631C492.439 272.449 491.791 273.25 490.598 273.25ZM498.655 274H499.661V267.455H498.655V274ZM499.166 266.364C499.558 266.364 499.882 266.057 499.882 265.682C499.882 265.307 499.558 265 499.166 265C498.774 265 498.45 265.307 498.45 265.682C498.45 266.057 498.774 266.364 499.166 266.364ZM501.502 267.455V274.477C501.502 275.142 501.23 275.517 500.616 275.517H500.429V276.455H500.633C501.895 276.455 502.508 275.688 502.508 274.477V267.455H501.502ZM501.997 266.364C502.389 266.364 502.713 266.057 502.713 265.682C502.713 265.307 502.389 265 501.997 265C501.605 265 501.281 265.307 501.281 265.682C501.281 266.057 501.605 266.364 501.997 266.364ZM507.009 274.136C508.782 274.136 509.975 272.79 509.975 270.761C509.975 268.716 508.782 267.369 507.009 267.369C505.237 267.369 504.043 268.716 504.043 270.761C504.043 272.79 505.237 274.136 507.009 274.136ZM507.009 273.233C505.663 273.233 505.049 272.074 505.049 270.761C505.049 269.449 505.663 268.273 507.009 268.273C508.356 268.273 508.969 269.449 508.969 270.761C508.969 272.074 508.356 273.233 507.009 273.233ZM513.982 274.136C515.243 274.136 515.669 273.352 515.891 272.994H516.01V274H516.982V265.273H515.976V268.494H515.891C515.669 268.153 515.277 267.369 513.999 267.369C512.346 267.369 511.203 268.682 511.203 270.744C511.203 272.824 512.346 274.136 513.982 274.136ZM514.118 273.233C512.857 273.233 512.209 272.125 512.209 270.727C512.209 269.347 512.84 268.273 514.118 268.273C515.346 268.273 515.993 269.261 515.993 270.727C515.993 272.21 515.328 273.233 514.118 273.233ZM518.963 274H519.969V267.455H518.963V274ZM519.475 266.364C519.867 266.364 520.191 266.057 520.191 265.682C520.191 265.307 519.867 265 519.475 265C519.083 265 518.759 265.307 518.759 265.682C518.759 266.057 519.083 266.364 519.475 266.364ZM522.459 276.455C523.366 276.455 524.006 275.973 524.385 274.955L527.172 267.472L526.072 267.455L524.266 272.67H524.197L522.391 267.455H521.3L523.72 274.034L523.533 274.545C523.166 275.543 522.714 275.636 521.982 275.449L521.726 276.335C521.828 276.386 522.118 276.455 522.459 276.455ZM430.835 282.455H429.369V281.79C429.369 281.142 429.642 280.801 430.307 280.801C430.597 280.801 430.767 280.869 430.869 280.903L431.159 280.034C431.006 279.966 430.699 279.864 430.205 279.864C429.267 279.864 428.364 280.426 428.364 281.551V282.455H427.307V283.307H428.364V289H429.369V283.307H430.835V282.455ZM432.245 289H433.25V282.455H432.245V289ZM432.756 281.364C433.148 281.364 433.472 281.057 433.472 280.682C433.472 280.307 433.148 280 432.756 280C432.364 280 432.04 280.307 432.04 280.682C432.04 281.057 432.364 281.364 432.756 281.364ZM435.092 289H436.098V286.55L436.801 285.898L439.251 289H440.53L437.56 285.25L440.325 282.455H439.081L436.217 285.369H436.098V280.273H435.092V289ZM441.62 289H442.625V284.858C442.625 283.972 443.324 283.324 444.279 283.324C444.547 283.324 444.824 283.375 444.892 283.392V282.369C444.777 282.361 444.513 282.352 444.364 282.352C443.58 282.352 442.898 282.795 442.659 283.443H442.591V282.455H441.62V289ZM447.09 280.273H446.085V289H447.09V280.273ZM450.858 289.153C452 289.153 452.597 288.54 452.801 288.114H452.853V289H453.858V284.688C453.858 282.608 452.273 282.369 451.438 282.369C450.449 282.369 449.324 282.71 448.813 283.903L449.767 284.244C449.989 283.767 450.513 283.256 451.472 283.256C452.397 283.256 452.853 283.746 452.853 284.585V284.619C452.853 285.105 452.358 285.062 451.165 285.216C449.951 285.374 448.625 285.642 448.625 287.142C448.625 288.42 449.614 289.153 450.858 289.153ZM451.012 288.25C450.211 288.25 449.631 287.892 449.631 287.193C449.631 286.426 450.33 286.188 451.114 286.085C451.54 286.034 452.682 285.915 452.853 285.71V286.631C452.853 287.449 452.205 288.25 451.012 288.25ZM460.33 283.92C460.015 282.991 459.308 282.369 458.012 282.369C456.631 282.369 455.609 283.153 455.609 284.261C455.609 285.165 456.146 285.77 457.347 286.051L458.438 286.307C459.099 286.46 459.41 286.776 459.41 287.227C459.41 287.79 458.813 288.25 457.876 288.25C457.053 288.25 456.538 287.896 456.359 287.193L455.404 287.432C455.638 288.544 456.555 289.136 457.893 289.136C459.414 289.136 460.45 288.305 460.45 287.176C460.45 286.264 459.879 285.689 458.711 285.403L457.739 285.165C456.964 284.973 456.614 284.713 456.614 284.21C456.614 283.648 457.211 283.239 458.012 283.239C458.89 283.239 459.252 283.724 459.427 284.176L460.33 283.92ZM462.969 285.062C462.969 283.92 463.698 283.273 464.691 283.273C465.637 283.273 466.208 283.869 466.208 284.909V289H467.213V284.841C467.213 283.158 466.319 282.369 464.98 282.369C463.949 282.369 463.361 282.8 463.054 283.477H462.969V280.273H461.963V289H462.969V285.062Z" fill="#1C1C1C"/>
<path d="M344.134 404.515V413.242H345.123V406.612H345.208L347.935 413.242H348.89L351.617 406.612H351.702V413.242H352.691V404.515H351.429L348.464 411.76H348.361L345.395 404.515H344.134ZM358.798 410.566C358.798 411.794 357.861 412.356 357.111 412.356C356.276 412.356 355.679 411.742 355.679 410.788V406.697H354.673V410.856C354.673 412.527 355.56 413.328 356.787 413.328C357.776 413.328 358.423 412.799 358.73 412.135H358.798V413.242H359.804V406.697H358.798V410.566ZM363.572 413.396C364.714 413.396 365.311 412.782 365.515 412.356H365.566V413.242H366.572V408.93C366.572 406.85 364.987 406.612 364.152 406.612C363.163 406.612 362.038 406.953 361.527 408.146L362.481 408.487C362.703 408.01 363.227 407.498 364.186 407.498C365.111 407.498 365.566 407.988 365.566 408.828V408.862C365.566 409.348 365.072 409.305 363.879 409.458C362.665 409.616 361.339 409.885 361.339 411.385C361.339 412.663 362.328 413.396 363.572 413.396ZM363.726 412.492C362.924 412.492 362.345 412.135 362.345 411.436C362.345 410.669 363.044 410.43 363.828 410.328C364.254 410.277 365.396 410.157 365.566 409.953V410.873C365.566 411.691 364.919 412.492 363.726 412.492ZM368.408 413.242H369.413V409.152C369.413 408.193 370.112 407.515 370.896 407.515C371.659 407.515 372.192 408.014 372.192 408.76V413.242H373.215V408.981C373.215 408.137 373.743 407.515 374.663 407.515C375.379 407.515 375.993 407.894 375.993 408.862V413.242H376.999V408.862C376.999 407.323 376.172 406.612 375.004 406.612C374.067 406.612 373.381 407.042 373.044 407.72H372.976C372.652 407.021 372.081 406.612 371.22 406.612C370.368 406.612 369.737 407.021 369.465 407.72H369.379V406.697H368.408V413.242ZM378.837 413.242H379.843V409.152C379.843 408.193 380.542 407.515 381.326 407.515C382.089 407.515 382.622 408.014 382.622 408.76V413.242H383.644V408.981C383.644 408.137 384.173 407.515 385.093 407.515C385.809 407.515 386.423 407.894 386.423 408.862V413.242H387.428V408.862C387.428 407.323 386.602 406.612 385.434 406.612C384.497 406.612 383.81 407.042 383.474 407.72H383.406C383.082 407.021 382.511 406.612 381.65 406.612C380.798 406.612 380.167 407.021 379.894 407.72H379.809V406.697H378.837V413.242ZM391.926 413.379C393.699 413.379 394.892 412.032 394.892 410.004C394.892 407.958 393.699 406.612 391.926 406.612C390.153 406.612 388.96 407.958 388.96 410.004C388.96 412.032 390.153 413.379 391.926 413.379ZM391.926 412.475C390.58 412.475 389.966 411.316 389.966 410.004C389.966 408.691 390.58 407.515 391.926 407.515C393.273 407.515 393.886 408.691 393.886 410.004C393.886 411.316 393.273 412.475 391.926 412.475ZM399.069 415.833C400.638 415.833 401.899 415.117 401.899 413.43V406.697H400.927V407.737H400.825C400.603 407.396 400.194 406.612 398.916 406.612C397.263 406.612 396.12 407.924 396.12 409.936C396.12 411.981 397.314 413.14 398.899 413.14C400.177 413.14 400.586 412.39 400.808 412.032H400.893V413.362C400.893 414.453 400.126 414.947 399.069 414.947C397.88 414.947 397.463 414.321 397.194 413.958L396.393 414.521C396.802 415.207 397.608 415.833 399.069 415.833ZM399.035 412.237C397.774 412.237 397.126 411.282 397.126 409.919C397.126 408.589 397.757 407.515 399.035 407.515C400.263 407.515 400.91 408.504 400.91 409.919C400.91 411.367 400.245 412.237 399.035 412.237ZM405.666 413.396C406.808 413.396 407.405 412.782 407.609 412.356H407.66V413.242H408.666V408.93C408.666 406.85 407.081 406.612 406.245 406.612C405.257 406.612 404.132 406.953 403.62 408.146L404.575 408.487C404.797 408.01 405.321 407.498 406.28 407.498C407.204 407.498 407.66 407.988 407.66 408.828V408.862C407.66 409.348 407.166 409.305 405.973 409.458C404.758 409.616 403.433 409.885 403.433 411.385C403.433 412.663 404.422 413.396 405.666 413.396ZM405.819 412.492C405.018 412.492 404.439 412.135 404.439 411.436C404.439 410.669 405.138 410.43 405.922 410.328C406.348 410.277 407.49 410.157 407.66 409.953V410.873C407.66 411.691 407.013 412.492 405.819 412.492ZM414.524 415.697C415.432 415.697 416.071 415.215 416.45 414.197L419.237 406.714L418.138 406.697L416.331 411.913H416.263L414.456 406.697H413.365L415.786 413.277L415.598 413.788C415.232 414.785 414.78 414.879 414.047 414.691L413.791 415.578C413.894 415.629 414.183 415.697 414.524 415.697ZM423.078 413.379C424.407 413.379 425.379 412.714 425.686 411.725L424.714 411.453C424.459 412.135 423.866 412.475 423.078 412.475C421.897 412.475 421.084 411.713 421.037 410.311H425.788V409.885C425.788 407.447 424.339 406.612 422.976 406.612C421.203 406.612 420.027 408.01 420.027 410.021C420.027 412.032 421.186 413.379 423.078 413.379ZM421.037 409.441C421.105 408.423 421.825 407.515 422.976 407.515C424.066 407.515 424.765 408.333 424.765 409.441H421.037ZM429.977 413.379C431.426 413.379 432.38 412.492 432.551 411.333H431.545C431.358 412.049 430.761 412.475 429.977 412.475C428.784 412.475 428.017 411.487 428.017 409.97C428.017 408.487 428.801 407.515 429.977 407.515C430.863 407.515 431.392 408.061 431.545 408.657H432.551C432.38 407.43 431.341 406.612 429.96 406.612C428.187 406.612 427.011 408.01 427.011 410.004C427.011 411.964 428.136 413.379 429.977 413.379ZM435.027 409.305C435.027 408.163 435.755 407.515 436.748 407.515C437.694 407.515 438.265 408.112 438.265 409.152V413.242H439.271V409.083C439.271 407.4 438.376 406.612 437.038 406.612C436.007 406.612 435.419 407.042 435.112 407.72H435.027V404.515H434.021V413.242H435.027V409.305ZM441.111 413.242H442.117V406.697H441.111V413.242ZM441.622 405.606C442.014 405.606 442.338 405.299 442.338 404.924C442.338 404.549 442.014 404.242 441.622 404.242C441.23 404.242 440.906 404.549 440.906 404.924C440.906 405.299 441.23 405.606 441.622 405.606ZM443.959 413.242H444.964V409.152C444.964 408.193 445.663 407.515 446.447 407.515C447.21 407.515 447.743 408.014 447.743 408.76V413.242H448.765V408.981C448.765 408.137 449.294 407.515 450.214 407.515C450.93 407.515 451.544 407.894 451.544 408.862V413.242H452.549V408.862C452.549 407.323 451.723 406.612 450.555 406.612C449.618 406.612 448.932 407.042 448.595 407.72H448.527C448.203 407.021 447.632 406.612 446.771 406.612C445.919 406.612 445.288 407.021 445.015 407.72H444.93V406.697H443.959V413.242ZM346.844 421.697H345.446V420.129H344.441V421.697H343.452V422.549H344.441V426.64C344.441 427.782 345.361 428.328 346.214 428.328C346.589 428.328 346.827 428.26 346.964 428.208L346.759 427.305C346.674 427.322 346.537 427.356 346.316 427.356C345.873 427.356 345.446 427.22 345.446 426.367V422.549H346.844V421.697ZM350.946 428.379C352.718 428.379 353.912 427.032 353.912 425.004C353.912 422.958 352.718 421.612 350.946 421.612C349.173 421.612 347.98 422.958 347.98 425.004C347.98 427.032 349.173 428.379 350.946 428.379ZM350.946 427.475C349.599 427.475 348.986 426.316 348.986 425.004C348.986 423.691 349.599 422.515 350.946 422.515C352.292 422.515 352.906 423.691 352.906 425.004C352.906 426.316 352.292 427.475 350.946 427.475ZM355.447 430.697H356.453V427.237H356.538C356.759 427.595 357.185 428.379 358.447 428.379C360.083 428.379 361.225 427.066 361.225 424.987C361.225 422.924 360.083 421.612 358.43 421.612C357.151 421.612 356.759 422.396 356.538 422.737H356.418V421.697H355.447V430.697ZM356.435 424.97C356.435 423.504 357.083 422.515 358.31 422.515C359.589 422.515 360.22 423.589 360.22 424.97C360.22 426.367 359.572 427.475 358.31 427.475C357.1 427.475 356.435 426.453 356.435 424.97ZM362.759 428.242H363.765V421.697H362.759V428.242ZM363.271 420.606C363.663 420.606 363.987 420.299 363.987 419.924C363.987 419.549 363.663 419.242 363.271 419.242C362.879 419.242 362.555 419.549 362.555 419.924C362.555 420.299 362.879 420.606 363.271 420.606ZM370.243 423.163C369.928 422.234 369.221 421.612 367.925 421.612C366.544 421.612 365.522 422.396 365.522 423.504C365.522 424.407 366.059 425.012 367.26 425.294L368.351 425.549C369.012 425.703 369.323 426.018 369.323 426.47C369.323 427.032 368.726 427.492 367.789 427.492C366.966 427.492 366.451 427.139 366.272 426.436L365.317 426.674C365.552 427.786 366.468 428.379 367.806 428.379C369.327 428.379 370.363 427.548 370.363 426.419C370.363 425.507 369.792 424.931 368.624 424.646L367.652 424.407C366.877 424.215 366.527 423.956 366.527 423.453C366.527 422.89 367.124 422.481 367.925 422.481C368.803 422.481 369.165 422.967 369.34 423.419L370.243 423.163ZM372.882 424.305C372.882 423.163 373.611 422.515 374.604 422.515C375.55 422.515 376.121 423.112 376.121 424.152V428.242H377.127V424.083C377.127 422.4 376.232 421.612 374.894 421.612C373.862 421.612 373.274 422.042 372.967 422.72H372.882V419.515H371.877V428.242H372.882V424.305Z" fill="#1C1C1C"/>
<path d="M146.112 413.242L146.99 410.771H150.518L151.396 413.242H152.504L149.3 404.515H148.209L145.004 413.242H146.112ZM147.322 409.833L148.72 405.896H148.788L150.186 409.833H147.322ZM154.733 409.305C154.733 408.163 155.44 407.515 156.403 407.515C157.337 407.515 157.903 408.125 157.903 409.152V413.242H158.909V409.083C158.909 407.413 158.018 406.612 156.693 406.612C155.704 406.612 155.091 407.055 154.784 407.72H154.699V406.697H153.727V413.242H154.733V409.305ZM160.747 413.242H161.752V406.697H160.747V413.242ZM161.258 405.606C161.65 405.606 161.974 405.299 161.974 404.924C161.974 404.549 161.65 404.242 161.258 404.242C160.866 404.242 160.542 404.549 160.542 404.924C160.542 405.299 160.866 405.606 161.258 405.606ZM169.066 415.697V406.697H168.094V407.737H167.975C167.753 407.396 167.361 406.612 166.083 406.612C164.43 406.612 163.288 407.924 163.288 409.987C163.288 412.066 164.43 413.379 166.066 413.379C167.327 413.379 167.753 412.595 167.975 412.237H168.06V415.697H169.066ZM168.077 409.97C168.077 411.453 167.413 412.475 166.202 412.475C164.941 412.475 164.293 411.367 164.293 409.97C164.293 408.589 164.924 407.515 166.202 407.515C167.43 407.515 168.077 408.504 168.077 409.97ZM177.197 406.697H175.731V406.032C175.731 405.385 176.003 405.044 176.668 405.044C176.958 405.044 177.128 405.112 177.231 405.146L177.52 404.277C177.367 404.208 177.06 404.106 176.566 404.106C175.628 404.106 174.725 404.669 174.725 405.794V406.697H173.668V407.549H174.725V413.242H175.731V407.549H177.197V406.697ZM180.345 413.396C181.487 413.396 182.083 412.782 182.288 412.356H182.339V413.242H183.345V408.93C183.345 406.85 181.759 406.612 180.924 406.612C179.936 406.612 178.811 406.953 178.299 408.146L179.254 408.487C179.475 408.01 180 407.498 180.958 407.498C181.883 407.498 182.339 407.988 182.339 408.828V408.862C182.339 409.348 181.845 409.305 180.652 409.458C179.437 409.616 178.112 409.885 178.112 411.385C178.112 412.663 179.1 413.396 180.345 413.396ZM180.498 412.492C179.697 412.492 179.117 412.135 179.117 411.436C179.117 410.669 179.816 410.43 180.6 410.328C181.027 410.277 182.169 410.157 182.339 409.953V410.873C182.339 411.691 181.691 412.492 180.498 412.492ZM186.186 409.305C186.186 408.163 186.893 407.515 187.856 407.515C188.79 407.515 189.356 408.125 189.356 409.152V413.242H190.362V409.083C190.362 407.413 189.471 406.612 188.146 406.612C187.158 406.612 186.544 407.055 186.237 407.72H186.152V406.697H185.18V413.242H186.186V409.305ZM193.205 404.515H192.2V413.242H193.205V404.515ZM196.974 413.396C198.116 413.396 198.712 412.782 198.917 412.356H198.968V413.242H199.974V408.93C199.974 406.85 198.388 406.612 197.553 406.612C196.565 406.612 195.44 406.953 194.928 408.146L195.883 408.487C196.104 408.01 196.628 407.498 197.587 407.498C198.512 407.498 198.968 407.988 198.968 408.828V408.862C198.968 409.348 198.474 409.305 197.28 409.458C196.066 409.616 194.741 409.885 194.741 411.385C194.741 412.663 195.729 413.396 196.974 413.396ZM197.127 412.492C196.326 412.492 195.746 412.135 195.746 411.436C195.746 410.669 196.445 410.43 197.229 410.328C197.655 410.277 198.797 410.157 198.968 409.953V410.873C198.968 411.691 198.32 412.492 197.127 412.492ZM201.809 413.242H202.815V409.1C202.815 408.214 203.514 407.566 204.468 407.566C204.737 407.566 205.014 407.617 205.082 407.635V406.612C204.967 406.603 204.703 406.595 204.554 406.595C203.769 406.595 203.088 407.038 202.849 407.686H202.781V406.697H201.809V413.242ZM215.001 406.697H213.91L212.104 411.913H212.035L210.229 406.697H209.138L211.558 413.242H212.581L215.001 406.697ZM218.056 413.396C219.198 413.396 219.794 412.782 219.999 412.356H220.05V413.242H221.056V408.93C221.056 406.85 219.47 406.612 218.635 406.612C217.647 406.612 216.522 406.953 216.01 408.146L216.965 408.487C217.186 408.01 217.71 407.498 218.669 407.498C219.594 407.498 220.05 407.988 220.05 408.828V408.862C220.05 409.348 219.556 409.305 218.362 409.458C217.148 409.616 215.823 409.885 215.823 411.385C215.823 412.663 216.811 413.396 218.056 413.396ZM218.209 412.492C217.408 412.492 216.828 412.135 216.828 411.436C216.828 410.669 217.527 410.43 218.311 410.328C218.737 410.277 219.88 410.157 220.05 409.953V410.873C220.05 411.691 219.402 412.492 218.209 412.492ZM159.28 424.305C159.28 423.163 160.008 422.515 161.001 422.515C161.947 422.515 162.518 423.112 162.518 424.152V428.242H163.524V424.083C163.524 422.4 162.629 421.612 161.291 421.612C160.26 421.612 159.672 422.042 159.365 422.72H159.28V419.515H158.274V428.242H159.28V424.305ZM165.364 428.242H166.37V421.697H165.364V428.242ZM165.875 420.606C166.267 420.606 166.591 420.299 166.591 419.924C166.591 419.549 166.267 419.242 165.875 419.242C165.483 419.242 165.159 419.549 165.159 419.924C165.159 420.299 165.483 420.606 165.875 420.606ZM172.848 423.163C172.533 422.234 171.825 421.612 170.53 421.612C169.149 421.612 168.126 422.396 168.126 423.504C168.126 424.407 168.663 425.012 169.865 425.294L170.956 425.549C171.616 425.703 171.927 426.018 171.927 426.47C171.927 427.032 171.331 427.492 170.393 427.492C169.571 427.492 169.055 427.139 168.876 426.436L167.922 426.674C168.156 427.786 169.072 428.379 170.41 428.379C171.932 428.379 172.967 427.548 172.967 426.419C172.967 425.507 172.396 424.931 171.229 424.646L170.257 424.407C169.481 424.215 169.132 423.956 169.132 423.453C169.132 422.89 169.729 422.481 170.53 422.481C171.408 422.481 171.77 422.967 171.944 423.419L172.848 423.163ZM177.14 428.379C178.913 428.379 180.106 427.032 180.106 425.004C180.106 422.958 178.913 421.612 177.14 421.612C175.367 421.612 174.174 422.958 174.174 425.004C174.174 427.032 175.367 428.379 177.14 428.379ZM177.14 427.475C175.794 427.475 175.18 426.316 175.18 425.004C175.18 423.691 175.794 422.515 177.14 422.515C178.487 422.515 179.1 423.691 179.1 425.004C179.1 426.316 178.487 427.475 177.14 427.475ZM181.778 428.242H182.749V427.237H182.868C183.09 427.595 183.516 428.379 184.778 428.379C186.414 428.379 187.556 427.066 187.556 424.987C187.556 422.924 186.414 421.612 184.761 421.612C183.482 421.612 183.09 422.396 182.868 422.737H182.783V419.515H181.778V428.242ZM182.766 424.97C182.766 423.504 183.414 422.515 184.641 422.515C185.92 422.515 186.55 423.589 186.55 424.97C186.55 426.367 185.903 427.475 184.641 427.475C183.431 427.475 182.766 426.453 182.766 424.97ZM192.844 424.032H189.026V424.97H192.844V424.032ZM194.614 428.242H195.62V425.792L196.323 425.14L198.773 428.242H200.051L197.081 424.492L199.847 421.697H198.603L195.739 424.612H195.62V419.515H194.614V428.242ZM201.141 428.242H202.147V421.697H201.141V428.242ZM201.653 420.606C202.045 420.606 202.368 420.299 202.368 419.924C202.368 419.549 202.045 419.242 201.653 419.242C201.261 419.242 200.937 419.549 200.937 419.924C200.937 420.299 201.261 420.606 201.653 420.606ZM206.835 421.697H205.438V420.129H204.432V421.697H203.443V422.549H204.432V426.64C204.432 427.782 205.353 428.328 206.205 428.328C206.58 428.328 206.818 428.26 206.955 428.208L206.75 427.305C206.665 427.322 206.529 427.356 206.307 427.356C205.864 427.356 205.438 427.22 205.438 426.367V422.549H206.835V421.697ZM210.937 428.379C212.71 428.379 213.903 427.032 213.903 425.004C213.903 422.958 212.71 421.612 210.937 421.612C209.164 421.612 207.971 422.958 207.971 425.004C207.971 427.032 209.164 428.379 210.937 428.379ZM210.937 427.475C209.59 427.475 208.977 426.316 208.977 425.004C208.977 423.691 209.59 422.515 210.937 422.515C212.284 422.515 212.897 423.691 212.897 425.004C212.897 426.316 212.284 427.475 210.937 427.475ZM215.574 428.242H216.546V427.237H216.665C216.887 427.595 217.313 428.379 218.574 428.379C220.211 428.379 221.353 427.066 221.353 424.987C221.353 422.924 220.211 421.612 218.557 421.612C217.279 421.612 216.887 422.396 216.665 422.737H216.58V419.515H215.574V428.242ZM216.563 424.97C216.563 423.504 217.211 422.515 218.438 422.515C219.717 422.515 220.347 423.589 220.347 424.97C220.347 426.367 219.699 427.475 218.438 427.475C217.228 427.475 216.563 426.453 216.563 424.97Z" fill="#1C1C1C"/>
<rect x="184" y="366" width="36" height="25" rx="6" fill="#EC5147"/>
<path d="M197.974 383.119C199.789 383.119 201.072 382.088 201.08 380.673C201.072 379.574 200.301 378.649 199.325 378.474V378.423C200.173 378.219 200.748 377.422 200.757 376.48C200.748 375.146 199.572 374.153 197.974 374.153C196.359 374.153 195.183 375.146 195.191 376.48C195.183 377.418 195.758 378.219 196.623 378.423V378.474C195.63 378.649 194.859 379.574 194.867 380.673C194.859 382.088 196.142 383.119 197.974 383.119ZM197.974 382.041C196.883 382.041 196.193 381.462 196.201 380.588C196.193 379.68 196.943 379.033 197.974 379.033C198.988 379.033 199.738 379.68 199.747 380.588C199.738 381.462 199.052 382.041 197.974 382.041ZM197.974 377.98C197.092 377.98 196.465 377.422 196.474 376.591C196.465 375.773 197.07 375.232 197.974 375.232C198.86 375.232 199.465 375.773 199.474 376.591C199.465 377.422 198.843 377.98 197.974 377.98ZM203.194 383.081C203.659 383.081 204.046 382.702 204.046 382.229C204.046 381.764 203.659 381.381 203.194 381.381C202.725 381.381 202.342 381.764 202.342 382.229C202.342 382.702 202.725 383.081 203.194 383.081ZM205.807 383H207.184L210.981 375.44V374.273H205.211V375.402H209.617V375.466L205.807 383Z" fill="white"/>
<rect x="104" y="227" width="33" height="25" rx="6" fill="#EC5147"/>
<path d="M116.07 244.119C117.885 244.119 119.168 243.088 119.176 241.673C119.168 240.574 118.396 239.649 117.42 239.474V239.423C118.268 239.219 118.844 238.422 118.852 237.48C118.844 236.146 117.668 235.153 116.07 235.153C114.455 235.153 113.278 236.146 113.287 237.48C113.278 238.418 113.854 239.219 114.719 239.423V239.474C113.726 239.649 112.955 240.574 112.963 241.673C112.955 243.088 114.237 244.119 116.07 244.119ZM116.07 243.041C114.979 243.041 114.288 242.462 114.297 241.588C114.288 240.68 115.038 240.033 116.07 240.033C117.084 240.033 117.834 240.68 117.842 241.588C117.834 242.462 117.148 243.041 116.07 243.041ZM116.07 238.98C115.188 238.98 114.561 238.422 114.57 237.591C114.561 236.773 115.166 236.232 116.07 236.232C116.956 236.232 117.561 236.773 117.57 237.591C117.561 238.422 116.939 238.98 116.07 238.98ZM121.29 244.081C121.754 244.081 122.142 243.702 122.142 243.229C122.142 242.764 121.754 242.381 121.29 242.381C120.821 242.381 120.438 242.764 120.438 243.229C120.438 243.702 120.821 244.081 121.29 244.081ZM123.903 244H125.279L129.076 236.44V235.273H123.306V236.402H127.713V236.466L123.903 244Z" fill="white"/>
<rect x="427" y="227" width="35" height="25" rx="6" fill="#EC5147"/>
<path d="M440.07 244.119C441.885 244.119 443.168 243.088 443.176 241.673C443.168 240.574 442.396 239.649 441.42 239.474V239.423C442.268 239.219 442.844 238.422 442.852 237.48C442.844 236.146 441.668 235.153 440.07 235.153C438.455 235.153 437.278 236.146 437.287 237.48C437.278 238.418 437.854 239.219 438.719 239.423V239.474C437.726 239.649 436.955 240.574 436.963 241.673C436.955 243.088 438.237 244.119 440.07 244.119ZM440.07 243.041C438.979 243.041 438.288 242.462 438.297 241.588C438.288 240.68 439.038 240.033 440.07 240.033C441.084 240.033 441.834 240.68 441.842 241.588C441.834 242.462 441.148 243.041 440.07 243.041ZM440.07 238.98C439.188 238.98 438.561 238.422 438.57 237.591C438.561 236.773 439.166 236.232 440.07 236.232C440.956 236.232 441.561 236.773 441.57 237.591C441.561 238.422 440.939 238.98 440.07 238.98ZM445.29 244.081C445.754 244.081 446.142 243.702 446.142 243.229C446.142 242.764 445.754 242.381 445.29 242.381C444.821 242.381 444.438 242.764 444.438 243.229C444.438 243.702 444.821 244.081 445.29 244.081ZM447.903 244H449.279L453.076 236.44V235.273H447.306V236.402H451.713V236.466L447.903 244Z" fill="white"/>
<rect x="343" y="90" width="38" height="26" rx="6" fill="#EC5147"/>
<path d="M357.07 108.119C358.885 108.119 360.168 107.088 360.176 105.673C360.168 104.574 359.396 103.649 358.42 103.474V103.423C359.268 103.219 359.844 102.422 359.852 101.48C359.844 100.146 358.668 99.1534 357.07 99.1534C355.455 99.1534 354.278 100.146 354.287 101.48C354.278 102.418 354.854 103.219 355.719 103.423V103.474C354.726 103.649 353.955 104.574 353.963 105.673C353.955 107.088 355.237 108.119 357.07 108.119ZM357.07 107.041C355.979 107.041 355.288 106.462 355.297 105.588C355.288 104.68 356.038 104.033 357.07 104.033C358.084 104.033 358.834 104.68 358.842 105.588C358.834 106.462 358.148 107.041 357.07 107.041ZM357.07 102.98C356.188 102.98 355.561 102.422 355.57 101.591C355.561 100.773 356.166 100.232 357.07 100.232C357.956 100.232 358.561 100.773 358.57 101.591C358.561 102.422 357.939 102.98 357.07 102.98ZM362.29 108.081C362.754 108.081 363.142 107.702 363.142 107.229C363.142 106.764 362.754 106.381 362.29 106.381C361.821 106.381 361.438 106.764 361.438 107.229C361.438 107.702 361.821 108.081 362.29 108.081ZM364.903 108H366.279L370.076 100.44V99.2727H364.306V100.402H368.713V100.466L364.903 108Z" fill="white"/>
<rect x="343" y="366" width="36" height="25" rx="6" fill="#EC5147"/>
<path d="M356.624 383.119C358.44 383.119 359.722 382.088 359.731 380.673C359.722 379.574 358.951 378.649 357.975 378.474V378.423C358.823 378.219 359.398 377.422 359.407 376.48C359.398 375.146 358.222 374.153 356.624 374.153C355.009 374.153 353.833 375.146 353.842 376.48C353.833 377.418 354.408 378.219 355.273 378.423V378.474C354.281 378.649 353.509 379.574 353.518 380.673C353.509 382.088 354.792 383.119 356.624 383.119ZM356.624 382.041C355.533 382.041 354.843 381.462 354.852 380.588C354.843 379.68 355.593 379.033 356.624 379.033C357.638 379.033 358.388 379.68 358.397 380.588C358.388 381.462 357.702 382.041 356.624 382.041ZM356.624 377.98C355.742 377.98 355.116 377.422 355.124 376.591C355.116 375.773 355.721 375.232 356.624 375.232C357.511 375.232 358.116 375.773 358.124 376.591C358.116 377.422 357.494 377.98 356.624 377.98ZM361.844 383.081C362.309 383.081 362.697 382.702 362.697 382.229C362.697 381.764 362.309 381.381 361.844 381.381C361.376 381.381 360.992 381.764 360.992 382.229C360.992 382.702 361.376 383.081 361.844 383.081ZM364.458 383H365.834L369.631 375.44V374.273H363.861V375.402H368.267V375.466L364.458 383Z" fill="white"/>
<path d="M215.173 128.672L346.237 128.672L411.769 242.177L346.237 355.682H215.173L149.641 242.177L215.173 128.672Z" stroke="#C4D8FF"/>
<path d="M230.607 155.402L330.806 155.402L380.906 242.177L330.806 328.952H230.607L180.507 242.177L230.607 155.402Z" stroke="#C4D8FF"/>
<path d="M245.722 181.582L315.691 181.582L350.675 242.177L315.691 302.772H245.722L210.738 242.177L245.722 181.582Z" stroke="#C4D8FF"/>
<path d="M261.919 209.633L299.498 209.633L318.287 242.177L299.498 274.721L261.919 274.721L243.13 242.177L261.919 209.633Z" stroke="#C4D8FF"/>
<line x1="215.739" y1="129.035" x2="347.375" y2="355.65" stroke="#C3D8FF"/>
<line x1="215.739" y1="129.035" x2="347.375" y2="355.65" stroke="#C3D8FF"/>
<line x1="150.321" y1="242.094" x2="411.094" y2="242.094" stroke="#C3D8FF"/>
<line x1="150.321" y1="242.094" x2="411.094" y2="242.094" stroke="#C3D8FF"/>
<line x1="347.37" y1="129.543" x2="211.568" y2="356.158" stroke="#C3D8FF"/>
<line x1="347.37" y1="129.543" x2="211.568" y2="356.158" stroke="#C3D8FF"/>
<circle cx="215.306" cy="129.286" r="4.1657" fill="#77A5FE"/>
<circle cx="215.306" cy="355.901" r="4.1657" fill="#77A5FE"/>
<circle cx="346.941" cy="129.286" r="4.1657" fill="#77A5FE"/>
<circle cx="346.941" cy="355.901" r="4.1657" fill="#77A5FE"/>
<circle cx="411.094" cy="242.594" r="4.1657" fill="#77A5FE"/>
<circle cx="150.321" cy="242.594" r="4.1657" fill="#77A5FE"/>
<path d="M241.953 172.352L223.182 240.171V335.24L324.911 314.046L338.232 240.171L286.762 230.483L241.953 172.352Z" fill="#E95FBF" fill-opacity="0.2" stroke="#E95F5F"/>
</svg>
