<svg width="514" height="322" viewBox="0 0 514 322" fill="none" xmlns="http://www.w3.org/2000/svg">
<g filter="url(#filter0_d_780_3555)">
<rect x="11" y="9" width="492" height="300" rx="16" fill="white"/>
<rect x="10.5" y="8.5" width="493" height="301" rx="16.5" stroke="#E7E7E7"/>
</g>
<path d="M151.114 81.3636H142.432V93H143.841V82.6136H149.705V93H151.114V81.3636ZM153.674 96.2727H155.015V91.6591H155.129C155.424 92.1364 155.992 93.1818 157.674 93.1818C159.856 93.1818 161.379 91.4318 161.379 88.6591C161.379 85.9091 159.856 84.1591 157.651 84.1591C155.947 84.1591 155.424 85.2045 155.129 85.6591H154.97V84.2727H153.674V96.2727ZM154.992 88.6364C154.992 86.6818 155.856 85.3636 157.492 85.3636C159.197 85.3636 160.038 86.7955 160.038 88.6364C160.038 90.5 159.174 91.9773 157.492 91.9773C155.879 91.9773 154.992 90.6136 154.992 88.6364ZM166.87 93.1818C169.233 93.1818 170.824 91.3864 170.824 88.6818C170.824 85.9545 169.233 84.1591 166.87 84.1591C164.506 84.1591 162.915 85.9545 162.915 88.6818C162.915 91.3864 164.506 93.1818 166.87 93.1818ZM166.87 91.9773C165.074 91.9773 164.256 90.4318 164.256 88.6818C164.256 86.9318 165.074 85.3636 166.87 85.3636C168.665 85.3636 169.483 86.9318 169.483 88.6818C169.483 90.4318 168.665 91.9773 166.87 91.9773ZM176.316 95.9773H177.657V93.1818C180.021 93.1818 181.612 91.3864 181.612 88.6818C181.612 85.9545 180.021 84.1591 177.657 84.1591V81.3636H176.316V84.1591C173.953 84.1591 172.362 85.9545 172.362 88.6818C172.362 91.3864 173.953 93.1818 176.316 93.1818V95.9773ZM177.657 91.9773V85.3636C179.453 85.3636 180.271 86.9318 180.271 88.6818C180.271 90.4318 179.453 91.9773 177.657 91.9773ZM176.316 91.9773C174.521 91.9773 173.703 90.4318 173.703 88.6818C173.703 86.9318 174.521 85.3636 176.316 85.3636V91.9773ZM187.221 93.1818C188.993 93.1818 190.289 92.2955 190.698 90.9773L189.403 90.6136C189.062 91.5227 188.272 91.9773 187.221 91.9773C185.647 91.9773 184.562 90.9602 184.499 89.0909H190.834V88.5227C190.834 85.2727 188.903 84.1591 187.084 84.1591C184.721 84.1591 183.153 86.0227 183.153 88.7045C183.153 91.3864 184.698 93.1818 187.221 93.1818ZM184.499 87.9318C184.59 86.5739 185.55 85.3636 187.084 85.3636C188.539 85.3636 189.471 86.4545 189.471 87.9318H184.499ZM196.32 93.1818C198.251 93.1818 199.524 92 199.751 90.4545H198.411C198.161 91.4091 197.365 91.9773 196.32 91.9773C194.729 91.9773 193.706 90.6591 193.706 88.6364C193.706 86.6591 194.751 85.3636 196.32 85.3636C197.501 85.3636 198.206 86.0909 198.411 86.8864H199.751C199.524 85.25 198.138 84.1591 196.297 84.1591C193.933 84.1591 192.365 86.0227 192.365 88.6818C192.365 91.2955 193.865 93.1818 196.32 93.1818ZM205.157 93.1818C207.089 93.1818 208.362 92 208.589 90.4545H207.248C206.998 91.4091 206.203 91.9773 205.157 91.9773C203.566 91.9773 202.543 90.6591 202.543 88.6364C202.543 86.6591 203.589 85.3636 205.157 85.3636C206.339 85.3636 207.043 86.0909 207.248 86.8864H208.589C208.362 85.25 206.975 84.1591 205.134 84.1591C202.771 84.1591 201.203 86.0227 201.203 88.6818C201.203 91.2955 202.703 93.1818 205.157 93.1818ZM211.79 91.0227V84.2727H210.449V93H212.017L216.199 86.25V93H217.54V84.2727H215.995L211.79 91.0227ZM221.237 91.0227V84.2727H219.896V93H221.464L225.646 86.25V93H226.987V84.2727H225.441L221.237 91.0227ZM233.743 93H237.857C239.629 93 240.697 92 240.697 90.6591C240.697 89.2898 239.658 88.5511 238.697 88.4091C239.68 88.2045 240.379 87.6534 240.379 86.5909C240.379 85.1989 239.186 84.2727 237.311 84.2727H233.743V93ZM235.016 91.7727V89.0909H237.857C238.777 89.0909 239.334 89.642 239.334 90.5455C239.334 91.3068 238.777 91.7727 237.857 91.7727H235.016ZM235.016 87.9318V85.5H237.311C238.385 85.5 239.038 85.9489 239.038 86.6818C239.038 87.4602 238.385 87.9318 237.311 87.9318H235.016ZM242.627 96.2727H243.968V91.6591H244.082C244.377 92.1364 244.945 93.1818 246.627 93.1818C248.809 93.1818 250.332 91.4318 250.332 88.6591C250.332 85.9091 248.809 84.1591 246.605 84.1591C244.9 84.1591 244.377 85.2045 244.082 85.6591H243.923V84.2727H242.627V96.2727ZM243.945 88.6364C243.945 86.6818 244.809 85.3636 246.445 85.3636C248.15 85.3636 248.991 86.7955 248.991 88.6364C248.991 90.5 248.127 91.9773 246.445 91.9773C244.832 91.9773 243.945 90.6136 243.945 88.6364ZM254.845 93.2045C256.368 93.2045 257.164 92.3864 257.436 91.8182H257.505V93H258.845V87.25C258.845 84.4773 256.732 84.1591 255.618 84.1591C254.3 84.1591 252.8 84.6136 252.118 86.2045L253.391 86.6591C253.686 86.0227 254.385 85.3409 255.664 85.3409C256.897 85.3409 257.505 85.9943 257.505 87.1136V87.1591C257.505 87.8068 256.845 87.75 255.255 87.9545C253.635 88.1648 251.868 88.5227 251.868 90.5227C251.868 92.2273 253.186 93.2045 254.845 93.2045ZM255.05 92C253.982 92 253.209 91.5227 253.209 90.5909C253.209 89.5682 254.141 89.25 255.186 89.1136C255.755 89.0455 257.277 88.8864 257.505 88.6136V89.8409C257.505 90.9318 256.641 92 255.05 92ZM267.92 84.2727H266.579V88.6989C265.932 88.8864 265.267 89 264.466 89C263.375 89 262.534 88.3864 262.534 87.0455V84.25H261.193V87.0455C261.193 89.1818 262.488 90.25 264.466 90.25C265.289 90.25 265.949 90.142 266.579 89.9545V93H267.92V84.2727ZM272.849 93.2045C274.371 93.2045 275.167 92.3864 275.439 91.8182H275.508V93H276.849V87.25C276.849 84.4773 274.735 84.1591 273.621 84.1591C272.303 84.1591 270.803 84.6136 270.121 86.2045L271.394 86.6591C271.689 86.0227 272.388 85.3409 273.667 85.3409C274.9 85.3409 275.508 85.9943 275.508 87.1136V87.1591C275.508 87.8068 274.849 87.75 273.258 87.9545C271.638 88.1648 269.871 88.5227 269.871 90.5227C269.871 92.2273 271.189 93.2045 272.849 93.2045ZM273.053 92C271.985 92 271.212 91.5227 271.212 90.5909C271.212 89.5682 272.144 89.25 273.189 89.1136C273.758 89.0455 275.28 88.8864 275.508 88.6136V89.8409C275.508 90.9318 274.644 92 273.053 92ZM284.937 91.0227V84.2727H283.596V93H285.164L289.346 86.25V93H290.687V84.2727H289.141L284.937 91.0227ZM300.988 95.9773H302.329V93.1818C304.693 93.1818 306.284 91.3864 306.284 88.6818C306.284 85.9545 304.693 84.1591 302.329 84.1591V81.3636H300.988V84.1591C298.625 84.1591 297.034 85.9545 297.034 88.6818C297.034 91.3864 298.625 93.1818 300.988 93.1818V95.9773ZM302.329 91.9773V85.3636C304.125 85.3636 304.943 86.9318 304.943 88.6818C304.943 90.4318 304.125 91.9773 302.329 91.9773ZM300.988 91.9773C299.193 91.9773 298.375 90.4318 298.375 88.6818C298.375 86.9318 299.193 85.3636 300.988 85.3636V91.9773ZM310.802 93.2045C312.324 93.2045 313.12 92.3864 313.393 91.8182H313.461V93H314.802V87.25C314.802 84.4773 312.688 84.1591 311.574 84.1591C310.256 84.1591 308.756 84.6136 308.074 86.2045L309.347 86.6591C309.643 86.0227 310.341 85.3409 311.62 85.3409C312.853 85.3409 313.461 85.9943 313.461 87.1136V87.1591C313.461 87.8068 312.802 87.75 311.211 87.9545C309.591 88.1648 307.824 88.5227 307.824 90.5227C307.824 92.2273 309.143 93.2045 310.802 93.2045ZM311.006 92C309.938 92 309.165 91.5227 309.165 90.5909C309.165 89.5682 310.097 89.25 311.143 89.1136C311.711 89.0455 313.234 88.8864 313.461 88.6136V89.8409C313.461 90.9318 312.597 92 311.006 92ZM317.149 96.2727H318.49V91.6591H318.604C318.899 92.1364 319.467 93.1818 321.149 93.1818C323.331 93.1818 324.854 91.4318 324.854 88.6591C324.854 85.9091 323.331 84.1591 321.126 84.1591C319.422 84.1591 318.899 85.2045 318.604 85.6591H318.445V84.2727H317.149V96.2727ZM318.467 88.6364C318.467 86.6818 319.331 85.3636 320.967 85.3636C322.672 85.3636 323.513 86.7955 323.513 88.6364C323.513 90.5 322.649 91.9773 320.967 91.9773C319.354 91.9773 318.467 90.6136 318.467 88.6364ZM331.572 91.1818L328.572 84.2727H326.799V93H328.14V86.1989L331.026 93H332.117L335.004 86.3239V93H336.345V84.2727H334.617L331.572 91.1818ZM341.267 93.2045C342.79 93.2045 343.586 92.3864 343.858 91.8182H343.926V93H345.267V87.25C345.267 84.4773 343.154 84.1591 342.04 84.1591C340.722 84.1591 339.222 84.6136 338.54 86.2045L339.813 86.6591C340.108 86.0227 340.807 85.3409 342.086 85.3409C343.318 85.3409 343.926 85.9943 343.926 87.1136V87.1591C343.926 87.8068 343.267 87.75 341.676 87.9545C340.057 88.1648 338.29 88.5227 338.29 90.5227C338.29 92.2273 339.608 93.2045 341.267 93.2045ZM341.472 92C340.404 92 339.631 91.5227 339.631 90.5909C339.631 89.5682 340.563 89.25 341.608 89.1136C342.176 89.0455 343.699 88.8864 343.926 88.6136V89.8409C343.926 90.9318 343.063 92 341.472 92ZM354.478 84.2727H353.137V91.75H348.956V84.2727H347.615V93H354.365V95.8182H355.706V91.75H354.478V84.2727ZM361.236 93.1818C363.009 93.1818 364.305 92.2955 364.714 90.9773L363.418 90.6136C363.077 91.5227 362.288 91.9773 361.236 91.9773C359.663 91.9773 358.577 90.9602 358.515 89.0909H364.85V88.5227C364.85 85.2727 362.918 84.1591 361.1 84.1591C358.736 84.1591 357.168 86.0227 357.168 88.7045C357.168 91.3864 358.714 93.1818 361.236 93.1818ZM358.515 87.9318C358.606 86.5739 359.566 85.3636 361.1 85.3636C362.555 85.3636 363.486 86.4545 363.486 87.9318H358.515ZM366.79 93H370.903C372.676 93 373.744 92 373.744 90.6591C373.744 89.2898 372.705 88.5511 371.744 88.4091C372.727 88.2045 373.426 87.6534 373.426 86.5909C373.426 85.1989 372.233 84.2727 370.358 84.2727H366.79V93ZM368.062 91.7727V89.0909H370.903C371.824 89.0909 372.381 89.642 372.381 90.5455C372.381 91.3068 371.824 91.7727 370.903 91.7727H368.062ZM368.062 87.9318V85.5H370.358C371.432 85.5 372.085 85.9489 372.085 86.6818C372.085 87.4602 371.432 87.9318 370.358 87.9318H368.062ZM375.174 85.5227H378.061V93H379.401V85.5227H382.265V84.2727H375.174V85.5227ZM386.236 93.2045C387.759 93.2045 388.554 92.3864 388.827 91.8182H388.895V93H390.236V87.25C390.236 84.4773 388.122 84.1591 387.009 84.1591C385.691 84.1591 384.191 84.6136 383.509 86.2045L384.782 86.6591C385.077 86.0227 385.776 85.3409 387.054 85.3409C388.287 85.3409 388.895 85.9943 388.895 87.1136V87.1591C388.895 87.8068 388.236 87.75 386.645 87.9545C385.026 88.1648 383.259 88.5227 383.259 90.5227C383.259 92.2273 384.577 93.2045 386.236 93.2045ZM386.441 92C385.372 92 384.6 91.5227 384.6 90.5909C384.6 89.5682 385.532 89.25 386.577 89.1136C387.145 89.0455 388.668 88.8864 388.895 88.6136V89.8409C388.895 90.9318 388.032 92 386.441 92ZM396.438 90.7727C396.484 92.2045 397.853 93.1818 399.711 93.1818C401.62 93.1818 403.006 92.1591 403.006 90.5682C403.006 89.4773 402.353 88.5909 401.37 88.5227V88.4318C402.199 88.1761 402.824 87.5739 402.824 86.5909C402.824 85.2102 401.643 84.1591 399.802 84.1591C397.984 84.1591 396.688 85.1591 396.643 86.5682H398.052C398.091 85.8466 398.847 85.3409 399.87 85.3409C400.887 85.3409 401.461 85.858 401.461 86.6364C401.461 87.3636 400.961 87.9091 399.893 87.9091H398.393V89.1136H399.893C400.961 89.1136 401.643 89.6989 401.643 90.5682C401.643 91.5625 400.762 91.9773 399.688 91.9773C398.637 91.9773 397.932 91.5625 397.87 90.7727H396.438ZM407.358 93.2045C408.881 93.2045 409.676 92.3864 409.949 91.8182H410.017V93H411.358V87.25C411.358 84.4773 409.244 84.1591 408.131 84.1591C406.812 84.1591 405.312 84.6136 404.631 86.2045L405.903 86.6591C406.199 86.0227 406.898 85.3409 408.176 85.3409C409.409 85.3409 410.017 85.9943 410.017 87.1136V87.1591C410.017 87.8068 409.358 87.75 407.767 87.9545C406.148 88.1648 404.381 88.5227 404.381 90.5227C404.381 92.2273 405.699 93.2045 407.358 93.2045ZM407.562 92C406.494 92 405.722 91.5227 405.722 90.5909C405.722 89.5682 406.653 89.25 407.699 89.1136C408.267 89.0455 409.79 88.8864 410.017 88.6136V89.8409C410.017 90.9318 409.153 92 407.562 92ZM415.046 84.2727H413.705V93H415.046V89.2727H419.228V93H420.569V84.2727H419.228V88.0227H415.046V84.2727ZM428.168 93H429.441V84.2727H425.85C423.969 84.2727 422.827 85.2557 422.827 86.8636C422.827 88.0625 423.429 88.9148 424.48 89.2727L422.35 93H423.804L425.827 89.4545H428.168V93ZM428.168 88.2045H425.691C424.742 88.2045 424.168 87.6989 424.168 86.8636C424.168 86.017 424.804 85.5 425.85 85.5H428.168V88.2045ZM431.03 93H431.484C433.416 93 433.973 91.5 434.098 88.6364L434.234 85.5227H437.439V93H438.78V84.2727H432.961L432.802 88.1364C432.689 91.0682 432.393 91.75 431.348 91.75H431.03V93ZM442.481 91.0227V84.2727H441.14V93H442.708L446.89 86.25V93H448.231V84.2727H446.685L442.481 91.0227ZM142.227 117H143.568V109.523H147.75V117H149.091V108.273H142.227V117ZM155.099 117.182C156.872 117.182 158.167 116.295 158.576 114.977L157.281 114.614C156.94 115.523 156.15 115.977 155.099 115.977C153.525 115.977 152.44 114.96 152.377 113.091H158.712V112.523C158.712 109.273 156.781 108.159 154.962 108.159C152.599 108.159 151.031 110.023 151.031 112.705C151.031 115.386 152.576 117.182 155.099 117.182ZM152.377 111.932C152.468 110.574 153.428 109.364 154.962 109.364C156.417 109.364 157.349 110.455 157.349 111.932H152.377ZM160.652 120.273H161.993V115.659H162.107C162.402 116.136 162.97 117.182 164.652 117.182C166.834 117.182 168.357 115.432 168.357 112.659C168.357 109.909 166.834 108.159 164.63 108.159C162.925 108.159 162.402 109.205 162.107 109.659H161.948V108.273H160.652V120.273ZM161.97 112.636C161.97 110.682 162.834 109.364 164.47 109.364C166.175 109.364 167.016 110.795 167.016 112.636C167.016 114.5 166.152 115.977 164.47 115.977C162.857 115.977 161.97 114.614 161.97 112.636ZM170.302 117H174.416C176.189 117 177.257 116 177.257 114.659C177.257 113.29 176.217 112.551 175.257 112.409C176.24 112.205 176.939 111.653 176.939 110.591C176.939 109.199 175.745 108.273 173.87 108.273H170.302V117ZM171.575 115.773V113.091H174.416C175.336 113.091 175.893 113.642 175.893 114.545C175.893 115.307 175.336 115.773 174.416 115.773H171.575ZM171.575 111.932V109.5H173.87C174.944 109.5 175.598 109.949 175.598 110.682C175.598 111.46 174.944 111.932 173.87 111.932H171.575ZM182.732 117.182C185.096 117.182 186.687 115.386 186.687 112.682C186.687 109.955 185.096 108.159 182.732 108.159C180.368 108.159 178.778 109.955 178.778 112.682C178.778 115.386 180.368 117.182 182.732 117.182ZM182.732 115.977C180.937 115.977 180.118 114.432 180.118 112.682C180.118 110.932 180.937 109.364 182.732 109.364C184.528 109.364 185.346 110.932 185.346 112.682C185.346 114.432 184.528 115.977 182.732 115.977ZM192.293 117.182C194.065 117.182 195.361 116.295 195.77 114.977L194.474 114.614C194.134 115.523 193.344 115.977 192.293 115.977C190.719 115.977 189.634 114.96 189.571 113.091H195.906V112.523C195.906 109.273 193.974 108.159 192.156 108.159C189.793 108.159 188.224 110.023 188.224 112.705C188.224 115.386 189.77 117.182 192.293 117.182ZM189.571 111.932C189.662 110.574 190.622 109.364 192.156 109.364C193.611 109.364 194.543 110.455 194.543 111.932H189.571ZM203.587 115.023V108.273H202.246V117H203.814L207.996 110.25V117H209.337V108.273H207.791L203.587 115.023ZM216.093 117H220.207C221.979 117 223.047 116 223.047 114.659C223.047 113.29 222.008 112.551 221.047 112.409C222.03 112.205 222.729 111.653 222.729 110.591C222.729 109.199 221.536 108.273 219.661 108.273H216.093V117ZM217.366 115.773V113.091H220.207C221.127 113.091 221.684 113.642 221.684 114.545C221.684 115.307 221.127 115.773 220.207 115.773H217.366ZM217.366 111.932V109.5H219.661C220.735 109.5 221.388 109.949 221.388 110.682C221.388 111.46 220.735 111.932 219.661 111.932H217.366ZM224.477 109.523H227.364V117H228.705V109.523H231.568V108.273H224.477V109.523ZM236.516 117.182C238.88 117.182 240.471 115.386 240.471 112.682C240.471 109.955 238.88 108.159 236.516 108.159C234.153 108.159 232.562 109.955 232.562 112.682C232.562 115.386 234.153 117.182 236.516 117.182ZM236.516 115.977C234.721 115.977 233.903 114.432 233.903 112.682C233.903 110.932 234.721 109.364 236.516 109.364C238.312 109.364 239.13 110.932 239.13 112.682C239.13 114.432 238.312 115.977 236.516 115.977ZM242.418 120.273H243.759V115.659H243.872C244.168 116.136 244.736 117.182 246.418 117.182C248.6 117.182 250.122 115.432 250.122 112.659C250.122 109.909 248.6 108.159 246.395 108.159C244.691 108.159 244.168 109.205 243.872 109.659H243.713V108.273H242.418V120.273ZM243.736 112.636C243.736 110.682 244.6 109.364 246.236 109.364C247.941 109.364 248.782 110.795 248.782 112.636C248.782 114.5 247.918 115.977 246.236 115.977C244.622 115.977 243.736 114.614 243.736 112.636ZM255.613 117.182C257.977 117.182 259.568 115.386 259.568 112.682C259.568 109.955 257.977 108.159 255.613 108.159C253.25 108.159 251.659 109.955 251.659 112.682C251.659 115.386 253.25 117.182 255.613 117.182ZM255.613 115.977C253.818 115.977 253 114.432 253 112.682C253 110.932 253.818 109.364 255.613 109.364C257.409 109.364 258.227 110.932 258.227 112.682C258.227 114.432 257.409 115.977 255.613 115.977ZM265.174 117.182C266.947 117.182 268.242 116.295 268.651 114.977L267.356 114.614C267.015 115.523 266.225 115.977 265.174 115.977C263.6 115.977 262.515 114.96 262.452 113.091H268.787V112.523C268.787 109.273 266.856 108.159 265.037 108.159C262.674 108.159 261.106 110.023 261.106 112.705C261.106 115.386 262.651 117.182 265.174 117.182ZM262.452 111.932C262.543 110.574 263.503 109.364 265.037 109.364C266.492 109.364 267.424 110.455 267.424 111.932H262.452ZM279.9 115.182L276.9 108.273H275.127V117H276.468V110.199L279.355 117H280.445L283.332 110.324V117H284.673V108.273H282.945L279.9 115.182ZM290.686 117.182C292.459 117.182 293.755 116.295 294.164 114.977L292.868 114.614C292.527 115.523 291.738 115.977 290.686 115.977C289.113 115.977 288.027 114.96 287.965 113.091H294.3V112.523C294.3 109.273 292.368 108.159 290.55 108.159C288.186 108.159 286.618 110.023 286.618 112.705C286.618 115.386 288.164 117.182 290.686 117.182ZM287.965 111.932C288.056 110.574 289.016 109.364 290.55 109.364C292.005 109.364 292.936 110.455 292.936 111.932H287.965ZM299.785 117.182C301.717 117.182 302.99 116 303.217 114.455H301.876C301.626 115.409 300.831 115.977 299.785 115.977C298.194 115.977 297.172 114.659 297.172 112.636C297.172 110.659 298.217 109.364 299.785 109.364C300.967 109.364 301.672 110.091 301.876 110.886H303.217C302.99 109.25 301.603 108.159 299.762 108.159C297.399 108.159 295.831 110.023 295.831 112.682C295.831 115.295 297.331 117.182 299.785 117.182ZM304.39 109.523H307.276V117H308.617V109.523H311.481V108.273H304.39V109.523ZM316.429 117.182C318.793 117.182 320.384 115.386 320.384 112.682C320.384 109.955 318.793 108.159 316.429 108.159C314.065 108.159 312.474 109.955 312.474 112.682C312.474 115.386 314.065 117.182 316.429 117.182ZM316.429 115.977C314.634 115.977 313.815 114.432 313.815 112.682C313.815 110.932 314.634 109.364 316.429 109.364C318.224 109.364 319.043 110.932 319.043 112.682C319.043 114.432 318.224 115.977 316.429 115.977ZM326.73 117H330.844C332.617 117 333.685 116 333.685 114.659C333.685 113.29 332.645 112.551 331.685 112.409C332.668 112.205 333.367 111.653 333.367 110.591C333.367 109.199 332.174 108.273 330.299 108.273H326.73V117ZM328.003 115.773V113.091H330.844C331.764 113.091 332.321 113.642 332.321 114.545C332.321 115.307 331.764 115.773 330.844 115.773H328.003ZM328.003 111.932V109.5H330.299C331.372 109.5 332.026 109.949 332.026 110.682C332.026 111.46 331.372 111.932 330.299 111.932H328.003ZM339.515 109.523H342.401V117H343.742V109.523H346.606V108.273H339.515V109.523ZM351.554 117.182C353.918 117.182 355.509 115.386 355.509 112.682C355.509 109.955 353.918 108.159 351.554 108.159C349.19 108.159 347.599 109.955 347.599 112.682C347.599 115.386 349.19 117.182 351.554 117.182ZM351.554 115.977C349.759 115.977 348.94 114.432 348.94 112.682C348.94 110.932 349.759 109.364 351.554 109.364C353.349 109.364 354.168 110.932 354.168 112.682C354.168 114.432 353.349 115.977 351.554 115.977ZM357.455 117H358.796V109.523H362.978V117H364.319V108.273H357.455V117ZM371.668 111.386H366.577V112.636H371.668V111.386ZM373.358 117H380.699V115.75H375.289V115.659L377.903 112.864C379.903 110.722 380.494 109.722 380.494 108.432C380.494 106.636 379.039 105.205 376.994 105.205C374.954 105.205 373.403 106.591 373.403 108.636H374.744C374.744 107.312 375.602 106.432 376.949 106.432C378.21 106.432 379.176 107.205 379.176 108.432C379.176 109.506 378.545 110.301 377.199 111.773L373.358 115.977V117ZM386.741 117.159C389.309 117.159 390.786 114.983 390.786 111.182C390.786 107.409 389.286 105.205 386.741 105.205C384.195 105.205 382.695 107.409 382.695 111.182C382.695 114.983 384.172 117.159 386.741 117.159ZM386.741 115.909C385.047 115.909 384.059 114.21 384.059 111.182C384.059 108.159 385.059 106.432 386.741 106.432C388.422 106.432 389.422 108.159 389.422 111.182C389.422 114.21 388.434 115.909 386.741 115.909ZM142.227 141H146.341C148.114 141 149.182 140 149.182 138.659C149.182 137.29 148.142 136.551 147.182 136.409C148.165 136.205 148.864 135.653 148.864 134.591C148.864 133.199 147.67 132.273 145.795 132.273H142.227V141ZM143.5 139.773V137.091H146.341C147.261 137.091 147.818 137.642 147.818 138.545C147.818 139.307 147.261 139.773 146.341 139.773H143.5ZM143.5 135.932V133.5H145.795C146.869 133.5 147.523 133.949 147.523 134.682C147.523 135.46 146.869 135.932 145.795 135.932H143.5ZM154.657 141.182C157.021 141.182 158.612 139.386 158.612 136.682C158.612 133.955 157.021 132.159 154.657 132.159C152.293 132.159 150.703 133.955 150.703 136.682C150.703 139.386 152.293 141.182 154.657 141.182ZM154.657 139.977C152.862 139.977 152.043 138.432 152.043 136.682C152.043 134.932 152.862 133.364 154.657 133.364C156.453 133.364 157.271 134.932 157.271 136.682C157.271 138.432 156.453 139.977 154.657 139.977ZM164.104 141.182C166.036 141.182 167.309 140 167.536 138.455H166.195C165.945 139.409 165.149 139.977 164.104 139.977C162.513 139.977 161.49 138.659 161.49 136.636C161.49 134.659 162.536 133.364 164.104 133.364C165.286 133.364 165.99 134.091 166.195 134.886H167.536C167.309 133.25 165.922 132.159 164.081 132.159C161.718 132.159 160.149 134.023 160.149 136.682C160.149 139.295 161.649 141.182 164.104 141.182ZM168.709 133.523H171.595V141H172.936V133.523H175.799V132.273H168.709V133.523ZM177.655 144.273H178.996V139.659H179.11C179.405 140.136 179.974 141.182 181.655 141.182C183.837 141.182 185.36 139.432 185.36 136.659C185.36 133.909 183.837 132.159 181.633 132.159C179.928 132.159 179.405 133.205 179.11 133.659H178.951V132.273H177.655V144.273ZM178.974 136.636C178.974 134.682 179.837 133.364 181.474 133.364C183.178 133.364 184.019 134.795 184.019 136.636C184.019 138.5 183.155 139.977 181.474 139.977C179.86 139.977 178.974 138.614 178.974 136.636ZM190.964 141.182C192.737 141.182 194.033 140.295 194.442 138.977L193.146 138.614C192.805 139.523 192.016 139.977 190.964 139.977C189.391 139.977 188.305 138.96 188.243 137.091H194.578V136.523C194.578 133.273 192.646 132.159 190.828 132.159C188.464 132.159 186.896 134.023 186.896 136.705C186.896 139.386 188.442 141.182 190.964 141.182ZM188.243 135.932C188.334 134.574 189.294 133.364 190.828 133.364C192.283 133.364 193.214 134.455 193.214 135.932H188.243ZM202.995 129C202.569 129.358 201.933 129.358 201.041 129.352C200.751 129.352 200.433 129.352 200.086 129.364C197.427 129.432 196.109 131.455 196.109 135.341V136.273C196.109 139.5 197.677 141.182 200.018 141.182C202.353 141.182 203.904 139.489 203.904 136.75C203.904 134 202.33 132.545 200.291 132.545C199.092 132.545 197.972 133.045 197.382 134.136H197.268C197.45 131.886 198.291 130.682 200.109 130.614C201.722 130.545 202.882 130.591 203.677 129.818L202.995 129ZM200.018 139.977C198.427 139.977 197.45 138.705 197.45 136.75C197.478 134.841 198.438 133.75 199.995 133.75C201.592 133.75 202.563 134.841 202.563 136.75C202.563 138.716 201.597 139.977 200.018 139.977ZM209.401 141.182C211.764 141.182 213.355 139.386 213.355 136.682C213.355 133.955 211.764 132.159 209.401 132.159C207.037 132.159 205.446 133.955 205.446 136.682C205.446 139.386 207.037 141.182 209.401 141.182ZM209.401 139.977C207.605 139.977 206.787 138.432 206.787 136.682C206.787 134.932 207.605 133.364 209.401 133.364C211.196 133.364 212.014 134.932 212.014 136.682C212.014 138.432 211.196 139.977 209.401 139.977ZM215.302 141H219.416C221.189 141 222.257 140 222.257 138.659C222.257 137.29 221.217 136.551 220.257 136.409C221.24 136.205 221.939 135.653 221.939 134.591C221.939 133.199 220.745 132.273 218.87 132.273H215.302V141ZM216.575 139.773V137.091H219.416C220.336 137.091 220.893 137.642 220.893 138.545C220.893 139.307 220.336 139.773 219.416 139.773H216.575ZM216.575 135.932V133.5H218.87C219.944 133.5 220.598 133.949 220.598 134.682C220.598 135.46 219.944 135.932 218.87 135.932H216.575ZM226.755 141.205C228.278 141.205 229.073 140.386 229.346 139.818H229.414V141H230.755V135.25C230.755 132.477 228.641 132.159 227.528 132.159C226.209 132.159 224.709 132.614 224.028 134.205L225.3 134.659C225.596 134.023 226.295 133.341 227.573 133.341C228.806 133.341 229.414 133.994 229.414 135.114V135.159C229.414 135.807 228.755 135.75 227.164 135.955C225.545 136.165 223.778 136.523 223.778 138.523C223.778 140.227 225.096 141.205 226.755 141.205ZM226.959 140C225.891 140 225.118 139.523 225.118 138.591C225.118 137.568 226.05 137.25 227.096 137.114C227.664 137.045 229.187 136.886 229.414 136.614V137.841C229.414 138.932 228.55 140 226.959 140ZM234.443 132.273H233.102V141H234.443V137.273H238.625V141H239.966V132.273H238.625V136.023H234.443V132.273ZM243.656 132.273H242.315V141H243.656V137.273H247.838V141H249.178V132.273H247.838V136.023H243.656V132.273ZM252.868 135.432V132.273H251.527V141H255.186C257.232 141 258.345 139.75 258.345 138.182C258.345 136.591 257.232 135.432 255.186 135.432H252.868ZM259.732 141H261.073V132.273H259.732V141ZM252.868 136.682H255.186C256.249 136.682 257.005 137.33 257.005 138.25C257.005 139.131 256.249 139.75 255.186 139.75H252.868V136.682ZM264.427 132.273H262.882L265.655 136.636L262.882 141H264.427L266.518 137.614L268.609 141H270.155L267.336 136.636L270.155 132.273H268.609L266.518 135.841L264.427 132.273ZM279.913 141.182C281.845 141.182 283.118 140 283.345 138.455H282.004C281.754 139.409 280.959 139.977 279.913 139.977C278.322 139.977 277.3 138.659 277.3 136.636C277.3 134.659 278.345 133.364 279.913 133.364C281.095 133.364 281.8 134.091 282.004 134.886H283.345C283.118 133.25 281.732 132.159 279.891 132.159C277.527 132.159 275.959 134.023 275.959 136.682C275.959 139.295 277.459 141.182 279.913 141.182ZM285.205 141H286.546V133.523H290.728V141H292.069V132.273H285.205V141ZM298.077 141.182C299.85 141.182 301.145 140.295 301.554 138.977L300.259 138.614C299.918 139.523 299.128 139.977 298.077 139.977C296.503 139.977 295.418 138.96 295.355 137.091H301.691V136.523C301.691 133.273 299.759 132.159 297.941 132.159C295.577 132.159 294.009 134.023 294.009 136.705C294.009 139.386 295.554 141.182 298.077 141.182ZM295.355 135.932C295.446 134.574 296.407 133.364 297.941 133.364C299.395 133.364 300.327 134.455 300.327 135.932H295.355ZM310.494 132.273H309.153V139.75H304.971V132.273H303.63V141H310.38V143.818H311.721V139.75H310.494V132.273ZM315.028 139.023V132.273H313.687V141H315.255L319.437 134.25V141H320.778V132.273H319.232L315.028 139.023ZM325.702 141.205C327.224 141.205 328.02 140.386 328.293 139.818H328.361V141H329.702V135.25C329.702 132.477 327.588 132.159 326.474 132.159C325.156 132.159 323.656 132.614 322.974 134.205L324.247 134.659C324.543 134.023 325.241 133.341 326.52 133.341C327.753 133.341 328.361 133.994 328.361 135.114V135.159C328.361 135.807 327.702 135.75 326.111 135.955C324.491 136.165 322.724 136.523 322.724 138.523C322.724 140.227 324.043 141.205 325.702 141.205ZM325.906 140C324.838 140 324.065 139.523 324.065 138.591C324.065 137.568 324.997 137.25 326.043 137.114C326.611 137.045 328.134 136.886 328.361 136.614V137.841C328.361 138.932 327.497 140 325.906 140ZM331.276 141H331.731C333.663 141 334.22 139.5 334.345 136.636L334.481 133.523H337.686V141H339.026V132.273H333.208L333.049 136.136C332.936 139.068 332.64 139.75 331.595 139.75H331.276V141ZM342.728 139.023V132.273H341.387V141H342.955L347.137 134.25V141H348.478V132.273H346.932L342.728 139.023ZM354.379 141.182C356.311 141.182 357.584 140 357.811 138.455H356.47C356.22 139.409 355.424 139.977 354.379 139.977C352.788 139.977 351.765 138.659 351.765 136.636C351.765 134.659 352.811 133.364 354.379 133.364C355.561 133.364 356.265 134.091 356.47 134.886H357.811C357.584 133.25 356.197 132.159 354.356 132.159C351.993 132.159 350.424 134.023 350.424 136.682C350.424 139.295 351.924 141.182 354.379 141.182ZM358.984 133.523H361.87V141H363.211V133.523H366.074V132.273H358.984V133.523ZM371.023 141.182C373.386 141.182 374.977 139.386 374.977 136.682C374.977 133.955 373.386 132.159 371.023 132.159C368.659 132.159 367.068 133.955 367.068 136.682C367.068 139.386 368.659 141.182 371.023 141.182ZM371.023 139.977C369.227 139.977 368.409 138.432 368.409 136.682C368.409 134.932 369.227 133.364 371.023 133.364C372.818 133.364 373.636 134.932 373.636 136.682C373.636 138.432 372.818 139.977 371.023 139.977ZM376.924 141H381.038C382.811 141 383.879 140 383.879 138.659C383.879 137.29 382.839 136.551 381.879 136.409C382.862 136.205 383.561 135.653 383.561 134.591C383.561 133.199 382.367 132.273 380.492 132.273H376.924V141ZM378.197 139.773V137.091H381.038C381.958 137.091 382.515 137.642 382.515 138.545C382.515 139.307 381.958 139.773 381.038 139.773H378.197ZM378.197 135.932V133.5H380.492C381.566 133.5 382.22 133.949 382.22 134.682C382.22 135.46 381.566 135.932 380.492 135.932H378.197Z" fill="#6E7381"/>
<path d="M143.32 65C142.595 65 142.232 64.6373 142.232 63.912V54.808C142.232 54.0827 142.595 53.72 143.32 53.72H147.16C148.344 53.72 149.261 53.9813 149.912 54.504C150.563 55.016 150.888 55.7307 150.888 56.648C150.888 57.256 150.733 57.7787 150.424 58.216C150.115 58.6533 149.688 58.9733 149.144 59.176C149.784 59.3573 150.28 59.6773 150.632 60.136C150.995 60.584 151.176 61.1547 151.176 61.848C151.176 62.8507 150.835 63.6293 150.152 64.184C149.48 64.728 148.541 65 147.336 65H143.32ZM144.2 58.504H146.808C148.205 58.504 148.904 57.9653 148.904 56.888C148.904 55.8107 148.205 55.272 146.808 55.272H144.2V58.504ZM144.2 63.448H147.08C148.488 63.448 149.192 62.8827 149.192 61.752C149.192 60.6213 148.488 60.056 147.08 60.056H144.2V63.448ZM156.636 65.16C155.825 65.16 155.121 64.9947 154.524 64.664C153.926 64.3333 153.462 63.864 153.132 63.256C152.801 62.6373 152.636 61.912 152.636 61.08C152.636 60.248 152.801 59.528 153.132 58.92C153.462 58.312 153.926 57.8427 154.524 57.512C155.121 57.1813 155.825 57.016 156.636 57.016C157.446 57.016 158.15 57.1813 158.748 57.512C159.345 57.8427 159.809 58.312 160.14 58.92C160.47 59.528 160.636 60.248 160.636 61.08C160.636 61.912 160.47 62.6373 160.14 63.256C159.809 63.864 159.345 64.3333 158.748 64.664C158.15 64.9947 157.446 65.16 156.636 65.16ZM156.636 63.64C157.233 63.64 157.713 63.4267 158.076 63C158.438 62.5627 158.62 61.9227 158.62 61.08C158.62 60.2267 158.438 59.592 158.076 59.176C157.713 58.7493 157.233 58.536 156.636 58.536C156.038 58.536 155.558 58.7493 155.196 59.176C154.833 59.592 154.652 60.2267 154.652 61.08C154.652 61.9227 154.833 62.5627 155.196 63C155.558 63.4267 156.038 63.64 156.636 63.64ZM166.021 65.16C165.2 65.16 164.485 64.9947 163.877 64.664C163.269 64.3227 162.8 63.8427 162.469 63.224C162.138 62.6053 161.973 61.88 161.973 61.048C161.973 60.216 162.138 59.5013 162.469 58.904C162.8 58.296 163.269 57.832 163.877 57.512C164.485 57.1813 165.2 57.016 166.021 57.016C166.373 57.016 166.752 57.064 167.157 57.16C167.573 57.256 167.962 57.416 168.325 57.64C168.538 57.768 168.661 57.9333 168.693 58.136C168.736 58.3387 168.709 58.5253 168.613 58.696C168.528 58.8667 168.394 58.9893 168.213 59.064C168.042 59.1387 167.845 59.112 167.621 58.984C167.13 58.7067 166.656 58.568 166.197 58.568C165.504 58.568 164.965 58.7867 164.581 59.224C164.208 59.6507 164.021 60.264 164.021 61.064C164.021 61.8533 164.208 62.4773 164.581 62.936C164.965 63.384 165.504 63.608 166.197 63.608C166.656 63.608 167.13 63.4747 167.621 63.208C167.845 63.08 168.042 63.0533 168.213 63.128C168.384 63.2027 168.506 63.3307 168.581 63.512C168.656 63.6827 168.672 63.8693 168.629 64.072C168.586 64.264 168.464 64.424 168.261 64.552C167.909 64.7653 167.536 64.92 167.141 65.016C166.746 65.112 166.373 65.16 166.021 65.16ZM172.726 65.128C172.054 65.128 171.718 64.7867 171.718 64.104V58.744H169.766C169.19 58.744 168.902 58.4827 168.902 57.96C168.902 57.4373 169.19 57.176 169.766 57.176H175.67C176.246 57.176 176.534 57.4373 176.534 57.96C176.534 58.4827 176.246 58.744 175.67 58.744H173.718V64.104C173.718 64.7867 173.388 65.128 172.726 65.128ZM178.541 68.008C177.88 68.008 177.549 67.672 177.549 67V58.056C177.549 57.384 177.874 57.048 178.525 57.048C179.186 57.048 179.517 57.384 179.517 58.056V58.392C179.741 57.976 180.077 57.6453 180.525 57.4C180.973 57.144 181.485 57.016 182.061 57.016C182.744 57.016 183.341 57.1813 183.853 57.512C184.376 57.8427 184.781 58.312 185.069 58.92C185.357 59.5173 185.501 60.2373 185.501 61.08C185.501 61.912 185.357 62.6373 185.069 63.256C184.781 63.864 184.381 64.3333 183.869 64.664C183.357 64.9947 182.754 65.16 182.061 65.16C181.506 65.16 181.005 65.0427 180.557 64.808C180.12 64.5627 179.784 64.2373 179.549 63.832V67C179.549 67.672 179.213 68.008 178.541 68.008ZM181.501 63.64C182.098 63.64 182.578 63.4267 182.941 63C183.304 62.5627 183.485 61.9227 183.485 61.08C183.485 60.2267 183.304 59.592 182.941 59.176C182.578 58.7493 182.098 58.536 181.501 58.536C180.904 58.536 180.424 58.7493 180.061 59.176C179.698 59.592 179.517 60.2267 179.517 61.08C179.517 61.9227 179.698 62.5627 180.061 63C180.424 63.4267 180.904 63.64 181.501 63.64ZM191.133 65.16C190.248 65.16 189.485 64.9947 188.845 64.664C188.205 64.3333 187.709 63.864 187.357 63.256C187.016 62.648 186.845 61.928 186.845 61.096C186.845 60.2853 187.01 59.576 187.341 58.968C187.682 58.36 188.146 57.8853 188.733 57.544C189.33 57.192 190.008 57.016 190.765 57.016C191.874 57.016 192.749 57.368 193.389 58.072C194.04 58.776 194.365 59.736 194.365 60.952C194.365 61.3467 194.109 61.544 193.597 61.544H188.765C188.914 62.9413 189.714 63.64 191.165 63.64C191.442 63.64 191.752 63.608 192.093 63.544C192.445 63.4693 192.776 63.3467 193.085 63.176C193.362 63.016 193.597 62.968 193.789 63.032C193.981 63.0853 194.114 63.1973 194.189 63.368C194.274 63.5387 194.285 63.7307 194.221 63.944C194.168 64.1467 194.018 64.3227 193.773 64.472C193.4 64.7067 192.968 64.8827 192.477 65C191.997 65.1067 191.549 65.16 191.133 65.16ZM190.845 58.376C190.258 58.376 189.784 58.5573 189.421 58.92C189.058 59.2827 188.84 59.7733 188.765 60.392H192.701C192.658 59.7413 192.477 59.2453 192.157 58.904C191.848 58.552 191.41 58.376 190.845 58.376ZM199.716 65.16C198.457 65.16 197.46 64.776 196.724 64.008C195.998 63.24 195.636 62.1093 195.636 60.616V59.448C195.636 57.8693 195.988 56.6693 196.692 55.848C197.406 55.016 198.452 54.4347 199.828 54.104L201.908 53.592C202.185 53.5173 202.42 53.5333 202.612 53.64C202.804 53.736 202.926 53.9173 202.98 54.184C203.033 54.4507 202.99 54.68 202.852 54.872C202.713 55.0533 202.5 55.176 202.212 55.24L199.972 55.768C199.172 55.96 198.564 56.3173 198.148 56.84C197.732 57.352 197.524 58.0027 197.524 58.792V58.872C197.758 58.392 198.105 58.0027 198.564 57.704C199.033 57.4053 199.604 57.256 200.276 57.256C200.926 57.256 201.502 57.416 202.004 57.736C202.516 58.0453 202.916 58.488 203.204 59.064C203.492 59.64 203.636 60.328 203.636 61.128C203.636 61.9493 203.47 62.664 203.14 63.272C202.82 63.8693 202.366 64.3333 201.78 64.664C201.193 64.9947 200.505 65.16 199.716 65.16ZM199.636 63.64C200.265 63.64 200.75 63.432 201.092 63.016C201.444 62.6 201.62 61.9973 201.62 61.208C201.62 60.4293 201.444 59.832 201.092 59.416C200.75 58.9893 200.265 58.776 199.636 58.776C199.017 58.776 198.532 58.984 198.18 59.4C197.828 59.816 197.652 60.392 197.652 61.128C197.652 61.9493 197.822 62.5733 198.164 63C198.516 63.4267 199.006 63.64 199.636 63.64ZM208.973 65.16C208.162 65.16 207.458 64.9947 206.861 64.664C206.264 64.3333 205.8 63.864 205.469 63.256C205.138 62.6373 204.973 61.912 204.973 61.08C204.973 60.248 205.138 59.528 205.469 58.92C205.8 58.312 206.264 57.8427 206.861 57.512C207.458 57.1813 208.162 57.016 208.973 57.016C209.784 57.016 210.488 57.1813 211.085 57.512C211.682 57.8427 212.146 58.312 212.477 58.92C212.808 59.528 212.973 60.248 212.973 61.08C212.973 61.912 212.808 62.6373 212.477 63.256C212.146 63.864 211.682 64.3333 211.085 64.664C210.488 64.9947 209.784 65.16 208.973 65.16ZM208.973 63.64C209.57 63.64 210.05 63.4267 210.413 63C210.776 62.5627 210.957 61.9227 210.957 61.08C210.957 60.2267 210.776 59.592 210.413 59.176C210.05 58.7493 209.57 58.536 208.973 58.536C208.376 58.536 207.896 58.7493 207.533 59.176C207.17 59.592 206.989 60.2267 206.989 61.08C206.989 61.9227 207.17 62.5627 207.533 63C207.896 63.4267 208.376 63.64 208.973 63.64ZM215.719 65C215.057 65 214.727 64.6693 214.727 64.008V58.168C214.727 57.5067 215.057 57.176 215.719 57.176H218.951C219.964 57.176 220.689 57.3573 221.127 57.72C221.575 58.072 221.799 58.5733 221.799 59.224C221.799 59.6293 221.687 59.9813 221.463 60.28C221.239 60.5787 220.929 60.7973 220.535 60.936C221.047 61.0533 221.431 61.2773 221.687 61.608C221.943 61.9387 222.071 62.3387 222.071 62.808C222.071 63.48 221.815 64.0133 221.303 64.408C220.791 64.8027 220.049 65 219.079 65H215.719ZM216.583 60.392H218.759C219.143 60.392 219.441 60.3067 219.655 60.136C219.868 59.9547 219.975 59.704 219.975 59.384C219.975 59.064 219.868 58.824 219.655 58.664C219.441 58.4933 219.143 58.408 218.759 58.408H216.583V60.392ZM216.583 63.768H218.903C219.799 63.768 220.247 63.4107 220.247 62.696C220.247 61.9813 219.799 61.624 218.903 61.624H216.583V63.768ZM226.312 65.16C225.747 65.16 225.24 65.0533 224.792 64.84C224.355 64.616 224.008 64.3173 223.752 63.944C223.507 63.5707 223.384 63.1493 223.384 62.68C223.384 62.104 223.534 61.6507 223.832 61.32C224.131 60.9787 224.616 60.7333 225.288 60.584C225.96 60.4347 226.862 60.36 227.992 60.36H228.552V60.024C228.552 59.4907 228.435 59.1067 228.2 58.872C227.966 58.6373 227.571 58.52 227.016 58.52C226.707 58.52 226.371 58.5573 226.008 58.632C225.656 58.7067 225.283 58.8347 224.888 59.016C224.632 59.1333 224.419 59.1493 224.248 59.064C224.078 58.968 223.96 58.824 223.896 58.632C223.843 58.4293 223.854 58.2267 223.928 58.024C224.014 57.8213 224.179 57.672 224.424 57.576C224.915 57.3733 225.384 57.2293 225.832 57.144C226.291 57.0587 226.707 57.016 227.08 57.016C228.222 57.016 229.07 57.2827 229.624 57.816C230.179 58.3387 230.456 59.1547 230.456 60.264V64.104C230.456 64.7867 230.147 65.128 229.528 65.128C228.899 65.128 228.584 64.7867 228.584 64.104V63.752C228.403 64.1893 228.115 64.536 227.72 64.792C227.326 65.0373 226.856 65.16 226.312 65.16ZM226.728 63.784C227.251 63.784 227.683 63.6027 228.024 63.24C228.376 62.8773 228.552 62.4187 228.552 61.864V61.512H228.008C227.006 61.512 226.307 61.592 225.912 61.752C225.528 61.9013 225.336 62.1787 225.336 62.584C225.336 62.936 225.459 63.224 225.704 63.448C225.95 63.672 226.291 63.784 226.728 63.784ZM233.597 65.128C232.925 65.128 232.589 64.7867 232.589 64.104V58.056C232.589 57.384 232.925 57.048 233.597 57.048C234.258 57.048 234.589 57.384 234.589 58.056V60.2H238.045V58.056C238.045 57.384 238.376 57.048 239.037 57.048C239.709 57.048 240.045 57.384 240.045 58.056V64.104C240.045 64.7867 239.709 65.128 239.037 65.128C238.376 65.128 238.045 64.7867 238.045 64.104V61.768H234.589V64.104C234.589 64.7867 234.258 65.128 233.597 65.128ZM243.232 65.128C242.56 65.128 242.224 64.7867 242.224 64.104V58.056C242.224 57.384 242.56 57.048 243.232 57.048C243.893 57.048 244.224 57.384 244.224 58.056V60.2H247.68V58.056C247.68 57.384 248.01 57.048 248.672 57.048C249.344 57.048 249.68 57.384 249.68 58.056V64.104C249.68 64.7867 249.344 65.128 248.672 65.128C248.01 65.128 247.68 64.7867 247.68 64.104V61.768H244.224V64.104C244.224 64.7867 243.893 65.128 243.232 65.128ZM255.442 65.16C254.631 65.16 253.927 64.9947 253.33 64.664C252.733 64.3333 252.269 63.864 251.938 63.256C251.607 62.6373 251.442 61.912 251.442 61.08C251.442 60.248 251.607 59.528 251.938 58.92C252.269 58.312 252.733 57.8427 253.33 57.512C253.927 57.1813 254.631 57.016 255.442 57.016C256.253 57.016 256.957 57.1813 257.554 57.512C258.151 57.8427 258.615 58.312 258.946 58.92C259.277 59.528 259.442 60.248 259.442 61.08C259.442 61.912 259.277 62.6373 258.946 63.256C258.615 63.864 258.151 64.3333 257.554 64.664C256.957 64.9947 256.253 65.16 255.442 65.16ZM255.442 63.64C256.039 63.64 256.519 63.4267 256.882 63C257.245 62.5627 257.426 61.9227 257.426 61.08C257.426 60.2267 257.245 59.592 256.882 59.176C256.519 58.7493 256.039 58.536 255.442 58.536C254.845 58.536 254.365 58.7493 254.002 59.176C253.639 59.592 253.458 60.2267 253.458 61.08C253.458 61.9227 253.639 62.5627 254.002 63C254.365 63.4267 254.845 63.64 255.442 63.64ZM264.827 65.16C264.006 65.16 263.291 64.9947 262.683 64.664C262.075 64.3227 261.606 63.8427 261.275 63.224C260.945 62.6053 260.779 61.88 260.779 61.048C260.779 60.216 260.945 59.5013 261.275 58.904C261.606 58.296 262.075 57.832 262.683 57.512C263.291 57.1813 264.006 57.016 264.827 57.016C265.179 57.016 265.558 57.064 265.963 57.16C266.379 57.256 266.769 57.416 267.131 57.64C267.345 57.768 267.467 57.9333 267.499 58.136C267.542 58.3387 267.515 58.5253 267.419 58.696C267.334 58.8667 267.201 58.9893 267.019 59.064C266.849 59.1387 266.651 59.112 266.427 58.984C265.937 58.7067 265.462 58.568 265.003 58.568C264.31 58.568 263.771 58.7867 263.387 59.224C263.014 59.6507 262.827 60.264 262.827 61.064C262.827 61.8533 263.014 62.4773 263.387 62.936C263.771 63.384 264.31 63.608 265.003 63.608C265.462 63.608 265.937 63.4747 266.427 63.208C266.651 63.08 266.849 63.0533 267.019 63.128C267.19 63.2027 267.313 63.3307 267.387 63.512C267.462 63.6827 267.478 63.8693 267.435 64.072C267.393 64.264 267.27 64.424 267.067 64.552C266.715 64.7653 266.342 64.92 265.947 65.016C265.553 65.112 265.179 65.16 264.827 65.16ZM271.533 65.128C270.861 65.128 270.525 64.7867 270.525 64.104V58.744H268.573C267.997 58.744 267.709 58.4827 267.709 57.96C267.709 57.4373 267.997 57.176 268.573 57.176H274.477C275.053 57.176 275.341 57.4373 275.341 57.96C275.341 58.4827 275.053 58.744 274.477 58.744H272.525V64.104C272.525 64.7867 272.194 65.128 271.533 65.128ZM277.331 65C276.67 65 276.339 64.6693 276.339 64.008V58.056C276.339 57.384 276.675 57.048 277.347 57.048C278.008 57.048 278.339 57.384 278.339 58.056V59.768H280.403C281.438 59.768 282.216 59.9867 282.739 60.424C283.272 60.8613 283.539 61.5013 283.539 62.344C283.539 63.144 283.256 63.7893 282.691 64.28C282.136 64.76 281.374 65 280.403 65H277.331ZM278.339 63.688H280.099C280.6 63.688 280.99 63.5813 281.267 63.368C281.544 63.144 281.683 62.808 281.683 62.36C281.683 61.9227 281.544 61.6027 281.267 61.4C280.99 61.1867 280.6 61.08 280.099 61.08H278.339V63.688Z" fill="#1C1C1C"/>
<circle cx="87" cy="86" r="36" fill="#FFA945"/>
<path fill-rule="evenodd" clip-rule="evenodd" d="M93.2206 89.8744H91.9848L91.5468 89.452C93.4239 87.2621 94.3938 84.2743 93.8619 81.0989C93.1267 76.7503 89.4977 73.2777 85.1178 72.7458C78.501 71.9324 72.9323 77.5012 73.7457 84.1179C74.2775 88.4978 77.7502 92.1269 82.0988 92.8621C85.2742 93.3939 88.2619 92.4241 90.4519 90.547L90.8742 90.985V92.2207L97.5222 98.8688C98.1636 99.5101 99.2116 99.5101 99.853 98.8688C100.494 98.2274 100.494 97.1794 99.853 96.538L93.2206 89.8744ZM83.8351 89.8743C79.9401 89.8743 76.7959 86.7302 76.7959 82.8352C76.7959 78.9402 79.9401 75.7961 83.8351 75.7961C87.73 75.7961 90.8742 78.9402 90.8742 82.8352C90.8742 86.7302 87.73 89.8743 83.8351 89.8743Z" fill="white"/>
<path d="M142.409 215H146.614C149.364 215 150.5 213.659 150.5 211.909C150.5 210.068 149.227 209.068 148.159 209V208.886C149.159 208.614 150.045 207.955 150.045 206.455C150.045 204.75 148.909 203.364 146.477 203.364H142.409V215ZM143.818 213.75V209.705H146.682C148.205 209.705 149.159 210.727 149.159 211.909C149.159 212.932 148.455 213.75 146.614 213.75H143.818ZM143.818 208.477V204.614H146.477C148.023 204.614 148.705 205.432 148.705 206.455C148.705 207.682 147.705 208.477 146.432 208.477H143.818ZM152.534 218.273H153.874V213.659H153.988C154.284 214.136 154.852 215.182 156.534 215.182C158.715 215.182 160.238 213.432 160.238 210.659C160.238 207.909 158.715 206.159 156.511 206.159C154.806 206.159 154.284 207.205 153.988 207.659H153.829V206.273H152.534V218.273ZM153.852 210.636C153.852 208.682 154.715 207.364 156.352 207.364C158.056 207.364 158.897 208.795 158.897 210.636C158.897 212.5 158.034 213.977 156.352 213.977C154.738 213.977 153.852 212.614 153.852 210.636ZM164.752 215.205C166.274 215.205 167.07 214.386 167.343 213.818H167.411V215H168.752V209.25C168.752 206.477 166.638 206.159 165.524 206.159C164.206 206.159 162.706 206.614 162.024 208.205L163.297 208.659C163.593 208.023 164.291 207.341 165.57 207.341C166.803 207.341 167.411 207.994 167.411 209.114V209.159C167.411 209.807 166.752 209.75 165.161 209.955C163.541 210.165 161.774 210.523 161.774 212.523C161.774 214.227 163.093 215.205 164.752 215.205ZM164.956 214C163.888 214 163.115 213.523 163.115 212.591C163.115 211.568 164.047 211.25 165.093 211.114C165.661 211.045 167.184 210.886 167.411 210.614V211.841C167.411 212.932 166.547 214 164.956 214ZM177.826 206.273H176.486V210.699C175.838 210.886 175.173 211 174.372 211C173.281 211 172.44 210.386 172.44 209.045V206.25H171.099V209.045C171.099 211.182 172.395 212.25 174.372 212.25C175.196 212.25 175.855 212.142 176.486 211.955V215H177.826V206.273ZM181.528 213.023V206.273H180.187V215H181.755L185.937 208.25V215H187.278V206.273H185.732L181.528 213.023ZM194.034 218.273H195.374V213.659H195.488C195.784 214.136 196.352 215.182 198.034 215.182C200.215 215.182 201.738 213.432 201.738 210.659C201.738 207.909 200.215 206.159 198.011 206.159C196.306 206.159 195.784 207.205 195.488 207.659H195.329V206.273H194.034V218.273ZM195.352 210.636C195.352 208.682 196.215 207.364 197.852 207.364C199.556 207.364 200.397 208.795 200.397 210.636C200.397 212.5 199.534 213.977 197.852 213.977C196.238 213.977 195.352 212.614 195.352 210.636ZM206.252 215.205C207.774 215.205 208.57 214.386 208.843 213.818H208.911V215H210.252V209.25C210.252 206.477 208.138 206.159 207.024 206.159C205.706 206.159 204.206 206.614 203.524 208.205L204.797 208.659C205.093 208.023 205.791 207.341 207.07 207.341C208.303 207.341 208.911 207.994 208.911 209.114V209.159C208.911 209.807 208.252 209.75 206.661 209.955C205.041 210.165 203.274 210.523 203.274 212.523C203.274 214.227 204.593 215.205 206.252 215.205ZM206.456 214C205.388 214 204.615 213.523 204.615 212.591C204.615 211.568 205.547 211.25 206.593 211.114C207.161 211.045 208.684 210.886 208.911 210.614V211.841C208.911 212.932 208.047 214 206.456 214ZM219.076 203C218.65 203.358 218.014 203.358 217.122 203.352C216.832 203.352 216.514 203.352 216.167 203.364C213.508 203.432 212.19 205.455 212.19 209.341V210.273C212.19 213.5 213.758 215.182 216.099 215.182C218.434 215.182 219.986 213.489 219.986 210.75C219.986 208 218.412 206.545 216.372 206.545C215.173 206.545 214.054 207.045 213.463 208.136H213.349C213.531 205.886 214.372 204.682 216.19 204.614C217.804 204.545 218.963 204.591 219.758 203.818L219.076 203ZM216.099 213.977C214.508 213.977 213.531 212.705 213.531 210.75C213.559 208.841 214.52 207.75 216.076 207.75C217.673 207.75 218.645 208.841 218.645 210.75C218.645 212.716 217.679 213.977 216.099 213.977ZM225.482 215.182C227.846 215.182 229.437 213.386 229.437 210.682C229.437 207.955 227.846 206.159 225.482 206.159C223.118 206.159 221.528 207.955 221.528 210.682C221.528 213.386 223.118 215.182 225.482 215.182ZM225.482 213.977C223.687 213.977 222.868 212.432 222.868 210.682C222.868 208.932 223.687 207.364 225.482 207.364C227.278 207.364 228.096 208.932 228.096 210.682C228.096 212.432 227.278 213.977 225.482 213.977ZM230.243 207.523H233.129V215H234.47V207.523H237.334V206.273H230.243V207.523ZM241.305 215.205C242.828 215.205 243.623 214.386 243.896 213.818H243.964V215H245.305V209.25C245.305 206.477 243.191 206.159 242.078 206.159C240.759 206.159 239.259 206.614 238.578 208.205L239.85 208.659C240.146 208.023 240.845 207.341 242.123 207.341C243.356 207.341 243.964 207.994 243.964 209.114V209.159C243.964 209.807 243.305 209.75 241.714 209.955C240.095 210.165 238.328 210.523 238.328 212.523C238.328 214.227 239.646 215.205 241.305 215.205ZM241.509 214C240.441 214 239.668 213.523 239.668 212.591C239.668 211.568 240.6 211.25 241.646 211.114C242.214 211.045 243.737 210.886 243.964 210.614V211.841C243.964 212.932 243.1 214 241.509 214ZM248.357 206.273H247.016V215H248.357V211.341H250.595C250.834 213.676 252.351 215.182 254.516 215.182C256.88 215.182 258.47 213.386 258.47 210.682C258.47 207.955 256.88 206.159 254.516 206.159C252.328 206.159 250.8 207.699 250.59 210.091H248.357V206.273ZM254.516 213.977C252.72 213.977 251.902 212.432 251.902 210.682C251.902 208.932 252.72 207.364 254.516 207.364C256.311 207.364 257.13 208.932 257.13 210.682C257.13 212.432 256.311 213.977 254.516 213.977ZM259.412 207.523H262.298V215H263.639V207.523H266.503V206.273H259.412V207.523ZM272.759 215H274.099V211.318H275.304L278.168 215H279.895L276.327 210.477L279.849 206.273H278.122L274.986 210.068H274.099V206.273H272.759V215ZM283.82 215.205C285.343 215.205 286.139 214.386 286.411 213.818H286.48V215H287.82V209.25C287.82 206.477 285.707 206.159 284.593 206.159C283.275 206.159 281.775 206.614 281.093 208.205L282.366 208.659C282.661 208.023 283.36 207.341 284.639 207.341C285.872 207.341 286.48 207.994 286.48 209.114V209.159C286.48 209.807 285.82 209.75 284.23 209.955C282.61 210.165 280.843 210.523 280.843 212.523C280.843 214.227 282.161 215.205 283.82 215.205ZM284.025 214C282.957 214 282.184 213.523 282.184 212.591C282.184 211.568 283.116 211.25 284.161 211.114C284.73 211.045 286.252 210.886 286.48 210.614V211.841C286.48 212.932 285.616 214 284.025 214ZM290.168 215H291.509V211.318H292.713L295.577 215H297.304L293.736 210.477L297.259 206.273H295.532L292.395 210.068H291.509V206.273H290.168V215ZM303.062 215H307.175C308.948 215 310.016 214 310.016 212.659C310.016 211.29 308.976 210.551 308.016 210.409C308.999 210.205 309.698 209.653 309.698 208.591C309.698 207.199 308.505 206.273 306.63 206.273H303.062V215ZM304.334 213.773V211.091H307.175C308.096 211.091 308.653 211.642 308.653 212.545C308.653 213.307 308.096 213.773 307.175 213.773H304.334ZM304.334 209.932V207.5H306.63C307.704 207.5 308.357 207.949 308.357 208.682C308.357 209.46 307.704 209.932 306.63 209.932H304.334ZM321.732 206.273H316.346V215H317.687V207.523H321.732V206.273ZM326.682 215.182C329.046 215.182 330.637 213.386 330.637 210.682C330.637 207.955 329.046 206.159 326.682 206.159C324.318 206.159 322.728 207.955 322.728 210.682C322.728 213.386 324.318 215.182 326.682 215.182ZM326.682 213.977C324.887 213.977 324.068 212.432 324.068 210.682C324.068 208.932 324.887 207.364 326.682 207.364C328.478 207.364 329.296 208.932 329.296 210.682C329.296 212.432 328.478 213.977 326.682 213.977ZM336.129 215.182C338.061 215.182 339.334 214 339.561 212.455H338.22C337.97 213.409 337.174 213.977 336.129 213.977C334.538 213.977 333.515 212.659 333.515 210.636C333.515 208.659 334.561 207.364 336.129 207.364C337.311 207.364 338.015 208.091 338.22 208.886H339.561C339.334 207.25 337.947 206.159 336.106 206.159C333.743 206.159 332.174 208.023 332.174 210.682C332.174 213.295 333.674 215.182 336.129 215.182ZM342.285 218.273C343.495 218.273 344.347 217.631 344.853 216.273L348.569 206.295L347.103 206.273L344.694 213.227H344.603L342.194 206.273H340.739L343.966 215.045L343.716 215.727C343.228 217.057 342.626 217.182 341.648 216.932L341.307 218.114C341.444 218.182 341.83 218.273 342.285 218.273ZM348.577 217.5H349.918V215H356.372V217.5H357.713V213.75H356.372V206.273H350.827L350.531 209.727C350.321 212.17 350.009 213.011 349.304 213.75H348.577V217.5ZM350.827 213.75C351.44 212.943 351.662 211.551 351.849 209.727L352.077 207.523H355.031V213.75H350.827ZM361.961 215.205C363.484 215.205 364.279 214.386 364.552 213.818H364.62V215H365.961V209.25C365.961 206.477 363.847 206.159 362.734 206.159C361.416 206.159 359.916 206.614 359.234 208.205L360.507 208.659C360.802 208.023 361.501 207.341 362.779 207.341C364.012 207.341 364.62 207.994 364.62 209.114V209.159C364.62 209.807 363.961 209.75 362.37 209.955C360.751 210.165 358.984 210.523 358.984 212.523C358.984 214.227 360.302 215.205 361.961 215.205ZM362.166 214C361.097 214 360.325 213.523 360.325 212.591C360.325 211.568 361.257 211.25 362.302 211.114C362.87 211.045 364.393 210.886 364.62 210.614V211.841C364.62 212.932 363.757 214 362.166 214ZM368.309 218.273H369.649V213.659H369.763C370.059 214.136 370.627 215.182 372.309 215.182C374.49 215.182 376.013 213.432 376.013 210.659C376.013 207.909 374.49 206.159 372.286 206.159C370.581 206.159 370.059 207.205 369.763 207.659H369.604V206.273H368.309V218.273ZM369.627 210.636C369.627 208.682 370.49 207.364 372.127 207.364C373.831 207.364 374.672 208.795 374.672 210.636C374.672 212.5 373.809 213.977 372.127 213.977C370.513 213.977 369.627 212.614 369.627 210.636ZM381.504 215.182C383.436 215.182 384.709 214 384.936 212.455H383.595C383.345 213.409 382.549 213.977 381.504 213.977C379.913 213.977 378.89 212.659 378.89 210.636C378.89 208.659 379.936 207.364 381.504 207.364C382.686 207.364 383.39 208.091 383.595 208.886H384.936C384.709 207.25 383.322 206.159 381.481 206.159C379.118 206.159 377.549 208.023 377.549 210.682C377.549 213.295 379.049 215.182 381.504 215.182ZM386.109 207.523H388.995V215H390.336V207.523H393.199V206.273H386.109V207.523ZM395.055 215H399.169C400.942 215 402.01 214 402.01 212.659C402.01 211.29 400.97 210.551 400.01 210.409C400.993 210.205 401.692 209.653 401.692 208.591C401.692 207.199 400.499 206.273 398.624 206.273H395.055V215ZM396.328 213.773V211.091H399.169C400.089 211.091 400.646 211.642 400.646 212.545C400.646 213.307 400.089 213.773 399.169 213.773H396.328ZM396.328 209.932V207.5H398.624C399.697 207.5 400.351 207.949 400.351 208.682C400.351 209.46 399.697 209.932 398.624 209.932H396.328ZM407.599 215.182C409.372 215.182 410.667 214.295 411.076 212.977L409.781 212.614C409.44 213.523 408.65 213.977 407.599 213.977C406.025 213.977 404.94 212.96 404.877 211.091H411.212V210.523C411.212 207.273 409.281 206.159 407.462 206.159C405.099 206.159 403.531 208.023 403.531 210.705C403.531 213.386 405.076 215.182 407.599 215.182ZM404.877 209.932C404.968 208.574 405.928 207.364 407.462 207.364C408.917 207.364 409.849 208.455 409.849 209.932H404.877ZM414.493 206.273H413.152V215H414.493V211.273H418.675V215H420.016V206.273H418.675V210.023H414.493V206.273ZM423.706 206.273H422.365V215H423.706V211.273H427.888V215H429.228V206.273H427.888V210.023H423.706V206.273ZM432.918 209.432V206.273H431.577V215H435.236C437.282 215 438.395 213.75 438.395 212.182C438.395 210.591 437.282 209.432 435.236 209.432H432.918ZM439.782 215H441.123V206.273H439.782V215ZM432.918 210.682H435.236C436.299 210.682 437.055 211.33 437.055 212.25C437.055 213.131 436.299 213.75 435.236 213.75H432.918V210.682ZM444.477 206.273H442.932L445.705 210.636L442.932 215H444.477L446.568 211.614L448.659 215H450.205L447.386 210.636L450.205 206.273H448.659L446.568 209.841L444.477 206.273ZM454.018 213.409H452.563L452.495 214.045C452.33 215.585 452.007 217.119 451.859 217.841H452.882C453.154 217.068 453.734 215.318 453.927 214.023L454.018 213.409ZM141.727 231.523H144.614V239H145.955V231.523H148.818V230.273H141.727V231.523ZM152.789 239.205C154.312 239.205 155.107 238.386 155.38 237.818H155.448V239H156.789V233.25C156.789 230.477 154.676 230.159 153.562 230.159C152.244 230.159 150.744 230.614 150.062 232.205L151.335 232.659C151.63 232.023 152.329 231.341 153.607 231.341C154.84 231.341 155.448 231.994 155.448 233.114V233.159C155.448 233.807 154.789 233.75 153.198 233.955C151.579 234.165 149.812 234.523 149.812 236.523C149.812 238.227 151.13 239.205 152.789 239.205ZM152.994 238C151.926 238 151.153 237.523 151.153 236.591C151.153 235.568 152.085 235.25 153.13 235.114C153.698 235.045 155.221 234.886 155.448 234.614V235.841C155.448 236.932 154.585 238 152.994 238ZM159.137 239H160.478V235.318H161.682L164.546 239H166.273L162.705 234.477L166.228 230.273H164.5L161.364 234.068H160.478V230.273H159.137V239ZM173.371 237.023V230.273H172.03V239H173.599L177.78 232.25V239H179.121V230.273H177.576L173.371 237.023ZM185.877 239H189.991C191.764 239 192.832 238 192.832 236.659C192.832 235.29 191.792 234.551 190.832 234.409C191.815 234.205 192.514 233.653 192.514 232.591C192.514 231.199 191.32 230.273 189.445 230.273H185.877V239ZM187.15 237.773V235.091H189.991C190.911 235.091 191.468 235.642 191.468 236.545C191.468 237.307 190.911 237.773 189.991 237.773H187.15ZM187.15 233.932V231.5H189.445C190.519 231.5 191.173 231.949 191.173 232.682C191.173 233.46 190.519 233.932 189.445 233.932H187.15ZM205.889 230.273H204.548V234.699C203.9 234.886 203.236 235 202.434 235C201.343 235 200.503 234.386 200.503 233.045V230.25H199.162V233.045C199.162 235.182 200.457 236.25 202.434 236.25C203.258 236.25 203.917 236.142 204.548 235.955V239H205.889V230.273ZM210.817 239.205C212.34 239.205 213.136 238.386 213.408 237.818H213.476V239H214.817V233.25C214.817 230.477 212.704 230.159 211.59 230.159C210.272 230.159 208.772 230.614 208.09 232.205L209.363 232.659C209.658 232.023 210.357 231.341 211.636 231.341C212.868 231.341 213.476 231.994 213.476 233.114V233.159C213.476 233.807 212.817 233.75 211.226 233.955C209.607 234.165 207.84 234.523 207.84 236.523C207.84 238.227 209.158 239.205 210.817 239.205ZM211.022 238C209.954 238 209.181 237.523 209.181 236.591C209.181 235.568 210.113 235.25 211.158 235.114C211.726 235.045 213.249 234.886 213.476 234.614V235.841C213.476 236.932 212.613 238 211.022 238ZM220.71 239.182C222.642 239.182 223.915 238 224.142 236.455H222.801C222.551 237.409 221.756 237.977 220.71 237.977C219.119 237.977 218.097 236.659 218.097 234.636C218.097 232.659 219.142 231.364 220.71 231.364C221.892 231.364 222.597 232.091 222.801 232.886H224.142C223.915 231.25 222.528 230.159 220.688 230.159C218.324 230.159 216.756 232.023 216.756 234.682C216.756 237.295 218.256 239.182 220.71 239.182ZM225.315 231.523H228.201V239H229.542V231.523H232.406V230.273H225.315V231.523ZM235.603 230.273H234.262V239H235.603V235.273H239.784V239H241.125V230.273H239.784V234.023H235.603V230.273ZM244.815 233.432V230.273H243.474V239H247.133C249.179 239 250.292 237.75 250.292 236.182C250.292 234.591 249.179 233.432 247.133 233.432H244.815ZM251.679 239H253.02V230.273H251.679V239ZM244.815 234.682H247.133C248.196 234.682 248.951 235.33 248.951 236.25C248.951 237.131 248.196 237.75 247.133 237.75H244.815V234.682ZM256.374 230.273H254.829L257.601 234.636L254.829 239H256.374L258.465 235.614L260.556 239H262.101L259.283 234.636L262.101 230.273H260.556L258.465 233.841L256.374 230.273ZM273.088 237.182L270.088 230.273H268.315V239H269.656V232.199L272.542 239H273.633L276.519 232.324V239H277.86V230.273H276.133L273.088 237.182ZM283.874 239.182C285.647 239.182 286.942 238.295 287.351 236.977L286.056 236.614C285.715 237.523 284.925 237.977 283.874 237.977C282.3 237.977 281.215 236.96 281.152 235.091H287.488V234.523C287.488 231.273 285.556 230.159 283.738 230.159C281.374 230.159 279.806 232.023 279.806 234.705C279.806 237.386 281.351 239.182 283.874 239.182ZM281.152 233.932C281.243 232.574 282.203 231.364 283.738 231.364C285.192 231.364 286.124 232.455 286.124 233.932H281.152ZM288.495 241.5H289.836V239H296.291V241.5H297.632V237.75H296.291V230.273H290.745L290.45 233.727C290.24 236.17 289.927 237.011 289.223 237.75H288.495V241.5ZM290.745 237.75C291.359 236.943 291.581 235.551 291.768 233.727L291.995 231.523H294.95V237.75H290.745ZM300.653 237.023V230.273H299.312V239H300.88L305.062 232.25V239H306.403V230.273H304.857L300.653 237.023ZM315.622 230.273H314.281V237.75H310.099V230.273H308.759V239H315.509V241.818H316.849V237.75H315.622V230.273ZM320.156 237.023V230.273H318.815V239H320.383L324.565 232.25V239H325.906V230.273H324.36L320.156 237.023ZM329.603 230.273H328.262V239H329.603V235.273H333.784V239H335.125V230.273H333.784V234.023H329.603V230.273ZM341.02 239.182C342.951 239.182 344.224 238 344.451 236.455H343.111C342.861 237.409 342.065 237.977 341.02 237.977C339.429 237.977 338.406 236.659 338.406 234.636C338.406 232.659 339.451 231.364 341.02 231.364C342.201 231.364 342.906 232.091 343.111 232.886H344.451C344.224 231.25 342.838 230.159 340.997 230.159C338.633 230.159 337.065 232.023 337.065 234.682C337.065 237.295 338.565 239.182 341.02 239.182ZM346.312 239H347.653V235.318H348.857L351.721 239H353.448L349.88 234.477L353.403 230.273H351.675L348.539 234.068H347.653V230.273H346.312V239ZM356.146 237.023V230.273H354.805V239H356.374L360.555 232.25V239H361.896V230.273H360.351L356.146 237.023ZM365.252 230.273H363.707L366.48 234.636L363.707 239H365.252L367.343 235.614L369.434 239H370.98L368.161 234.636L370.98 230.273H369.434L367.343 233.841L365.252 230.273ZM143.091 266.273C144.301 266.273 145.153 265.631 145.659 264.273L149.375 254.295L147.909 254.273L145.5 261.227H145.409L143 254.273H141.545L144.773 263.045L144.523 263.727C144.034 265.057 143.432 265.182 142.455 264.932L142.114 266.114C142.25 266.182 142.636 266.273 143.091 266.273ZM157.511 254.273H156.17V258.699C155.522 258.886 154.857 259 154.056 259C152.965 259 152.124 258.386 152.124 257.045V254.25H150.784V257.045C150.784 259.182 152.079 260.25 154.056 260.25C154.88 260.25 155.539 260.142 156.17 259.955V263H157.511V254.273ZM159.871 266.273H161.212V261.659H161.326C161.621 262.136 162.189 263.182 163.871 263.182C166.053 263.182 167.576 261.432 167.576 258.659C167.576 255.909 166.053 254.159 163.848 254.159C162.144 254.159 161.621 255.205 161.326 255.659H161.166V254.273H159.871V266.273ZM161.189 258.636C161.189 256.682 162.053 255.364 163.689 255.364C165.394 255.364 166.235 256.795 166.235 258.636C166.235 260.5 165.371 261.977 163.689 261.977C162.076 261.977 161.189 260.614 161.189 258.636ZM173.18 263.182C174.953 263.182 176.248 262.295 176.657 260.977L175.362 260.614C175.021 261.523 174.231 261.977 173.18 261.977C171.606 261.977 170.521 260.96 170.459 259.091H176.794V258.523C176.794 255.273 174.862 254.159 173.044 254.159C170.68 254.159 169.112 256.023 169.112 258.705C169.112 261.386 170.657 263.182 173.18 263.182ZM170.459 257.932C170.549 256.574 171.51 255.364 173.044 255.364C174.498 255.364 175.43 256.455 175.43 257.932H170.459ZM177.954 263H179.567L182.545 259.25H183.226V263H184.567V259.25H185.249L188.204 263H189.817L186.295 258.568L189.772 254.273H188.181L185.272 258H184.567V254.273H183.226V258H182.499L179.59 254.273H177.999L181.499 258.568L177.954 263ZM190.702 265.5H192.043V263H198.497V265.5H199.838V261.75H198.497V254.273H192.952L192.656 257.727C192.446 260.17 192.134 261.011 191.429 261.75H190.702V265.5ZM192.952 261.75C193.565 260.943 193.787 259.551 193.974 257.727L194.202 255.523H197.156V261.75H192.952ZM205.177 263.182C206.95 263.182 208.245 262.295 208.654 260.977L207.359 260.614C207.018 261.523 206.228 261.977 205.177 261.977C203.603 261.977 202.518 260.96 202.455 259.091H208.791V258.523C208.791 255.273 206.859 254.159 205.041 254.159C202.677 254.159 201.109 256.023 201.109 258.705C201.109 261.386 202.654 263.182 205.177 263.182ZM202.455 257.932C202.546 256.574 203.507 255.364 205.041 255.364C206.495 255.364 207.427 256.455 207.427 257.932H202.455ZM212.071 254.273H210.73V263H212.071V259.273H216.253V263H217.594V254.273H216.253V258.023H212.071V254.273ZM221.284 261.023V254.273H219.943V263H221.511L225.693 256.25V263H227.034V254.273H225.488L221.284 261.023ZM234.64 263H235.912V254.273H232.322C230.441 254.273 229.299 255.256 229.299 256.864C229.299 258.062 229.901 258.915 230.952 259.273L228.822 263H230.276L232.299 259.455H234.64V263ZM234.64 258.205H232.162C231.214 258.205 230.64 257.699 230.64 256.864C230.64 256.017 231.276 255.5 232.322 255.5H234.64V258.205ZM239.274 254.273H237.729L240.501 258.636L237.729 263H239.274L241.365 259.614L243.456 263H245.001L242.183 258.636L245.001 254.273H243.456L241.365 257.841L239.274 254.273ZM247.792 263.091C248.355 263.091 248.815 262.631 248.815 262.068C248.815 261.506 248.355 261.045 247.792 261.045C247.23 261.045 246.769 261.506 246.769 262.068C246.769 262.631 247.23 263.091 247.792 263.091ZM255.703 251.364V263H257.066L263.407 253.864H263.521V263H264.93V251.364H263.566L257.203 260.523H257.089V251.364H255.703ZM272.241 261.182L269.241 254.273H267.468V263H268.809V256.199L271.695 263H272.786L275.672 256.324V263H277.013V254.273H275.286L272.241 261.182ZM280.709 261.023V254.273H279.368V263H280.936L285.118 256.25V263H286.459V254.273H284.913L280.709 261.023ZM299.692 251C299.266 251.358 298.63 251.358 297.738 251.352C297.448 251.352 297.13 251.352 296.783 251.364C294.124 251.432 292.806 253.455 292.806 257.341V258.273C292.806 261.5 294.374 263.182 296.715 263.182C299.05 263.182 300.601 261.489 300.601 258.75C300.601 256 299.027 254.545 296.988 254.545C295.789 254.545 294.669 255.045 294.078 256.136H293.965C294.147 253.886 294.988 252.682 296.806 252.614C298.419 252.545 299.578 252.591 300.374 251.818L299.692 251ZM296.715 261.977C295.124 261.977 294.147 260.705 294.147 258.75C294.175 256.841 295.135 255.75 296.692 255.75C298.289 255.75 299.26 256.841 299.26 258.75C299.26 260.716 298.294 261.977 296.715 261.977ZM303.893 257.432V254.273H302.552V263H306.211C308.257 263 309.37 261.75 309.37 260.182C309.37 258.591 308.257 257.432 306.211 257.432H303.893ZM310.757 263H312.098V254.273H310.757V263ZM303.893 258.682H306.211C307.274 258.682 308.03 259.33 308.03 260.25C308.03 261.131 307.274 261.75 306.211 261.75H303.893V258.682ZM314.452 263H318.566C320.339 263 321.407 262 321.407 260.659C321.407 259.29 320.367 258.551 319.407 258.409C320.39 258.205 321.089 257.653 321.089 256.591C321.089 255.199 319.895 254.273 318.02 254.273H314.452V263ZM315.725 261.773V259.091H318.566C319.486 259.091 320.043 259.642 320.043 260.545C320.043 261.307 319.486 261.773 318.566 261.773H315.725ZM315.725 257.932V255.5H318.02C319.094 255.5 319.748 255.949 319.748 256.682C319.748 257.46 319.094 257.932 318.02 257.932H315.725ZM325.905 263.205C327.428 263.205 328.223 262.386 328.496 261.818H328.564V263H329.905V257.25C329.905 254.477 327.791 254.159 326.678 254.159C325.359 254.159 323.859 254.614 323.178 256.205L324.45 256.659C324.746 256.023 325.445 255.341 326.723 255.341C327.956 255.341 328.564 255.994 328.564 257.114V257.159C328.564 257.807 327.905 257.75 326.314 257.955C324.695 258.165 322.928 258.523 322.928 260.523C322.928 262.227 324.246 263.205 325.905 263.205ZM326.109 262C325.041 262 324.268 261.523 324.268 260.591C324.268 259.568 325.2 259.25 326.246 259.114C326.814 259.045 328.337 258.886 328.564 258.614V259.841C328.564 260.932 327.7 262 326.109 262ZM332.957 254.273H331.616V263H332.957V259.341H335.195C335.434 261.676 336.951 263.182 339.116 263.182C341.48 263.182 343.07 261.386 343.07 258.682C343.07 255.955 341.48 254.159 339.116 254.159C336.928 254.159 335.4 255.699 335.19 258.091H332.957V254.273ZM339.116 261.977C337.32 261.977 336.502 260.432 336.502 258.682C336.502 256.932 337.32 255.364 339.116 255.364C340.911 255.364 341.73 256.932 341.73 258.682C341.73 260.432 340.911 261.977 339.116 261.977ZM344.012 255.523H346.898V263H348.239V255.523H351.103V254.273H344.012V255.523ZM357.359 263H358.699V255.523H362.881V263H364.222V254.273H357.359V263ZM370.116 263.182C372.48 263.182 374.071 261.386 374.071 258.682C374.071 255.955 372.48 254.159 370.116 254.159C367.753 254.159 366.162 255.955 366.162 258.682C366.162 261.386 367.753 263.182 370.116 263.182ZM370.116 261.977C368.321 261.977 367.503 260.432 367.503 258.682C367.503 256.932 368.321 255.364 370.116 255.364C371.912 255.364 372.73 256.932 372.73 258.682C372.73 260.432 371.912 261.977 370.116 261.977ZM375.245 263H375.7C377.632 263 378.188 261.5 378.313 258.636L378.45 255.523H381.654V263H382.995V254.273H377.177L377.018 258.136C376.904 261.068 376.609 261.75 375.563 261.75H375.245V263ZM386.696 261.023V254.273H385.355V263H386.924L391.105 256.25V263H392.446V254.273H390.901L386.696 261.023ZM394.802 263H396.143V259.318H397.348L400.211 263H401.939L398.37 258.477L401.893 254.273H400.166L397.03 258.068H396.143V254.273H394.802V263ZM402.523 263H402.978C404.91 263 405.466 261.5 405.591 258.636L405.728 255.523H408.932V263H410.273V254.273H404.455L404.296 258.136C404.182 261.068 403.887 261.75 402.841 261.75H402.523V263ZM413.974 261.023V254.273H412.634V263H414.202L418.384 256.25V263H419.724V254.273H418.179L413.974 261.023ZM423.421 254.273H422.08V263H423.421V259.273H427.603V263H428.944V254.273H427.603V258.023H423.421V254.273ZM432.634 261.023V254.273H431.293V263H432.861L437.043 256.25V263H438.384V254.273H436.838L432.634 261.023Z" fill="#6E7381"/>
<path d="M143.256 187.128C142.573 187.128 142.232 186.776 142.232 186.072V176.776C142.232 176.072 142.584 175.72 143.288 175.72H148.936C149.523 175.72 149.816 176.003 149.816 176.568C149.816 177.144 149.523 177.432 148.936 177.432H144.28V186.072C144.28 186.776 143.939 187.128 143.256 187.128ZM149.118 189.208C148.542 189.208 148.254 188.909 148.254 188.312V186.36C148.254 185.741 148.563 185.432 149.182 185.432C149.48 184.931 149.694 184.371 149.822 183.752C149.95 183.133 150.014 182.349 150.014 181.4V180.296C150.014 179.549 150.387 179.176 151.134 179.176H154.99C155.736 179.176 156.11 179.549 156.11 180.296V185.432H156.462C157.08 185.432 157.39 185.741 157.39 186.36V188.312C157.39 188.909 157.107 189.208 156.542 189.208C155.976 189.208 155.694 188.909 155.694 188.312V187H149.95V188.312C149.95 188.909 149.672 189.208 149.118 189.208ZM150.958 185.432H154.238V180.712H151.726V181.864C151.726 182.536 151.656 183.187 151.518 183.816C151.39 184.445 151.203 184.984 150.958 185.432ZM162.636 187.16C161.751 187.16 160.988 186.995 160.348 186.664C159.708 186.333 159.212 185.864 158.86 185.256C158.519 184.648 158.348 183.928 158.348 183.096C158.348 182.285 158.513 181.576 158.844 180.968C159.185 180.36 159.649 179.885 160.236 179.544C160.833 179.192 161.511 179.016 162.268 179.016C163.377 179.016 164.252 179.368 164.892 180.072C165.543 180.776 165.868 181.736 165.868 182.952C165.868 183.347 165.612 183.544 165.1 183.544H160.268C160.417 184.941 161.217 185.64 162.668 185.64C162.945 185.64 163.255 185.608 163.596 185.544C163.948 185.469 164.279 185.347 164.588 185.176C164.865 185.016 165.1 184.968 165.292 185.032C165.484 185.085 165.617 185.197 165.692 185.368C165.777 185.539 165.788 185.731 165.724 185.944C165.671 186.147 165.521 186.323 165.276 186.472C164.903 186.707 164.471 186.883 163.98 187C163.5 187.107 163.052 187.16 162.636 187.16ZM162.348 180.376C161.761 180.376 161.287 180.557 160.924 180.92C160.561 181.283 160.343 181.773 160.268 182.392H164.204C164.161 181.741 163.98 181.245 163.66 180.904C163.351 180.552 162.913 180.376 162.348 180.376ZM173.991 187.16C173.521 187.16 173.047 187.101 172.567 186.984C172.097 186.856 171.703 186.696 171.383 186.504C171.169 186.376 171.041 186.221 170.999 186.04C170.967 185.848 170.999 185.672 171.095 185.512C171.191 185.352 171.319 185.24 171.479 185.176C171.649 185.101 171.825 185.117 172.007 185.224C172.284 185.395 172.583 185.523 172.903 185.608C173.223 185.693 173.532 185.736 173.831 185.736C174.481 185.736 175.015 185.571 175.431 185.24C175.847 184.899 176.113 184.408 176.231 183.768H173.287C172.721 183.768 172.439 183.528 172.439 183.048C172.439 182.568 172.721 182.328 173.287 182.328H176.215C176.108 181.72 175.847 181.256 175.431 180.936C175.025 180.605 174.492 180.44 173.831 180.44C173.532 180.44 173.223 180.483 172.903 180.568C172.583 180.653 172.279 180.781 171.991 180.952C171.809 181.059 171.639 181.08 171.479 181.016C171.319 180.952 171.196 180.845 171.111 180.696C171.025 180.536 170.999 180.365 171.031 180.184C171.073 179.992 171.201 179.827 171.415 179.688C171.724 179.496 172.108 179.336 172.567 179.208C173.036 179.08 173.505 179.016 173.975 179.016C175.255 179.016 176.268 179.379 177.015 180.104C177.761 180.819 178.135 181.8 178.135 183.048C178.135 183.891 177.964 184.621 177.623 185.24C177.292 185.848 176.817 186.323 176.199 186.664C175.58 186.995 174.844 187.16 173.991 187.16ZM182.542 187.128C181.87 187.128 181.534 186.787 181.534 186.104V180.744H179.582C179.006 180.744 178.718 180.483 178.718 179.96C178.718 179.437 179.006 179.176 179.582 179.176H185.486C186.062 179.176 186.35 179.437 186.35 179.96C186.35 180.483 186.062 180.744 185.486 180.744H183.534V186.104C183.534 186.787 183.203 187.128 182.542 187.128ZM190.854 187.16C190.044 187.16 189.34 186.995 188.742 186.664C188.145 186.333 187.681 185.864 187.35 185.256C187.02 184.637 186.854 183.912 186.854 183.08C186.854 182.248 187.02 181.528 187.35 180.92C187.681 180.312 188.145 179.843 188.742 179.512C189.34 179.181 190.044 179.016 190.854 179.016C191.665 179.016 192.369 179.181 192.966 179.512C193.564 179.843 194.028 180.312 194.358 180.92C194.689 181.528 194.854 182.248 194.854 183.08C194.854 183.912 194.689 184.637 194.358 185.256C194.028 185.864 193.564 186.333 192.966 186.664C192.369 186.995 191.665 187.16 190.854 187.16ZM190.854 185.64C191.452 185.64 191.932 185.427 192.294 185C192.657 184.563 192.838 183.923 192.838 183.08C192.838 182.227 192.657 181.592 192.294 181.176C191.932 180.749 191.452 180.536 190.854 180.536C190.257 180.536 189.777 180.749 189.414 181.176C189.052 181.592 188.87 182.227 188.87 183.08C188.87 183.923 189.052 184.563 189.414 185C189.777 185.427 190.257 185.64 190.854 185.64ZM201.86 190.008C201.198 190.008 200.868 189.672 200.868 189V180.056C200.868 179.384 201.193 179.048 201.844 179.048C202.505 179.048 202.836 179.384 202.836 180.056V180.392C203.06 179.976 203.396 179.645 203.844 179.4C204.292 179.144 204.804 179.016 205.38 179.016C206.062 179.016 206.66 179.181 207.172 179.512C207.694 179.843 208.1 180.312 208.388 180.92C208.676 181.517 208.82 182.237 208.82 183.08C208.82 183.912 208.676 184.637 208.388 185.256C208.1 185.864 207.7 186.333 207.188 186.664C206.676 186.995 206.073 187.16 205.38 187.16C204.825 187.16 204.324 187.043 203.876 186.808C203.438 186.563 203.102 186.237 202.868 185.832V189C202.868 189.672 202.532 190.008 201.86 190.008ZM204.82 185.64C205.417 185.64 205.897 185.427 206.26 185C206.622 184.563 206.804 183.923 206.804 183.08C206.804 182.227 206.622 181.592 206.26 181.176C205.897 180.749 205.417 180.536 204.82 180.536C204.222 180.536 203.742 180.749 203.38 181.176C203.017 181.592 202.836 182.227 202.836 183.08C202.836 183.923 203.017 184.563 203.38 185C203.742 185.427 204.222 185.64 204.82 185.64ZM213.172 187.16C212.606 187.16 212.1 187.053 211.652 186.84C211.214 186.616 210.868 186.317 210.612 185.944C210.366 185.571 210.244 185.149 210.244 184.68C210.244 184.104 210.393 183.651 210.692 183.32C210.99 182.979 211.476 182.733 212.148 182.584C212.82 182.435 213.721 182.36 214.852 182.36H215.412V182.024C215.412 181.491 215.294 181.107 215.06 180.872C214.825 180.637 214.43 180.52 213.876 180.52C213.566 180.52 213.23 180.557 212.868 180.632C212.516 180.707 212.142 180.835 211.748 181.016C211.492 181.133 211.278 181.149 211.108 181.064C210.937 180.968 210.82 180.824 210.756 180.632C210.702 180.429 210.713 180.227 210.788 180.024C210.873 179.821 211.038 179.672 211.284 179.576C211.774 179.373 212.244 179.229 212.692 179.144C213.15 179.059 213.566 179.016 213.94 179.016C215.081 179.016 215.929 179.283 216.484 179.816C217.038 180.339 217.316 181.155 217.316 182.264V186.104C217.316 186.787 217.006 187.128 216.388 187.128C215.758 187.128 215.444 186.787 215.444 186.104V185.752C215.262 186.189 214.974 186.536 214.58 186.792C214.185 187.037 213.716 187.16 213.172 187.16ZM213.588 185.784C214.11 185.784 214.542 185.603 214.884 185.24C215.236 184.877 215.412 184.419 215.412 183.864V183.512H214.868C213.865 183.512 213.166 183.592 212.772 183.752C212.388 183.901 212.196 184.179 212.196 184.584C212.196 184.936 212.318 185.224 212.564 185.448C212.809 185.672 213.15 185.784 213.588 185.784ZM223.113 187.16C221.854 187.16 220.857 186.776 220.121 186.008C219.395 185.24 219.033 184.109 219.033 182.616V181.448C219.033 179.869 219.385 178.669 220.089 177.848C220.803 177.016 221.849 176.435 223.225 176.104L225.305 175.592C225.582 175.517 225.817 175.533 226.009 175.64C226.201 175.736 226.323 175.917 226.377 176.184C226.43 176.451 226.387 176.68 226.249 176.872C226.11 177.053 225.897 177.176 225.609 177.24L223.369 177.768C222.569 177.96 221.961 178.317 221.545 178.84C221.129 179.352 220.921 180.003 220.921 180.792V180.872C221.155 180.392 221.502 180.003 221.961 179.704C222.43 179.405 223.001 179.256 223.673 179.256C224.323 179.256 224.899 179.416 225.401 179.736C225.913 180.045 226.313 180.488 226.601 181.064C226.889 181.64 227.033 182.328 227.033 183.128C227.033 183.949 226.867 184.664 226.536 185.272C226.217 185.869 225.763 186.333 225.177 186.664C224.59 186.995 223.902 187.16 223.113 187.16ZM223.033 185.64C223.662 185.64 224.147 185.432 224.489 185.016C224.841 184.6 225.017 183.997 225.017 183.208C225.017 182.429 224.841 181.832 224.489 181.416C224.147 180.989 223.662 180.776 223.033 180.776C222.414 180.776 221.929 180.984 221.577 181.4C221.225 181.816 221.049 182.392 221.049 183.128C221.049 183.949 221.219 184.573 221.561 185C221.913 185.427 222.403 185.64 223.033 185.64ZM232.37 187.16C231.559 187.16 230.855 186.995 230.258 186.664C229.661 186.333 229.197 185.864 228.866 185.256C228.535 184.637 228.37 183.912 228.37 183.08C228.37 182.248 228.535 181.528 228.866 180.92C229.197 180.312 229.661 179.843 230.258 179.512C230.855 179.181 231.559 179.016 232.37 179.016C233.181 179.016 233.885 179.181 234.482 179.512C235.079 179.843 235.543 180.312 235.874 180.92C236.205 181.528 236.37 182.248 236.37 183.08C236.37 183.912 236.205 184.637 235.874 185.256C235.543 185.864 235.079 186.333 234.482 186.664C233.885 186.995 233.181 187.16 232.37 187.16ZM232.37 185.64C232.967 185.64 233.447 185.427 233.81 185C234.173 184.563 234.354 183.923 234.354 183.08C234.354 182.227 234.173 181.592 233.81 181.176C233.447 180.749 232.967 180.536 232.37 180.536C231.773 180.536 231.293 180.749 230.93 181.176C230.567 181.592 230.386 182.227 230.386 183.08C230.386 183.923 230.567 184.563 230.93 185C231.293 185.427 231.773 185.64 232.37 185.64ZM240.78 187.128C240.108 187.128 239.772 186.787 239.772 186.104V180.744H237.82C237.244 180.744 236.956 180.483 236.956 179.96C236.956 179.437 237.244 179.176 237.82 179.176H243.724C244.3 179.176 244.588 179.437 244.588 179.96C244.588 180.483 244.3 180.744 243.724 180.744H241.772V186.104C241.772 186.787 241.441 187.128 240.78 187.128ZM248.178 187.16C247.613 187.16 247.106 187.053 246.658 186.84C246.221 186.616 245.874 186.317 245.618 185.944C245.373 185.571 245.25 185.149 245.25 184.68C245.25 184.104 245.399 183.651 245.698 183.32C245.997 182.979 246.482 182.733 247.154 182.584C247.826 182.435 248.727 182.36 249.858 182.36H250.418V182.024C250.418 181.491 250.301 181.107 250.066 180.872C249.831 180.637 249.437 180.52 248.882 180.52C248.573 180.52 248.237 180.557 247.874 180.632C247.522 180.707 247.149 180.835 246.754 181.016C246.498 181.133 246.285 181.149 246.114 181.064C245.943 180.968 245.826 180.824 245.762 180.632C245.709 180.429 245.719 180.227 245.794 180.024C245.879 179.821 246.045 179.672 246.29 179.576C246.781 179.373 247.25 179.229 247.698 179.144C248.157 179.059 248.573 179.016 248.946 179.016C250.087 179.016 250.935 179.283 251.49 179.816C252.045 180.339 252.322 181.155 252.322 182.264V186.104C252.322 186.787 252.013 187.128 251.394 187.128C250.765 187.128 250.45 186.787 250.45 186.104V185.752C250.269 186.189 249.981 186.536 249.586 186.792C249.191 187.037 248.722 187.16 248.178 187.16ZM248.594 185.784C249.117 185.784 249.549 185.603 249.89 185.24C250.242 184.877 250.418 184.419 250.418 183.864V183.512H249.874C248.871 183.512 248.173 183.592 247.778 183.752C247.394 183.901 247.202 184.179 247.202 184.584C247.202 184.936 247.325 185.224 247.57 185.448C247.815 185.672 248.157 185.784 248.594 185.784ZM258.327 187.16C257.441 187.16 256.679 186.995 256.039 186.664C255.399 186.333 254.903 185.864 254.551 185.256C254.209 184.648 254.039 183.928 254.039 183.096C254.039 182.285 254.204 181.576 254.535 180.968C254.876 180.36 255.34 179.885 255.927 179.544C256.524 179.192 257.201 179.016 257.959 179.016C259.068 179.016 259.943 179.368 260.583 180.072C261.233 180.776 261.559 181.736 261.559 182.952C261.559 183.347 261.303 183.544 260.791 183.544H255.959C256.108 184.941 256.908 185.64 258.359 185.64C258.636 185.64 258.945 185.608 259.287 185.544C259.639 185.469 259.969 185.347 260.279 185.176C260.556 185.016 260.791 184.968 260.983 185.032C261.175 185.085 261.308 185.197 261.383 185.368C261.468 185.539 261.479 185.731 261.415 185.944C261.361 186.147 261.212 186.323 260.967 186.472C260.593 186.707 260.161 186.883 259.671 187C259.191 187.107 258.743 187.16 258.327 187.16ZM258.039 180.376C257.452 180.376 256.977 180.557 256.615 180.92C256.252 181.283 256.033 181.773 255.959 182.392H259.895C259.852 181.741 259.671 181.245 259.351 180.904C259.041 180.552 258.604 180.376 258.039 180.376ZM265.901 187.128C265.229 187.128 264.893 186.787 264.893 186.104V180.744H262.941C262.365 180.744 262.077 180.483 262.077 179.96C262.077 179.437 262.365 179.176 262.941 179.176H268.845C269.421 179.176 269.709 179.437 269.709 179.96C269.709 180.483 269.421 180.744 268.845 180.744H266.893V186.104C266.893 186.787 266.563 187.128 265.901 187.128ZM273.14 183.736C272.937 183.736 272.777 183.672 272.66 183.544C272.553 183.405 272.5 183.224 272.5 183C272.5 182.509 272.591 182.051 272.772 181.624C272.964 181.197 273.284 180.733 273.732 180.232C274.073 179.859 274.308 179.539 274.436 179.272C274.575 179.005 274.644 178.723 274.644 178.424C274.644 178.072 274.516 177.795 274.26 177.592C274.004 177.389 273.641 177.288 273.172 177.288C272.745 177.288 272.356 177.347 272.004 177.464C271.663 177.571 271.316 177.725 270.964 177.928C270.676 178.099 270.42 178.157 270.196 178.104C269.983 178.04 269.828 177.912 269.732 177.72C269.636 177.528 269.62 177.315 269.684 177.08C269.748 176.845 269.919 176.637 270.196 176.456C270.633 176.168 271.135 175.949 271.7 175.8C272.265 175.64 272.799 175.56 273.3 175.56C273.972 175.56 274.559 175.672 275.06 175.896C275.572 176.12 275.967 176.429 276.244 176.824C276.532 177.219 276.676 177.683 276.676 178.216C276.676 178.707 276.564 179.165 276.34 179.592C276.127 180.019 275.743 180.483 275.188 180.984C274.687 181.443 274.34 181.837 274.148 182.168C273.956 182.499 273.833 182.851 273.78 183.224C273.769 183.373 273.705 183.496 273.588 183.592C273.481 183.688 273.332 183.736 273.14 183.736ZM273.108 187.08C272.745 187.08 272.452 186.968 272.228 186.744C272.015 186.52 271.908 186.232 271.908 185.88C271.908 185.539 272.015 185.261 272.228 185.048C272.452 184.824 272.745 184.712 273.108 184.712C273.481 184.712 273.769 184.824 273.972 185.048C274.185 185.261 274.292 185.539 274.292 185.88C274.292 186.232 274.185 186.52 273.972 186.744C273.769 186.968 273.481 187.08 273.108 187.08Z" fill="#1C1C1C"/>
<circle cx="87" cy="207" r="36" fill="#FFA945"/>
<path fill-rule="evenodd" clip-rule="evenodd" d="M76.3332 206.333V211.667C76.3332 212.773 77.2265 213.667 78.3332 213.667C79.4398 213.667 80.3332 212.773 80.3332 211.667V206.333C80.3332 205.227 79.4398 204.333 78.3332 204.333C77.2265 204.333 76.3332 205.227 76.3332 206.333ZM84.3332 206.333V211.667C84.3332 212.773 85.2265 213.667 86.3332 213.667C87.4398 213.667 88.3332 212.773 88.3332 211.667V206.333C88.3332 205.227 87.4398 204.333 86.3332 204.333C85.2265 204.333 84.3332 205.227 84.3332 206.333ZM75.6665 220.333H96.9998C98.1065 220.333 98.9998 219.44 98.9998 218.333C98.9998 217.227 98.1065 216.333 96.9998 216.333H75.6665C74.5598 216.333 73.6665 217.227 73.6665 218.333C73.6665 219.44 74.5598 220.333 75.6665 220.333ZM92.3332 206.333V211.667C92.3332 212.773 93.2265 213.667 94.3332 213.667C95.4398 213.667 96.3332 212.773 96.3332 211.667V206.333C96.3332 205.227 95.4398 204.333 94.3332 204.333C93.2265 204.333 92.3332 205.227 92.3332 206.333ZM85.0932 192.987L74.5598 198.533C74.0132 198.813 73.6665 199.387 73.6665 200C73.6665 200.92 74.4132 201.667 75.3332 201.667H97.3465C98.2532 201.667 98.9998 200.92 98.9998 200C98.9998 199.387 98.6532 198.813 98.1065 198.533L87.5732 192.987C86.7998 192.573 85.8665 192.573 85.0932 192.987Z" fill="white"/>
<defs>
<filter id="filter0_d_780_3555" x="0" y="0" width="514" height="322" filterUnits="userSpaceOnUse" color-interpolation-filters="sRGB">
<feFlood flood-opacity="0" result="BackgroundImageFix"/>
<feColorMatrix in="SourceAlpha" type="matrix" values="0 0 0 0 0 0 0 0 0 0 0 0 0 0 0 0 0 0 127 0" result="hardAlpha"/>
<feOffset dy="2"/>
<feGaussianBlur stdDeviation="5"/>
<feColorMatrix type="matrix" values="0 0 0 0 0.296042 0 0 0 0 0.354433 0 0 0 0 0.408333 0 0 0 0.1 0"/>
<feBlend mode="normal" in2="BackgroundImageFix" result="effect1_dropShadow_780_3555"/>
<feBlend mode="normal" in="SourceGraphic" in2="effect1_dropShadow_780_3555" result="shape"/>
</filter>
</defs>
</svg>
