<svg width="20" height="20" viewBox="0 0 20 20" fill="none" xmlns="http://www.w3.org/2000/svg">
<path fill-rule="evenodd" clip-rule="evenodd" d="M14.2764 12.6636H13.4268L13.1257 12.3732C14.4162 10.8677 15.083 8.8136 14.7173 6.6305C14.2119 3.64083 11.7169 1.2534 8.70575 0.887757C4.15673 0.328538 0.328233 4.15703 0.887452 8.70606C1.25309 11.7172 3.64053 14.2122 6.63019 14.7177C8.81329 15.0833 10.8673 14.4165 12.3729 13.126L12.6633 13.4272V14.2767L17.2338 18.8473C17.6748 19.2882 18.3953 19.2882 18.8362 18.8473C19.2771 18.4063 19.2771 17.6858 18.8362 17.2449L14.2764 12.6636ZM7.82389 12.6636C5.1461 12.6636 2.9845 10.502 2.9845 7.8242C2.9845 5.14641 5.1461 2.98481 7.82389 2.98481C10.5017 2.98481 12.6633 5.14641 12.6633 7.8242C12.6633 10.502 10.5017 12.6636 7.82389 12.6636Z" fill="#A3A3A4"/>
</svg>
