<svg width="188" height="18" viewBox="0 0 188 18" fill="none" xmlns="http://www.w3.org/2000/svg">
<path d="M24.9716 5.27273H23.9148L21.733 6.72159V7.79545L23.8636 6.38068H23.9148V14H24.9716V5.27273ZM30.2599 5.15341C28.4872 5.1321 27.3452 6.46591 27.3452 8.06818C27.3452 9.75568 28.5895 10.9659 30.0895 10.9659C30.9929 10.9659 31.7599 10.5227 32.2372 9.80682H32.3054C32.3054 11.9545 31.4702 13.1818 30.1236 13.1818C29.2031 13.1818 28.6406 12.6023 28.4531 11.8011H27.4134C27.6179 13.1818 28.6577 14.1193 30.1236 14.1193C32.0838 14.1193 33.294 12.3807 33.294 9.27841C33.294 6.07386 31.6918 5.17045 30.2599 5.15341ZM30.2599 6.09091C31.3509 6.09091 32.152 7.02841 32.152 8.05114C32.152 9.09091 31.2997 10.0284 30.2259 10.0284C29.152 10.0284 28.3679 9.15909 28.3679 8.06818C28.3679 6.97727 29.1861 6.09091 30.2599 6.09091ZM38.0721 4.86364H37.1516L34.3391 15.3125H35.2596L38.0721 4.86364ZM42.0938 14.1193C44.0199 14.1193 45.1278 12.4872 45.1278 9.63636C45.1278 6.80682 44.0028 5.15341 42.0938 5.15341C40.1847 5.15341 39.0597 6.80682 39.0597 9.63636C39.0597 12.4872 40.1676 14.1193 42.0938 14.1193ZM42.0938 13.1818C40.8239 13.1818 40.0824 11.9077 40.0824 9.63636C40.0824 7.36932 40.8324 6.07386 42.0938 6.07386C43.3551 6.07386 44.1051 7.36932 44.1051 9.63636C44.1051 11.9077 43.3636 13.1818 42.0938 13.1818ZM49.4744 14.1193C51.1364 14.1193 52.3551 12.892 52.3551 11.2216C52.3551 9.52983 51.179 8.28977 49.5767 8.28977C48.9886 8.28977 48.4176 8.49858 48.0597 8.78409H48.0085L48.3153 6.21023H51.9631V5.27273H47.429L46.9006 9.56818L47.8892 9.6875C48.2514 9.42756 48.8693 9.24006 49.4062 9.24432C50.5185 9.25284 51.3324 10.0966 51.3324 11.2386C51.3324 12.3594 50.5483 13.1818 49.4744 13.1818C48.5795 13.1818 47.8679 12.6065 47.7869 11.8182H46.7642C46.8281 13.1477 47.9744 14.1193 49.4744 14.1193ZM57.1502 4.86364H56.2298L53.4173 15.3125H54.3377L57.1502 4.86364ZM58.3253 14H63.831V13.0625H59.7741V12.9943L61.7344 10.8977C63.2344 9.29119 63.6776 8.54119 63.6776 7.57386C63.6776 6.22727 62.5866 5.15341 61.0526 5.15341C59.5227 5.15341 58.3594 6.19318 58.3594 7.72727H59.3651C59.3651 6.73438 60.0085 6.07386 61.0185 6.07386C61.9645 6.07386 62.6889 6.65341 62.6889 7.57386C62.6889 8.37926 62.2159 8.97585 61.206 10.0795L58.3253 13.233V14ZM68.4375 14.1193C70.3636 14.1193 71.4716 12.4872 71.4716 9.63636C71.4716 6.80682 70.3466 5.15341 68.4375 5.15341C66.5284 5.15341 65.4034 6.80682 65.4034 9.63636C65.4034 12.4872 66.5114 14.1193 68.4375 14.1193ZM68.4375 13.1818C67.1676 13.1818 66.4261 11.9077 66.4261 9.63636C66.4261 7.36932 67.1761 6.07386 68.4375 6.07386C69.6989 6.07386 70.4489 7.36932 70.4489 9.63636C70.4489 11.9077 69.7074 13.1818 68.4375 13.1818ZM73.0909 14H78.5966V13.0625H74.5398V12.9943L76.5 10.8977C78 9.29119 78.4432 8.54119 78.4432 7.57386C78.4432 6.22727 77.3523 5.15341 75.8182 5.15341C74.2884 5.15341 73.125 6.19318 73.125 7.72727H74.1307C74.1307 6.73438 74.7741 6.07386 75.7841 6.07386C76.7301 6.07386 77.4545 6.65341 77.4545 7.57386C77.4545 8.37926 76.9815 8.97585 75.9716 10.0795L73.0909 13.233V14ZM83.4247 5.27273H82.3679L80.1861 6.72159V7.79545L82.3168 6.38068H82.3679V14H83.4247V5.27273Z" fill="#6E7381"/>
<path d="M124.903 14H130.409V13.0625H126.352V12.9943L128.312 10.8977C129.812 9.29119 130.256 8.54119 130.256 7.57386C130.256 6.22727 129.165 5.15341 127.631 5.15341C126.101 5.15341 124.938 6.19318 124.938 7.72727H125.943C125.943 6.73438 126.587 6.07386 127.597 6.07386C128.543 6.07386 129.267 6.65341 129.267 7.57386C129.267 8.37926 128.794 8.97585 127.784 10.0795L124.903 13.233V14ZM134.947 5.15341C133.175 5.1321 132.033 6.46591 132.033 8.06818C132.033 9.75568 133.277 10.9659 134.777 10.9659C135.68 10.9659 136.447 10.5227 136.925 9.80682H136.993C136.993 11.9545 136.158 13.1818 134.811 13.1818C133.891 13.1818 133.328 12.6023 133.141 11.8011H132.101C132.305 13.1818 133.345 14.1193 134.811 14.1193C136.771 14.1193 137.982 12.3807 137.982 9.27841C137.982 6.07386 136.379 5.17045 134.947 5.15341ZM134.947 6.09091C136.038 6.09091 136.839 7.02841 136.839 8.05114C136.839 9.09091 135.987 10.0284 134.913 10.0284C133.839 10.0284 133.055 9.15909 133.055 8.06818C133.055 6.97727 133.874 6.09091 134.947 6.09091ZM142.725 5.27273H141.669L139.487 6.72159V7.79545L141.618 6.38068H141.669V14H142.725V5.27273ZM145.508 14H146.616L150.502 6.26136V5.27273H144.912V6.21023H149.412V6.27841L145.508 14ZM160.835 7.45455H159.744L157.938 12.6705H157.869L156.062 7.45455H154.972L157.392 14H158.415L160.835 7.45455ZM162.163 14H163.168V7.45455H162.163V14ZM162.674 6.36364C163.066 6.36364 163.39 6.05682 163.39 5.68182C163.39 5.30682 163.066 5 162.674 5C162.282 5 161.958 5.30682 161.958 5.68182C161.958 6.05682 162.282 6.36364 162.674 6.36364ZM167.755 14.1364C169.084 14.1364 170.056 13.4716 170.363 12.483L169.391 12.2102C169.135 12.892 168.543 13.233 167.755 13.233C166.574 13.233 165.76 12.4702 165.713 11.0682H170.465V10.642C170.465 8.20455 169.016 7.36932 167.652 7.36932C165.88 7.36932 164.703 8.76705 164.703 10.7784C164.703 12.7898 165.863 14.1364 167.755 14.1364ZM165.713 10.1989C165.782 9.1804 166.502 8.27273 167.652 8.27273C168.743 8.27273 169.442 9.09091 169.442 10.1989H165.713ZM173.478 14H174.466L175.898 8.97159H176L177.432 14H178.421L180.415 7.45455H179.358L177.944 12.4489H177.875L176.495 7.45455H175.421L174.023 12.4659H173.955L172.54 7.45455H171.483L173.478 14ZM186.381 8.92045C186.066 7.99148 185.358 7.36932 184.063 7.36932C182.682 7.36932 181.659 8.15341 181.659 9.26136C181.659 10.1648 182.196 10.7699 183.398 11.0511L184.489 11.3068C185.15 11.4602 185.461 11.7756 185.461 12.2273C185.461 12.7898 184.864 13.25 183.926 13.25C183.104 13.25 182.588 12.8963 182.409 12.1932L181.455 12.4318C181.689 13.544 182.605 14.1364 183.944 14.1364C185.465 14.1364 186.5 13.3054 186.5 12.1761C186.5 11.2642 185.929 10.6889 184.762 10.4034L183.79 10.1648C183.015 9.97301 182.665 9.71307 182.665 9.21023C182.665 8.64773 183.262 8.23864 184.063 8.23864C184.941 8.23864 185.303 8.72443 185.478 9.17614L186.381 8.92045Z" fill="#6E7381"/>
<path fill-rule="evenodd" clip-rule="evenodd" d="M109 3.75C105.25 3.75 102.048 6.0825 100.75 9.375C102.048 12.6675 105.25 15 109 15C112.75 15 115.953 12.6675 117.25 9.375C115.953 6.0825 112.75 3.75 109 3.75ZM109 13.125C106.93 13.125 105.25 11.445 105.25 9.375C105.25 7.305 106.93 5.625 109 5.625C111.07 5.625 112.75 7.305 112.75 9.375C112.75 11.445 111.07 13.125 109 13.125ZM109 7.125C107.755 7.125 106.75 8.13 106.75 9.375C106.75 10.62 107.755 11.625 109 11.625C110.245 11.625 111.25 10.62 111.25 9.375C111.25 8.13 110.245 7.125 109 7.125Z" fill="#A3A3A4"/>
<path fill-rule="evenodd" clip-rule="evenodd" d="M14.25 3H13.5V2.25C13.5 1.8375 13.1625 1.5 12.75 1.5C12.3375 1.5 12 1.8375 12 2.25V3H6V2.25C6 1.8375 5.6625 1.5 5.25 1.5C4.8375 1.5 4.5 1.8375 4.5 2.25V3H3.75C2.9175 3 2.2575 3.675 2.2575 4.5L2.25 15C2.25 15.825 2.9175 16.5 3.75 16.5H14.25C15.075 16.5 15.75 15.825 15.75 15V4.5C15.75 3.675 15.075 3 14.25 3ZM14.25 14.25C14.25 14.6625 13.9125 15 13.5 15H4.5C4.0875 15 3.75 14.6625 3.75 14.25V6.75H14.25V14.25ZM5.25 8.25H6.75V9.75H5.25V8.25ZM8.25 8.25H9.75V9.75H8.25V8.25ZM11.25 8.25H12.75V9.75H11.25V8.25Z" fill="#A3A3A4"/>
</svg>
