<svg width="820" height="40" viewBox="0 0 820 40" fill="none" xmlns="http://www.w3.org/2000/svg">
<rect y="30" width="820" height="10" rx="5" fill="#DCDCDC"/>
<rect y="30" width="176" height="10" rx="5" fill="#A7AAAE"/>
<path d="M389.136 18.1591C391.392 18.1591 393.068 16.7443 393.068 14.8409C393.068 13.3636 392.193 12.2898 390.727 12.0455V11.9545C391.903 11.5966 392.636 10.6307 392.636 9.31818C392.636 7.67045 391.335 6.20455 389.182 6.20455C387.17 6.20455 385.5 7.44318 385.432 9.27273H386.795C386.847 8.11364 387.949 7.43182 389.159 7.43182C390.443 7.43182 391.273 8.21023 391.273 9.38636C391.273 10.6136 390.312 11.4091 388.932 11.4091H388V12.6591H388.932C390.699 12.6591 391.682 13.5568 391.682 14.8409C391.682 16.0739 390.608 16.9091 389.114 16.9091C387.767 16.9091 386.699 16.2159 386.614 15.0909H385.182C385.267 16.9205 386.881 18.1591 389.136 18.1591ZM403.828 5.81818H402.601L398.851 19.75H400.078L403.828 5.81818ZM413.786 6.36364H412.377L409.468 8.29545V9.72727L412.309 7.84091H412.377V18H413.786V6.36364ZM420.828 18.1591C423.396 18.1591 424.874 15.983 424.874 12.1818C424.874 8.40909 423.374 6.20455 420.828 6.20455C418.283 6.20455 416.783 8.40909 416.783 12.1818C416.783 15.983 418.26 18.1591 420.828 18.1591ZM420.828 16.9091C419.135 16.9091 418.146 15.2102 418.146 12.1818C418.146 9.15909 419.146 7.43182 420.828 7.43182C422.51 7.43182 423.51 9.15909 423.51 12.1818C423.51 15.2102 422.521 16.9091 420.828 16.9091Z" fill="#A7AAAE"/>
</svg>
