<svg width="36" height="35" viewBox="0 0 36 35" fill="none" xmlns="http://www.w3.org/2000/svg">
<path fill-rule="evenodd" clip-rule="evenodd" d="M33.7645 11.4115L23.6812 10.5365L19.7437 1.26563C19.0353 -0.421875 16.6187 -0.421875 15.9103 1.26563L11.9728 10.5573L1.91033 11.4115C0.0769946 11.5573 -0.673006 13.849 0.722828 15.0573L8.36866 21.6823L6.07699 31.5156C5.66033 33.3073 7.59783 34.724 9.18116 33.7656L17.827 28.5573L26.4728 33.7865C28.0562 34.7448 29.9937 33.3281 29.577 31.5365L27.2853 21.6823L34.9312 15.0573C36.327 13.849 35.5978 11.5573 33.7645 11.4115ZM17.827 24.6614L9.99363 29.3906L12.077 20.4739L5.1603 14.4739L14.2853 13.6823L17.827 5.28643L21.3895 13.7031L30.5145 14.4948L23.5978 20.4948L25.6811 29.4114L17.827 24.6614Z" fill="#75DEFF"/>
</svg>
