<svg width="19" height="26" viewBox="0 0 19 26" fill="none" xmlns="http://www.w3.org/2000/svg">
<path d="M3.38467 17.5218L7.21055 19.0864L7.3372 18.7767C8.3929 16.2608 9.65817 15.4295 12.018 15.0042C14.6679 14.5584 16.7198 13.3119 17.8354 10.5841C19.4819 6.55793 17.4929 2.79693 13.1041 1.00212C9.08288 -0.642336 4.87493 0.334199 2.90894 4.81371L6.99908 6.48636C8.01829 4.28922 10.0192 3.85615 11.6392 4.51863C13.397 5.23749 14.3133 7.03041 13.5485 8.90056C12.8665 10.5682 11.3304 11.2748 9.57 11.6116C7.00058 12.0903 5.28797 12.9332 3.51132 17.2121L3.38467 17.5218ZM2.35556 25.777C3.71128 26.3314 5.34907 25.6386 5.95486 24.1901C6.52793 22.756 5.84492 21.1141 4.4892 20.5596C3.08753 19.9864 1.47271 20.6886 0.899643 22.1228C0.293854 23.5713 0.95389 25.2038 2.35556 25.777Z" fill="#74D272"/>
</svg>
