<svg width="28" height="28" viewBox="0 0 28 28" fill="none" xmlns="http://www.w3.org/2000/svg">
<path fill-rule="evenodd" clip-rule="evenodd" d="M18.6667 12.8333C20.6034 12.8333 22.1551 11.27 22.1551 9.33333C22.1551 7.39667 20.6034 5.83333 18.6667 5.83333C16.7301 5.83333 15.1667 7.39667 15.1667 9.33333C15.1667 11.27 16.7301 12.8333 18.6667 12.8333ZM9.33341 12.8333C11.2701 12.8333 12.8217 11.27 12.8217 9.33333C12.8217 7.39667 11.2701 5.83333 9.33341 5.83333C7.39675 5.83333 5.83341 7.39667 5.83341 9.33333C5.83341 11.27 7.39675 12.8333 9.33341 12.8333ZM9.33342 15.1667C6.61508 15.1667 1.16675 16.5317 1.16675 19.25V21C1.16675 21.6417 1.69175 22.1667 2.33341 22.1667H16.3334C16.9751 22.1667 17.5001 21.6417 17.5001 21V19.25C17.5001 16.5317 12.0517 15.1667 9.33342 15.1667ZM18.6668 15.1667C18.3284 15.1667 17.9434 15.19 17.5351 15.225C17.5584 15.2367 17.5701 15.26 17.5818 15.2717C18.9118 16.24 19.8334 17.535 19.8334 19.25V21C19.8334 21.4083 19.7518 21.805 19.6234 22.1667H25.6668C26.3084 22.1667 26.8334 21.6417 26.8334 21V19.25C26.8334 16.5317 21.3851 15.1667 18.6668 15.1667Z" fill="#48CCD5"/>
</svg>
