<svg width="126" height="126" viewBox="0 0 126 126" fill="none" xmlns="http://www.w3.org/2000/svg">
<circle cx="61.5" cy="61.5" r="61" fill="#E3E3E3" stroke="#D1D4D8"/>
<path d="M88.1284 78.9666C76.6104 75.2424 71.8225 70.6111 71.8225 70.6111L71.437 70.9749C68.0165 74.1619 64.2335 76.0354 60.7872 76.0354H60.4619C57.0158 76.0354 53.2327 74.1619 49.8122 70.9749L49.4265 70.6111C49.4265 70.6111 44.6391 75.2422 33.1209 78.9666C16.1179 85.2541 21.2184 96.964 21.2134 97.1622C21.749 100.012 22.3504 99.9342 22.6108 100.19C31.2321 108.667 41.9936 116.573 60.4619 116.918C74.1867 117.175 91.1142 110.944 100.026 101.266C100.298 101.156 101.442 100.012 101.978 97.1622C102.621 93.7378 105.2 85.3557 88.1284 78.9666Z" fill="white" fill-opacity="0.8"/>
<path d="M78.5434 46.5632L78.3992 46.4106C77.4321 45.5468 77.5077 45.5963 77.5077 45.5963C77.5077 45.5963 79.1946 37.2929 77.8419 33.3663C75.7183 27.0954 63.0336 22.8924 60.4894 22.4039C60.4898 22.3993 58.942 22.0971 58.8431 22.0965C58.8431 22.0965 56.842 21.7018 54.5226 22.6887C53.012 23.2556 45.1149 26.7491 42.8734 33.3663C41.5209 37.2929 43.2078 45.5963 43.2078 45.5963C43.2078 45.5963 43.2834 45.5468 42.3161 46.4106L42.1721 46.5632C41.5178 47.288 41.6794 49.5557 42.3946 51.9149C43.0427 54.2786 43.8873 54.9139 44.0897 55.4675C46.1415 64.8651 53.2758 72.8889 60.546 72.8889C67.8162 72.8889 74.5736 64.8651 76.6253 55.4675C76.828 54.9141 77.6726 54.2786 78.3207 51.9149C79.0359 49.5555 79.2164 47.1322 78.5434 46.5632Z" fill="white" fill-opacity="0.8"/>
<g filter="url(#filter0_d_707_3238)">
<circle cx="104" cy="103" r="20" fill="white"/>
</g>
<path fill-rule="evenodd" clip-rule="evenodd" d="M105 107C103.343 107 102 105.657 102 104C102 102.343 103.343 101 105 101C106.657 101 108 102.343 108 104C108 105.657 106.657 107 105 107ZM113 96C114.1 96 115 96.9 115 98V110C115 111.1 114.1 112 113 112H97C95.9 112 95 111.1 95 110V98C95 96.9 95.9 96 97 96H100.17L101.4 94.65C101.78 94.24 102.32 94 102.88 94H107.12C107.68 94 108.22 94.24 108.59 94.65L109.83 96H113ZM105 109C107.76 109 110 106.76 110 104C110 101.24 107.76 99 105 99C102.24 99 100 101.24 100 104C100 106.76 102.24 109 105 109Z" fill="#48CCD5"/>
<defs>
<filter id="filter0_d_707_3238" x="82" y="82" width="44" height="44" filterUnits="userSpaceOnUse" color-interpolation-filters="sRGB">
<feFlood flood-opacity="0" result="BackgroundImageFix"/>
<feColorMatrix in="SourceAlpha" type="matrix" values="0 0 0 0 0 0 0 0 0 0 0 0 0 0 0 0 0 0 127 0" result="hardAlpha"/>
<feOffset dy="1"/>
<feGaussianBlur stdDeviation="1"/>
<feColorMatrix type="matrix" values="0 0 0 0 0.220833 0 0 0 0 0.220833 0 0 0 0 0.220833 0 0 0 0.07 0"/>
<feBlend mode="normal" in2="BackgroundImageFix" result="effect1_dropShadow_707_3238"/>
<feBlend mode="normal" in="SourceGraphic" in2="effect1_dropShadow_707_3238" result="shape"/>
</filter>
</defs>
</svg>
