<svg width="20" height="20" viewBox="0 0 20 20" fill="none" xmlns="http://www.w3.org/2000/svg">
<g opacity="0.8">
<path fill-rule="evenodd" clip-rule="evenodd" d="M17.5 1.84165C17.3917 1.84165 17.2833 1.88331 17.2083 1.96665L16.55 2.62498C16.3833 2.79165 16.125 2.79165 15.9583 2.62498L15.3 1.96665C15.1333 1.79998 14.875 1.79998 14.7083 1.96665L14.05 2.62498C13.8833 2.79165 13.625 2.79165 13.4583 2.62498L12.8 1.96665C12.6333 1.79998 12.375 1.79998 12.2083 1.96665L11.55 2.62498C11.3833 2.79165 11.125 2.79165 10.9583 2.62498L10.3 1.96665C10.1333 1.79998 9.875 1.79998 9.70833 1.96665L9.05 2.62498C8.88333 2.79165 8.625 2.79165 8.45833 2.62498L7.79167 1.95831C7.625 1.79165 7.36667 1.79165 7.2 1.95831L6.54167 2.62498C6.375 2.79165 6.11667 2.79165 5.95 2.62498L5.29167 1.95831C5.125 1.79165 4.86667 1.79165 4.7 1.95831L4.04167 2.62498C3.875 2.79165 3.61667 2.79165 3.45 2.62498L2.79167 1.95831C2.71667 1.88331 2.60833 1.84165 2.5 1.84165V18.1666C2.60833 18.1666 2.71667 18.125 2.79167 18.0416L3.45 17.3833C3.61667 17.2166 3.875 17.2166 4.04167 17.3833L4.7 18.0416C4.86667 18.2083 5.125 18.2083 5.29167 18.0416L5.95 17.3833C6.11667 17.2166 6.375 17.2166 6.54167 17.3833L7.2 18.0416C7.36667 18.2083 7.625 18.2083 7.79167 18.0416L8.45 17.3833C8.61667 17.2166 8.875 17.2166 9.04167 17.3833L9.7 18.0416C9.86667 18.2083 10.125 18.2083 10.2917 18.0416L10.95 17.3833C11.1167 17.2166 11.375 17.2166 11.5417 17.3833L12.2 18.0416C12.3667 18.2083 12.625 18.2083 12.7917 18.0416L13.45 17.3833C13.6167 17.2166 13.875 17.2166 14.0417 17.3833L14.7 18.0416C14.8667 18.2083 15.125 18.2083 15.2917 18.0416L15.95 17.3833C16.1167 17.2166 16.375 17.2166 16.5417 17.3833L17.2 18.0416C17.2833 18.125 17.3917 18.1666 17.4917 18.1666V1.84165H17.5ZM14.1667 14.1666H5.83333C5.375 14.1666 5 13.7916 5 13.3333C5 12.875 5.375 12.5 5.83333 12.5H14.1667C14.625 12.5 15 12.875 15 13.3333C15 13.7916 14.625 14.1666 14.1667 14.1666ZM14.1667 10.8333H5.83333C5.375 10.8333 5 10.4583 5 9.99997C5 9.54164 5.375 9.16664 5.83333 9.16664H14.1667C14.625 9.16664 15 9.54164 15 9.99997C15 10.4583 14.625 10.8333 14.1667 10.8333ZM14.1667 7.49997H5.83333C5.375 7.49997 5 7.12497 5 6.66664C5 6.2083 5.375 5.8333 5.83333 5.8333H14.1667C14.625 5.8333 15 6.2083 15 6.66664C15 7.12497 14.625 7.49997 14.1667 7.49997Z" fill="white"/>
</g>
</svg>
