<svg width="197" height="91" viewBox="0 0 197 91" fill="none" xmlns="http://www.w3.org/2000/svg">
<path fill-rule="evenodd" clip-rule="evenodd" d="M20 0C8.95431 0 0 8.96339 0 20.0091V72H9.71415e-05L9.53674e-05 90.7043L18.6022 72H177C188.046 72 197 63.0457 197 52V20C197 8.95431 188.046 0 177 0H20Z" fill="#FFE99A"/>
<path d="M32.0398 33V21.3636H27.892C25.1932 21.3636 23.8636 22.8693 23.8636 25.0114C23.8636 26.5739 24.5739 27.7614 26 28.2898L23.4205 33H25.4205L27.7841 28.5966C27.8239 28.5966 27.858 28.5966 27.8977 28.5966H30.2841V33H32.0398ZM30.2841 27.0852H28.0568C26.3466 27.0852 25.6307 26.3239 25.6307 25.0114C25.6307 23.6932 26.3466 22.8693 28.0795 22.8693H30.2841V27.0852ZM45.2219 21.0227C44.7957 21.3636 44.148 21.3636 43.2446 21.358C42.9776 21.358 42.6878 21.358 42.3696 21.3636C39.5401 21.4205 38.1082 23.4318 38.1082 27.4205V28.2841C38.1082 31.4886 39.6991 33.1761 42.1366 33.1761C44.5741 33.1761 46.1537 31.483 46.1537 28.767C46.1537 26.0852 44.6026 24.6023 42.5003 24.6023C41.2332 24.6023 40.1764 25.142 39.6082 26.2216H39.5003C39.6935 24.0114 40.523 22.9148 42.4094 22.858C44.0855 22.8068 45.148 22.8125 45.9264 22.0966L45.2219 21.0227ZM42.1423 31.75C40.6991 31.75 39.8185 30.5966 39.8185 28.7955C39.8412 27.0284 40.7105 26.017 42.1253 26.017C43.5628 26.017 44.4378 27.0284 44.4378 28.7955C44.4378 30.6023 43.5628 31.75 42.1423 31.75ZM49.0253 36.2727C50.4287 36.2727 51.3151 35.5398 51.8207 34.1648L55.4287 24.2898L53.5935 24.2727L51.3832 31.0455H51.2923L49.0821 24.2727H47.2639L50.4571 33.1136L50.2469 33.6932C49.8151 34.8523 49.2071 34.9489 48.2753 34.6932L47.8662 36.0852C48.0707 36.1761 48.5139 36.2727 49.0253 36.2727ZM55.3585 35.517H57.0403V33H63.1256V35.517H64.7847V31.5284H63.4437V24.2727H57.5119L57.2392 27.5284C57.0574 29.7273 56.7903 30.875 56.0687 31.5284H55.3585V35.517ZM57.8869 31.5284C58.4665 30.7159 58.6824 29.3636 58.8528 27.5284L59.0347 25.7273H61.7847V31.5284H57.8869ZM67.419 36.2727C68.8224 36.2727 69.7088 35.5398 70.2145 34.1648L73.8224 24.2898L71.9872 24.2727L69.777 31.0455H69.6861L67.4759 24.2727H65.6577L68.8509 33.1136L68.6406 33.6932C68.2088 34.8523 67.6009 34.9489 66.669 34.6932L66.2599 36.0852C66.4645 36.1761 66.9077 36.2727 67.419 36.2727ZM81.1224 30.6193V24.2727H79.4577V33H81.3043L85.1338 26.6477V33H86.7986V24.2727H84.969L81.1224 30.6193ZM90.6474 24.2727H88.9827V33H90.6474V29.375H94.4258V33H96.0849V24.2727H94.4258V27.9034H90.6474V24.2727ZM97.7009 33H99.7179L102.457 29.3636H103.025V33H104.724V29.3636H105.292L108.013 33H110.03L106.667 28.5341L109.991 24.2727H108.013L105.314 27.8977H104.724V24.2727H103.025V27.8977H102.417L99.7179 24.2727H97.7406L101.082 28.5341L97.7009 33ZM115.06 33.1761C116.963 33.1761 118.31 32.2386 118.696 30.8182L117.088 30.5284C116.781 31.3523 116.043 31.7727 115.077 31.7727C113.622 31.7727 112.645 30.8295 112.599 29.1477H118.804V28.5455C118.804 25.392 116.918 24.1591 114.94 24.1591C112.509 24.1591 110.906 26.0114 110.906 28.6932C110.906 31.4034 112.486 33.1761 115.06 33.1761ZM112.605 27.875C112.673 26.6364 113.571 25.5625 114.952 25.5625C116.27 25.5625 117.134 26.5398 117.139 27.875H112.605ZM122.254 24.2727H120.589V33H122.254V29.375H126.032V33H127.691V24.2727H126.032V27.9034H122.254V24.2727ZM133.625 33.1761C135.529 33.1761 136.875 32.2386 137.262 30.8182L135.654 30.5284C135.347 31.3523 134.608 31.7727 133.642 31.7727C132.188 31.7727 131.211 30.8295 131.165 29.1477H137.37V28.5455C137.37 25.392 135.483 24.1591 133.506 24.1591C131.074 24.1591 129.472 26.0114 129.472 28.6932C129.472 31.4034 131.051 33.1761 133.625 33.1761ZM131.171 27.875C131.239 26.6364 132.137 25.5625 133.517 25.5625C134.836 25.5625 135.699 26.5398 135.705 27.875H131.171ZM139.155 36.2727H140.853V31.642H140.956C141.262 32.1989 141.887 33.1705 143.478 33.1705C145.592 33.1705 147.126 31.4773 147.126 28.6534C147.126 25.8239 145.569 24.1591 143.461 24.1591C141.842 24.1591 141.257 25.1477 140.956 25.6875H140.814V24.2727H139.155V36.2727ZM140.819 28.6364C140.819 26.8125 141.615 25.6023 143.098 25.6023C144.637 25.6023 145.41 26.9034 145.41 28.6364C145.41 30.3864 144.615 31.7216 143.098 31.7216C141.637 31.7216 140.819 30.4716 140.819 28.6364ZM152.606 33.1761C155.066 33.1761 156.674 31.375 156.674 28.6761C156.674 25.9602 155.066 24.1591 152.606 24.1591C150.145 24.1591 148.537 25.9602 148.537 28.6761C148.537 31.375 150.145 33.1761 152.606 33.1761ZM152.611 31.75C151.003 31.75 150.253 30.3466 150.253 28.6705C150.253 27 151.003 25.5795 152.611 25.5795C154.208 25.5795 154.958 27 154.958 28.6705C154.958 30.3466 154.208 31.75 152.611 31.75ZM163.368 30.8977L160.607 24.2727H158.47V33H160.135V26.6534L162.737 33H163.999L166.646 26.6761V33H168.3V24.2727H166.186L163.368 30.8977ZM172.674 31.4091H171.038L170.981 32.0455C170.85 33.5852 170.487 35.1364 170.333 35.8409H171.538C171.811 35.0966 172.413 33.392 172.589 32.0284L172.674 31.4091ZM24.142 52H25.8409V48.5114H26.9432L29.5739 52H31.6818L28.2614 47.517L31.642 43.2727H29.5398L26.6591 46.9318H25.8409V43.2727H24.142V52ZM36.2182 52.1761C38.6784 52.1761 40.2864 50.375 40.2864 47.6761C40.2864 44.9602 38.6784 43.1591 36.2182 43.1591C33.758 43.1591 32.15 44.9602 32.15 47.6761C32.15 50.375 33.758 52.1761 36.2182 52.1761ZM36.2239 50.75C34.6159 50.75 33.8659 49.3466 33.8659 47.6705C33.8659 46 34.6159 44.5795 36.2239 44.5795C37.8205 44.5795 38.5705 46 38.5705 47.6705C38.5705 49.3466 37.8205 50.75 36.2239 50.75ZM47.6622 43.2727H42.0827V52H43.7588V44.7386H47.6622V43.2727ZM47.7866 54.517H49.4685V52H55.5537V54.517H57.2128V50.5284H55.8719V43.2727H49.9401L49.6673 46.5284C49.4855 48.7273 49.2185 49.875 48.4969 50.5284H47.7866V54.517ZM50.3151 50.5284C50.8946 49.7159 51.1105 48.3636 51.281 46.5284L51.4628 44.7273H54.2128V50.5284H50.3151ZM61.3131 52.1932C62.7562 52.1932 63.5687 51.4602 63.8926 50.8068H63.9608V52H65.6199V46.2045C65.6199 43.6648 63.6199 43.1591 62.2335 43.1591C60.654 43.1591 59.1994 43.7955 58.6312 45.3864L60.2278 45.75C60.4778 45.1307 61.1142 44.5341 62.2562 44.5341C63.3528 44.5341 63.9153 45.108 63.9153 46.0966V46.1364C63.9153 46.7557 63.279 46.7443 61.7108 46.9261C60.0574 47.1193 58.3642 47.5511 58.3642 49.5341C58.3642 51.25 59.654 52.1932 61.3131 52.1932ZM61.6824 50.8295C60.7222 50.8295 60.029 50.3977 60.029 49.5568C60.029 48.6477 60.8358 48.3239 61.8187 48.1932C62.3699 48.1193 63.6767 47.9716 63.921 47.7273V48.8523C63.921 49.8864 63.0972 50.8295 61.6824 50.8295ZM71.917 52H76.0875C77.9966 52 79.1159 51.0341 79.1159 49.6477C79.1159 48.3523 78.1216 47.5568 76.9568 47.4205C78.0307 47.2159 78.7409 46.625 78.7409 45.6023C78.7409 44.1705 77.5023 43.2727 75.5364 43.2727H71.917V52ZM73.5136 50.5795V48.1534H76.0875C76.9284 48.1534 77.4341 48.6477 77.4341 49.4602C77.4341 50.1534 76.9284 50.5795 76.0875 50.5795H73.5136ZM73.5136 46.9091V44.7102H75.5364C76.5023 44.7102 77.0875 45.1136 77.0875 45.7841C77.0875 46.483 76.508 46.9091 75.5534 46.9091H73.5136ZM82.5443 46.2727V43.2727H80.8795V52H84.692C86.8284 52 88.0216 50.7614 88.0216 49.1193C88.0216 47.4432 86.8284 46.2727 84.692 46.2727H82.5443ZM89.2602 52H90.9591V43.2727H89.2602V52ZM82.5443 47.7386H84.692C85.6693 47.7386 86.3682 48.3295 86.3682 49.1705C86.3682 49.9659 85.6693 50.5341 84.692 50.5341H82.5443V47.7386ZM93.1389 55.2727H94.8378V50.642H94.9401C95.2469 51.1989 95.8719 52.1705 97.4628 52.1705C99.5764 52.1705 101.111 50.4773 101.111 47.6534C101.111 44.8239 99.5537 43.1591 97.4457 43.1591C95.8264 43.1591 95.2412 44.1477 94.9401 44.6875H94.798V43.2727H93.1389V55.2727ZM94.8037 47.6364C94.8037 45.8125 95.5991 44.6023 97.0821 44.6023C98.6219 44.6023 99.3946 45.9034 99.3946 47.6364C99.3946 49.3864 98.5991 50.7216 97.0821 50.7216C95.6219 50.7216 94.8037 49.4716 94.8037 47.6364ZM105.454 52.1932C106.897 52.1932 107.709 51.4602 108.033 50.8068H108.101V52H109.761V46.2045C109.761 43.6648 107.761 43.1591 106.374 43.1591C104.795 43.1591 103.34 43.7955 102.772 45.3864L104.368 45.75C104.618 45.1307 105.255 44.5341 106.397 44.5341C107.493 44.5341 108.056 45.108 108.056 46.0966V46.1364C108.056 46.7557 107.42 46.7443 105.851 46.9261C104.198 47.1193 102.505 47.5511 102.505 49.5341C102.505 51.25 103.795 52.1932 105.454 52.1932ZM105.823 50.8295C104.863 50.8295 104.17 50.3977 104.17 49.5568C104.17 48.6477 104.976 48.3239 105.959 48.1932C106.511 48.1193 107.817 47.9716 108.062 47.7273V48.8523C108.062 49.8864 107.238 50.8295 105.823 50.8295ZM115.599 52.1761C117.662 52.1761 118.997 50.9375 119.185 49.2386H117.531C117.315 50.1818 116.582 50.7386 115.611 50.7386C114.173 50.7386 113.247 49.5398 113.247 47.6364C113.247 45.767 114.19 44.5909 115.611 44.5909C116.69 44.5909 117.349 45.2727 117.531 46.0909H119.185C119.003 44.3295 117.565 43.1591 115.582 43.1591C113.122 43.1591 111.531 45.0114 111.531 47.6761C111.531 50.3068 113.065 52.1761 115.599 52.1761ZM120.241 44.7386H123.099V52H124.758V44.7386H127.605V43.2727H120.241V44.7386ZM130.375 55.2727C131.779 55.2727 132.665 54.5398 133.171 53.1648L136.779 43.2898L134.943 43.2727L132.733 50.0455H132.642L130.432 43.2727H128.614L131.807 52.1136L131.597 52.6932C131.165 53.8523 130.557 53.9489 129.625 53.6932L129.216 55.0852C129.421 55.1761 129.864 55.2727 130.375 55.2727Z" fill="#965100"/>
</svg>
