<svg width="181" height="91" viewBox="0 0 181 91" fill="none" xmlns="http://www.w3.org/2000/svg">
<path fill-rule="evenodd" clip-rule="evenodd" d="M20 0C8.9543 0 0 8.96339 0 20.0091V72H0.212942L0.212941 90.7043L17.3585 72H161C172.046 72 181 63.0457 181 52V20C181 8.95431 172.046 0 161 0H20Z" fill="#FFE99A"/>
<path d="M29.0398 33V21.3636H24.892C22.1932 21.3636 20.8636 22.8693 20.8636 25.0114C20.8636 26.5739 21.5739 27.7614 23 28.2898L20.4205 33H22.4205L24.7841 28.5966C24.8239 28.5966 24.858 28.5966 24.8977 28.5966H27.2841V33H29.0398ZM27.2841 27.0852H25.0568C23.3466 27.0852 22.6307 26.3239 22.6307 25.0114C22.6307 23.6932 23.3466 22.8693 25.0795 22.8693H27.2841V27.0852ZM42.2219 21.0227C41.7957 21.3636 41.148 21.3636 40.2446 21.358C39.9776 21.358 39.6878 21.358 39.3696 21.3636C36.5401 21.4205 35.1082 23.4318 35.1082 27.4205V28.2841C35.1082 31.4886 36.6991 33.1761 39.1366 33.1761C41.5741 33.1761 43.1537 31.483 43.1537 28.767C43.1537 26.0852 41.6026 24.6023 39.5003 24.6023C38.2332 24.6023 37.1764 25.142 36.6082 26.2216H36.5003C36.6935 24.0114 37.523 22.9148 39.4094 22.858C41.0855 22.8068 42.148 22.8125 42.9264 22.0966L42.2219 21.0227ZM39.1423 31.75C37.6991 31.75 36.8185 30.5966 36.8185 28.7955C36.8412 27.0284 37.7105 26.017 39.1253 26.017C40.5628 26.017 41.4378 27.0284 41.4378 28.7955C41.4378 30.6023 40.5628 31.75 39.1423 31.75ZM46.0253 36.2727C47.4287 36.2727 48.3151 35.5398 48.8207 34.1648L52.4287 24.2898L50.5935 24.2727L48.3832 31.0455H48.2923L46.0821 24.2727H44.2639L47.4571 33.1136L47.2469 33.6932C46.8151 34.8523 46.2071 34.9489 45.2753 34.6932L44.8662 36.0852C45.0707 36.1761 45.5139 36.2727 46.0253 36.2727ZM52.3585 35.517H54.0403V33H60.1256V35.517H61.7847V31.5284H60.4437V24.2727H54.5119L54.2392 27.5284C54.0574 29.7273 53.7903 30.875 53.0687 31.5284H52.3585V35.517ZM54.8869 31.5284C55.4665 30.7159 55.6824 29.3636 55.8528 27.5284L56.0347 25.7273H58.7847V31.5284H54.8869ZM64.419 36.2727C65.8224 36.2727 66.7088 35.5398 67.2145 34.1648L70.8224 24.2898L68.9872 24.2727L66.777 31.0455H66.6861L64.4759 24.2727H62.6577L65.8509 33.1136L65.6406 33.6932C65.2088 34.8523 64.6009 34.9489 63.669 34.6932L63.2599 36.0852C63.4645 36.1761 63.9077 36.2727 64.419 36.2727ZM76.4577 33H80.6281C82.5372 33 83.6565 32.0341 83.6565 30.6477C83.6565 29.3523 82.6622 28.5568 81.4974 28.4205C82.5713 28.2159 83.2815 27.625 83.2815 26.6023C83.2815 25.1705 82.0429 24.2727 80.077 24.2727H76.4577V33ZM78.0543 31.5795V29.1534H80.6281C81.469 29.1534 81.9747 29.6477 81.9747 30.4602C81.9747 31.1534 81.469 31.5795 80.6281 31.5795H78.0543ZM78.0543 27.9091V25.7102H80.077C81.0429 25.7102 81.6281 26.1136 81.6281 26.7841C81.6281 27.483 81.0486 27.9091 80.094 27.9091H78.0543ZM85.4202 36.2727H87.119V31.642H87.2213C87.5281 32.1989 88.1531 33.1705 89.744 33.1705C91.8577 33.1705 93.3918 31.4773 93.3918 28.6534C93.3918 25.8239 91.8349 24.1591 89.727 24.1591C88.1077 24.1591 87.5224 25.1477 87.2213 25.6875H87.0793V24.2727H85.4202V36.2727ZM87.0849 28.6364C87.0849 26.8125 87.8804 25.6023 89.3633 25.6023C90.9031 25.6023 91.6758 26.9034 91.6758 28.6364C91.6758 30.3864 90.8804 31.7216 89.3633 31.7216C87.9031 31.7216 87.0849 30.4716 87.0849 28.6364ZM97.7349 33.1932C99.1781 33.1932 99.9906 32.4602 100.314 31.8068H100.383V33H102.042V27.2045C102.042 24.6648 100.042 24.1591 98.6554 24.1591C97.0759 24.1591 95.6213 24.7955 95.0531 26.3864L96.6497 26.75C96.8997 26.1307 97.5361 25.5341 98.6781 25.5341C99.7747 25.5341 100.337 26.108 100.337 27.0966V27.1364C100.337 27.7557 99.7009 27.7443 98.1327 27.9261C96.4793 28.1193 94.7861 28.5511 94.7861 30.5341C94.7861 32.25 96.0759 33.1932 97.7349 33.1932ZM98.1043 31.8295C97.144 31.8295 96.4509 31.3977 96.4509 30.5568C96.4509 29.6477 97.2577 29.3239 98.2406 29.1932C98.7918 29.1193 100.099 28.9716 100.343 28.7273V29.8523C100.343 30.8864 99.519 31.8295 98.1043 31.8295ZM111.21 24.2727H109.551V28.6193C108.977 28.7727 108.398 28.8636 107.733 28.8636C106.574 28.8636 105.858 28.3409 105.858 27.108V24.2557H104.205V27.108C104.205 29.2898 105.574 30.3295 107.733 30.3295C108.392 30.3295 108.994 30.2386 109.551 30.0966V33H111.21V24.2727ZM117.046 33.1761C119.507 33.1761 121.114 31.375 121.114 28.6761C121.114 25.9602 119.507 24.1591 117.046 24.1591C114.586 24.1591 112.978 25.9602 112.978 28.6761C112.978 31.375 114.586 33.1761 117.046 33.1761ZM117.052 31.75C115.444 31.75 114.694 30.3466 114.694 28.6705C114.694 27 115.444 25.5795 117.052 25.5795C118.649 25.5795 119.399 27 119.399 28.6705C119.399 30.3466 118.649 31.75 117.052 31.75ZM127.809 30.8977L125.047 24.2727H122.911V33H124.576V26.6534L127.178 33H128.439L131.087 26.6761V33H132.74V24.2727H130.627L127.809 30.8977ZM137.115 31.4091H135.478L135.422 32.0455C135.291 33.5852 134.927 35.1364 134.774 35.8409H135.978C136.251 35.0966 136.853 33.392 137.03 32.0284L137.115 31.4091ZM21.142 52H22.8409V48.5114H23.9432L26.5739 52H28.6818L25.2614 47.517L28.642 43.2727H26.5398L23.6591 46.9318H22.8409V43.2727H21.142V52ZM33.2182 52.1761C35.6784 52.1761 37.2864 50.375 37.2864 47.6761C37.2864 44.9602 35.6784 43.1591 33.2182 43.1591C30.758 43.1591 29.15 44.9602 29.15 47.6761C29.15 50.375 30.758 52.1761 33.2182 52.1761ZM33.2239 50.75C31.6159 50.75 30.8659 49.3466 30.8659 47.6705C30.8659 46 31.6159 44.5795 33.2239 44.5795C34.8205 44.5795 35.5705 46 35.5705 47.6705C35.5705 49.3466 34.8205 50.75 33.2239 50.75ZM44.6622 43.2727H39.0827V52H40.7588V44.7386H44.6622V43.2727ZM44.7866 54.517H46.4685V52H52.5537V54.517H54.2128V50.5284H52.8719V43.2727H46.9401L46.6673 46.5284C46.4855 48.7273 46.2185 49.875 45.4969 50.5284H44.7866V54.517ZM47.3151 50.5284C47.8946 49.7159 48.1105 48.3636 48.281 46.5284L48.4628 44.7273H51.2128V50.5284H47.3151ZM58.3131 52.1932C59.7562 52.1932 60.5687 51.4602 60.8926 50.8068H60.9608V52H62.6199V46.2045C62.6199 43.6648 60.6199 43.1591 59.2335 43.1591C57.654 43.1591 56.1994 43.7955 55.6312 45.3864L57.2278 45.75C57.4778 45.1307 58.1142 44.5341 59.2562 44.5341C60.3528 44.5341 60.9153 45.108 60.9153 46.0966V46.1364C60.9153 46.7557 60.279 46.7443 58.7108 46.9261C57.0574 47.1193 55.3642 47.5511 55.3642 49.5341C55.3642 51.25 56.654 52.1932 58.3131 52.1932ZM58.6824 50.8295C57.7222 50.8295 57.029 50.3977 57.029 49.5568C57.029 48.6477 57.8358 48.3239 58.8187 48.1932C59.3699 48.1193 60.6767 47.9716 60.921 47.7273V48.8523C60.921 49.8864 60.0972 50.8295 58.6824 50.8295ZM68.917 52H73.0875C74.9966 52 76.1159 51.0341 76.1159 49.6477C76.1159 48.3523 75.1216 47.5568 73.9568 47.4205C75.0307 47.2159 75.7409 46.625 75.7409 45.6023C75.7409 44.1705 74.5023 43.2727 72.5364 43.2727H68.917V52ZM70.5136 50.5795V48.1534H73.0875C73.9284 48.1534 74.4341 48.6477 74.4341 49.4602C74.4341 50.1534 73.9284 50.5795 73.0875 50.5795H70.5136ZM70.5136 46.9091V44.7102H72.5364C73.5023 44.7102 74.0875 45.1136 74.0875 45.7841C74.0875 46.483 73.508 46.9091 72.5534 46.9091H70.5136ZM79.5443 46.2727V43.2727H77.8795V52H81.692C83.8284 52 85.0216 50.7614 85.0216 49.1193C85.0216 47.4432 83.8284 46.2727 81.692 46.2727H79.5443ZM86.2602 52H87.9591V43.2727H86.2602V52ZM79.5443 47.7386H81.692C82.6693 47.7386 83.3682 48.3295 83.3682 49.1705C83.3682 49.9659 82.6693 50.5341 81.692 50.5341H79.5443V47.7386ZM90.1389 55.2727H91.8378V50.642H91.9401C92.2469 51.1989 92.8719 52.1705 94.4628 52.1705C96.5764 52.1705 98.1105 50.4773 98.1105 47.6534C98.1105 44.8239 96.5537 43.1591 94.4457 43.1591C92.8264 43.1591 92.2412 44.1477 91.9401 44.6875H91.798V43.2727H90.1389V55.2727ZM91.8037 47.6364C91.8037 45.8125 92.5991 44.6023 94.0821 44.6023C95.6219 44.6023 96.3946 45.9034 96.3946 47.6364C96.3946 49.3864 95.5991 50.7216 94.0821 50.7216C92.6219 50.7216 91.8037 49.4716 91.8037 47.6364ZM102.454 52.1932C103.897 52.1932 104.709 51.4602 105.033 50.8068H105.101V52H106.761V46.2045C106.761 43.6648 104.761 43.1591 103.374 43.1591C101.795 43.1591 100.34 43.7955 99.7719 45.3864L101.368 45.75C101.618 45.1307 102.255 44.5341 103.397 44.5341C104.493 44.5341 105.056 45.108 105.056 46.0966V46.1364C105.056 46.7557 104.42 46.7443 102.851 46.9261C101.198 47.1193 99.5048 47.5511 99.5048 49.5341C99.5048 51.25 100.795 52.1932 102.454 52.1932ZM102.823 50.8295C101.863 50.8295 101.17 50.3977 101.17 49.5568C101.17 48.6477 101.976 48.3239 102.959 48.1932C103.511 48.1193 104.817 47.9716 105.062 47.7273V48.8523C105.062 49.8864 104.238 50.8295 102.823 50.8295ZM112.599 52.1761C114.662 52.1761 115.997 50.9375 116.185 49.2386H114.531C114.315 50.1818 113.582 50.7386 112.611 50.7386C111.173 50.7386 110.247 49.5398 110.247 47.6364C110.247 45.767 111.19 44.5909 112.611 44.5909C113.69 44.5909 114.349 45.2727 114.531 46.0909H116.185C116.003 44.3295 114.565 43.1591 112.582 43.1591C110.122 43.1591 108.531 45.0114 108.531 47.6761C108.531 50.3068 110.065 52.1761 112.599 52.1761ZM117.241 44.7386H120.099V52H121.758V44.7386H124.605V43.2727H117.241V44.7386ZM127.375 55.2727C128.779 55.2727 129.665 54.5398 130.171 53.1648L133.779 43.2898L131.943 43.2727L129.733 50.0455H129.642L127.432 43.2727H125.614L128.807 52.1136L128.597 52.6932C128.165 53.8523 127.557 53.9489 126.625 53.6932L126.216 55.0852C126.421 55.1761 126.864 55.2727 127.375 55.2727Z" fill="#965100"/>
</svg>
