<svg width="210" height="91" viewBox="0 0 210 91" fill="none" xmlns="http://www.w3.org/2000/svg">
<path fill-rule="evenodd" clip-rule="evenodd" d="M20 0C8.95431 0 0 8.96339 0 20.0091V72H9.72799e-05L9.54866e-05 90.7043L18.8029 72H190C201.046 72 210 63.0457 210 52V20C210 8.95431 201.046 0 190 0H20Z" fill="#FFE99A"/>
<path d="M34.0398 33V21.3636H29.892C27.1932 21.3636 25.8636 22.8693 25.8636 25.0114C25.8636 26.5739 26.5739 27.7614 28 28.2898L25.4205 33H27.4205L29.7841 28.5966C29.8239 28.5966 29.858 28.5966 29.8977 28.5966H32.2841V33H34.0398ZM32.2841 27.0852H30.0568C28.3466 27.0852 27.6307 26.3239 27.6307 25.0114C27.6307 23.6932 28.3466 22.8693 30.0795 22.8693H32.2841V27.0852ZM47.2219 21.0227C46.7957 21.3636 46.148 21.3636 45.2446 21.358C44.9776 21.358 44.6878 21.358 44.3696 21.3636C41.5401 21.4205 40.1082 23.4318 40.1082 27.4205V28.2841C40.1082 31.4886 41.6991 33.1761 44.1366 33.1761C46.5741 33.1761 48.1537 31.483 48.1537 28.767C48.1537 26.0852 46.6026 24.6023 44.5003 24.6023C43.2332 24.6023 42.1764 25.142 41.6082 26.2216H41.5003C41.6935 24.0114 42.523 22.9148 44.4094 22.858C46.0855 22.8068 47.148 22.8125 47.9264 22.0966L47.2219 21.0227ZM44.1423 31.75C42.6991 31.75 41.8185 30.5966 41.8185 28.7955C41.8412 27.0284 42.7105 26.017 44.1253 26.017C45.5628 26.017 46.4378 27.0284 46.4378 28.7955C46.4378 30.6023 45.5628 31.75 44.1423 31.75ZM51.0253 36.2727C52.4287 36.2727 53.3151 35.5398 53.8207 34.1648L57.4287 24.2898L55.5935 24.2727L53.3832 31.0455H53.2923L51.0821 24.2727H49.2639L52.4571 33.1136L52.2469 33.6932C51.8151 34.8523 51.2071 34.9489 50.2753 34.6932L49.8662 36.0852C50.0707 36.1761 50.5139 36.2727 51.0253 36.2727ZM57.3585 35.517H59.0403V33H65.1256V35.517H66.7847V31.5284H65.4437V24.2727H59.5119L59.2392 27.5284C59.0574 29.7273 58.7903 30.875 58.0687 31.5284H57.3585V35.517ZM59.8869 31.5284C60.4665 30.7159 60.6824 29.3636 60.8528 27.5284L61.0347 25.7273H63.7847V31.5284H59.8869ZM69.419 36.2727C70.8224 36.2727 71.7088 35.5398 72.2145 34.1648L75.8224 24.2898L73.9872 24.2727L71.777 31.0455H71.6861L69.4759 24.2727H67.6577L70.8509 33.1136L70.6406 33.6932C70.2088 34.8523 69.6009 34.9489 68.669 34.6932L68.2599 36.0852C68.4645 36.1761 68.9077 36.2727 69.419 36.2727ZM85.1338 33.1761C87.1963 33.1761 88.5315 31.9375 88.719 30.2386H87.0656C86.8497 31.1818 86.1168 31.7386 85.1452 31.7386C83.7077 31.7386 82.7815 30.5398 82.7815 28.6364C82.7815 26.767 83.7247 25.5909 85.1452 25.5909C86.2247 25.5909 86.8838 26.2727 87.0656 27.0909H88.719C88.5372 25.3295 87.0997 24.1591 85.1168 24.1591C82.6565 24.1591 81.0656 26.0114 81.0656 28.6761C81.0656 31.3068 82.5997 33.1761 85.1338 33.1761ZM90.4358 33H92.0892V25.7386H95.8903V33H97.5551V24.2727H90.4358V33ZM103.403 33.1761C105.863 33.1761 107.471 31.375 107.471 28.6761C107.471 25.9602 105.863 24.1591 103.403 24.1591C100.942 24.1591 99.3344 25.9602 99.3344 28.6761C99.3344 31.375 100.942 33.1761 103.403 33.1761ZM103.408 31.75C101.8 31.75 101.05 30.3466 101.05 28.6705C101.05 27 101.8 25.5795 103.408 25.5795C105.005 25.5795 105.755 27 105.755 28.6705C105.755 30.3466 105.005 31.75 103.408 31.75ZM109.267 36.2727H110.966V31.642H111.068C111.375 32.1989 112 33.1705 113.591 33.1705C115.705 33.1705 117.239 31.4773 117.239 28.6534C117.239 25.8239 115.682 24.1591 113.574 24.1591C111.955 24.1591 111.369 25.1477 111.068 25.6875H110.926V24.2727H109.267V36.2727ZM110.932 28.6364C110.932 26.8125 111.727 25.6023 113.21 25.6023C114.75 25.6023 115.523 26.9034 115.523 28.6364C115.523 30.3864 114.727 31.7216 113.21 31.7216C111.75 31.7216 110.932 30.4716 110.932 28.6364ZM117.991 25.7386H120.849V33H122.508V25.7386H125.355V24.2727H117.991V25.7386ZM130.321 33.1761C132.384 33.1761 133.719 31.9375 133.907 30.2386H132.253C132.037 31.1818 131.304 31.7386 130.333 31.7386C128.895 31.7386 127.969 30.5398 127.969 28.6364C127.969 26.767 128.912 25.5909 130.333 25.5909C131.412 25.5909 132.071 26.2727 132.253 27.0909H133.907C133.725 25.3295 132.287 24.1591 130.304 24.1591C127.844 24.1591 126.253 26.0114 126.253 28.6761C126.253 31.3068 127.787 33.1761 130.321 33.1761ZM140.521 30.8977L137.76 24.2727H135.623V33H137.288V26.6534L139.89 33H141.152L143.799 26.6761V33H145.453V24.2727H143.339L140.521 30.8977ZM151.378 33.1761C153.282 33.1761 154.628 32.2386 155.015 30.8182L153.407 30.5284C153.1 31.3523 152.361 31.7727 151.395 31.7727C149.941 31.7727 148.964 30.8295 148.918 29.1477H155.123V28.5455C155.123 25.392 153.236 24.1591 151.259 24.1591C148.827 24.1591 147.225 26.0114 147.225 28.6932C147.225 31.4034 148.805 33.1761 151.378 33.1761ZM148.924 27.875C148.992 26.6364 149.89 25.5625 151.27 25.5625C152.589 25.5625 153.452 26.5398 153.458 27.875H148.924ZM158.572 24.2727H156.908V33H158.572V29.375H162.351V33H164.01V24.2727H162.351V27.9034H158.572V24.2727ZM169.859 33.1761C172.319 33.1761 173.927 31.375 173.927 28.6761C173.927 25.9602 172.319 24.1591 169.859 24.1591C167.399 24.1591 165.791 25.9602 165.791 28.6761C165.791 31.375 167.399 33.1761 169.859 33.1761ZM169.864 31.75C168.257 31.75 167.507 30.3466 167.507 28.6705C167.507 27 168.257 25.5795 169.864 25.5795C171.461 25.5795 172.211 27 172.211 28.6705C172.211 30.3466 171.461 31.75 169.864 31.75ZM180.621 30.8977L177.86 24.2727H175.723V33H177.388V26.6534L179.99 33H181.252L183.899 26.6761V33H185.553V24.2727H183.439L180.621 30.8977ZM189.927 31.4091H188.291L188.234 32.0455C188.103 33.5852 187.74 35.1364 187.586 35.8409H188.791C189.064 35.0966 189.666 33.392 189.842 32.0284L189.927 31.4091ZM26.142 52H27.8409V48.5114H28.9432L31.5739 52H33.6818L30.2614 47.517L33.642 43.2727H31.5398L28.6591 46.9318H27.8409V43.2727H26.142V52ZM38.2182 52.1761C40.6784 52.1761 42.2864 50.375 42.2864 47.6761C42.2864 44.9602 40.6784 43.1591 38.2182 43.1591C35.758 43.1591 34.15 44.9602 34.15 47.6761C34.15 50.375 35.758 52.1761 38.2182 52.1761ZM38.2239 50.75C36.6159 50.75 35.8659 49.3466 35.8659 47.6705C35.8659 46 36.6159 44.5795 38.2239 44.5795C39.8205 44.5795 40.5705 46 40.5705 47.6705C40.5705 49.3466 39.8205 50.75 38.2239 50.75ZM49.6622 43.2727H44.0827V52H45.7588V44.7386H49.6622V43.2727ZM49.7866 54.517H51.4685V52H57.5537V54.517H59.2128V50.5284H57.8719V43.2727H51.9401L51.6673 46.5284C51.4855 48.7273 51.2185 49.875 50.4969 50.5284H49.7866V54.517ZM52.3151 50.5284C52.8946 49.7159 53.1105 48.3636 53.281 46.5284L53.4628 44.7273H56.2128V50.5284H52.3151ZM63.3131 52.1932C64.7562 52.1932 65.5687 51.4602 65.8926 50.8068H65.9608V52H67.6199V46.2045C67.6199 43.6648 65.6199 43.1591 64.2335 43.1591C62.654 43.1591 61.1994 43.7955 60.6312 45.3864L62.2278 45.75C62.4778 45.1307 63.1142 44.5341 64.2562 44.5341C65.3528 44.5341 65.9153 45.108 65.9153 46.0966V46.1364C65.9153 46.7557 65.279 46.7443 63.7108 46.9261C62.0574 47.1193 60.3642 47.5511 60.3642 49.5341C60.3642 51.25 61.654 52.1932 63.3131 52.1932ZM63.6824 50.8295C62.7222 50.8295 62.029 50.3977 62.029 49.5568C62.029 48.6477 62.8358 48.3239 63.8187 48.1932C64.3699 48.1193 65.6767 47.9716 65.921 47.7273V48.8523C65.921 49.8864 65.0972 50.8295 63.6824 50.8295ZM73.917 52H78.0875C79.9966 52 81.1159 51.0341 81.1159 49.6477C81.1159 48.3523 80.1216 47.5568 78.9568 47.4205C80.0307 47.2159 80.7409 46.625 80.7409 45.6023C80.7409 44.1705 79.5023 43.2727 77.5364 43.2727H73.917V52ZM75.5136 50.5795V48.1534H78.0875C78.9284 48.1534 79.4341 48.6477 79.4341 49.4602C79.4341 50.1534 78.9284 50.5795 78.0875 50.5795H75.5136ZM75.5136 46.9091V44.7102H77.5364C78.5023 44.7102 79.0875 45.1136 79.0875 45.7841C79.0875 46.483 78.508 46.9091 77.5534 46.9091H75.5136ZM84.5443 46.2727V43.2727H82.8795V52H86.692C88.8284 52 90.0216 50.7614 90.0216 49.1193C90.0216 47.4432 88.8284 46.2727 86.692 46.2727H84.5443ZM91.2602 52H92.9591V43.2727H91.2602V52ZM84.5443 47.7386H86.692C87.6693 47.7386 88.3682 48.3295 88.3682 49.1705C88.3682 49.9659 87.6693 50.5341 86.692 50.5341H84.5443V47.7386ZM95.1389 55.2727H96.8378V50.642H96.9401C97.2469 51.1989 97.8719 52.1705 99.4628 52.1705C101.576 52.1705 103.111 50.4773 103.111 47.6534C103.111 44.8239 101.554 43.1591 99.4457 43.1591C97.8264 43.1591 97.2412 44.1477 96.9401 44.6875H96.798V43.2727H95.1389V55.2727ZM96.8037 47.6364C96.8037 45.8125 97.5991 44.6023 99.0821 44.6023C100.622 44.6023 101.395 45.9034 101.395 47.6364C101.395 49.3864 100.599 50.7216 99.0821 50.7216C97.6219 50.7216 96.8037 49.4716 96.8037 47.6364ZM107.454 52.1932C108.897 52.1932 109.709 51.4602 110.033 50.8068H110.101V52H111.761V46.2045C111.761 43.6648 109.761 43.1591 108.374 43.1591C106.795 43.1591 105.34 43.7955 104.772 45.3864L106.368 45.75C106.618 45.1307 107.255 44.5341 108.397 44.5341C109.493 44.5341 110.056 45.108 110.056 46.0966V46.1364C110.056 46.7557 109.42 46.7443 107.851 46.9261C106.198 47.1193 104.505 47.5511 104.505 49.5341C104.505 51.25 105.795 52.1932 107.454 52.1932ZM107.823 50.8295C106.863 50.8295 106.17 50.3977 106.17 49.5568C106.17 48.6477 106.976 48.3239 107.959 48.1932C108.511 48.1193 109.817 47.9716 110.062 47.7273V48.8523C110.062 49.8864 109.238 50.8295 107.823 50.8295ZM117.599 52.1761C119.662 52.1761 120.997 50.9375 121.185 49.2386H119.531C119.315 50.1818 118.582 50.7386 117.611 50.7386C116.173 50.7386 115.247 49.5398 115.247 47.6364C115.247 45.767 116.19 44.5909 117.611 44.5909C118.69 44.5909 119.349 45.2727 119.531 46.0909H121.185C121.003 44.3295 119.565 43.1591 117.582 43.1591C115.122 43.1591 113.531 45.0114 113.531 47.6761C113.531 50.3068 115.065 52.1761 117.599 52.1761ZM122.241 44.7386H125.099V52H126.758V44.7386H129.605V43.2727H122.241V44.7386ZM132.375 55.2727C133.779 55.2727 134.665 54.5398 135.171 53.1648L138.779 43.2898L136.943 43.2727L134.733 50.0455H134.642L132.432 43.2727H130.614L133.807 52.1136L133.597 52.6932C133.165 53.8523 132.557 53.9489 131.625 53.6932L131.216 55.0852C131.421 55.1761 131.864 55.2727 132.375 55.2727Z" fill="#965100"/>
</svg>
